<svg width="41" height="32" viewBox="0 0 41 32" fill="none" xmlns="http://www.w3.org/2000/svg">
<path opacity="0.2" d="M18.5987 0V8.92739C18.5987 11.4947 18.1028 14.1642 17.1108 16.9358C16.1481 19.6782 14.8206 22.3039 13.1285 24.8129C11.4364 27.2927 9.51088 29.4224 7.35197 31.2021L0 26.4321C1.6046 24.0106 3.00497 21.3995 4.20112 18.5987C5.39728 15.7688 5.99535 12.5742 5.99535 9.01491V0H18.5987ZM40.6984 0V8.92739C40.6984 11.4947 40.2024 14.1642 39.2105 16.9358C38.2477 19.6782 36.9203 22.3039 35.2282 24.8129C33.536 27.2927 31.6251 29.4224 29.4954 31.2021L22.1434 26.4321C23.7188 24.0106 25.1046 21.3995 26.3008 18.5987C27.4969 15.7688 28.095 12.5742 28.095 9.01491V0H40.6984Z" fill="#B2AB93"/>
</svg>
