<svg width="41" height="32" viewBox="0 0 41 32" fill="none" xmlns="http://www.w3.org/2000/svg">
<path opacity="0.2" d="M22.0996 0V8.92739C22.0996 11.4947 22.5956 14.1642 23.5875 16.9358C24.5503 19.6782 25.8777 22.3039 27.5699 24.8129C29.262 27.2927 31.1875 29.4224 33.3464 31.2021L40.6984 26.4321C39.0938 24.0106 37.6934 21.3995 36.4972 18.5987C35.3011 15.7688 34.703 12.5742 34.703 9.01491V0H22.0996ZM-1.52588e-05 0V8.92739C-1.52588e-05 11.4947 0.495949 14.1642 1.48788 16.9358C2.45064 19.6782 3.77808 22.3039 5.4702 24.8129C7.16232 27.2927 9.07324 29.4224 11.203 31.2021L18.5549 26.4321C16.9795 24.0106 15.5937 21.3995 14.3976 18.5987C13.2014 15.7688 12.6034 12.5742 12.6034 9.01491V0H-1.52588e-05Z" fill="#B2AB93"/>
</svg>
