<svg version="1.1" id="Layer_1" xmlns="http://www.w3.org/2000/svg" xmlns:xlink="http://www.w3.org/1999/xlink" x="0px" y="0px"
	 width="100%" viewBox="0 0 1500 1500" enable-background="new 0 0 1500 1500" xml:space="preserve">
<path fill="#56C02B" opacity="1.000000" stroke="none" 
	d="
M1.000000,739.000000 
	C1.000000,492.666718 1.000000,246.833420 1.000000,1.000099 
	C500.999878,1.000066 1000.999756,1.000066 1500.999756,1.000033 
	C1500.999756,500.999786 1500.999756,1000.999573 1500.999878,1500.999512 
	C1001.000305,1500.999756 501.000610,1500.999756 1.000468,1500.999878 
	C1.000000,1247.166626 1.000000,993.333313 1.000000,739.000000 
M697.895630,418.105774 
	C703.658142,418.105774 709.420654,418.105774 715.291992,418.105774 
	C716.874023,409.425598 718.352783,401.312378 719.795959,393.394165 
	C726.386719,393.394165 732.455261,393.394165 738.517944,393.394165 
	C740.054138,401.862671 741.522705,409.958527 742.960815,417.886230 
	C749.566040,417.886230 755.506470,417.886230 761.556702,417.886230 
	C761.281250,416.110291 761.110474,414.622986 760.815002,413.160828 
	C754.757080,383.183289 748.730591,353.199249 742.570496,323.242676 
	C741.557068,318.314453 741.399597,311.511841 738.213257,309.191650 
	C734.816345,306.718109 728.286072,308.694000 723.139648,308.424286 
	C719.802979,308.249390 718.266663,309.033264 717.552979,312.755035 
	C713.547058,333.645660 709.142395,354.459473 704.944397,375.313721 
	C702.223206,388.831787 699.622742,402.374146 696.140991,415.624390 
	C695.779236,411.888214 695.417419,408.152039 695.008606,403.930237 
	C686.363220,403.930237 677.952576,403.930237 668.999207,403.930237 
	C668.999207,371.901703 668.999207,340.384918 668.999207,308.778809 
	C662.168396,308.778809 655.909058,308.778809 649.435425,308.778809 
	C649.435425,345.276215 649.435425,381.469574 649.435425,417.804047 
	C665.479797,417.804047 681.241150,417.804047 697.895630,418.105774 
M680.231750,986.864441 
	C681.372925,986.624695 682.509827,986.361816 683.655823,986.148254 
	C737.869385,976.045776 777.251038,931.164551 781.409668,874.737793 
	C785.299500,821.956787 751.310425,771.353699 700.268555,753.986023 
	C696.237000,752.614258 692.132385,751.457275 688.026062,750.189392 
	C717.858276,684.414368 679.403809,616.447876 620.137573,599.856201 
	C553.561157,581.218140 487.962494,627.921143 482.658813,694.634155 
	C443.806366,695.311340 414.998627,712.316162 402.818939,749.722473 
	C390.009338,789.063354 404.203522,820.625610 437.815094,843.998718 
	C437.384277,844.607910 437.049011,845.174011 436.626892,845.665527 
	C420.127625,864.876282 413.402344,887.008423 415.865112,912.252136 
	C419.796051,952.545105 456.459320,986.661438 497.050446,987.140076 
	C527.025696,987.493530 557.003540,987.632019 586.980530,987.829468 
	C602.472534,987.931519 617.966614,988.112061 633.457031,987.966675 
	C648.760681,987.823059 664.060913,987.313354 680.231750,986.864441 
M936.500000,1233.000000 
	C993.326050,1233.000000 1050.152100,1233.002686 1106.978149,1232.996338 
	C1113.288330,1232.995728 1113.823364,1232.459717 1113.831543,1226.156738 
	C1113.847412,1213.991577 1113.837036,1201.826538 1113.836060,1189.661377 
	C1113.835327,1181.001221 1113.834351,1181.000244 1105.283081,1181.000244 
	C873.145752,1181.000000 641.008362,1181.000000 408.871033,1181.000000 
	C398.872284,1181.000000 388.870270,1181.151245 378.876282,1180.932861 
	C374.274872,1180.832275 372.703552,1182.641113 372.770020,1187.134155 
	C372.954803,1199.629761 372.832733,1212.130005 372.834106,1224.628418 
	C372.834991,1232.997803 372.836700,1232.999756 381.070038,1232.999756 
	C565.880005,1233.000122 750.690002,1233.000000 936.500000,1233.000000 
M601.500000,1322.002197 
	C769.309753,1322.002197 937.119568,1322.002075 1104.929321,1322.002075 
	C1113.838867,1322.002075 1113.839111,1322.001953 1113.839233,1312.841919 
	C1113.839478,1301.676758 1113.839478,1290.511719 1113.839233,1279.346558 
	C1113.838989,1270.161499 1113.838867,1270.160889 1104.878418,1270.160889 
	C899.907227,1270.160522 694.936035,1270.160522 489.964844,1270.160522 
	C453.136688,1270.160522 416.308533,1270.154785 379.480377,1270.166504 
	C373.379486,1270.168457 372.847382,1270.694580 372.837250,1276.682129 
	C372.815826,1289.347046 372.825623,1302.011841 372.832581,1314.676758 
	C372.836548,1321.914795 372.924438,1322.001099 380.031006,1322.001221 
	C453.520660,1322.002686 527.010315,1322.002197 601.500000,1322.002197 
M230.849777,401.639282 
	C237.637054,409.075378 245.909561,414.095764 255.515381,417.065643 
	C269.603210,421.421234 284.062103,421.921753 298.549927,420.765259 
	C331.832092,418.108582 351.853882,400.898865 359.029297,368.360657 
	C361.419434,357.522064 362.824585,346.359070 363.501709,335.272430 
	C364.864685,312.955933 364.811157,290.617249 357.948669,268.965210 
	C350.978302,246.972916 338.810028,229.778580 314.054749,226.629471 
	C305.306030,225.516556 295.978333,226.105637 287.324493,227.896469 
	C278.637604,229.694168 270.461029,233.957642 262.281586,237.056839 
	C263.261597,217.769363 264.289368,197.542007 265.342407,176.817780 
	C294.478973,176.817780 323.212494,176.817780 352.226624,176.817780 
	C352.226624,160.891525 352.226624,145.486099 352.226624,129.806808 
	C308.055664,129.806808 264.172852,129.806808 220.073578,129.806808 
	C218.769836,184.268845 217.473663,238.414139 216.170715,292.842255 
	C229.013824,292.842255 241.001114,292.842285 252.988388,292.842255 
	C262.589478,292.842255 262.589325,292.842163 266.069397,283.704590 
	C266.187592,283.394257 266.312347,283.086304 266.439941,282.779724 
	C271.313812,271.069489 279.174713,265.961975 290.744659,266.987244 
	C300.869446,267.884460 306.378937,273.436676 309.188568,286.159485 
	C313.550018,305.909576 312.210449,325.920105 311.464844,345.877136 
	C311.141388,354.534363 310.438477,363.175171 306.056183,371.005005 
	C301.837585,378.542358 295.086609,380.636383 287.017914,380.090485 
	C279.469177,379.579773 274.140411,375.901245 271.293060,368.913391 
	C270.234497,366.315552 269.347748,363.545624 269.004822,360.777100 
	C267.887054,351.753265 267.056427,342.693878 266.102692,333.526703 
	C248.637527,333.526703 231.089417,333.526703 212.890823,333.526703 
	C213.636505,343.191864 213.943436,352.499603 215.158417,361.687256 
	C217.048798,375.982269 220.363541,389.881989 230.849777,401.639282 
M182.002121,396.499664 
	C182.002121,307.617828 182.002121,218.735962 182.002121,129.504349 
	C167.812729,129.504349 154.337631,129.475571 140.863281,129.561325 
	C139.833084,129.567871 138.606033,130.155396 137.810593,130.857941 
	C123.385056,143.598846 106.309555,151.846039 88.941750,159.530197 
	C86.084976,160.794144 85.359894,162.321899 85.441750,165.135529 
	C85.606422,170.795700 85.490433,176.464020 85.490372,182.128983 
	C85.490295,188.543854 85.490356,194.958725 85.490356,201.987167 
	C99.732452,196.852783 113.115814,192.027985 126.972687,187.032471 
	C126.972687,263.538452 126.972687,339.752106 126.972687,416.219604 
	C145.489044,416.219604 163.571091,416.219604 182.002121,416.219604 
	C182.002121,409.789337 182.002121,403.644318 182.002121,396.499664 
M882.640015,875.105042 
	C881.704224,875.449158 880.766846,875.789124 879.832947,876.138123 
	C868.291931,880.450256 858.174500,887.044556 849.162842,895.377258 
	C845.663269,898.613159 844.622986,906.471069 847.564697,909.460632 
	C851.316345,913.273132 854.952881,911.203369 858.768311,908.915894 
	C861.707886,907.153442 865.068542,905.883606 868.404480,905.029602 
	C881.044067,901.793640 893.806152,902.094238 906.527954,904.546143 
	C928.378296,908.757385 946.972351,919.268494 963.290771,934.145630 
	C968.389221,938.793762 972.547546,938.729431 977.745422,934.173218 
	C979.122498,932.966187 980.470764,931.724915 981.874878,930.550171 
	C1004.735718,911.424927 1030.685425,900.779480 1060.847778,903.211853 
	C1068.260010,903.809570 1075.717651,906.414612 1082.673584,909.268738 
	C1088.009399,911.458191 1091.916504,912.307312 1094.393799,909.145996 
	C1096.991821,905.830566 1096.252686,899.398560 1092.615356,896.022949 
	C1069.166626,874.262329 1042.121948,866.067444 1010.732117,874.549194 
	C995.923218,878.550537 982.797852,885.919495 970.843689,894.837646 
	C965.347046,891.362610 960.295593,887.812988 954.926392,884.836426 
	C932.397278,872.346863 908.786255,867.187439 882.640015,875.105042 
M624.842285,1122.420410 
	C624.842163,1089.438354 624.794434,1056.456299 624.896606,1023.474609 
	C624.910889,1018.881104 623.468384,1016.831909 618.553101,1016.917603 
	C605.397583,1017.146912 592.233337,1017.130859 579.077148,1016.923401 
	C574.382690,1016.849365 573.078674,1018.778748 573.093323,1023.195190 
	C573.209534,1058.175781 573.223633,1093.156982 573.080261,1128.137329 
	C573.060913,1132.852661 574.871338,1134.160400 579.304626,1134.077759 
	C590.960876,1133.860596 602.624023,1134.037598 614.284119,1133.994263 
	C624.044678,1133.958008 625.079956,1136.007202 624.842285,1122.420410 
M862.799255,733.660217 
	C875.467041,743.053467 875.406982,742.991821 885.505859,733.146240 
	C897.559143,721.395203 911.652527,713.065491 928.176453,709.535828 
	C941.309021,706.730469 954.457214,705.574585 967.123535,712.262024 
	C972.259888,714.973877 976.803345,711.684692 977.096924,705.974548 
	C977.298889,702.044678 975.608582,699.426758 972.630859,697.101440 
	C949.412231,678.970398 924.197632,675.207764 897.284607,687.388611 
	C888.455627,691.384705 880.451660,697.203613 871.791321,702.354858 
	C871.483826,702.165649 870.636841,701.635437 869.781372,701.119385 
	C851.885132,690.324890 832.872192,684.342285 811.736633,687.974060 
	C795.845276,690.704773 783.000610,698.983398 772.055969,710.461975 
	C769.145325,713.514648 769.106140,720.097839 771.614868,722.946472 
	C774.162781,725.839355 777.628479,725.388977 782.299500,722.523315 
	C785.502686,720.558228 789.128418,718.952026 792.778748,718.098877 
	C818.275940,712.140076 841.140564,718.697388 862.799255,733.660217 
M825.535767,340.500305 
	C825.535767,329.926941 825.535767,319.353546 825.535767,308.718048 
	C819.511536,308.718048 814.411438,308.718048 808.718384,308.718048 
	C808.718384,327.989746 808.718384,347.016144 808.718384,366.042542 
	C808.319580,366.148376 807.920837,366.254242 807.522034,366.360077 
	C806.703003,364.670959 805.819336,363.009796 805.075073,361.288330 
	C798.018982,344.967468 791.023682,328.620056 783.884705,312.335632 
	C783.237061,310.858337 781.820435,308.818054 780.569519,308.671387 
	C776.555359,308.200653 772.451294,308.496368 768.337524,308.496368 
	C768.337524,345.492584 768.337524,381.601074 768.337524,417.849426 
	C774.112244,417.849426 779.688843,417.849426 785.779053,417.849426 
	C785.779053,397.503418 785.779053,377.490570 785.779053,357.477753 
	C787.349365,358.721313 788.059937,360.129883 788.663269,361.582916 
	C795.929443,379.080475 803.137756,396.602325 810.504578,414.057343 
	C811.174011,415.643585 812.689697,417.780731 814.063110,417.986206 
	C817.736877,418.535889 821.547058,418.173523 825.535767,418.173523 
	C825.535767,392.120056 825.535767,366.810181 825.535767,340.500305 
M536.097473,405.515778 
	C537.401917,400.733490 539.715210,395.975677 539.831909,391.164581 
	C540.279968,372.696564 540.522156,354.194244 539.886536,335.737640 
	C539.278442,318.079071 530.040649,309.057648 512.586182,307.272827 
	C494.196655,305.392456 481.717773,313.149872 478.305176,328.844727 
	C477.462555,332.720032 477.086731,336.763397 477.047699,340.734894 
	C476.903503,355.396637 476.913544,370.061310 477.040955,384.723358 
	C477.075500,388.698425 477.424011,392.724548 478.150574,396.630096 
	C480.699097,410.329254 488.500122,417.703461 502.310577,419.204132 
	C506.889374,419.701691 511.617462,419.531158 516.210449,419.040344 
	C524.825623,418.119843 531.632996,414.073029 536.097473,405.515778 
M837.828918,330.500031 
	C837.828918,359.576263 837.828918,388.652466 837.828918,417.801605 
	C850.186584,417.801605 862.033997,418.624512 873.716736,417.589172 
	C887.696716,416.350311 895.991211,408.718353 896.902649,394.512878 
	C898.220154,373.979736 897.999634,353.299561 897.408875,332.711578 
	C897.086365,321.471191 890.974976,312.309937 879.358398,310.533447 
	C865.843445,308.466583 851.996094,308.573395 837.828918,307.708557 
	C837.828918,315.885315 837.828918,322.692719 837.828918,330.500031 
M591.154968,319.540710 
	C591.154968,335.372253 591.154968,351.203827 591.154968,367.035370 
	C589.657654,365.991241 589.105347,364.834229 588.595032,363.658997 
	C581.116760,346.438477 573.683777,329.197937 566.096558,312.025574 
	C565.473389,310.615051 563.913391,308.818207 562.611145,308.659637 
	C558.873413,308.204620 555.044434,308.499329 551.111511,308.499329 
	C551.111511,345.277252 551.111511,381.497162 551.111511,417.781921 
	C556.770752,417.781921 562.137634,417.781921 568.129700,417.781921 
	C568.129700,397.144196 568.129700,376.892822 568.129700,356.641479 
	C569.375122,357.636688 569.873352,358.664825 570.311462,359.717987 
	C577.905884,377.975433 585.457153,396.251038 593.150452,414.466675 
	C593.758667,415.906799 595.228699,417.824524 596.494446,417.986481 
	C600.189575,418.459198 603.984192,418.154419 607.665283,418.154419 
	C607.665283,381.264679 607.665283,345.066650 607.665283,308.817078 
	C602.063110,308.817078 596.806213,308.817078 591.155029,308.817078 
	C591.155029,312.285065 591.155029,315.421570 591.154968,319.540710 
M989.505920,609.993835 
	C986.956604,608.127808 984.524170,606.071106 981.839233,604.426392 
	C963.537292,593.215942 944.765320,593.121216 925.721313,602.392700 
	C921.852844,604.276062 919.648926,609.843384 921.259094,613.397949 
	C923.170288,617.617126 926.729065,617.351379 930.615356,616.824585 
	C934.178772,616.341553 937.936462,615.973083 941.437439,616.565552 
	C961.611877,619.979980 976.199829,631.534851 986.873108,648.549316 
	C991.199646,655.446350 993.787842,656.259216 1001.276001,652.778381 
	C1013.609070,647.045288 1026.480835,644.278687 1040.058960,646.053833 
	C1049.547852,647.294250 1058.818481,649.565247 1065.770630,656.775208 
	C1068.861694,659.981018 1071.978516,661.256775 1075.900879,659.065430 
	C1079.109985,657.272583 1080.168457,651.569336 1078.006592,647.855957 
	C1070.918823,635.681213 1061.258301,626.442993 1047.702637,621.727051 
	C1033.941895,616.939636 1020.192871,617.815247 1006.554138,622.049072 
	C1003.422913,623.021118 1001.564819,622.907227 999.410095,620.119019 
	C996.683899,616.591431 993.204773,613.645691 989.505920,609.993835 
M615.995056,230.457611 
	C615.995056,233.234467 615.995056,236.011337 615.995056,238.787262 
	C631.757690,238.787262 646.947815,238.787262 662.199829,238.787262 
	C662.199829,234.135086 662.199829,229.875641 662.199829,225.102448 
	C653.490051,225.102448 645.083191,225.102448 636.574646,225.102448 
	C636.574646,212.890320 636.574646,201.199783 636.574646,188.899261 
	C643.516113,188.899261 650.066650,188.899261 656.579346,188.899261 
	C656.579346,184.015244 656.579346,179.751373 656.579346,174.965683 
	C649.765381,174.965683 643.195557,174.965683 636.489014,174.965683 
	C636.489014,164.379517 636.489014,154.325317 636.489014,143.639771 
	C645.166443,143.639771 653.546814,143.639771 661.900757,143.639771 
	C661.900757,138.566071 661.900757,134.129944 661.900757,129.429703 
	C646.577942,129.429703 631.527405,129.429703 615.995056,129.429703 
	C615.995056,162.955185 615.995056,196.210495 615.995056,230.457611 
M584.859314,196.495041 
	C584.859314,194.193329 584.859314,191.891632 584.859314,189.061310 
	C591.771667,189.061310 598.178284,189.061310 604.507324,189.061310 
	C604.507324,184.109344 604.507324,179.698975 604.507324,174.901642 
	C597.891846,174.901642 591.622437,174.901642 585.213867,174.901642 
	C585.213867,164.295715 585.213867,154.087570 585.213867,143.403305 
	C593.500977,143.403305 601.441223,143.403305 609.577209,143.403305 
	C609.577209,138.520615 609.577209,134.119720 609.577209,129.430634 
	C594.566345,129.430634 579.836060,129.430634 564.782227,129.430634 
	C564.782227,165.968399 564.782227,202.338089 564.782227,238.813141 
	C571.539673,238.813141 578.073792,238.813141 584.859314,238.813141 
	C584.859314,224.792435 584.859314,211.147064 584.859314,196.495041 
M486.547211,239.169189 
	C499.303864,239.169189 512.060547,239.169189 524.918213,239.169189 
	C524.918213,234.247757 524.918213,229.989777 524.918213,225.205658 
	C516.282776,225.205658 507.879700,225.205658 498.941711,225.205658 
	C498.941711,192.982880 498.941711,161.282959 498.941711,129.497253 
	C491.993134,129.497253 485.598785,129.497253 479.219147,129.497253 
	C479.219147,166.195724 479.219147,202.556610 479.219147,239.169189 
	C481.590576,239.169189 483.574829,239.169189 486.547211,239.169189 
M542.489502,239.167221 
	C545.578308,239.167221 548.667053,239.167221 551.596558,239.167221 
	C551.596558,202.097443 551.596558,165.755341 551.596558,129.455338 
	C544.934448,129.455338 538.680054,129.455338 532.302979,129.455338 
	C532.302979,166.105591 532.302979,202.462860 532.302979,239.167221 
	C535.569336,239.167221 538.539856,239.167221 542.489502,239.167221 
z"/>
<path fill="#FFFFFF" opacity="1.000000" stroke="none" 
	d="
M679.797180,986.914307 
	C664.060913,987.313354 648.760681,987.823059 633.457031,987.966675 
	C617.966614,988.112061 602.472534,987.931519 586.980530,987.829468 
	C557.003540,987.632019 527.025696,987.493530 497.050446,987.140076 
	C456.459320,986.661438 419.796051,952.545105 415.865112,912.252136 
	C413.402344,887.008423 420.127625,864.876282 436.626892,845.665527 
	C437.049011,845.174011 437.384277,844.607910 437.815094,843.998718 
	C404.203522,820.625610 390.009338,789.063354 402.818939,749.722473 
	C414.998627,712.316162 443.806366,695.311340 482.658813,694.634155 
	C487.962494,627.921143 553.561157,581.218140 620.137573,599.856201 
	C679.403809,616.447876 717.858276,684.414368 688.026062,750.189392 
	C692.132385,751.457275 696.237000,752.614258 700.268555,753.986023 
	C751.310425,771.353699 785.299500,821.956787 781.409668,874.737793 
	C777.251038,931.164551 737.869385,976.045776 683.655823,986.148254 
	C682.509827,986.361816 681.372925,986.624695 679.797180,986.914307 
z"/>
<path fill="#FFFFFF" opacity="1.000000" stroke="none" 
	d="
M936.000000,1233.000000 
	C750.690002,1233.000000 565.880005,1233.000122 381.070038,1232.999756 
	C372.836700,1232.999756 372.834991,1232.997803 372.834106,1224.628418 
	C372.832733,1212.130005 372.954803,1199.629761 372.770020,1187.134155 
	C372.703552,1182.641113 374.274872,1180.832275 378.876282,1180.932861 
	C388.870270,1181.151245 398.872284,1181.000000 408.871033,1181.000000 
	C641.008362,1181.000000 873.145752,1181.000000 1105.283081,1181.000244 
	C1113.834351,1181.000244 1113.835327,1181.001221 1113.836060,1189.661377 
	C1113.837036,1201.826538 1113.847412,1213.991577 1113.831543,1226.156738 
	C1113.823364,1232.459717 1113.288330,1232.995728 1106.978149,1232.996338 
	C1050.152100,1233.002686 993.326050,1233.000000 936.000000,1233.000000 
z"/>
<path fill="#FEFFFE" opacity="1.000000" stroke="none" 
	d="
M601.000000,1322.002197 
	C527.010315,1322.002197 453.520660,1322.002686 380.031006,1322.001221 
	C372.924438,1322.001099 372.836548,1321.914795 372.832581,1314.676758 
	C372.825623,1302.011841 372.815826,1289.347046 372.837250,1276.682129 
	C372.847382,1270.694580 373.379486,1270.168457 379.480377,1270.166504 
	C416.308533,1270.154785 453.136688,1270.160522 489.964844,1270.160522 
	C694.936035,1270.160522 899.907227,1270.160522 1104.878418,1270.160889 
	C1113.838867,1270.160889 1113.838989,1270.161499 1113.839233,1279.346558 
	C1113.839478,1290.511719 1113.839478,1301.676758 1113.839233,1312.841919 
	C1113.839111,1322.001953 1113.838867,1322.002075 1104.929321,1322.002075 
	C937.119568,1322.002075 769.309753,1322.002197 601.000000,1322.002197 
z"/>
<path fill="#FDFEFD" opacity="1.000000" stroke="none" 
	d="
M230.614609,401.374939 
	C220.363541,389.881989 217.048798,375.982269 215.158417,361.687256 
	C213.943436,352.499603 213.636505,343.191864 212.890823,333.526703 
	C231.089417,333.526703 248.637527,333.526703 266.102692,333.526703 
	C267.056427,342.693878 267.887054,351.753265 269.004822,360.777100 
	C269.347748,363.545624 270.234497,366.315552 271.293060,368.913391 
	C274.140411,375.901245 279.469177,379.579773 287.017914,380.090485 
	C295.086609,380.636383 301.837585,378.542358 306.056183,371.005005 
	C310.438477,363.175171 311.141388,354.534363 311.464844,345.877136 
	C312.210449,325.920105 313.550018,305.909576 309.188568,286.159485 
	C306.378937,273.436676 300.869446,267.884460 290.744659,266.987244 
	C279.174713,265.961975 271.313812,271.069489 266.439941,282.779724 
	C266.312347,283.086304 266.187592,283.394257 266.069397,283.704590 
	C262.589325,292.842163 262.589478,292.842255 252.988388,292.842255 
	C241.001114,292.842285 229.013824,292.842255 216.170715,292.842255 
	C217.473663,238.414139 218.769836,184.268845 220.073578,129.806808 
	C264.172852,129.806808 308.055664,129.806808 352.226624,129.806808 
	C352.226624,145.486099 352.226624,160.891525 352.226624,176.817780 
	C323.212494,176.817780 294.478973,176.817780 265.342407,176.817780 
	C264.289368,197.542007 263.261597,217.769363 262.281586,237.056839 
	C270.461029,233.957642 278.637604,229.694168 287.324493,227.896469 
	C295.978333,226.105637 305.306030,225.516556 314.054749,226.629471 
	C338.810028,229.778580 350.978302,246.972916 357.948669,268.965210 
	C364.811157,290.617249 364.864685,312.955933 363.501709,335.272430 
	C362.824585,346.359070 361.419434,357.522064 359.029297,368.360657 
	C351.853882,400.898865 331.832092,418.108582 298.549927,420.765259 
	C284.062103,421.921753 269.603210,421.421234 255.515381,417.065643 
	C245.909561,414.095764 237.637054,409.075378 230.614609,401.374939 
z"/>
<path fill="#FEFFFE" opacity="1.000000" stroke="none" 
	d="
M182.002121,396.999481 
	C182.002121,403.644318 182.002121,409.789337 182.002121,416.219604 
	C163.571091,416.219604 145.489044,416.219604 126.972687,416.219604 
	C126.972687,339.752106 126.972687,263.538452 126.972687,187.032471 
	C113.115814,192.027985 99.732452,196.852783 85.490356,201.987167 
	C85.490356,194.958725 85.490295,188.543854 85.490372,182.128983 
	C85.490433,176.464020 85.606422,170.795700 85.441750,165.135529 
	C85.359894,162.321899 86.084976,160.794144 88.941750,159.530197 
	C106.309555,151.846039 123.385056,143.598846 137.810593,130.857941 
	C138.606033,130.155396 139.833084,129.567871 140.863281,129.561325 
	C154.337631,129.475571 167.812729,129.504349 182.002121,129.504349 
	C182.002121,218.735962 182.002121,307.617828 182.002121,396.999481 
z"/>
<path fill="#FDFEFD" opacity="1.000000" stroke="none" 
	d="
M883.031494,875.018250 
	C908.786255,867.187439 932.397278,872.346863 954.926392,884.836426 
	C960.295593,887.812988 965.347046,891.362610 970.843689,894.837646 
	C982.797852,885.919495 995.923218,878.550537 1010.732117,874.549194 
	C1042.121948,866.067444 1069.166626,874.262329 1092.615356,896.022949 
	C1096.252686,899.398560 1096.991821,905.830566 1094.393799,909.145996 
	C1091.916504,912.307312 1088.009399,911.458191 1082.673584,909.268738 
	C1075.717651,906.414612 1068.260010,903.809570 1060.847778,903.211853 
	C1030.685425,900.779480 1004.735718,911.424927 981.874878,930.550171 
	C980.470764,931.724915 979.122498,932.966187 977.745422,934.173218 
	C972.547546,938.729431 968.389221,938.793762 963.290771,934.145630 
	C946.972351,919.268494 928.378296,908.757385 906.527954,904.546143 
	C893.806152,902.094238 881.044067,901.793640 868.404480,905.029602 
	C865.068542,905.883606 861.707886,907.153442 858.768311,908.915894 
	C854.952881,911.203369 851.316345,913.273132 847.564697,909.460632 
	C844.622986,906.471069 845.663269,898.613159 849.162842,895.377258 
	C858.174500,887.044556 868.291931,880.450256 879.832947,876.138123 
	C880.766846,875.789124 881.704224,875.449158 883.031494,875.018250 
z"/>
<path fill="#FDFEFD" opacity="1.000000" stroke="none" 
	d="
M624.842285,1122.905884 
	C625.079956,1136.007202 624.044678,1133.958008 614.284119,1133.994263 
	C602.624023,1134.037598 590.960876,1133.860596 579.304626,1134.077759 
	C574.871338,1134.160400 573.060913,1132.852661 573.080261,1128.137329 
	C573.223633,1093.156982 573.209534,1058.175781 573.093323,1023.195190 
	C573.078674,1018.778748 574.382690,1016.849365 579.077148,1016.923401 
	C592.233337,1017.130859 605.397583,1017.146912 618.553101,1016.917603 
	C623.468384,1016.831909 624.910889,1018.881104 624.896606,1023.474609 
	C624.794434,1056.456299 624.842163,1089.438354 624.842285,1122.905884 
z"/>
<path fill="#FDFEFD" opacity="1.000000" stroke="none" 
	d="
M862.512695,733.441467 
	C841.140564,718.697388 818.275940,712.140076 792.778748,718.098877 
	C789.128418,718.952026 785.502686,720.558228 782.299500,722.523315 
	C777.628479,725.388977 774.162781,725.839355 771.614868,722.946472 
	C769.106140,720.097839 769.145325,713.514648 772.055969,710.461975 
	C783.000610,698.983398 795.845276,690.704773 811.736633,687.974060 
	C832.872192,684.342285 851.885132,690.324890 869.781372,701.119385 
	C870.636841,701.635437 871.483826,702.165649 871.791321,702.354858 
	C880.451660,697.203613 888.455627,691.384705 897.284607,687.388611 
	C924.197632,675.207764 949.412231,678.970398 972.630859,697.101440 
	C975.608582,699.426758 977.298889,702.044678 977.096924,705.974548 
	C976.803345,711.684692 972.259888,714.973877 967.123535,712.262024 
	C954.457214,705.574585 941.309021,706.730469 928.176453,709.535828 
	C911.652527,713.065491 897.559143,721.395203 885.505859,733.146240 
	C875.406982,742.991821 875.467041,743.053467 862.512695,733.441467 
z"/>
<path fill="#FAFDF8" opacity="1.000000" stroke="none" 
	d="
M825.535767,341.000305 
	C825.535767,366.810181 825.535767,392.120056 825.535767,418.173523 
	C821.547058,418.173523 817.736877,418.535889 814.063110,417.986206 
	C812.689697,417.780731 811.174011,415.643585 810.504578,414.057343 
	C803.137756,396.602325 795.929443,379.080475 788.663269,361.582916 
	C788.059937,360.129883 787.349365,358.721313 785.779053,357.477753 
	C785.779053,377.490570 785.779053,397.503418 785.779053,417.849426 
	C779.688843,417.849426 774.112244,417.849426 768.337524,417.849426 
	C768.337524,381.601074 768.337524,345.492584 768.337524,308.496368 
	C772.451294,308.496368 776.555359,308.200653 780.569519,308.671387 
	C781.820435,308.818054 783.237061,310.858337 783.884705,312.335632 
	C791.023682,328.620056 798.018982,344.967468 805.075073,361.288330 
	C805.819336,363.009796 806.703003,364.670959 807.522034,366.360077 
	C807.920837,366.254242 808.319580,366.148376 808.718384,366.042542 
	C808.718384,347.016144 808.718384,327.989746 808.718384,308.718048 
	C814.411438,308.718048 819.511536,308.718048 825.535767,308.718048 
	C825.535767,319.353546 825.535767,329.926941 825.535767,341.000305 
z"/>
<path fill="#FCFEFB" opacity="1.000000" stroke="none" 
	d="
M535.958008,405.860504 
	C531.632996,414.073029 524.825623,418.119843 516.210449,419.040344 
	C511.617462,419.531158 506.889374,419.701691 502.310577,419.204132 
	C488.500122,417.703461 480.699097,410.329254 478.150574,396.630096 
	C477.424011,392.724548 477.075500,388.698425 477.040955,384.723358 
	C476.913544,370.061310 476.903503,355.396637 477.047699,340.734894 
	C477.086731,336.763397 477.462555,332.720032 478.305176,328.844727 
	C481.717773,313.149872 494.196655,305.392456 512.586182,307.272827 
	C530.040649,309.057648 539.278442,318.079071 539.886536,335.737640 
	C540.522156,354.194244 540.279968,372.696564 539.831909,391.164581 
	C539.715210,395.975677 537.401917,400.733490 535.958008,405.860504 
M497.512665,363.499634 
	C497.659668,373.979279 497.481598,384.477356 498.074005,394.931763 
	C498.436462,401.328674 502.152496,404.349884 508.048737,404.610260 
	C514.269531,404.885010 517.840454,402.070343 519.127441,395.628113 
	C519.579590,393.364899 519.788269,391.017731 519.799133,388.707428 
	C519.860779,375.556793 519.847107,362.405670 519.820251,349.254791 
	C519.809448,343.931305 520.063904,338.572815 519.551636,333.292938 
	C518.789307,325.435394 515.360840,322.206268 508.761230,322.175934 
	C501.748962,322.143707 498.295929,325.312195 497.865845,333.558319 
	C497.363770,343.185364 497.597900,352.850830 497.512665,363.499634 
z"/>
<path fill="#FEFFFD" opacity="1.000000" stroke="none" 
	d="
M837.828918,330.000061 
	C837.828918,322.692719 837.828918,315.885315 837.828918,307.708557 
	C851.996094,308.573395 865.843445,308.466583 879.358398,310.533447 
	C890.974976,312.309937 897.086365,321.471191 897.408875,332.711578 
	C897.999634,353.299561 898.220154,373.979736 896.902649,394.512878 
	C895.991211,408.718353 887.696716,416.350311 873.716736,417.589172 
	C862.033997,418.624512 850.186584,417.801605 837.828918,417.801605 
	C837.828918,388.652466 837.828918,359.576263 837.828918,330.000061 
M877.837097,378.398285 
	C877.603516,363.284637 877.583984,348.163208 877.033813,333.061096 
	C876.805176,326.787384 873.469482,323.857880 867.239807,323.217041 
	C864.329468,322.917694 861.362915,323.165833 858.396851,323.165833 
	C858.396851,350.282593 858.396851,377.074249 858.396851,404.001404 
	C860.788086,404.001404 862.781311,404.043579 864.772339,403.994049 
	C873.087769,403.787231 876.406616,400.718933 877.157349,392.292358 
	C877.539978,387.997772 877.620239,383.676239 877.837097,378.398285 
z"/>
<path fill="#FDFEFC" opacity="1.000000" stroke="none" 
	d="
M591.155029,319.049377 
	C591.155029,315.421570 591.155029,312.285065 591.155029,308.817078 
	C596.806213,308.817078 602.063110,308.817078 607.665283,308.817078 
	C607.665283,345.066650 607.665283,381.264679 607.665283,418.154419 
	C603.984192,418.154419 600.189575,418.459198 596.494446,417.986481 
	C595.228699,417.824524 593.758667,415.906799 593.150452,414.466675 
	C585.457153,396.251038 577.905884,377.975433 570.311462,359.717987 
	C569.873352,358.664825 569.375122,357.636688 568.129700,356.641479 
	C568.129700,376.892822 568.129700,397.144196 568.129700,417.781921 
	C562.137634,417.781921 556.770752,417.781921 551.111511,417.781921 
	C551.111511,381.497162 551.111511,345.277252 551.111511,308.499329 
	C555.044434,308.499329 558.873413,308.204620 562.611145,308.659637 
	C563.913391,308.818207 565.473389,310.615051 566.096558,312.025574 
	C573.683777,329.197937 581.116760,346.438477 588.595032,363.658997 
	C589.105347,364.834229 589.657654,365.991241 591.154968,367.035370 
	C591.154968,351.203827 591.154968,335.372253 591.155029,319.049377 
z"/>
<path fill="#FDFEFD" opacity="1.000000" stroke="none" 
	d="
M989.778198,610.221436 
	C993.204773,613.645691 996.683899,616.591431 999.410095,620.119019 
	C1001.564819,622.907227 1003.422913,623.021118 1006.554138,622.049072 
	C1020.192871,617.815247 1033.941895,616.939636 1047.702637,621.727051 
	C1061.258301,626.442993 1070.918823,635.681213 1078.006592,647.855957 
	C1080.168457,651.569336 1079.109985,657.272583 1075.900879,659.065430 
	C1071.978516,661.256775 1068.861694,659.981018 1065.770630,656.775208 
	C1058.818481,649.565247 1049.547852,647.294250 1040.058960,646.053833 
	C1026.480835,644.278687 1013.609070,647.045288 1001.276001,652.778381 
	C993.787842,656.259216 991.199646,655.446350 986.873108,648.549316 
	C976.199829,631.534851 961.611877,619.979980 941.437439,616.565552 
	C937.936462,615.973083 934.178772,616.341553 930.615356,616.824585 
	C926.729065,617.351379 923.170288,617.617126 921.259094,613.397949 
	C919.648926,609.843384 921.852844,604.276062 925.721313,602.392700 
	C944.765320,593.121216 963.537292,593.215942 981.839233,604.426392 
	C984.524170,606.071106 986.956604,608.127808 989.778198,610.221436 
z"/>
<path fill="#FDFEFC" opacity="1.000000" stroke="none" 
	d="
M696.968140,415.905640 
	C699.622742,402.374146 702.223206,388.831787 704.944397,375.313721 
	C709.142395,354.459473 713.547058,333.645660 717.552979,312.755035 
	C718.266663,309.033264 719.802979,308.249390 723.139648,308.424286 
	C728.286072,308.694000 734.816345,306.718109 738.213257,309.191650 
	C741.399597,311.511841 741.557068,318.314453 742.570496,323.242676 
	C748.730591,353.199249 754.757080,383.183289 760.815002,413.160828 
	C761.110474,414.622986 761.281250,416.110291 761.556702,417.886230 
	C755.506470,417.886230 749.566040,417.886230 742.960815,417.886230 
	C741.522705,409.958527 740.054138,401.862671 738.517944,393.394165 
	C732.455261,393.394165 726.386719,393.394165 719.795959,393.394165 
	C718.352783,401.312378 716.874023,409.425598 715.291992,418.105774 
	C709.420654,418.105774 703.658142,418.105774 697.446289,417.638458 
	C696.987305,416.749298 696.977722,416.327484 696.968140,415.905640 
M724.848450,362.176849 
	C723.896790,367.874573 722.945129,373.572296 721.939392,379.593506 
	C726.788879,379.593506 731.201538,379.593506 736.278564,379.593506 
	C734.036926,365.788055 731.847107,352.301758 729.657288,338.815460 
	C729.302979,338.820282 728.948608,338.825104 728.594238,338.829926 
	C727.380737,346.324677 726.167175,353.819397 724.848450,362.176849 
z"/>
<path fill="#FDFEFD" opacity="1.000000" stroke="none" 
	d="
M615.995056,229.961700 
	C615.995056,196.210495 615.995056,162.955185 615.995056,129.429703 
	C631.527405,129.429703 646.577942,129.429703 661.900757,129.429703 
	C661.900757,134.129944 661.900757,138.566071 661.900757,143.639771 
	C653.546814,143.639771 645.166443,143.639771 636.489014,143.639771 
	C636.489014,154.325317 636.489014,164.379517 636.489014,174.965683 
	C643.195557,174.965683 649.765381,174.965683 656.579346,174.965683 
	C656.579346,179.751373 656.579346,184.015244 656.579346,188.899261 
	C650.066650,188.899261 643.516113,188.899261 636.574646,188.899261 
	C636.574646,201.199783 636.574646,212.890320 636.574646,225.102448 
	C645.083191,225.102448 653.490051,225.102448 662.199829,225.102448 
	C662.199829,229.875641 662.199829,234.135086 662.199829,238.787262 
	C646.947815,238.787262 631.757690,238.787262 615.995056,238.787262 
	C615.995056,236.011337 615.995056,233.234467 615.995056,229.961700 
z"/>
<path fill="#F9FDF8" opacity="1.000000" stroke="none" 
	d="
M584.859314,196.998352 
	C584.859314,211.147064 584.859314,224.792435 584.859314,238.813141 
	C578.073792,238.813141 571.539673,238.813141 564.782227,238.813141 
	C564.782227,202.338089 564.782227,165.968399 564.782227,129.430634 
	C579.836060,129.430634 594.566345,129.430634 609.577209,129.430634 
	C609.577209,134.119720 609.577209,138.520615 609.577209,143.403305 
	C601.441223,143.403305 593.500977,143.403305 585.213867,143.403305 
	C585.213867,154.087570 585.213867,164.295715 585.213867,174.901642 
	C591.622437,174.901642 597.891846,174.901642 604.507324,174.901642 
	C604.507324,179.698975 604.507324,184.109344 604.507324,189.061310 
	C598.178284,189.061310 591.771667,189.061310 584.859314,189.061310 
	C584.859314,191.891632 584.859314,194.193329 584.859314,196.998352 
z"/>
<path fill="#FCFEFB" opacity="1.000000" stroke="none" 
	d="
M696.554565,415.765015 
	C696.977722,416.327484 696.987305,416.749298 696.999695,417.487610 
	C681.241150,417.804047 665.479797,417.804047 649.435425,417.804047 
	C649.435425,381.469574 649.435425,345.276215 649.435425,308.778809 
	C655.909058,308.778809 662.168396,308.778809 668.999207,308.778809 
	C668.999207,340.384918 668.999207,371.901703 668.999207,403.930237 
	C677.952576,403.930237 686.363220,403.930237 695.008606,403.930237 
	C695.417419,408.152039 695.779236,411.888214 696.554565,415.765015 
z"/>
<path fill="#FEFFFE" opacity="1.000000" stroke="none" 
	d="
M486.053162,239.169189 
	C483.574829,239.169189 481.590576,239.169189 479.219147,239.169189 
	C479.219147,202.556610 479.219147,166.195724 479.219147,129.497253 
	C485.598785,129.497253 491.993134,129.497253 498.941711,129.497253 
	C498.941711,161.282959 498.941711,192.982880 498.941711,225.205658 
	C507.879700,225.205658 516.282776,225.205658 524.918213,225.205658 
	C524.918213,229.989777 524.918213,234.247757 524.918213,239.169189 
	C512.060547,239.169189 499.303864,239.169189 486.053162,239.169189 
z"/>
<path fill="#FFFFFF" opacity="1.000000" stroke="none" 
	d="
M541.999939,239.167221 
	C538.539856,239.167221 535.569336,239.167221 532.302979,239.167221 
	C532.302979,202.462860 532.302979,166.105591 532.302979,129.455338 
	C538.680054,129.455338 544.934448,129.455338 551.596558,129.455338 
	C551.596558,165.755341 551.596558,202.097443 551.596558,239.167221 
	C548.667053,239.167221 545.578308,239.167221 541.999939,239.167221 
z"/>
<path fill="#58C12E" opacity="1.000000" stroke="none" 
	d="
M497.512634,362.999634 
	C497.597900,352.850830 497.363770,343.185364 497.865845,333.558319 
	C498.295929,325.312195 501.748962,322.143707 508.761230,322.175934 
	C515.360840,322.206268 518.789307,325.435394 519.551636,333.292938 
	C520.063904,338.572815 519.809448,343.931305 519.820251,349.254791 
	C519.847107,362.405670 519.860779,375.556793 519.799133,388.707428 
	C519.788269,391.017731 519.579590,393.364899 519.127441,395.628113 
	C517.840454,402.070343 514.269531,404.885010 508.048737,404.610260 
	C502.152496,404.349884 498.436462,401.328674 498.074005,394.931763 
	C497.481598,384.477356 497.659668,373.979279 497.512634,362.999634 
z"/>
<path fill="#58C12E" opacity="1.000000" stroke="none" 
	d="
M877.837158,378.882568 
	C877.620239,383.676239 877.539978,387.997772 877.157349,392.292358 
	C876.406616,400.718933 873.087769,403.787231 864.772339,403.994049 
	C862.781311,404.043579 860.788086,404.001404 858.396851,404.001404 
	C858.396851,377.074249 858.396851,350.282593 858.396851,323.165833 
	C861.362915,323.165833 864.329468,322.917694 867.239807,323.217041 
	C873.469482,323.857880 876.805176,326.787384 877.033813,333.061096 
	C877.583984,348.163208 877.603516,363.284637 877.837158,378.882568 
z"/>
<path fill="#5FC336" opacity="1.000000" stroke="none" 
	d="
M724.901062,361.745483 
	C726.167175,353.819397 727.380737,346.324677 728.594238,338.829926 
	C728.948608,338.825104 729.302979,338.820282 729.657288,338.815460 
	C731.847107,352.301758 734.036926,365.788055 736.278564,379.593506 
	C731.201538,379.593506 726.788879,379.593506 721.939392,379.593506 
	C722.945129,373.572296 723.896790,367.874573 724.901062,361.745483 
z"/>
</svg>