<svg version="1.1" id="Layer_1" xmlns="http://www.w3.org/2000/svg" xmlns:xlink="http://www.w3.org/1999/xlink" x="0px" y="0px"
	 width="100%" viewBox="0 0 1500 1500" enable-background="new 0 0 1500 1500" xml:space="preserve">
<path fill="#FF3A21" opacity="1.000000" stroke="none" 
	d="
M1.000000,529.000000 
	C1.000000,352.666687 1.000000,176.833389 1.000000,1.000071 
	C500.999878,1.000047 1000.999756,1.000047 1500.999756,1.000024 
	C1500.999756,500.999786 1500.999756,1000.999573 1500.999878,1500.999512 
	C1001.000305,1500.999756 501.000610,1500.999756 1.000450,1500.999878 
	C1.000000,1177.166626 1.000000,853.333313 1.000000,529.000000 
M815.077637,310.587830 
	C819.850586,325.116394 824.514038,339.682190 829.429321,354.162415 
	C833.758179,366.914917 838.264343,379.491211 836.961792,393.425232 
	C836.210266,401.464539 836.825378,409.631622 836.825378,417.913544 
	C843.446472,417.913544 849.511108,417.913544 856.005554,417.913544 
	C856.005554,405.367676 855.955933,393.078003 856.049988,380.789398 
	C856.067505,378.506348 856.364685,376.134277 857.044312,373.963409 
	C859.874878,364.922394 862.915039,355.947174 865.851807,346.939148 
	C869.953918,334.356445 874.032227,321.765961 878.345947,308.485321 
	C872.912170,308.485321 868.132568,308.638916 863.369202,308.427124 
	C860.558899,308.302155 859.202454,309.169128 858.501953,312.006622 
	C857.189087,317.324768 855.468872,322.543060 853.892883,327.795349 
	C851.664429,335.221924 849.413086,342.641663 846.838806,351.166199 
	C845.948975,348.643158 845.432678,347.310974 845.006653,345.950470 
	C841.679321,335.325226 838.441956,324.670807 834.985474,314.087891 
	C834.381042,312.237244 832.947266,309.283752 831.777527,309.225311 
	C826.224365,308.948059 820.630005,309.496887 814.162720,309.758423 
	C812.450195,309.323090 810.739990,308.520142 809.024841,308.509644 
	C793.203186,308.412689 777.380737,308.442291 761.558533,308.470825 
	C760.148743,308.473389 758.739380,308.727905 757.488770,308.849884 
	C757.488770,313.959137 757.488770,318.533356 757.488770,323.691650 
	C763.564209,323.691650 769.299255,323.691650 775.595703,323.691650 
	C775.595703,355.482635 775.595703,386.678558 775.595703,417.944641 
	C782.630066,417.944641 789.081055,417.944641 796.001221,417.944641 
	C796.001221,386.452545 796.001221,355.208984 796.001221,323.365295 
	C802.024109,323.365295 807.586121,323.365295 813.548035,323.365295 
	C813.548035,320.297394 813.357239,317.802795 813.609680,315.353912 
	C813.803894,313.469757 814.555786,311.643097 815.077637,310.587830 
M952.499573,634.509155 
	C962.182800,634.509155 971.866028,634.509155 981.530151,634.509155 
	C953.891296,662.147583 926.731812,689.306702 900.047058,715.991089 
	C811.674744,655.028198 718.568726,644.235168 624.518066,699.157410 
	C536.456726,750.581970 496.861084,831.209595 503.386353,933.119141 
	C506.348236,979.376953 523.267700,1021.243103 551.297546,1058.199951 
	C592.920410,1113.078857 648.381897,1144.968628 716.089478,1155.213867 
	C716.089478,1179.285645 716.089478,1202.851929 716.089478,1226.829834 
	C713.889832,1226.829834 712.086853,1226.829834 710.283936,1226.829834 
	C688.619873,1226.829834 666.955017,1226.922974 645.292358,1226.748657 
	C641.143860,1226.715332 639.870667,1227.970337 639.910706,1232.143311 
	C640.103943,1252.305786 640.140625,1272.472778 639.890625,1292.633911 
	C639.832947,1297.288818 641.204651,1298.644287 645.804993,1298.600342 
	C667.300476,1298.394531 688.799072,1298.509155 710.296509,1298.509277 
	C712.221619,1298.509399 714.146729,1298.509277 716.490784,1298.509277 
	C716.490784,1301.236206 716.490723,1303.208008 716.490784,1305.179932 
	C716.490967,1325.510864 716.590637,1345.842651 716.411560,1366.171997 
	C716.373474,1370.495605 717.658020,1371.972046 722.100769,1371.927368 
	C742.263000,1371.723877 762.429749,1371.712524 782.591675,1371.932251 
	C787.234436,1371.982910 788.641907,1370.510498 788.596619,1365.918213 
	C788.394836,1345.422607 788.509094,1324.923950 788.509277,1304.426392 
	C788.509338,1302.646606 788.509338,1300.866943 788.509338,1298.509277 
	C790.892090,1298.509277 792.674683,1298.509277 794.457214,1298.509277 
	C815.954651,1298.509155 837.453613,1298.374512 858.948486,1298.610962 
	C863.843872,1298.664673 865.158630,1297.078247 865.101868,1292.322021 
	C864.865173,1272.493896 864.848755,1252.659180 865.110596,1232.831787 
	C865.175781,1227.893799 863.543579,1226.681641 858.829834,1226.730957 
	C837.334778,1226.956299 815.835999,1226.829834 794.338562,1226.829834 
	C792.556458,1226.829834 790.774292,1226.829834 789.003723,1226.829834 
	C788.770935,1225.578735 788.546814,1224.934326 788.546082,1224.289551 
	C788.522034,1201.958862 788.577209,1179.627930 788.447998,1157.297974 
	C788.429382,1154.079468 790.064392,1153.505371 792.618835,1153.029907 
	C845.719116,1143.145386 891.471252,1119.038330 927.720032,1079.111694 
	C990.145325,1010.352966 1008.493591,930.366760 984.242371,840.800659 
	C977.272888,815.060913 965.137817,791.567566 950.330444,770.294067 
	C977.343140,743.275513 1004.131836,716.481018 1031.161743,689.445251 
	C1031.161743,690.870972 1031.161743,692.457703 1031.161743,694.044434 
	C1031.161865,714.208740 1031.242432,734.373596 1031.094360,754.536804 
	C1031.064697,758.576660 1032.222046,760.126221 1036.486938,760.083862 
	C1055.482788,759.895447 1074.482422,759.904297 1093.478638,760.077454 
	C1097.714844,760.116089 1098.906128,758.550781 1098.900146,754.506165 
	C1098.810303,693.846863 1098.812500,633.187317 1098.895874,572.527954 
	C1098.901367,568.570801 1097.886230,566.910645 1093.555054,566.918945 
	C1032.729126,567.035095 971.902893,567.023010 911.076904,566.937378 
	C907.287231,566.932068 905.723572,567.940918 905.758057,572.003479 
	C905.920349,591.166504 905.936401,610.332703 905.745422,629.495239 
	C905.704529,633.594543 907.264221,634.603333 911.004944,634.563965 
	C924.501831,634.422058 938.001099,634.508728 952.499573,634.509155 
M172.588852,237.023804 
	C171.837799,237.451401 171.086761,237.878998 169.857025,238.579132 
	C170.928162,217.716278 171.966888,197.484482 173.031998,176.738998 
	C202.219284,176.738998 230.944168,176.738998 259.743286,176.738998 
	C259.743286,160.779907 259.743286,145.362503 259.743286,129.772888 
	C215.736206,129.772888 171.990540,129.772888 127.740417,129.772888 
	C126.438637,184.198364 125.143433,238.349136 123.846832,292.558411 
	C140.062454,292.558411 155.473740,292.558411 170.786041,292.558411 
	C172.219147,288.532684 173.332611,284.690948 174.934387,281.064941 
	C177.647385,274.923401 181.776749,270.095459 188.458496,267.920044 
	C202.399857,263.381104 213.468628,270.252808 216.893570,286.060547 
	C220.917435,304.632568 220.400055,323.494385 219.184418,342.273193 
	C218.620911,350.978119 217.438141,359.878479 214.831726,368.153381 
	C211.872192,377.549469 205.137466,380.736359 194.774979,380.086304 
	C186.169785,379.546478 180.432571,375.182007 178.102829,366.171417 
	C176.448822,359.774292 175.729553,353.112701 174.915405,346.529266 
	C174.376190,342.169312 174.407181,337.738861 174.190674,333.492096 
	C156.149445,333.492096 138.727783,333.492096 121.003555,333.492096 
	C121.042496,349.181152 122.156921,364.393829 126.459435,379.217407 
	C132.451736,399.862915 146.048355,412.668732 166.795563,418.072327 
	C179.701828,421.433716 192.839981,421.815643 205.988266,420.784058 
	C239.868317,418.125885 260.145020,400.447723 266.980072,367.108215 
	C269.276154,355.908508 270.487244,344.415283 271.276459,332.992828 
	C272.810089,310.795776 272.101166,288.674774 265.043976,267.280304 
	C259.362488,250.056396 250.386688,235.044556 232.062744,229.129593 
	C211.533325,222.502686 191.656967,225.154999 172.588852,237.023804 
M512.973877,390.215698 
	C512.983154,372.555237 513.377136,354.884277 512.895691,337.237213 
	C512.392456,318.791443 503.456512,308.858002 485.904877,307.441193 
	C464.633331,305.723999 452.082977,313.359253 450.602600,333.276672 
	C449.125702,353.147675 449.194183,373.296783 450.645447,393.173523 
	C451.937866,410.874695 460.534149,418.009521 478.141052,419.491028 
	C482.446228,419.853271 484.914642,421.437592 487.393524,424.705170 
	C492.077362,430.879272 497.381683,436.546051 504.829224,440.379669 
	C505.844818,436.842041 506.537689,433.760712 507.625885,430.825958 
	C508.709808,427.902679 508.100250,425.990875 505.594360,424.027008 
	C502.937286,421.944641 500.782990,419.220734 498.185577,416.546936 
	C508.478516,410.672272 511.623627,401.426300 512.973877,390.215698 
M604.834290,239.184006 
	C613.820923,239.121674 622.821289,239.353516 631.791138,238.933151 
	C648.268921,238.160934 658.077087,229.334305 658.933838,212.914841 
	C659.885925,194.668152 659.571594,176.345139 659.420166,158.058563 
	C659.383911,153.670258 658.248901,149.148041 656.840820,144.948410 
	C654.849792,139.010223 650.624084,134.634949 644.697266,132.476929 
	C629.902771,127.090172 614.593628,129.750443 599.325317,129.195114 
	C599.325317,166.215820 599.325317,202.466766 599.325317,238.977692 
	C600.965027,239.051346 602.440674,239.117615 604.834290,239.184006 
M770.966980,233.633377 
	C771.455017,235.372040 771.943054,237.110687 772.413391,238.786301 
	C779.205872,238.786301 785.743958,238.786301 792.516052,238.786301 
	C792.094238,237.080536 791.811401,235.793594 791.457336,234.526581 
	C787.205994,219.314255 782.905640,204.115356 778.751953,188.876465 
	C778.388977,187.544708 778.457397,185.036697 779.192688,184.625443 
	C788.106995,179.639374 789.923523,171.140167 790.746521,162.122543 
	C792.212891,146.054611 785.986206,134.866028 773.010925,131.364624 
	C759.181335,127.632698 745.010803,129.559143 730.850342,129.114807 
	C730.850342,166.160294 730.850342,202.524414 730.850342,238.914230 
	C737.671692,238.914230 744.110535,238.914230 751.064392,238.914230 
	C751.064392,222.249207 751.064392,205.848465 751.064392,189.506073 
	C759.188110,188.806381 759.168762,188.811478 761.112122,196.187042 
	C764.331970,208.407211 767.579529,220.620102 770.966980,233.633377 
M583.850647,194.500061 
	C583.850647,172.897385 583.850647,151.294708 583.850647,129.538620 
	C577.916992,129.538620 572.554993,129.538620 566.728882,129.538620 
	C566.728882,149.401138 566.728882,168.877869 566.728882,188.354599 
	C565.382263,186.961533 564.689026,185.490448 564.043701,183.998642 
	C556.656372,166.921539 549.315186,149.824219 541.824219,132.792770 
	C541.193909,131.359741 539.675415,129.479935 538.390686,129.328842 
	C534.503845,128.871719 530.528992,129.163605 526.521240,129.163605 
	C526.521240,166.165329 526.521240,202.528290 526.521240,238.837799 
	C532.307739,238.837799 537.716003,238.837799 543.528076,238.837799 
	C543.528076,228.361588 543.528076,218.225098 543.528076,208.088608 
	C543.528076,197.989441 543.528076,187.890274 543.528076,177.791107 
	C545.457764,179.376999 546.232849,180.998642 546.922119,182.655975 
	C554.259399,200.297562 561.556763,217.955856 568.962280,235.568695 
	C569.529907,236.918640 570.737488,238.864639 571.814087,238.979965 
	C575.685913,239.394699 579.629089,239.142776 583.850647,239.142776 
	C583.850647,224.101501 583.850647,209.800797 583.850647,194.500061 
M554.098328,404.061310 
	C551.728577,401.525513 548.579346,399.346863 547.207947,396.353638 
	C545.831726,393.350098 545.912109,389.535675 545.898132,386.074432 
	C545.801697,362.088959 545.852112,338.102875 545.837341,314.117004 
	C545.836243,312.366241 545.693237,310.615509 545.612061,308.768372 
	C538.834656,308.768372 532.572693,308.768372 526.218628,308.768372 
	C526.127869,309.869324 526.002014,310.686859 526.001648,311.504425 
	C525.991150,335.823425 525.943420,360.142670 526.042480,384.461243 
	C526.058655,388.438202 526.476013,392.455994 527.147217,396.379791 
	C529.066650,407.600861 534.499207,416.121368 546.393188,418.516205 
	C551.216553,419.487396 556.349854,419.888550 561.232910,419.417389 
	C577.847473,417.814209 585.803040,410.473328 586.950684,393.846039 
	C588.129517,376.767853 587.789368,359.580933 587.985107,342.440125 
	C588.112305,331.305603 588.009094,320.168427 588.009094,308.839111 
	C581.242554,308.839111 574.843140,308.839111 568.152710,308.839111 
	C568.152710,311.021027 568.152710,312.841766 568.152710,314.662506 
	C568.152710,338.315247 568.184082,361.968109 568.115051,385.620636 
	C568.105896,388.759674 567.893860,391.962708 567.242065,395.022400 
	C565.664795,402.426239 562.557861,404.610138 554.098328,404.061310 
M454.516357,162.193741 
	C454.334290,158.540649 454.385071,154.858185 453.928406,151.239746 
	C452.272614,138.119751 445.437500,130.714172 432.334442,128.898178 
	C426.505981,128.090393 420.386475,128.344223 414.521973,129.086884 
	C406.417084,130.113281 399.831787,134.518723 397.179260,142.345779 
	C394.872650,149.152176 393.341553,156.476059 393.009857,163.642624 
	C392.371582,177.434967 392.454620,191.291885 392.982513,205.093582 
	C393.239136,211.802948 394.132996,218.852982 396.543213,225.046402 
	C403.741364,243.542908 427.502411,246.566788 439.676849,230.986176 
	C439.790192,230.841141 440.251678,230.968170 440.668854,230.968170 
	C441.170227,233.629028 441.675232,236.309036 442.153961,238.849670 
	C446.688263,238.849670 450.764404,238.849670 454.760681,238.849670 
	C454.760681,220.159149 454.760681,201.798584 454.760681,183.552139 
	C444.624329,183.552139 434.907898,183.552139 425.337189,183.552139 
	C425.337189,188.027542 425.337189,192.101791 425.337189,196.555573 
	C429.284912,196.555573 432.894104,196.555573 436.986908,196.555573 
	C436.986908,200.241196 437.109833,203.541275 436.949402,206.827515 
	C436.811981,209.643097 436.542633,212.481110 435.994080,215.242142 
	C434.585785,222.330719 430.902557,225.533905 424.582214,225.461258 
	C418.233002,225.388290 414.564880,222.271973 413.980713,214.705505 
	C413.226624,204.938065 413.241730,195.099274 413.219788,185.290558 
	C413.195984,174.644943 413.142365,163.975708 413.801971,153.360291 
	C414.267181,145.873230 418.428101,142.639771 425.170410,143.038925 
	C431.669861,143.423706 434.606598,146.726593 434.974884,154.392776 
	C435.154236,158.125702 435.005951,161.874374 435.005951,165.840469 
	C441.170685,165.840469 446.332367,165.992279 451.470978,165.715286 
	C452.527557,165.658340 453.497772,163.999451 454.516357,162.193741 
M656.305237,388.059113 
	C655.879639,385.941376 655.456299,383.823212 655.028076,381.705994 
	C650.349487,358.576691 645.705933,335.440094 640.903809,312.336487 
	C640.610413,310.924866 639.116821,308.730713 638.084106,308.673920 
	C631.836182,308.330261 625.559937,308.502777 619.110413,308.502777 
	C611.651794,345.207581 604.290466,381.433655 596.870728,417.947296 
	C603.563110,417.947296 609.662537,417.947296 615.945862,417.947296 
	C617.466003,409.630402 618.952148,401.499969 620.453308,393.287018 
	C626.831055,393.287018 632.896729,393.287018 639.184937,393.287018 
	C640.483826,400.708496 641.638550,407.920685 643.104004,415.069183 
	C643.345215,416.245819 644.902832,417.971161 645.932739,418.029907 
	C651.204895,418.330933 656.503418,418.169128 662.380310,418.169128 
	C660.352783,408.014465 658.442627,398.447418 656.305237,388.059113 
M394.460083,326.501312 
	C394.460083,356.931732 394.460083,387.362152 394.460083,417.875793 
	C410.307526,417.875793 425.535431,417.875793 440.614563,417.875793 
	C440.614563,413.158356 440.614563,408.763367 440.614563,403.852325 
	C431.817413,403.852325 423.418304,403.852325 415.149933,403.852325 
	C415.149933,391.877563 415.149933,380.434418 415.149933,368.530823 
	C421.851746,368.530823 428.276031,368.530823 434.939758,368.530823 
	C434.939758,363.472748 434.939758,358.881134 434.939758,353.754333 
	C428.156097,353.754333 421.576813,353.754333 415.276703,353.754333 
	C415.276703,343.145050 415.276703,333.074097 415.276703,322.579773 
	C423.955627,322.579773 432.218414,322.579773 440.532623,322.579773 
	C440.532623,317.734741 440.532623,313.337372 440.532623,308.797607 
	C425.134460,308.797607 410.064026,308.797607 394.460175,308.797607 
	C394.460175,314.585754 394.460175,320.044189 394.460083,326.501312 
M702.533325,143.854935 
	C707.992310,143.854935 713.451294,143.854935 719.072021,143.854935 
	C719.072021,138.725510 719.072021,134.050201 719.072021,129.492554 
	C703.711121,129.492554 688.815613,129.492554 673.836914,129.492554 
	C673.836914,166.186829 673.836914,202.532471 673.836914,238.815369 
	C689.409119,238.815369 704.606812,238.815369 719.756958,238.815369 
	C719.756958,234.168839 719.756958,229.898865 719.756958,225.126663 
	C711.112976,225.126663 702.710999,225.126663 694.176941,225.126663 
	C694.176941,212.898315 694.176941,201.182877 694.176941,189.057709 
	C700.928589,189.057709 707.367126,189.057709 713.987915,189.057709 
	C713.987915,184.201614 713.987915,179.758224 713.987915,174.804199 
	C707.217285,174.804199 700.637268,174.804199 694.228394,174.804199 
	C694.228394,164.225220 694.228394,154.159973 694.228394,143.854935 
	C696.916138,143.854935 699.232056,143.854935 702.533325,143.854935 
M469.146362,170.499939 
	C469.146362,193.269684 469.146362,216.039444 469.146362,238.931335 
	C484.980408,238.931335 500.256958,238.931335 515.458130,238.931335 
	C515.458130,234.266113 515.458130,229.864243 515.458130,224.955490 
	C506.646912,224.955490 498.224823,224.955490 489.872681,224.955490 
	C489.872681,212.828918 489.872681,201.223419 489.872681,189.032959 
	C496.741394,189.032959 503.280975,189.032959 509.669312,189.032959 
	C509.669312,184.022018 509.669312,179.613007 509.669312,174.848999 
	C502.882263,174.848999 496.435394,174.848999 489.844666,174.848999 
	C489.844666,164.423508 489.844666,154.365280 489.844666,143.849731 
	C498.405853,143.849731 506.668091,143.849731 515.225037,143.849731 
	C515.225037,138.812057 515.225037,134.233490 515.225037,129.585495 
	C499.755219,129.585495 484.567566,129.585495 469.146362,129.585495 
	C469.146362,143.182114 469.146362,156.341019 469.146362,170.499939 
M692.539429,375.500366 
	C692.539429,353.270172 692.539429,331.039978 692.539429,308.828125 
	C685.264404,308.828125 678.846802,308.828125 672.451050,308.828125 
	C672.451050,345.409973 672.451050,381.623291 672.451050,417.924194 
	C688.022339,417.924194 703.282959,417.924194 718.460205,417.924194 
	C718.460205,413.251282 718.460205,408.853180 718.460205,403.952759 
	C709.652588,403.952759 701.236877,403.952759 692.539368,403.952759 
	C692.539368,394.461273 692.539368,385.480835 692.539429,375.500366 
M749.002258,343.500000 
	C749.002258,331.939758 749.002258,320.379517 749.002258,308.733154 
	C742.011047,308.733154 735.741211,308.733154 729.341919,308.733154 
	C729.341919,345.301727 729.341919,381.627106 729.341919,417.954651 
	C735.958130,417.954651 742.228088,417.954651 749.002258,417.954651 
	C749.002258,393.328278 749.002258,368.914124 749.002258,343.500000 
z"/>
<path fill="#FFFEFE" opacity="1.000000" stroke="none" 
	d="
M951.999512,634.509094 
	C938.001099,634.508728 924.501831,634.422058 911.004944,634.563965 
	C907.264221,634.603333 905.704529,633.594543 905.745422,629.495239 
	C905.936401,610.332703 905.920349,591.166504 905.758057,572.003479 
	C905.723572,567.940918 907.287231,566.932068 911.076904,566.937378 
	C971.902893,567.023010 1032.729126,567.035095 1093.555054,566.918945 
	C1097.886230,566.910645 1098.901367,568.570801 1098.895874,572.527954 
	C1098.812500,633.187317 1098.810303,693.846863 1098.900146,754.506165 
	C1098.906128,758.550781 1097.714844,760.116089 1093.478638,760.077454 
	C1074.482422,759.904297 1055.482788,759.895447 1036.486938,760.083862 
	C1032.222046,760.126221 1031.064697,758.576660 1031.094360,754.536804 
	C1031.242432,734.373596 1031.161865,714.208740 1031.161743,694.044434 
	C1031.161743,692.457703 1031.161743,690.870972 1031.161743,689.445251 
	C1004.131836,716.481018 977.343140,743.275513 950.330444,770.294067 
	C965.137817,791.567566 977.272888,815.060913 984.242371,840.800659 
	C1008.493591,930.366760 990.145325,1010.352966 927.720032,1079.111694 
	C891.471252,1119.038330 845.719116,1143.145386 792.618835,1153.029907 
	C790.064392,1153.505371 788.429382,1154.079468 788.447998,1157.297974 
	C788.577209,1179.627930 788.522034,1201.958862 788.546082,1224.289551 
	C788.546814,1224.934326 788.770935,1225.578735 789.003723,1226.829834 
	C790.774292,1226.829834 792.556458,1226.829834 794.338562,1226.829834 
	C815.835999,1226.829834 837.334778,1226.956299 858.829834,1226.730957 
	C863.543579,1226.681641 865.175781,1227.893799 865.110596,1232.831787 
	C864.848755,1252.659180 864.865173,1272.493896 865.101868,1292.322021 
	C865.158630,1297.078247 863.843872,1298.664673 858.948486,1298.610962 
	C837.453613,1298.374512 815.954651,1298.509155 794.457214,1298.509277 
	C792.674683,1298.509277 790.892090,1298.509277 788.509338,1298.509277 
	C788.509338,1300.866943 788.509338,1302.646606 788.509277,1304.426392 
	C788.509094,1324.923950 788.394836,1345.422607 788.596619,1365.918213 
	C788.641907,1370.510498 787.234436,1371.982910 782.591675,1371.932251 
	C762.429749,1371.712524 742.263000,1371.723877 722.100769,1371.927368 
	C717.658020,1371.972046 716.373474,1370.495605 716.411560,1366.171997 
	C716.590637,1345.842651 716.490967,1325.510864 716.490784,1305.179932 
	C716.490723,1303.208008 716.490784,1301.236206 716.490784,1298.509277 
	C714.146729,1298.509277 712.221619,1298.509399 710.296509,1298.509277 
	C688.799072,1298.509155 667.300476,1298.394531 645.804993,1298.600342 
	C641.204651,1298.644287 639.832947,1297.288818 639.890625,1292.633911 
	C640.140625,1272.472778 640.103943,1252.305786 639.910706,1232.143311 
	C639.870667,1227.970337 641.143860,1226.715332 645.292358,1226.748657 
	C666.955017,1226.922974 688.619873,1226.829834 710.283936,1226.829834 
	C712.086853,1226.829834 713.889832,1226.829834 716.089478,1226.829834 
	C716.089478,1202.851929 716.089478,1179.285645 716.089478,1155.213867 
	C648.381897,1144.968628 592.920410,1113.078857 551.297546,1058.199951 
	C523.267700,1021.243103 506.348236,979.376953 503.386353,933.119141 
	C496.861084,831.209595 536.456726,750.581970 624.518066,699.157410 
	C718.568726,644.235168 811.674744,655.028198 900.047058,715.991089 
	C926.731812,689.306702 953.891296,662.147583 981.530151,634.509155 
	C971.866028,634.509155 962.182800,634.509155 951.999512,634.509094 
M628.306580,775.805359 
	C578.585632,822.284729 558.864014,879.155701 571.083618,946.130127 
	C585.814270,1026.867554 658.490417,1089.127441 740.204285,1091.763062 
	C795.710510,1093.553345 842.963501,1074.281372 880.998230,1033.740601 
	C946.080017,964.370605 945.286926,855.228455 879.574280,786.426392 
	C811.991333,715.666077 702.508240,710.818604 628.306580,775.805359 
z"/>
<path fill="#FFFDFD" opacity="1.000000" stroke="none" 
	d="
M172.866821,236.796082 
	C191.656967,225.154999 211.533325,222.502686 232.062744,229.129593 
	C250.386688,235.044556 259.362488,250.056396 265.043976,267.280304 
	C272.101166,288.674774 272.810089,310.795776 271.276459,332.992828 
	C270.487244,344.415283 269.276154,355.908508 266.980072,367.108215 
	C260.145020,400.447723 239.868317,418.125885 205.988266,420.784058 
	C192.839981,421.815643 179.701828,421.433716 166.795563,418.072327 
	C146.048355,412.668732 132.451736,399.862915 126.459435,379.217407 
	C122.156921,364.393829 121.042496,349.181152 121.003555,333.492096 
	C138.727783,333.492096 156.149445,333.492096 174.190674,333.492096 
	C174.407181,337.738861 174.376190,342.169312 174.915405,346.529266 
	C175.729553,353.112701 176.448822,359.774292 178.102829,366.171417 
	C180.432571,375.182007 186.169785,379.546478 194.774979,380.086304 
	C205.137466,380.736359 211.872192,377.549469 214.831726,368.153381 
	C217.438141,359.878479 218.620911,350.978119 219.184418,342.273193 
	C220.400055,323.494385 220.917435,304.632568 216.893570,286.060547 
	C213.468628,270.252808 202.399857,263.381104 188.458496,267.920044 
	C181.776749,270.095459 177.647385,274.923401 174.934387,281.064941 
	C173.332611,284.690948 172.219147,288.532684 170.786041,292.558411 
	C155.473740,292.558411 140.062454,292.558411 123.846832,292.558411 
	C125.143433,238.349136 126.438637,184.198364 127.740417,129.772888 
	C171.990540,129.772888 215.736206,129.772888 259.743286,129.772888 
	C259.743286,145.362503 259.743286,160.779907 259.743286,176.738998 
	C230.944168,176.738998 202.219284,176.738998 173.031998,176.738998 
	C171.966888,197.484482 170.928162,217.716278 169.857025,238.579132 
	C171.086761,237.878998 171.837799,237.451401 172.866821,236.796082 
z"/>
<path fill="#FFFDFD" opacity="1.000000" stroke="none" 
	d="
M512.935303,390.677704 
	C511.623627,401.426300 508.478516,410.672272 498.185577,416.546936 
	C500.782990,419.220734 502.937286,421.944641 505.594360,424.027008 
	C508.100250,425.990875 508.709808,427.902679 507.625885,430.825958 
	C506.537689,433.760712 505.844818,436.842041 504.829224,440.379669 
	C497.381683,436.546051 492.077362,430.879272 487.393524,424.705170 
	C484.914642,421.437592 482.446228,419.853271 478.141052,419.491028 
	C460.534149,418.009521 451.937866,410.874695 450.645447,393.173523 
	C449.194183,373.296783 449.125702,353.147675 450.602600,333.276672 
	C452.082977,313.359253 464.633331,305.723999 485.904877,307.441193 
	C503.456512,308.858002 512.392456,318.791443 512.895691,337.237213 
	C513.377136,354.884277 512.983154,372.555237 512.935303,390.677704 
M470.160767,384.434174 
	C470.447876,388.412567 470.476410,392.431580 471.093597,396.358063 
	C471.730682,400.411072 473.984497,403.298248 478.348206,404.238800 
	C486.035858,405.895874 491.635193,402.616150 492.011383,394.724823 
	C492.740234,379.436096 492.699188,364.107056 492.794708,348.793579 
	C492.830963,342.979218 492.708832,337.121399 492.034271,331.356445 
	C491.291199,325.006042 487.769440,322.235107 481.633759,322.165436 
	C475.288422,322.093384 471.864960,324.982605 470.862335,331.523468 
	C470.435272,334.309448 470.203644,337.152161 470.190979,339.970428 
	C470.125885,354.464172 470.160767,368.958313 470.160767,384.434174 
z"/>
<path fill="#FFFAF9" opacity="1.000000" stroke="none" 
	d="
M604.375244,239.183960 
	C602.440674,239.117615 600.965027,239.051346 599.325317,238.977692 
	C599.325317,202.466766 599.325317,166.215820 599.325317,129.195114 
	C614.593628,129.750443 629.902771,127.090172 644.697266,132.476929 
	C650.624084,134.634949 654.849792,139.010223 656.840820,144.948410 
	C658.248901,149.148041 659.383911,153.670258 659.420166,158.058563 
	C659.571594,176.345139 659.885925,194.668152 658.933838,212.914841 
	C658.077087,229.334305 648.268921,238.160934 631.791138,238.933151 
	C622.821289,239.353516 613.820923,239.121674 604.375244,239.183960 
M619.526184,198.499664 
	C619.526184,207.238678 619.526184,215.977707 619.526184,224.631760 
	C634.891052,225.948181 638.711487,222.740906 638.957153,208.155624 
	C639.223511,192.343018 639.136658,176.523621 639.094910,160.707474 
	C639.087036,157.734436 639.320374,154.389984 638.083130,151.889404 
	C636.688354,149.070251 634.165039,145.990768 631.390137,144.880859 
	C627.940979,143.501251 623.731384,144.022873 619.526123,143.698380 
	C619.526123,162.221725 619.526123,179.860687 619.526184,198.499664 
z"/>
<path fill="#FFFAF9" opacity="1.000000" stroke="none" 
	d="
M770.891174,233.234726 
	C767.579529,220.620102 764.331970,208.407211 761.112122,196.187042 
	C759.168762,188.811478 759.188110,188.806381 751.064392,189.506073 
	C751.064392,205.848465 751.064392,222.249207 751.064392,238.914230 
	C744.110535,238.914230 737.671692,238.914230 730.850342,238.914230 
	C730.850342,202.524414 730.850342,166.160294 730.850342,129.114807 
	C745.010803,129.559143 759.181335,127.632698 773.010925,131.364624 
	C785.986206,134.866028 792.212891,146.054611 790.746521,162.122543 
	C789.923523,171.140167 788.106995,179.639374 779.192688,184.625443 
	C778.457397,185.036697 778.388977,187.544708 778.751953,188.876465 
	C782.905640,204.115356 787.205994,219.314255 791.457336,234.526581 
	C791.811401,235.793594 792.094238,237.080536 792.516052,238.786301 
	C785.743958,238.786301 779.205872,238.786301 772.413391,238.786301 
	C771.943054,237.110687 771.455017,235.372040 770.891174,233.234726 
M770.020386,149.907867 
	C766.415100,143.925690 760.633972,142.028534 751.201660,143.783813 
	C751.201660,154.484467 751.201660,165.200363 751.201660,175.884964 
	C766.215027,176.963120 771.934631,172.381577 771.678528,159.514755 
	C771.619751,156.562744 770.778015,153.626328 770.020386,149.907867 
z"/>
<path fill="#FFFAFA" opacity="1.000000" stroke="none" 
	d="
M583.850647,195.000061 
	C583.850647,209.800797 583.850647,224.101501 583.850647,239.142776 
	C579.629089,239.142776 575.685913,239.394699 571.814087,238.979965 
	C570.737488,238.864639 569.529907,236.918640 568.962280,235.568695 
	C561.556763,217.955856 554.259399,200.297562 546.922119,182.655975 
	C546.232849,180.998642 545.457764,179.376999 543.528076,177.791107 
	C543.528076,187.890274 543.528076,197.989441 543.528076,208.088608 
	C543.528076,218.225098 543.528076,228.361588 543.528076,238.837799 
	C537.716003,238.837799 532.307739,238.837799 526.521240,238.837799 
	C526.521240,202.528290 526.521240,166.165329 526.521240,129.163605 
	C530.528992,129.163605 534.503845,128.871719 538.390686,129.328842 
	C539.675415,129.479935 541.193909,131.359741 541.824219,132.792770 
	C549.315186,149.824219 556.656372,166.921539 564.043701,183.998642 
	C564.689026,185.490448 565.382263,186.961533 566.728882,188.354599 
	C566.728882,168.877869 566.728882,149.401138 566.728882,129.538620 
	C572.554993,129.538620 577.916992,129.538620 583.850647,129.538620 
	C583.850647,151.294708 583.850647,172.897385 583.850647,195.000061 
z"/>
<path fill="#FFFBFB" opacity="1.000000" stroke="none" 
	d="
M554.508667,404.142731 
	C562.557861,404.610138 565.664795,402.426239 567.242065,395.022400 
	C567.893860,391.962708 568.105896,388.759674 568.115051,385.620636 
	C568.184082,361.968109 568.152710,338.315247 568.152710,314.662506 
	C568.152710,312.841766 568.152710,311.021027 568.152710,308.839111 
	C574.843140,308.839111 581.242554,308.839111 588.009094,308.839111 
	C588.009094,320.168427 588.112305,331.305603 587.985107,342.440125 
	C587.789368,359.580933 588.129517,376.767853 586.950684,393.846039 
	C585.803040,410.473328 577.847473,417.814209 561.232910,419.417389 
	C556.349854,419.888550 551.216553,419.487396 546.393188,418.516205 
	C534.499207,416.121368 529.066650,407.600861 527.147217,396.379791 
	C526.476013,392.455994 526.058655,388.438202 526.042480,384.461243 
	C525.943420,360.142670 525.991150,335.823425 526.001648,311.504425 
	C526.002014,310.686859 526.127869,309.869324 526.218628,308.768372 
	C532.572693,308.768372 538.834656,308.768372 545.612061,308.768372 
	C545.693237,310.615509 545.836243,312.366241 545.837341,314.117004 
	C545.852112,338.102875 545.801697,362.088959 545.898132,386.074432 
	C545.912109,389.535675 545.831726,393.350098 547.207947,396.353638 
	C548.579346,399.346863 551.728577,401.525513 554.508667,404.142731 
z"/>
<path fill="#FFFCFC" opacity="1.000000" stroke="none" 
	d="
M454.512085,162.636337 
	C453.497772,163.999451 452.527557,165.658340 451.470978,165.715286 
	C446.332367,165.992279 441.170685,165.840469 435.005951,165.840469 
	C435.005951,161.874374 435.154236,158.125702 434.974884,154.392776 
	C434.606598,146.726593 431.669861,143.423706 425.170410,143.038925 
	C418.428101,142.639771 414.267181,145.873230 413.801971,153.360291 
	C413.142365,163.975708 413.195984,174.644943 413.219788,185.290558 
	C413.241730,195.099274 413.226624,204.938065 413.980713,214.705505 
	C414.564880,222.271973 418.233002,225.388290 424.582214,225.461258 
	C430.902557,225.533905 434.585785,222.330719 435.994080,215.242142 
	C436.542633,212.481110 436.811981,209.643097 436.949402,206.827515 
	C437.109833,203.541275 436.986908,200.241196 436.986908,196.555573 
	C432.894104,196.555573 429.284912,196.555573 425.337189,196.555573 
	C425.337189,192.101791 425.337189,188.027542 425.337189,183.552139 
	C434.907898,183.552139 444.624329,183.552139 454.760681,183.552139 
	C454.760681,201.798584 454.760681,220.159149 454.760681,238.849670 
	C450.764404,238.849670 446.688263,238.849670 442.153961,238.849670 
	C441.675232,236.309036 441.170227,233.629028 440.668854,230.968170 
	C440.251678,230.968170 439.790192,230.841141 439.676849,230.986176 
	C427.502411,246.566788 403.741364,243.542908 396.543213,225.046402 
	C394.132996,218.852982 393.239136,211.802948 392.982513,205.093582 
	C392.454620,191.291885 392.371582,177.434967 393.009857,163.642624 
	C393.341553,156.476059 394.872650,149.152176 397.179260,142.345779 
	C399.831787,134.518723 406.417084,130.113281 414.521973,129.086884 
	C420.386475,128.344223 426.505981,128.090393 432.334442,128.898178 
	C445.437500,130.714172 452.272614,138.119751 453.928406,151.239746 
	C454.385071,154.858185 454.334290,158.540649 454.512085,162.636337 
z"/>
<path fill="#FFFCFC" opacity="1.000000" stroke="none" 
	d="
M656.418823,388.469727 
	C658.442627,398.447418 660.352783,408.014465 662.380310,418.169128 
	C656.503418,418.169128 651.204895,418.330933 645.932739,418.029907 
	C644.902832,417.971161 643.345215,416.245819 643.104004,415.069183 
	C641.638550,407.920685 640.483826,400.708496 639.184937,393.287018 
	C632.896729,393.287018 626.831055,393.287018 620.453308,393.287018 
	C618.952148,401.499969 617.466003,409.630402 615.945862,417.947296 
	C609.662537,417.947296 603.563110,417.947296 596.870728,417.947296 
	C604.290466,381.433655 611.651794,345.207581 619.110413,308.502777 
	C625.559937,308.502777 631.836182,308.330261 638.084106,308.673920 
	C639.116821,308.730713 640.610413,310.924866 640.903809,312.336487 
	C645.705933,335.440094 650.349487,358.576691 655.028076,381.705994 
	C655.456299,383.823212 655.879639,385.941376 656.418823,388.469727 
M625.919373,359.314270 
	C624.840881,365.976196 623.762390,372.638123 622.639465,379.574493 
	C627.770081,379.574493 632.185181,379.574493 636.962524,379.574493 
	C634.650330,365.548462 632.393860,351.860657 630.137451,338.172882 
	C629.862671,338.209137 629.587891,338.245361 629.313110,338.281616 
	C628.207764,345.002991 627.102417,351.724396 625.919373,359.314270 
z"/>
<path fill="#FFF8F7" opacity="1.000000" stroke="none" 
	d="
M394.460144,326.001953 
	C394.460175,320.044189 394.460175,314.585754 394.460175,308.797607 
	C410.064026,308.797607 425.134460,308.797607 440.532623,308.797607 
	C440.532623,313.337372 440.532623,317.734741 440.532623,322.579773 
	C432.218414,322.579773 423.955627,322.579773 415.276703,322.579773 
	C415.276703,333.074097 415.276703,343.145050 415.276703,353.754333 
	C421.576813,353.754333 428.156097,353.754333 434.939758,353.754333 
	C434.939758,358.881134 434.939758,363.472748 434.939758,368.530823 
	C428.276031,368.530823 421.851746,368.530823 415.149933,368.530823 
	C415.149933,380.434418 415.149933,391.877563 415.149933,403.852325 
	C423.418304,403.852325 431.817413,403.852325 440.614563,403.852325 
	C440.614563,408.763367 440.614563,413.158356 440.614563,417.875793 
	C425.535431,417.875793 410.307526,417.875793 394.460083,417.875793 
	C394.460083,387.362152 394.460083,356.931732 394.460144,326.001953 
z"/>
<path fill="#FFF9F8" opacity="1.000000" stroke="none" 
	d="
M702.040649,143.854935 
	C699.232056,143.854935 696.916138,143.854935 694.228394,143.854935 
	C694.228394,154.159973 694.228394,164.225220 694.228394,174.804199 
	C700.637268,174.804199 707.217285,174.804199 713.987915,174.804199 
	C713.987915,179.758224 713.987915,184.201614 713.987915,189.057709 
	C707.367126,189.057709 700.928589,189.057709 694.176941,189.057709 
	C694.176941,201.182877 694.176941,212.898315 694.176941,225.126663 
	C702.710999,225.126663 711.112976,225.126663 719.756958,225.126663 
	C719.756958,229.898865 719.756958,234.168839 719.756958,238.815369 
	C704.606812,238.815369 689.409119,238.815369 673.836914,238.815369 
	C673.836914,202.532471 673.836914,166.186829 673.836914,129.492554 
	C688.815613,129.492554 703.711121,129.492554 719.072021,129.492554 
	C719.072021,134.050201 719.072021,138.725510 719.072021,143.854935 
	C713.451294,143.854935 707.992310,143.854935 702.040649,143.854935 
z"/>
<path fill="#FFF9F9" opacity="1.000000" stroke="none" 
	d="
M469.146362,169.999939 
	C469.146362,156.341019 469.146362,143.182114 469.146362,129.585495 
	C484.567566,129.585495 499.755219,129.585495 515.225037,129.585495 
	C515.225037,134.233490 515.225037,138.812057 515.225037,143.849731 
	C506.668091,143.849731 498.405853,143.849731 489.844666,143.849731 
	C489.844666,154.365280 489.844666,164.423508 489.844666,174.848999 
	C496.435394,174.848999 502.882263,174.848999 509.669312,174.848999 
	C509.669312,179.613007 509.669312,184.022018 509.669312,189.032959 
	C503.280975,189.032959 496.741394,189.032959 489.872681,189.032959 
	C489.872681,201.223419 489.872681,212.828918 489.872681,224.955490 
	C498.224823,224.955490 506.646912,224.955490 515.458130,224.955490 
	C515.458130,229.864243 515.458130,234.266113 515.458130,238.931335 
	C500.256958,238.931335 484.980408,238.931335 469.146362,238.931335 
	C469.146362,216.039444 469.146362,193.269684 469.146362,169.999939 
z"/>
<path fill="#FFFDFC" opacity="1.000000" stroke="none" 
	d="
M815.050293,309.751556 
	C820.630005,309.496887 826.224365,308.948059 831.777527,309.225311 
	C832.947266,309.283752 834.381042,312.237244 834.985474,314.087891 
	C838.441956,324.670807 841.679321,335.325226 845.006653,345.950470 
	C845.432678,347.310974 845.948975,348.643158 846.838806,351.166199 
	C849.413086,342.641663 851.664429,335.221924 853.892883,327.795349 
	C855.468872,322.543060 857.189087,317.324768 858.501953,312.006622 
	C859.202454,309.169128 860.558899,308.302155 863.369202,308.427124 
	C868.132568,308.638916 872.912170,308.485321 878.345947,308.485321 
	C874.032227,321.765961 869.953918,334.356445 865.851807,346.939148 
	C862.915039,355.947174 859.874878,364.922394 857.044312,373.963409 
	C856.364685,376.134277 856.067505,378.506348 856.049988,380.789398 
	C855.955933,393.078003 856.005554,405.367676 856.005554,417.913544 
	C849.511108,417.913544 843.446472,417.913544 836.825378,417.913544 
	C836.825378,409.631622 836.210266,401.464539 836.961792,393.425232 
	C838.264343,379.491211 833.758179,366.914917 829.429321,354.162415 
	C824.514038,339.682190 819.850586,325.116394 815.079468,310.175659 
	C815.081360,309.763458 815.050293,309.751556 815.050293,309.751556 
z"/>
<path fill="#FFF6F5" opacity="1.000000" stroke="none" 
	d="
M814.606506,309.755005 
	C815.050293,309.751556 815.081360,309.763458 815.070496,309.777161 
	C814.555786,311.643097 813.803894,313.469757 813.609680,315.353912 
	C813.357239,317.802795 813.548035,320.297394 813.548035,323.365295 
	C807.586121,323.365295 802.024109,323.365295 796.001221,323.365295 
	C796.001221,355.208984 796.001221,386.452545 796.001221,417.944641 
	C789.081055,417.944641 782.630066,417.944641 775.595703,417.944641 
	C775.595703,386.678558 775.595703,355.482635 775.595703,323.691650 
	C769.299255,323.691650 763.564209,323.691650 757.488770,323.691650 
	C757.488770,318.533356 757.488770,313.959137 757.488770,308.849884 
	C758.739380,308.727905 760.148743,308.473389 761.558533,308.470825 
	C777.380737,308.442291 793.203186,308.412689 809.024841,308.509644 
	C810.739990,308.520142 812.450195,309.323090 814.606506,309.755005 
z"/>
<path fill="#FFF8F7" opacity="1.000000" stroke="none" 
	d="
M692.539429,376.000366 
	C692.539368,385.480835 692.539368,394.461273 692.539368,403.952759 
	C701.236877,403.952759 709.652588,403.952759 718.460205,403.952759 
	C718.460205,408.853180 718.460205,413.251282 718.460205,417.924194 
	C703.282959,417.924194 688.022339,417.924194 672.451050,417.924194 
	C672.451050,381.623291 672.451050,345.409973 672.451050,308.828125 
	C678.846802,308.828125 685.264404,308.828125 692.539429,308.828125 
	C692.539429,331.039978 692.539429,353.270172 692.539429,376.000366 
z"/>
<path fill="#FFFEFE" opacity="1.000000" stroke="none" 
	d="
M749.002258,344.000000 
	C749.002258,368.914124 749.002258,393.328278 749.002258,417.954651 
	C742.228088,417.954651 735.958130,417.954651 729.341919,417.954651 
	C729.341919,381.627106 729.341919,345.301727 729.341919,308.733154 
	C735.741211,308.733154 742.011047,308.733154 749.002258,308.733154 
	C749.002258,320.379517 749.002258,331.939758 749.002258,344.000000 
z"/>
<path fill="#FF3B22" opacity="1.000000" stroke="none" 
	d="
M628.567200,775.564819 
	C702.508240,710.818604 811.991333,715.666077 879.574280,786.426392 
	C945.286926,855.228455 946.080017,964.370605 880.998230,1033.740601 
	C842.963501,1074.281372 795.710510,1093.553345 740.204285,1091.763062 
	C658.490417,1089.127441 585.814270,1026.867554 571.083618,946.130127 
	C558.864014,879.155701 578.585632,822.284729 628.567200,775.564819 
M636.828003,949.502075 
	C636.828003,960.828552 636.992676,972.158630 636.743225,983.479614 
	C636.649658,987.726868 637.741211,989.272705 642.288696,989.264282 
	C713.578491,989.132446 784.868713,989.141968 856.158569,989.249268 
	C860.244995,989.255432 861.658203,988.154602 861.598389,983.930725 
	C861.378967,968.443237 861.316223,952.946838 861.624084,937.462402 
	C861.723694,932.454163 859.940247,931.392029 855.298706,931.400330 
	C784.675171,931.526733 714.051331,931.488098 643.427551,931.488281 
	C642.594727,931.488281 641.758057,931.543762 640.929749,931.483398 
	C638.016541,931.271118 636.663208,932.413757 636.787720,935.512939 
	C636.961365,939.836609 636.829285,944.172607 636.828003,949.502075 
M685.499939,894.171997 
	C742.295227,894.171997 799.090576,894.127747 855.885559,894.260071 
	C860.194031,894.270142 861.683533,893.204041 861.610168,888.704224 
	C861.355042,873.052185 861.379639,857.391663 861.597595,841.738525 
	C861.657227,837.454895 860.087036,836.415649 856.075684,836.420898 
	C784.790283,836.514160 713.504578,836.514648 642.219177,836.421448 
	C638.171387,836.416138 636.682922,837.540588 636.741821,841.783142 
	C636.959167,857.436279 636.993408,873.097046 636.725952,888.748657 
	C636.647339,893.346008 638.318481,894.323608 642.529358,894.256409 
	C656.516418,894.033081 670.509277,894.171997 685.499939,894.171997 
z"/>
<path fill="#FF3E25" opacity="1.000000" stroke="none" 
	d="
M470.160767,383.943237 
	C470.160767,368.958313 470.125885,354.464172 470.190979,339.970428 
	C470.203644,337.152161 470.435272,334.309448 470.862335,331.523468 
	C471.864960,324.982605 475.288422,322.093384 481.633759,322.165436 
	C487.769440,322.235107 491.291199,325.006042 492.034271,331.356445 
	C492.708832,337.121399 492.830963,342.979218 492.794708,348.793579 
	C492.699188,364.107056 492.740234,379.436096 492.011383,394.724823 
	C491.635193,402.616150 486.035858,405.895874 478.348206,404.238800 
	C473.984497,403.298248 471.730682,400.411072 471.093597,396.358063 
	C470.476410,392.431580 470.447876,388.412567 470.160767,383.943237 
z"/>
<path fill="#FF3B22" opacity="1.000000" stroke="none" 
	d="
M619.526123,197.999664 
	C619.526123,179.860687 619.526123,162.221725 619.526123,143.698380 
	C623.731384,144.022873 627.940979,143.501251 631.390137,144.880859 
	C634.165039,145.990768 636.688354,149.070251 638.083130,151.889404 
	C639.320374,154.389984 639.087036,157.734436 639.094910,160.707474 
	C639.136658,176.523621 639.223511,192.343018 638.957153,208.155624 
	C638.711487,222.740906 634.891052,225.948181 619.526184,224.631760 
	C619.526184,215.977707 619.526184,207.238678 619.526123,197.999664 
z"/>
<path fill="#FF3C24" opacity="1.000000" stroke="none" 
	d="
M770.158508,150.295303 
	C770.778015,153.626328 771.619751,156.562744 771.678528,159.514755 
	C771.934631,172.381577 766.215027,176.963120 751.201660,175.884964 
	C751.201660,165.200363 751.201660,154.484467 751.201660,143.783813 
	C760.633972,142.028534 766.415100,143.925690 770.158508,150.295303 
z"/>
<path fill="#FF452D" opacity="1.000000" stroke="none" 
	d="
M625.958252,358.880005 
	C627.102417,351.724396 628.207764,345.002991 629.313110,338.281616 
	C629.587891,338.245361 629.862671,338.209137 630.137451,338.172882 
	C632.393860,351.860657 634.650330,365.548462 636.962524,379.574493 
	C632.185181,379.574493 627.770081,379.574493 622.639465,379.574493 
	C623.762390,372.638123 624.840881,365.976196 625.958252,358.880005 
z"/>
<path fill="#FFFDFD" opacity="1.000000" stroke="none" 
	d="
M636.828003,949.002686 
	C636.829285,944.172607 636.961365,939.836609 636.787720,935.512939 
	C636.663208,932.413757 638.016541,931.271118 640.929749,931.483398 
	C641.758057,931.543762 642.594727,931.488281 643.427551,931.488281 
	C714.051331,931.488098 784.675171,931.526733 855.298706,931.400330 
	C859.940247,931.392029 861.723694,932.454163 861.624084,937.462402 
	C861.316223,952.946838 861.378967,968.443237 861.598389,983.930725 
	C861.658203,988.154602 860.244995,989.255432 856.158569,989.249268 
	C784.868713,989.141968 713.578491,989.132446 642.288696,989.264282 
	C637.741211,989.272705 636.649658,987.726868 636.743225,983.479614 
	C636.992676,972.158630 636.828003,960.828552 636.828003,949.002686 
z"/>
<path fill="#FFFDFD" opacity="1.000000" stroke="none" 
	d="
M684.999878,894.171997 
	C670.509277,894.171997 656.516418,894.033081 642.529358,894.256409 
	C638.318481,894.323608 636.647339,893.346008 636.725952,888.748657 
	C636.993408,873.097046 636.959167,857.436279 636.741821,841.783142 
	C636.682922,837.540588 638.171387,836.416138 642.219177,836.421448 
	C713.504578,836.514648 784.790283,836.514160 856.075684,836.420898 
	C860.087036,836.415649 861.657227,837.454895 861.597595,841.738525 
	C861.379639,857.391663 861.355042,873.052185 861.610168,888.704224 
	C861.683533,893.204041 860.194031,894.270142 855.885559,894.260071 
	C799.090576,894.127747 742.295227,894.171997 684.999878,894.171997 
z"/>
</svg>