<svg version="1.1" id="Layer_1" xmlns="http://www.w3.org/2000/svg" xmlns:xlink="http://www.w3.org/1999/xlink" x="0px" y="0px"
	 width="100%" viewBox="0 0 1500 1500" enable-background="new 0 0 1500 1500" xml:space="preserve">
<path fill="#4C9F38" opacity="1.000000" stroke="none" 
	d="
M1.000000,554.000000 
	C1.000000,369.333374 1.000000,185.166733 1.000000,1.000074 
	C500.999878,1.000049 1000.999756,1.000049 1500.999756,1.000025 
	C1500.999756,500.999786 1500.999756,1000.999573 1500.999878,1500.999512 
	C1001.000305,1500.999756 501.000610,1500.999756 1.000452,1500.999878 
	C1.000000,1185.500000 1.000000,870.000000 1.000000,554.000000 
M559.703613,913.276611 
	C568.871826,892.654785 578.040039,872.033020 587.588867,850.554932 
	C588.138977,852.816956 588.548096,854.046265 588.728760,855.308228 
	C593.138794,886.120056 597.529175,916.934692 601.913391,947.750183 
	C608.665405,995.207886 615.317078,1042.680420 622.326538,1090.099976 
	C622.917786,1094.099976 625.088867,1098.526123 627.901917,1101.414062 
	C636.234802,1109.968750 649.816345,1107.082642 655.874084,1095.873047 
	C681.815002,1047.870483 707.699768,999.837769 733.614563,951.821228 
	C734.389893,950.384644 735.270020,949.004578 736.573181,946.799805 
	C741.473389,975.101257 746.195007,1002.146118 750.833618,1029.205078 
	C763.935791,1105.636353 777.004272,1182.073486 790.084778,1258.508545 
	C791.101135,1264.447388 794.030518,1269.098877 799.449402,1271.900269 
	C809.438049,1277.064575 821.458069,1271.616943 825.251465,1258.967407 
	C886.340576,1055.257202 947.716003,851.632812 1009.031738,647.990479 
	C1010.679871,642.516907 1012.388916,637.061584 1014.283752,630.901428 
	C1015.102539,632.361877 1015.541931,633.054993 1015.895752,633.789490 
	C1032.283203,667.797852 1048.656128,701.813110 1065.046631,735.820007 
	C1073.277588,752.897644 1081.480713,769.989014 1089.808228,787.019653 
	C1094.328979,796.265198 1103.317627,800.114807 1112.145996,796.851624 
	C1122.109009,793.169128 1126.411377,782.259216 1121.525146,772.098938 
	C1090.026855,706.602051 1058.455933,641.140076 1026.811646,575.713806 
	C1025.544800,573.094666 1023.679199,570.480408 1021.442688,568.664062 
	C1011.191345,560.338562 997.248230,565.342773 993.193848,578.749634 
	C983.037903,612.332581 973.002869,645.952026 962.886230,679.546875 
	C913.309753,844.178955 863.722839,1008.807861 814.134216,1173.436279 
	C813.713806,1174.832153 813.221191,1176.206177 812.762329,1177.590454 
	C809.784119,1165.472046 807.798645,1153.501953 805.743591,1141.543945 
	C796.161255,1085.786621 786.550537,1030.034302 776.968750,974.276978 
	C772.233704,946.723206 767.588928,919.153931 762.802307,891.609131 
	C760.935120,880.864624 753.538330,874.979309 743.214966,875.905701 
	C736.473083,876.510681 732.107666,880.458008 728.972839,886.287109 
	C703.679932,933.317627 678.316956,980.310425 652.963745,1027.308472 
	C652.103027,1028.904053 651.119019,1030.433228 649.537292,1033.096436 
	C648.741455,1027.414551 648.180054,1023.315735 647.591858,1019.220642 
	C642.078186,980.833679 636.544006,942.449585 631.047302,904.060181 
	C625.338318,864.187683 619.697021,824.305420 613.947571,784.438721 
	C612.775879,776.314453 606.687927,770.689148 598.552185,769.736572 
	C590.281860,768.768127 583.757141,772.839294 579.859802,781.583008 
	C553.050781,841.727661 526.232117,901.868164 499.559753,962.073425 
	C497.918182,965.778870 496.048065,967.109192 491.904236,967.101379 
	C415.738831,966.958618 339.573120,966.988831 263.407471,967.006653 
	C252.739395,967.009155 245.105927,974.440308 245.160828,984.619080 
	C245.214249,994.524719 252.819885,1001.978394 263.197052,1001.982849 
	C344.862640,1002.018066 426.528198,1002.009460 508.193787,1001.991455 
	C516.166443,1001.989685 521.816223,998.269409 525.063904,990.971375 
	C536.490234,965.295227 547.908630,939.615601 559.703613,913.276611 
M1158.637207,875.109741 
	C1149.219604,882.917969 1139.802002,890.726257 1130.441895,898.486755 
	C1126.222412,894.450500 1122.003540,890.184021 1117.530640,886.203308 
	C1113.305786,882.443298 1108.841309,878.949158 1104.434326,875.397461 
	C1078.053345,854.136536 1049.068848,862.766052 1030.602539,877.719543 
	C995.631775,906.037781 993.456543,962.768250 1026.061279,995.612610 
	C1059.985840,1029.786377 1094.130859,1063.741455 1128.192261,1097.779419 
	C1129.089844,1098.676270 1130.133179,1099.427124 1131.517334,1100.589355 
	C1132.926270,1098.996338 1134.069580,1097.560303 1135.357544,1096.268677 
	C1168.062500,1063.468994 1200.747437,1030.649048 1233.511108,997.908081 
	C1259.548218,971.889038 1264.754883,941.316895 1252.906616,907.381592 
	C1240.010254,870.444153 1194.515503,847.599487 1158.637207,875.109741 
M117.890350,338.489349 
	C119.279198,349.192108 119.667542,360.143890 122.257271,370.547729 
	C128.364243,395.081573 142.690186,412.488983 168.327240,418.590729 
	C184.261673,422.383240 200.367889,422.652191 216.419006,419.637756 
	C238.697205,415.453888 254.301880,402.776978 263.281982,381.873901 
	C268.002808,370.885193 271.140869,359.411377 271.356628,347.575439 
	C271.601166,334.162445 271.618347,320.512421 269.444092,307.343536 
	C266.287628,288.225189 255.980225,273.359924 236.664780,265.399872 
	C254.675323,258.604034 264.044769,245.060303 268.795288,228.166992 
	C274.001678,209.652710 273.538635,190.891098 267.968109,172.476624 
	C261.217499,150.161133 246.164719,135.876266 223.913727,129.452805 
	C206.144272,124.323090 188.054276,124.176651 170.063263,128.309982 
	C157.140594,131.278885 145.812057,137.385849 136.764999,147.330582 
	C117.831390,168.142868 117.154282,193.603592 118.004120,219.740829 
	C136.240280,219.740829 154.140350,219.740829 172.512527,219.740829 
	C172.512527,217.014328 172.296219,214.522018 172.550873,212.078796 
	C173.530548,202.679214 173.871063,193.116776 175.942764,183.952545 
	C178.328690,173.398285 184.305450,169.515488 194.593353,169.513519 
	C205.717987,169.511414 211.985931,173.840576 215.015381,184.169342 
	C218.746124,196.889130 218.561371,209.839890 216.212784,222.750244 
	C212.984039,240.498810 204.430069,247.568100 186.372528,247.821365 
	C183.102264,247.867249 179.830826,247.827911 176.491257,247.827911 
	C176.491257,261.572540 176.491257,274.639343 176.491257,287.675781 
	C181.622452,288.075439 186.425400,288.413055 191.221420,288.830231 
	C203.399109,289.889435 211.373688,296.311279 214.506882,308.077515 
	C219.226242,325.800201 218.894516,343.678375 214.754730,361.453918 
	C213.231522,367.994293 209.292557,372.712463 202.395813,374.537292 
	C189.574905,377.929657 179.440659,372.388916 175.706512,359.680847 
	C174.912781,356.979584 174.221298,354.189880 173.973679,351.397369 
	C173.199402,342.666046 172.660034,333.913849 172.031357,325.193542 
	C153.915558,325.193542 136.014725,325.193542 117.839867,325.193542 
	C117.839867,329.536652 117.839867,333.517365 117.890350,338.489349 
M649.135742,373.473206 
	C651.277832,388.256287 653.419922,403.039337 655.583008,417.967255 
	C661.294434,417.967255 666.579834,417.967255 672.303711,417.967255 
	C676.216431,394.822906 680.117065,371.750427 684.017639,348.677948 
	C684.881226,349.626740 685.126953,350.544250 685.285156,351.476593 
	C688.236633,368.862518 691.246582,386.238953 694.100403,403.640961 
	C696.605713,418.918030 696.527466,418.933167 711.868530,418.071045 
	C712.169495,418.054138 712.456787,417.793640 712.994324,417.524841 
	C718.135498,381.486633 723.297913,345.299652 728.504883,308.800323 
	C722.600220,308.800323 717.379395,308.800323 711.795410,308.800323 
	C708.953796,330.903259 706.146790,352.736603 703.339844,374.569946 
	C702.993713,374.543518 702.647644,374.517120 702.301514,374.490692 
	C698.574829,352.571899 694.848083,330.653107 691.149841,308.901733 
	C686.205322,308.901733 681.817383,308.901733 677.380493,308.901733 
	C673.735352,330.696075 670.158020,352.085175 666.580627,373.474243 
	C666.146545,373.414673 665.712463,373.355133 665.278442,373.295563 
	C662.507629,351.749146 659.736816,330.202698 656.969788,308.685608 
	C651.035950,308.685608 645.736938,308.685608 639.957581,308.685608 
	C643.002502,330.171021 646.008789,351.383789 649.135742,373.473206 
M1019.006104,383.689819 
	C1018.553772,372.190338 1014.194397,363.306061 1001.438599,359.282104 
	C1011.163940,356.329285 1014.583130,349.726227 1015.680969,341.367859 
	C1017.749878,325.615692 1011.976807,314.200378 999.212830,310.554321 
	C985.398071,306.608185 971.211426,309.037262 957.190186,308.531860 
	C957.190186,345.435760 957.190186,381.663849 957.190186,418.177002 
	C968.367798,418.177002 979.180603,418.215576 989.992981,418.168030 
	C1006.473999,418.095551 1016.271057,409.757935 1018.696655,393.609436 
	C1019.138550,390.667938 1018.920410,387.627289 1019.006104,383.689819 
M504.793182,364.287506 
	C504.593658,364.938751 504.394165,365.589996 503.904419,367.188660 
	C502.669739,364.648621 501.833069,363.082794 501.130981,361.458832 
	C494.071564,345.130524 487.068848,328.777496 479.933044,312.482727 
	C479.273193,310.975891 477.924591,308.833466 476.692688,308.686249 
	C472.651245,308.203339 468.516113,308.504791 464.307678,308.504791 
	C464.307678,345.398010 464.307678,381.534546 464.307678,417.876740 
	C470.053833,417.876740 475.633514,417.876740 481.720581,417.876740 
	C481.720581,397.534668 481.720581,377.499908 481.720581,357.465149 
	C483.385681,358.828430 484.166382,360.376038 484.830231,361.972198 
	C492.108459,379.471771 499.332123,396.994202 506.700256,414.455750 
	C507.309387,415.899353 508.748901,417.845032 510.000641,418.004700 
	C513.711487,418.478027 517.521423,418.174164 521.085571,418.174164 
	C521.085571,381.257629 521.085571,345.028564 521.085571,308.706909 
	C515.527283,308.706909 510.422363,308.706909 504.808350,308.706909 
	C504.808350,327.072174 504.808350,345.198029 504.793182,364.287506 
M536.993652,407.478516 
	C536.993652,410.925476 536.993652,414.372437 536.993652,417.875977 
	C549.183899,417.875977 560.855957,418.580597 572.406738,417.697815 
	C586.878357,416.591797 596.008789,407.830933 596.684509,393.252747 
	C597.623352,373.001404 597.452271,352.656250 596.734924,332.387390 
	C596.344360,321.351227 590.277588,312.299805 578.893555,310.562714 
	C565.220459,308.476349 551.214417,308.571625 536.993652,307.700256 
	C536.993652,341.567230 536.993652,374.025055 536.993652,407.478516 
M619.995117,189.500000 
	C619.995117,205.942017 619.995117,222.384048 619.995117,239.174225 
	C629.222351,239.174225 637.860229,239.199493 646.497803,239.159180 
	C649.161072,239.146744 651.842041,239.118240 654.483398,238.819260 
	C669.859863,237.078781 679.093872,228.728424 679.745239,213.484863 
	C680.597473,193.539291 680.513184,173.508789 679.757996,153.555450 
	C679.264343,140.514511 671.672485,132.279099 658.764954,130.623947 
	C646.150024,129.006302 633.300049,129.222443 619.995117,128.607819 
	C619.995117,149.267395 619.995117,168.883698 619.995117,189.500000 
M527.029419,142.572403 
	C522.832336,133.416992 515.080688,129.703384 505.636902,128.346649 
	C484.298767,125.281128 469.440247,134.754364 468.314453,154.151443 
	C467.168701,173.892502 467.423004,193.777802 468.254028,213.549927 
	C468.877411,228.381989 477.192200,237.533066 489.990295,239.690247 
	C494.691589,240.482666 499.631470,240.530853 504.398224,240.138062 
	C518.637512,238.964691 526.591797,231.935913 529.646851,218.109055 
	C530.432190,214.554642 530.914917,210.860748 530.948364,207.225510 
	C531.089294,191.899094 531.346497,176.559418 530.838684,161.248535 
	C530.638916,155.226349 528.547485,149.266876 527.029419,142.572403 
M1041.829346,148.500473 
	C1041.829346,178.595398 1041.829346,208.690323 1041.829346,238.859711 
	C1048.855957,238.859711 1055.250000,238.859711 1062.133301,238.859711 
	C1062.133301,222.303787 1062.133301,206.052475 1062.133301,189.742523 
	C1069.579102,189.742523 1076.529297,189.742523 1083.981079,189.742523 
	C1083.981079,206.209793 1083.981079,222.456741 1083.981079,238.908157 
	C1090.883545,238.908157 1097.280884,238.908157 1103.808105,238.908157 
	C1103.808105,202.278732 1103.808105,165.913071 1103.808105,129.520966 
	C1097.045532,129.520966 1090.652222,129.520966 1083.887939,129.520966 
	C1083.887939,144.816803 1083.887939,159.756363 1083.887939,174.851562 
	C1076.457764,174.851562 1069.410889,174.851562 1061.790527,174.851562 
	C1061.790527,159.502380 1061.790527,144.453491 1061.790527,129.414551 
	C1054.940918,129.414551 1048.671143,129.414551 1041.829346,129.414551 
	C1041.829346,135.603943 1041.829346,141.552353 1041.829346,148.500473 
M726.829224,166.499908 
	C726.829224,190.596130 726.829224,214.692352 726.829224,238.858521 
	C733.858215,238.858521 740.252197,238.858521 747.135742,238.858521 
	C747.135742,222.301880 747.135742,206.051102 747.135742,189.743820 
	C754.581726,189.743820 761.531555,189.743820 768.982910,189.743820 
	C768.982910,206.212326 768.982910,222.459198 768.982910,238.907074 
	C775.885437,238.907074 782.282898,238.907074 788.806885,238.907074 
	C788.806885,202.276657 788.806885,165.911087 788.806885,129.521973 
	C782.043640,129.521973 775.649292,129.521973 768.885803,129.521973 
	C768.885803,144.818970 768.885803,159.758560 768.885803,174.850418 
	C761.455688,174.850418 754.408813,174.850418 746.788452,174.850418 
	C746.788452,159.500259 746.788452,144.450928 746.788452,129.415497 
	C739.938660,129.415497 733.668762,129.415497 726.829224,129.415497 
	C726.829224,141.607773 726.829224,153.553833 726.829224,166.499908 
M597.758484,135.724030 
	C588.574829,127.465546 577.629211,127.192497 566.272217,128.771729 
	C554.503784,130.408157 547.417542,137.261505 544.623962,148.591507 
	C543.714905,152.278290 543.105347,156.136063 543.065308,159.923080 
	C542.896179,175.916504 542.742126,191.918930 543.133789,207.904556 
	C543.265808,213.294128 544.526428,218.803452 546.166992,223.973831 
	C548.579041,231.575546 553.955383,237.368790 561.793579,238.661270 
	C569.514771,239.934464 577.661804,239.984314 585.454590,239.098328 
	C593.980713,238.128983 600.030090,232.495575 602.881592,224.400528 
	C604.622925,219.456985 605.899292,214.092163 606.023560,208.884079 
	C606.416931,192.398407 606.306030,175.895859 606.114197,159.403061 
	C606.015625,150.924026 604.044373,142.895737 597.758484,135.724030 
M1161.364258,361.034424 
	C1154.251465,344.546265 1147.176025,328.041656 1139.952393,311.602142 
	C1139.395020,310.333405 1137.874146,308.762848 1136.667358,308.639282 
	C1132.908691,308.254425 1129.085938,308.498199 1125.114502,308.498199 
	C1125.114502,345.264435 1125.114502,381.500519 1125.114502,417.777344 
	C1130.783691,417.777344 1136.152344,417.777344 1142.151611,417.777344 
	C1142.151611,397.135681 1142.151611,376.886505 1142.151611,356.637360 
	C1143.293213,357.508270 1143.737793,358.388000 1144.116089,359.295471 
	C1151.727905,377.559662 1159.291992,395.844025 1167.008423,414.063843 
	C1167.677856,415.644379 1169.198242,417.767059 1170.572144,417.972260 
	C1174.237183,418.519714 1178.037964,418.158539 1181.821289,418.158539 
	C1181.821289,381.290588 1181.821289,345.169067 1181.821289,308.860962 
	C1176.235596,308.860962 1170.840332,308.860962 1164.860352,308.860962 
	C1164.860352,328.513977 1164.860352,347.792023 1164.860352,367.070099 
	C1164.610718,367.088562 1164.361084,367.106995 1164.111450,367.125427 
	C1163.321411,365.313171 1162.531372,363.500885 1161.364258,361.034424 
M1195.991089,338.671967 
	C1195.992310,355.329742 1195.774170,371.991699 1196.089722,388.643524 
	C1196.242310,396.703827 1198.115967,404.584351 1203.351807,411.064850 
	C1213.227051,423.287872 1231.791260,422.595581 1243.632568,409.483337 
	C1244.138306,412.368011 1244.612061,415.070648 1245.088989,417.791199 
	C1249.496460,417.791199 1253.714355,417.791199 1257.961670,417.791199 
	C1257.961670,399.284637 1257.961670,381.164978 1257.961670,362.817871 
	C1248.002563,362.817871 1238.260986,362.817871 1228.411377,362.817871 
	C1228.411377,367.085999 1228.411377,371.012909 1228.411377,375.431641 
	C1232.260864,375.431641 1235.862305,375.431641 1240.339478,375.431641 
	C1239.903320,382.049561 1239.909668,388.199707 1238.996948,394.210327 
	C1237.872192,401.618469 1233.795410,404.862732 1227.300903,404.603333 
	C1220.895386,404.347443 1217.330078,401.385712 1216.994873,393.575653 
	C1216.281250,376.951660 1216.347778,360.292358 1216.214844,343.646545 
	C1216.182983,339.664948 1216.368286,335.645081 1216.902832,331.703674 
	C1217.809326,325.016968 1221.701660,321.864258 1228.055786,322.190918 
	C1234.295654,322.511688 1237.460571,325.626495 1237.920410,332.418701 
	C1238.196655,336.498138 1237.971191,340.611542 1237.971191,344.717133 
	C1244.923096,344.717133 1251.002319,344.717133 1258.117432,344.717133 
	C1257.340576,337.942352 1257.184570,331.427002 1255.741333,325.210480 
	C1253.595825,315.969055 1247.351807,310.028992 1237.967773,308.404480 
	C1232.465576,307.451965 1226.658569,307.110016 1221.124023,307.720703 
	C1207.169556,309.260468 1200.036377,316.142548 1197.139282,329.818665 
	C1196.588745,332.416901 1196.375488,335.086517 1195.991089,338.671967 
M424.993591,188.573181 
	C424.993591,191.042175 424.993591,193.511154 424.993591,196.551147 
	C429.122040,196.551147 432.858459,196.551147 437.397461,196.551147 
	C436.902100,203.265732 436.851166,209.421570 435.899261,215.434784 
	C434.782806,222.487473 430.716675,225.637222 424.369507,225.452713 
	C418.177643,225.272720 414.625610,222.237366 414.007568,214.980927 
	C413.260681,206.211975 413.237305,197.366745 413.219727,188.553894 
	C413.196472,176.902405 413.121552,165.230347 413.763855,153.605530 
	C414.185638,145.971909 418.201385,142.758972 424.929596,143.030075 
	C431.635010,143.300278 434.619904,146.668015 434.987030,154.660049 
	C435.152100,158.253448 435.014984,161.860718 435.014984,165.507538 
	C441.930573,165.507538 447.985352,165.507538 455.356171,165.507538 
	C454.281586,158.180420 453.821533,151.222382 452.146667,144.570206 
	C449.948822,135.840805 443.520447,130.816727 434.855804,129.221558 
	C429.833679,128.296967 424.568420,127.913689 419.481262,128.269363 
	C404.795410,129.296158 396.433746,137.150467 393.998932,151.714462 
	C393.342834,155.638763 392.914764,159.646362 392.876129,163.620514 
	C392.741699,177.447372 392.542084,191.284775 392.954102,205.100662 
	C393.135223,211.174622 394.153137,217.370056 395.813721,223.220078 
	C398.489716,232.647369 405.007996,238.391617 414.864838,240.071625 
	C424.906097,241.783112 433.814545,240.507126 439.734406,230.970520 
	C439.810150,230.848541 440.311005,230.990433 440.677887,231.013153 
	C441.190796,233.684326 441.705536,236.365036 442.172791,238.798523 
	C446.781403,238.798523 450.850067,238.798523 454.884460,238.798523 
	C454.884460,220.165039 454.884460,201.910858 454.884460,183.449829 
	C444.864441,183.449829 435.137665,183.449829 425.204803,183.449829 
	C425.124908,185.033203 425.059265,186.334198 424.993591,188.573181 
M876.109680,141.539139 
	C869.561462,173.903641 863.013306,206.268143 856.355164,239.175980 
	C862.057007,239.175980 867.027710,239.056564 871.988831,239.223816 
	C874.673645,239.314301 875.732910,238.447189 876.142883,235.677200 
	C877.208679,228.475677 878.673950,221.333252 879.976746,214.184204 
	C886.461609,214.184204 892.541443,214.184204 898.683044,214.184204 
	C900.201355,222.631195 901.663147,230.764053 903.111572,238.822571 
	C909.577209,238.822571 915.634277,238.822571 921.929749,238.822571 
	C914.488525,202.118484 907.126282,165.803894 899.696045,129.153961 
	C896.542236,129.153961 893.733093,129.153976 890.923889,129.153961 
	C878.907104,129.153931 878.907104,129.153931 876.109680,141.539139 
M449.094788,392.225372 
	C443.702942,365.477264 438.345917,338.721985 432.816132,312.002441 
	C432.540894,310.672546 430.817139,308.708862 429.680023,308.646698 
	C423.579254,308.313171 417.450653,308.489166 411.079315,308.489166 
	C403.626709,345.158661 396.258545,381.412537 388.840942,417.909790 
	C395.594879,417.909790 401.692352,417.909790 407.924438,417.909790 
	C409.447815,409.543884 410.929016,401.409576 412.427521,393.180084 
	C418.757721,393.180084 424.717834,393.180084 431.079071,393.180084 
	C432.372528,400.408783 433.560455,407.597168 435.026672,414.728333 
	C435.286591,415.992554 436.651398,417.946442 437.597626,418.001282 
	C443.028992,418.316162 448.488007,418.154510 454.404907,418.154510 
	C452.588806,409.339935 450.912079,401.201965 449.094788,392.225372 
M763.499084,418.189240 
	C771.134766,418.189240 778.770447,418.189240 786.515869,418.189240 
	C786.515869,413.362854 786.515869,408.976532 786.515869,404.058624 
	C777.779663,404.058624 769.369019,404.058624 760.951660,404.058624 
	C760.951660,391.982269 760.951660,380.447205 760.951660,368.441528 
	C767.791138,368.441528 774.225403,368.441528 780.693115,368.441528 
	C780.693115,363.394257 780.693115,358.831177 780.693115,353.890686 
	C773.941772,353.890686 767.506104,353.890686 760.828979,353.890686 
	C760.828979,343.461060 760.828979,333.415619 760.828979,322.845245 
	C769.336975,322.845245 777.566589,322.845245 785.781067,322.845245 
	C785.781067,317.768494 785.781067,313.223480 785.781067,308.783813 
	C770.441711,308.783813 755.512695,308.783813 740.370972,308.783813 
	C740.370972,345.320557 740.370972,381.534668 740.370972,418.189240 
	C747.895203,418.189240 755.197205,418.189240 763.499084,418.189240 
M1051.184570,399.562225 
	C1051.184570,389.437927 1051.184570,379.313629 1051.184570,368.551300 
	C1058.236816,368.551300 1064.818726,368.551300 1071.487793,368.551300 
	C1071.487793,363.351013 1071.487793,358.800720 1071.487793,353.776001 
	C1064.560181,353.776001 1057.990723,353.776001 1051.360596,353.776001 
	C1051.360596,343.320801 1051.360596,333.349609 1051.360596,322.856842 
	C1059.942993,322.856842 1068.366211,322.856842 1076.775635,322.856842 
	C1076.775635,317.779480 1076.775635,313.230896 1076.775635,308.805420 
	C1061.423096,308.805420 1046.481323,308.805420 1031.452881,308.805420 
	C1031.452881,345.368042 1031.452881,381.593353 1031.452881,417.924133 
	C1046.863037,417.924133 1061.966553,417.924133 1077.164307,417.924133 
	C1077.164307,413.257751 1077.164307,408.856201 1077.164307,404.144745 
	C1069.481689,404.144745 1062.160034,404.045074 1054.843750,404.196075 
	C1052.094116,404.252808 1050.736572,403.476807 1051.184570,399.562225 
M826.821960,143.896713 
	C834.769470,143.896713 842.716919,143.896713 850.860962,143.896713 
	C850.860962,138.733109 850.860962,134.177856 850.860962,129.466080 
	C835.491516,129.466080 820.436829,129.466080 805.328003,129.466080 
	C805.328003,166.152496 805.328003,202.528748 805.328003,238.937042 
	C820.766296,238.937042 835.870605,238.937042 851.159180,238.937042 
	C851.159180,234.289337 851.159180,229.884216 851.159180,224.973648 
	C842.395813,224.973648 833.982666,224.973648 825.455933,224.973648 
	C825.455933,212.889786 825.455933,201.317001 825.455933,189.146759 
	C832.278198,189.146759 838.838501,189.146759 845.527649,189.146759 
	C845.527649,184.149673 845.527649,179.758179 845.527649,174.843842 
	C838.654053,174.843842 832.086853,174.843842 825.907471,174.843842 
	C825.907471,164.255737 825.907471,154.199188 826.821960,143.896713 
M980.001343,129.165756 
	C979.173950,129.932556 977.680176,130.659576 977.631592,131.472870 
	C977.387024,135.571365 977.519226,139.692368 977.519226,144.313431 
	C983.863403,144.313431 989.614319,144.313431 995.947021,144.313431 
	C995.947021,176.178177 995.947021,207.530869 995.947021,238.821671 
	C1002.942688,238.821671 1009.333801,238.821671 1016.263489,238.821671 
	C1016.263489,207.118546 1016.263489,175.764679 1016.263489,143.910126 
	C1022.379883,143.910126 1027.947388,143.910126 1033.536255,143.910126 
	C1033.536255,138.818253 1033.536255,134.240845 1033.536255,129.158356 
	C1015.795471,129.158356 998.356689,129.158356 980.001343,129.165756 
M855.309570,418.153168 
	C870.065308,418.153168 884.821045,418.153168 899.423218,418.153168 
	C899.423218,413.145477 899.423218,408.756958 899.423218,403.852814 
	C890.589355,403.852814 882.192871,403.852814 873.225586,403.852814 
	C873.225586,371.797852 873.225586,340.279694 873.225586,308.833496 
	C866.385925,308.833496 860.148682,308.833496 853.781982,308.833496 
	C853.645081,310.002106 853.468750,310.807098 853.468384,311.612152 
	C853.452515,345.891571 853.442261,380.171021 853.492249,414.450378 
	C853.494019,415.649353 854.115662,416.847412 855.309570,418.153168 
M797.142395,348.499939 
	C797.142395,371.589905 797.142395,394.679840 797.142395,417.963806 
	C812.902893,417.963806 828.167603,417.963806 843.503479,417.963806 
	C843.503479,413.343903 843.503479,408.954285 843.503479,404.036743 
	C834.751038,404.036743 826.343811,404.036743 817.360596,404.036743 
	C817.360596,371.980377 817.360596,340.453430 817.360596,308.798401 
	C810.355591,308.798401 803.947998,308.798401 797.142395,308.798401 
	C797.142395,321.920868 797.142395,334.710419 797.142395,348.499939 
M931.829224,194.499908 
	C931.829224,209.260681 931.829224,224.021454 931.829224,238.914581 
	C947.524292,238.914581 962.596252,238.914581 977.809814,238.914581 
	C977.809814,234.282776 977.809814,229.913803 977.809814,225.010162 
	C969.068115,225.010162 960.674133,225.010162 951.742065,225.010162 
	C951.742065,192.776657 951.742065,161.080292 951.742065,129.426010 
	C944.907959,129.426010 938.639954,129.426010 931.829224,129.426010 
	C931.829224,150.958038 931.829224,172.228958 931.829224,194.499908 
M1088.822876,320.519958 
	C1088.822876,352.934143 1088.822876,385.348297 1088.822876,417.771423 
	C1095.802002,417.771423 1102.168457,417.771423 1108.628784,417.771423 
	C1108.628784,381.284241 1108.628784,345.203186 1108.628784,308.800598 
	C1102.012207,308.800598 1095.612549,308.800598 1088.822876,308.800598 
	C1088.822876,312.573486 1088.822876,316.052032 1088.822876,320.519958 
M908.984436,370.870087 
	C908.984436,374.298218 908.984436,377.726349 908.984436,381.248779 
	C920.198975,381.248779 930.781372,381.248779 941.482666,381.248779 
	C941.482666,376.917633 941.482666,372.894348 941.482666,368.476898 
	C931.141663,368.476898 921.179077,368.445587 911.217651,368.540771 
	C910.481567,368.547821 909.754211,369.465088 908.984436,370.870087 
z"/>
<path fill="#FEFEFE" opacity="1.000000" stroke="none" 
	d="
M559.516846,913.606934 
	C547.908630,939.615601 536.490234,965.295227 525.063904,990.971375 
	C521.816223,998.269409 516.166443,1001.989685 508.193787,1001.991455 
	C426.528198,1002.009460 344.862640,1002.018066 263.197052,1001.982849 
	C252.819885,1001.978394 245.214249,994.524719 245.160828,984.619080 
	C245.105927,974.440308 252.739395,967.009155 263.407471,967.006653 
	C339.573120,966.988831 415.738831,966.958618 491.904236,967.101379 
	C496.048065,967.109192 497.918182,965.778870 499.559753,962.073425 
	C526.232117,901.868164 553.050781,841.727661 579.859802,781.583008 
	C583.757141,772.839294 590.281860,768.768127 598.552185,769.736572 
	C606.687927,770.689148 612.775879,776.314453 613.947571,784.438721 
	C619.697021,824.305420 625.338318,864.187683 631.047302,904.060181 
	C636.544006,942.449585 642.078186,980.833679 647.591858,1019.220642 
	C648.180054,1023.315735 648.741455,1027.414551 649.537292,1033.096436 
	C651.119019,1030.433228 652.103027,1028.904053 652.963745,1027.308472 
	C678.316956,980.310425 703.679932,933.317627 728.972839,886.287109 
	C732.107666,880.458008 736.473083,876.510681 743.214966,875.905701 
	C753.538330,874.979309 760.935120,880.864624 762.802307,891.609131 
	C767.588928,919.153931 772.233704,946.723206 776.968750,974.276978 
	C786.550537,1030.034302 796.161255,1085.786621 805.743591,1141.543945 
	C807.798645,1153.501953 809.784119,1165.472046 812.762329,1177.590454 
	C813.221191,1176.206177 813.713806,1174.832153 814.134216,1173.436279 
	C863.722839,1008.807861 913.309753,844.178955 962.886230,679.546875 
	C973.002869,645.952026 983.037903,612.332581 993.193848,578.749634 
	C997.248230,565.342773 1011.191345,560.338562 1021.442688,568.664062 
	C1023.679199,570.480408 1025.544800,573.094666 1026.811646,575.713806 
	C1058.455933,641.140076 1090.026855,706.602051 1121.525146,772.098938 
	C1126.411377,782.259216 1122.109009,793.169128 1112.145996,796.851624 
	C1103.317627,800.114807 1094.328979,796.265198 1089.808228,787.019653 
	C1081.480713,769.989014 1073.277588,752.897644 1065.046631,735.820007 
	C1048.656128,701.813110 1032.283203,667.797852 1015.895752,633.789490 
	C1015.541931,633.054993 1015.102539,632.361877 1014.283752,630.901428 
	C1012.388916,637.061584 1010.679871,642.516907 1009.031738,647.990479 
	C947.716003,851.632812 886.340576,1055.257202 825.251465,1258.967407 
	C821.458069,1271.616943 809.438049,1277.064575 799.449402,1271.900269 
	C794.030518,1269.098877 791.101135,1264.447388 790.084778,1258.508545 
	C777.004272,1182.073486 763.935791,1105.636353 750.833618,1029.205078 
	C746.195007,1002.146118 741.473389,975.101257 736.573181,946.799805 
	C735.270020,949.004578 734.389893,950.384644 733.614563,951.821228 
	C707.699768,999.837769 681.815002,1047.870483 655.874084,1095.873047 
	C649.816345,1107.082642 636.234802,1109.968750 627.901917,1101.414062 
	C625.088867,1098.526123 622.917786,1094.099976 622.326538,1090.099976 
	C615.317078,1042.680420 608.665405,995.207886 601.913391,947.750183 
	C597.529175,916.934692 593.138794,886.120056 588.728760,855.308228 
	C588.548096,854.046265 588.138977,852.816956 587.588867,850.554932 
	C578.040039,872.033020 568.871826,892.654785 559.516846,913.606934 
z"/>
<path fill="#FFFFFF" opacity="1.000000" stroke="none" 
	d="
M1158.936523,874.910522 
	C1194.515503,847.599487 1240.010254,870.444153 1252.906616,907.381592 
	C1264.754883,941.316895 1259.548218,971.889038 1233.511108,997.908081 
	C1200.747437,1030.649048 1168.062500,1063.468994 1135.357544,1096.268677 
	C1134.069580,1097.560303 1132.926270,1098.996338 1131.517334,1100.589355 
	C1130.133179,1099.427124 1129.089844,1098.676270 1128.192261,1097.779419 
	C1094.130859,1063.741455 1059.985840,1029.786377 1026.061279,995.612610 
	C993.456543,962.768250 995.631775,906.037781 1030.602539,877.719543 
	C1049.068848,862.766052 1078.053345,854.136536 1104.434326,875.397461 
	C1108.841309,878.949158 1113.305786,882.443298 1117.530640,886.203308 
	C1122.003540,890.184021 1126.222412,894.450500 1130.441895,898.486755 
	C1139.802002,890.726257 1149.219604,882.917969 1158.936523,874.910522 
z"/>
<path fill="#FEFEFE" opacity="1.000000" stroke="none" 
	d="
M117.865112,337.993713 
	C117.839867,333.517365 117.839867,329.536652 117.839867,325.193542 
	C136.014725,325.193542 153.915558,325.193542 172.031357,325.193542 
	C172.660034,333.913849 173.199402,342.666046 173.973679,351.397369 
	C174.221298,354.189880 174.912781,356.979584 175.706512,359.680847 
	C179.440659,372.388916 189.574905,377.929657 202.395813,374.537292 
	C209.292557,372.712463 213.231522,367.994293 214.754730,361.453918 
	C218.894516,343.678375 219.226242,325.800201 214.506882,308.077515 
	C211.373688,296.311279 203.399109,289.889435 191.221420,288.830231 
	C186.425400,288.413055 181.622452,288.075439 176.491257,287.675781 
	C176.491257,274.639343 176.491257,261.572540 176.491257,247.827911 
	C179.830826,247.827911 183.102264,247.867249 186.372528,247.821365 
	C204.430069,247.568100 212.984039,240.498810 216.212784,222.750244 
	C218.561371,209.839890 218.746124,196.889130 215.015381,184.169342 
	C211.985931,173.840576 205.717987,169.511414 194.593353,169.513519 
	C184.305450,169.515488 178.328690,173.398285 175.942764,183.952545 
	C173.871063,193.116776 173.530548,202.679214 172.550873,212.078796 
	C172.296219,214.522018 172.512527,217.014328 172.512527,219.740829 
	C154.140350,219.740829 136.240280,219.740829 118.004120,219.740829 
	C117.154282,193.603592 117.831390,168.142868 136.764999,147.330582 
	C145.812057,137.385849 157.140594,131.278885 170.063263,128.309982 
	C188.054276,124.176651 206.144272,124.323090 223.913727,129.452805 
	C246.164719,135.876266 261.217499,150.161133 267.968109,172.476624 
	C273.538635,190.891098 274.001678,209.652710 268.795288,228.166992 
	C264.044769,245.060303 254.675323,258.604034 236.664780,265.399872 
	C255.980225,273.359924 266.287628,288.225189 269.444092,307.343536 
	C271.618347,320.512421 271.601166,334.162445 271.356628,347.575439 
	C271.140869,359.411377 268.002808,370.885193 263.281982,381.873901 
	C254.301880,402.776978 238.697205,415.453888 216.419006,419.637756 
	C200.367889,422.652191 184.261673,422.383240 168.327240,418.590729 
	C142.690186,412.488983 128.364243,395.081573 122.257271,370.547729 
	C119.667542,360.143890 119.279198,349.192108 117.865112,337.993713 
z"/>
<path fill="#FBFDFB" opacity="1.000000" stroke="none" 
	d="
M649.075378,373.034882 
	C646.008789,351.383789 643.002502,330.171021 639.957581,308.685608 
	C645.736938,308.685608 651.035950,308.685608 656.969788,308.685608 
	C659.736816,330.202698 662.507629,351.749146 665.278442,373.295563 
	C665.712463,373.355133 666.146545,373.414673 666.580627,373.474243 
	C670.158020,352.085175 673.735352,330.696075 677.380493,308.901733 
	C681.817383,308.901733 686.205322,308.901733 691.149841,308.901733 
	C694.848083,330.653107 698.574829,352.571899 702.301514,374.490692 
	C702.647644,374.517120 702.993713,374.543518 703.339844,374.569946 
	C706.146790,352.736603 708.953796,330.903259 711.795410,308.800323 
	C717.379395,308.800323 722.600220,308.800323 728.504883,308.800323 
	C723.297913,345.299652 718.135498,381.486633 712.994324,417.524841 
	C712.456787,417.793640 712.169495,418.054138 711.868530,418.071045 
	C696.527466,418.933167 696.605713,418.918030 694.100403,403.640961 
	C691.246582,386.238953 688.236633,368.862518 685.285156,351.476593 
	C685.126953,350.544250 684.881226,349.626740 684.017639,348.677948 
	C680.117065,371.750427 676.216431,394.822906 672.303711,417.967255 
	C666.579834,417.967255 661.294434,417.967255 655.583008,417.967255 
	C653.419922,403.039337 651.277832,388.256287 649.075378,373.034882 
z"/>
<path fill="#FCFEFC" opacity="1.000000" stroke="none" 
	d="
M1019.006470,384.161133 
	C1018.920410,387.627289 1019.138550,390.667938 1018.696655,393.609436 
	C1016.271057,409.757935 1006.473999,418.095551 989.992981,418.168030 
	C979.180603,418.215576 968.367798,418.177002 957.190186,418.177002 
	C957.190186,381.663849 957.190186,345.435760 957.190186,308.531860 
	C971.211426,309.037262 985.398071,306.608185 999.212830,310.554321 
	C1011.976807,314.200378 1017.749878,325.615692 1015.680969,341.367859 
	C1014.583130,349.726227 1011.163940,356.329285 1001.438599,359.282104 
	C1014.194397,363.306061 1018.553772,372.190338 1019.006470,384.161133 
M976.982910,368.593323 
	C976.982910,380.307312 976.982910,392.021301 976.982910,403.994568 
	C979.694885,403.994568 981.834717,404.006256 983.974487,403.992584 
	C994.243896,403.927124 998.499512,400.593506 999.447876,390.526917 
	C1001.274963,371.133942 993.662292,366.186615 976.982910,368.593323 
M976.843628,328.581604 
	C976.843628,336.676300 976.843628,344.771027 976.843628,353.233246 
	C984.018127,352.754059 991.504150,354.921021 995.680603,348.017303 
	C999.469849,341.753723 999.942261,334.202087 996.076050,327.988678 
	C991.838379,321.178223 984.100891,323.180908 977.118530,322.877106 
	C977.012329,324.702789 976.927979,326.151550 976.843628,328.581604 
z"/>
<path fill="#FAFCF9" opacity="1.000000" stroke="none" 
	d="
M504.800781,363.805725 
	C504.808350,345.198029 504.808350,327.072174 504.808350,308.706909 
	C510.422363,308.706909 515.527283,308.706909 521.085571,308.706909 
	C521.085571,345.028564 521.085571,381.257629 521.085571,418.174164 
	C517.521423,418.174164 513.711487,418.478027 510.000641,418.004700 
	C508.748901,417.845032 507.309387,415.899353 506.700256,414.455750 
	C499.332123,396.994202 492.108459,379.471771 484.830231,361.972198 
	C484.166382,360.376038 483.385681,358.828430 481.720581,357.465149 
	C481.720581,377.499908 481.720581,397.534668 481.720581,417.876740 
	C475.633514,417.876740 470.053833,417.876740 464.307678,417.876740 
	C464.307678,381.534546 464.307678,345.398010 464.307678,308.504791 
	C468.516113,308.504791 472.651245,308.203339 476.692688,308.686249 
	C477.924591,308.833466 479.273193,310.975891 479.933044,312.482727 
	C487.068848,328.777496 494.071564,345.130524 501.130981,361.458832 
	C501.833069,363.082794 502.669739,364.648621 503.904419,367.188660 
	C504.394165,365.589996 504.593658,364.938751 504.800781,363.805725 
z"/>
<path fill="#FDFEFC" opacity="1.000000" stroke="none" 
	d="
M536.993652,406.980713 
	C536.993652,374.025055 536.993652,341.567230 536.993652,307.700256 
	C551.214417,308.571625 565.220459,308.476349 578.893555,310.562714 
	C590.277588,312.299805 596.344360,321.351227 596.734924,332.387390 
	C597.452271,352.656250 597.623352,373.001404 596.684509,393.252747 
	C596.008789,407.830933 586.878357,416.591797 572.406738,417.697815 
	C560.855957,418.580597 549.183899,417.875977 536.993652,417.875977 
	C536.993652,414.372437 536.993652,410.925476 536.993652,406.980713 
M557.166199,327.717834 
	C557.166199,352.975555 557.166199,378.233307 557.166199,403.716797 
	C560.931030,403.716797 564.244934,404.035614 567.471802,403.641663 
	C572.241333,403.059357 575.996338,400.223328 576.060974,395.365173 
	C576.346130,373.941925 576.282166,352.511536 576.069641,331.086456 
	C576.029236,327.005554 572.990356,324.496063 569.021057,323.744263 
	C566.269409,323.223083 563.406738,323.319489 560.613953,322.975494 
	C557.545776,322.597626 556.835083,324.162781 557.166199,327.717834 
z"/>
<path fill="#FDFEFD" opacity="1.000000" stroke="none" 
	d="
M619.995117,189.000000 
	C619.995117,168.883698 619.995117,149.267395 619.995117,128.607819 
	C633.300049,129.222443 646.150024,129.006302 658.764954,130.623947 
	C671.672485,132.279099 679.264343,140.514511 679.757996,153.555450 
	C680.513184,173.508789 680.597473,193.539291 679.745239,213.484863 
	C679.093872,228.728424 669.859863,237.078781 654.483398,238.819260 
	C651.842041,239.118240 649.161072,239.146744 646.497803,239.159180 
	C637.860229,239.199493 629.222351,239.174225 619.995117,239.174225 
	C619.995117,222.384048 619.995117,205.942017 619.995117,189.000000 
M640.164062,212.482910 
	C640.164062,216.579056 640.164062,220.675217 640.164062,224.700729 
	C655.620056,225.908310 659.775940,222.513733 659.946106,208.413803 
	C660.147095,191.767807 660.026184,175.117340 659.949585,158.469254 
	C659.938965,156.164627 660.014038,153.490265 658.928101,151.647980 
	C657.365540,148.997116 655.169739,145.887466 652.526978,144.907333 
	C648.883179,143.555969 644.570679,144.007675 640.164062,143.656708 
	C640.164062,166.916580 640.164062,189.201996 640.164062,212.482910 
z"/>
<path fill="#FBFDFB" opacity="1.000000" stroke="none" 
	d="
M527.173462,142.925629 
	C528.547485,149.266876 530.638916,155.226349 530.838684,161.248535 
	C531.346497,176.559418 531.089294,191.899094 530.948364,207.225510 
	C530.914917,210.860748 530.432190,214.554642 529.646851,218.109055 
	C526.591797,231.935913 518.637512,238.964691 504.398224,240.138062 
	C499.631470,240.530853 494.691589,240.482666 489.990295,239.690247 
	C477.192200,237.533066 468.877411,228.381989 468.254028,213.549927 
	C467.423004,193.777802 467.168701,173.892502 468.314453,154.151443 
	C469.440247,134.754364 484.298767,125.281128 505.636902,128.346649 
	C515.080688,129.703384 522.832336,133.416992 527.173462,142.925629 
M493.215637,144.412750 
	C487.862183,148.101959 488.111420,153.850861 488.062683,159.281586 
	C487.914734,175.776169 487.953857,192.273254 488.057434,208.768494 
	C488.077148,211.904175 488.494507,215.084366 489.139709,218.157669 
	C490.022125,222.360825 492.869598,224.619843 497.140076,225.248260 
	C504.728455,226.364929 509.836487,222.656403 509.989349,214.494492 
	C510.360382,194.686081 510.456573,174.860458 510.049133,155.054398 
	C509.832062,144.501862 504.119720,141.043610 493.215637,144.412750 
z"/>
<path fill="#FEFEFE" opacity="1.000000" stroke="none" 
	d="
M1041.829346,148.000610 
	C1041.829346,141.552353 1041.829346,135.603943 1041.829346,129.414551 
	C1048.671143,129.414551 1054.940918,129.414551 1061.790527,129.414551 
	C1061.790527,144.453491 1061.790527,159.502380 1061.790527,174.851562 
	C1069.410889,174.851562 1076.457764,174.851562 1083.887939,174.851562 
	C1083.887939,159.756363 1083.887939,144.816803 1083.887939,129.520966 
	C1090.652222,129.520966 1097.045532,129.520966 1103.808105,129.520966 
	C1103.808105,165.913071 1103.808105,202.278732 1103.808105,238.908157 
	C1097.280884,238.908157 1090.883545,238.908157 1083.981079,238.908157 
	C1083.981079,222.456741 1083.981079,206.209793 1083.981079,189.742523 
	C1076.529297,189.742523 1069.579102,189.742523 1062.133301,189.742523 
	C1062.133301,206.052475 1062.133301,222.303787 1062.133301,238.859711 
	C1055.250000,238.859711 1048.855957,238.859711 1041.829346,238.859711 
	C1041.829346,208.690323 1041.829346,178.595398 1041.829346,148.000610 
z"/>
<path fill="#FEFEFE" opacity="1.000000" stroke="none" 
	d="
M726.829224,165.999908 
	C726.829224,153.553833 726.829224,141.607773 726.829224,129.415497 
	C733.668762,129.415497 739.938660,129.415497 746.788452,129.415497 
	C746.788452,144.450928 746.788452,159.500259 746.788452,174.850418 
	C754.408813,174.850418 761.455688,174.850418 768.885803,174.850418 
	C768.885803,159.758560 768.885803,144.818970 768.885803,129.521973 
	C775.649292,129.521973 782.043640,129.521973 788.806885,129.521973 
	C788.806885,165.911087 788.806885,202.276657 788.806885,238.907074 
	C782.282898,238.907074 775.885437,238.907074 768.982910,238.907074 
	C768.982910,222.459198 768.982910,206.212326 768.982910,189.743820 
	C761.531555,189.743820 754.581726,189.743820 747.135742,189.743820 
	C747.135742,206.051102 747.135742,222.301880 747.135742,238.858521 
	C740.252197,238.858521 733.858215,238.858521 726.829224,238.858521 
	C726.829224,214.692352 726.829224,190.596130 726.829224,165.999908 
z"/>
<path fill="#FCFEFC" opacity="1.000000" stroke="none" 
	d="
M597.978516,136.008148 
	C604.044373,142.895737 606.015625,150.924026 606.114197,159.403061 
	C606.306030,175.895859 606.416931,192.398407 606.023560,208.884079 
	C605.899292,214.092163 604.622925,219.456985 602.881592,224.400528 
	C600.030090,232.495575 593.980713,238.128983 585.454590,239.098328 
	C577.661804,239.984314 569.514771,239.934464 561.793579,238.661270 
	C553.955383,237.368790 548.579041,231.575546 546.166992,223.973831 
	C544.526428,218.803452 543.265808,213.294128 543.133789,207.904556 
	C542.742126,191.918930 542.896179,175.916504 543.065308,159.923080 
	C543.105347,156.136063 543.714905,152.278290 544.623962,148.591507 
	C547.417542,137.261505 554.503784,130.408157 566.272217,128.771729 
	C577.629211,127.192497 588.574829,127.465546 597.978516,136.008148 
M577.919250,225.039719 
	C585.292297,223.079056 585.673767,216.901337 585.747681,211.095032 
	C585.976562,193.101624 585.839783,175.103439 585.813416,157.107162 
	C585.811523,155.784592 585.632874,154.449631 585.409363,153.142136 
	C584.155090,145.804703 580.840393,142.822891 574.222900,143.017822 
	C567.614380,143.212479 564.040100,146.269333 563.902832,153.911560 
	C563.541199,174.056564 563.481323,194.219009 563.923218,214.360855 
	C564.114502,223.079269 568.335938,225.929047 577.919250,225.039719 
z"/>
<path fill="#FDFEFC" opacity="1.000000" stroke="none" 
	d="
M1161.552734,361.361511 
	C1162.531372,363.500885 1163.321411,365.313171 1164.111450,367.125427 
	C1164.361084,367.106995 1164.610718,367.088562 1164.860352,367.070099 
	C1164.860352,347.792023 1164.860352,328.513977 1164.860352,308.860962 
	C1170.840332,308.860962 1176.235596,308.860962 1181.821289,308.860962 
	C1181.821289,345.169067 1181.821289,381.290588 1181.821289,418.158539 
	C1178.037964,418.158539 1174.237183,418.519714 1170.572144,417.972260 
	C1169.198242,417.767059 1167.677856,415.644379 1167.008423,414.063843 
	C1159.291992,395.844025 1151.727905,377.559662 1144.116089,359.295471 
	C1143.737793,358.388000 1143.293213,357.508270 1142.151611,356.637360 
	C1142.151611,376.886505 1142.151611,397.135681 1142.151611,417.777344 
	C1136.152344,417.777344 1130.783691,417.777344 1125.114502,417.777344 
	C1125.114502,381.500519 1125.114502,345.264435 1125.114502,308.498199 
	C1129.085938,308.498199 1132.908691,308.254425 1136.667358,308.639282 
	C1137.874146,308.762848 1139.395020,310.333405 1139.952393,311.602142 
	C1147.176025,328.041656 1154.251465,344.546265 1161.552734,361.361511 
z"/>
<path fill="#FCFEFC" opacity="1.000000" stroke="none" 
	d="
M1195.998901,338.197601 
	C1196.375488,335.086517 1196.588745,332.416901 1197.139282,329.818665 
	C1200.036377,316.142548 1207.169556,309.260468 1221.124023,307.720703 
	C1226.658569,307.110016 1232.465576,307.451965 1237.967773,308.404480 
	C1247.351807,310.028992 1253.595825,315.969055 1255.741333,325.210480 
	C1257.184570,331.427002 1257.340576,337.942352 1258.117432,344.717133 
	C1251.002319,344.717133 1244.923096,344.717133 1237.971191,344.717133 
	C1237.971191,340.611542 1238.196655,336.498138 1237.920410,332.418701 
	C1237.460571,325.626495 1234.295654,322.511688 1228.055786,322.190918 
	C1221.701660,321.864258 1217.809326,325.016968 1216.902832,331.703674 
	C1216.368286,335.645081 1216.182983,339.664948 1216.214844,343.646545 
	C1216.347778,360.292358 1216.281250,376.951660 1216.994873,393.575653 
	C1217.330078,401.385712 1220.895386,404.347443 1227.300903,404.603333 
	C1233.795410,404.862732 1237.872192,401.618469 1238.996948,394.210327 
	C1239.909668,388.199707 1239.903320,382.049561 1240.339478,375.431641 
	C1235.862305,375.431641 1232.260864,375.431641 1228.411377,375.431641 
	C1228.411377,371.012909 1228.411377,367.085999 1228.411377,362.817871 
	C1238.260986,362.817871 1248.002563,362.817871 1257.961670,362.817871 
	C1257.961670,381.164978 1257.961670,399.284637 1257.961670,417.791199 
	C1253.714355,417.791199 1249.496460,417.791199 1245.088989,417.791199 
	C1244.612061,415.070648 1244.138306,412.368011 1243.632568,409.483337 
	C1231.791260,422.595581 1213.227051,423.287872 1203.351807,411.064850 
	C1198.115967,404.584351 1196.242310,396.703827 1196.089722,388.643524 
	C1195.774170,371.991699 1195.992310,355.329742 1195.998901,338.197601 
z"/>
<path fill="#FDFEFC" opacity="1.000000" stroke="none" 
	d="
M424.993591,188.104187 
	C425.059265,186.334198 425.124908,185.033203 425.204803,183.449829 
	C435.137665,183.449829 444.864441,183.449829 454.884460,183.449829 
	C454.884460,201.910858 454.884460,220.165039 454.884460,238.798523 
	C450.850067,238.798523 446.781403,238.798523 442.172791,238.798523 
	C441.705536,236.365036 441.190796,233.684326 440.677887,231.013153 
	C440.311005,230.990433 439.810150,230.848541 439.734406,230.970520 
	C433.814545,240.507126 424.906097,241.783112 414.864838,240.071625 
	C405.007996,238.391617 398.489716,232.647369 395.813721,223.220078 
	C394.153137,217.370056 393.135223,211.174622 392.954102,205.100662 
	C392.542084,191.284775 392.741699,177.447372 392.876129,163.620514 
	C392.914764,159.646362 393.342834,155.638763 393.998932,151.714462 
	C396.433746,137.150467 404.795410,129.296158 419.481262,128.269363 
	C424.568420,127.913689 429.833679,128.296967 434.855804,129.221558 
	C443.520447,130.816727 449.948822,135.840805 452.146667,144.570206 
	C453.821533,151.222382 454.281586,158.180420 455.356171,165.507538 
	C447.985352,165.507538 441.930573,165.507538 435.014984,165.507538 
	C435.014984,161.860718 435.152100,158.253448 434.987030,154.660049 
	C434.619904,146.668015 431.635010,143.300278 424.929596,143.030075 
	C418.201385,142.758972 414.185638,145.971909 413.763855,153.605530 
	C413.121552,165.230347 413.196472,176.902405 413.219727,188.553894 
	C413.237305,197.366745 413.260681,206.211975 414.007568,214.980927 
	C414.625610,222.237366 418.177643,225.272720 424.369507,225.452713 
	C430.716675,225.637222 434.782806,222.487473 435.899261,215.434784 
	C436.851166,209.421570 436.902100,203.265732 437.397461,196.551147 
	C432.858459,196.551147 429.122040,196.551147 424.993591,196.551147 
	C424.993591,193.511154 424.993591,191.042175 424.993591,188.104187 
z"/>
<path fill="#FCFEFC" opacity="1.000000" stroke="none" 
	d="
M876.184875,141.120941 
	C878.907104,129.153931 878.907104,129.153931 890.923889,129.153961 
	C893.733093,129.153976 896.542236,129.153961 899.696045,129.153961 
	C907.126282,165.803894 914.488525,202.118484 921.929749,238.822571 
	C915.634277,238.822571 909.577209,238.822571 903.111572,238.822571 
	C901.663147,230.764053 900.201355,222.631195 898.683044,214.184204 
	C892.541443,214.184204 886.461609,214.184204 879.976746,214.184204 
	C878.673950,221.333252 877.208679,228.475677 876.142883,235.677200 
	C875.732910,238.447189 874.673645,239.314301 871.988831,239.223816 
	C867.027710,239.056564 862.057007,239.175980 856.355164,239.175980 
	C863.013306,206.268143 869.561462,173.903641 876.184875,141.120941 
M886.774353,172.163895 
	C885.248474,181.441574 883.722534,190.719269 882.145020,200.311111 
	C887.095337,200.311111 891.373901,200.311111 896.395203,200.311111 
	C894.134705,186.260941 891.926697,172.536957 889.718689,158.812973 
	C889.489075,158.781799 889.259460,158.750626 889.029785,158.719452 
	C888.315735,162.913544 887.601624,167.107620 886.774353,172.163895 
z"/>
<path fill="#FCFEFC" opacity="1.000000" stroke="none" 
	d="
M449.165070,392.644684 
	C450.912079,401.201965 452.588806,409.339935 454.404907,418.154510 
	C448.488007,418.154510 443.028992,418.316162 437.597626,418.001282 
	C436.651398,417.946442 435.286591,415.992554 435.026672,414.728333 
	C433.560455,407.597168 432.372528,400.408783 431.079071,393.180084 
	C424.717834,393.180084 418.757721,393.180084 412.427521,393.180084 
	C410.929016,401.409576 409.447815,409.543884 407.924438,417.909790 
	C401.692352,417.909790 395.594879,417.909790 388.840942,417.909790 
	C396.258545,381.412537 403.626709,345.158661 411.079315,308.489166 
	C417.450653,308.489166 423.579254,308.313171 429.680023,308.646698 
	C430.817139,308.708862 432.540894,310.672546 432.816132,312.002441 
	C438.345917,338.721985 443.702942,365.477264 449.165070,392.644684 
M419.348145,349.804077 
	C417.788055,359.615936 416.227936,369.427765 414.613129,379.583557 
	C419.657074,379.583557 424.076019,379.583557 428.908997,379.583557 
	C426.605316,365.544006 424.356567,351.839203 422.107788,338.134430 
	C421.836700,338.159454 421.565613,338.184448 421.294495,338.209473 
	C420.718384,341.793518 420.142242,345.377533 419.348145,349.804077 
z"/>
<path fill="#F9FCF9" opacity="1.000000" stroke="none" 
	d="
M762.999146,418.189240 
	C755.197205,418.189240 747.895203,418.189240 740.370972,418.189240 
	C740.370972,381.534668 740.370972,345.320557 740.370972,308.783813 
	C755.512695,308.783813 770.441711,308.783813 785.781067,308.783813 
	C785.781067,313.223480 785.781067,317.768494 785.781067,322.845245 
	C777.566589,322.845245 769.336975,322.845245 760.828979,322.845245 
	C760.828979,333.415619 760.828979,343.461060 760.828979,353.890686 
	C767.506104,353.890686 773.941772,353.890686 780.693115,353.890686 
	C780.693115,358.831177 780.693115,363.394257 780.693115,368.441528 
	C774.225403,368.441528 767.791138,368.441528 760.951660,368.441528 
	C760.951660,380.447205 760.951660,391.982269 760.951660,404.058624 
	C769.369019,404.058624 777.779663,404.058624 786.515869,404.058624 
	C786.515869,408.976532 786.515869,413.362854 786.515869,418.189240 
	C778.770447,418.189240 771.134766,418.189240 762.999146,418.189240 
z"/>
<path fill="#FBFDFA" opacity="1.000000" stroke="none" 
	d="
M1051.185425,400.069885 
	C1050.736572,403.476807 1052.094116,404.252808 1054.843750,404.196075 
	C1062.160034,404.045074 1069.481689,404.144745 1077.164307,404.144745 
	C1077.164307,408.856201 1077.164307,413.257751 1077.164307,417.924133 
	C1061.966553,417.924133 1046.863037,417.924133 1031.452881,417.924133 
	C1031.452881,381.593353 1031.452881,345.368042 1031.452881,308.805420 
	C1046.481323,308.805420 1061.423096,308.805420 1076.775635,308.805420 
	C1076.775635,313.230896 1076.775635,317.779480 1076.775635,322.856842 
	C1068.366211,322.856842 1059.942993,322.856842 1051.360596,322.856842 
	C1051.360596,333.349609 1051.360596,343.320801 1051.360596,353.776001 
	C1057.990723,353.776001 1064.560181,353.776001 1071.487793,353.776001 
	C1071.487793,358.800720 1071.487793,363.351013 1071.487793,368.551300 
	C1064.818726,368.551300 1058.236816,368.551300 1051.184570,368.551300 
	C1051.184570,379.313629 1051.184570,389.437927 1051.185425,400.069885 
z"/>
<path fill="#FDFEFD" opacity="1.000000" stroke="none" 
	d="
M826.364746,144.019684 
	C825.907471,154.199188 825.907471,164.255737 825.907471,174.843842 
	C832.086853,174.843842 838.654053,174.843842 845.527649,174.843842 
	C845.527649,179.758179 845.527649,184.149673 845.527649,189.146759 
	C838.838501,189.146759 832.278198,189.146759 825.455933,189.146759 
	C825.455933,201.317001 825.455933,212.889786 825.455933,224.973648 
	C833.982666,224.973648 842.395813,224.973648 851.159180,224.973648 
	C851.159180,229.884216 851.159180,234.289337 851.159180,238.937042 
	C835.870605,238.937042 820.766296,238.937042 805.328003,238.937042 
	C805.328003,202.528748 805.328003,166.152496 805.328003,129.466080 
	C820.436829,129.466080 835.491516,129.466080 850.860962,129.466080 
	C850.860962,134.177856 850.860962,138.733109 850.860962,143.896713 
	C842.716919,143.896713 834.769470,143.896713 826.364746,144.019684 
z"/>
<path fill="#FDFEFD" opacity="1.000000" stroke="none" 
	d="
M980.459656,129.162048 
	C998.356689,129.158356 1015.795471,129.158356 1033.536255,129.158356 
	C1033.536255,134.240845 1033.536255,138.818253 1033.536255,143.910126 
	C1027.947388,143.910126 1022.379883,143.910126 1016.263489,143.910126 
	C1016.263489,175.764679 1016.263489,207.118546 1016.263489,238.821671 
	C1009.333801,238.821671 1002.942688,238.821671 995.947021,238.821671 
	C995.947021,207.530869 995.947021,176.178177 995.947021,144.313431 
	C989.614319,144.313431 983.863403,144.313431 977.519226,144.313431 
	C977.519226,139.692368 977.387024,135.571365 977.631592,131.472870 
	C977.680176,130.659576 979.173950,129.932556 980.459656,129.162048 
z"/>
<path fill="#F7FBF6" opacity="1.000000" stroke="none" 
	d="
M854.878967,418.099548 
	C854.115662,416.847412 853.494019,415.649353 853.492249,414.450378 
	C853.442261,380.171021 853.452515,345.891571 853.468384,311.612152 
	C853.468750,310.807098 853.645081,310.002106 853.781982,308.833496 
	C860.148682,308.833496 866.385925,308.833496 873.225586,308.833496 
	C873.225586,340.279694 873.225586,371.797852 873.225586,403.852814 
	C882.192871,403.852814 890.589355,403.852814 899.423218,403.852814 
	C899.423218,408.756958 899.423218,413.145477 899.423218,418.153168 
	C884.821045,418.153168 870.065308,418.153168 854.878967,418.099548 
z"/>
<path fill="#F9FCF9" opacity="1.000000" stroke="none" 
	d="
M797.142395,347.999939 
	C797.142395,334.710419 797.142395,321.920868 797.142395,308.798401 
	C803.947998,308.798401 810.355591,308.798401 817.360596,308.798401 
	C817.360596,340.453430 817.360596,371.980377 817.360596,404.036743 
	C826.343811,404.036743 834.751038,404.036743 843.503479,404.036743 
	C843.503479,408.954285 843.503479,413.343903 843.503479,417.963806 
	C828.167603,417.963806 812.902893,417.963806 797.142395,417.963806 
	C797.142395,394.679840 797.142395,371.589905 797.142395,347.999939 
z"/>
<path fill="#FEFEFE" opacity="1.000000" stroke="none" 
	d="
M931.829224,193.999908 
	C931.829224,172.228958 931.829224,150.958038 931.829224,129.426010 
	C938.639954,129.426010 944.907959,129.426010 951.742065,129.426010 
	C951.742065,161.080292 951.742065,192.776657 951.742065,225.010162 
	C960.674133,225.010162 969.068115,225.010162 977.809814,225.010162 
	C977.809814,229.913803 977.809814,234.282776 977.809814,238.914581 
	C962.596252,238.914581 947.524292,238.914581 931.829224,238.914581 
	C931.829224,224.021454 931.829224,209.260681 931.829224,193.999908 
z"/>
<path fill="#FCFEFC" opacity="1.000000" stroke="none" 
	d="
M1088.822876,320.025269 
	C1088.822876,316.052032 1088.822876,312.573486 1088.822876,308.800598 
	C1095.612549,308.800598 1102.012207,308.800598 1108.628784,308.800598 
	C1108.628784,345.203186 1108.628784,381.284241 1108.628784,417.771423 
	C1102.168457,417.771423 1095.802002,417.771423 1088.822876,417.771423 
	C1088.822876,385.348297 1088.822876,352.934143 1088.822876,320.025269 
z"/>
<path fill="#F7FBF6" opacity="1.000000" stroke="none" 
	d="
M909.003601,370.414612 
	C909.754211,369.465088 910.481567,368.547821 911.217651,368.540771 
	C921.179077,368.445587 931.141663,368.476898 941.482666,368.476898 
	C941.482666,372.894348 941.482666,376.917633 941.482666,381.248779 
	C930.781372,381.248779 920.198975,381.248779 908.984436,381.248779 
	C908.984436,377.726349 908.984436,374.298218 909.003601,370.414612 
z"/>
<path fill="#4D9F39" opacity="1.000000" stroke="none" 
	d="
M977.276611,368.197144 
	C993.662292,366.186615 1001.274963,371.133942 999.447876,390.526917 
	C998.499512,400.593506 994.243896,403.927124 983.974487,403.992584 
	C981.834717,404.006256 979.694885,403.994568 976.982910,403.994568 
	C976.982910,392.021301 976.982910,380.307312 977.276611,368.197144 
z"/>
<path fill="#4D9F39" opacity="1.000000" stroke="none" 
	d="
M976.843628,328.090973 
	C976.927979,326.151550 977.012329,324.702789 977.118530,322.877106 
	C984.100891,323.180908 991.838379,321.178223 996.076050,327.988678 
	C999.942261,334.202087 999.469849,341.753723 995.680603,348.017303 
	C991.504150,354.921021 984.018127,352.754059 976.843628,353.233246 
	C976.843628,344.771027 976.843628,336.676300 976.843628,328.090973 
z"/>
<path fill="#4FA13B" opacity="1.000000" stroke="none" 
	d="
M557.166504,327.244568 
	C556.835083,324.162781 557.545776,322.597626 560.613953,322.975494 
	C563.406738,323.319489 566.269409,323.223083 569.021057,323.744263 
	C572.990356,324.496063 576.029236,327.005554 576.069641,331.086456 
	C576.282166,352.511536 576.346130,373.941925 576.060974,395.365173 
	C575.996338,400.223328 572.241333,403.059357 567.471802,403.641663 
	C564.244934,404.035614 560.931030,403.716797 557.166199,403.716797 
	C557.166199,378.233307 557.166199,352.975555 557.166504,327.244568 
z"/>
<path fill="#4FA13B" opacity="1.000000" stroke="none" 
	d="
M640.164062,211.985168 
	C640.164062,189.201996 640.164062,166.916580 640.164062,143.656708 
	C644.570679,144.007675 648.883179,143.555969 652.526978,144.907333 
	C655.169739,145.887466 657.365540,148.997116 658.928101,151.647980 
	C660.014038,153.490265 659.938965,156.164627 659.949585,158.469254 
	C660.026184,175.117340 660.147095,191.767807 659.946106,208.413803 
	C659.775940,222.513733 655.620056,225.908310 640.164062,224.700729 
	C640.164062,220.675217 640.164062,216.579056 640.164062,211.985168 
z"/>
<path fill="#4D9F39" opacity="1.000000" stroke="none" 
	d="
M493.573242,144.245544 
	C504.119720,141.043610 509.832062,144.501862 510.049133,155.054398 
	C510.456573,174.860458 510.360382,194.686081 509.989349,214.494492 
	C509.836487,222.656403 504.728455,226.364929 497.140076,225.248260 
	C492.869598,224.619843 490.022125,222.360825 489.139709,218.157669 
	C488.494507,215.084366 488.077148,211.904175 488.057434,208.768494 
	C487.953857,192.273254 487.914734,175.776169 488.062683,159.281586 
	C488.111420,153.850861 487.862183,148.101959 493.573242,144.245544 
z"/>
<path fill="#4FA13B" opacity="1.000000" stroke="none" 
	d="
M577.495544,225.099976 
	C568.335938,225.929047 564.114502,223.079269 563.923218,214.360855 
	C563.481323,194.219009 563.541199,174.056564 563.902832,153.911560 
	C564.040100,146.269333 567.614380,143.212479 574.222900,143.017822 
	C580.840393,142.822891 584.155090,145.804703 585.409363,153.142136 
	C585.632874,154.449631 585.811523,155.784592 585.813416,157.107162 
	C585.839783,175.103439 585.976562,193.101624 585.747681,211.095032 
	C585.673767,216.901337 585.292297,223.079056 577.495544,225.099976 
z"/>
<path fill="#55A442" opacity="1.000000" stroke="none" 
	d="
M886.830933,171.732788 
	C887.601624,167.107620 888.315735,162.913544 889.029785,158.719452 
	C889.259460,158.750626 889.489075,158.781799 889.718689,158.812973 
	C891.926697,172.536957 894.134705,186.260941 896.395203,200.311111 
	C891.373901,200.311111 887.095337,200.311111 882.145020,200.311111 
	C883.722534,190.719269 885.248474,181.441574 886.830933,171.732788 
z"/>
<path fill="#55A442" opacity="1.000000" stroke="none" 
	d="
M419.457153,349.382812 
	C420.142242,345.377533 420.718384,341.793518 421.294495,338.209473 
	C421.565613,338.184448 421.836700,338.159454 422.107788,338.134430 
	C424.356567,351.839203 426.605316,365.544006 428.908997,379.583557 
	C424.076019,379.583557 419.657074,379.583557 414.613129,379.583557 
	C416.227936,369.427765 417.788055,359.615936 419.457153,349.382812 
z"/>
</svg>