<svg version="1.1" id="Layer_1" xmlns="http://www.w3.org/2000/svg" xmlns:xlink="http://www.w3.org/1999/xlink" x="0px" y="0px"
	 width="100%" viewBox="0 0 1500 1500" enable-background="new 0 0 1500 1500" xml:space="preserve">
<path fill="#19486A" opacity="1.000000" stroke="none" 
	d="
M1.000000,549.000000 
	C1.000000,367.500031 1.013523,186.500046 0.906294,5.500153 
	C0.904073,1.751049 1.750627,0.906395 5.499919,0.907133 
	C502.499817,1.004945 999.499695,1.004939 1496.499634,0.907217 
	C1500.247803,0.906480 1501.093628,1.749692 1501.092896,5.499651 
	C1500.995117,502.499542 1500.995117,999.499451 1501.092773,1496.499390 
	C1501.093506,1500.246948 1500.251099,1501.093628 1496.500610,1501.092896 
	C999.500732,1500.994995 502.500793,1500.994995 5.500920,1501.092651 
	C1.754015,1501.093384 0.905495,1500.252197 0.906697,1496.500854 
	C1.007796,1180.833862 1.000000,865.166931 1.000000,549.000000 
z"/>
<path fill="#FEFEFE" opacity="1.000000" stroke="none" 
	d="
M771.837036,584.114868 
	C854.779358,592.257385 911.949280,634.648926 944.034546,710.953491 
	C945.140198,713.582886 946.026794,715.067322 949.457031,715.288330 
	C1038.143799,721.003479 1111.418091,781.863037 1130.097656,868.624329 
	C1146.817505,946.282288 1123.085083,1011.754456 1063.230713,1063.990112 
	C1060.611450,1066.275879 1059.989136,1068.002930 1060.794189,1071.489136 
	C1077.347778,1143.180420 1060.676880,1206.249756 1009.606140,1259.172974 
	C977.684998,1292.251831 937.935303,1311.048828 892.060303,1316.078613 
	C846.087036,1321.118896 803.451477,1311.207886 764.332214,1286.510254 
	C761.654541,1284.819702 759.912537,1284.932739 757.304993,1286.637817 
	C724.234985,1308.261108 687.808350,1318.842896 648.375793,1318.805054 
	C554.301086,1318.714600 471.375946,1248.483643 455.786255,1156.146362 
	C450.970581,1127.623535 452.018280,1099.444458 459.347748,1071.514893 
	C460.196655,1068.280029 459.702484,1066.565674 457.111908,1064.411133 
	C417.416565,1031.394775 392.897522,989.432556 386.468170,938.171570 
	C378.384216,873.718140 397.491974,817.725281 443.587219,771.684998 
	C478.456421,736.857422 521.146973,718.664673 570.182678,715.287659 
	C573.489746,715.059937 574.642944,713.793701 575.767334,711.052124 
	C604.140137,641.874573 655.103516,600.218323 728.541382,586.274536 
	C742.648071,583.596191 757.011169,583.380798 771.837036,584.114868 
z"/>
<path fill="#FCFDFD" opacity="1.000000" stroke="none" 
	d="
M243.000336,129.483673 
	C276.982025,129.483719 310.463989,129.546967 343.945007,129.398392 
	C347.839478,129.381119 348.646759,130.453369 348.990173,134.343704 
	C351.308868,160.609589 344.168793,185.408554 338.067780,210.441452 
	C321.697388,277.610535 305.526703,344.828430 289.422546,412.061920 
	C288.609741,415.455292 287.518311,416.659302 283.923645,416.606842 
	C269.101562,416.390442 254.271500,416.350555 239.451218,416.620667 
	C235.197937,416.698212 235.052475,415.463165 235.939865,411.873596 
	C251.495361,348.949402 266.928223,285.994934 282.385315,223.046402 
	C286.268982,207.230179 290.033417,191.383240 294.107452,175.616241 
	C295.032471,172.036346 294.035858,171.450974 290.755188,171.465286 
	C267.934814,171.564972 245.112732,171.406494 222.293839,171.616806 
	C218.121490,171.655258 216.948257,170.536682 217.058395,166.379257 
	C217.349472,155.392990 217.260345,144.392319 217.090561,133.400970 
	C217.043381,130.346085 217.943695,129.342651 221.014084,129.423981 
	C228.171677,129.613556 235.337723,129.483948 243.000336,129.483673 
z"/>
<path fill="#FEFEFE" opacity="1.000000" stroke="none" 
	d="
M129.830063,353.999939 
	C129.830063,298.174774 129.830063,242.849609 129.830063,187.040878 
	C115.900764,192.042542 102.266273,196.938339 88.164230,202.002029 
	C88.164230,188.776215 88.240395,176.146164 88.105476,163.518356 
	C88.075401,160.703247 89.987236,160.438339 91.764755,159.639923 
	C107.258102,152.680695 122.692108,145.481644 135.881226,134.620163 
	C140.610519,130.725510 145.157608,129.135437 151.118790,129.385178 
	C160.601547,129.782471 170.121109,129.719315 179.608978,129.388382 
	C183.903580,129.238602 185.132263,130.257034 185.120071,134.786163 
	C184.946487,199.281631 185.001709,263.777710 185.001709,328.273651 
	C185.001709,355.938568 184.867401,383.604797 185.132858,411.267181 
	C185.177505,415.919678 183.730804,416.674072 179.556702,416.604156 
	C164.895081,416.358398 150.224106,416.352264 135.562714,416.604767 
	C131.203308,416.679840 129.621506,415.804230 129.701752,410.993958 
	C130.015793,392.167145 129.830078,373.332001 129.830063,353.999939 
z"/>
<path fill="#F7F8FA" opacity="1.000000" stroke="none" 
	d="
M818.859314,363.000061 
	C818.859314,379.989044 818.651367,396.482330 818.992432,412.964264 
	C819.088501,417.606140 817.603455,418.659973 813.427979,418.259644 
	C809.962158,417.927368 806.407471,417.896973 802.949890,418.269135 
	C798.979309,418.696564 798.326233,417.045563 798.379395,413.491425 
	C798.578796,400.169983 798.328491,386.841614 798.544312,373.520660 
	C798.603394,369.873016 797.783569,368.449432 793.905029,368.776520 
	C789.605164,369.139069 785.236450,369.079193 780.925354,368.790283 
	C777.449463,368.557373 776.405884,369.653198 776.459229,373.188141 
	C776.662903,386.676056 776.379517,400.171997 776.642334,413.657867 
	C776.717834,417.529877 775.534180,418.537079 771.885864,418.263214 
	C767.745239,417.952423 763.556641,418.045654 759.401978,418.240723 
	C756.709839,418.367126 756.085205,417.348511 756.090820,414.798309 
	C756.166321,380.488068 756.165833,346.177551 756.093323,311.867279 
	C756.087769,309.248383 756.927307,308.333984 759.516174,308.422180 
	C763.841553,308.569458 768.189575,308.673920 772.501709,308.392731 
	C775.986450,308.165527 776.638855,309.639008 776.601379,312.755554 
	C776.453491,325.078888 776.658813,337.406891 776.465210,349.728943 
	C776.411621,353.142212 777.248169,354.461426 780.842834,354.214294 
	C785.318726,353.906616 789.842590,353.949280 794.325073,354.204437 
	C797.568359,354.389038 798.582275,353.370880 798.532349,350.062195 
	C798.346497,337.739899 798.610046,325.410187 798.369446,313.089813 
	C798.295105,309.281158 799.448853,308.028931 803.164673,308.414337 
	C808.252930,308.942078 815.075439,306.258087 817.999207,309.553711 
	C820.520264,312.395386 818.823486,319.054016 818.842651,324.025696 
	C818.892151,336.850311 818.859314,349.675262 818.859314,363.000061 
z"/>
<path fill="#F9FAFB" opacity="1.000000" stroke="none" 
	d="
M899.084778,227.077148 
	C896.058044,215.426132 892.831543,204.239075 890.280273,192.900085 
	C889.174561,187.985718 885.964233,189.287735 883.056213,189.231781 
	C879.328247,189.160049 880.601379,192.150833 880.587524,193.969101 
	C880.485291,207.459457 880.425964,220.952332 880.604065,234.441101 
	C880.649780,237.905151 880.146912,239.722260 876.090637,239.250351 
	C871.015137,238.659851 864.166870,241.366486 861.267212,238.140121 
	C858.747498,235.336426 860.486206,228.633087 860.481750,223.652954 
	C860.455139,193.839249 860.559021,164.024933 860.367188,134.212433 
	C860.339661,129.949615 861.613098,128.890091 865.682983,129.064926 
	C877.296570,129.563843 889.011047,128.185089 900.506165,130.805466 
	C913.019897,133.658035 918.947754,140.375275 920.251343,153.172455 
	C920.963928,160.167831 920.740295,167.118790 918.289124,173.851318 
	C916.810974,177.911240 914.468933,181.412918 910.646484,183.355347 
	C907.600708,184.903091 907.837158,186.622192 908.630676,189.364380 
	C913.017639,204.524200 917.122620,219.765686 921.519775,234.922440 
	C922.443848,238.107727 922.283447,239.686569 918.490112,239.207352 
	C917.342590,239.062393 916.160645,239.207550 914.995300,239.181366 
	C910.852844,239.088318 905.717468,240.416779 902.864502,238.446503 
	C900.318848,236.688385 900.295349,231.278107 899.084778,227.077148 
z"/>
<path fill="#FAFBFC" opacity="1.000000" stroke="none" 
	d="
M1041.113647,239.170532 
	C1037.535522,238.755020 1038.894653,236.328827 1038.882446,234.831482 
	C1038.773193,221.503601 1038.585327,208.168182 1038.945190,194.849136 
	C1039.070801,190.203232 1037.538574,189.073181 1033.307983,189.457870 
	C1029.672607,189.788406 1025.940552,189.879166 1022.328552,189.439880 
	C1017.470337,188.849030 1016.670288,190.952606 1016.755432,195.266296 
	C1017.015137,208.423325 1016.737122,221.590363 1016.926208,234.749802 
	C1016.975281,238.167206 1016.152771,239.540100 1012.544250,239.249954 
	C1008.736816,238.943817 1004.859802,238.903915 1001.060913,239.258789 
	C997.189331,239.620422 996.373840,238.165207 996.393066,234.511353 
	C996.540222,206.521729 996.473633,178.530975 996.473816,150.540573 
	C996.473877,144.542633 996.564270,138.542770 996.435364,132.547638 
	C996.380371,129.988083 997.196167,128.992081 999.857117,129.100906 
	C1004.348083,129.284576 1008.860168,129.317215 1013.347534,129.093689 
	C1016.371033,128.943085 1016.919617,130.253128 1016.896729,132.919983 
	C1016.789551,145.414764 1017.037842,157.915466 1016.742493,170.404190 
	C1016.645691,174.498718 1017.979309,175.484314 1021.761414,175.222977 
	C1026.238525,174.913589 1030.760864,174.992950 1035.249146,175.205841 
	C1038.152100,175.343521 1038.903564,174.279358 1038.874878,171.489136 
	C1038.744751,158.828156 1038.942383,146.163071 1038.738647,133.504044 
	C1038.682129,129.990738 1039.697021,128.833359 1043.201416,129.081680 
	C1047.345947,129.375381 1051.534058,129.298889 1055.689697,129.098602 
	C1058.358521,128.969986 1059.063110,129.929855 1059.057739,132.509552 
	C1058.985840,166.997574 1058.978394,201.485870 1059.068848,235.973816 
	C1059.076050,238.738113 1058.073120,239.311890 1055.597534,239.226624 
	C1050.937988,239.066132 1046.268921,239.179321 1041.113647,239.170532 
z"/>
<path fill="#FBFCFC" opacity="1.000000" stroke="none" 
	d="
M985.796387,401.124939 
	C984.484253,397.433197 983.902710,393.998444 983.724976,390.500671 
	C982.796326,372.220947 982.522705,353.920929 983.797729,335.664764 
	C985.377747,313.040405 998.987488,305.680542 1019.466187,307.442444 
	C1037.266724,308.973907 1045.095337,317.143677 1046.389893,337.122009 
	C1047.581177,355.508606 1047.850708,374.052887 1046.110107,392.451996 
	C1044.192017,412.726532 1031.953369,420.732819 1011.721069,419.637146 
	C999.384338,418.969055 989.944153,414.056000 985.796387,401.124939 
z"/>
<path fill="#FBFCFC" opacity="1.000000" stroke="none" 
	d="
M546.611755,417.562378 
	C535.952209,413.557037 531.330139,405.173798 530.165222,395.147400 
	C527.834229,375.083649 528.203735,354.856415 529.697693,334.781464 
	C531.310974,313.103363 544.349548,305.914246 564.732178,307.375366 
	C582.048035,308.616608 590.791870,317.398254 591.957214,334.690979 
	C593.234192,353.638947 593.449524,372.704742 591.950623,391.616730 
	C590.119324,414.721619 576.297241,419.998810 558.737366,419.746552 
	C554.780945,419.689728 550.772888,419.071655 546.611755,417.562378 
z"/>
<path fill="#FCFDFD" opacity="1.000000" stroke="none" 
	d="
M641.207397,404.855927 
	C638.324219,393.677551 635.284607,382.952209 632.875732,372.087006 
	C631.761475,367.061188 628.434937,368.191772 625.316101,368.206543 
	C621.413513,368.225067 623.105225,371.327515 623.086853,373.020782 
	C622.940857,386.513275 622.886353,400.009827 623.086182,413.500946 
	C623.138550,417.033112 622.539368,418.713654 618.555969,418.237122 
	C613.504822,417.632965 606.676819,420.373566 603.802429,417.109009 
	C601.292542,414.258392 603.012939,407.609528 603.008301,402.638611 
	C602.980652,372.818329 603.057312,342.997772 602.912415,313.178192 
	C602.894897,309.585266 603.566589,308.213745 607.488586,308.390076 
	C616.298523,308.786133 625.138245,308.483856 633.953064,308.811096 
	C659.877258,309.773468 665.232605,325.241394 662.398560,346.637451 
	C661.464722,353.687775 658.664124,359.826569 651.962402,363.254395 
	C649.464966,364.531799 650.458008,366.065582 650.935059,367.761688 
	C655.118713,382.636078 659.292847,397.513153 663.464966,412.390778 
	C663.954346,414.135773 664.414734,415.888916 665.030945,418.163818 
	C658.711975,418.163818 652.744141,418.131165 646.777039,418.182098 
	C644.773315,418.199219 644.364258,416.946350 643.983215,415.367584 
	C643.165039,411.977936 642.208679,408.621704 641.207397,404.855927 
z"/>
<path fill="#FDFDFE" opacity="1.000000" stroke="none" 
	d="
M657.092590,133.819336 
	C669.401917,141.274323 669.602722,152.997421 668.654419,164.869675 
	C668.012878,172.901443 665.449951,180.269867 657.528503,184.312057 
	C655.274536,185.462234 656.365479,186.976303 656.802979,188.527451 
	C661.179626,204.045563 665.456238,219.592514 669.954102,235.075256 
	C670.882812,238.272049 670.577515,239.520798 666.915710,239.225494 
	C661.628479,238.799118 655.199341,241.143967 651.316895,238.344559 
	C647.637451,235.691574 648.100281,228.967499 646.769348,224.028809 
	C644.000427,213.754120 641.018311,203.519791 638.771301,193.128845 
	C637.671143,188.041458 634.411926,189.186737 631.307251,189.205887 
	C627.408691,189.229935 629.103638,192.333817 629.085571,194.027374 
	C628.939819,207.690445 628.917542,221.356735 629.069214,235.019669 
	C629.103699,238.127594 628.487366,239.509430 625.033875,239.246933 
	C620.891724,238.932083 616.691101,238.945404 612.546570,239.244522 
	C609.258911,239.481812 608.763367,238.125397 608.770874,235.233704 
	C608.859131,201.238983 608.874695,167.243805 608.753418,133.249283 
	C608.741516,129.915146 609.720581,128.986343 612.968140,129.096375 
	C623.282166,129.445862 633.623169,128.663803 643.921875,129.893478 
	C648.424072,130.431030 652.757141,131.454498 657.092590,133.819336 
z"/>
<path fill="#FBFCFC" opacity="1.000000" stroke="none" 
	d="
M758.032410,149.905640 
	C763.663269,162.991806 769.188049,175.711197 774.712769,188.430573 
	C775.082336,188.370941 775.451843,188.311310 775.821350,188.251678 
	C775.821350,184.382843 775.821289,180.513992 775.821289,176.645157 
	C775.821289,162.321945 775.907166,147.997849 775.756287,133.676224 
	C775.721985,130.418610 776.290588,129.037064 780.025452,129.054276 
	C792.521362,129.111816 792.522156,128.949570 792.522095,141.416885 
	C792.522034,172.394989 792.447144,203.373489 792.614014,234.350693 
	C792.635498,238.338257 791.474487,239.801529 787.603455,239.201370 
	C786.627625,239.050079 785.592041,239.061920 784.611938,239.199203 
	C780.646729,239.754608 778.533691,238.408478 776.931213,234.350708 
	C769.795715,216.281982 762.196411,198.396332 754.746765,180.451920 
	C754.253601,179.263870 753.612488,178.137253 752.178650,177.009613 
	C752.178650,178.374496 752.178650,179.739380 752.178650,181.104263 
	C752.178589,199.091553 752.103516,217.079437 752.248230,235.065552 
	C752.273987,238.269501 751.483154,239.593521 748.135742,239.218109 
	C743.896484,238.742676 738.226135,241.032639 735.760803,238.252914 
	C733.657715,235.881622 735.011536,230.355942 735.007629,226.225494 
	C734.978394,195.413971 735.056396,164.602081 734.906067,133.791260 
	C734.888184,130.132492 735.676697,128.953369 739.526917,129.049454 
	C749.021484,129.286392 749.025940,129.073746 752.756348,137.659042 
	C754.477417,141.619965 756.202820,145.578979 758.032410,149.905640 
z"/>
<path fill="#FBFCFC" opacity="1.000000" stroke="none" 
	d="
M955.991760,382.968689 
	C955.990051,375.560516 955.976624,375.289948 949.310486,375.620758 
	C945.137451,375.827881 943.462463,374.568634 944.130066,370.398560 
	C944.286072,369.423889 944.283936,368.382416 944.130188,367.407013 
	C943.515503,363.506775 945.006042,362.208618 949.004150,362.387939 
	C956.153809,362.708557 963.330200,362.578217 970.491089,362.429169 
	C973.226501,362.372253 974.261963,363.109314 974.239014,366.040070 
	C974.111328,382.366272 974.142517,398.694183 974.216614,415.021057 
	C974.226990,417.303436 973.674927,418.539825 971.183350,418.179474 
	C971.020142,418.155884 970.850403,418.172272 970.683960,418.178406 
	C961.281799,418.524933 961.281799,418.524994 959.640076,408.606110 
	C954.273804,418.681976 945.842041,420.832947 935.857727,419.564728 
	C924.465149,418.117584 917.512390,411.636993 914.326050,400.876343 
	C913.433105,397.860718 912.593933,394.713806 912.484253,391.600555 
	C911.804626,372.301788 910.882263,352.943817 912.829041,333.714752 
	C914.942139,312.842590 927.600037,305.820831 948.232727,307.404449 
	C970.128540,309.085022 974.197388,324.660492 973.851440,343.001282 
	C973.814270,344.969788 972.594849,345.014130 971.180115,345.010406 
	C966.515198,344.998138 961.847290,344.906769 957.186646,345.047333 
	C954.844177,345.118011 954.462036,344.005585 954.445068,342.027954 
	C954.415283,338.537231 954.319885,335.032166 953.966064,331.562286 
	C953.324707,325.273560 949.996155,322.287140 943.857849,322.184265 
	C937.872375,322.083954 933.966858,325.126923 933.087952,331.032349 
	C932.006836,338.296631 932.108948,345.640015 932.178711,352.968170 
	C932.294434,365.123505 932.364746,377.279572 932.565735,389.433472 
	C932.603943,391.740845 932.943481,394.095245 933.518677,396.331604 
	C935.013000,402.142365 938.075256,404.498962 943.786926,404.572632 
	C949.433167,404.645477 952.751282,402.268951 954.613525,396.798828 
	C956.091370,392.457642 956.078857,387.959229 955.991760,382.968689 
z"/>
<path fill="#FCFCFD" opacity="1.000000" stroke="none" 
	d="
M1071.882446,317.678223 
	C1073.634644,308.480499 1073.635864,308.395660 1082.227539,308.517273 
	C1086.347046,308.575562 1091.578857,306.772217 1094.269897,309.314148 
	C1096.667358,311.578827 1096.405273,316.719208 1097.196411,320.614929 
	C1103.544312,351.875763 1109.791382,383.157532 1116.295166,414.385803 
	C1117.007568,417.806641 1116.235962,418.410004 1113.152710,418.222382 
	C1109.835815,418.020569 1106.430786,417.759918 1103.183960,418.277100 
	C1098.592163,419.008484 1097.598633,416.613312 1097.066650,412.911560 
	C1096.239990,407.159454 1095.004761,401.465759 1094.193848,395.711914 
	C1093.896118,393.599121 1093.126465,392.913361 1091.057251,392.971558 
	C1086.732910,393.093262 1082.386841,393.230164 1078.080200,392.927948 
	C1075.298096,392.732697 1074.717773,394.150726 1074.350708,396.288788 
	C1073.282349,402.512207 1071.998779,408.704956 1071.155151,414.957672 
	C1070.806396,417.543610 1069.839966,418.329712 1067.375000,418.216461 
	C1063.886719,418.056183 1060.350220,417.863800 1056.898560,418.253662 
	C1052.242554,418.779602 1051.367065,417.264404 1052.353760,412.818146 
	C1055.449097,398.870361 1058.129517,384.830688 1060.994141,370.831390 
	C1064.591553,353.250092 1068.212280,335.673523 1071.882446,317.678223 
z"/>
<path fill="#FCFCFD" opacity="1.000000" stroke="none" 
	d="
M542.958130,202.818817 
	C547.658508,179.588974 552.422424,156.802094 556.843872,133.948959 
	C557.616760,129.954132 559.169739,128.709396 563.012634,129.103668 
	C568.250244,129.640991 575.012329,126.959213 578.376099,130.167023 
	C581.464050,133.111801 581.056213,139.774567 582.082153,144.820892 
	C588.209839,174.962982 594.250305,205.123047 600.497803,235.240189 
	C601.152222,238.394684 600.807983,239.447479 597.440002,239.232758 
	C593.623657,238.989441 589.765015,238.969940 585.952515,239.241867 
	C582.889160,239.460373 582.023682,238.245087 581.666321,235.379807 
	C580.967102,229.773834 579.695312,224.241684 578.876282,218.647369 
	C578.386719,215.303146 577.437561,213.227814 573.352234,213.753967 
	C569.910583,214.197235 566.345337,214.083405 562.874207,213.774033 
	C559.813599,213.501236 558.905640,214.775543 558.488708,217.547974 
	C557.549072,223.796906 556.170715,229.980270 555.249695,236.231384 
	C554.906067,238.563477 554.019653,239.310547 551.761719,239.208282 
	C546.631226,238.975891 539.802856,240.843124 536.843262,238.241241 
	C534.011047,235.751389 537.800964,229.097031 538.675781,224.279221 
	C539.953674,217.241928 541.483154,210.250351 542.958130,202.818817 
z"/>
<path fill="#F9FAFB" opacity="1.000000" stroke="none" 
	d="
M1164.089844,174.907715 
	C1159.979492,184.837982 1152.083740,188.689972 1142.443726,189.944366 
	C1140.963013,190.137039 1139.454224,190.145538 1137.957153,190.177521 
	C1126.853394,190.414719 1126.853271,190.409821 1126.853271,201.300674 
	C1126.853149,212.628845 1126.753784,223.958466 1126.918945,235.284225 
	C1126.963135,238.317993 1126.128296,239.432922 1123.017822,239.243362 
	C1119.034424,239.000595 1114.999023,238.901535 1111.034180,239.265045 
	C1107.123291,239.623627 1106.373901,238.105194 1106.390991,234.491623 
	C1106.529419,205.172318 1106.468506,175.852051 1106.468750,146.532089 
	C1106.468750,141.867554 1106.510132,137.202545 1106.453857,132.538696 
	C1106.428955,130.476990 1106.666016,129.036316 1109.357666,129.111481 
	C1120.507812,129.422867 1131.700928,128.414978 1142.810669,129.629105 
	C1156.202026,131.092560 1163.258789,137.614380 1165.512451,150.862778 
	C1166.852295,158.738968 1167.072754,166.779877 1164.089844,174.907715 
z"/>
<path fill="#FBFCFC" opacity="1.000000" stroke="none" 
	d="
M987.111328,205.981964 
	C989.189209,218.039459 987.362488,228.671799 977.002625,235.638138 
	C966.426453,242.749817 954.740845,242.442581 943.818542,236.587875 
	C933.106934,230.846130 930.762634,220.071228 929.875549,208.930603 
	C929.735718,207.174423 930.698608,206.563950 932.127930,206.256088 
	C932.777832,206.116119 933.444397,206.054092 934.095459,205.918610 
	C938.164185,205.071899 942.868225,202.560928 946.122498,203.815674 
	C949.521729,205.126312 947.384094,210.994705 948.866760,214.655823 
	C949.803772,216.969452 950.454895,219.416534 952.094666,221.325516 
	C954.822815,224.501556 958.305176,225.667068 962.414978,224.552399 
	C966.355591,223.483627 967.949646,220.537552 968.336548,216.783005 
	C969.134338,209.042389 966.071411,202.793152 960.482605,197.728241 
	C954.196472,192.031372 947.736328,186.526627 941.360474,180.928543 
	C930.769897,171.629959 928.007751,159.918991 930.940918,146.551514 
	C932.246033,140.603348 935.485413,135.777512 940.765259,132.707809 
	C950.933655,126.795876 961.617065,126.225906 972.306152,131.025818 
	C979.974854,134.469498 986.601074,147.414474 985.889648,156.195282 
	C985.794128,157.374557 985.590027,158.033875 984.351379,158.223343 
	C983.038879,158.424072 981.750488,158.777298 980.443787,159.022125 
	C976.853638,159.694824 972.730957,161.733231 969.812500,160.622040 
	C966.783691,159.468811 968.454956,154.428528 967.356750,151.208740 
	C965.357971,145.349075 961.928894,142.570114 956.949829,143.404343 
	C951.402527,144.333771 948.792114,147.859177 948.836487,154.107117 
	C948.869141,158.712463 950.569214,162.591660 953.882812,165.655060 
	C959.623169,170.961807 965.535278,176.082092 971.323608,181.337570 
	C978.686584,188.022766 985.091553,195.352875 987.111328,205.981964 
z"/>
<path fill="#FBFCFC" opacity="1.000000" stroke="none" 
	d="
M1173.341064,221.527466 
	C1169.768311,206.910828 1169.809082,207.095123 1184.039551,203.947861 
	C1188.306519,203.004196 1189.056885,204.283890 1189.077515,208.088715 
	C1189.100098,212.267776 1190.157471,216.358566 1192.428101,219.959671 
	C1195.012329,224.058014 1198.762939,225.800339 1203.542725,224.584473 
	C1208.215942,223.395721 1209.625000,219.668930 1209.775513,215.432617 
	C1210.035522,208.114044 1206.798828,202.222641 1201.506958,197.456161 
	C1195.324829,191.887741 1188.968628,186.513016 1182.697998,181.042511 
	C1173.733887,173.222137 1170.134155,163.272079 1171.217529,151.568024 
	C1172.729370,135.234680 1187.091553,125.404915 1204.968750,128.291046 
	C1219.214722,130.590942 1225.389648,139.863831 1227.025635,155.617767 
	C1227.193604,157.234985 1226.741089,158.129486 1225.047119,158.338425 
	C1223.897461,158.480225 1222.772705,158.814224 1221.630371,159.028275 
	C1218.037964,159.701508 1213.865234,161.775558 1211.013916,160.614380 
	C1208.287231,159.504013 1209.635620,154.416946 1208.635864,151.186600 
	C1206.849609,145.415573 1203.142090,142.566788 1198.183105,143.392502 
	C1192.687256,144.307617 1189.836426,148.043243 1190.018311,154.127228 
	C1190.154297,158.667603 1191.797241,162.610825 1195.135498,165.676727 
	C1200.895142,170.966263 1206.762817,176.138535 1212.606323,181.336197 
	C1222.846802,190.444992 1229.806641,200.982285 1229.084473,215.522690 
	C1228.456543,228.168732 1219.650635,238.378372 1207.089966,240.072891 
	C1190.133179,242.360474 1179.269287,236.484299 1173.341064,221.527466 
z"/>
<path fill="#F9FAFB" opacity="1.000000" stroke="none" 
	d="
M479.468628,207.999695 
	C479.468689,183.006500 479.556915,158.512680 479.379303,134.020782 
	C479.350677,130.075317 480.424927,128.914093 484.378082,129.057907 
	C494.526459,129.427094 504.738617,128.768539 514.837708,129.593369 
	C529.297791,130.774384 536.230042,137.676514 538.656189,151.990723 
	C539.578186,157.430237 539.592712,162.983444 538.708252,168.425613 
	C536.611816,181.326538 528.163330,188.938034 514.960754,189.958435 
	C511.314606,190.240250 507.623291,190.346298 503.978668,190.118240 
	C500.700439,189.913086 499.731201,190.974960 499.776550,194.292206 
	C499.961029,207.785919 499.739594,221.285248 499.931122,234.778763 
	C499.980164,238.231873 499.088318,239.513062 495.520660,239.254654 
	C491.376892,238.954498 487.185608,239.016418 483.032288,239.241013 
	C480.083801,239.400452 479.379974,238.220779 479.420166,235.491577 
	C479.552521,226.495987 479.469147,217.497238 479.468628,207.999695 
z"/>
<path fill="#FBFCFC" opacity="1.000000" stroke="none" 
	d="
M1175.148926,398.743164 
	C1172.578979,386.273041 1172.643799,386.535217 1184.665161,383.563019 
	C1189.365845,382.400848 1191.606201,382.538483 1191.592163,388.116730 
	C1191.583008,391.739532 1192.596558,395.363953 1194.473145,398.601807 
	C1197.007324,402.974487 1201.333740,405.046082 1205.845215,403.819885 
	C1210.673218,402.507629 1212.068970,398.758636 1212.146362,394.232574 
	C1212.268799,387.076172 1209.170532,381.378723 1203.987793,376.734985 
	C1197.790649,371.182404 1191.514038,365.717407 1185.217529,360.277100 
	C1174.709473,351.197968 1171.634033,339.623505 1174.408325,326.465607 
	C1177.216431,313.147858 1190.127808,305.554291 1205.724121,307.268188 
	C1221.080933,308.955780 1227.726196,318.550842 1229.385254,334.616760 
	C1229.596069,336.658600 1228.684814,337.331268 1227.051392,337.667572 
	C1225.911987,337.902222 1224.753418,338.041870 1223.606567,338.242554 
	C1220.176514,338.842743 1216.279663,340.739410 1213.445923,339.708649 
	C1210.394897,338.598999 1212.123291,333.856781 1211.158203,330.789703 
	C1209.150146,324.408081 1205.821045,321.730865 1200.051514,322.750092 
	C1194.811646,323.675812 1192.178467,327.617554 1192.536011,333.890259 
	C1192.795776,338.445374 1194.628052,342.268066 1197.959473,345.303772 
	C1203.493530,350.346832 1209.154419,355.250854 1214.704956,360.276184 
	C1223.123047,367.897736 1230.112183,376.287811 1231.265015,388.319122 
	C1232.746216,403.776886 1225.262817,415.826416 1211.862305,418.895660 
	C1194.841919,422.794006 1181.151611,415.833710 1175.763672,400.544006 
	C1175.597656,400.072968 1175.419800,399.606049 1175.148926,398.743164 
z"/>
<path fill="#FBFCFC" opacity="1.000000" stroke="none" 
	d="
M860.039429,353.991730 
	C860.860474,353.991730 861.193420,353.991730 861.526428,353.991730 
	C872.026123,353.991730 871.883728,353.992371 871.930237,364.327026 
	C871.944885,367.581573 871.078308,368.764954 867.768921,368.580444 
	C863.453613,368.339844 859.113037,368.592133 854.786377,368.496948 
	C852.444458,368.445435 851.083984,368.864014 851.125916,371.736176 
	C851.269104,381.557220 851.255676,391.382568 851.130676,401.204102 
	C851.097534,403.808380 852.283325,404.209015 854.454163,404.180695 
	C860.779785,404.098083 867.110657,404.274078 873.432495,404.098419 
	C876.273804,404.019440 877.550293,404.533691 877.610718,407.833954 
	C877.800110,418.181549 877.954956,418.178772 867.635803,418.178741 
	C856.813721,418.178711 845.990173,418.079285 835.170532,418.241821 
	C832.103821,418.287872 830.892090,417.726898 830.906616,414.243988 
	C831.048279,380.279938 831.031555,346.314880 830.924072,312.350555 
	C830.914429,309.297333 831.701111,308.369324 834.803223,308.409363 
	C847.621094,308.574860 860.443237,308.561829 873.261658,308.417175 
	C876.257446,308.383392 877.238708,309.157867 877.263123,312.303345 
	C877.345032,322.847900 877.483887,322.846405 867.011108,322.846985 
	C862.682312,322.847229 858.351807,322.921112 854.025391,322.820770 
	C851.878723,322.770966 851.123230,323.567963 851.145508,325.725281 
	C851.233093,334.215515 851.240356,342.707947 851.140930,351.197937 
	C851.114929,353.420166 851.953735,354.151245 854.058533,354.014435 
	C855.882263,353.895935 857.719910,353.991028 860.039429,353.991730 
z"/>
<path fill="#FCFCFD" opacity="1.000000" stroke="none" 
	d="
M825.856689,172.820953 
	C825.914795,175.455582 827.549133,174.960083 828.774902,174.974915 
	C832.607300,175.021271 836.440674,174.992584 840.273621,174.992966 
	C840.773560,174.993011 841.291138,175.078461 841.770752,174.979721 
	C846.473083,174.011856 846.980896,177.165054 846.030396,180.160553 
	C845.051331,183.245880 850.073975,189.282486 841.992920,189.186111 
	C837.660583,189.134445 833.323669,189.282806 828.995667,189.137268 
	C826.629883,189.057693 825.782104,189.842300 825.806274,192.256882 
	C825.906311,202.254929 825.927307,212.255630 825.793884,222.252914 
	C825.758850,224.876022 826.923401,225.219864 829.096619,225.187897 
	C835.594604,225.092300 842.097229,225.255966 848.593140,225.105301 
	C851.129517,225.046478 851.993469,225.716522 852.082092,228.416031 
	C852.435608,239.180664 852.544128,239.177139 841.648987,239.177063 
	C830.983337,239.177002 820.315552,239.060593 809.653259,239.249466 
	C806.565796,239.304153 805.743896,238.436279 805.753906,235.350510 
	C805.864258,201.354065 805.860535,167.356995 805.761292,133.360474 
	C805.752136,130.219193 806.409119,129.016464 809.849670,129.072815 
	C822.511719,129.280197 835.181274,129.277374 847.843506,129.075500 
	C851.320740,129.020050 851.918640,130.318161 851.915283,133.421722 
	C851.903992,143.845032 852.017395,143.742294 841.503235,143.889420 
	C836.403931,143.960770 829.605225,141.661804 826.700745,144.887680 
	C824.177979,147.689682 825.923340,154.370193 825.857422,159.337662 
	C825.799927,163.669815 825.847107,168.003357 825.856689,172.820953 
z"/>
<path fill="#F5F7F9" opacity="1.000000" stroke="none" 
	d="
M479.451752,348.999695 
	C479.451813,336.669739 479.551117,324.838409 479.387817,313.010742 
	C479.342255,309.710968 480.018158,308.299377 483.730377,308.367157 
	C496.056061,308.592072 508.389465,308.540375 520.717468,308.392303 
	C523.918945,308.353851 524.977539,309.223236 524.955688,312.592377 
	C524.891174,322.547241 525.054260,322.437653 515.038635,322.595581 
	C510.115295,322.673187 503.736725,320.456207 500.673553,323.584839 
	C497.844543,326.474335 500.017853,332.781830 499.889984,337.581055 
	C499.770203,342.076538 499.979065,346.581757 499.820801,351.074860 
	C499.735687,353.491730 500.591095,354.256836 502.961121,354.177551 
	C507.454773,354.027283 511.961395,354.254700 516.454163,354.091949 
	C519.046326,353.998077 519.829590,354.876068 519.931519,357.498413 
	C520.361084,368.551941 520.455383,368.548309 509.628845,368.548340 
	C499.864166,368.548370 499.864227,368.548340 499.864197,378.492310 
	C499.864197,390.322235 499.773895,402.153351 499.925690,413.981323 
	C499.964966,417.041290 499.413757,418.529755 495.916168,418.268890 
	C491.773743,417.959961 487.572754,417.958466 483.430634,418.269409 
	C479.933990,418.531952 479.376862,417.053619 479.392853,413.980865 
	C479.504395,392.487610 479.451782,370.993530 479.451752,348.999695 
z"/>
<path fill="#F7F8FA" opacity="1.000000" stroke="none" 
	d="
M706.000000,129.140778 
	C712.826904,129.140869 719.157593,129.268387 725.479126,129.083847 
	C728.362610,128.999664 729.558777,129.605560 729.626953,132.857285 
	C729.864258,144.192825 730.002563,144.189926 718.708191,144.191711 
	C711.860535,144.192795 711.859619,144.192795 711.859497,151.002182 
	C711.859131,178.807312 711.768250,206.613052 711.960510,234.416855 
	C711.988342,238.444519 710.790527,239.549362 706.981567,239.255280 
	C702.034241,238.873306 695.372681,240.846085 692.526306,238.327515 
	C689.265259,235.442078 691.526978,228.646500 691.505859,223.562500 
	C691.402588,198.754761 691.388000,173.945953 691.533569,149.138641 
	C691.555847,145.345184 690.666138,143.464432 686.595642,144.171600 
	C685.787598,144.311981 684.934204,144.191772 684.101746,144.191696 
	C672.818604,144.190643 672.937317,144.192001 673.063599,133.018143 
	C673.098267,129.954788 673.967102,129.018997 677.030151,129.076309 
	C686.517151,129.253784 696.009644,129.140930 706.000000,129.140778 
z"/>
<path fill="#F9FAFB" opacity="1.000000" stroke="none" 
	d="
M709.872681,323.533020 
	C708.056702,323.531708 706.717468,323.616852 705.392761,323.514557 
	C702.110840,323.261078 697.429382,325.075500 695.861572,322.695435 
	C693.712646,319.433197 695.341064,314.639557 695.174927,310.507202 
	C695.096741,308.561157 696.510315,308.484436 697.887390,308.483948 
	C715.044617,308.477600 732.201843,308.478790 749.359070,308.498749 
	C750.328613,308.499878 751.653198,308.466583 751.691101,309.766785 
	C751.812195,313.920135 751.857117,318.084656 751.673828,322.233459 
	C751.603882,323.817352 749.947266,323.489044 748.857483,323.506073 
	C745.360168,323.560852 741.832703,323.812012 738.371155,323.457245 
	C734.450073,323.055359 733.755981,324.643555 733.774231,328.227417 
	C733.916931,356.211395 733.681030,384.198456 734.004639,412.179443 
	C734.066162,417.503174 732.437073,418.806396 727.620728,418.252563 
	C724.497070,417.893402 721.274902,417.942474 718.139954,418.248993 
	C714.594360,418.595642 713.709167,417.343506 713.732910,413.848297 
	C713.891357,390.528778 713.815247,367.207642 713.815063,343.887054 
	C713.815002,338.223480 713.698914,332.556580 713.863281,326.897797 
	C713.941528,324.203613 712.868286,323.256683 709.872681,323.533020 
z"/>
<path fill="#F7F8FA" opacity="1.000000" stroke="none" 
	d="
M1132.147949,418.191681 
	C1123.459229,418.191559 1123.459106,418.191559 1123.459106,410.221985 
	C1123.459106,378.399902 1123.458496,346.577850 1123.459473,314.755768 
	C1123.459717,308.461456 1123.462646,308.460968 1129.993652,308.459351 
	C1133.325806,308.458527 1136.669312,308.630341 1139.986816,308.410278 
	C1143.054199,308.206787 1143.952881,309.312347 1143.924683,312.374176 
	C1143.782104,327.867371 1143.859253,343.362610 1143.859497,358.857117 
	C1143.859619,372.685547 1143.959106,386.515228 1143.784180,400.341461 
	C1143.744385,403.479065 1144.672363,404.317383 1147.716431,404.208740 
	C1154.039429,403.983032 1160.379517,404.260651 1166.705688,404.085663 
	C1169.379883,404.011658 1170.004517,404.954071 1170.083008,407.507385 
	C1170.412231,418.194458 1170.502686,418.191681 1160.114868,418.191681 
	C1150.951416,418.191681 1141.788086,418.191681 1132.147949,418.191681 
z"/>
<path fill="#FEFEFE" opacity="1.000000" stroke="none" 
	d="
M1072.998413,226.987000 
	C1072.998413,195.663284 1073.071533,164.836273 1072.906982,134.010544 
	C1072.886108,130.103989 1073.847900,128.647461 1077.829468,129.110565 
	C1082.735840,129.681244 1089.329468,127.020134 1092.155396,130.178085 
	C1094.595581,132.905014 1092.980103,139.350677 1092.985229,144.152557 
	C1093.017578,174.312622 1092.925903,204.473145 1093.097046,234.632263 
	C1093.118530,238.414978 1092.146362,239.603760 1088.416748,239.241699 
	C1084.950195,238.905182 1081.407471,238.949570 1077.930908,239.230103 
	C1074.242554,239.527725 1072.325439,238.659042 1072.938721,234.473831 
	C1073.273438,232.190063 1072.998413,229.816940 1072.998413,226.987000 
z"/>
<path fill="#1A486A" opacity="1.000000" stroke="none" 
	d="
M643.890076,725.065918 
	C634.714539,721.859558 625.604065,719.936279 616.160645,717.842590 
	C623.739197,700.507874 633.878052,685.229736 646.926636,671.982483 
	C680.866333,637.526245 722.196350,620.540710 770.368774,624.295532 
	C831.042908,629.024841 874.811035,660.180237 902.237366,714.458191 
	C903.870728,717.690735 902.654724,718.243286 899.867126,718.842346 
	C837.199951,732.310303 791.358826,767.799072 761.767822,824.511414 
	C761.385071,825.244934 760.994690,825.980164 760.531616,826.662842 
	C760.373047,826.896667 759.980896,826.971985 759.555054,827.192444 
	C734.771423,777.782227 696.581116,743.482788 643.890076,725.065918 
z"/>
<path fill="#1A486A" opacity="1.000000" stroke="none" 
	d="
M518.980103,767.931519 
	C532.324646,761.984253 545.976624,758.553406 559.968750,756.216125 
	C563.681702,755.595825 564.456116,756.586792 564.075928,760.217529 
	C560.705688,792.406311 564.907471,823.586243 576.904541,853.686340 
	C587.283813,879.727539 602.660339,902.419434 622.660095,922.007629 
	C623.810059,923.133911 625.292236,923.921021 626.319092,925.436768 
	C594.410339,930.251465 565.360657,940.913147 539.109802,958.850586 
	C512.802490,976.826538 492.021332,999.847717 476.446930,1028.007324 
	C468.441833,1021.399231 461.886414,1013.684387 455.798889,1005.567932 
	C396.111084,925.986389 425.090393,811.378784 515.455872,769.527161 
	C516.511475,769.038208 517.565002,768.544800 518.980103,767.931519 
z"/>
<path fill="#19486A" opacity="1.000000" stroke="none" 
	d="
M722.618652,1260.662842 
	C661.484985,1292.553101 590.584351,1281.180298 543.762146,1237.296387 
	C502.361084,1198.493408 486.574890,1150.376465 495.097229,1094.292236 
	C495.318634,1092.835205 495.837830,1091.423462 496.317627,1089.615967 
	C525.110535,1103.139526 555.205566,1109.699097 586.843018,1108.841309 
	C618.302673,1107.988159 647.867004,1099.970703 676.134766,1084.731445 
	C674.773376,1095.222656 673.320679,1105.051270 673.144897,1114.995605 
	C672.215027,1167.605957 689.336792,1213.504883 724.333252,1252.757080 
	C728.517761,1257.450317 728.569153,1257.404541 722.618652,1260.662842 
z"/>
<path fill="#1A486A" opacity="1.000000" stroke="none" 
	d="
M1094.385498,894.708862 
	C1098.973755,946.096069 1082.904297,989.433716 1046.562378,1025.371094 
	C1043.571411,1028.328735 1043.017334,1026.131836 1041.794678,1024.026611 
	C1013.657288,975.577454 972.573608,943.994263 918.425903,929.494507 
	C914.576782,928.463745 910.643005,927.734741 906.729614,926.961792 
	C902.892395,926.203918 899.030823,925.569214 894.444214,924.748840 
	C904.736938,914.714478 913.811646,904.572388 921.531738,893.317139 
	C949.058472,853.185425 960.558655,808.872192 955.760193,760.430908 
	C955.362549,756.416443 956.225098,755.656494 960.080994,756.277222 
	C1026.169800,766.916870 1076.032471,812.680481 1091.367554,877.059509 
	C1092.712524,882.706543 1093.349243,888.522278 1094.385498,894.708862 
z"/>
<path fill="#19486A" opacity="1.000000" stroke="none" 
	d="
M1007.132996,1197.069336 
	C981.607300,1240.299805 944.628601,1266.825928 895.421326,1275.338379 
	C860.643738,1281.354614 827.548950,1275.350952 796.297363,1258.963623 
	C793.475586,1257.483887 793.132751,1256.567017 795.427307,1254.042480 
	C820.413452,1226.552368 836.407104,1194.540405 843.375854,1158.018433 
	C847.825195,1134.699951 847.772156,1111.371094 843.895752,1088.002441 
	C843.765076,1087.214355 843.639465,1086.425415 843.380188,1084.828613 
	C846.147766,1086.147827 848.294617,1087.166138 850.437012,1088.193481 
	C906.238647,1114.951782 962.559570,1116.004517 1019.295044,1091.377808 
	C1023.346130,1089.619385 1024.394409,1090.041016 1025.084106,1094.458862 
	C1030.725952,1130.598511 1024.927002,1164.682617 1007.132996,1197.069336 
z"/>
<path fill="#1A496B" opacity="1.000000" stroke="none" 
	d="
M1007.800781,1045.345215 
	C1011.265686,1049.690552 1010.034119,1051.717773 1005.475464,1053.914551 
	C930.580688,1090.006470 837.889587,1059.182495 799.631287,985.449036 
	C797.739441,981.802856 798.451294,980.605774 801.842529,978.997803 
	C878.026611,942.874817 964.960815,970.722229 1007.800781,1045.345215 
z"/>
<path fill="#1A496B" opacity="1.000000" stroke="none" 
	d="
M720.811401,1169.138428 
	C703.386902,1110.467651 715.368652,1058.726318 755.357056,1013.177917 
	C758.118591,1010.032532 759.750732,1009.608337 762.972717,1012.972595 
	C820.804260,1073.356323 821.529907,1167.618896 764.598877,1228.902832 
	C761.495605,1232.243164 759.770020,1232.278442 756.634338,1228.923340 
	C740.481812,1211.639282 728.380432,1191.994629 720.811401,1169.138428 
z"/>
<path fill="#1A496B" opacity="1.000000" stroke="none" 
	d="
M579.055298,1068.998779 
	C555.419312,1068.531128 533.520691,1062.963745 512.654968,1053.025146 
	C510.050903,1051.784790 509.751312,1050.622559 511.125641,1048.173828 
	C535.983582,1003.878357 573.042175,976.220459 623.141785,967.070068 
	C655.849792,961.096130 687.367981,965.898071 717.487305,980.095154 
	C721.152344,981.822632 721.532166,983.253052 719.542175,986.650879 
	C688.189331,1040.184082 641.747559,1067.965210 579.055298,1068.998779 
z"/>
<path fill="#1A496B" opacity="1.000000" stroke="none" 
	d="
M737.083984,890.030762 
	C739.136108,904.395996 739.124023,918.298157 737.195312,932.248535 
	C736.752136,935.454224 735.934631,935.830750 732.872925,935.333252 
	C672.367554,925.500183 620.591858,876.761230 606.993958,816.713013 
	C603.027222,799.196045 601.707825,781.558716 603.933594,763.680664 
	C604.796387,756.750183 604.635559,756.730225 611.446167,757.957397 
	C675.778625,769.548950 728.425537,824.735168 737.083984,890.030762 
z"/>
<path fill="#1A496B" opacity="1.000000" stroke="none" 
	d="
M892.037842,762.015137 
	C898.002319,760.229187 903.783081,759.273193 909.336243,757.652832 
	C914.650269,756.102234 915.394958,758.285034 915.911255,762.622559 
	C918.672485,785.823303 916.760803,808.656921 908.767700,830.539062 
	C887.767944,888.028320 847.000183,922.932617 786.989929,935.346680 
	C783.830566,936.000244 783.080017,935.335449 782.699524,932.232239 
	C776.575134,882.276306 791.336853,839.212708 825.686951,802.817139 
	C843.976562,783.438354 866.283325,770.204773 892.037842,762.015137 
z"/>
<path fill="#235070" opacity="1.000000" stroke="none" 
	d="
M899.006470,170.819855 
	C894.580811,176.367157 888.610901,176.016068 882.783203,176.177994 
	C880.576355,176.239319 880.481750,174.833817 880.484070,173.222137 
	C880.496826,164.224213 880.544800,155.225693 880.453979,146.228653 
	C880.429688,143.816391 881.365173,143.219925 883.686218,143.098633 
	C898.115112,142.344711 904.820679,151.582962 900.710938,166.809814 
	C900.368408,168.079025 899.706665,169.262100 899.006470,170.819855 
z"/>
<path fill="#1A496B" opacity="1.000000" stroke="none" 
	d="
M1023.286255,401.265839 
	C1018.960205,405.363525 1014.204285,405.472839 1009.549377,403.378113 
	C1004.754639,401.220428 1004.102417,396.407715 1004.068848,391.873535 
	C1003.929138,373.044708 1004.002197,354.214203 1004.020630,335.384338 
	C1004.021973,334.057556 1004.077576,332.703735 1004.337830,331.408691 
	C1005.904724,323.612030 1012.974182,319.859711 1020.195312,323.186005 
	C1025.640503,325.694183 1026.079712,330.913788 1026.108032,335.973022 
	C1026.209595,354.135773 1026.151489,372.299438 1026.144043,390.462738 
	C1026.143799,391.293915 1026.050049,392.124969 1026.001343,392.956177 
	C1025.832642,395.823883 1025.175781,398.542328 1023.286255,401.265839 
z"/>
<path fill="#1A496B" opacity="1.000000" stroke="none" 
	d="
M549.845032,346.004303 
	C549.911865,341.012878 549.702209,336.494934 550.111572,332.033813 
	C550.695862,325.666901 554.032776,322.565643 559.962280,322.187256 
	C566.229431,321.787354 569.957214,324.540588 571.350037,330.854156 
	C571.810669,332.942291 571.960632,335.135559 571.966492,337.281525 
	C572.013916,354.594757 571.992249,371.908203 571.994019,389.221558 
	C571.994263,391.721832 571.870056,394.185699 571.165283,396.628845 
	C569.562561,402.184052 566.360657,404.715759 560.716064,404.684021 
	C555.169495,404.652832 551.722229,401.993011 550.458008,396.388245 
	C549.952026,394.144775 549.878296,391.769684 549.870178,389.453583 
	C549.820190,375.136932 549.845032,360.820007 549.845032,346.004303 
z"/>
<path fill="#1A496B" opacity="1.000000" stroke="none" 
	d="
M643.705627,333.704468 
	C643.847351,335.951813 644.006958,337.776154 643.980957,339.597839 
	C643.811401,351.504028 636.881592,357.125061 625.042969,355.212250 
	C623.176636,354.910706 622.993652,354.074402 622.997009,352.614777 
	C623.018250,343.482758 622.997070,334.350586 623.021790,325.218567 
	C623.024719,324.135895 622.791931,323.067047 624.429688,322.531189 
	C632.719971,319.818420 641.337646,324.573792 643.705627,333.704468 
z"/>
<path fill="#1A496B" opacity="1.000000" stroke="none" 
	d="
M629.002441,166.964645 
	C629.002747,159.828308 629.097717,153.186172 628.954956,146.549179 
	C628.900696,144.024673 629.552063,142.911087 632.271484,143.136124 
	C638.001892,143.610336 644.572021,142.676376 647.665283,148.931122 
	C651.127197,155.931168 651.031677,163.472443 647.430969,170.512619 
	C645.192383,174.889450 635.312378,177.751480 630.359985,176.150360 
	C629.046326,175.725647 629.023804,174.918015 629.014404,173.934906 
	C628.993835,171.777069 629.004578,169.618927 629.002441,166.964645 
z"/>
<path fill="#235070" opacity="1.000000" stroke="none" 
	d="
M1080.022461,361.954407 
	C1081.376221,353.688171 1082.693115,345.859070 1084.010010,338.029999 
	C1084.243164,338.050415 1084.476318,338.070831 1084.709473,338.091248 
	C1086.783691,350.647980 1088.773682,363.219604 1090.986938,375.751831 
	C1091.601074,379.229828 1090.416138,379.931122 1087.166382,379.923096 
	C1077.122070,379.898376 1077.126343,380.026001 1078.741821,370.271667 
	C1079.176147,367.648254 1079.572021,365.018463 1080.022461,361.954407 
z"/>
<path fill="#235070" opacity="1.000000" stroke="none" 
	d="
M574.386230,192.412766 
	C575.806763,200.531311 575.806763,200.531296 568.016357,200.527023 
	C561.137329,200.523254 561.231689,200.539429 562.403870,193.690079 
	C564.393250,182.066025 566.250244,170.419327 568.895081,158.689148 
	C570.693604,169.792770 572.492065,180.896393 574.386230,192.412766 
z"/>
<path fill="#1A496B" opacity="1.000000" stroke="none" 
	d="
M1147.148193,161.839478 
	C1147.276123,175.558243 1139.712280,176.249451 1128.656250,175.993240 
	C1126.534058,175.944077 1126.866333,174.467575 1126.863647,173.199295 
	C1126.844849,164.408020 1126.889771,155.616455 1126.825806,146.825607 
	C1126.811523,144.863312 1127.202759,143.981964 1129.499023,143.784012 
	C1143.556519,142.572205 1147.144287,145.765305 1147.148560,159.881714 
	C1147.148804,160.379333 1147.148560,160.876953 1147.148193,161.839478 
z"/>
<path fill="#1A496B" opacity="1.000000" stroke="none" 
	d="
M517.266052,146.764496 
	C521.574951,154.648560 520.973145,162.581192 518.520386,170.299591 
	C516.975159,175.162064 512.064026,175.570496 507.696198,175.907761 
	C499.856476,176.513092 499.851135,176.447449 499.851227,168.728653 
	C499.851318,161.564346 499.946838,154.398132 499.801544,147.236786 
	C499.750031,144.696198 500.393188,143.607605 503.119690,143.810410 
	C507.863739,144.163239 512.870117,142.960464 517.266052,146.764496 
z"/>
</svg>