<svg version="1.1" id="Layer_1" xmlns="http://www.w3.org/2000/svg" xmlns:xlink="http://www.w3.org/1999/xlink" x="0px" y="0px"
	 width="100%" viewBox="0 0 1500 1500" enable-background="new 0 0 1500 1500" xml:space="preserve">
<path fill="#0A97D9" opacity="1.000000" stroke="none" 
	d="
M1501.000000,572.000000 
	C1501.000000,880.307739 1500.991333,1188.115479 1501.095337,1495.923218 
	C1501.096680,1499.948486 1500.516113,1501.127808 1496.077637,1501.126587 
	C999.285583,1500.992065 502.493591,1500.993042 5.701581,1501.116211 
	C1.545315,1501.117310 0.895572,1500.155884 0.896442,1496.202393 
	C1.005804,999.410339 1.005494,502.618317 0.900515,5.826296 
	C0.899692,1.932440 1.455528,0.879038 5.672966,0.880117 
	C502.464935,1.007176 999.256958,1.007493 1496.048950,0.878924 
	C1500.410156,0.877795 1501.104614,1.946789 1501.102051,6.048234 
	C1500.984497,194.532104 1501.000000,383.016052 1501.000000,572.000000 
z"/>
<path fill="#FFFFFF" opacity="1.000000" stroke="none" 
	d="
M897.882935,921.073242 
	C974.739380,937.064392 1037.794678,977.196228 1094.073608,1029.503052 
	C1115.951172,1049.836304 1136.008911,1071.858643 1154.140747,1095.613037 
	C1158.573730,1101.420654 1158.653442,1101.966919 1154.201538,1107.672607 
	C1106.978638,1168.193359 1051.029785,1218.467773 982.030151,1253.144043 
	C936.570435,1275.990234 888.458679,1288.557861 837.326660,1287.771484 
	C802.401978,1287.234497 768.677368,1279.785889 735.735596,1268.539551 
	C677.789124,1248.756470 624.977539,1219.124390 574.812988,1184.443359 
	C561.382690,1175.158325 548.193604,1165.529907 535.649658,1155.079590 
	C532.354736,1152.334595 531.492493,1153.337524 529.704468,1156.473633 
	C505.519348,1198.891235 473.795441,1234.235107 431.677856,1259.575806 
	C406.955994,1274.449707 380.149384,1283.462646 351.457916,1286.764160 
	C350.136169,1286.916382 348.795410,1286.900757 347.472198,1287.043701 
	C345.191345,1287.290039 343.138977,1287.020142 341.780029,1284.875977 
	C340.285309,1282.517578 341.227753,1280.480225 342.493927,1278.383667 
	C351.445618,1263.561523 359.491638,1248.255981 366.625275,1232.481201 
	C381.432068,1199.738525 392.721313,1165.954346 397.377411,1130.130737 
	C401.631683,1097.398926 398.054962,1065.363403 389.504242,1033.725098 
	C379.546234,996.879883 364.170532,962.326233 345.025360,929.388611 
	C344.189362,927.950378 343.284302,926.550598 342.492615,925.088867 
	C341.376892,923.028870 340.115662,920.929749 341.847168,918.595398 
	C343.541687,916.310913 345.908478,916.024902 348.549072,916.295715 
	C368.208801,918.311951 387.213898,922.907227 405.444885,930.597351 
	C447.413940,948.300537 480.265625,977.296997 507.624298,1013.094299 
	C515.825195,1023.824768 523.345886,1035.018799 529.721008,1046.924072 
	C531.492249,1050.231812 532.392395,1050.802490 535.660095,1048.220215 
	C591.991577,1003.704956 652.566284,966.368958 719.816406,940.537231 
	C752.583740,927.950806 786.310303,919.085144 821.426819,916.362915 
	C846.960632,914.383484 872.319946,916.124451 897.882935,921.073242 
z"/>
<path fill="#FEFEFF" opacity="1.000000" stroke="none" 
	d="
M741.588257,597.292480 
	C745.487549,594.481018 747.988159,596.527283 750.590210,598.950867 
	C767.392700,614.600891 786.411865,626.523682 808.579468,633.051331 
	C841.464417,642.734985 873.504211,638.767029 904.906677,626.664490 
	C923.949768,619.325317 941.722290,609.563965 957.768127,596.865051 
	C961.284607,594.082031 963.684448,595.375732 966.405640,597.961426 
	C983.670410,614.366516 1003.313049,626.962891 1026.190430,633.956421 
	C1066.332520,646.227722 1104.818237,640.305786 1142.106445,622.701965 
	C1148.575806,619.647827 1151.130493,621.091003 1151.158936,628.110352 
	C1151.199463,638.110168 1151.034668,648.113037 1151.241333,658.108765 
	C1151.314575,661.653503 1150.011719,663.986084 1147.372314,666.179993 
	C1125.348511,684.486694 1100.605957,696.229736 1071.538574,696.698853 
	C1049.414551,697.055908 1028.861084,690.701721 1009.497498,680.224426 
	C995.643494,672.728394 983.066772,663.473694 971.587036,652.724121 
	C965.546814,647.068115 965.322388,647.000916 959.054321,652.764771 
	C941.030090,669.338928 920.756470,682.127563 897.040405,688.832642 
	C864.269409,698.097778 832.437866,694.110779 801.356567,681.349426 
	C782.436340,673.581238 765.035767,663.210083 749.336243,650.104431 
	C746.065308,647.373901 743.930115,647.766846 740.780212,650.294678 
	C714.246582,671.588379 684.793213,686.763794 650.844666,692.106384 
	C612.797852,698.093994 578.584778,688.555176 547.624451,666.203064 
	C541.404785,661.712646 535.502380,656.833191 529.936340,651.546265 
	C525.612000,647.438721 524.068420,647.600403 519.559875,651.833435 
	C496.663696,673.330017 470.709320,689.316528 439.356384,694.943787 
	C408.557098,700.471680 380.607605,692.836670 355.081390,675.357849 
	C338.951691,664.313232 338.997284,664.246582 338.997375,644.932617 
	C338.997406,639.099304 338.933380,633.265076 339.016083,627.432922 
	C339.100220,621.499878 342.063660,619.696838 347.416260,622.328430 
	C370.926178,633.887024 395.720001,640.413269 421.956818,640.410767 
	C453.800323,640.407654 482.408081,630.324524 507.927948,611.359497 
	C513.414795,607.281921 518.788940,603.042358 523.585327,598.172363 
	C526.851807,594.855774 529.360596,594.626282 533.384583,597.602173 
	C565.657043,621.469238 601.148560,637.335266 641.912048,638.376587 
	C675.426025,639.232666 704.868652,627.724915 730.743042,606.713989 
	C734.360901,603.776123 737.780579,600.594177 741.588257,597.292480 
z"/>
<path fill="#FEFEFF" opacity="1.000000" stroke="none" 
	d="
M979.243469,733.777100 
	C1007.588623,755.678345 1039.241211,766.435547 1074.791626,764.961182 
	C1098.397339,763.982178 1120.700439,757.751892 1141.945801,747.527283 
	C1148.636230,744.307495 1151.142700,745.907410 1151.162354,753.283203 
	C1151.189087,763.281311 1151.066895,773.281128 1151.228516,783.276672 
	C1151.279297,786.418823 1150.198608,788.538330 1147.817017,790.523621 
	C1125.705566,808.954712 1100.953369,820.919495 1071.639526,821.414551 
	C1049.111206,821.794983 1028.287720,815.315491 1008.709778,804.579773 
	C994.921387,797.018799 982.304871,787.789062 970.991760,776.831909 
	C966.016663,772.013367 965.033264,771.946106 959.932617,776.698853 
	C940.358337,794.937988 918.180298,808.611755 891.938110,814.888184 
	C859.404541,822.669312 828.141174,817.732361 797.867065,804.645813 
	C780.354675,797.075684 764.134888,787.263245 749.483398,775.018677 
	C746.280151,772.341614 744.158447,772.339172 740.909607,774.959839 
	C715.652466,795.333130 687.586365,810.033203 655.429626,816.036072 
	C614.172241,823.737976 577.250671,813.611267 544.165283,788.380554 
	C539.273621,784.650208 534.674255,780.522827 530.071899,776.430359 
	C525.178955,772.079346 524.293335,772.120422 519.374817,776.758789 
	C498.826355,796.137024 475.567017,811.002747 447.919891,817.898743 
	C410.042725,827.346497 376.636993,817.372375 346.376160,793.857910 
	C341.013855,789.691101 338.331787,785.429016 338.845917,778.447083 
	C339.480499,769.828735 338.950073,761.127747 339.014282,752.463196 
	C339.060455,746.231628 341.976746,744.446899 347.674133,747.198364 
	C371.865753,758.881470 397.221588,765.425232 424.242737,765.017273 
	C458.611664,764.498413 488.493591,752.246643 514.846741,730.671753 
	C518.193420,727.931763 521.391907,725.001343 524.546814,722.039551 
	C527.152588,719.593323 529.495300,719.416016 532.464844,721.664307 
	C561.682922,743.785400 593.996216,758.762512 630.762085,762.492676 
	C669.260071,766.398621 703.004333,754.565186 732.554260,730.019165 
	C734.986755,727.998535 737.331665,725.869873 739.672729,723.742371 
	C744.150696,719.672852 746.102051,719.640198 750.658020,723.843872 
	C764.487000,736.603882 779.811462,747.058533 797.388000,753.974731 
	C832.521973,767.799316 867.482971,765.267944 902.206909,752.443420 
	C922.310242,745.018799 940.970337,734.863831 957.850464,721.587708 
	C960.806091,719.263062 963.150330,719.731323 965.762695,722.105286 
	C970.072021,726.021484 974.554199,729.747437 979.243469,733.777100 
z"/>
<path fill="#FDFEFF" opacity="1.000000" stroke="none" 
	d="
M210.068665,297.015594 
	C233.247726,242.482971 256.334717,188.326157 279.268066,134.104355 
	C280.712830,130.688446 282.344696,129.344055 286.150421,129.391586 
	C303.313721,129.605957 320.482941,129.619476 337.645782,129.388412 
	C341.797058,129.332520 342.941040,130.477493 342.930878,134.644531 
	C342.795654,190.141876 342.907593,245.639893 342.722412,301.136932 
	C342.706360,305.941498 343.810059,307.471649 348.692657,307.109283 
	C354.991028,306.641815 361.352478,307.091064 367.682373,306.949982 
	C370.286896,306.891968 371.610474,307.357819 371.570282,310.422485 
	C371.419434,321.920013 371.433960,333.421600 371.564575,344.919617 
	C371.597870,347.849823 370.458008,348.612488 367.737213,348.557831 
	C360.906952,348.420746 354.065674,348.691528 347.241669,348.444275 
	C343.734131,348.317200 342.739044,349.454468 342.766968,352.938354 
	C342.921936,372.269623 342.662323,391.605591 342.966522,410.933319 
	C343.042297,415.747864 341.440338,416.690704 337.065735,416.606293 
	C323.904541,416.352478 310.732758,416.372253 297.570709,416.603607 
	C293.772827,416.670319 292.870117,415.529449 292.906250,411.830109 
	C293.096558,392.332794 292.869263,372.831146 293.097504,353.334625 
	C293.145355,349.249725 291.801025,348.419342 288.041077,348.440979 
	C263.042969,348.585175 238.043579,348.535248 213.044678,348.502716 
	C205.677307,348.493134 206.528671,349.300568 206.494843,341.703217 
	C206.453293,332.370453 206.706955,323.030151 206.403809,313.707062 
	C206.214142,307.873901 207.180969,302.478699 210.068665,297.015594 
z"/>
<path fill="#FDFEFF" opacity="1.000000" stroke="none" 
	d="
M182.839386,197.000092 
	C182.839371,268.660309 182.783249,339.820679 182.962219,410.980408 
	C182.974503,415.864288 181.312820,416.663879 177.024704,416.597992 
	C162.529434,416.375275 148.025284,416.338379 133.531937,416.616669 
	C129.030396,416.703125 127.709167,415.560486 127.719261,410.892944 
	C127.876060,338.399841 127.828888,265.906342 127.828865,193.412918 
	C127.828865,191.433853 127.828857,189.454803 127.828857,186.859467 
	C121.212875,189.332230 115.060394,191.682678 108.870827,193.931076 
	C102.465698,196.257767 96.009094,198.442978 89.607674,200.779602 
	C87.393082,201.587936 86.050667,201.978714 86.098495,198.648163 
	C86.263596,187.151581 86.296204,175.648590 86.075180,164.153870 
	C86.013771,160.960175 87.917778,160.348129 90.075363,159.405319 
	C104.743164,152.995850 119.431084,146.309265 131.763107,136.085175 
	C138.266769,130.693192 144.598267,128.980804 152.520081,129.388443 
	C160.996857,129.824646 169.521057,129.699173 178.009399,129.395508 
	C182.083237,129.249771 182.953049,130.698837 182.921234,134.506805 
	C182.748550,155.170013 182.839325,175.835434 182.839386,197.000092 
z"/>
<path fill="#FAFDFE" opacity="1.000000" stroke="none" 
	d="
M782.065918,349.754700 
	C783.518494,358.208893 784.913818,366.232300 786.526123,375.503204 
	C788.476257,370.810822 788.369019,366.867218 788.862976,363.122162 
	C791.082153,346.296600 793.146240,329.450104 795.169678,312.599579 
	C795.523499,309.653503 796.497437,308.400391 799.815552,308.378357 
	C812.484375,308.294098 812.639709,308.173798 810.884277,320.695404 
	C806.565247,351.501282 802.000977,382.273041 797.776611,413.091583 
	C797.195618,417.330261 795.680603,418.403351 791.546021,418.289703 
	C780.564392,417.987793 780.631714,418.188690 778.877747,407.691010 
	C775.592773,388.030060 772.213867,368.384827 768.059937,348.719238 
	C766.072021,360.307068 764.059570,371.890808 762.103333,383.483978 
	C760.359863,393.815887 759.107544,404.253845 756.832458,414.465424 
	C755.056641,422.436218 748.220764,416.575653 743.935669,418.061066 
	C741.448303,418.923279 739.439880,418.120575 738.941284,414.518585 
	C734.219055,380.407318 729.309814,346.321716 724.342407,312.245056 
	C723.929443,309.412262 724.414795,308.198364 727.453552,308.443573 
	C729.604675,308.617096 731.781250,308.473206 733.946472,308.473419 
	C741.188721,308.474213 741.072937,308.488922 741.997009,315.957336 
	C744.358459,335.043091 746.833191,354.114807 749.774231,373.231750 
	C752.256958,366.936462 752.776611,360.272858 753.918274,353.765106 
	C756.360718,339.842621 758.694580,325.898804 760.830261,311.926605 
	C761.267029,309.068970 762.459473,308.498596 765.025085,308.423340 
	C775.036255,308.129639 775.071167,308.046692 776.745361,317.827942 
	C778.541199,328.319519 780.257629,338.824707 782.065918,349.754700 
z"/>
<path fill="#FAFDFE" opacity="1.000000" stroke="none" 
	d="
M904.324097,350.495300 
	C905.734985,358.541504 907.058228,366.160950 908.381409,373.780396 
	C908.770264,373.790924 909.159058,373.801453 909.547852,373.811981 
	C910.360962,367.709229 911.208435,361.610840 911.980225,355.502869 
	C913.753601,341.469116 915.596008,327.442535 917.173401,313.386475 
	C917.614685,309.454315 919.099609,308.265137 923.115723,308.361206 
	C934.417664,308.631409 934.604126,308.447479 933.023682,319.854523 
	C928.685364,351.167603 924.133118,382.451050 919.805847,413.765594 
	C919.319153,417.287842 918.019531,418.331299 914.434998,418.279388 
	C902.731384,418.109894 902.781982,418.266876 900.904907,406.925446 
	C897.917114,388.873474 894.856140,370.833618 891.805603,352.792114 
	C891.587280,351.501007 891.201782,350.238159 890.142212,348.914886 
	C888.442566,358.906708 886.735168,368.897247 885.045288,378.890778 
	C883.020203,390.867065 880.929199,402.833282 879.059753,414.833923 
	C878.670715,417.331146 877.757935,418.107147 875.274841,418.235870 
	C861.635803,418.942963 861.790771,418.986420 859.877686,405.266602 
	C855.580505,374.448547 851.198181,343.641632 846.618652,312.864685 
	C846.054260,309.071686 846.988342,308.408081 850.491211,308.400116 
	C863.262695,308.371094 863.234314,308.261627 864.850830,321.352966 
	C866.910706,338.034241 869.021179,354.709290 871.113281,371.386597 
	C871.213989,372.189148 871.193298,373.054932 872.630798,373.886078 
	C874.074036,365.491028 875.507935,357.334900 876.872986,349.167236 
	C878.929993,336.859894 881.055969,324.561859 882.884583,312.220154 
	C883.334167,309.185730 884.560181,308.462097 887.389282,308.414581 
	C897.383789,308.246826 897.346436,308.157135 898.946411,318.065796 
	C900.670044,328.739777 902.469849,339.401489 904.324097,350.495300 
z"/>
<path fill="#F8FCFE" opacity="1.000000" stroke="none" 
	d="
M486.135406,418.183350 
	C480.631409,419.116089 479.300476,417.134460 479.339783,412.039093 
	C479.591644,379.385559 479.572479,346.728424 479.352997,314.074432 
	C479.321075,309.327576 480.803131,308.170441 485.247101,308.385223 
	C494.887756,308.851227 504.559540,308.060120 514.207092,308.923553 
	C535.320923,310.813202 546.478455,333.688293 535.116272,351.730011 
	C532.767883,355.459015 529.222900,357.442291 524.620117,359.380737 
	C533.158936,362.188812 538.701294,367.254089 540.589478,375.446136 
	C543.008606,385.941559 542.904297,396.381134 537.329651,405.967163 
	C532.345764,414.537354 524.094482,417.849701 514.606201,418.118317 
	C505.283417,418.382202 495.947510,418.180664 486.135406,418.183350 
z"/>
<path fill="#FAFDFE" opacity="1.000000" stroke="none" 
	d="
M653.990601,346.011993 
	C654.048035,341.193237 653.947937,336.887817 654.669373,332.574158 
	C657.443481,315.986572 665.494385,308.504150 682.297668,307.220001 
	C687.143738,306.849640 691.953430,307.305573 696.675293,308.396637 
	C707.905090,310.991455 714.455872,318.570679 715.884460,329.473083 
	C718.809631,351.796844 718.886658,374.323517 715.948181,396.620575 
	C714.072205,410.855377 705.707703,417.493774 691.483032,419.410126 
	C686.110718,420.133850 680.820190,419.801819 675.600891,418.743896 
	C664.215820,416.436127 657.443970,408.651520 654.998474,395.884064 
	C653.636414,388.772949 654.054077,381.621857 654.005981,374.477051 
	C653.943176,365.154846 653.990601,355.831940 653.990601,346.011993 
z"/>
<path fill="#FDFEFF" opacity="1.000000" stroke="none" 
	d="
M1169.004517,338.949341 
	C1168.785400,349.278748 1167.024414,358.406097 1157.358276,363.717682 
	C1154.961426,365.034760 1156.692993,366.721802 1157.057373,368.040863 
	C1161.260498,383.262970 1165.493652,398.478729 1169.961548,413.624542 
	C1171.088013,417.443268 1170.292114,418.606567 1166.340576,418.235687 
	C1163.038330,417.925751 1159.631836,417.801910 1156.364868,418.260437 
	C1151.646240,418.922729 1150.120239,416.680481 1149.116699,412.536530 
	C1145.869263,399.127106 1142.292358,385.797333 1138.826538,372.440979 
	C1137.845581,368.660919 1133.459229,366.598389 1130.116821,368.311157 
	C1128.313477,369.235229 1129.046021,370.938293 1129.040283,372.296661 
	C1128.982544,386.121490 1128.891479,399.948273 1129.084229,413.770660 
	C1129.132324,417.212708 1128.296631,418.525696 1124.701172,418.243042 
	C1120.728149,417.930695 1116.700562,417.989899 1112.717529,418.229797 
	C1109.654419,418.414307 1108.707520,417.418884 1108.759766,414.315002 
	C1108.939331,403.657715 1108.827881,392.995544 1108.827881,382.335236 
	C1108.827881,359.348969 1108.926392,336.361847 1108.734619,313.377197 
	C1108.701294,309.389191 1109.870728,308.256805 1113.756958,308.408630 
	C1122.902588,308.765900 1132.085327,308.364899 1141.214600,308.911560 
	C1160.883057,310.089294 1168.994995,318.917328 1169.004517,338.949341 
z"/>
<path fill="#FBFDFE" opacity="1.000000" stroke="none" 
	d="
M982.498047,334.451447 
	C987.896484,360.939972 993.017761,387.054688 998.540833,413.084137 
	C999.536987,417.779144 998.191040,418.664001 994.110596,418.206299 
	C992.465515,418.021729 990.782471,418.175995 989.116699,418.175964 
	C980.396851,418.175934 980.411621,418.173553 979.064758,409.803406 
	C978.536499,406.520325 977.954529,403.245178 977.346375,399.975861 
	C976.049561,393.005096 976.036072,393.007599 968.730225,393.007385 
	C957.626831,393.007080 957.639526,393.009552 955.501160,404.041656 
	C954.617249,408.602264 955.142761,414.847076 952.363831,417.264984 
	C949.040649,420.156586 942.803528,417.852112 937.844971,418.195282 
	C934.931824,418.396881 933.821289,417.954895 934.557739,414.398224 
	C941.571045,380.528076 948.377930,346.614990 955.151978,312.695831 
	C955.764099,309.630707 956.835327,308.131592 960.299072,308.396942 
	C964.770569,308.739441 969.293213,308.613068 973.783630,308.433594 
	C976.514160,308.324463 977.549316,309.394196 978.014038,312.028503 
	C979.313354,319.394745 980.890808,326.711945 982.498047,334.451447 
z"/>
<path fill="#F6FBFE" opacity="1.000000" stroke="none" 
	d="
M550.459717,347.999634 
	C550.460022,336.001953 550.564636,324.502808 550.396118,313.007629 
	C550.346191,309.605103 551.285095,308.333435 554.874329,308.387085 
	C567.535583,308.576385 580.201965,308.526917 592.864990,308.413452 
	C595.792480,308.387238 596.895508,309.164398 596.938904,312.327118 
	C597.083374,322.859192 597.217834,322.746796 586.546387,322.905518 
	C581.450989,322.981293 574.838440,320.680969 571.683838,323.930603 
	C568.786499,326.915131 570.846680,333.452820 570.925171,338.411438 
	C571.005737,343.493835 568.626709,350.291321 571.991516,353.167328 
	C574.917969,355.668579 581.540344,354.239410 586.479309,353.872711 
	C590.726562,353.557373 591.308105,355.348114 591.259216,358.947540 
	C591.128967,368.538513 591.264404,368.540344 581.524170,368.540405 
	C570.857422,368.540466 570.857422,368.540466 570.857483,379.196289 
	C570.857544,386.028229 571.030701,392.866364 570.784851,399.689453 
	C570.662170,403.094543 571.532043,404.395325 575.158691,404.222687 
	C581.310120,403.929871 587.488342,404.251465 593.649780,404.095795 
	C596.283691,404.029175 596.985840,404.955750 597.081360,407.529175 
	C597.477173,418.192963 597.568604,418.189667 587.012512,418.189606 
	C576.348022,418.189545 565.679016,418.010834 555.021545,418.283630 
	C551.161926,418.382416 550.351135,417.117493 550.378723,413.485748 
	C550.543213,391.824768 550.459839,370.161865 550.459717,347.999634 
z"/>
<path fill="#F7FCFE" opacity="1.000000" stroke="none" 
	d="
M1079.117188,353.982300 
	C1084.105835,353.984772 1088.604614,354.058868 1093.099121,353.954620 
	C1095.161621,353.906799 1096.314941,354.463409 1096.015137,356.731750 
	C1095.993530,356.895386 1096.006836,357.064789 1096.015015,357.230957 
	C1096.575684,368.537598 1096.575806,368.537598 1085.068481,368.537811 
	C1075.538086,368.537994 1075.537964,368.537994 1075.537964,377.910248 
	C1075.537964,385.072113 1075.716431,392.240265 1075.464233,399.393250 
	C1075.337280,402.992432 1076.193115,404.458191 1080.115234,404.233521 
	C1086.091553,403.891235 1092.104736,404.249451 1098.096924,404.099091 
	C1100.821655,404.030731 1101.836060,404.811981 1101.928711,407.723572 
	C1102.261475,418.191498 1102.377930,418.187897 1092.108887,418.187775 
	C1081.282837,418.187653 1070.454834,418.075317 1059.631714,418.254486 
	C1056.338135,418.309021 1055.041870,417.653168 1055.058105,413.957245 
	C1055.205566,380.313751 1055.186035,346.669189 1055.080078,313.025391 
	C1055.069580,309.691925 1055.793091,308.329926 1059.439941,308.387268 
	C1072.094971,308.586365 1084.755615,308.522095 1097.412964,308.417633 
	C1100.060791,308.395782 1101.177124,308.945190 1101.266479,311.941528 
	C1101.591797,322.859406 1101.717773,322.855225 1090.893677,322.855865 
	C1086.896362,322.856110 1082.893555,322.987305 1078.903687,322.815521 
	C1076.227905,322.700317 1075.475952,323.801849 1075.507935,326.314758 
	C1075.611816,334.474609 1075.598511,342.637146 1075.516479,350.797455 
	C1075.493530,353.079681 1076.157349,354.314240 1079.117188,353.982300 
z"/>
<path fill="#FDFEFF" opacity="1.000000" stroke="none" 
	d="
M657.123901,188.383759 
	C651.433594,189.658890 645.936157,189.067825 640.459106,189.115372 
	C637.953979,189.137115 636.915039,189.742371 636.953064,192.464447 
	C637.090454,202.291199 637.100464,212.122498 636.947754,221.948807 
	C636.904114,224.755356 638.077942,225.241577 640.494934,225.196930 
	C646.823059,225.080002 653.157959,225.276688 659.483765,225.108032 
	C662.287659,225.033295 663.163513,225.927002 663.242554,228.775757 
	C663.531006,239.175369 663.641663,239.172409 653.330933,239.172333 
	C642.669312,239.172272 632.005676,239.056625 621.347229,239.240463 
	C618.051147,239.297318 616.729248,238.648285 616.744812,234.947403 
	C616.887207,201.130676 616.855896,167.313065 616.781006,133.495911 
	C616.774414,130.505905 617.217346,129.014633 620.798645,129.075974 
	C633.455566,129.292801 646.119141,129.225815 658.778748,129.110687 
	C661.641357,129.084656 662.865112,129.692642 662.924683,132.929794 
	C663.125427,143.843155 663.264648,143.840347 652.422852,143.840714 
	C648.424744,143.840851 644.421997,143.959305 640.430237,143.800812 
	C637.923401,143.701263 636.896362,144.392059 636.949524,147.117050 
	C637.108459,155.276749 637.090698,163.442932 636.956055,171.603516 
	C636.914185,174.138321 637.552246,175.175354 640.275085,175.049820 
	C644.763367,174.842896 649.273743,175.129547 653.764038,174.945877 
	C656.475769,174.834961 657.782166,175.529602 657.553101,178.503967 
	C657.310608,181.651581 657.406250,184.825256 657.123901,188.383759 
z"/>
<path fill="#F6FBFE" opacity="1.000000" stroke="none" 
	d="
M565.142822,234.649200 
	C565.142700,200.885590 565.219055,167.583694 565.046936,134.283066 
	C565.025208,130.083801 566.216614,128.954620 570.342102,129.047379 
	C582.324585,129.316742 594.318848,129.255997 606.304443,129.069351 
	C609.583374,129.018280 610.675903,129.993652 610.589600,133.265060 
	C610.257751,145.840912 612.214294,143.240845 600.374390,143.528137 
	C597.046204,143.608902 593.699768,143.736649 590.388184,143.488754 
	C586.851746,143.223984 585.302979,144.158936 585.454651,148.107635 
	C585.754822,155.922012 585.618347,163.756958 585.507019,171.581192 
	C585.470764,174.123672 586.256897,175.136017 588.914612,175.029984 
	C593.403137,174.850937 597.907776,175.094055 602.398254,174.941406 
	C604.817322,174.859146 605.443420,175.786377 605.590149,178.103104 
	C606.292297,189.193970 606.363647,189.189438 595.378723,189.189545 
	C585.540527,189.189621 585.540649,189.189636 585.540283,199.238647 
	C585.539917,211.227188 585.455566,223.216736 585.598572,235.203568 
	C585.633545,238.139267 584.983337,239.441620 581.764160,239.250549 
	C577.450195,238.994492 573.094971,238.967880 568.785034,239.255280 
	C565.386230,239.481918 564.786316,237.870316 565.142822,234.649200 
z"/>
<path fill="#FAFDFE" opacity="1.000000" stroke="none" 
	d="
M1012.821350,397.999695 
	C1012.821289,374.699188 1012.715210,351.897614 1012.916321,329.098816 
	C1012.953674,324.863251 1012.062378,322.733673 1007.487549,323.505798 
	C1006.678467,323.642365 1005.826599,323.524902 1004.994446,323.524750 
	C994.200684,323.522736 994.323669,323.523590 994.401245,312.694855 
	C994.424255,309.475952 995.301025,308.378448 998.622925,308.409668 
	C1014.598633,308.559814 1030.577637,308.577728 1046.552734,308.400726 
	C1050.188599,308.360413 1050.941650,309.687164 1050.921509,313.026825 
	C1050.858154,323.521576 1050.986328,323.522369 1040.518066,323.524750 
	C1033.009644,323.526489 1033.009277,323.526459 1033.009277,331.269897 
	C1033.009155,358.564056 1032.905762,385.859009 1033.116699,413.151550 
	C1033.149658,417.426056 1031.915894,418.635468 1027.836182,418.254059 
	C1024.041504,417.899292 1020.177734,418.007690 1016.362976,418.230286 
	C1013.412842,418.402435 1012.686218,417.200134 1012.773254,414.475037 
	C1012.943115,409.154785 1012.821960,403.825256 1012.821350,397.999695 
z"/>
<path fill="#F7FCFE" opacity="1.000000" stroke="none" 
	d="
M510.989349,239.187805 
	C501.504089,239.187286 492.516144,239.114670 483.530579,239.229538 
	C480.775085,239.264755 479.375854,238.872681 479.388245,235.502304 
	C479.513763,201.385345 479.505646,167.267639 479.402008,133.150543 
	C479.391602,129.724258 480.706390,128.909256 483.811188,129.091370 
	C487.625885,129.315140 491.486908,129.407791 495.285034,129.071899 
	C499.200684,128.725616 499.948456,130.321762 499.930786,133.913742 
	C499.794037,161.706284 499.855469,189.499802 499.855682,217.293015 
	C499.855743,225.143997 499.856018,225.143967 507.731842,225.144409 
	C512.558228,225.144684 517.387756,225.249847 522.209656,225.103409 
	C524.807129,225.024536 526.013550,225.530777 526.099548,228.583282 
	C526.398376,239.191620 526.533936,239.187790 515.981079,239.187790 
	C514.483276,239.187790 512.985413,239.187805 510.989349,239.187805 
z"/>
<path fill="#F6FBFE" opacity="1.000000" stroke="none" 
	d="
M608.376404,308.461731 
	C612.663574,308.460663 616.501343,308.635345 620.315247,308.408112 
	C623.600708,308.212372 624.629333,309.423309 624.600037,312.688965 
	C624.462830,327.997498 624.539856,343.307892 624.540344,358.617645 
	C624.540771,372.263275 624.680542,385.911255 624.452576,399.553070 
	C624.388550,403.382507 625.614319,404.393921 629.269958,404.219452 
	C635.247131,403.934265 641.251343,404.265564 647.237061,404.092346 
	C650.121094,404.008850 650.847595,405.104340 650.921326,407.856506 
	C651.198364,418.192169 651.296631,418.189819 640.996094,418.189514 
	C630.013000,418.189209 619.028809,418.099670 608.047668,418.246399 
	C605.087891,418.285919 604.059753,417.559021 604.070740,414.381378 
	C604.188049,380.434082 604.174316,346.486176 604.088928,312.538727 
	C604.081604,309.626160 604.720398,308.026794 608.376404,308.461731 
z"/>
<path fill="#FBFDFE" opacity="1.000000" stroke="none" 
	d="
M533.520020,129.598740 
	C539.054626,129.257477 544.220032,129.296799 549.378174,129.121460 
	C551.928223,129.034775 552.889832,129.867813 552.884644,132.528961 
	C552.817322,167.018631 552.823608,201.508530 552.875366,235.998245 
	C552.878906,238.356857 552.102356,239.273392 549.711304,239.204895 
	C545.382874,239.080887 541.038574,238.997299 536.719482,239.234375 
	C533.662842,239.402145 532.694702,238.432495 532.755737,235.320374 
	C532.945312,225.660278 532.824280,215.994110 532.824219,206.330292 
	C532.824036,182.670609 532.817017,159.010941 532.838074,135.351273 
	C532.839722,133.531036 533.039856,131.710953 533.520020,129.598740 
z"/>
<path fill="#0B97D9" opacity="1.000000" stroke="none" 
	d="
M961.599976,1027.324219 
	C981.052673,1039.059204 990.470398,1058.840088 986.870850,1079.941284 
	C983.451111,1099.988892 967.637390,1116.018066 946.977539,1120.378296 
	C920.559937,1125.953491 893.509216,1107.937866 888.180664,1081.219727 
	C882.733521,1053.906616 900.949402,1026.865601 927.933899,1021.959290 
	C939.711121,1019.817993 950.739563,1021.727844 961.599976,1027.324219 
z"/>
<path fill="#0B97D9" opacity="1.000000" stroke="none" 
	d="
M292.997070,257.000000 
	C292.997009,272.489807 292.852936,287.481964 293.096191,302.467804 
	C293.158478,306.305420 292.024017,307.151703 288.366241,307.085358 
	C275.720978,306.855957 263.068970,306.996948 249.806427,306.996948 
	C263.969666,267.379517 277.983704,228.179367 291.997742,188.979233 
	C292.330872,189.013168 292.663971,189.047104 292.997070,189.081055 
	C292.997070,211.554031 292.997070,234.027023 292.997070,257.000000 
z"/>
<path fill="#0B97D9" opacity="1.000000" stroke="none" 
	d="
M499.849426,375.037628 
	C499.857941,366.961914 499.857941,366.961914 507.599030,367.624420 
	C517.219727,368.447784 521.169312,372.289490 522.188904,381.898712 
	C522.380920,383.708832 522.485352,385.541443 522.451782,387.360352 
	C522.148743,403.758911 513.866882,404.304779 501.979218,403.989960 
	C499.240906,403.917450 499.883179,401.941742 499.874359,400.437775 
	C499.825714,392.136810 499.850098,383.835388 499.849426,375.037628 
z"/>
<path fill="#0D98DA" opacity="1.000000" stroke="none" 
	d="
M504.918640,353.155212 
	C501.282227,353.595215 499.600830,352.858795 499.755920,349.015930 
	C500.058136,341.528351 499.946899,334.017914 499.792328,326.521362 
	C499.735443,323.760986 500.507721,322.407501 503.412109,322.842987 
	C503.575073,322.867432 503.745117,322.850677 503.911560,322.844879 
	C519.814392,322.292480 524.000122,329.977600 519.439758,346.141388 
	C517.537476,352.883667 511.163544,352.963196 504.918640,353.155212 
z"/>
<path fill="#0D98DA" opacity="1.000000" stroke="none" 
	d="
M677.354492,325.488220 
	C686.451538,318.816498 694.989990,322.221069 696.582581,332.796875 
	C696.853210,334.594482 696.818298,336.447296 696.820007,338.274719 
	C696.835876,355.607086 696.872559,372.939606 696.810913,390.271759 
	C696.778992,399.246704 694.142578,403.297668 687.951416,404.362457 
	C680.893616,405.576294 676.200562,402.338348 675.073486,395.296967 
	C674.680664,392.842560 674.543579,390.324493 674.536682,387.834808 
	C674.491150,371.502502 674.484314,355.169922 674.531860,338.837646 
	C674.544922,334.346100 674.547485,329.807617 677.354492,325.488220 
z"/>
<path fill="#0B97D9" opacity="1.000000" stroke="none" 
	d="
M1129.002808,346.943237 
	C1129.003540,339.634125 1129.090820,332.814453 1128.959595,325.999023 
	C1128.911499,323.501434 1129.572266,322.359436 1132.273682,322.482910 
	C1138.058472,322.747406 1144.616943,321.787476 1147.740479,328.058472 
	C1151.313110,335.231201 1151.265991,342.938019 1147.273926,350.086548 
	C1144.936279,354.272675 1135.353882,356.756012 1130.440063,355.127136 
	C1129.173828,354.707397 1129.032227,353.937073 1129.020752,352.921875 
	C1129.000000,351.092865 1129.007324,349.263550 1129.002808,346.943237 
z"/>
<path fill="#0D98DA" opacity="1.000000" stroke="none" 
	d="
M970.060181,355.861145 
	C971.224487,363.009033 972.199463,369.749847 973.502258,376.426666 
	C974.036011,379.162384 973.338318,379.794739 970.640808,379.895233 
	C959.458313,380.311584 959.432861,380.397400 961.207031,369.501282 
	C962.884644,359.198181 964.631287,348.906342 966.539673,337.456726 
	C968.645813,344.013550 968.845520,349.822144 970.060181,355.861145 
z"/>
</svg>