<svg version="1.1" id="Layer_1" xmlns="http://www.w3.org/2000/svg" xmlns:xlink="http://www.w3.org/1999/xlink" x="0px" y="0px"
	 width="100%" viewBox="0 0 1500 1500" enable-background="new 0 0 1500 1500" xml:space="preserve">
<path fill="#DDA83A" opacity="1.000000" stroke="none" 
	d="
M1501.000000,570.000000 
	C1501.000000,880.640869 1501.000000,1190.781738 1501.000000,1500.961304 
	C1001.067383,1500.961304 501.134735,1500.961304 1.101046,1500.961304 
	C1.101046,1001.108948 1.101046,501.217896 1.101046,1.163408 
	C500.999969,1.163408 1001.000000,1.163408 1501.000000,1.163408 
	C1501.000000,190.532288 1501.000000,380.016144 1501.000000,570.000000 
M441.500031,966.161682 
	C406.000397,966.161987 370.500702,966.129944 335.001160,966.182983 
	C324.793518,966.198242 320.656708,971.144592 322.521118,981.144287 
	C324.045685,989.321228 325.571228,997.521667 327.653778,1005.567383 
	C352.346375,1100.963013 408.038086,1173.984375 489.183502,1228.433594 
	C521.597351,1250.183594 556.682190,1266.544312 593.882935,1278.313721 
	C597.281250,1279.388672 598.230713,1280.971680 598.070496,1284.312744 
	C597.807373,1289.800049 597.920105,1295.310791 598.022766,1300.808960 
	C598.142639,1307.227051 601.797485,1311.008789 608.161682,1311.481323 
	C609.322693,1311.567627 610.493896,1311.528198 611.660400,1311.528198 
	C692.493591,1311.529907 773.326843,1311.529907 854.160034,1311.528687 
	C855.326599,1311.528687 856.496826,1311.565552 857.659119,1311.489380 
	C864.446289,1311.044800 867.937561,1307.389160 867.994873,1300.568115 
	C868.048096,1294.235352 868.194275,1287.893311 867.921692,1281.571777 
	C867.782227,1278.338013 869.013489,1277.142212 871.922668,1275.941040 
	C891.598145,1267.817505 911.778076,1260.618164 930.649170,1250.896240 
	C1009.666809,1210.187744 1069.923218,1150.673828 1108.346680,1069.950928 
	C1122.094727,1041.067871 1131.287231,1010.713989 1136.720093,979.212402 
	C1137.951172,972.073425 1134.207520,967.140381 1126.990112,966.315247 
	C1124.848633,966.070374 1122.664062,966.166687 1120.499146,966.166687 
	C894.499451,966.161255 668.499756,966.161682 441.500031,966.161682 
M205.954163,244.395432 
	C203.433060,248.511703 200.999496,252.684647 198.377258,256.735443 
	C173.045334,295.867798 147.675095,334.975311 122.352303,374.113556 
	C121.384476,375.609375 120.144127,377.334961 120.119164,378.970093 
	C119.931343,391.273926 120.016762,403.581970 120.016762,416.107727 
	C169.096603,416.107727 217.794189,416.107727 266.397217,416.107727 
	C266.397217,401.617035 266.397217,387.559479 266.397217,373.035339 
	C238.225464,373.035339 210.495605,373.035339 181.797089,373.035339 
	C188.356079,363.162872 194.415466,354.073181 200.443771,344.962952 
	C219.096695,316.773682 238.050903,288.777069 256.278473,260.315216 
	C269.441925,239.760880 276.039673,217.139954 273.985474,192.432953 
	C272.282440,171.949066 265.978943,153.647095 249.133759,140.442261 
	C240.292603,133.511703 230.078995,129.644791 219.087219,127.735909 
	C203.823074,125.085060 188.610870,125.178215 173.459290,128.653702 
	C154.466797,133.010269 140.398041,143.761368 131.300415,160.992386 
	C120.245438,181.930634 119.199936,204.467941 120.249977,227.392380 
	C138.102768,227.392380 155.467148,227.392380 173.170517,227.392380 
	C173.170517,223.126236 172.756683,219.252899 173.251297,215.499283 
	C174.526657,205.820480 175.286194,195.930740 177.964233,186.617691 
	C180.973831,176.151627 190.128799,171.235184 200.935989,172.205780 
	C210.540588,173.068375 216.804596,179.233307 218.870438,190.095688 
	C219.427521,193.024933 219.690414,196.035904 219.801163,199.020020 
	C220.411301,215.458542 214.718536,230.022110 205.954163,244.395432 
M587.024414,798.437805 
	C569.358643,775.306824 563.831177,749.115295 567.645264,720.666992 
	C571.088318,694.985474 580.723511,671.601013 594.547180,649.842346 
	C600.849915,639.921692 598.923584,629.002747 589.552856,622.069519 
	C577.345032,613.037170 558.961670,615.838074 550.687378,628.530579 
	C545.339844,636.733643 540.476868,645.323059 536.159546,654.114075 
	C523.150635,680.603271 515.343445,708.528625 515.543579,738.219910 
	C515.785278,774.074585 528.707642,805.018616 552.637207,831.642700 
	C558.841736,838.545654 564.601379,846.002869 569.555908,853.843445 
	C580.730896,871.528137 586.273376,890.830017 582.885010,911.887512 
	C581.710510,919.186523 579.350342,926.294617 577.442871,933.841431 
	C592.828247,933.841431 608.142578,933.619324 623.443665,933.972046 
	C628.251831,934.082886 630.019775,932.557373 631.064270,927.971436 
	C638.464966,895.476318 633.366638,864.872498 615.985046,836.794678 
	C607.713196,823.432495 597.047791,811.552063 587.024414,798.437805 
M865.174683,827.321167 
	C870.866089,834.277161 877.028381,840.904480 882.157471,848.252930 
	C895.661804,867.600586 902.922668,888.831970 898.920105,912.738098 
	C897.751770,919.716187 895.436951,926.502258 893.533875,933.813171 
	C910.192322,933.813171 926.802612,933.894531 943.407532,933.633789 
	C944.538818,933.616089 946.238342,931.188782 946.646057,929.615784 
	C951.010803,912.775879 951.735107,895.755615 948.446228,878.637634 
	C943.095459,850.788391 929.164429,827.385498 910.273865,806.807129 
	C886.408203,780.809204 878.882141,750.344482 884.523315,716.140442 
	C888.479980,692.150452 897.793274,670.202148 910.820129,649.763245 
	C916.101929,641.476318 915.724121,632.893860 909.788452,625.714233 
	C899.289062,613.014771 876.579407,614.141907 867.082886,628.117920 
	C854.737976,646.285767 845.596069,666.062317 839.464478,687.126953 
	C824.709961,737.814453 830.061096,784.972351 865.174683,827.321167 
M748.279541,656.831787 
	C749.864929,654.288696 751.448120,651.744324 753.036194,649.202881 
	C758.754089,640.052124 757.027222,629.641235 748.665588,622.863647 
	C736.411560,612.931030 717.427490,615.544617 708.609985,628.689392 
	C695.805542,647.777649 686.352600,668.504211 680.328857,690.658447 
	C666.878113,740.127197 672.868835,785.996521 706.386047,826.530640 
	C712.536316,833.968567 719.123962,841.117615 724.586182,849.036987 
	C737.666016,868.000610 744.735474,888.821411 740.914307,912.178894 
	C739.745605,919.323242 737.416260,926.277649 735.588196,933.437378 
	C735.902344,933.530396 736.343262,933.774353 736.784729,933.775330 
	C752.613770,933.809753 768.443909,933.730164 784.271118,933.911316 
	C787.558838,933.948975 788.101807,932.022827 788.675354,929.700378 
	C793.219788,911.298462 793.712708,892.830872 789.463745,874.310730 
	C783.330811,847.578918 769.106628,825.365112 750.952576,805.322449 
	C732.267395,784.693420 723.671143,760.437561 724.779480,732.612122 
	C725.859924,705.488281 734.907104,680.886230 748.279541,656.831787 
M508.442108,139.554840 
	C508.442108,172.619888 508.442108,205.684937 508.442108,238.755157 
	C515.537842,238.755157 521.903748,238.755157 528.872803,238.755157 
	C528.872803,222.085281 528.872803,205.851929 528.872803,189.726868 
	C537.094299,188.575897 537.075867,188.580658 538.951416,195.826370 
	C542.326538,208.865524 545.675659,221.911957 549.182678,234.915710 
	C549.596802,236.451538 550.860291,238.890671 551.852600,238.952774 
	C557.890503,239.330688 563.963867,239.141373 570.437500,239.141373 
	C569.911804,236.974426 569.640320,235.690552 569.288269,234.429153 
	C565.086853,219.376343 560.948425,204.305115 556.597168,189.295624 
	C555.769775,186.441788 556.509399,185.227890 558.681702,183.168777 
	C562.037781,179.987534 565.608093,175.969986 566.687927,171.700287 
	C568.280212,165.403976 568.477234,158.520844 567.987183,151.983704 
	C567.136414,140.637207 560.883911,132.873901 549.718933,131.253082 
	C536.345642,129.311691 522.700134,129.244766 508.442505,128.318649 
	C508.442505,132.672195 508.442505,135.625961 508.442108,139.554840 
M773.553101,412.285797 
	C773.553101,397.715027 773.553101,383.144257 773.553101,368.715729 
	C781.835205,367.665375 781.840515,367.663971 783.625793,374.485321 
	C787.411377,388.949402 791.190918,403.415070 794.978271,417.900269 
	C801.825745,417.900269 808.264771,417.900269 815.256470,417.900269 
	C814.551331,415.295776 813.970886,413.082245 813.352600,410.879333 
	C809.395996,396.783936 805.347717,382.713013 801.583618,368.566498 
	C801.154663,366.954407 801.685486,363.992218 802.822205,363.236237 
	C810.103760,358.393585 812.590454,351.320038 813.126038,343.162140 
	C814.674744,319.573334 806.862183,310.291168 783.253113,308.698242 
	C773.374695,308.031708 763.413818,308.587402 753.448059,308.587402 
	C753.448059,345.390015 753.448059,381.474762 753.448059,417.869629 
	C760.147339,417.869629 766.546082,417.869629 773.247864,417.869629 
	C773.359619,416.163483 773.455750,414.696228 773.553101,412.285797 
M630.895752,236.538559 
	C639.285339,231.599121 643.338196,223.526443 643.649597,214.523560 
	C644.345154,194.414948 644.757996,174.218826 643.645020,154.149384 
	C642.714478,137.369019 632.550049,128.977036 615.751465,128.080734 
	C593.411133,126.888748 581.980286,137.074173 581.157654,159.516968 
	C580.706482,171.826340 580.901672,184.165115 581.038452,196.488037 
	C581.112183,203.130585 581.112427,209.856796 582.143677,216.387726 
	C583.997925,228.131058 589.890625,236.958115 602.413940,239.466125 
	C611.890381,241.363937 621.283691,241.205246 630.895752,236.538559 
M588.986633,347.499664 
	C588.986633,353.999634 588.986633,360.499603 588.986633,366.999573 
	C587.372498,365.779083 586.683899,364.489319 586.105408,363.151917 
	C579.305603,347.428772 572.201111,331.825562 565.901001,315.904266 
	C563.554688,309.974823 560.554871,307.801300 554.239990,308.251160 
	C549.861816,308.563049 548.305420,309.389984 548.335083,314.106689 
	C548.541565,346.909637 548.439819,379.714478 548.456360,412.518707 
	C548.457214,414.281952 548.633118,416.045105 548.725098,417.763916 
	C554.663513,417.763916 560.051147,417.763916 566.116821,417.763916 
	C566.116821,397.297943 566.116821,377.241180 566.116821,357.184387 
	C567.386292,358.215851 567.875610,359.263733 568.319946,360.330322 
	C575.801270,378.288605 583.233704,396.267609 590.830139,414.177032 
	C591.491577,415.736542 593.081787,417.759705 594.486877,417.977448 
	C598.012939,418.523804 601.680298,418.158020 605.493774,418.158020 
	C605.493774,381.358551 605.493774,345.182678 605.493774,308.775146 
	C599.883972,308.775146 594.637817,308.775146 588.986633,308.775146 
	C588.986633,321.568176 588.986633,334.033997 588.986633,347.499664 
M436.995422,372.690186 
	C436.995422,387.764099 436.995422,402.838043 436.995422,417.860840 
	C444.081482,417.860840 450.345520,417.860840 456.825623,417.860840 
	C456.825623,381.366516 456.825623,345.180878 456.825623,308.860352 
	C450.088989,308.860352 443.700592,308.860352 436.735291,308.860352 
	C436.735291,324.137665 436.735291,339.028046 436.735291,353.799683 
	C429.231323,353.799683 422.317596,353.799683 415.021088,353.799683 
	C415.021088,338.673523 415.021088,323.899750 415.021088,308.798645 
	C408.219666,308.798645 401.809784,308.798645 395.162231,308.798645 
	C395.162231,345.259766 395.162231,381.455109 395.162231,417.797180 
	C401.872253,417.797180 408.245483,417.797180 415.148560,417.797180 
	C415.148560,401.369751 415.148560,385.306519 415.148560,368.854370 
	C421.813782,368.854370 427.952789,368.724823 434.075439,368.983185 
	C435.083527,369.025726 436.019775,370.770447 436.995422,372.690186 
M471.987000,354.500000 
	C472.034851,365.997925 471.674988,377.515228 472.219849,388.989563 
	C473.198975,409.609528 481.661926,418.968689 500.795746,419.681000 
	C521.358032,420.446503 529.447205,412.655975 532.682251,396.679138 
	C533.502686,392.627075 533.786438,388.406830 533.804810,384.261627 
	C533.907898,360.930145 533.859680,337.597961 533.844177,314.266022 
	C533.843018,312.501770 533.694397,310.737579 533.610779,308.895538 
	C526.901733,308.895538 520.688538,308.895538 514.145386,308.895538 
	C514.145386,311.163910 514.145386,312.982727 514.145386,314.801575 
	C514.145325,337.966858 514.227356,361.132721 514.073303,384.296967 
	C514.043701,388.743195 513.490601,393.281036 512.446045,397.599304 
	C511.347382,402.140961 507.821838,404.360168 503.116852,404.390808 
	C498.227783,404.422668 494.754913,402.146667 493.269440,397.479279 
	C492.471313,394.971619 492.019287,392.270844 491.923615,389.638550 
	C491.657410,382.315826 491.587158,374.983551 491.569458,367.654724 
	C491.525604,349.489227 491.573456,331.323547 491.526031,313.158081 
	C491.520874,311.174713 492.338989,308.476257 488.786163,308.473663 
	C483.325714,308.469635 477.865265,308.472595 471.987000,308.472595 
	C471.987000,323.891052 471.987000,338.695526 471.987000,354.500000 
M668.556335,310.802765 
	C660.597961,307.021210 652.260071,306.614166 643.662476,307.729370 
	C632.104614,309.228546 624.870422,315.601196 621.821899,326.715820 
	C620.903564,330.063965 620.085083,333.556152 620.011169,336.999298 
	C619.675598,352.652893 619.339661,368.317383 619.609009,383.967560 
	C619.713501,390.042633 620.851074,396.250458 622.517578,402.113739 
	C625.183167,411.492249 631.491455,417.430573 641.407227,419.181976 
	C651.454651,420.956726 660.365112,419.768402 666.451233,410.372162 
	C666.533020,410.245880 667.024841,410.385071 667.325134,410.402679 
	C669.331482,418.860596 671.632324,419.984222 681.781433,417.361908 
	C681.781433,399.290344 681.781433,381.184631 681.781433,362.806396 
	C671.817261,362.806396 662.082275,362.806396 652.254700,362.806396 
	C652.254700,367.098755 652.254700,371.035095 652.254700,375.561279 
	C655.142700,375.561279 657.812744,375.294159 660.385864,375.677460 
	C661.614990,375.860565 663.673157,377.334839 663.629028,378.128113 
	C663.260864,384.736786 663.049011,391.443787 661.659729,397.876953 
	C660.593506,402.814240 656.105225,404.837677 650.692932,404.536621 
	C645.509766,404.248322 641.406982,401.617340 641.310242,396.601471 
	C640.880676,374.336182 640.862427,352.055603 641.289673,329.791931 
	C641.334961,327.431732 644.845764,324.109711 647.484741,323.026184 
	C654.556641,320.122498 660.554321,323.892639 661.606995,331.463654 
	C662.214111,335.829987 662.072693,340.300446 662.267761,344.714447 
	C668.829041,344.714447 674.915527,344.714447 681.928040,344.714447 
	C681.289185,338.614929 681.014160,332.827484 680.005371,327.170898 
	C678.792603,320.370728 675.449768,314.699982 668.556335,310.802765 
M487.446381,129.144226 
	C475.514282,129.144226 463.582153,129.144226 451.459442,129.144226 
	C451.459442,166.120224 451.459442,202.356430 451.459442,238.790955 
	C466.981049,238.790955 482.184967,238.790955 497.506592,238.790955 
	C497.506592,234.158813 497.506592,229.925888 497.506592,225.025665 
	C488.780060,225.025665 480.380859,225.025665 471.579285,225.025665 
	C471.579285,213.713409 471.620728,203.070023 471.551056,192.427368 
	C471.532959,189.659988 472.964325,189.121262 475.330841,189.160858 
	C480.758301,189.251663 486.188324,189.189621 491.636261,189.189621 
	C491.636261,184.063110 491.636261,179.676483 491.636261,174.788635 
	C484.839203,174.788635 478.408783,174.788635 471.871399,174.788635 
	C471.871399,164.352539 471.871399,154.427277 471.871399,143.904388 
	C480.406921,143.904388 488.650269,143.904388 497.188232,143.904388 
	C497.188232,138.740158 497.188232,134.177322 497.188232,129.144257 
	C494.023682,129.144257 491.222870,129.144257 487.446381,129.144226 
M696.197815,416.134827 
	C696.969116,416.802399 697.735779,418.045959 698.512390,418.052216 
	C712.972656,418.168518 727.434082,418.137604 742.154541,418.137604 
	C742.154541,413.304932 742.154541,408.914368 742.154541,403.916565 
	C733.367981,403.916565 724.970032,403.916565 716.550903,403.916565 
	C716.550903,391.900848 716.550903,380.500336 716.550903,368.357025 
	C723.457825,368.357025 730.007935,368.357025 736.481018,368.357025 
	C736.481018,363.189941 736.481018,358.778076 736.481018,353.744781 
	C729.567383,353.744781 723.013062,353.744781 716.521362,353.744781 
	C716.521362,343.195312 716.521362,333.278992 716.521362,322.805664 
	C725.094421,322.805664 733.343689,322.805664 741.876892,322.805664 
	C741.876892,317.843262 741.876892,313.445099 741.876892,308.887390 
	C726.560364,308.887390 711.524902,308.887390 696.158691,308.887390 
	C696.158691,344.616119 696.158691,379.904938 696.197815,416.134827 
M413.252930,162.616486 
	C406.302032,182.384262 399.102203,202.070328 392.567413,221.974701 
	C390.837677,227.243256 391.155731,233.184128 390.531952,238.830490 
	C408.087555,238.830490 424.334015,238.830490 440.734680,238.830490 
	C440.734680,234.234344 440.734680,229.988480 440.734680,225.155807 
	C430.749176,225.155807 421.021851,225.155807 410.626923,225.155807 
	C411.417664,222.731049 411.934021,221.023361 412.528503,219.343323 
	C421.515228,193.947037 430.632629,168.595764 439.386627,143.119583 
	C440.823212,138.938782 440.672058,134.212433 441.279633,129.546875 
	C424.357880,129.546875 408.656372,129.546875 392.450531,129.546875 
	C392.450531,132.242996 392.449005,134.545410 392.450836,136.847809 
	C392.456238,143.542191 392.456757,143.544983 399.218567,143.548706 
	C405.802094,143.552338 412.385620,143.549484 419.840546,143.549484 
	C417.516022,150.339966 415.538239,156.117569 413.252930,162.616486 
z"/>
<path fill="#FFFFFF" opacity="1.000000" stroke="none" 
	d="
M442.000061,966.161743 
	C668.499756,966.161682 894.499451,966.161255 1120.499146,966.166687 
	C1122.664062,966.166687 1124.848633,966.070374 1126.990112,966.315247 
	C1134.207520,967.140381 1137.951172,972.073425 1136.720093,979.212402 
	C1131.287231,1010.713989 1122.094727,1041.067871 1108.346680,1069.950928 
	C1069.923218,1150.673828 1009.666809,1210.187744 930.649170,1250.896240 
	C911.778076,1260.618164 891.598145,1267.817505 871.922668,1275.941040 
	C869.013489,1277.142212 867.782227,1278.338013 867.921692,1281.571777 
	C868.194275,1287.893311 868.048096,1294.235352 867.994873,1300.568115 
	C867.937561,1307.389160 864.446289,1311.044800 857.659119,1311.489380 
	C856.496826,1311.565552 855.326599,1311.528687 854.160034,1311.528687 
	C773.326843,1311.529907 692.493591,1311.529907 611.660400,1311.528198 
	C610.493896,1311.528198 609.322693,1311.567627 608.161682,1311.481323 
	C601.797485,1311.008789 598.142639,1307.227051 598.022766,1300.808960 
	C597.920105,1295.310791 597.807373,1289.800049 598.070496,1284.312744 
	C598.230713,1280.971680 597.281250,1279.388672 593.882935,1278.313721 
	C556.682190,1266.544312 521.597351,1250.183594 489.183502,1228.433594 
	C408.038086,1173.984375 352.346375,1100.963013 327.653778,1005.567383 
	C325.571228,997.521667 324.045685,989.321228 322.521118,981.144287 
	C320.656708,971.144592 324.793518,966.198242 335.001160,966.182983 
	C370.500702,966.129944 406.000397,966.161987 442.000061,966.161743 
z"/>
<path fill="#FFFEFD" opacity="1.000000" stroke="none" 
	d="
M206.130768,244.074539 
	C214.718536,230.022110 220.411301,215.458542 219.801163,199.020020 
	C219.690414,196.035904 219.427521,193.024933 218.870438,190.095688 
	C216.804596,179.233307 210.540588,173.068375 200.935989,172.205780 
	C190.128799,171.235184 180.973831,176.151627 177.964233,186.617691 
	C175.286194,195.930740 174.526657,205.820480 173.251297,215.499283 
	C172.756683,219.252899 173.170517,223.126236 173.170517,227.392380 
	C155.467148,227.392380 138.102768,227.392380 120.249977,227.392380 
	C119.199936,204.467941 120.245438,181.930634 131.300415,160.992386 
	C140.398041,143.761368 154.466797,133.010269 173.459290,128.653702 
	C188.610870,125.178215 203.823074,125.085060 219.087219,127.735909 
	C230.078995,129.644791 240.292603,133.511703 249.133759,140.442261 
	C265.978943,153.647095 272.282440,171.949066 273.985474,192.432953 
	C276.039673,217.139954 269.441925,239.760880 256.278473,260.315216 
	C238.050903,288.777069 219.096695,316.773682 200.443771,344.962952 
	C194.415466,354.073181 188.356079,363.162872 181.797089,373.035339 
	C210.495605,373.035339 238.225464,373.035339 266.397217,373.035339 
	C266.397217,387.559479 266.397217,401.617035 266.397217,416.107727 
	C217.794189,416.107727 169.096603,416.107727 120.016762,416.107727 
	C120.016762,403.581970 119.931343,391.273926 120.119164,378.970093 
	C120.144127,377.334961 121.384476,375.609375 122.352303,374.113556 
	C147.675095,334.975311 173.045334,295.867798 198.377258,256.735443 
	C200.999496,252.684647 203.433060,248.511703 206.130768,244.074539 
z"/>
<path fill="#FFFEFE" opacity="1.000000" stroke="none" 
	d="
M587.245483,798.719116 
	C597.047791,811.552063 607.713196,823.432495 615.985046,836.794678 
	C633.366638,864.872498 638.464966,895.476318 631.064270,927.971436 
	C630.019775,932.557373 628.251831,934.082886 623.443665,933.972046 
	C608.142578,933.619324 592.828247,933.841431 577.442871,933.841431 
	C579.350342,926.294617 581.710510,919.186523 582.885010,911.887512 
	C586.273376,890.830017 580.730896,871.528137 569.555908,853.843445 
	C564.601379,846.002869 558.841736,838.545654 552.637207,831.642700 
	C528.707642,805.018616 515.785278,774.074585 515.543579,738.219910 
	C515.343445,708.528625 523.150635,680.603271 536.159546,654.114075 
	C540.476868,645.323059 545.339844,636.733643 550.687378,628.530579 
	C558.961670,615.838074 577.345032,613.037170 589.552856,622.069519 
	C598.923584,629.002747 600.849915,639.921692 594.547180,649.842346 
	C580.723511,671.601013 571.088318,694.985474 567.645264,720.666992 
	C563.831177,749.115295 569.358643,775.306824 587.245483,798.719116 
z"/>
<path fill="#FFFEFE" opacity="1.000000" stroke="none" 
	d="
M864.950806,827.046509 
	C830.061096,784.972351 824.709961,737.814453 839.464478,687.126953 
	C845.596069,666.062317 854.737976,646.285767 867.082886,628.117920 
	C876.579407,614.141907 899.289062,613.014771 909.788452,625.714233 
	C915.724121,632.893860 916.101929,641.476318 910.820129,649.763245 
	C897.793274,670.202148 888.479980,692.150452 884.523315,716.140442 
	C878.882141,750.344482 886.408203,780.809204 910.273865,806.807129 
	C929.164429,827.385498 943.095459,850.788391 948.446228,878.637634 
	C951.735107,895.755615 951.010803,912.775879 946.646057,929.615784 
	C946.238342,931.188782 944.538818,933.616089 943.407532,933.633789 
	C926.802612,933.894531 910.192322,933.813171 893.533875,933.813171 
	C895.436951,926.502258 897.751770,919.716187 898.920105,912.738098 
	C902.922668,888.831970 895.661804,867.600586 882.157471,848.252930 
	C877.028381,840.904480 870.866089,834.277161 864.950806,827.046509 
z"/>
<path fill="#FFFEFE" opacity="1.000000" stroke="none" 
	d="
M748.105286,657.154358 
	C734.907104,680.886230 725.859924,705.488281 724.779480,732.612122 
	C723.671143,760.437561 732.267395,784.693420 750.952576,805.322449 
	C769.106628,825.365112 783.330811,847.578918 789.463745,874.310730 
	C793.712708,892.830872 793.219788,911.298462 788.675354,929.700378 
	C788.101807,932.022827 787.558838,933.948975 784.271118,933.911316 
	C768.443909,933.730164 752.613770,933.809753 736.784729,933.775330 
	C736.343262,933.774353 735.902344,933.530396 735.588196,933.437378 
	C737.416260,926.277649 739.745605,919.323242 740.914307,912.178894 
	C744.735474,888.821411 737.666016,868.000610 724.586182,849.036987 
	C719.123962,841.117615 712.536316,833.968567 706.386047,826.530640 
	C672.868835,785.996521 666.878113,740.127197 680.328857,690.658447 
	C686.352600,668.504211 695.805542,647.777649 708.609985,628.689392 
	C717.427490,615.544617 736.411560,612.931030 748.665588,622.863647 
	C757.027222,629.641235 758.754089,640.052124 753.036194,649.202881 
	C751.448120,651.744324 749.864929,654.288696 748.105286,657.154358 
z"/>
<path fill="#FEFCF9" opacity="1.000000" stroke="none" 
	d="
M508.442322,139.067291 
	C508.442505,135.625961 508.442505,132.672195 508.442505,128.318649 
	C522.700134,129.244766 536.345642,129.311691 549.718933,131.253082 
	C560.883911,132.873901 567.136414,140.637207 567.987183,151.983704 
	C568.477234,158.520844 568.280212,165.403976 566.687927,171.700287 
	C565.608093,175.969986 562.037781,179.987534 558.681702,183.168777 
	C556.509399,185.227890 555.769775,186.441788 556.597168,189.295624 
	C560.948425,204.305115 565.086853,219.376343 569.288269,234.429153 
	C569.640320,235.690552 569.911804,236.974426 570.437500,239.141373 
	C563.963867,239.141373 557.890503,239.330688 551.852600,238.952774 
	C550.860291,238.890671 549.596802,236.451538 549.182678,234.915710 
	C545.675659,221.911957 542.326538,208.865524 538.951416,195.826370 
	C537.075867,188.580658 537.094299,188.575897 528.872803,189.726868 
	C528.872803,205.851929 528.872803,222.085281 528.872803,238.755157 
	C521.903748,238.755157 515.537842,238.755157 508.442108,238.755157 
	C508.442108,205.684937 508.442108,172.619888 508.442322,139.067291 
M528.554199,164.486328 
	C528.554199,168.238007 528.554199,171.989670 528.554199,175.973816 
	C535.588928,176.121826 542.356934,177.090027 546.381714,171.327179 
	C551.110413,164.556549 550.585693,156.579758 547.468079,149.314514 
	C544.674377,142.804306 538.002991,143.623184 532.235229,143.163528 
	C529.296875,142.929367 528.479370,144.315033 528.530701,146.997375 
	C528.635803,152.493561 528.556946,157.993286 528.554199,164.486328 
z"/>
<path fill="#FEFDFA" opacity="1.000000" stroke="none" 
	d="
M773.552490,412.757385 
	C773.455750,414.696228 773.359619,416.163483 773.247864,417.869629 
	C766.546082,417.869629 760.147339,417.869629 753.448059,417.869629 
	C753.448059,381.474762 753.448059,345.390015 753.448059,308.587402 
	C763.413818,308.587402 773.374695,308.031708 783.253113,308.698242 
	C806.862183,310.291168 814.674744,319.573334 813.126038,343.162140 
	C812.590454,351.320038 810.103760,358.393585 802.822205,363.236237 
	C801.685486,363.992218 801.154663,366.954407 801.583618,368.566498 
	C805.347717,382.713013 809.395996,396.783936 813.352600,410.879333 
	C813.970886,413.082245 814.551331,415.295776 815.256470,417.900269 
	C808.264771,417.900269 801.825745,417.900269 794.978271,417.900269 
	C791.190918,403.415070 787.411377,388.949402 783.625793,374.485321 
	C781.840515,367.663971 781.835205,367.665375 773.553101,368.715729 
	C773.553101,383.144257 773.553101,397.715027 773.552490,412.757385 
M788.996155,352.753479 
	C794.645874,348.533325 794.269836,342.372986 794.107483,336.385498 
	C793.760315,323.580872 786.384766,322.051788 775.789368,322.734985 
	C775.028809,322.784058 773.739441,324.121277 773.728882,324.874054 
	C773.589661,334.788483 773.636169,344.705536 773.636169,355.972656 
	C779.107544,354.914246 783.707581,354.024353 788.996155,352.753479 
z"/>
<path fill="#FEFDFB" opacity="1.000000" stroke="none" 
	d="
M630.568115,236.720444 
	C621.283691,241.205246 611.890381,241.363937 602.413940,239.466125 
	C589.890625,236.958115 583.997925,228.131058 582.143677,216.387726 
	C581.112427,209.856796 581.112183,203.130585 581.038452,196.488037 
	C580.901672,184.165115 580.706482,171.826340 581.157654,159.516968 
	C581.980286,137.074173 593.411133,126.888748 615.751465,128.080734 
	C632.550049,128.977036 642.714478,137.369019 643.645020,154.149384 
	C644.757996,174.218826 644.345154,194.414948 643.649597,214.523560 
	C643.338196,223.526443 639.285339,231.599121 630.568115,236.720444 
M623.992554,202.480286 
	C623.992493,188.340881 624.048157,174.201080 623.948975,160.062378 
	C623.927002,156.928604 623.572266,153.758377 622.992310,150.676147 
	C622.060852,145.726105 618.650330,143.441345 613.813477,143.066666 
	C606.611023,142.508759 602.138428,146.170975 602.004211,153.961975 
	C601.672058,173.243118 601.792908,192.532578 601.815186,211.818604 
	C601.817627,213.950195 602.128174,216.145981 602.699646,218.199646 
	C604.113159,223.279465 607.631592,225.592606 613.189758,225.410339 
	C618.444702,225.238037 622.042480,222.805374 622.899109,217.835236 
	C623.711060,213.124084 623.662659,208.264633 623.992554,202.480286 
z"/>
<path fill="#FEFDFA" opacity="1.000000" stroke="none" 
	d="
M588.986633,346.999756 
	C588.986633,334.033997 588.986633,321.568176 588.986633,308.775146 
	C594.637817,308.775146 599.883972,308.775146 605.493774,308.775146 
	C605.493774,345.182678 605.493774,381.358551 605.493774,418.158020 
	C601.680298,418.158020 598.012939,418.523804 594.486877,417.977448 
	C593.081787,417.759705 591.491577,415.736542 590.830139,414.177032 
	C583.233704,396.267609 575.801270,378.288605 568.319946,360.330322 
	C567.875610,359.263733 567.386292,358.215851 566.116821,357.184387 
	C566.116821,377.241180 566.116821,397.297943 566.116821,417.763916 
	C560.051147,417.763916 554.663513,417.763916 548.725098,417.763916 
	C548.633118,416.045105 548.457214,414.281952 548.456360,412.518707 
	C548.439819,379.714478 548.541565,346.909637 548.335083,314.106689 
	C548.305420,309.389984 549.861816,308.563049 554.239990,308.251160 
	C560.554871,307.801300 563.554688,309.974823 565.901001,315.904266 
	C572.201111,331.825562 579.305603,347.428772 586.105408,363.151917 
	C586.683899,364.489319 587.372498,365.779083 588.986633,366.999573 
	C588.986633,360.499603 588.986633,353.999634 588.986633,346.999756 
z"/>
<path fill="#FFFEFE" opacity="1.000000" stroke="none" 
	d="
M436.992310,372.209351 
	C436.019775,370.770447 435.083527,369.025726 434.075439,368.983185 
	C427.952789,368.724823 421.813782,368.854370 415.148560,368.854370 
	C415.148560,385.306519 415.148560,401.369751 415.148560,417.797180 
	C408.245483,417.797180 401.872253,417.797180 395.162231,417.797180 
	C395.162231,381.455109 395.162231,345.259766 395.162231,308.798645 
	C401.809784,308.798645 408.219666,308.798645 415.021088,308.798645 
	C415.021088,323.899750 415.021088,338.673523 415.021088,353.799683 
	C422.317596,353.799683 429.231323,353.799683 436.735291,353.799683 
	C436.735291,339.028046 436.735291,324.137665 436.735291,308.860352 
	C443.700592,308.860352 450.088989,308.860352 456.825623,308.860352 
	C456.825623,345.180878 456.825623,381.366516 456.825623,417.860840 
	C450.345520,417.860840 444.081482,417.860840 436.995422,417.860840 
	C436.995422,402.838043 436.995422,387.764099 436.992310,372.209351 
z"/>
<path fill="#FEFDFA" opacity="1.000000" stroke="none" 
	d="
M471.987000,354.000000 
	C471.987000,338.695526 471.987000,323.891052 471.987000,308.472595 
	C477.865265,308.472595 483.325714,308.469635 488.786163,308.473663 
	C492.338989,308.476257 491.520874,311.174713 491.526031,313.158081 
	C491.573456,331.323547 491.525604,349.489227 491.569458,367.654724 
	C491.587158,374.983551 491.657410,382.315826 491.923615,389.638550 
	C492.019287,392.270844 492.471313,394.971619 493.269440,397.479279 
	C494.754913,402.146667 498.227783,404.422668 503.116852,404.390808 
	C507.821838,404.360168 511.347382,402.140961 512.446045,397.599304 
	C513.490601,393.281036 514.043701,388.743195 514.073303,384.296967 
	C514.227356,361.132721 514.145325,337.966858 514.145386,314.801575 
	C514.145386,312.982727 514.145386,311.163910 514.145386,308.895538 
	C520.688538,308.895538 526.901733,308.895538 533.610779,308.895538 
	C533.694397,310.737579 533.843018,312.501770 533.844177,314.266022 
	C533.859680,337.597961 533.907898,360.930145 533.804810,384.261627 
	C533.786438,388.406830 533.502686,392.627075 532.682251,396.679138 
	C529.447205,412.655975 521.358032,420.446503 500.795746,419.681000 
	C481.661926,418.968689 473.198975,409.609528 472.219849,388.989563 
	C471.674988,377.515228 472.034851,365.997925 471.987000,354.000000 
z"/>
<path fill="#FEFDFB" opacity="1.000000" stroke="none" 
	d="
M668.896362,310.953735 
	C675.449768,314.699982 678.792603,320.370728 680.005371,327.170898 
	C681.014160,332.827484 681.289185,338.614929 681.928040,344.714447 
	C674.915527,344.714447 668.829041,344.714447 662.267761,344.714447 
	C662.072693,340.300446 662.214111,335.829987 661.606995,331.463654 
	C660.554321,323.892639 654.556641,320.122498 647.484741,323.026184 
	C644.845764,324.109711 641.334961,327.431732 641.289673,329.791931 
	C640.862427,352.055603 640.880676,374.336182 641.310242,396.601471 
	C641.406982,401.617340 645.509766,404.248322 650.692932,404.536621 
	C656.105225,404.837677 660.593506,402.814240 661.659729,397.876953 
	C663.049011,391.443787 663.260864,384.736786 663.629028,378.128113 
	C663.673157,377.334839 661.614990,375.860565 660.385864,375.677460 
	C657.812744,375.294159 655.142700,375.561279 652.254700,375.561279 
	C652.254700,371.035095 652.254700,367.098755 652.254700,362.806396 
	C662.082275,362.806396 671.817261,362.806396 681.781433,362.806396 
	C681.781433,381.184631 681.781433,399.290344 681.781433,417.361908 
	C671.632324,419.984222 669.331482,418.860596 667.325195,410.401520 
	C667.024841,410.385071 666.533020,410.245880 666.451233,410.372162 
	C660.365112,419.768402 651.454651,420.956726 641.407227,419.181976 
	C631.491455,417.430573 625.183167,411.492249 622.517578,402.113739 
	C620.851074,396.250458 619.713501,390.042633 619.609009,383.967560 
	C619.339661,368.317383 619.675598,352.652893 620.011169,336.999298 
	C620.085083,333.556152 620.903564,330.063965 621.821899,326.715820 
	C624.870422,315.601196 632.104614,309.228546 643.662476,307.729370 
	C652.260071,306.614166 660.597961,307.021210 668.896362,310.953735 
z"/>
<path fill="#FEFDF9" opacity="1.000000" stroke="none" 
	d="
M487.934204,129.144241 
	C491.222870,129.144257 494.023682,129.144257 497.188232,129.144257 
	C497.188232,134.177322 497.188232,138.740158 497.188232,143.904388 
	C488.650269,143.904388 480.406921,143.904388 471.871399,143.904388 
	C471.871399,154.427277 471.871399,164.352539 471.871399,174.788635 
	C478.408783,174.788635 484.839203,174.788635 491.636261,174.788635 
	C491.636261,179.676483 491.636261,184.063110 491.636261,189.189621 
	C486.188324,189.189621 480.758301,189.251663 475.330841,189.160858 
	C472.964325,189.121262 471.532959,189.659988 471.551056,192.427368 
	C471.620728,203.070023 471.579285,213.713409 471.579285,225.025665 
	C480.380859,225.025665 488.780060,225.025665 497.506592,225.025665 
	C497.506592,229.925888 497.506592,234.158813 497.506592,238.790955 
	C482.184967,238.790955 466.981049,238.790955 451.459442,238.790955 
	C451.459442,202.356430 451.459442,166.120224 451.459442,129.144226 
	C463.582153,129.144226 475.514282,129.144226 487.934204,129.144241 
z"/>
<path fill="#FEFDFA" opacity="1.000000" stroke="none" 
	d="
M696.178223,415.664276 
	C696.158691,379.904938 696.158691,344.616119 696.158691,308.887390 
	C711.524902,308.887390 726.560364,308.887390 741.876892,308.887390 
	C741.876892,313.445099 741.876892,317.843262 741.876892,322.805664 
	C733.343689,322.805664 725.094421,322.805664 716.521362,322.805664 
	C716.521362,333.278992 716.521362,343.195312 716.521362,353.744781 
	C723.013062,353.744781 729.567383,353.744781 736.481018,353.744781 
	C736.481018,358.778076 736.481018,363.189941 736.481018,368.357025 
	C730.007935,368.357025 723.457825,368.357025 716.550903,368.357025 
	C716.550903,380.500336 716.550903,391.900848 716.550903,403.916565 
	C724.970032,403.916565 733.367981,403.916565 742.154541,403.916565 
	C742.154541,408.914368 742.154541,413.304932 742.154541,418.137604 
	C727.434082,418.137604 712.972656,418.168518 698.512390,418.052216 
	C697.735779,418.045959 696.969116,416.802399 696.178223,415.664276 
z"/>
<path fill="#FEFDFB" opacity="1.000000" stroke="none" 
	d="
M413.406677,162.255829 
	C415.538239,156.117569 417.516022,150.339966 419.840546,143.549484 
	C412.385620,143.549484 405.802094,143.552338 399.218567,143.548706 
	C392.456757,143.544983 392.456238,143.542191 392.450836,136.847809 
	C392.449005,134.545410 392.450531,132.242996 392.450531,129.546875 
	C408.656372,129.546875 424.357880,129.546875 441.279633,129.546875 
	C440.672058,134.212433 440.823212,138.938782 439.386627,143.119583 
	C430.632629,168.595764 421.515228,193.947037 412.528503,219.343323 
	C411.934021,221.023361 411.417664,222.731049 410.626923,225.155807 
	C421.021851,225.155807 430.749176,225.155807 440.734680,225.155807 
	C440.734680,229.988480 440.734680,234.234344 440.734680,238.830490 
	C424.334015,238.830490 408.087555,238.830490 390.531952,238.830490 
	C391.155731,233.184128 390.837677,227.243256 392.567413,221.974701 
	C399.102203,202.070328 406.302032,182.384262 413.406677,162.255829 
z"/>
<path fill="#DDA83B" opacity="1.000000" stroke="none" 
	d="
M528.554016,163.988937 
	C528.556946,157.993286 528.635803,152.493561 528.530701,146.997375 
	C528.479370,144.315033 529.296875,142.929367 532.235229,143.163528 
	C538.002991,143.623184 544.674377,142.804306 547.468079,149.314514 
	C550.585693,156.579758 551.110413,164.556549 546.381714,171.327179 
	C542.356934,177.090027 535.588928,176.121826 528.554199,175.973816 
	C528.554199,171.989670 528.554199,168.238007 528.554016,163.988937 
z"/>
<path fill="#DDA83B" opacity="1.000000" stroke="none" 
	d="
M788.651917,352.943970 
	C783.707581,354.024353 779.107544,354.914246 773.636169,355.972656 
	C773.636169,344.705536 773.589661,334.788483 773.728882,324.874054 
	C773.739441,324.121277 775.028809,322.784058 775.789368,322.734985 
	C786.384766,322.051788 793.760315,323.580872 794.107483,336.385498 
	C794.269836,342.372986 794.645874,348.533325 788.651917,352.943970 
z"/>
<path fill="#DDA83B" opacity="1.000000" stroke="none" 
	d="
M623.992554,202.975342 
	C623.662659,208.264633 623.711060,213.124084 622.899109,217.835236 
	C622.042480,222.805374 618.444702,225.238037 613.189758,225.410339 
	C607.631592,225.592606 604.113159,223.279465 602.699646,218.199646 
	C602.128174,216.145981 601.817627,213.950195 601.815186,211.818604 
	C601.792908,192.532578 601.672058,173.243118 602.004211,153.961975 
	C602.138428,146.170975 606.611023,142.508759 613.813477,143.066666 
	C618.650330,143.441345 622.060852,145.726105 622.992310,150.676147 
	C623.572266,153.758377 623.927002,156.928604 623.948975,160.062378 
	C624.048157,174.201080 623.992493,188.340881 623.992554,202.975342 
z"/>
</svg>