<svg version="1.1" id="Layer_1" xmlns="http://www.w3.org/2000/svg" xmlns:xlink="http://www.w3.org/1999/xlink" x="0px" y="0px"
	 width="100%" viewBox="0 0 1500 1500" enable-background="new 0 0 1500 1500" xml:space="preserve">
<path fill="#26BDE2" opacity="1.000000" stroke="none" 
	d="
M1501.000000,553.000000 
	C1501.000000,869.307068 1501.000000,1185.114136 1501.000000,1500.960693 
	C1001.067810,1500.960693 501.135681,1500.960693 1.101753,1500.960693 
	C1.101753,1001.109436 1.101753,501.218842 1.101753,1.164114 
	C500.999969,1.164114 1001.000000,1.164114 1501.000000,1.164114 
	C1501.000000,184.864670 1501.000000,368.682343 1501.000000,553.000000 
M888.500000,604.161316 
	C752.358704,604.161316 616.217468,604.161011 480.076202,604.161926 
	C470.403381,604.161987 468.665985,606.232788 470.260162,615.876160 
	C485.923523,710.625610 501.586456,805.375122 517.255249,900.123657 
	C531.891785,988.630432 546.535645,1077.135986 561.174744,1165.642334 
	C562.390320,1172.991333 563.763672,1174.163574 571.326172,1174.164673 
	C605.821167,1174.170044 640.316162,1174.166870 674.811157,1174.166870 
	C676.769409,1174.166870 678.727600,1174.166992 681.127441,1174.166992 
	C683.714844,1204.514771 686.256042,1234.320923 688.861877,1264.884644 
	C673.071594,1264.884644 657.734985,1264.884644 642.641357,1264.884644 
	C679.466614,1301.714355 716.040222,1338.292480 752.174866,1374.431519 
	C788.468811,1338.135376 825.157043,1301.445068 862.001648,1264.598389 
	C846.898560,1264.598389 831.553162,1264.598389 815.846069,1264.598389 
	C816.012268,1261.726074 816.089233,1259.411255 816.288147,1257.107056 
	C818.479309,1231.725220 820.720154,1206.347534 822.875183,1180.962769 
	C823.498657,1173.618042 822.135437,1174.177124 830.287659,1174.173584 
	C865.615845,1174.158203 900.944092,1174.173218 936.272278,1174.160400 
	C942.262329,1174.158325 944.148499,1172.750732 944.954346,1167.549194 
	C950.331299,1132.844116 955.671021,1098.133301 961.030945,1063.425537 
	C968.144043,1017.365234 975.249756,971.303711 982.385681,925.246887 
	C990.897461,870.310486 999.452576,815.380798 1007.961609,760.444031 
	C1015.477417,711.920410 1022.933655,663.387512 1030.471558,614.867371 
	C1031.755981,606.599976 1029.843018,604.165649 1021.480835,604.164429 
	C977.487244,604.158020 933.493591,604.161377 888.500000,604.161316 
M214.942291,179.910538 
	C215.970169,187.755325 216.998062,195.600128 218.030426,203.479141 
	C235.054413,203.479141 252.120636,203.479141 269.353851,203.479141 
	C269.316010,190.434906 268.492615,177.900375 264.476532,165.709915 
	C258.117188,146.406876 245.178467,134.164139 225.520065,129.248871 
	C209.146637,125.154953 192.586792,124.895775 175.951263,127.712898 
	C152.925690,131.612137 137.465805,144.541962 128.932693,166.244568 
	C121.348457,185.533844 119.615906,205.687897 119.511436,226.076096 
	C119.344093,258.737427 119.383728,291.400604 119.502823,324.062378 
	C119.559448,339.590820 120.792953,355.010284 125.793549,369.882446 
	C132.971725,391.230896 145.056595,408.206604 167.290833,415.956879 
	C180.260300,420.477692 193.661636,421.131134 207.240997,420.055267 
	C234.420090,417.901855 254.225647,405.360016 264.213196,379.327423 
	C275.125000,350.885834 276.197937,321.521851 271.357086,291.797791 
	C269.163574,278.328979 264.796753,265.438354 255.531219,255.103149 
	C240.308578,238.123093 220.531891,236.106781 199.522400,239.632736 
	C190.035751,241.224869 181.842896,245.635635 175.036804,252.984421 
	C175.071274,234.381317 175.252808,216.056854 176.332001,197.785400 
	C176.726349,191.108704 178.621719,184.323502 180.966660,178.009048 
	C183.898514,170.114120 190.783127,167.656326 198.785416,168.020126 
	C206.418900,168.367172 212.355774,171.212585 214.942291,179.910538 
M766.835632,129.256119 
	C761.713928,129.256119 756.592163,129.256119 751.004517,129.256119 
	C756.275940,166.138794 761.470032,202.480057 766.713318,239.165878 
	C771.664429,239.165878 776.160034,239.392014 780.604797,239.016129 
	C781.803406,238.914764 783.604431,237.130203 783.842834,235.874176 
	C785.734619,225.907639 787.308960,215.880981 788.994202,205.875031 
	C791.026550,193.808487 793.072083,181.744141 795.111938,169.678833 
	C796.234253,171.633575 796.662415,173.561035 796.991028,175.505295 
	C800.374207,195.519745 803.694580,215.545135 807.217102,235.534927 
	C807.453735,236.878006 809.099426,238.891403 810.235596,238.995102 
	C814.665955,239.399475 819.155090,239.160034 823.993042,239.160034 
	C829.243225,202.423050 834.433960,166.102310 839.672241,129.448639 
	C833.740173,129.448639 828.512085,129.448639 822.944519,129.448639 
	C820.147400,151.152878 817.381653,172.612946 814.615967,194.073013 
	C813.024536,192.203796 812.508667,190.362091 812.192566,188.486725 
	C809.399292,171.917892 806.639771,155.343384 803.873779,138.769974 
	C802.214661,128.829102 802.219055,128.934280 792.337036,129.086807 
	C789.463135,129.131149 788.304993,129.943741 787.859741,132.922394 
	C786.040039,145.097046 783.938599,157.229813 781.914551,169.373596 
	C780.544556,177.593292 779.130371,185.805618 777.735962,194.021240 
	C777.292419,194.014236 776.848938,194.007233 776.405396,194.000244 
	C775.269165,185.200851 774.185852,176.394257 772.984253,167.603821 
	C771.251343,154.927032 769.432556,142.261978 766.835632,129.256119 
M1035.628418,239.194641 
	C1039.423340,239.194641 1043.218262,239.194641 1047.552612,239.194641 
	C1047.552612,236.868195 1047.552612,235.082840 1047.552734,233.297501 
	C1047.553467,220.300934 1047.717285,207.301163 1047.463501,194.309570 
	C1047.379028,189.984283 1048.969482,188.950226 1052.963989,189.092850 
	C1056.186768,189.207901 1056.692871,191.040161 1057.306763,193.428772 
	C1060.867798,207.285019 1064.457275,221.134506 1068.184692,234.946457 
	C1068.597168,236.475494 1069.873047,238.896667 1070.869629,238.958740 
	C1076.910278,239.334976 1082.985962,239.146179 1089.459351,239.146179 
	C1088.920166,236.974762 1088.636353,235.691574 1088.282593,234.427948 
	C1084.067139,219.368774 1079.908081,204.293106 1075.558105,189.272781 
	C1074.733276,186.424789 1075.525269,185.208084 1077.694824,183.158035 
	C1081.055420,179.982315 1084.614136,175.948624 1085.690308,171.674789 
	C1087.276978,165.373611 1087.425171,158.496201 1086.981079,151.945938 
	C1086.245605,141.100510 1080.220459,133.143280 1069.623413,131.498901 
	C1055.955322,129.378006 1041.976318,129.261734 1027.856201,128.262680 
	C1027.856201,166.129929 1027.856201,202.484741 1027.856201,239.194336 
	C1030.407837,239.194336 1032.553101,239.194336 1035.628418,239.194641 
M481.557739,371.509216 
	C481.557739,366.898285 481.557739,362.287323 481.557739,357.676392 
	C481.991425,357.657593 482.425140,357.638824 482.858826,357.620026 
	C483.529846,359.107880 484.240082,360.579407 484.865875,362.086060 
	C492.073486,379.438660 499.224243,396.815247 506.540833,414.121735 
	C507.207764,415.699371 508.769409,417.774292 510.170441,417.994141 
	C513.709534,418.549438 517.393921,418.178223 521.557983,418.178223 
	C521.557983,415.869293 521.558044,414.084656 521.558044,412.300049 
	C521.558044,399.474976 521.558105,386.649902 521.557983,373.824829 
	C521.557861,353.671143 521.581970,333.517334 521.518005,313.363861 
	C521.511963,311.444946 522.557312,308.584015 519.002991,308.497986 
	C514.409973,308.386780 509.812256,308.470856 504.389252,308.470856 
	C504.389252,328.011566 504.389252,346.884705 504.389252,365.757812 
	C502.480225,364.256744 501.694733,362.651733 500.985565,361.013641 
	C493.982483,344.836884 487.027405,328.639191 479.940125,312.499481 
	C479.276062,310.987244 477.919861,308.842133 476.679291,308.692139 
	C472.653778,308.205261 468.532532,308.510132 464.353851,308.510132 
	C464.353851,345.437439 464.353851,381.543762 464.353851,417.820038 
	C470.126160,417.820038 475.683502,417.820038 481.557404,417.820038 
	C481.557404,402.464081 481.557404,387.485107 481.557739,371.509216 
M590.561523,409.038910 
	C592.688293,403.700653 596.450623,398.422638 596.649902,393.013397 
	C597.390503,372.907104 597.481140,352.739288 596.773315,332.631287 
	C596.345154,320.467499 589.281006,311.883759 578.152893,310.338135 
	C564.750122,308.476471 551.080322,308.537140 537.287231,307.752014 
	C537.287231,345.258575 537.287231,381.470825 537.287231,417.743011 
	C549.522949,417.743011 561.481506,418.113495 573.401245,417.593597 
	C579.781616,417.315277 585.683105,414.662476 590.561523,409.038910 
M1101.990967,384.437317 
	C1102.362671,388.406433 1102.403442,392.440552 1103.168335,396.332397 
	C1105.433228,407.855591 1111.366699,416.444977 1123.620850,418.649933 
	C1128.783203,419.578827 1134.253784,419.808655 1139.466431,419.251862 
	C1153.905640,417.709534 1162.057495,410.998535 1163.956299,396.644287 
	C1166.926636,374.191742 1166.980469,351.480927 1163.816772,329.021484 
	C1162.081055,316.699127 1154.011108,309.840576 1142.278320,307.923676 
	C1115.815796,303.600250 1102.068359,315.217285 1101.997681,342.005890 
	C1101.961060,355.822083 1101.990967,369.638519 1101.990967,384.437317 
M649.447632,149.500214 
	C649.447632,179.257050 649.447632,209.013901 649.447632,238.799240 
	C655.604065,238.799240 661.001404,238.799240 666.922668,238.799240 
	C666.922668,218.244354 666.922668,198.064438 666.922668,177.884506 
	C668.488098,179.141495 669.228516,180.541382 669.834595,181.997192 
	C677.187744,199.656952 684.479919,217.342346 691.928589,234.961639 
	C692.607178,236.566925 694.105164,238.746628 695.482971,238.957306 
	C699.148438,239.517853 702.956238,239.147781 706.711548,239.147781 
	C706.711548,202.151398 706.711548,165.913223 706.711548,129.468506 
	C701.180725,129.468506 695.952881,129.468506 689.986572,129.468506 
	C689.986572,149.178284 689.986572,168.577850 689.986572,187.977417 
	C688.408203,186.531021 687.705322,185.041412 687.050964,183.530792 
	C679.778870,166.743973 672.559692,149.933868 665.173706,133.197357 
	C664.477966,131.620819 662.883179,129.559662 661.468018,129.353149 
	C657.754211,128.811218 653.908997,129.170197 649.447998,129.170197 
	C649.447998,135.924194 649.447998,142.212387 649.447632,149.500214 
M779.447632,354.499817 
	C779.447632,375.589661 779.447632,396.679504 779.447632,417.804810 
	C785.594055,417.804810 790.991821,417.804810 796.957031,417.804810 
	C796.957031,397.292328 796.957031,377.149109 796.957031,357.005890 
	C798.560913,358.484680 799.329468,360.078308 800.008972,361.709015 
	C807.299683,379.206543 814.543579,396.723785 821.915283,414.187103 
	C822.546204,415.681793 823.876953,417.801697 825.095764,417.957001 
	C828.935791,418.446075 832.877319,418.137268 836.771423,418.137268 
	C836.771423,381.215118 836.771423,345.127289 836.771423,308.915497 
	C831.162415,308.915497 825.802734,308.915497 819.810730,308.915497 
	C819.810730,328.623901 819.810730,347.870636 819.810730,367.117401 
	C818.333374,365.654816 817.655273,364.144226 816.996521,362.625153 
	C809.720398,345.846039 802.495667,329.044189 795.092712,312.321259 
	C794.411255,310.782013 792.724426,308.850067 791.286255,308.647186 
	C787.586548,308.125366 783.764160,308.472717 779.447998,308.472717 
	C779.447998,323.938721 779.447998,338.719269 779.447632,354.499817 
M1188.186157,308.447845 
	C1185.272339,308.447845 1182.358398,308.447845 1179.462402,308.447845 
	C1179.462402,345.449310 1179.462402,381.539185 1179.462402,417.757996 
	C1185.150269,417.757996 1190.515625,417.757996 1196.347168,417.757996 
	C1196.347168,396.998810 1196.347168,376.657715 1196.347168,356.316620 
	C1197.812012,357.624298 1198.486084,359.084747 1199.103149,360.568817 
	C1206.511475,378.387299 1213.857300,396.232361 1221.403442,413.992249 
	C1222.110596,415.656677 1223.904785,417.695221 1225.481201,417.981598 
	C1228.846313,418.593079 1232.399658,418.168732 1236.212036,418.168732 
	C1236.212036,381.517029 1236.212036,345.300598 1236.212036,308.806519 
	C1230.682617,308.806519 1225.463623,308.806519 1219.819092,308.806519 
	C1219.819092,318.803314 1219.819214,328.447052 1219.819214,338.090820 
	C1219.819214,347.759735 1219.819092,357.428650 1219.819092,367.097534 
	C1218.124146,365.878235 1217.457764,364.573181 1216.876465,363.231262 
	C1209.537720,346.287781 1202.156006,329.362457 1194.936035,312.368439 
	C1193.737427,309.547211 1192.258301,307.898560 1188.186157,308.447845 
M415.794220,221.540665 
	C414.921021,217.187897 413.381744,212.848389 413.294739,208.479965 
	C412.986481,192.997177 413.140594,177.504364 413.201904,162.015686 
	C413.214386,158.868195 413.364502,155.688599 413.836182,152.582260 
	C414.880219,145.706558 418.543915,142.662811 424.904572,143.036728 
	C430.928345,143.390854 433.766663,146.602997 434.027435,153.810455 
	C434.211029,158.886093 434.062927,163.973740 434.062927,169.087860 
	C441.128326,169.087860 447.337341,169.087860 453.722107,169.087860 
	C453.722107,164.153702 454.027435,159.646301 453.657990,155.194931 
	C452.909882,146.181259 450.779144,137.624954 442.438965,132.355896 
	C421.857147,119.352959 396.090576,131.370224 393.184082,155.274094 
	C392.943481,157.252991 392.850769,159.261047 392.847198,161.255844 
	C392.819733,176.578171 392.748291,191.901306 392.889557,207.222366 
	C392.924622,211.022202 393.349243,214.891418 394.181885,218.596832 
	C396.408173,228.504547 401.666290,236.250015 411.962341,238.846664 
	C423.763275,241.822861 435.491821,242.060852 445.514771,233.503586 
	C447.463287,231.840012 448.917755,229.376465 450.050507,227.017929 
	C454.454773,217.847321 454.095886,208.088913 453.617432,198.251099 
	C446.940887,198.251099 440.735138,198.251099 434.039032,198.251099 
	C434.039032,203.974030 434.111115,209.279037 434.016052,214.581039 
	C433.940979,218.769318 432.890259,222.811890 428.652618,224.488602 
	C424.267120,226.223816 419.808350,226.011795 415.794220,221.540665 
M723.827637,415.384460 
	C725.108704,408.038361 726.389771,400.692261 727.729614,393.009125 
	C733.090332,393.009125 738.063965,393.139038 743.026245,392.958160 
	C745.796753,392.857178 746.745728,393.922791 747.110474,396.601288 
	C747.918213,402.531342 748.991943,408.432343 750.198486,414.295593 
	C750.480957,415.668304 751.660583,417.886993 752.534363,417.939575 
	C758.086975,418.273651 763.669617,418.109436 769.668945,418.109436 
	C768.686035,413.238892 767.870422,409.171967 767.044189,405.107147 
	C760.752319,374.150208 754.407471,343.203766 748.248108,312.220490 
	C747.664429,309.284424 746.551086,308.288910 743.703003,308.420746 
	C740.047607,308.589935 736.340027,308.792908 732.724426,308.377014 
	C727.786560,307.808990 725.902710,309.666656 724.984375,314.563080 
	C721.367676,333.846161 717.271851,353.039215 713.380981,372.271149 
	C710.326965,387.366547 707.312866,402.469971 704.164673,418.149353 
	C710.189331,418.149353 715.652161,418.231934 721.107239,418.063263 
	C721.956848,418.037018 722.770996,416.864838 723.827637,415.384460 
M1004.240051,415.852570 
	C1003.169434,410.468048 1002.112183,405.080841 1001.026062,399.699432 
	C995.235168,371.005798 989.357666,342.329163 983.731018,313.603363 
	C982.932922,309.528870 981.390381,307.968170 977.206604,308.375793 
	C973.247070,308.761566 969.214905,308.592010 965.225525,308.418182 
	C962.357971,308.293243 961.273743,309.318878 960.696899,312.234955 
	C955.888306,336.546539 950.868652,360.816406 945.918030,385.099915 
	C943.708679,395.937408 941.511353,406.777313 939.242371,417.941925 
	C941.374634,418.039246 942.849670,418.185364 944.321655,418.159027 
	C948.802734,418.078888 954.602722,419.577362 957.387329,417.343109 
	C960.106201,415.161560 959.760620,409.145172 960.724854,404.804382 
	C960.940552,403.833130 960.981445,402.824371 961.148926,401.840759 
	C962.653137,393.006500 962.656189,393.007019 971.859253,393.007019 
	C973.524658,393.007050 975.207153,393.159332 976.851929,392.975433 
	C980.215088,392.599426 981.861023,393.456207 982.305786,397.339081 
	C983.094543,404.225677 984.688904,411.019989 986.000977,418.150513 
	C991.680664,418.150513 996.991577,418.204926 1002.298645,418.084869 
	C1002.997070,418.069092 1003.675354,417.161743 1004.240051,415.852570 
M445.610229,374.726257 
	C441.412933,354.024628 437.207794,333.324585 433.030090,312.619019 
	C432.593597,310.455566 432.458862,308.345062 429.298553,308.426483 
	C423.342163,308.580048 417.379059,308.470825 411.084015,308.470825 
	C403.638092,345.105896 396.271576,381.350281 388.850037,417.865295 
	C395.607056,417.865295 401.687927,417.865295 407.923676,417.865295 
	C409.460114,409.475616 410.947693,401.352844 412.437805,393.216125 
	C418.880890,393.216125 424.836792,393.216125 431.101227,393.216125 
	C432.404236,400.555542 433.577301,407.770233 435.058746,414.920990 
	C435.311035,416.138794 436.833191,417.947571 437.856262,418.008270 
	C443.127594,418.321289 448.427460,418.153503 454.335114,418.153503 
	C451.411255,403.519348 448.617188,389.534882 445.610229,374.726257 
M602.691284,129.154144 
	C597.606262,128.131821 595.922424,130.638092 595.035095,135.381424 
	C591.730896,153.045441 588.022095,170.633881 584.456055,188.248825 
	C581.061462,205.016464 577.655396,221.781799 574.127441,239.173950 
	C577.093567,239.173950 579.557495,239.173828 582.021423,239.173965 
	C593.202515,239.174576 593.202515,239.174606 595.183533,227.958115 
	C597.805176,213.114502 597.802490,213.182098 613.027161,213.786652 
	C615.725281,213.893814 616.735657,214.723541 617.139282,217.437454 
	C618.208435,224.625381 619.650452,231.757889 620.932556,238.849060 
	C627.401794,238.849060 633.328186,238.849060 639.473022,238.849060 
	C639.186646,236.867004 639.031128,235.217896 638.702820,233.603928 
	C632.566284,203.434357 626.415405,173.267700 620.249878,143.104050 
	C619.351807,138.710510 619.754089,132.604736 617.038330,130.421860 
	C614.119446,128.075714 608.234192,129.420105 602.691284,129.154144 
M843.217773,233.599960 
	C843.003662,235.329529 842.789612,237.059097 842.528015,239.172302 
	C847.837769,239.172302 852.659363,238.961288 857.451843,239.244522 
	C860.795532,239.442123 861.704041,237.979126 862.110718,234.999207 
	C862.874817,229.399948 864.204590,223.877182 864.947571,218.275986 
	C865.371216,215.082428 866.429871,213.504028 869.932068,213.785843 
	C873.407043,214.065491 876.930481,213.996323 880.417053,213.801559 
	C883.407166,213.634537 884.822449,214.423996 885.264343,217.749374 
	C886.202087,224.805817 887.705505,231.787094 888.973083,238.777756 
	C895.397644,238.777756 901.432800,238.777756 907.747498,238.777756 
	C901.303955,206.885483 894.990479,175.421326 888.549927,143.983200 
	C887.537842,139.042892 887.413025,132.230240 884.227478,129.887711 
	C880.849365,127.403664 874.298767,129.410522 869.156860,129.087204 
	C865.679138,128.868515 864.311035,129.944168 863.597534,133.524979 
	C856.999512,166.638077 850.172729,199.705582 843.217773,233.599960 
M662.094910,341.077362 
	C661.441406,339.201691 660.502991,337.372803 660.185547,335.441895 
	C659.047974,328.520630 661.875732,323.793823 667.517151,322.787750 
	C673.717957,321.681854 677.616333,324.888641 678.947449,332.282043 
	C679.408325,334.842133 679.703613,337.432068 680.139648,340.461060 
	C686.049194,339.283630 691.381409,338.221191 696.604797,337.180450 
	C697.816345,320.916718 688.532776,309.162170 673.385071,307.325012 
	C651.975708,304.728455 637.932129,319.524933 641.434204,340.771301 
	C642.784241,348.961578 647.061707,355.240051 653.078247,360.567566 
	C659.188416,365.977814 665.378601,371.297638 671.484985,376.712036 
	C676.436340,381.102203 679.351868,386.594391 679.780090,393.238983 
	C680.110901,398.372040 677.616943,402.567535 673.810120,403.723541 
	C669.059448,405.166138 664.013794,403.083496 661.852661,398.056152 
	C660.368896,394.604706 659.823242,390.741913 658.945190,387.042328 
	C658.620483,385.674042 658.544312,384.246765 658.293213,382.391113 
	C652.236084,383.655090 646.752991,384.799255 641.386108,385.919189 
	C639.754639,405.320312 651.291809,418.809387 669.993042,419.822235 
	C686.972900,420.741852 698.989929,409.212616 699.035095,392.193573 
	C699.071045,378.668335 691.905518,369.049194 682.519043,360.468109 
	C675.770630,354.298676 669.158752,347.979858 662.094910,341.077362 
M990.557739,208.499252 
	C990.558044,203.835190 990.787537,199.156433 990.489441,194.511520 
	C990.230408,190.475113 991.413147,188.788498 995.723999,189.101974 
	C1000.640747,189.459518 1005.603455,189.184708 1010.703979,189.184708 
	C1010.703979,184.178223 1010.703979,179.787811 1010.703979,174.909653 
	C1003.980713,174.909653 997.559631,174.909653 990.958740,174.909653 
	C990.958740,164.384811 990.958740,154.355164 990.958740,143.739548 
	C999.575256,143.739548 1007.804382,143.739548 1016.139038,143.739548 
	C1016.139038,138.587585 1016.139038,134.030212 1016.139038,129.558197 
	C1000.654785,129.558197 985.593079,129.558197 970.473755,129.558197 
	C970.473755,166.204483 970.473755,202.435135 970.473755,238.790283 
	C986.011658,238.790283 1001.216248,238.790283 1016.517883,238.790283 
	C1016.517883,234.156113 1016.517883,229.920349 1016.517883,225.046539 
	C1007.797607,225.046539 999.403259,225.046539 990.557373,225.046539 
	C990.557373,219.437729 990.557373,214.467773 990.557739,208.499252 
M564.385559,239.168213 
	C565.830200,239.061935 567.274780,238.955658 568.884155,238.837265 
	C568.884155,234.255859 568.884155,230.010971 568.884155,225.144653 
	C560.226624,225.144653 551.833374,225.144653 543.442017,225.144653 
	C543.442017,212.823898 543.442017,201.131363 543.442017,188.922989 
	C550.283081,188.922989 556.691040,188.922989 563.097351,188.922989 
	C563.097351,184.009720 563.097351,179.637619 563.097351,174.818695 
	C556.239136,174.818695 549.811523,174.818695 543.360107,174.818695 
	C543.360107,164.299271 543.360107,154.238724 543.360107,143.714844 
	C551.973389,143.714844 560.238281,143.714844 568.656860,143.714844 
	C568.656860,138.693130 568.656860,134.145386 568.656860,129.573090 
	C553.262756,129.573090 538.218689,129.573090 523.176819,129.573090 
	C523.176819,166.230194 523.176819,202.472519 523.176819,239.168716 
	C536.813416,239.168716 550.108887,239.168716 564.385559,239.168213 
M881.136353,319.222198 
	C880.684082,322.360992 881.819153,323.864502 885.204163,323.610413 
	C888.018066,323.399200 890.891174,323.833740 893.683655,323.511230 
	C898.314331,322.976379 899.559814,324.787842 899.527161,329.342407 
	C899.330444,356.807648 899.429626,384.274994 899.429871,411.741638 
	C899.429871,413.700775 899.429932,415.659882 899.429932,417.831482 
	C906.470642,417.831482 913.003784,417.831482 920.156189,417.831482 
	C920.156189,386.274628 920.156189,355.089417 920.156189,323.570160 
	C923.098145,323.570160 925.417053,323.570618 927.735962,323.570038 
	C937.685242,323.567688 937.511108,323.565063 937.657593,313.446045 
	C937.714111,309.544556 936.616943,308.285309 932.612122,308.341797 
	C917.133972,308.560059 901.650940,308.420135 886.169739,308.446259 
	C884.582947,308.448944 882.996582,308.669952 881.135803,308.810333 
	C881.135803,312.333405 881.135803,315.316895 881.136353,319.222198 
M1043.643921,323.674927 
	C1045.473511,323.640015 1047.303101,323.577332 1049.132690,323.574738 
	C1059.962158,323.559265 1059.825317,323.566132 1059.649414,312.553467 
	C1059.595337,309.164215 1058.354370,308.352753 1055.222900,308.377380 
	C1040.079102,308.496490 1024.934082,308.430389 1009.789490,308.429932 
	C1007.667358,308.429871 1005.545227,308.429901 1003.366577,308.429901 
	C1003.366577,313.758606 1003.366577,318.457825 1003.366577,323.570770 
	C1007.720764,323.570770 1011.717590,323.852905 1015.656799,323.497009 
	C1020.240173,323.082916 1021.564392,324.709686 1021.530212,329.312805 
	C1021.326233,356.771240 1021.429626,384.231995 1021.429871,411.691956 
	C1021.429871,413.657318 1021.429932,415.622681 1021.429932,417.857697 
	C1028.434204,417.857697 1034.974243,417.857697 1041.864380,417.857697 
	C1041.864380,415.694977 1041.864380,413.880341 1041.864380,412.065704 
	C1041.864380,384.605743 1041.847900,357.145721 1041.900513,329.685852 
	C1041.904175,327.767426 1042.421997,325.849945 1043.643921,323.674927 
M944.856445,184.500031 
	C944.856445,171.206696 944.856445,157.913361 944.856445,144.042969 
	C951.068970,144.042969 956.661743,144.042969 962.214233,144.042969 
	C962.214233,138.849228 962.214233,134.245621 962.214233,129.482391 
	C943.475037,129.482391 925.081055,129.482391 906.416382,129.482391 
	C906.416382,134.420639 906.416382,139.022614 906.416382,144.239990 
	C912.274719,144.239990 918.019226,144.239990 924.329834,144.239990 
	C924.329834,176.095032 924.329834,207.345062 924.329834,238.823517 
	C931.455078,238.823517 937.993225,238.823517 944.856384,238.823517 
	C944.856384,220.800003 944.856384,203.150024 944.856445,184.500031 
M487.001648,140.526489 
	C487.001648,136.912674 487.001648,133.298859 487.001648,129.516006 
	C480.037384,129.516006 473.655884,129.516006 467.268433,129.516006 
	C467.268433,166.213364 467.268433,202.554260 467.268433,238.750854 
	C482.760406,238.750854 497.813934,238.750854 512.792297,238.750854 
	C512.792297,234.089447 512.792297,229.849823 512.792297,224.995392 
	C504.051239,224.995392 495.669006,224.995392 487.001648,224.995392 
	C487.001648,196.750900 487.001648,169.134171 487.001648,140.526489 
M852.998413,320.521179 
	C852.998413,352.924347 852.998413,385.327545 852.998413,417.751221 
	C860.000366,417.751221 866.366333,417.751221 872.797485,417.751221 
	C872.797485,381.253967 872.797485,345.172791 872.797485,308.789124 
	C866.187866,308.789124 859.782715,308.789124 852.998413,308.789124 
	C852.998413,312.581238 852.998413,316.056946 852.998413,320.521179 
M1087.845825,322.509277 
	C1087.845825,318.051544 1087.845825,313.593842 1087.845825,308.876709 
	C1080.992188,308.876709 1074.636719,308.876709 1068.385010,308.876709 
	C1068.385010,345.500183 1068.385010,381.703796 1068.385010,417.751221 
	C1075.013672,417.751221 1081.242310,417.751221 1087.845825,417.751221 
	C1087.845825,386.055542 1087.845825,354.781006 1087.845825,322.509277 
z"/>
<path fill="#FEFFFF" opacity="1.000000" stroke="none" 
	d="
M889.000000,604.161377 
	C933.493591,604.161377 977.487244,604.158020 1021.480835,604.164429 
	C1029.843018,604.165649 1031.755981,606.599976 1030.471558,614.867371 
	C1022.933655,663.387512 1015.477417,711.920410 1007.961609,760.444031 
	C999.452576,815.380798 990.897461,870.310486 982.385681,925.246887 
	C975.249756,971.303711 968.144043,1017.365234 961.030945,1063.425537 
	C955.671021,1098.133301 950.331299,1132.844116 944.954346,1167.549194 
	C944.148499,1172.750732 942.262329,1174.158325 936.272278,1174.160400 
	C900.944092,1174.173218 865.615845,1174.158203 830.287659,1174.173584 
	C822.135437,1174.177124 823.498657,1173.618042 822.875183,1180.962769 
	C820.720154,1206.347534 818.479309,1231.725220 816.288147,1257.107056 
	C816.089233,1259.411255 816.012268,1261.726074 815.846069,1264.598389 
	C831.553162,1264.598389 846.898560,1264.598389 862.001648,1264.598389 
	C825.157043,1301.445068 788.468811,1338.135376 752.174866,1374.431519 
	C716.040222,1338.292480 679.466614,1301.714355 642.641357,1264.884644 
	C657.734985,1264.884644 673.071594,1264.884644 688.861877,1264.884644 
	C686.256042,1234.320923 683.714844,1204.514771 681.127441,1174.166992 
	C678.727600,1174.166992 676.769409,1174.166870 674.811157,1174.166870 
	C640.316162,1174.166870 605.821167,1174.170044 571.326172,1174.164673 
	C563.763672,1174.163574 562.390320,1172.991333 561.174744,1165.642334 
	C546.535645,1077.135986 531.891785,988.630432 517.255249,900.123657 
	C501.586456,805.375122 485.923523,710.625610 470.260162,615.876160 
	C468.665985,606.232788 470.403381,604.161987 480.076202,604.161926 
	C616.217468,604.161011 752.358704,604.161316 889.000000,604.161377 
M585.359009,726.937683 
	C596.664917,722.997009 607.923096,718.912109 619.286499,715.144897 
	C644.740479,706.706482 669.650269,710.478149 694.130005,719.241272 
	C716.051819,727.088684 737.540466,736.227539 759.685059,743.351868 
	C792.950745,754.054077 827.059692,757.242493 861.764709,751.010254 
	C887.135193,746.454224 911.315979,738.063110 935.077148,728.394836 
	C953.168701,721.033508 971.383789,716.324890 991.315552,723.152771 
	C996.451233,691.615051 1001.517151,660.506165 1006.662170,628.910889 
	C835.415466,628.910889 664.899780,628.910889 493.983307,628.910889 
	C501.191162,665.826660 508.318420,702.329468 515.474548,738.980408 
	C539.652710,739.296692 562.309509,734.348633 585.359009,726.937683 
M759.465515,1075.411011 
	C764.097290,1074.948364 768.773621,1074.750732 773.353943,1073.981445 
	C813.175964,1067.293701 842.865845,1032.997070 844.011414,992.557495 
	C844.693909,968.462036 837.673584,946.506653 824.846680,926.450684 
	C804.309998,894.339722 783.338074,862.507141 762.533447,830.567749 
	C759.206726,825.460510 755.792969,820.409851 752.153870,814.933533 
	C751.147644,816.196960 750.488586,816.898926 749.970642,817.692810 
	C726.232056,854.081238 702.420227,890.422302 678.818237,926.899170 
	C668.823242,942.346558 663.015991,959.368347 660.452942,977.632202 
	C654.542786,1019.746216 681.016418,1060.450073 721.851318,1072.089600 
	C733.929688,1075.532471 746.198303,1075.103271 759.465515,1075.411011 
z"/>
<path fill="#FEFFFF" opacity="1.000000" stroke="none" 
	d="
M214.836426,179.522720 
	C212.355774,171.212585 206.418900,168.367172 198.785416,168.020126 
	C190.783127,167.656326 183.898514,170.114120 180.966660,178.009048 
	C178.621719,184.323502 176.726349,191.108704 176.332001,197.785400 
	C175.252808,216.056854 175.071274,234.381317 175.036804,252.984421 
	C181.842896,245.635635 190.035751,241.224869 199.522400,239.632736 
	C220.531891,236.106781 240.308578,238.123093 255.531219,255.103149 
	C264.796753,265.438354 269.163574,278.328979 271.357086,291.797791 
	C276.197937,321.521851 275.125000,350.885834 264.213196,379.327423 
	C254.225647,405.360016 234.420090,417.901855 207.240997,420.055267 
	C193.661636,421.131134 180.260300,420.477692 167.290833,415.956879 
	C145.056595,408.206604 132.971725,391.230896 125.793549,369.882446 
	C120.792953,355.010284 119.559448,339.590820 119.502823,324.062378 
	C119.383728,291.400604 119.344093,258.737427 119.511436,226.076096 
	C119.615906,205.687897 121.348457,185.533844 128.932693,166.244568 
	C137.465805,144.541962 152.925690,131.612137 175.951263,127.712898 
	C192.586792,124.895775 209.146637,125.154953 225.520065,129.248871 
	C245.178467,134.164139 258.117188,146.406876 264.476532,165.709915 
	C268.492615,177.900375 269.316010,190.434906 269.353851,203.479141 
	C252.120636,203.479141 235.054413,203.479141 218.030426,203.479141 
	C216.998062,195.600128 215.970169,187.755325 214.836426,179.522720 
M195.718842,379.407013 
	C206.891724,379.454437 212.410385,375.637146 215.114792,364.737244 
	C216.784424,358.007843 218.105804,350.993988 218.147705,344.099091 
	C218.241455,328.674774 218.425644,313.134216 216.712982,297.849426 
	C215.087387,283.341766 203.034927,276.692047 189.656357,281.713837 
	C185.325073,283.339569 181.386642,286.576538 177.957565,289.807739 
	C176.191544,291.471893 175.179916,294.727203 175.129349,297.289215 
	C174.860107,310.929504 174.530289,324.600098 175.169357,338.215698 
	C175.593933,347.261658 176.908035,356.409424 179.121063,365.184479 
	C181.043991,372.809204 186.319656,378.232941 195.718842,379.407013 
z"/>
<path fill="#FBFEFE" opacity="1.000000" stroke="none" 
	d="
M767.243042,129.424026 
	C769.432556,142.261978 771.251343,154.927032 772.984253,167.603821 
	C774.185852,176.394257 775.269165,185.200851 776.405396,194.000244 
	C776.848938,194.007233 777.292419,194.014236 777.735962,194.021240 
	C779.130371,185.805618 780.544556,177.593292 781.914551,169.373596 
	C783.938599,157.229813 786.040039,145.097046 787.859741,132.922394 
	C788.304993,129.943741 789.463135,129.131149 792.337036,129.086807 
	C802.219055,128.934280 802.214661,128.829102 803.873779,138.769974 
	C806.639771,155.343384 809.399292,171.917892 812.192566,188.486725 
	C812.508667,190.362091 813.024536,192.203796 814.615967,194.073013 
	C817.381653,172.612946 820.147400,151.152878 822.944519,129.448639 
	C828.512085,129.448639 833.740173,129.448639 839.672241,129.448639 
	C834.433960,166.102310 829.243225,202.423050 823.993042,239.160034 
	C819.155090,239.160034 814.665955,239.399475 810.235596,238.995102 
	C809.099426,238.891403 807.453735,236.878006 807.217102,235.534927 
	C803.694580,215.545135 800.374207,195.519745 796.991028,175.505295 
	C796.662415,173.561035 796.234253,171.633575 795.111938,169.678833 
	C793.072083,181.744141 791.026550,193.808487 788.994202,205.875031 
	C787.308960,215.880981 785.734619,225.907639 783.842834,235.874176 
	C783.604431,237.130203 781.803406,238.914764 780.604797,239.016129 
	C776.160034,239.392014 771.664429,239.165878 766.713318,239.165878 
	C761.470032,202.480057 756.275940,166.138794 751.004517,129.256119 
	C756.592163,129.256119 761.713928,129.256119 767.243042,129.424026 
z"/>
<path fill="#F9FDFE" opacity="1.000000" stroke="none" 
	d="
M1035.163452,239.194489 
	C1032.553101,239.194336 1030.407837,239.194336 1027.856201,239.194336 
	C1027.856201,202.484741 1027.856201,166.129929 1027.856201,128.262680 
	C1041.976318,129.261734 1055.955322,129.378006 1069.623413,131.498901 
	C1080.220459,133.143280 1086.245605,141.100510 1086.981079,151.945938 
	C1087.425171,158.496201 1087.276978,165.373611 1085.690308,171.674789 
	C1084.614136,175.948624 1081.055420,179.982315 1077.694824,183.158035 
	C1075.525269,185.208084 1074.733276,186.424789 1075.558105,189.272781 
	C1079.908081,204.293106 1084.067139,219.368774 1088.282593,234.427948 
	C1088.636353,235.691574 1088.920166,236.974762 1089.459351,239.146179 
	C1082.985962,239.146179 1076.910278,239.334976 1070.869629,238.958740 
	C1069.873047,238.896667 1068.597168,236.475494 1068.184692,234.946457 
	C1064.457275,221.134506 1060.867798,207.285019 1057.306763,193.428772 
	C1056.692871,191.040161 1056.186768,189.207901 1052.963989,189.092850 
	C1048.969482,188.950226 1047.379028,189.984283 1047.463501,194.309570 
	C1047.717285,207.301163 1047.553467,220.300934 1047.552734,233.297501 
	C1047.552612,235.082840 1047.552612,236.868195 1047.552612,239.194641 
	C1043.218262,239.194641 1039.423340,239.194641 1035.163452,239.194489 
M1068.402466,157.003036 
	C1067.012573,145.266357 1060.774048,141.204483 1047.851440,143.809601 
	C1047.851440,154.434921 1047.851440,165.104523 1047.851440,176.033051 
	C1050.219238,176.033051 1052.193359,176.116867 1054.158569,176.018814 
	C1063.590088,175.548187 1067.318970,172.064865 1068.304199,162.802490 
	C1068.479004,161.158844 1068.438354,159.492279 1068.402466,157.003036 
z"/>
<path fill="#F8FDFE" opacity="1.000000" stroke="none" 
	d="
M481.557556,372.007660 
	C481.557404,387.485107 481.557404,402.464081 481.557404,417.820038 
	C475.683502,417.820038 470.126160,417.820038 464.353851,417.820038 
	C464.353851,381.543762 464.353851,345.437439 464.353851,308.510132 
	C468.532532,308.510132 472.653778,308.205261 476.679291,308.692139 
	C477.919861,308.842133 479.276062,310.987244 479.940125,312.499481 
	C487.027405,328.639191 493.982483,344.836884 500.985565,361.013641 
	C501.694733,362.651733 502.480225,364.256744 504.389252,365.757812 
	C504.389252,346.884705 504.389252,328.011566 504.389252,308.470856 
	C509.812256,308.470856 514.409973,308.386780 519.002991,308.497986 
	C522.557312,308.584015 521.511963,311.444946 521.518005,313.363861 
	C521.581970,333.517334 521.557861,353.671143 521.557983,373.824829 
	C521.558105,386.649902 521.558044,399.474976 521.558044,412.300049 
	C521.558044,414.084656 521.557983,415.869293 521.557983,418.178223 
	C517.393921,418.178223 513.709534,418.549438 510.170441,417.994141 
	C508.769409,417.774292 507.207764,415.699371 506.540833,414.121735 
	C499.224243,396.815247 492.073486,379.438660 484.865875,362.086060 
	C484.240082,360.579407 483.529846,359.107880 482.858826,357.620026 
	C482.425140,357.638824 481.991425,357.657593 481.557739,357.676392 
	C481.557739,362.287323 481.557739,366.898285 481.557556,372.007660 
z"/>
<path fill="#FCFEFF" opacity="1.000000" stroke="none" 
	d="
M590.321960,409.306396 
	C585.683105,414.662476 579.781616,417.315277 573.401245,417.593597 
	C561.481506,418.113495 549.522949,417.743011 537.287231,417.743011 
	C537.287231,381.470825 537.287231,345.258575 537.287231,307.752014 
	C551.080322,308.537140 564.750122,308.476471 578.152893,310.338135 
	C589.281006,311.883759 596.345154,320.467499 596.773315,332.631287 
	C597.481140,352.739288 597.390503,372.907104 596.649902,393.013397 
	C596.450623,398.422638 592.688293,403.700653 590.321960,409.306396 
M575.529297,397.629120 
	C576.017334,393.688934 576.884888,389.752747 576.926636,385.807831 
	C577.090332,370.338501 577.015625,354.866302 576.969788,339.395355 
	C576.962952,337.079468 576.831726,334.729431 576.421631,332.455841 
	C575.323425,326.366333 572.644653,323.835999 566.467957,323.223694 
	C563.559448,322.935364 560.598694,323.174255 557.531006,323.174255 
	C557.531006,350.292969 557.531006,376.968994 557.531006,404.037140 
	C564.184143,403.633453 571.093201,405.614258 575.529297,397.629120 
z"/>
<path fill="#FBFEFE" opacity="1.000000" stroke="none" 
	d="
M1101.990967,383.946075 
	C1101.990967,369.638519 1101.961060,355.822083 1101.997681,342.005890 
	C1102.068359,315.217285 1115.815796,303.600250 1142.278320,307.923676 
	C1154.011108,309.840576 1162.081055,316.699127 1163.816772,329.021484 
	C1166.980469,351.480927 1166.926636,374.191742 1163.956299,396.644287 
	C1162.057495,410.998535 1153.905640,417.709534 1139.466431,419.251862 
	C1134.253784,419.808655 1128.783203,419.578827 1123.620850,418.649933 
	C1111.366699,416.444977 1105.433228,407.855591 1103.168335,396.332397 
	C1102.403442,392.440552 1102.362671,388.406433 1101.990967,383.946075 
M1144.991699,353.500275 
	C1144.927368,347.014526 1145.125244,340.511993 1144.710693,334.048706 
	C1144.411255,329.378418 1143.478027,324.672546 1137.996216,322.892914 
	C1129.774292,320.223724 1123.243652,324.132355 1123.010132,332.819458 
	C1122.523438,350.936035 1122.641113,369.069397 1122.570190,387.196075 
	C1122.559692,389.849182 1122.703247,392.528503 1123.078491,395.152344 
	C1123.960938,401.323334 1127.460083,404.454010 1133.361084,404.620117 
	C1139.348755,404.788635 1142.978027,401.985413 1144.141602,395.846466 
	C1144.725098,392.767456 1144.926880,389.579926 1144.955078,386.438385 
	C1145.050659,375.793060 1144.991699,365.146362 1144.991699,353.500275 
z"/>
<path fill="#F9FDFE" opacity="1.000000" stroke="none" 
	d="
M649.447815,149.000397 
	C649.447998,142.212387 649.447998,135.924194 649.447998,129.170197 
	C653.908997,129.170197 657.754211,128.811218 661.468018,129.353149 
	C662.883179,129.559662 664.477966,131.620819 665.173706,133.197357 
	C672.559692,149.933868 679.778870,166.743973 687.050964,183.530792 
	C687.705322,185.041412 688.408203,186.531021 689.986572,187.977417 
	C689.986572,168.577850 689.986572,149.178284 689.986572,129.468506 
	C695.952881,129.468506 701.180725,129.468506 706.711548,129.468506 
	C706.711548,165.913223 706.711548,202.151398 706.711548,239.147781 
	C702.956238,239.147781 699.148438,239.517853 695.482971,238.957306 
	C694.105164,238.746628 692.607178,236.566925 691.928589,234.961639 
	C684.479919,217.342346 677.187744,199.656952 669.834595,181.997192 
	C669.228516,180.541382 668.488098,179.141495 666.922668,177.884506 
	C666.922668,198.064438 666.922668,218.244354 666.922668,238.799240 
	C661.001404,238.799240 655.604065,238.799240 649.447632,238.799240 
	C649.447632,209.013901 649.447632,179.257050 649.447815,149.000397 
z"/>
<path fill="#F9FDFE" opacity="1.000000" stroke="none" 
	d="
M779.447815,353.999817 
	C779.447998,338.719269 779.447998,323.938721 779.447998,308.472717 
	C783.764160,308.472717 787.586548,308.125366 791.286255,308.647186 
	C792.724426,308.850067 794.411255,310.782013 795.092712,312.321259 
	C802.495667,329.044189 809.720398,345.846039 816.996521,362.625153 
	C817.655273,364.144226 818.333374,365.654816 819.810730,367.117401 
	C819.810730,347.870636 819.810730,328.623901 819.810730,308.915497 
	C825.802734,308.915497 831.162415,308.915497 836.771423,308.915497 
	C836.771423,345.127289 836.771423,381.215118 836.771423,418.137268 
	C832.877319,418.137268 828.935791,418.446075 825.095764,417.957001 
	C823.876953,417.801697 822.546204,415.681793 821.915283,414.187103 
	C814.543579,396.723785 807.299683,379.206543 800.008972,361.709015 
	C799.329468,360.078308 798.560913,358.484680 796.957031,357.005890 
	C796.957031,377.149109 796.957031,397.292328 796.957031,417.804810 
	C790.991821,417.804810 785.594055,417.804810 779.447632,417.804810 
	C779.447632,396.679504 779.447632,375.589661 779.447815,353.999817 
z"/>
<path fill="#F9FDFE" opacity="1.000000" stroke="none" 
	d="
M1188.620239,308.448486 
	C1192.258301,307.898560 1193.737427,309.547211 1194.936035,312.368439 
	C1202.156006,329.362457 1209.537720,346.287781 1216.876465,363.231262 
	C1217.457764,364.573181 1218.124146,365.878235 1219.819092,367.097534 
	C1219.819092,357.428650 1219.819214,347.759735 1219.819214,338.090820 
	C1219.819214,328.447052 1219.819092,318.803314 1219.819092,308.806519 
	C1225.463623,308.806519 1230.682617,308.806519 1236.212036,308.806519 
	C1236.212036,345.300598 1236.212036,381.517029 1236.212036,418.168732 
	C1232.399658,418.168732 1228.846313,418.593079 1225.481201,417.981598 
	C1223.904785,417.695221 1222.110596,415.656677 1221.403442,413.992249 
	C1213.857300,396.232361 1206.511475,378.387299 1199.103149,360.568817 
	C1198.486084,359.084747 1197.812012,357.624298 1196.347168,356.316620 
	C1196.347168,376.657715 1196.347168,396.998810 1196.347168,417.757996 
	C1190.515625,417.757996 1185.150269,417.757996 1179.462402,417.757996 
	C1179.462402,381.539185 1179.462402,345.449310 1179.462402,308.447845 
	C1182.358398,308.447845 1185.272339,308.447845 1188.620239,308.448486 
z"/>
<path fill="#FCFEFF" opacity="1.000000" stroke="none" 
	d="
M416.008240,221.879730 
	C419.808350,226.011795 424.267120,226.223816 428.652618,224.488602 
	C432.890259,222.811890 433.940979,218.769318 434.016052,214.581039 
	C434.111115,209.279037 434.039032,203.974030 434.039032,198.251099 
	C440.735138,198.251099 446.940887,198.251099 453.617432,198.251099 
	C454.095886,208.088913 454.454773,217.847321 450.050507,227.017929 
	C448.917755,229.376465 447.463287,231.840012 445.514771,233.503586 
	C435.491821,242.060852 423.763275,241.822861 411.962341,238.846664 
	C401.666290,236.250015 396.408173,228.504547 394.181885,218.596832 
	C393.349243,214.891418 392.924622,211.022202 392.889557,207.222366 
	C392.748291,191.901306 392.819733,176.578171 392.847198,161.255844 
	C392.850769,159.261047 392.943481,157.252991 393.184082,155.274094 
	C396.090576,131.370224 421.857147,119.352959 442.438965,132.355896 
	C450.779144,137.624954 452.909882,146.181259 453.657990,155.194931 
	C454.027435,159.646301 453.722107,164.153702 453.722107,169.087860 
	C447.337341,169.087860 441.128326,169.087860 434.062927,169.087860 
	C434.062927,163.973740 434.211029,158.886093 434.027435,153.810455 
	C433.766663,146.602997 430.928345,143.390854 424.904572,143.036728 
	C418.543915,142.662811 414.880219,145.706558 413.836182,152.582260 
	C413.364502,155.688599 413.214386,158.868195 413.201904,162.015686 
	C413.140594,177.504364 412.986481,192.997177 413.294739,208.479965 
	C413.381744,212.848389 414.921021,217.187897 416.008240,221.879730 
z"/>
<path fill="#FCFEFF" opacity="1.000000" stroke="none" 
	d="
M723.714600,415.803528 
	C722.770996,416.864838 721.956848,418.037018 721.107239,418.063263 
	C715.652161,418.231934 710.189331,418.149353 704.164673,418.149353 
	C707.312866,402.469971 710.326965,387.366547 713.380981,372.271149 
	C717.271851,353.039215 721.367676,333.846161 724.984375,314.563080 
	C725.902710,309.666656 727.786560,307.808990 732.724426,308.377014 
	C736.340027,308.792908 740.047607,308.589935 743.703003,308.420746 
	C746.551086,308.288910 747.664429,309.284424 748.248108,312.220490 
	C754.407471,343.203766 760.752319,374.150208 767.044189,405.107147 
	C767.870422,409.171967 768.686035,413.238892 769.668945,418.109436 
	C763.669617,418.109436 758.086975,418.273651 752.534363,417.939575 
	C751.660583,417.886993 750.480957,415.668304 750.198486,414.295593 
	C748.991943,408.432343 747.918213,402.531342 747.110474,396.601288 
	C746.745728,393.922791 745.796753,392.857178 743.026245,392.958160 
	C738.063965,393.139038 733.090332,393.009125 727.729614,393.009125 
	C726.389771,400.692261 725.108704,408.038361 723.714600,415.803528 
M733.363953,357.859070 
	C732.237000,365.008698 731.110046,372.158356 729.954407,379.489746 
	C734.954163,379.489746 739.336670,379.489746 744.205017,379.489746 
	C741.962646,365.741180 739.791992,352.432739 737.621399,339.124329 
	C737.247925,339.117767 736.874451,339.111237 736.500977,339.104675 
	C735.519470,345.072876 734.537964,351.041046 733.363953,357.859070 
z"/>
<path fill="#FCFEFF" opacity="1.000000" stroke="none" 
	d="
M1004.301514,416.259949 
	C1003.675354,417.161743 1002.997070,418.069092 1002.298645,418.084869 
	C996.991577,418.204926 991.680664,418.150513 986.000977,418.150513 
	C984.688904,411.019989 983.094543,404.225677 982.305786,397.339081 
	C981.861023,393.456207 980.215088,392.599426 976.851929,392.975433 
	C975.207153,393.159332 973.524658,393.007050 971.859253,393.007019 
	C962.656189,393.007019 962.653137,393.006500 961.148926,401.840759 
	C960.981445,402.824371 960.940552,403.833130 960.724854,404.804382 
	C959.760620,409.145172 960.106201,415.161560 957.387329,417.343109 
	C954.602722,419.577362 948.802734,418.078888 944.321655,418.159027 
	C942.849670,418.185364 941.374634,418.039246 939.242371,417.941925 
	C941.511353,406.777313 943.708679,395.937408 945.918030,385.099915 
	C950.868652,360.816406 955.888306,336.546539 960.696899,312.234955 
	C961.273743,309.318878 962.357971,308.293243 965.225525,308.418182 
	C969.214905,308.592010 973.247070,308.761566 977.206604,308.375793 
	C981.390381,307.968170 982.932922,309.528870 983.731018,313.603363 
	C989.357666,342.329163 995.235168,371.005798 1001.026062,399.699432 
	C1002.112183,405.080841 1003.169434,410.468048 1004.301514,416.259949 
M974.143799,348.231720 
	C973.627441,345.021118 973.111145,341.810547 972.594849,338.599976 
	C972.271423,338.581696 971.947937,338.563416 971.624512,338.545135 
	C969.414856,352.129395 967.205261,365.713654 964.969055,379.460907 
	C970.014404,379.460907 974.383911,379.460907 979.267029,379.460907 
	C977.554504,369.026031 975.918579,359.057648 974.143799,348.231720 
z"/>
<path fill="#FCFEFF" opacity="1.000000" stroke="none" 
	d="
M445.716675,375.138336 
	C448.617188,389.534882 451.411255,403.519348 454.335114,418.153503 
	C448.427460,418.153503 443.127594,418.321289 437.856262,418.008270 
	C436.833191,417.947571 435.311035,416.138794 435.058746,414.920990 
	C433.577301,407.770233 432.404236,400.555542 431.101227,393.216125 
	C424.836792,393.216125 418.880890,393.216125 412.437805,393.216125 
	C410.947693,401.352844 409.460114,409.475616 407.923676,417.865295 
	C401.687927,417.865295 395.607056,417.865295 388.850037,417.865295 
	C396.271576,381.350281 403.638092,345.105896 411.084015,308.470825 
	C417.379059,308.470825 423.342163,308.580048 429.298553,308.426483 
	C432.458862,308.345062 432.593597,310.455566 433.030090,312.619019 
	C437.207794,333.324585 441.412933,354.024628 445.716675,375.138336 
M417.986908,358.434814 
	C416.888275,365.380219 415.789642,372.325592 414.665527,379.432098 
	C419.845062,379.432098 424.186279,379.432098 428.899292,379.432098 
	C426.591248,365.416840 424.362549,351.883179 422.133820,338.349518 
	C421.842743,338.389404 421.551636,338.429321 421.260559,338.469208 
	C420.203033,344.835419 419.145538,351.201660 417.986908,358.434814 
z"/>
<path fill="#FCFEFF" opacity="1.000000" stroke="none" 
	d="
M603.167236,129.154160 
	C608.234192,129.420105 614.119446,128.075714 617.038330,130.421860 
	C619.754089,132.604736 619.351807,138.710510 620.249878,143.104050 
	C626.415405,173.267700 632.566284,203.434357 638.702820,233.603928 
	C639.031128,235.217896 639.186646,236.867004 639.473022,238.849060 
	C633.328186,238.849060 627.401794,238.849060 620.932556,238.849060 
	C619.650452,231.757889 618.208435,224.625381 617.139282,217.437454 
	C616.735657,214.723541 615.725281,213.893814 613.027161,213.786652 
	C597.802490,213.182098 597.805176,213.114502 595.183533,227.958115 
	C593.202515,239.174606 593.202515,239.174576 582.021423,239.173965 
	C579.557495,239.173828 577.093567,239.173950 574.127441,239.173950 
	C577.655396,221.781799 581.061462,205.016464 584.456055,188.248825 
	C588.022095,170.633881 591.730896,153.045441 595.035095,135.381424 
	C595.922424,130.638092 597.606262,128.131821 603.167236,129.154160 
M608.473328,165.076279 
	C608.151978,163.231522 607.830688,161.386780 607.509338,159.542023 
	C607.193359,159.547287 606.877380,159.552551 606.561401,159.557816 
	C604.367004,173.042587 602.172668,186.527359 599.950684,200.182098 
	C604.904724,200.182098 609.294739,200.182098 614.189514,200.182098 
	C612.303955,188.450958 610.489685,177.163391 608.473328,165.076279 
z"/>
<path fill="#FCFEFF" opacity="1.000000" stroke="none" 
	d="
M843.315125,233.193146 
	C850.172729,199.705582 856.999512,166.638077 863.597534,133.524979 
	C864.311035,129.944168 865.679138,128.868515 869.156860,129.087204 
	C874.298767,129.410522 880.849365,127.403664 884.227478,129.887711 
	C887.413025,132.230240 887.537842,139.042892 888.549927,143.983200 
	C894.990479,175.421326 901.303955,206.885483 907.747498,238.777756 
	C901.432800,238.777756 895.397644,238.777756 888.973083,238.777756 
	C887.705505,231.787094 886.202087,224.805817 885.264343,217.749374 
	C884.822449,214.423996 883.407166,213.634537 880.417053,213.801559 
	C876.930481,213.996323 873.407043,214.065491 869.932068,213.785843 
	C866.429871,213.504028 865.371216,215.082428 864.947571,218.275986 
	C864.204590,223.877182 862.874817,229.399948 862.110718,234.999207 
	C861.704041,237.979126 860.795532,239.442123 857.451843,239.244522 
	C852.659363,238.961288 847.837769,239.172302 842.528015,239.172302 
	C842.789612,237.059097 843.003662,235.329529 843.315125,233.193146 
M868.741882,195.941605 
	C868.568176,197.327835 868.394470,198.714066 868.196228,200.296509 
	C873.045105,200.296509 877.323914,200.296509 882.267639,200.296509 
	C880.027710,186.447144 877.845764,172.956177 875.663818,159.465195 
	C875.324890,159.443146 874.985962,159.421082 874.647034,159.399017 
	C872.723022,171.300400 870.799011,183.201782 868.741882,195.941605 
z"/>
<path fill="#FCFEFF" opacity="1.000000" stroke="none" 
	d="
M662.290466,341.402527 
	C669.158752,347.979858 675.770630,354.298676 682.519043,360.468109 
	C691.905518,369.049194 699.071045,378.668335 699.035095,392.193573 
	C698.989929,409.212616 686.972900,420.741852 669.993042,419.822235 
	C651.291809,418.809387 639.754639,405.320312 641.386108,385.919189 
	C646.752991,384.799255 652.236084,383.655090 658.293213,382.391113 
	C658.544312,384.246765 658.620483,385.674042 658.945190,387.042328 
	C659.823242,390.741913 660.368896,394.604706 661.852661,398.056152 
	C664.013794,403.083496 669.059448,405.166138 673.810120,403.723541 
	C677.616943,402.567535 680.110901,398.372040 679.780090,393.238983 
	C679.351868,386.594391 676.436340,381.102203 671.484985,376.712036 
	C665.378601,371.297638 659.188416,365.977814 653.078247,360.567566 
	C647.061707,355.240051 642.784241,348.961578 641.434204,340.771301 
	C637.932129,319.524933 651.975708,304.728455 673.385071,307.325012 
	C688.532776,309.162170 697.816345,320.916718 696.604797,337.180450 
	C691.381409,338.221191 686.049194,339.283630 680.139648,340.461060 
	C679.703613,337.432068 679.408325,334.842133 678.947449,332.282043 
	C677.616333,324.888641 673.717957,321.681854 667.517151,322.787750 
	C661.875732,323.793823 659.047974,328.520630 660.185547,335.441895 
	C660.502991,337.372803 661.441406,339.201691 662.290466,341.402527 
z"/>
<path fill="#F8FDFE" opacity="1.000000" stroke="none" 
	d="
M990.557556,208.998535 
	C990.557373,214.467773 990.557373,219.437729 990.557373,225.046539 
	C999.403259,225.046539 1007.797607,225.046539 1016.517883,225.046539 
	C1016.517883,229.920349 1016.517883,234.156113 1016.517883,238.790283 
	C1001.216248,238.790283 986.011658,238.790283 970.473755,238.790283 
	C970.473755,202.435135 970.473755,166.204483 970.473755,129.558197 
	C985.593079,129.558197 1000.654785,129.558197 1016.139038,129.558197 
	C1016.139038,134.030212 1016.139038,138.587585 1016.139038,143.739548 
	C1007.804382,143.739548 999.575256,143.739548 990.958740,143.739548 
	C990.958740,154.355164 990.958740,164.384811 990.958740,174.909653 
	C997.559631,174.909653 1003.980713,174.909653 1010.703979,174.909653 
	C1010.703979,179.787811 1010.703979,184.178223 1010.703979,189.184708 
	C1005.603455,189.184708 1000.640747,189.459518 995.723999,189.101974 
	C991.413147,188.788498 990.230408,190.475113 990.489441,194.511520 
	C990.787537,199.156433 990.558044,203.835190 990.557556,208.998535 
z"/>
<path fill="#FEFFFF" opacity="1.000000" stroke="none" 
	d="
M563.895020,239.168457 
	C550.108887,239.168716 536.813416,239.168716 523.176819,239.168716 
	C523.176819,202.472519 523.176819,166.230194 523.176819,129.573090 
	C538.218689,129.573090 553.262756,129.573090 568.656860,129.573090 
	C568.656860,134.145386 568.656860,138.693130 568.656860,143.714844 
	C560.238281,143.714844 551.973389,143.714844 543.360107,143.714844 
	C543.360107,154.238724 543.360107,164.299271 543.360107,174.818695 
	C549.811523,174.818695 556.239136,174.818695 563.097351,174.818695 
	C563.097351,179.637619 563.097351,184.009720 563.097351,188.922989 
	C556.691040,188.922989 550.283081,188.922989 543.442017,188.922989 
	C543.442017,201.131363 543.442017,212.823898 543.442017,225.144653 
	C551.833374,225.144653 560.226624,225.144653 568.884155,225.144653 
	C568.884155,230.010971 568.884155,234.255859 568.884155,238.837265 
	C567.274780,238.955658 565.830200,239.061935 563.895020,239.168457 
z"/>
<path fill="#F6FCFE" opacity="1.000000" stroke="none" 
	d="
M881.136108,318.761292 
	C881.135803,315.316895 881.135803,312.333405 881.135803,308.810333 
	C882.996582,308.669952 884.582947,308.448944 886.169739,308.446259 
	C901.650940,308.420135 917.133972,308.560059 932.612122,308.341797 
	C936.616943,308.285309 937.714111,309.544556 937.657593,313.446045 
	C937.511108,323.565063 937.685242,323.567688 927.735962,323.570038 
	C925.417053,323.570618 923.098145,323.570160 920.156189,323.570160 
	C920.156189,355.089417 920.156189,386.274628 920.156189,417.831482 
	C913.003784,417.831482 906.470642,417.831482 899.429932,417.831482 
	C899.429932,415.659882 899.429871,413.700775 899.429871,411.741638 
	C899.429626,384.274994 899.330444,356.807648 899.527161,329.342407 
	C899.559814,324.787842 898.314331,322.976379 893.683655,323.511230 
	C890.891174,323.833740 888.018066,323.399200 885.204163,323.610413 
	C881.819153,323.864502 880.684082,322.360992 881.136108,318.761292 
z"/>
<path fill="#F6FCFE" opacity="1.000000" stroke="none" 
	d="
M1043.172363,323.803467 
	C1042.421997,325.849945 1041.904175,327.767426 1041.900513,329.685852 
	C1041.847900,357.145721 1041.864380,384.605743 1041.864380,412.065704 
	C1041.864380,413.880341 1041.864380,415.694977 1041.864380,417.857697 
	C1034.974243,417.857697 1028.434204,417.857697 1021.429932,417.857697 
	C1021.429932,415.622681 1021.429871,413.657318 1021.429871,411.691956 
	C1021.429626,384.231995 1021.326233,356.771240 1021.530212,329.312805 
	C1021.564392,324.709686 1020.240173,323.082916 1015.656799,323.497009 
	C1011.717590,323.852905 1007.720764,323.570770 1003.366577,323.570770 
	C1003.366577,318.457825 1003.366577,313.758606 1003.366577,308.429901 
	C1005.545227,308.429901 1007.667358,308.429871 1009.789490,308.429932 
	C1024.934082,308.430389 1040.079102,308.496490 1055.222900,308.377380 
	C1058.354370,308.352753 1059.595337,309.164215 1059.649414,312.553467 
	C1059.825317,323.566132 1059.962158,323.559265 1049.132690,323.574738 
	C1047.303101,323.577332 1045.473511,323.640015 1043.172363,323.803467 
z"/>
<path fill="#F8FDFE" opacity="1.000000" stroke="none" 
	d="
M944.856445,185.000031 
	C944.856384,203.150024 944.856384,220.800003 944.856384,238.823517 
	C937.993225,238.823517 931.455078,238.823517 924.329834,238.823517 
	C924.329834,207.345062 924.329834,176.095032 924.329834,144.239990 
	C918.019226,144.239990 912.274719,144.239990 906.416382,144.239990 
	C906.416382,139.022614 906.416382,134.420639 906.416382,129.482391 
	C925.081055,129.482391 943.475037,129.482391 962.214233,129.482391 
	C962.214233,134.245621 962.214233,138.849228 962.214233,144.042969 
	C956.661743,144.042969 951.068970,144.042969 944.856445,144.042969 
	C944.856445,157.913361 944.856445,171.206696 944.856445,185.000031 
z"/>
<path fill="#FEFFFF" opacity="1.000000" stroke="none" 
	d="
M487.001648,141.021957 
	C487.001648,169.134171 487.001648,196.750900 487.001648,224.995392 
	C495.669006,224.995392 504.051239,224.995392 512.792297,224.995392 
	C512.792297,229.849823 512.792297,234.089447 512.792297,238.750854 
	C497.813934,238.750854 482.760406,238.750854 467.268433,238.750854 
	C467.268433,202.554260 467.268433,166.213364 467.268433,129.516006 
	C473.655884,129.516006 480.037384,129.516006 487.001648,129.516006 
	C487.001648,133.298859 487.001648,136.912674 487.001648,141.021957 
z"/>
<path fill="#FEFFFF" opacity="1.000000" stroke="none" 
	d="
M852.998413,320.026917 
	C852.998413,316.056946 852.998413,312.581238 852.998413,308.789124 
	C859.782715,308.789124 866.187866,308.789124 872.797485,308.789124 
	C872.797485,345.172791 872.797485,381.253967 872.797485,417.751221 
	C866.366333,417.751221 860.000366,417.751221 852.998413,417.751221 
	C852.998413,385.327545 852.998413,352.924347 852.998413,320.026917 
z"/>
<path fill="#FCFEFF" opacity="1.000000" stroke="none" 
	d="
M1087.845825,323.007874 
	C1087.845825,354.781006 1087.845825,386.055542 1087.845825,417.751221 
	C1081.242310,417.751221 1075.013672,417.751221 1068.385010,417.751221 
	C1068.385010,381.703796 1068.385010,345.500183 1068.385010,308.876709 
	C1074.636719,308.876709 1080.992188,308.876709 1087.845825,308.876709 
	C1087.845825,313.593842 1087.845825,318.051544 1087.845825,323.007874 
z"/>
<path fill="#26BDE2" opacity="1.000000" stroke="none" 
	d="
M584.970581,727.032776 
	C562.309509,734.348633 539.652710,739.296692 515.474548,738.980408 
	C508.318420,702.329468 501.191162,665.826660 493.983307,628.910889 
	C664.899780,628.910889 835.415466,628.910889 1006.662170,628.910889 
	C1001.517151,660.506165 996.451233,691.615051 991.315552,723.152771 
	C971.383789,716.324890 953.168701,721.033508 935.077148,728.394836 
	C911.315979,738.063110 887.135193,746.454224 861.764709,751.010254 
	C827.059692,757.242493 792.950745,754.054077 759.685059,743.351868 
	C737.540466,736.227539 716.051819,727.088684 694.130005,719.241272 
	C669.650269,710.478149 644.740479,706.706482 619.286499,715.144897 
	C607.923096,718.912109 596.664917,722.997009 584.970581,727.032776 
z"/>
<path fill="#26BDE2" opacity="1.000000" stroke="none" 
	d="
M758.969482,1075.430664 
	C746.198303,1075.103271 733.929688,1075.532471 721.851318,1072.089600 
	C681.016418,1060.450073 654.542786,1019.746216 660.452942,977.632202 
	C663.015991,959.368347 668.823242,942.346558 678.818237,926.899170 
	C702.420227,890.422302 726.232056,854.081238 749.970642,817.692810 
	C750.488586,816.898926 751.147644,816.196960 752.153870,814.933533 
	C755.792969,820.409851 759.206726,825.460510 762.533447,830.567749 
	C783.338074,862.507141 804.309998,894.339722 824.846680,926.450684 
	C837.673584,946.506653 844.693909,968.462036 844.011414,992.557495 
	C842.865845,1032.997070 813.175964,1067.293701 773.353943,1073.981445 
	C768.773621,1074.750732 764.097290,1074.948364 758.969482,1075.430664 
z"/>
<path fill="#26BDE2" opacity="1.000000" stroke="none" 
	d="
M195.281433,379.328522 
	C186.319656,378.232941 181.043991,372.809204 179.121063,365.184479 
	C176.908035,356.409424 175.593933,347.261658 175.169357,338.215698 
	C174.530289,324.600098 174.860107,310.929504 175.129349,297.289215 
	C175.179916,294.727203 176.191544,291.471893 177.957565,289.807739 
	C181.386642,286.576538 185.325073,283.339569 189.656357,281.713837 
	C203.034927,276.692047 215.087387,283.341766 216.712982,297.849426 
	C218.425644,313.134216 218.241455,328.674774 218.147705,344.099091 
	C218.105804,350.993988 216.784424,358.007843 215.114792,364.737244 
	C212.410385,375.637146 206.891724,379.454437 195.281433,379.328522 
z"/>
<path fill="#31C0E4" opacity="1.000000" stroke="none" 
	d="
M1068.449829,157.419662 
	C1068.438354,159.492279 1068.479004,161.158844 1068.304199,162.802490 
	C1067.318970,172.064865 1063.590088,175.548187 1054.158569,176.018814 
	C1052.193359,176.116867 1050.219238,176.033051 1047.851440,176.033051 
	C1047.851440,165.104523 1047.851440,154.434921 1047.851440,143.809601 
	C1060.774048,141.204483 1067.012573,145.266357 1068.449829,157.419662 
z"/>
<path fill="#26BDE2" opacity="1.000000" stroke="none" 
	d="
M575.335327,397.975098 
	C571.093201,405.614258 564.184143,403.633453 557.531006,404.037140 
	C557.531006,376.968994 557.531006,350.292969 557.531006,323.174255 
	C560.598694,323.174255 563.559448,322.935364 566.467957,323.223694 
	C572.644653,323.835999 575.323425,326.366333 576.421631,332.455841 
	C576.831726,334.729431 576.962952,337.079468 576.969788,339.395355 
	C577.015625,354.866302 577.090332,370.338501 576.926636,385.807831 
	C576.884888,389.752747 576.017334,393.688934 575.335327,397.975098 
z"/>
<path fill="#26BDE2" opacity="1.000000" stroke="none" 
	d="
M1144.991699,354.000244 
	C1144.991699,365.146362 1145.050659,375.793060 1144.955078,386.438385 
	C1144.926880,389.579926 1144.725098,392.767456 1144.141602,395.846466 
	C1142.978027,401.985413 1139.348755,404.788635 1133.361084,404.620117 
	C1127.460083,404.454010 1123.960938,401.323334 1123.078491,395.152344 
	C1122.703247,392.528503 1122.559692,389.849182 1122.570190,387.196075 
	C1122.641113,369.069397 1122.523438,350.936035 1123.010132,332.819458 
	C1123.243652,324.132355 1129.774292,320.223724 1137.996216,322.892914 
	C1143.478027,324.672546 1144.411255,329.378418 1144.710693,334.048706 
	C1145.125244,340.511993 1144.927368,347.014526 1144.991699,354.000244 
z"/>
<path fill="#31C0E4" opacity="1.000000" stroke="none" 
	d="
M733.460205,357.434143 
	C734.537964,351.041046 735.519470,345.072876 736.500977,339.104675 
	C736.874451,339.111237 737.247925,339.117767 737.621399,339.124329 
	C739.791992,352.432739 741.962646,365.741180 744.205017,379.489746 
	C739.336670,379.489746 734.954163,379.489746 729.954407,379.489746 
	C731.110046,372.158356 732.237000,365.008698 733.460205,357.434143 
z"/>
<path fill="#31C0E4" opacity="1.000000" stroke="none" 
	d="
M974.213196,348.660522 
	C975.918579,359.057648 977.554504,369.026031 979.267029,379.460907 
	C974.383911,379.460907 970.014404,379.460907 964.969055,379.460907 
	C967.205261,365.713654 969.414856,352.129395 971.624512,338.545135 
	C971.947937,338.563416 972.271423,338.581696 972.594849,338.599976 
	C973.111145,341.810547 973.627441,345.021118 974.213196,348.660522 
z"/>
<path fill="#31C0E4" opacity="1.000000" stroke="none" 
	d="
M418.037476,358.001343 
	C419.145538,351.201660 420.203033,344.835419 421.260559,338.469208 
	C421.551636,338.429321 421.842743,338.389404 422.133820,338.349518 
	C424.362549,351.883179 426.591248,365.416840 428.899292,379.432098 
	C424.186279,379.432098 419.845062,379.432098 414.665527,379.432098 
	C415.789642,372.325592 416.888275,365.380219 418.037476,358.001343 
z"/>
<path fill="#31C0E4" opacity="1.000000" stroke="none" 
	d="
M608.574402,165.476059 
	C610.489685,177.163391 612.303955,188.450958 614.189514,200.182098 
	C609.294739,200.182098 604.904724,200.182098 599.950684,200.182098 
	C602.172668,186.527359 604.367004,173.042587 606.561401,159.557816 
	C606.877380,159.552551 607.193359,159.547287 607.509338,159.542023 
	C607.830688,161.386780 608.151978,163.231522 608.574402,165.476059 
z"/>
<path fill="#31C0E4" opacity="1.000000" stroke="none" 
	d="
M868.808472,195.522385 
	C870.799011,183.201782 872.723022,171.300400 874.647034,159.399017 
	C874.985962,159.421082 875.324890,159.443146 875.663818,159.465195 
	C877.845764,172.956177 880.027710,186.447144 882.267639,200.296509 
	C877.323914,200.296509 873.045105,200.296509 868.196228,200.296509 
	C868.394470,198.714066 868.568176,197.327835 868.808472,195.522385 
z"/>
</svg>