<svg version="1.1" id="Layer_1" xmlns="http://www.w3.org/2000/svg" xmlns:xlink="http://www.w3.org/1999/xlink" x="0px" y="0px"
	 width="100%" viewBox="0 0 1500 1500" enable-background="new 0 0 1500 1500" xml:space="preserve">
<path fill="#FCC30B" opacity="1.000000" stroke="none" 
	d="
M1.000000,550.000000 
	C1.000000,366.666687 1.000000,183.833405 1.000000,1.000074 
	C500.999878,1.000049 1000.999756,1.000049 1500.999756,1.000025 
	C1500.999756,500.999786 1500.999756,1000.999573 1500.999878,1500.999512 
	C1001.000305,1500.999756 501.000610,1500.999756 1.000452,1500.999878 
	C1.000000,1184.166626 1.000000,867.333313 1.000000,550.000000 
M549.145508,862.671509 
	C528.728577,909.267456 524.210571,957.444214 536.441284,1006.739563 
	C564.764954,1120.895874 676.151917,1192.290649 792.149475,1171.168091 
	C911.587524,1149.419067 991.633545,1033.428223 969.758972,913.802673 
	C948.304626,796.474792 838.274780,716.461182 720.728394,733.991943 
	C641.151062,745.860107 584.447632,789.733398 549.145508,862.671509 
M251.415817,175.021179 
	C255.946884,160.179932 252.925537,145.034531 253.960083,129.746155 
	C209.638870,129.746155 166.049683,129.746155 122.354706,129.746155 
	C122.354706,143.727188 122.354706,157.431274 122.354706,171.640961 
	C148.144592,171.640961 173.579498,171.640961 199.882599,171.640961 
	C179.787033,253.484192 159.858582,334.646759 139.912872,415.879608 
	C140.779114,416.168762 141.222198,416.445038 141.665985,416.446198 
	C157.831268,416.488098 173.997299,416.433594 190.161469,416.581543 
	C193.564529,416.612671 193.675522,414.467712 194.236053,412.137970 
	C202.331192,378.492493 210.497742,344.864227 218.606781,311.222076 
	C229.484238,266.094543 240.326736,220.958542 251.415817,175.021179 
M881.549316,133.831772 
	C866.079651,126.191566 849.645386,130.303665 833.420044,128.991119 
	C833.420044,166.119904 833.420044,202.344391 833.420044,239.644287 
	C847.437683,239.126587 861.189575,238.969528 874.878174,237.956894 
	C881.195435,237.489563 886.292358,233.633820 890.112061,228.426514 
	C901.457275,212.959686 896.175720,188.986496 879.494873,180.261292 
	C896.093750,169.597565 897.516785,145.263153 881.549316,133.831772 
M660.001465,222.606659 
	C661.440735,228.035553 662.879944,233.464447 664.315308,238.878876 
	C671.125061,238.878876 677.549561,238.878876 684.413269,238.878876 
	C683.931152,236.900131 683.589478,235.295746 683.148499,233.719147 
	C678.981018,218.819717 674.757385,203.935745 670.683105,189.010941 
	C670.311279,187.648880 670.333618,185.096115 671.070129,184.678543 
	C680.749878,179.189865 682.140015,169.854294 682.766479,160.181137 
	C683.724060,145.396255 677.772339,135.255661 665.427673,131.591522 
	C651.478271,127.451065 637.143982,129.622208 622.737122,129.142502 
	C622.737122,166.128342 622.737122,202.388885 622.737122,238.914505 
	C629.430359,238.914505 635.842834,238.914505 642.933472,238.914505 
	C642.933472,222.282761 642.933472,205.904984 642.933472,189.617355 
	C651.193970,188.702957 651.163940,188.710754 652.989868,195.742172 
	C655.247742,204.436859 657.561890,213.116959 660.001465,222.606659 
M547.150024,182.499969 
	C547.429810,193.138000 547.204285,203.819443 548.113586,214.403381 
	C549.329773,228.559921 557.063843,237.409485 569.622498,239.648407 
	C574.306458,240.483444 579.252869,240.547943 584.009766,240.143173 
	C599.316162,238.840698 608.833923,230.540833 609.761292,215.353409 
	C610.935303,196.127914 610.570496,176.794464 610.404602,157.511551 
	C610.365723,152.986664 608.874268,148.330948 607.327942,143.993210 
	C604.417969,135.830215 598.283997,130.634079 589.844177,129.324890 
	C583.535095,128.346207 576.914856,128.235031 570.561646,128.923355 
	C558.571228,130.222427 550.849060,137.483780 549.079590,149.217041 
	C547.478516,159.833557 547.720642,170.728043 547.150024,182.499969 
M694.831055,179.499954 
	C694.831055,199.247665 694.831055,218.995377 694.831055,238.786835 
	C706.930481,238.786835 718.442871,239.560699 729.807251,238.594254 
	C744.568237,237.338928 753.166626,230.086899 754.045654,215.416122 
	C755.344360,193.738373 754.777832,171.887833 753.819519,150.163193 
	C753.379761,140.194580 746.488281,132.788055 736.522278,131.357437 
	C722.977966,129.413147 709.177185,129.254974 694.830994,128.286560 
	C694.830994,145.969482 694.830994,162.234711 694.831055,179.499954 
M1244.168945,172.500244 
	C1244.095459,167.171310 1244.225586,161.830215 1243.908325,156.515839 
	C1243.117065,143.260590 1237.474243,134.813385 1226.749146,131.620041 
	C1212.780884,127.461060 1198.439453,129.652206 1184.265381,129.159241 
	C1184.265381,166.225082 1184.265381,202.589996 1184.265381,238.962418 
	C1195.353027,238.962418 1206.025146,239.361969 1216.655762,238.868042 
	C1232.271973,238.142456 1241.407593,230.427933 1243.053833,214.895218 
	C1244.504028,201.211166 1243.877930,187.307083 1244.168945,172.500244 
M962.329041,353.672211 
	C965.250977,345.822845 965.594788,337.796600 964.247009,329.579956 
	C962.579529,319.414215 956.785400,312.140930 946.890808,310.692017 
	C933.181641,308.684540 919.195007,308.572235 905.182251,307.638794 
	C905.182251,345.329071 905.182251,381.560822 905.182251,417.799133 
	C911.928223,417.799133 918.315186,417.799133 925.126465,417.799133 
	C925.126465,401.171021 925.126465,384.910522 925.126465,368.722290 
	C933.265259,367.512512 933.274780,367.510010 935.210022,374.849701 
	C938.687256,388.037170 942.092834,401.244202 945.706909,414.393982 
	C946.096497,415.811707 947.604248,417.915375 948.696716,417.981140 
	C954.600891,418.336334 960.537720,418.149445 966.915344,418.149445 
	C961.782837,399.855438 956.850220,382.274200 952.273682,365.961823 
	C955.965820,361.584076 959.002563,357.983398 962.329041,353.672211 
M836.175049,355.500031 
	C836.175049,340.026520 836.175049,324.553009 836.175049,308.782990 
	C830.516663,308.782990 825.284668,308.782990 819.344971,308.782990 
	C819.344971,328.221161 819.344971,347.355652 819.344971,366.490173 
	C817.523438,365.074371 816.711670,363.520569 816.016785,361.916138 
	C808.877380,345.431091 801.803223,328.917480 794.556580,312.479828 
	C793.865540,310.912292 792.264954,308.869415 790.853088,308.665863 
	C787.132080,308.129303 783.282532,308.484375 779.254761,308.484375 
	C779.254761,345.223633 779.254761,381.447540 779.254761,417.833618 
	C784.894226,417.833618 790.268616,417.833618 796.161865,417.833618 
	C796.161865,397.034149 796.161865,376.570160 796.161865,356.106171 
	C797.275024,356.894379 797.693359,357.762451 798.062622,358.650879 
	C805.785461,377.231781 813.468018,395.829651 821.288025,414.369537 
	C821.905334,415.833099 823.351074,417.807800 824.618103,417.974121 
	C828.310242,418.458862 832.106995,418.146240 836.175049,418.146240 
	C836.175049,397.110321 836.175049,376.805206 836.175049,355.500031 
M644.237671,364.312042 
	C651.137634,380.895721 658.005981,397.492737 664.990295,414.040833 
	C665.631714,415.560669 666.881958,417.778839 668.075745,417.934326 
	C671.918274,418.434631 675.866882,418.120544 679.784668,418.120544 
	C679.784668,381.247406 679.784668,345.142212 679.784668,308.903870 
	C674.184448,308.903870 668.811340,308.903870 663.011963,308.903870 
	C663.011963,328.538330 663.011963,347.744354 663.011963,366.950409 
	C661.491577,365.522644 660.704102,363.953094 660.007019,362.344330 
	C652.799072,345.709198 645.652588,329.046997 638.331482,312.461914 
	C637.640442,310.896423 636.009827,308.878662 634.584351,308.673065 
	C630.870789,308.137482 627.028748,308.492920 623.177307,308.492920 
	C623.177307,345.325684 623.177307,381.554413 623.177307,417.805115 
	C628.917908,417.805115 634.304138,417.805115 640.298706,417.805115 
	C640.298706,397.217468 640.298706,376.989532 640.298706,356.761627 
	C640.549866,356.748138 640.801086,356.734619 641.052246,356.721100 
	C642.027832,359.011658 643.003357,361.302216 644.237671,364.312042 
M1145.008911,210.574448 
	C1148.526123,219.020416 1151.996948,227.486313 1155.611572,235.890411 
	C1156.139893,237.118927 1157.275391,238.885406 1158.261963,238.976730 
	C1162.137085,239.335464 1166.065186,239.123550 1169.797119,239.123550 
	C1169.797119,202.055542 1169.797119,165.811981 1169.797119,129.383392 
	C1164.323730,129.383392 1159.226685,129.383392 1153.361084,129.383392 
	C1153.361084,148.888336 1153.361084,168.181961 1153.361084,187.475571 
	C1151.530518,186.016647 1150.740723,184.444092 1150.041504,182.832214 
	C1142.827881,166.199493 1135.664551,149.544693 1128.363281,132.950592 
	C1127.722778,131.495041 1126.317017,129.499481 1125.073486,129.348846 
	C1121.199707,128.879517 1117.232910,129.176804 1113.254272,129.176804 
	C1113.254272,166.142944 1113.254272,202.404083 1113.254272,238.831573 
	C1118.891479,238.831573 1124.266479,238.831573 1130.130493,238.831573 
	C1130.130493,218.000351 1130.130493,197.504333 1130.130493,177.008301 
	C1130.405762,176.963943 1130.680908,176.919586 1130.956177,176.875229 
	C1135.561035,187.865189 1140.165894,198.855164 1145.008911,210.574448 
M902.124939,1176.411255 
	C895.180420,1168.788696 884.615112,1167.159180 876.959412,1172.530151 
	C869.026062,1178.095703 866.940979,1188.751221 872.160522,1197.853027 
	C887.639832,1224.845825 903.211609,1251.785645 918.666443,1278.792358 
	C921.948547,1284.527588 926.941040,1287.367798 933.252136,1287.908813 
	C940.274475,1288.510620 946.062500,1285.916504 949.873108,1279.868408 
	C953.799622,1273.636353 954.393738,1267.129639 950.587463,1260.513428 
	C934.571228,1232.673584 918.570923,1204.824585 902.124939,1176.411255 
M427.814850,1151.932373 
	C433.407166,1153.673340 438.500854,1152.706299 443.571899,1149.764526 
	C470.337646,1134.237549 497.201508,1118.880005 524.001953,1103.412720 
	C533.168518,1098.122559 536.330383,1086.704712 531.187195,1077.972778 
	C526.002563,1069.170532 514.704041,1066.358765 505.499298,1071.648804 
	C478.813202,1086.985352 452.203918,1102.457153 425.427246,1117.633667 
	C418.250275,1121.701416 414.730682,1127.435791 415.040161,1135.482910 
	C415.349121,1143.516479 419.788208,1148.709229 427.814850,1151.932373 
M473.453064,932.996033 
	C443.789795,932.996155 414.126465,932.968872 384.463257,933.011658 
	C374.410065,933.026123 366.197174,941.045227 365.998108,950.843933 
	C365.797363,960.726685 373.589630,969.674805 383.452576,969.745422 
	C415.613892,969.975647 447.778534,969.948792 479.940399,969.760864 
	C489.079285,969.707458 496.438538,962.062683 497.232788,952.832092 
	C497.996216,943.959656 492.008392,935.335144 483.384583,933.432312 
	C480.508484,932.797729 477.422485,933.114319 473.453064,932.996033 
M1084.594971,1121.993042 
	C1082.938354,1120.629395 1081.436157,1118.997437 1079.601929,1117.942505 
	C1052.192749,1102.177979 1024.767944,1086.439819 997.280579,1070.811890 
	C988.399658,1065.762695 976.998413,1069.039551 972.131836,1077.729370 
	C967.264526,1086.420410 970.415405,1097.758057 979.280273,1102.848999 
	C1006.543701,1118.505859 1033.830200,1134.122925 1061.165039,1149.654541 
	C1063.268921,1150.849976 1065.775757,1151.718018 1068.171143,1151.947632 
	C1075.542236,1152.654297 1081.746582,1150.016479 1085.743652,1143.726807 
	C1090.212280,1136.694580 1089.466431,1129.493774 1084.594971,1121.993042 
M946.048096,648.599304 
	C947.290649,646.435059 948.570557,644.291321 949.769165,642.102966 
	C954.819885,632.882141 951.741211,621.295837 942.984497,616.485229 
	C934.079590,611.593201 922.984192,614.942078 917.671875,624.201599 
	C902.274536,651.039734 886.896240,677.888733 871.536072,704.748108 
	C866.094666,714.263123 868.932617,725.755981 877.901001,730.813599 
	C886.940002,735.911011 898.008606,732.518799 903.523865,722.899780 
	C917.596375,698.356384 931.641724,673.797424 946.048096,648.599304 
M733.156677,1242.500000 
	C733.156921,1267.828491 733.113281,1293.157104 733.178955,1318.485474 
	C733.205383,1328.656738 741.588013,1336.976318 751.568420,1336.999756 
	C761.660583,1337.023438 769.961792,1328.838379 769.981384,1318.561157 
	C770.041626,1287.067261 770.044556,1255.573120 769.979553,1224.079224 
	C769.958313,1213.788696 761.666443,1205.530029 751.646057,1205.512085 
	C741.652954,1205.494141 733.331543,1213.774170 733.173645,1224.003662 
	C733.083679,1229.834595 733.156921,1235.667847 733.156677,1242.500000 
M486.265686,778.265381 
	C471.539429,769.845093 456.850494,761.358643 442.073029,753.029175 
	C433.151367,748.000366 421.775940,751.148071 416.891785,759.770325 
	C411.960388,768.475891 414.984924,779.836243 423.843933,784.934326 
	C451.103027,800.621155 478.397614,816.246765 505.730835,831.803955 
	C514.604858,836.854797 526.019470,833.725464 530.984436,825.145447 
	C536.092041,816.318665 532.900818,805.067261 523.690186,799.752686 
	C511.442108,792.685669 499.151001,785.693237 486.265686,778.265381 
M569.303162,671.246582 
	C579.343262,688.696655 589.349731,706.166199 599.437012,723.588867 
	C604.815857,732.879211 615.825256,736.059021 624.809265,731.055542 
	C633.787720,726.055298 636.633240,714.586975 631.162537,705.044434 
	C615.770081,678.195862 600.351257,651.362366 584.907227,624.543518 
	C579.555725,615.250610 568.445129,611.954895 559.550110,616.918701 
	C550.558289,621.936401 547.636230,633.542358 553.021301,642.922119 
	C558.321777,652.154663 563.641785,661.376038 569.303162,671.246582 
M592.224976,1192.708618 
	C579.175964,1215.533691 566.053528,1238.317383 553.114929,1261.204834 
	C548.113037,1270.052734 551.572083,1281.425293 560.352539,1286.251831 
	C568.760376,1290.873535 580.080078,1287.973267 584.854614,1279.677368 
	C600.702087,1252.141846 616.479370,1224.565796 632.178650,1196.945679 
	C637.105713,1188.277222 633.983337,1177.032227 625.585205,1172.088867 
	C616.998291,1167.034424 605.474854,1169.984253 600.292053,1178.656250 
	C597.646973,1183.082031 595.181702,1187.615479 592.224976,1192.708618 
M1022.682922,774.220337 
	C1008.263794,782.522522 993.776184,790.709717 979.483093,799.223389 
	C976.609192,800.935242 973.825928,803.499634 972.125244,806.343384 
	C967.800354,813.574951 969.255310,822.991516 974.874878,828.473083 
	C980.969971,834.418518 989.759460,835.540405 997.405579,831.160767 
	C1024.401978,815.697449 1051.371826,800.187805 1078.340942,784.676880 
	C1087.823242,779.223389 1091.094238,767.920837 1085.844971,758.930786 
	C1080.763794,750.228516 1069.328369,747.456299 1060.111938,752.736389 
	C1047.840820,759.766663 1035.589966,766.832458 1022.682922,774.220337 
M761.554932,568.774475 
	C747.523987,561.084595 733.178406,569.565918 733.164490,585.606384 
	C733.137817,616.239807 733.144287,646.873169 733.163269,677.506592 
	C733.170227,688.728516 740.910461,697.007935 751.412964,697.120789 
	C762.159424,697.236267 769.992554,688.960999 769.998596,677.410034 
	C770.014465,646.776672 769.932373,616.142944 770.058594,585.510132 
	C770.086975,578.623352 767.659546,573.246948 761.554932,568.774475 
M1083.500000,969.843323 
	C1094.997192,969.843201 1106.494751,969.889954 1117.991577,969.829529 
	C1129.044556,969.771362 1137.270264,961.693237 1137.162842,951.129944 
	C1137.057251,940.744934 1128.928833,933.005554 1118.055542,933.000793 
	C1087.063110,932.987305 1056.070679,932.984375 1025.078247,933.023376 
	C1023.105591,933.025879 1021.053223,933.142700 1019.174683,933.682373 
	C1010.297363,936.232422 1004.733948,944.957092 1006.017944,954.044250 
	C1007.266724,962.882141 1015.136414,969.757690 1024.514282,969.809631 
	C1043.842407,969.916626 1063.171387,969.842712 1083.500000,969.843323 
M995.853271,347.504791 
	C996.162659,341.699707 996.007690,335.820984 996.913635,330.110535 
	C997.798889,324.530884 1001.654358,322.075714 1007.334106,322.189667 
	C1013.093567,322.305206 1016.312744,324.820007 1017.179688,330.674500 
	C1017.853638,335.225769 1017.849487,339.877441 1018.157043,344.645813 
	C1024.508423,344.645813 1030.714966,344.645813 1037.030396,344.645813 
	C1037.030396,341.128815 1037.168579,337.969727 1037.007446,334.825989 
	C1036.117920,317.473877 1028.243652,308.730225 1010.954468,307.397766 
	C989.230713,305.723541 978.132690,313.985535 976.695312,331.993927 
	C975.033813,352.809113 975.163940,373.935822 976.635071,394.777679 
	C977.755737,410.653473 986.190979,417.903564 1000.049622,419.648590 
	C1009.425964,420.829224 1017.487549,418.573273 1022.469177,409.928375 
	C1025.672852,412.145050 1021.524109,417.962921 1027.361572,418.152222 
	C1030.762329,418.262512 1034.169556,418.172333 1037.560791,418.172333 
	C1037.560791,399.200195 1037.560791,381.117523 1037.560791,362.868103 
	C1027.564087,362.868103 1017.864258,362.868103 1008.132202,362.868103 
	C1008.132202,367.203949 1008.132202,371.124023 1008.132202,375.252045 
	C1011.988037,375.472321 1015.548340,375.675690 1020.180481,375.940308 
	C1019.319458,383.594177 1019.055969,390.749207 1017.562073,397.637421 
	C1016.443359,402.795807 1012.272400,404.817139 1006.791016,404.542603 
	C1001.177490,404.261383 998.332092,401.978180 996.998840,396.381042 
	C996.462646,394.130219 996.066040,391.787720 996.043335,389.482574 
	C995.908752,375.823395 995.902588,362.162964 995.853271,347.504791 
M411.848907,402.604553 
	C402.574158,407.295532 395.356720,403.914246 395.074890,393.622406 
	C394.514404,373.152557 394.719177,352.652954 395.043610,332.172546 
	C395.151062,325.388824 399.370667,322.048920 405.678528,322.191742 
	C411.780731,322.329895 414.735565,325.349060 415.142639,332.558472 
	C415.437592,337.781982 415.200226,343.035583 415.200226,348.204224 
	C422.500671,348.204224 428.603241,348.204224 434.785156,348.204224 
	C434.785156,342.715607 435.245270,337.515411 434.699890,332.422943 
	C432.979126,316.355408 425.409180,308.541138 409.486389,307.392120 
	C387.629120,305.814880 376.013794,314.390625 374.815552,333.960754 
	C373.597412,353.855347 373.499664,373.974213 375.014893,393.834412 
	C376.391876,411.882599 387.851410,420.253540 406.033234,419.848938 
	C421.331390,419.508484 430.181427,413.697357 433.219147,400.520935 
	C434.939636,393.058289 434.871338,385.183258 435.637360,377.194946 
	C428.325989,377.194946 422.212067,377.194946 415.454407,377.194946 
	C415.454407,381.594818 415.853241,385.935730 415.338989,390.165588 
	C414.852783,394.164825 413.407562,398.047485 411.848907,402.604553 
M409.193939,213.851059 
	C410.447479,214.971619 412.512390,215.908401 412.815033,217.244354 
	C414.173096,223.239929 414.891907,229.378387 416.170959,235.395233 
	C416.467712,236.791443 417.987030,238.913895 419.065613,238.990646 
	C424.330902,239.365417 429.637421,239.160324 435.599915,239.160324 
	C434.325684,232.773102 433.183411,226.960693 432.005066,221.155609 
	C426.048706,191.812256 420.117340,162.463654 414.020325,133.149536 
	C413.711578,131.664917 412.012726,129.413177 410.846741,129.339966 
	C404.739349,128.956421 398.595062,129.160751 392.346802,129.160751 
	C384.863403,165.970856 377.483002,202.274414 370.034515,238.912918 
	C376.564667,238.912918 382.668243,238.912918 388.732788,238.912918 
	C389.006012,238.305161 389.312012,237.869965 389.398254,237.394867 
	C390.319519,232.321167 391.236237,227.246262 392.095062,222.161697 
	C393.498840,213.850861 393.480286,213.847656 401.752167,213.847519 
	C403.918060,213.847488 406.083984,213.847931 409.193939,213.851059 
M1049.202026,190.681549 
	C1046.010498,206.620361 1042.818848,222.559174 1039.576538,238.750946 
	C1046.282593,238.750946 1052.481079,238.750946 1058.604492,238.750946 
	C1060.168945,230.219620 1061.656006,222.110306 1063.121948,214.115631 
	C1069.666016,214.115631 1075.603882,214.115631 1081.775391,214.115631 
	C1083.278442,222.458954 1084.743164,230.589310 1086.236938,238.880661 
	C1092.569336,238.880661 1098.649292,238.880661 1105.062744,238.880661 
	C1097.605347,202.124557 1090.218750,165.717331 1082.800293,129.153183 
	C1076.714478,129.153183 1071.224854,129.338577 1065.755859,129.082443 
	C1062.564453,128.932953 1061.512573,130.115524 1060.914917,133.159195 
	C1057.199585,152.081696 1053.260254,170.960205 1049.202026,190.681549 
M599.066956,340.231323 
	C596.935303,329.710022 594.803711,319.188721 592.631287,308.465820 
	C586.766479,308.465820 581.439941,308.675293 576.139709,308.391968 
	C572.624084,308.204041 571.326965,309.347076 570.625854,312.891052 
	C564.527893,343.716553 558.193115,374.495209 551.933411,405.288757 
	C551.092346,409.426697 550.277649,413.570007 549.358093,418.174591 
	C554.813538,418.174591 559.461304,418.021271 564.093018,418.227478 
	C567.284973,418.369598 568.778992,417.570740 569.236084,414.011902 
	C570.136047,407.003998 571.695862,400.080841 572.953918,393.278534 
	C579.528320,393.278534 585.467224,393.278534 591.585754,393.278534 
	C593.099548,401.625916 594.572205,409.746918 596.025574,417.761292 
	C602.505615,417.761292 608.536499,417.761292 614.840576,417.761292 
	C609.572327,391.894592 604.396362,366.481110 599.066956,340.231323 
M779.989502,233.541183 
	C781.143005,227.045471 782.296448,220.549759 783.441956,214.098862 
	C789.933533,214.098862 795.888550,214.098862 802.153381,214.098862 
	C803.461609,221.479492 804.661804,228.689362 806.086365,235.854599 
	C806.322937,237.044769 807.492188,238.940277 808.306946,238.981049 
	C813.850464,239.258392 819.414368,239.126160 825.469910,239.126160 
	C817.924744,201.930450 810.559692,165.622803 803.219910,129.439819 
	C795.827454,129.439819 789.058411,129.439819 782.090332,129.439819 
	C774.664429,165.976944 767.286621,202.277786 759.838379,238.924866 
	C766.484436,238.924866 772.582947,238.924866 778.767761,238.924866 
	C779.162048,237.286606 779.510010,235.840881 779.989502,233.541183 
M499.991913,357.500000 
	C499.991913,377.593933 499.991913,397.687836 499.991913,417.965454 
	C515.708557,417.965454 530.809998,417.965454 546.185425,417.965454 
	C546.185425,413.353485 546.185425,408.953979 546.185425,404.010345 
	C537.437622,404.010345 529.029602,404.010345 520.453796,404.010345 
	C520.453796,392.053253 520.453796,380.643066 520.453796,368.555511 
	C527.272034,368.555511 533.841248,368.555511 540.452515,368.555511 
	C540.452515,363.322571 540.452515,358.774841 540.452515,353.862549 
	C533.614075,353.862549 527.169067,353.862549 520.491577,353.862549 
	C520.491577,343.431641 520.491577,333.380554 520.491577,322.801941 
	C529.041687,322.801941 537.286682,322.801941 545.763428,322.801941 
	C545.763428,317.857819 545.763428,313.441833 545.763428,308.775757 
	C530.485840,308.775757 515.413147,308.775757 499.991913,308.775757 
	C499.991913,324.890411 499.991913,340.695221 499.991913,357.500000 
M870.008057,343.470886 
	C870.008057,336.703186 870.008057,329.935455 870.008057,322.664856 
	C878.912964,322.664856 887.159180,322.664856 895.513306,322.664856 
	C895.513306,317.749908 895.513306,313.362213 895.513306,308.726746 
	C880.255066,308.726746 865.332275,308.726746 850.116699,308.726746 
	C850.116699,345.199036 850.116699,381.408203 850.116699,417.769043 
	C865.542664,417.769043 880.726013,417.769043 895.831177,417.769043 
	C895.831177,413.106445 895.831177,408.855927 895.831177,404.031860 
	C887.110474,404.031860 878.718750,404.031860 870.422119,404.031860 
	C870.422119,391.903442 870.422119,380.366333 870.422119,368.309082 
	C877.251709,368.309082 883.672668,368.309082 890.269409,368.309082 
	C890.269409,363.348755 890.269409,358.921051 890.269409,353.928772 
	C883.457581,353.928772 876.900085,353.928772 870.008057,353.928772 
	C870.008057,350.397156 870.008057,347.427338 870.008057,343.470886 
M723.823730,340.499969 
	C723.823730,366.250641 723.823730,392.001312 723.823730,417.881775 
	C739.550598,417.881775 754.614868,417.881775 769.761902,417.881775 
	C769.761902,413.219727 769.761902,408.859650 769.761902,403.910706 
	C760.974548,403.910706 752.588928,403.910706 744.297363,403.910706 
	C744.297363,391.878937 744.297363,380.446167 744.297363,368.338135 
	C751.123840,368.338135 757.677002,368.338135 764.225098,368.338135 
	C764.225098,363.217072 764.225098,358.780823 764.225098,353.796814 
	C757.353394,353.796814 750.785950,353.796814 744.404297,353.796814 
	C744.404297,343.176910 744.404297,333.113342 744.404297,322.639648 
	C753.064575,322.639648 761.333801,322.639648 769.745483,322.639648 
	C769.745483,317.801544 769.745483,313.389801 769.745483,308.775635 
	C754.403870,308.775635 739.325989,308.775635 723.823730,308.775635 
	C723.823730,319.221375 723.823730,329.360657 723.823730,340.499969 
M1006.171204,230.607239 
	C1006.171204,228.985992 1006.171204,227.364731 1006.171204,225.181213 
	C997.263977,225.181213 988.869019,225.181213 980.368530,225.181213 
	C980.368530,212.918671 980.368530,201.224976 980.368530,189.077957 
	C987.149475,189.077957 993.574402,189.077957 1000.226562,189.077957 
	C1000.226562,184.203827 1000.226562,179.788574 1000.226562,174.825195 
	C993.369385,174.825195 986.806763,174.825195 980.374695,174.825195 
	C980.374695,164.209534 980.374695,154.147202 980.374695,143.680954 
	C989.005127,143.680954 997.268616,143.680954 1005.689941,143.680954 
	C1005.689941,138.709839 1005.689941,134.156738 1005.689941,129.501343 
	C990.327942,129.501343 975.282532,129.501343 960.225098,129.501343 
	C960.225098,166.191559 960.225098,202.535309 960.225098,238.818390 
	C975.682434,238.818390 990.740662,238.818390 1006.171265,238.818390 
	C1006.171265,236.169739 1006.171265,233.864639 1006.171204,230.607239 
M1071.785156,342.555359 
	C1068.603760,332.400116 1065.478394,322.226593 1062.174438,312.111359 
	C1061.732300,310.757690 1060.446899,308.725525 1059.451172,308.664886 
	C1053.920898,308.328125 1048.359375,308.503357 1042.356812,308.503357 
	C1043.084595,311.020660 1043.489868,312.613739 1044.003906,314.170929 
	C1049.581909,331.068939 1055.067261,347.998871 1060.817993,364.838104 
	C1063.373657,372.321472 1064.852051,379.808136 1064.547485,387.787598 
	C1064.167847,397.734528 1064.456299,407.706970 1064.456299,417.829285 
	C1071.239258,417.829285 1077.451294,417.829285 1084.011230,417.829285 
	C1084.011230,412.345490 1084.390625,407.173798 1083.942505,402.074768 
	C1082.379639,384.291229 1085.807495,367.408417 1092.224121,350.924774 
	C1094.634399,344.732880 1096.490601,338.323608 1098.553467,331.998444 
	C1101.051758,324.337921 1103.501099,316.661530 1106.144165,308.456360 
	C1101.223999,308.456360 1097.049683,308.753601 1092.937866,308.374054 
	C1088.692749,307.982300 1086.897461,309.533569 1085.772217,313.660889 
	C1082.413452,325.981384 1078.562256,338.167572 1074.590698,351.452118 
	C1073.497803,348.013855 1072.750000,345.661316 1071.785156,342.555359 
M483.065186,175.232544 
	C476.796661,175.232544 470.528168,175.232544 464.154419,175.232544 
	C464.154419,164.293686 464.154419,154.212875 464.154419,143.424805 
	C472.480621,143.424805 480.529816,143.424805 488.454651,143.424805 
	C488.454651,138.302658 488.454651,133.899429 488.454651,129.528320 
	C473.327240,129.528320 458.609436,129.528320 443.708130,129.528320 
	C443.708130,166.169525 443.708130,202.421280 443.708130,238.815689 
	C450.512329,238.815689 457.048309,238.815689 464.012085,238.815689 
	C464.012085,222.150330 464.012085,205.864792 464.012085,188.985352 
	C470.833771,188.985352 477.224976,188.985352 483.680389,188.985352 
	C483.680389,184.232971 483.680389,180.082047 483.065186,175.232544 
M506.541016,129.139206 
	C503.256653,129.139206 499.972260,129.139206 496.487305,129.139206 
	C496.487305,166.110397 496.487305,202.470718 496.487305,238.901337 
	C503.269318,238.901337 509.699829,238.901337 516.837158,238.901337 
	C516.837158,222.240128 516.837158,205.865707 516.837158,188.972839 
	C523.791626,188.972839 530.040710,188.972839 536.131042,188.972839 
	C536.131042,184.021332 536.131042,179.628555 536.131042,174.780579 
	C529.440552,174.780579 523.166992,174.780579 516.941162,174.780579 
	C516.941162,164.230148 516.941162,154.151398 516.941162,143.467285 
	C525.219666,143.467285 533.123901,143.467285 541.228516,143.467285 
	C541.228516,138.442978 541.228516,134.035446 541.228516,129.139236 
	C529.782715,129.139236 518.656616,129.139236 506.541016,129.139206 
M446.001556,415.305542 
	C446.787689,416.253082 447.564392,418.017731 448.361328,418.026917 
	C462.790466,418.193329 477.222046,418.148163 491.768127,418.148163 
	C491.768127,413.242035 491.768127,408.883881 491.768127,403.944611 
	C482.996948,403.944611 474.613861,403.944611 465.949402,403.944611 
	C465.949402,371.932373 465.949402,340.506622 465.949402,308.778961 
	C459.230103,308.778961 452.821259,308.778961 445.998047,308.778961 
	C445.998047,344.146179 445.998047,379.240448 446.001556,415.305542 
M905.831055,222.498566 
	C905.831055,227.930649 905.831055,233.362732 905.831055,238.843475 
	C921.600586,238.843475 936.670898,238.843475 951.712463,238.843475 
	C951.712463,234.145859 951.712463,229.789169 951.712463,225.023880 
	C942.997009,225.023880 934.731812,225.023880 925.860352,225.023880 
	C925.860352,192.901672 925.860352,161.193512 925.860352,129.419556 
	C918.976196,129.419556 912.711548,129.419556 905.830994,129.419556 
	C905.830994,160.283859 905.830994,190.891357 905.831055,222.498566 
z"/>
<path fill="#FFFFFE" opacity="1.000000" stroke="none" 
	d="
M549.319458,862.335693 
	C584.447632,789.733398 641.151062,745.860107 720.728394,733.991943 
	C838.274780,716.461182 948.304626,796.474792 969.758972,913.802673 
	C991.633545,1033.428223 911.587524,1149.419067 792.149475,1171.168091 
	C676.151917,1192.290649 564.764954,1120.895874 536.441284,1006.739563 
	C524.210571,957.444214 528.728577,909.267456 549.319458,862.335693 
M715.717773,1060.903564 
	C761.136719,1074.105835 801.679749,1065.104492 834.397461,1030.940918 
	C867.089600,996.804016 875.232788,955.749268 859.118652,911.194885 
	C846.547302,876.435913 821.296753,853.930115 785.836609,841.565857 
	C785.836609,854.822510 785.946289,867.137939 785.764954,879.449158 
	C785.715210,882.827209 786.711487,884.703674 789.751953,886.498169 
	C819.592468,904.109985 833.563782,938.605164 824.449097,971.569763 
	C815.270386,1004.765747 785.892090,1027.001953 751.215942,1026.999268 
	C718.184998,1026.996704 688.947205,1005.350342 679.292908,973.750671 
	C669.515198,941.747009 681.779236,906.867188 709.887634,888.852051 
	C715.555542,885.219299 717.745972,881.670654 717.316833,875.086914 
	C716.711243,865.796021 717.173340,856.436096 717.154053,847.105713 
	C717.150757,845.511169 717.023499,843.916870 716.949951,842.239868 
	C682.479004,851.498108 638.794495,887.909180 636.591675,947.741760 
	C634.712952,998.770264 666.813354,1044.336426 715.717773,1060.903564 
M735.163147,894.104004 
	C736.081543,903.982483 743.436829,910.972839 752.401001,910.486633 
	C761.380676,909.999634 767.989197,902.420471 767.996948,892.512756 
	C768.015381,869.024475 768.015320,845.536255 767.997253,822.047974 
	C767.989136,811.517883 761.046936,803.945007 751.521973,803.997620 
	C742.047668,804.049988 735.172485,811.681763 735.165894,822.219177 
	C735.151184,845.874023 735.161499,869.528870 735.163147,894.104004 
z"/>
<path fill="#FFFEFC" opacity="1.000000" stroke="none" 
	d="
M251.300034,175.423676 
	C240.326736,220.958542 229.484238,266.094543 218.606781,311.222076 
	C210.497742,344.864227 202.331192,378.492493 194.236053,412.137970 
	C193.675522,414.467712 193.564529,416.612671 190.161469,416.581543 
	C173.997299,416.433594 157.831268,416.488098 141.665985,416.446198 
	C141.222198,416.445038 140.779114,416.168762 139.912872,415.879608 
	C159.858582,334.646759 179.787033,253.484192 199.882599,171.640961 
	C173.579498,171.640961 148.144592,171.640961 122.354706,171.640961 
	C122.354706,157.431274 122.354706,143.727188 122.354706,129.746155 
	C166.049683,129.746155 209.638870,129.746155 253.960083,129.746155 
	C252.925537,145.034531 255.946884,160.179932 251.300034,175.423676 
z"/>
<path fill="#FFFEFB" opacity="1.000000" stroke="none" 
	d="
M881.869019,134.013138 
	C897.516785,145.263153 896.093750,169.597565 879.494873,180.261292 
	C896.175720,188.986496 901.457275,212.959686 890.112061,228.426514 
	C886.292358,233.633820 881.195435,237.489563 874.878174,237.956894 
	C861.189575,238.969528 847.437683,239.126587 833.420044,239.644287 
	C833.420044,202.344391 833.420044,166.119904 833.420044,128.991119 
	C849.645386,130.303665 866.079651,126.191566 881.869019,134.013138 
M866.117432,189.079971 
	C862.082214,188.708664 858.046997,188.337341 853.837891,187.950027 
	C853.837891,200.746918 853.837891,212.630203 853.837891,224.790619 
	C857.359192,224.790619 860.524963,225.008545 863.650513,224.746460 
	C870.747070,224.151443 874.627441,221.044540 875.591858,214.228500 
	C876.257690,209.523483 876.103210,204.596878 875.562195,199.855194 
	C874.978577,194.740295 872.018372,190.974045 866.117432,189.079971 
M853.459961,147.074524 
	C853.459961,155.962311 853.459961,164.850098 853.459961,174.334702 
	C858.198120,173.927032 862.160950,173.803436 866.047668,173.194183 
	C870.462952,172.502075 873.205566,169.506882 873.897400,165.256332 
	C874.527771,161.383453 874.654236,157.360657 874.438049,153.435059 
	C874.168945,148.551544 871.183044,145.475372 866.439148,144.555588 
	C863.045837,143.897644 859.540100,143.626419 856.083801,143.620758 
	C855.214417,143.619324 854.342224,145.299637 853.459961,147.074524 
z"/>
<path fill="#FFFEF9" opacity="1.000000" stroke="none" 
	d="
M659.926636,222.205017 
	C657.561890,213.116959 655.247742,204.436859 652.989868,195.742172 
	C651.163940,188.710754 651.193970,188.702957 642.933472,189.617355 
	C642.933472,205.904984 642.933472,222.282761 642.933472,238.914505 
	C635.842834,238.914505 629.430359,238.914505 622.737122,238.914505 
	C622.737122,202.388885 622.737122,166.128342 622.737122,129.142502 
	C637.143982,129.622208 651.478271,127.451065 665.427673,131.591522 
	C677.772339,135.255661 683.724060,145.396255 682.766479,160.181137 
	C682.140015,169.854294 680.749878,179.189865 671.070129,184.678543 
	C670.333618,185.096115 670.311279,187.648880 670.683105,189.010941 
	C674.757385,203.935745 678.981018,218.819717 683.148499,233.719147 
	C683.589478,235.295746 683.931152,236.900131 684.413269,238.878876 
	C677.549561,238.878876 671.125061,238.878876 664.315308,238.878876 
	C662.879944,233.464447 661.440735,228.035553 659.926636,222.205017 
M648.249084,143.177017 
	C646.639099,143.177017 645.029175,143.177017 642.844543,143.177017 
	C642.844543,148.961578 642.844543,154.219955 642.844543,159.478333 
	C642.844543,164.894211 642.844543,170.310074 642.844543,176.070450 
	C649.720032,175.993546 656.601196,177.194168 660.662354,171.058151 
	C664.965576,164.556427 664.339294,157.068481 661.886292,149.972702 
	C659.837219,144.045044 654.250061,143.831818 648.249084,143.177017 
z"/>
<path fill="#FFFEFA" opacity="1.000000" stroke="none" 
	d="
M547.150024,181.999969 
	C547.720642,170.728043 547.478516,159.833557 549.079590,149.217041 
	C550.849060,137.483780 558.571228,130.222427 570.561646,128.923355 
	C576.914856,128.235031 583.535095,128.346207 589.844177,129.324890 
	C598.283997,130.634079 604.417969,135.830215 607.327942,143.993210 
	C608.874268,148.330948 610.365723,152.986664 610.404602,157.511551 
	C610.570496,176.794464 610.935303,196.127914 609.761292,215.353409 
	C608.833923,230.540833 599.316162,238.840698 584.009766,240.143173 
	C579.252869,240.547943 574.306458,240.483444 569.622498,239.648407 
	C557.063843,237.409485 549.329773,228.559921 548.113586,214.403381 
	C547.204285,203.819443 547.429810,193.138000 547.150024,181.999969 
M588.682678,219.824036 
	C589.172302,216.549850 590.058533,213.278900 590.085205,210.000946 
	C590.226379,192.676941 590.160645,175.351166 590.136597,158.026047 
	C590.134094,156.198181 590.093933,154.344604 589.800049,152.547318 
	C588.493469,144.558411 581.021790,140.631790 573.697083,144.100403 
	C568.875854,146.383530 568.103333,150.955444 568.066772,155.502136 
	C567.919495,173.822617 567.963806,192.144821 568.000916,210.466263 
	C568.005249,212.610397 568.290344,214.772324 568.641357,216.893555 
	C569.357178,221.219376 571.574463,224.338058 576.159058,225.075775 
	C581.018677,225.857773 585.528198,225.450684 588.682678,219.824036 
z"/>
<path fill="#FFFFFE" opacity="1.000000" stroke="none" 
	d="
M694.831055,178.999939 
	C694.830994,162.234711 694.830994,145.969482 694.830994,128.286560 
	C709.177185,129.254974 722.977966,129.413147 736.522278,131.357437 
	C746.488281,132.788055 753.379761,140.194580 753.819519,150.163193 
	C754.777832,171.887833 755.344360,193.738373 754.045654,215.416122 
	C753.166626,230.086899 744.568237,237.338928 729.807251,238.594254 
	C718.442871,239.560699 706.930481,238.786835 694.831055,238.786835 
	C694.831055,218.995377 694.831055,199.247665 694.831055,178.999939 
M734.822327,209.162903 
	C734.828247,196.007355 734.906311,182.851257 734.806274,169.696518 
	C734.763306,164.051605 734.505127,158.397263 734.059204,152.769821 
	C733.661316,147.748444 730.428223,144.928986 725.679504,144.283798 
	C722.313232,143.826447 718.834778,144.195190 715.277649,144.195190 
	C715.277649,171.167236 715.277649,197.885696 715.277649,224.928909 
	C717.849731,224.928909 720.155334,225.073166 722.437500,224.902802 
	C730.420898,224.306824 733.238342,221.560394 734.304504,213.545212 
	C734.458191,212.389893 734.602661,211.233353 734.822327,209.162903 
z"/>
<path fill="#FFFFFE" opacity="1.000000" stroke="none" 
	d="
M1244.168945,173.000214 
	C1243.877930,187.307083 1244.504028,201.211166 1243.053833,214.895218 
	C1241.407593,230.427933 1232.271973,238.142456 1216.655762,238.868042 
	C1206.025146,239.361969 1195.353027,238.962418 1184.265381,238.962418 
	C1184.265381,202.589996 1184.265381,166.225082 1184.265381,129.159241 
	C1198.439453,129.652206 1212.780884,127.461060 1226.749146,131.620041 
	C1237.474243,134.813385 1243.117065,143.260590 1243.908325,156.515839 
	C1244.225586,161.830215 1244.095459,167.171310 1244.168945,173.000214 
M1220.436279,147.070663 
	C1215.642212,142.914322 1209.998779,143.903641 1204.253296,144.064255 
	C1204.253296,171.136322 1204.253296,197.843597 1204.253296,225.003510 
	C1205.780029,225.003510 1207.074829,225.005173 1208.369507,225.003235 
	C1219.328369,224.986786 1223.045898,221.978577 1223.360718,211.020065 
	C1223.838379,194.396805 1223.803345,177.750336 1223.553711,161.120224 
	C1223.486084,156.616425 1221.861694,152.135986 1220.436279,147.070663 
z"/>
<path fill="#FFFEFD" opacity="1.000000" stroke="none" 
	d="
M962.184204,354.027466 
	C959.002563,357.983398 955.965820,361.584076 952.273682,365.961823 
	C956.850220,382.274200 961.782837,399.855438 966.915344,418.149445 
	C960.537720,418.149445 954.600891,418.336334 948.696716,417.981140 
	C947.604248,417.915375 946.096497,415.811707 945.706909,414.393982 
	C942.092834,401.244202 938.687256,388.037170 935.210022,374.849701 
	C933.274780,367.510010 933.265259,367.512512 925.126465,368.722290 
	C925.126465,384.910522 925.126465,401.171021 925.126465,417.799133 
	C918.315186,417.799133 911.928223,417.799133 905.182251,417.799133 
	C905.182251,381.560822 905.182251,345.329071 905.182251,307.638794 
	C919.195007,308.572235 933.181641,308.684540 946.890808,310.692017 
	C956.785400,312.140930 962.579529,319.414215 964.247009,329.579956 
	C965.594788,337.796600 965.250977,345.822845 962.184204,354.027466 
M939.255493,323.947784 
	C934.625122,323.324738 929.994751,322.701721 925.377563,322.080444 
	C925.377563,333.848358 925.377563,344.399261 925.377563,354.910706 
	C937.031799,355.750671 942.105164,353.750214 944.519104,347.540070 
	C947.766785,339.185059 945.736694,328.753937 939.255493,323.947784 
z"/>
<path fill="#FFFEFB" opacity="1.000000" stroke="none" 
	d="
M836.175049,356.000061 
	C836.175049,376.805206 836.175049,397.110321 836.175049,418.146240 
	C832.106995,418.146240 828.310242,418.458862 824.618103,417.974121 
	C823.351074,417.807800 821.905334,415.833099 821.288025,414.369537 
	C813.468018,395.829651 805.785461,377.231781 798.062622,358.650879 
	C797.693359,357.762451 797.275024,356.894379 796.161865,356.106171 
	C796.161865,376.570160 796.161865,397.034149 796.161865,417.833618 
	C790.268616,417.833618 784.894226,417.833618 779.254761,417.833618 
	C779.254761,381.447540 779.254761,345.223633 779.254761,308.484375 
	C783.282532,308.484375 787.132080,308.129303 790.853088,308.665863 
	C792.264954,308.869415 793.865540,310.912292 794.556580,312.479828 
	C801.803223,328.917480 808.877380,345.431091 816.016785,361.916138 
	C816.711670,363.520569 817.523438,365.074371 819.344971,366.490173 
	C819.344971,347.355652 819.344971,328.221161 819.344971,308.782990 
	C825.284668,308.782990 830.516663,308.782990 836.175049,308.782990 
	C836.175049,324.553009 836.175049,340.026520 836.175049,356.000061 
z"/>
<path fill="#FFFEFD" opacity="1.000000" stroke="none" 
	d="
M644.108276,363.952393 
	C643.003357,361.302216 642.027832,359.011658 641.052246,356.721100 
	C640.801086,356.734619 640.549866,356.748138 640.298706,356.761627 
	C640.298706,376.989532 640.298706,397.217468 640.298706,417.805115 
	C634.304138,417.805115 628.917908,417.805115 623.177307,417.805115 
	C623.177307,381.554413 623.177307,345.325684 623.177307,308.492920 
	C627.028748,308.492920 630.870789,308.137482 634.584351,308.673065 
	C636.009827,308.878662 637.640442,310.896423 638.331482,312.461914 
	C645.652588,329.046997 652.799072,345.709198 660.007019,362.344330 
	C660.704102,363.953094 661.491577,365.522644 663.011963,366.950409 
	C663.011963,347.744354 663.011963,328.538330 663.011963,308.903870 
	C668.811340,308.903870 674.184448,308.903870 679.784668,308.903870 
	C679.784668,345.142212 679.784668,381.247406 679.784668,418.120544 
	C675.866882,418.120544 671.918274,418.434631 668.075745,417.934326 
	C666.881958,417.778839 665.631714,415.560669 664.990295,414.040833 
	C658.005981,397.492737 651.137634,380.895721 644.108276,363.952393 
z"/>
<path fill="#FFFEFC" opacity="1.000000" stroke="none" 
	d="
M1144.889893,210.209778 
	C1140.165894,198.855164 1135.561035,187.865189 1130.956177,176.875229 
	C1130.680908,176.919586 1130.405762,176.963943 1130.130493,177.008301 
	C1130.130493,197.504333 1130.130493,218.000351 1130.130493,238.831573 
	C1124.266479,238.831573 1118.891479,238.831573 1113.254272,238.831573 
	C1113.254272,202.404083 1113.254272,166.142944 1113.254272,129.176804 
	C1117.232910,129.176804 1121.199707,128.879517 1125.073486,129.348846 
	C1126.317017,129.499481 1127.722778,131.495041 1128.363281,132.950592 
	C1135.664551,149.544693 1142.827881,166.199493 1150.041504,182.832214 
	C1150.740723,184.444092 1151.530518,186.016647 1153.361084,187.475571 
	C1153.361084,168.181961 1153.361084,148.888336 1153.361084,129.383392 
	C1159.226685,129.383392 1164.323730,129.383392 1169.797119,129.383392 
	C1169.797119,165.811981 1169.797119,202.055542 1169.797119,239.123550 
	C1166.065186,239.123550 1162.137085,239.335464 1158.261963,238.976730 
	C1157.275391,238.885406 1156.139893,237.118927 1155.611572,235.890411 
	C1151.996948,227.486313 1148.526123,219.020416 1144.889893,210.209778 
z"/>
<path fill="#FFFEFD" opacity="1.000000" stroke="none" 
	d="
M902.344849,1176.695068 
	C918.570923,1204.824585 934.571228,1232.673584 950.587463,1260.513428 
	C954.393738,1267.129639 953.799622,1273.636353 949.873108,1279.868408 
	C946.062500,1285.916504 940.274475,1288.510620 933.252136,1287.908813 
	C926.941040,1287.367798 921.948547,1284.527588 918.666443,1278.792358 
	C903.211609,1251.785645 887.639832,1224.845825 872.160522,1197.853027 
	C866.940979,1188.751221 869.026062,1178.095703 876.959412,1172.530151 
	C884.615112,1167.159180 895.180420,1168.788696 902.344849,1176.695068 
z"/>
<path fill="#FFFEFD" opacity="1.000000" stroke="none" 
	d="
M427.437683,1151.812012 
	C419.788208,1148.709229 415.349121,1143.516479 415.040161,1135.482910 
	C414.730682,1127.435791 418.250275,1121.701416 425.427246,1117.633667 
	C452.203918,1102.457153 478.813202,1086.985352 505.499298,1071.648804 
	C514.704041,1066.358765 526.002563,1069.170532 531.187195,1077.972778 
	C536.330383,1086.704712 533.168518,1098.122559 524.001953,1103.412720 
	C497.201508,1118.880005 470.337646,1134.237549 443.571899,1149.764526 
	C438.500854,1152.706299 433.407166,1153.673340 427.437683,1151.812012 
z"/>
<path fill="#FFFEFD" opacity="1.000000" stroke="none" 
	d="
M473.942749,932.996033 
	C477.422485,933.114319 480.508484,932.797729 483.384583,933.432312 
	C492.008392,935.335144 497.996216,943.959656 497.232788,952.832092 
	C496.438538,962.062683 489.079285,969.707458 479.940399,969.760864 
	C447.778534,969.948792 415.613892,969.975647 383.452576,969.745422 
	C373.589630,969.674805 365.797363,960.726685 365.998108,950.843933 
	C366.197174,941.045227 374.410065,933.026123 384.463257,933.011658 
	C414.126465,932.968872 443.789795,932.996155 473.942749,932.996033 
z"/>
<path fill="#FFFEFD" opacity="1.000000" stroke="none" 
	d="
M1084.817139,1122.288330 
	C1089.466431,1129.493774 1090.212280,1136.694580 1085.743652,1143.726807 
	C1081.746582,1150.016479 1075.542236,1152.654297 1068.171143,1151.947632 
	C1065.775757,1151.718018 1063.268921,1150.849976 1061.165039,1149.654541 
	C1033.830200,1134.122925 1006.543701,1118.505859 979.280273,1102.848999 
	C970.415405,1097.758057 967.264526,1086.420410 972.131836,1077.729370 
	C976.998413,1069.039551 988.399658,1065.762695 997.280579,1070.811890 
	C1024.767944,1086.439819 1052.192749,1102.177979 1079.601929,1117.942505 
	C1081.436157,1118.997437 1082.938354,1120.629395 1084.817139,1122.288330 
z"/>
<path fill="#FFFEFD" opacity="1.000000" stroke="none" 
	d="
M945.873047,648.921997 
	C931.641724,673.797424 917.596375,698.356384 903.523865,722.899780 
	C898.008606,732.518799 886.940002,735.911011 877.901001,730.813599 
	C868.932617,725.755981 866.094666,714.263123 871.536072,704.748108 
	C886.896240,677.888733 902.274536,651.039734 917.671875,624.201599 
	C922.984192,614.942078 934.079590,611.593201 942.984497,616.485229 
	C951.741211,621.295837 954.819885,632.882141 949.769165,642.102966 
	C948.570557,644.291321 947.290649,646.435059 945.873047,648.921997 
z"/>
<path fill="#FFFEFD" opacity="1.000000" stroke="none" 
	d="
M733.156677,1242.000000 
	C733.156921,1235.667847 733.083679,1229.834595 733.173645,1224.003662 
	C733.331543,1213.774170 741.652954,1205.494141 751.646057,1205.512085 
	C761.666443,1205.530029 769.958313,1213.788696 769.979553,1224.079224 
	C770.044556,1255.573120 770.041626,1287.067261 769.981384,1318.561157 
	C769.961792,1328.838379 761.660583,1337.023438 751.568420,1336.999756 
	C741.588013,1336.976318 733.205383,1328.656738 733.178955,1318.485474 
	C733.113281,1293.157104 733.156921,1267.828491 733.156677,1242.000000 
z"/>
<path fill="#FFFEFD" opacity="1.000000" stroke="none" 
	d="
M486.572021,778.467041 
	C499.151001,785.693237 511.442108,792.685669 523.690186,799.752686 
	C532.900818,805.067261 536.092041,816.318665 530.984436,825.145447 
	C526.019470,833.725464 514.604858,836.854797 505.730835,831.803955 
	C478.397614,816.246765 451.103027,800.621155 423.843933,784.934326 
	C414.984924,779.836243 411.960388,768.475891 416.891785,759.770325 
	C421.775940,751.148071 433.151367,748.000366 442.073029,753.029175 
	C456.850494,761.358643 471.539429,769.845093 486.572021,778.467041 
z"/>
<path fill="#FFFEFD" opacity="1.000000" stroke="none" 
	d="
M569.128174,670.924438 
	C563.641785,661.376038 558.321777,652.154663 553.021301,642.922119 
	C547.636230,633.542358 550.558289,621.936401 559.550110,616.918701 
	C568.445129,611.954895 579.555725,615.250610 584.907227,624.543518 
	C600.351257,651.362366 615.770081,678.195862 631.162537,705.044434 
	C636.633240,714.586975 633.787720,726.055298 624.809265,731.055542 
	C615.825256,736.059021 604.815857,732.879211 599.437012,723.588867 
	C589.349731,706.166199 579.343262,688.696655 569.128174,670.924438 
z"/>
<path fill="#FFFEFD" opacity="1.000000" stroke="none" 
	d="
M592.430054,1192.404419 
	C595.181702,1187.615479 597.646973,1183.082031 600.292053,1178.656250 
	C605.474854,1169.984253 616.998291,1167.034424 625.585205,1172.088867 
	C633.983337,1177.032227 637.105713,1188.277222 632.178650,1196.945679 
	C616.479370,1224.565796 600.702087,1252.141846 584.854614,1279.677368 
	C580.080078,1287.973267 568.760376,1290.873535 560.352539,1286.251831 
	C551.572083,1281.425293 548.113037,1270.052734 553.114929,1261.204834 
	C566.053528,1238.317383 579.175964,1215.533691 592.430054,1192.404419 
z"/>
<path fill="#FFFEFD" opacity="1.000000" stroke="none" 
	d="
M1023.006714,774.051697 
	C1035.589966,766.832458 1047.840820,759.766663 1060.111938,752.736389 
	C1069.328369,747.456299 1080.763794,750.228516 1085.844971,758.930786 
	C1091.094238,767.920837 1087.823242,779.223389 1078.340942,784.676880 
	C1051.371826,800.187805 1024.401978,815.697449 997.405579,831.160767 
	C989.759460,835.540405 980.969971,834.418518 974.874878,828.473083 
	C969.255310,822.991516 967.800354,813.574951 972.125244,806.343384 
	C973.825928,803.499634 976.609192,800.935242 979.483093,799.223389 
	C993.776184,790.709717 1008.263794,782.522522 1023.006714,774.051697 
z"/>
<path fill="#FFFEFD" opacity="1.000000" stroke="none" 
	d="
M761.867310,568.976929 
	C767.659546,573.246948 770.086975,578.623352 770.058594,585.510132 
	C769.932373,616.142944 770.014465,646.776672 769.998596,677.410034 
	C769.992554,688.960999 762.159424,697.236267 751.412964,697.120789 
	C740.910461,697.007935 733.170227,688.728516 733.163269,677.506592 
	C733.144287,646.873169 733.137817,616.239807 733.164490,585.606384 
	C733.178406,569.565918 747.523987,561.084595 761.867310,568.976929 
z"/>
<path fill="#FFFEFD" opacity="1.000000" stroke="none" 
	d="
M1083.000000,969.843323 
	C1063.171387,969.842712 1043.842407,969.916626 1024.514282,969.809631 
	C1015.136414,969.757690 1007.266724,962.882141 1006.017944,954.044250 
	C1004.733948,944.957092 1010.297363,936.232422 1019.174683,933.682373 
	C1021.053223,933.142700 1023.105591,933.025879 1025.078247,933.023376 
	C1056.070679,932.984375 1087.063110,932.987305 1118.055542,933.000793 
	C1128.928833,933.005554 1137.057251,940.744934 1137.162842,951.129944 
	C1137.270264,961.693237 1129.044556,969.771362 1117.991577,969.829529 
	C1106.494751,969.889954 1094.997192,969.843201 1083.000000,969.843323 
z"/>
<path fill="#FFFEF9" opacity="1.000000" stroke="none" 
	d="
M995.853271,348.003845 
	C995.902588,362.162964 995.908752,375.823395 996.043335,389.482574 
	C996.066040,391.787720 996.462646,394.130219 996.998840,396.381042 
	C998.332092,401.978180 1001.177490,404.261383 1006.791016,404.542603 
	C1012.272400,404.817139 1016.443359,402.795807 1017.562073,397.637421 
	C1019.055969,390.749207 1019.319458,383.594177 1020.180481,375.940308 
	C1015.548340,375.675690 1011.988037,375.472321 1008.132202,375.252045 
	C1008.132202,371.124023 1008.132202,367.203949 1008.132202,362.868103 
	C1017.864258,362.868103 1027.564087,362.868103 1037.560791,362.868103 
	C1037.560791,381.117523 1037.560791,399.200195 1037.560791,418.172333 
	C1034.169556,418.172333 1030.762329,418.262512 1027.361572,418.152222 
	C1021.524109,417.962921 1025.672852,412.145050 1022.469177,409.928375 
	C1017.487549,418.573273 1009.425964,420.829224 1000.049622,419.648590 
	C986.190979,417.903564 977.755737,410.653473 976.635071,394.777679 
	C975.163940,373.935822 975.033813,352.809113 976.695312,331.993927 
	C978.132690,313.985535 989.230713,305.723541 1010.954468,307.397766 
	C1028.243652,308.730225 1036.117920,317.473877 1037.007446,334.825989 
	C1037.168579,337.969727 1037.030396,341.128815 1037.030396,344.645813 
	C1030.714966,344.645813 1024.508423,344.645813 1018.157043,344.645813 
	C1017.849487,339.877441 1017.853638,335.225769 1017.179688,330.674500 
	C1016.312744,324.820007 1013.093567,322.305206 1007.334106,322.189667 
	C1001.654358,322.075714 997.798889,324.530884 996.913635,330.110535 
	C996.007690,335.820984 996.162659,341.699707 995.853271,348.003845 
z"/>
<path fill="#FFFEF9" opacity="1.000000" stroke="none" 
	d="
M412.116516,402.292969 
	C413.407562,398.047485 414.852783,394.164825 415.338989,390.165588 
	C415.853241,385.935730 415.454407,381.594818 415.454407,377.194946 
	C422.212067,377.194946 428.325989,377.194946 435.637360,377.194946 
	C434.871338,385.183258 434.939636,393.058289 433.219147,400.520935 
	C430.181427,413.697357 421.331390,419.508484 406.033234,419.848938 
	C387.851410,420.253540 376.391876,411.882599 375.014893,393.834412 
	C373.499664,373.974213 373.597412,353.855347 374.815552,333.960754 
	C376.013794,314.390625 387.629120,305.814880 409.486389,307.392120 
	C425.409180,308.541138 432.979126,316.355408 434.699890,332.422943 
	C435.245270,337.515411 434.785156,342.715607 434.785156,348.204224 
	C428.603241,348.204224 422.500671,348.204224 415.200226,348.204224 
	C415.200226,343.035583 415.437592,337.781982 415.142639,332.558472 
	C414.735565,325.349060 411.780731,322.329895 405.678528,322.191742 
	C399.370667,322.048920 395.151062,325.388824 395.043610,332.172546 
	C394.719177,352.652954 394.514404,373.152557 395.074890,393.622406 
	C395.356720,403.914246 402.574158,407.295532 412.116516,402.292969 
z"/>
<path fill="#FFFEFB" opacity="1.000000" stroke="none" 
	d="
M408.721924,213.849609 
	C406.083984,213.847931 403.918060,213.847488 401.752167,213.847519 
	C393.480286,213.847656 393.498840,213.850861 392.095062,222.161697 
	C391.236237,227.246262 390.319519,232.321167 389.398254,237.394867 
	C389.312012,237.869965 389.006012,238.305161 388.732788,238.912918 
	C382.668243,238.912918 376.564667,238.912918 370.034515,238.912918 
	C377.483002,202.274414 384.863403,165.970856 392.346802,129.160751 
	C398.595062,129.160751 404.739349,128.956421 410.846741,129.339966 
	C412.012726,129.413177 413.711578,131.664917 414.020325,133.149536 
	C420.117340,162.463654 426.048706,191.812256 432.005066,221.155609 
	C433.183411,226.960693 434.325684,232.773102 435.599915,239.160324 
	C429.637421,239.160324 424.330902,239.365417 419.065613,238.990646 
	C417.987030,238.913895 416.467712,236.791443 416.170959,235.395233 
	C414.891907,229.378387 414.173096,223.239929 412.815033,217.244354 
	C412.512390,215.908401 410.447479,214.971619 408.721924,213.849609 
M407.450165,183.945038 
	C406.127472,175.908432 404.804779,167.871811 403.482086,159.835205 
	C403.110687,159.863129 402.739319,159.891068 402.367950,159.919006 
	C400.199097,173.259766 398.030273,186.600510 395.804871,200.289093 
	C400.790192,200.289093 405.196075,200.289093 410.046600,200.289093 
	C409.218262,194.903717 408.440857,189.849533 407.450165,183.945038 
z"/>
<path fill="#FFFEFB" opacity="1.000000" stroke="none" 
	d="
M1049.298584,190.267426 
	C1053.260254,170.960205 1057.199585,152.081696 1060.914917,133.159195 
	C1061.512573,130.115524 1062.564453,128.932953 1065.755859,129.082443 
	C1071.224854,129.338577 1076.714478,129.153183 1082.800293,129.153183 
	C1090.218750,165.717331 1097.605347,202.124557 1105.062744,238.880661 
	C1098.649292,238.880661 1092.569336,238.880661 1086.236938,238.880661 
	C1084.743164,230.589310 1083.278442,222.458954 1081.775391,214.115631 
	C1075.603882,214.115631 1069.666016,214.115631 1063.121948,214.115631 
	C1061.656006,222.110306 1060.168945,230.219620 1058.604492,238.750946 
	C1052.481079,238.750946 1046.282593,238.750946 1039.576538,238.750946 
	C1042.818848,222.559174 1046.010498,206.620361 1049.298584,190.267426 
M1074.840088,170.655869 
	C1074.138428,166.783936 1073.436646,162.911987 1072.734985,159.040039 
	C1072.471313,159.052444 1072.207642,159.064835 1071.943970,159.077240 
	C1069.735840,172.727081 1067.527710,186.376938 1065.278320,200.281189 
	C1070.275391,200.281189 1074.528564,200.281189 1079.488525,200.281189 
	C1077.925781,190.442581 1076.423462,180.984390 1074.840088,170.655869 
z"/>
<path fill="#FFFEFB" opacity="1.000000" stroke="none" 
	d="
M599.143677,340.649475 
	C604.396362,366.481110 609.572327,391.894592 614.840576,417.761292 
	C608.536499,417.761292 602.505615,417.761292 596.025574,417.761292 
	C594.572205,409.746918 593.099548,401.625916 591.585754,393.278534 
	C585.467224,393.278534 579.528320,393.278534 572.953918,393.278534 
	C571.695862,400.080841 570.136047,407.003998 569.236084,414.011902 
	C568.778992,417.570740 567.284973,418.369598 564.093018,418.227478 
	C559.461304,418.021271 554.813538,418.174591 549.358093,418.174591 
	C550.277649,413.570007 551.092346,409.426697 551.933411,405.288757 
	C558.193115,374.495209 564.527893,343.716553 570.625854,312.891052 
	C571.326965,309.347076 572.624084,308.204041 576.139709,308.391968 
	C581.439941,308.675293 586.766479,308.465820 592.631287,308.465820 
	C594.803711,319.188721 596.935303,329.710022 599.143677,340.649475 
M576.248169,371.695557 
	C575.916077,374.261230 575.583984,376.826874 575.240173,379.482971 
	C580.081543,379.482971 584.461609,379.482971 589.367371,379.482971 
	C587.099121,365.458405 584.904419,351.888397 582.709717,338.318359 
	C582.423340,338.279724 582.136963,338.241058 581.850647,338.202393 
	C580.036316,349.085114 578.222046,359.967834 576.248169,371.695557 
z"/>
<path fill="#FFFEFB" opacity="1.000000" stroke="none" 
	d="
M779.923706,233.968170 
	C779.510010,235.840881 779.162048,237.286606 778.767761,238.924866 
	C772.582947,238.924866 766.484436,238.924866 759.838379,238.924866 
	C767.286621,202.277786 774.664429,165.976944 782.090332,129.439819 
	C789.058411,129.439819 795.827454,129.439819 803.219910,129.439819 
	C810.559692,165.622803 817.924744,201.930450 825.469910,239.126160 
	C819.414368,239.126160 813.850464,239.258392 808.306946,238.981049 
	C807.492188,238.940277 806.322937,237.044769 806.086365,235.854599 
	C804.661804,228.689362 803.461609,221.479492 802.153381,214.098862 
	C795.888550,214.098862 789.933533,214.098862 783.441956,214.098862 
	C782.296448,220.549759 781.143005,227.045471 779.923706,233.968170 
M791.911133,161.867508 
	C789.827026,174.569595 787.742920,187.271683 785.623169,200.191071 
	C790.786682,200.191071 795.155151,200.191071 799.928406,200.191071 
	C797.610291,186.092087 795.363953,172.429459 793.117615,158.766846 
	C792.839233,158.791687 792.560791,158.816544 792.282410,158.841385 
	C792.180664,159.620346 792.078979,160.399307 791.911133,161.867508 
z"/>
<path fill="#FFFEFB" opacity="1.000000" stroke="none" 
	d="
M499.991913,357.000000 
	C499.991913,340.695221 499.991913,324.890411 499.991913,308.775757 
	C515.413147,308.775757 530.485840,308.775757 545.763428,308.775757 
	C545.763428,313.441833 545.763428,317.857819 545.763428,322.801941 
	C537.286682,322.801941 529.041687,322.801941 520.491577,322.801941 
	C520.491577,333.380554 520.491577,343.431641 520.491577,353.862549 
	C527.169067,353.862549 533.614075,353.862549 540.452515,353.862549 
	C540.452515,358.774841 540.452515,363.322571 540.452515,368.555511 
	C533.841248,368.555511 527.272034,368.555511 520.453796,368.555511 
	C520.453796,380.643066 520.453796,392.053253 520.453796,404.010345 
	C529.029602,404.010345 537.437622,404.010345 546.185425,404.010345 
	C546.185425,408.953979 546.185425,413.353485 546.185425,417.965454 
	C530.809998,417.965454 515.708557,417.965454 499.991913,417.965454 
	C499.991913,397.687836 499.991913,377.593933 499.991913,357.000000 
z"/>
<path fill="#FFFEFB" opacity="1.000000" stroke="none" 
	d="
M870.008057,343.964203 
	C870.008057,347.427338 870.008057,350.397156 870.008057,353.928772 
	C876.900085,353.928772 883.457581,353.928772 890.269409,353.928772 
	C890.269409,358.921051 890.269409,363.348755 890.269409,368.309082 
	C883.672668,368.309082 877.251709,368.309082 870.422119,368.309082 
	C870.422119,380.366333 870.422119,391.903442 870.422119,404.031860 
	C878.718750,404.031860 887.110474,404.031860 895.831177,404.031860 
	C895.831177,408.855927 895.831177,413.106445 895.831177,417.769043 
	C880.726013,417.769043 865.542664,417.769043 850.116699,417.769043 
	C850.116699,381.408203 850.116699,345.199036 850.116699,308.726746 
	C865.332275,308.726746 880.255066,308.726746 895.513306,308.726746 
	C895.513306,313.362213 895.513306,317.749908 895.513306,322.664856 
	C887.159180,322.664856 878.912964,322.664856 870.008057,322.664856 
	C870.008057,329.935455 870.008057,336.703186 870.008057,343.964203 
z"/>
<path fill="#FFFEFB" opacity="1.000000" stroke="none" 
	d="
M723.823730,339.999939 
	C723.823730,329.360657 723.823730,319.221375 723.823730,308.775635 
	C739.325989,308.775635 754.403870,308.775635 769.745483,308.775635 
	C769.745483,313.389801 769.745483,317.801544 769.745483,322.639648 
	C761.333801,322.639648 753.064575,322.639648 744.404297,322.639648 
	C744.404297,333.113342 744.404297,343.176910 744.404297,353.796814 
	C750.785950,353.796814 757.353394,353.796814 764.225098,353.796814 
	C764.225098,358.780823 764.225098,363.217072 764.225098,368.338135 
	C757.677002,368.338135 751.123840,368.338135 744.297363,368.338135 
	C744.297363,380.446167 744.297363,391.878937 744.297363,403.910706 
	C752.588928,403.910706 760.974548,403.910706 769.761902,403.910706 
	C769.761902,408.859650 769.761902,413.219727 769.761902,417.881775 
	C754.614868,417.881775 739.550598,417.881775 723.823730,417.881775 
	C723.823730,392.001312 723.823730,366.250641 723.823730,339.999939 
z"/>
<path fill="#FFFEFD" opacity="1.000000" stroke="none" 
	d="
M1006.171265,231.083405 
	C1006.171265,233.864639 1006.171265,236.169739 1006.171265,238.818390 
	C990.740662,238.818390 975.682434,238.818390 960.225098,238.818390 
	C960.225098,202.535309 960.225098,166.191559 960.225098,129.501343 
	C975.282532,129.501343 990.327942,129.501343 1005.689941,129.501343 
	C1005.689941,134.156738 1005.689941,138.709839 1005.689941,143.680954 
	C997.268616,143.680954 989.005127,143.680954 980.374695,143.680954 
	C980.374695,154.147202 980.374695,164.209534 980.374695,174.825195 
	C986.806763,174.825195 993.369385,174.825195 1000.226562,174.825195 
	C1000.226562,179.788574 1000.226562,184.203827 1000.226562,189.077957 
	C993.574402,189.077957 987.149475,189.077957 980.368530,189.077957 
	C980.368530,201.224976 980.368530,212.918671 980.368530,225.181213 
	C988.869019,225.181213 997.263977,225.181213 1006.171204,225.181213 
	C1006.171204,227.364731 1006.171204,228.985992 1006.171265,231.083405 
z"/>
<path fill="#FFFEF9" opacity="1.000000" stroke="none" 
	d="
M1071.893555,342.932068 
	C1072.750000,345.661316 1073.497803,348.013855 1074.590698,351.452118 
	C1078.562256,338.167572 1082.413452,325.981384 1085.772217,313.660889 
	C1086.897461,309.533569 1088.692749,307.982300 1092.937866,308.374054 
	C1097.049683,308.753601 1101.223999,308.456360 1106.144165,308.456360 
	C1103.501099,316.661530 1101.051758,324.337921 1098.553467,331.998444 
	C1096.490601,338.323608 1094.634399,344.732880 1092.224121,350.924774 
	C1085.807495,367.408417 1082.379639,384.291229 1083.942505,402.074768 
	C1084.390625,407.173798 1084.011230,412.345490 1084.011230,417.829285 
	C1077.451294,417.829285 1071.239258,417.829285 1064.456299,417.829285 
	C1064.456299,407.706970 1064.167847,397.734528 1064.547485,387.787598 
	C1064.852051,379.808136 1063.373657,372.321472 1060.817993,364.838104 
	C1055.067261,347.998871 1049.581909,331.068939 1044.003906,314.170929 
	C1043.489868,312.613739 1043.084595,311.020660 1042.356812,308.503357 
	C1048.359375,308.503357 1053.920898,308.328125 1059.451172,308.664886 
	C1060.446899,308.725525 1061.732300,310.757690 1062.174438,312.111359 
	C1065.478394,322.226593 1068.603760,332.400116 1071.893555,342.932068 
z"/>
<path fill="#FFFDF6" opacity="1.000000" stroke="none" 
	d="
M483.372803,175.581848 
	C483.680389,180.082047 483.680389,184.232971 483.680389,188.985352 
	C477.224976,188.985352 470.833771,188.985352 464.012085,188.985352 
	C464.012085,205.864792 464.012085,222.150330 464.012085,238.815689 
	C457.048309,238.815689 450.512329,238.815689 443.708130,238.815689 
	C443.708130,202.421280 443.708130,166.169525 443.708130,129.528320 
	C458.609436,129.528320 473.327240,129.528320 488.454651,129.528320 
	C488.454651,133.899429 488.454651,138.302658 488.454651,143.424805 
	C480.529816,143.424805 472.480621,143.424805 464.154419,143.424805 
	C464.154419,154.212875 464.154419,164.293686 464.154419,175.232544 
	C470.528168,175.232544 476.796661,175.232544 483.372803,175.581848 
z"/>
<path fill="#FFFDF6" opacity="1.000000" stroke="none" 
	d="
M507.035767,129.139221 
	C518.656616,129.139236 529.782715,129.139236 541.228516,129.139236 
	C541.228516,134.035446 541.228516,138.442978 541.228516,143.467285 
	C533.123901,143.467285 525.219666,143.467285 516.941162,143.467285 
	C516.941162,154.151398 516.941162,164.230148 516.941162,174.780579 
	C523.166992,174.780579 529.440552,174.780579 536.131042,174.780579 
	C536.131042,179.628555 536.131042,184.021332 536.131042,188.972839 
	C530.040710,188.972839 523.791626,188.972839 516.837158,188.972839 
	C516.837158,205.865707 516.837158,222.240128 516.837158,238.901337 
	C509.699829,238.901337 503.269318,238.901337 496.487305,238.901337 
	C496.487305,202.470718 496.487305,166.110397 496.487305,129.139206 
	C499.972260,129.139206 503.256653,129.139206 507.035767,129.139221 
z"/>
<path fill="#FFFFFE" opacity="1.000000" stroke="none" 
	d="
M445.999817,414.820129 
	C445.998047,379.240448 445.998047,344.146179 445.998047,308.778961 
	C452.821259,308.778961 459.230103,308.778961 465.949402,308.778961 
	C465.949402,340.506622 465.949402,371.932373 465.949402,403.944611 
	C474.613861,403.944611 482.996948,403.944611 491.768127,403.944611 
	C491.768127,408.883881 491.768127,413.242035 491.768127,418.148163 
	C477.222046,418.148163 462.790466,418.193329 448.361328,418.026917 
	C447.564392,418.017731 446.787689,416.253082 445.999817,414.820129 
z"/>
<path fill="#FFFFFE" opacity="1.000000" stroke="none" 
	d="
M905.831055,221.998718 
	C905.830994,190.891357 905.830994,160.283859 905.830994,129.419556 
	C912.711548,129.419556 918.976196,129.419556 925.860352,129.419556 
	C925.860352,161.193512 925.860352,192.901672 925.860352,225.023880 
	C934.731812,225.023880 942.997009,225.023880 951.712463,225.023880 
	C951.712463,229.789169 951.712463,234.145859 951.712463,238.843475 
	C936.670898,238.843475 921.600586,238.843475 905.831055,238.843475 
	C905.831055,233.362732 905.831055,227.930649 905.831055,221.998718 
z"/>
<path fill="#FCC30C" opacity="1.000000" stroke="none" 
	d="
M715.342651,1060.775635 
	C666.813354,1044.336426 634.712952,998.770264 636.591675,947.741760 
	C638.794495,887.909180 682.479004,851.498108 716.949951,842.239868 
	C717.023499,843.916870 717.150757,845.511169 717.154053,847.105713 
	C717.173340,856.436096 716.711243,865.796021 717.316833,875.086914 
	C717.745972,881.670654 715.555542,885.219299 709.887634,888.852051 
	C681.779236,906.867188 669.515198,941.747009 679.292908,973.750671 
	C688.947205,1005.350342 718.184998,1026.996704 751.215942,1026.999268 
	C785.892090,1027.001953 815.270386,1004.765747 824.449097,971.569763 
	C833.563782,938.605164 819.592468,904.109985 789.751953,886.498169 
	C786.711487,884.703674 785.715210,882.827209 785.764954,879.449158 
	C785.946289,867.137939 785.836609,854.822510 785.836609,841.565857 
	C821.296753,853.930115 846.547302,876.435913 859.118652,911.194885 
	C875.232788,955.749268 867.089600,996.804016 834.397461,1030.940918 
	C801.679749,1065.104492 761.136719,1074.105835 715.342651,1060.775635 
z"/>
<path fill="#FCC40D" opacity="1.000000" stroke="none" 
	d="
M735.162354,893.643860 
	C735.161499,869.528870 735.151184,845.874023 735.165894,822.219177 
	C735.172485,811.681763 742.047668,804.049988 751.521973,803.997620 
	C761.046936,803.945007 767.989136,811.517883 767.997253,822.047974 
	C768.015320,845.536255 768.015381,869.024475 767.996948,892.512756 
	C767.989197,902.420471 761.380676,909.999634 752.401001,910.486633 
	C743.436829,910.972839 736.081543,903.982483 735.162354,893.643860 
z"/>
<path fill="#FCC514" opacity="1.000000" stroke="none" 
	d="
M866.502319,189.185242 
	C872.018372,190.974045 874.978577,194.740295 875.562195,199.855194 
	C876.103210,204.596878 876.257690,209.523483 875.591858,214.228500 
	C874.627441,221.044540 870.747070,224.151443 863.650513,224.746460 
	C860.524963,225.008545 857.359192,224.790619 853.837891,224.790619 
	C853.837891,212.630203 853.837891,200.746918 853.837891,187.950027 
	C858.046997,188.337341 862.082214,188.708664 866.502319,189.185242 
z"/>
<path fill="#FCC514" opacity="1.000000" stroke="none" 
	d="
M853.465637,146.640808 
	C854.342224,145.299637 855.214417,143.619324 856.083801,143.620758 
	C859.540100,143.626419 863.045837,143.897644 866.439148,144.555588 
	C871.183044,145.475372 874.168945,148.551544 874.438049,153.435059 
	C874.654236,157.360657 874.527771,161.383453 873.897400,165.256332 
	C873.205566,169.506882 870.462952,172.502075 866.047668,173.194183 
	C862.160950,173.803436 858.198120,173.927032 853.459961,174.334702 
	C853.459961,164.850098 853.459961,155.962311 853.465637,146.640808 
z"/>
<path fill="#FCC40E" opacity="1.000000" stroke="none" 
	d="
M648.685120,143.186737 
	C654.250061,143.831818 659.837219,144.045044 661.886292,149.972702 
	C664.339294,157.068481 664.965576,164.556427 660.662354,171.058151 
	C656.601196,177.194168 649.720032,175.993546 642.844543,176.070450 
	C642.844543,170.310074 642.844543,164.894211 642.844543,159.478333 
	C642.844543,154.219955 642.844543,148.961578 642.844543,143.177017 
	C645.029175,143.177017 646.639099,143.177017 648.685120,143.186737 
z"/>
<path fill="#FCC30C" opacity="1.000000" stroke="none" 
	d="
M588.486572,220.173706 
	C585.528198,225.450684 581.018677,225.857773 576.159058,225.075775 
	C571.574463,224.338058 569.357178,221.219376 568.641357,216.893555 
	C568.290344,214.772324 568.005249,212.610397 568.000916,210.466263 
	C567.963806,192.144821 567.919495,173.822617 568.066772,155.502136 
	C568.103333,150.955444 568.875854,146.383530 573.697083,144.100403 
	C581.021790,140.631790 588.493469,144.558411 589.800049,152.547318 
	C590.093933,154.344604 590.134094,156.198181 590.136597,158.026047 
	C590.160645,175.351166 590.226379,192.676941 590.085205,210.000946 
	C590.058533,213.278900 589.172302,216.549850 588.486572,220.173706 
z"/>
<path fill="#FCC40E" opacity="1.000000" stroke="none" 
	d="
M734.786865,209.620148 
	C734.602661,211.233353 734.458191,212.389893 734.304504,213.545212 
	C733.238342,221.560394 730.420898,224.306824 722.437500,224.902802 
	C720.155334,225.073166 717.849731,224.928909 715.277649,224.928909 
	C715.277649,197.885696 715.277649,171.167236 715.277649,144.195190 
	C718.834778,144.195190 722.313232,143.826447 725.679504,144.283798 
	C730.428223,144.928986 733.661316,147.748444 734.059204,152.769821 
	C734.505127,158.397263 734.763306,164.051605 734.806274,169.696518 
	C734.906311,182.851257 734.828247,196.007355 734.786865,209.620148 
z"/>
<path fill="#FCC40E" opacity="1.000000" stroke="none" 
	d="
M1220.694092,147.357758 
	C1221.861694,152.135986 1223.486084,156.616425 1223.553711,161.120224 
	C1223.803345,177.750336 1223.838379,194.396805 1223.360718,211.020065 
	C1223.045898,221.978577 1219.328369,224.986786 1208.369507,225.003235 
	C1207.074829,225.005173 1205.780029,225.003510 1204.253296,225.003510 
	C1204.253296,197.843597 1204.253296,171.136322 1204.253296,144.064255 
	C1209.998779,143.903641 1215.642212,142.914322 1220.694092,147.357758 
z"/>
<path fill="#FCC40E" opacity="1.000000" stroke="none" 
	d="
M939.618652,324.086670 
	C945.736694,328.753937 947.766785,339.185059 944.519104,347.540070 
	C942.105164,353.750214 937.031799,355.750671 925.377563,354.910706 
	C925.377563,344.399261 925.377563,333.848358 925.377563,322.080444 
	C929.994751,322.701721 934.625122,323.324738 939.618652,324.086670 
z"/>
<path fill="#FCC71A" opacity="1.000000" stroke="none" 
	d="
M407.556793,184.370193 
	C408.440857,189.849533 409.218262,194.903717 410.046600,200.289093 
	C405.196075,200.289093 400.790192,200.289093 395.804871,200.289093 
	C398.030273,186.600510 400.199097,173.259766 402.367950,159.919006 
	C402.739319,159.891068 403.110687,159.863129 403.482086,159.835205 
	C404.804779,167.871811 406.127472,175.908432 407.556793,184.370193 
z"/>
<path fill="#FCC71A" opacity="1.000000" stroke="none" 
	d="
M1074.880615,171.091034 
	C1076.423462,180.984390 1077.925781,190.442581 1079.488525,200.281189 
	C1074.528564,200.281189 1070.275391,200.281189 1065.278320,200.281189 
	C1067.527710,186.376938 1069.735840,172.727081 1071.943970,159.077240 
	C1072.207642,159.064835 1072.471313,159.052444 1072.734985,159.040039 
	C1073.436646,162.911987 1074.138428,166.783936 1074.880615,171.091034 
z"/>
<path fill="#FCC71A" opacity="1.000000" stroke="none" 
	d="
M576.328003,371.273071 
	C578.222046,359.967834 580.036316,349.085114 581.850647,338.202393 
	C582.136963,338.241058 582.423340,338.279724 582.709717,338.318359 
	C584.904419,351.888397 587.099121,365.458405 589.367371,379.482971 
	C584.461609,379.482971 580.081543,379.482971 575.240173,379.482971 
	C575.583984,376.826874 575.916077,374.261230 576.328003,371.273071 
z"/>
<path fill="#FCC71A" opacity="1.000000" stroke="none" 
	d="
M791.944214,161.522888 
	C792.078979,160.399307 792.180664,159.620346 792.282410,158.841385 
	C792.560791,158.816544 792.839233,158.791687 793.117615,158.766846 
	C795.363953,172.429459 797.610291,186.092087 799.928406,200.191071 
	C795.155151,200.191071 790.786682,200.191071 785.623169,200.191071 
	C787.742920,187.271683 789.827026,174.569595 791.944214,161.522888 
z"/>
</svg>