<svg version="1.1" id="Layer_1" xmlns="http://www.w3.org/2000/svg" xmlns:xlink="http://www.w3.org/1999/xlink" x="0px" y="0px"
	 width="100%" viewBox="0 0 1500 1500" enable-background="new 0 0 1500 1500" xml:space="preserve">
<path fill="#3F7E44" opacity="1.000000" stroke="none" 
	d="
M1.000000,526.000000 
	C1.000000,350.666687 1.000000,175.833389 1.000000,1.000070 
	C500.999878,1.000047 1000.999756,1.000047 1500.999756,1.000023 
	C1500.999756,500.999786 1500.999756,1000.999573 1500.999878,1500.999512 
	C1001.000305,1500.999756 501.000610,1500.999756 1.000449,1500.999878 
	C1.000000,1176.166626 1.000000,851.333313 1.000000,526.000000 
M581.863892,685.332886 
	C533.177734,698.343079 486.376373,716.242371 441.847992,739.874817 
	C347.861816,789.755798 268.573578,856.798523 205.487488,942.730347 
	C203.083160,946.005310 203.217957,948.094299 205.525253,951.312012 
	C238.037964,996.654541 276.218323,1036.696777 318.976562,1072.390381 
	C427.738586,1163.182617 552.542908,1216.030396 693.653564,1229.764771 
	C755.434937,1235.778198 817.072205,1233.833374 878.333984,1223.755371 
	C978.379028,1207.297241 1070.187012,1170.167358 1153.553589,1112.460693 
	C1217.340942,1068.306763 1272.947144,1015.617310 1318.577759,952.650085 
	C1320.778076,949.613770 1320.974243,947.659119 1318.703613,944.485779 
	C1295.755737,912.412537 1269.731079,883.050110 1241.345093,855.725281 
	C1185.211670,801.690430 1122.021362,757.897400 1051.297974,725.141541 
	C949.986877,678.218872 843.243103,658.910889 731.996155,663.090454 
	C681.430420,664.990173 631.633789,672.355347 581.863892,685.332886 
M369.170227,338.482849 
	C368.784210,330.175049 369.010956,321.783539 367.889343,313.576263 
	C365.251465,294.274231 357.595062,277.800537 339.460358,268.033569 
	C337.839172,267.160431 336.169769,266.376892 334.141205,265.360626 
	C353.439758,257.611664 362.736053,242.577011 367.101532,223.788635 
	C370.158356,210.632462 370.032349,197.295517 367.903900,184.068893 
	C363.418610,156.196457 348.088959,137.214554 320.620209,129.292068 
	C303.215118,124.272102 285.375031,124.083221 267.745178,128.209167 
	C244.685394,133.605896 228.662430,147.458984 220.425964,169.840210 
	C214.497025,185.951126 214.622025,202.726013 215.162216,219.637253 
	C233.482483,219.637253 251.515060,219.637253 269.840912,219.637253 
	C269.840912,215.796463 269.479248,212.272766 269.910339,208.848862 
	C271.088501,199.492035 272.203552,190.094269 274.129669,180.876999 
	C275.285553,175.345444 279.555603,171.467056 285.120087,170.319275 
	C297.235229,167.820236 309.200287,170.117722 312.906586,186.302841 
	C315.736572,198.661423 315.745880,211.112457 313.317841,223.494278 
	C309.976837,240.531754 301.341156,247.515457 283.854279,247.820435 
	C280.563477,247.877838 277.270782,247.828629 273.747284,247.828629 
	C273.747284,261.437775 273.747284,274.535522 273.747284,287.687256 
	C278.629120,288.055481 283.271027,288.289551 287.886353,288.775726 
	C301.330566,290.191925 308.505707,295.909332 311.930115,308.988983 
	C316.349762,325.869629 316.185852,342.980774 312.256744,359.917877 
	C309.607880,371.336395 303.829163,375.346466 292.218384,375.157867 
	C282.343445,374.997498 276.203827,370.594940 273.303741,361.220734 
	C272.227509,357.741882 271.383850,354.113373 271.054718,350.496674 
	C270.290253,342.095947 269.903534,333.660828 269.352325,325.062927 
	C251.309052,325.062927 233.391418,325.062927 215.116776,325.062927 
	C214.505280,346.572906 215.872955,367.470856 225.503723,387.024445 
	C233.309784,402.873413 245.773666,413.262360 262.762726,417.845764 
	C281.090393,422.790253 299.650604,423.032654 318.112152,418.589935 
	C336.715698,414.113098 350.134003,402.986664 358.627472,385.823090 
	C365.863159,371.201324 368.683960,355.612030 369.170227,338.482849 
M187.001755,287.500000 
	C187.001755,234.943985 187.001755,182.387985 187.001755,129.490616 
	C175.646851,129.490616 164.992447,129.785278 154.364471,129.382538 
	C147.757233,129.132156 142.877792,131.334839 137.261017,134.992996 
	C123.386101,144.029572 108.471924,151.467361 94.016243,159.620056 
	C92.592453,160.423050 90.365120,161.703979 90.343216,162.799713 
	C90.085403,175.694260 90.177628,188.595810 90.177628,202.051361 
	C104.383217,196.932861 117.899574,192.062698 131.971466,186.992371 
	C131.971466,263.651611 131.971466,339.858795 131.971466,416.213776 
	C150.533051,416.213776 168.621552,416.213776 187.001755,416.213776 
	C187.001755,373.445892 187.001755,330.972931 187.001755,287.500000 
M654.522156,184.171219 
	C654.522156,179.415588 654.522156,174.659958 654.522156,169.904312 
	C654.944031,169.868774 655.365906,169.833221 655.787781,169.797668 
	C660.659607,192.783646 665.531433,215.769623 670.493286,239.180084 
	C673.322693,239.180084 675.978455,238.972031 678.587219,239.233063 
	C681.803467,239.554855 682.824097,238.214310 683.355042,235.152206 
	C684.661011,227.619019 686.420654,220.164536 687.996033,212.678024 
	C691.063965,198.098984 694.130737,183.519699 697.197876,168.940506 
	C697.680054,168.970215 698.162231,168.999908 698.644409,169.029602 
	C698.644409,192.226547 698.644409,215.423492 698.644409,238.887970 
	C704.527283,238.887970 709.408875,238.887970 714.639709,238.887970 
	C714.022034,202.237701 713.409424,165.886780 712.790405,129.153671 
	C706.505676,129.153671 700.859070,128.971497 695.242554,129.301468 
	C694.065002,129.370667 692.311523,131.155426 691.993591,132.439377 
	C690.156250,139.859482 688.656433,147.363647 687.067322,154.844650 
	C683.631775,171.018143 680.211365,187.194855 676.784790,203.370255 
	C676.481079,203.384003 676.177307,203.397751 675.873596,203.411499 
	C670.771484,178.757019 665.669373,154.102539 660.561279,129.418884 
	C653.494446,129.418884 646.906067,129.418884 639.829895,129.418884 
	C639.210144,166.037598 638.594849,202.394943 637.978333,238.824219 
	C643.387390,238.824219 648.261230,238.824219 654.506226,238.824219 
	C654.506226,220.687149 654.506226,202.898483 654.522156,184.171219 
M756.225647,313.204926 
	C750.317017,311.211456 744.502197,307.894684 738.482483,307.467926 
	C718.934692,306.082214 705.164001,312.525238 703.821838,335.123871 
	C702.698914,354.031830 702.744446,373.125610 703.985779,392.024567 
	C705.210327,410.667297 714.010925,418.657196 732.410095,419.640594 
	C750.336365,420.598724 764.343445,414.398407 765.890503,391.999176 
	C767.149658,373.768066 766.569214,355.388489 766.298035,337.082275 
	C766.167419,328.264954 763.602051,319.986542 756.225647,313.204926 
M834.176392,335.500092 
	C834.176392,326.689819 834.176392,317.879547 834.176392,308.931152 
	C828.430481,308.931152 823.076294,308.931152 817.061646,308.931152 
	C817.061646,328.458069 817.061646,347.539215 817.061646,366.620331 
	C815.556641,365.180969 814.822815,363.718628 814.174866,362.219208 
	C806.993164,345.599518 799.872253,328.953156 792.574097,312.384827 
	C791.893127,310.838776 790.241516,308.866791 788.819031,308.666626 
	C785.094055,308.142395 781.246399,308.489807 777.378540,308.489807 
	C777.378540,345.323792 777.378540,381.667450 777.378540,417.779358 
	C783.179260,417.779358 788.588928,417.779358 794.409668,417.779358 
	C794.409668,397.213501 794.409668,377.041901 794.409668,356.870270 
	C795.849060,358.156158 796.535034,359.601196 797.148254,361.076447 
	C804.482788,378.718414 811.765686,396.382172 819.201477,413.981323 
	C819.877869,415.582245 821.368408,417.759613 822.740051,417.968628 
	C826.403809,418.527008 830.208801,418.158722 834.176392,418.158722 
	C834.176392,390.441071 834.176392,363.470581 834.176392,335.500092 
M587.015808,401.481171 
	C580.003723,407.494690 571.561096,404.930969 569.519653,396.085571 
	C569.038208,393.999786 568.885437,391.798096 568.879578,389.648926 
	C568.830872,371.816589 568.813110,353.983856 568.897400,336.151794 
	C568.909119,333.690155 569.205261,331.129211 569.938293,328.792633 
	C571.448486,323.978668 575.597595,321.609802 580.861694,322.236969 
	C585.761169,322.820709 588.887939,325.346710 589.217773,330.521423 
	C589.587158,336.317535 589.830872,342.121643 590.141968,348.168335 
	C596.417847,348.168335 602.630127,348.168335 609.036316,348.168335 
	C609.036316,343.331177 609.220398,338.841278 609.003662,334.370819 
	C608.173645,317.248260 600.154114,308.461609 583.167358,307.351288 
	C562.963806,306.030731 550.192078,313.588104 548.999084,334.495209 
	C547.891907,353.899780 547.915466,373.472961 549.085938,392.872650 
	C550.148499,410.484558 559.482483,418.325470 577.263611,419.771149 
	C592.865784,421.039642 604.500793,414.090515 607.526123,400.541718 
	C609.196106,393.062683 609.052124,385.178528 609.736023,377.361816 
	C602.410339,377.361816 596.195374,377.361816 590.899902,377.361816 
	C589.725159,385.512970 588.621277,393.172211 587.015808,401.481171 
M481.821960,171.500793 
	C481.821960,182.163895 481.562500,192.835770 481.922211,203.486725 
	C482.128357,209.591782 482.698090,215.831482 484.242218,221.711700 
	C486.888580,231.789352 493.938202,238.024353 504.199402,239.668396 
	C515.613647,241.497192 526.914124,241.490372 535.838501,232.236893 
	C536.977539,231.055847 537.945496,229.622955 538.677246,228.150009 
	C543.441895,218.559143 543.213135,208.336395 542.828857,198.075226 
	C536.205872,198.075226 530.093689,198.075226 523.082336,198.075226 
	C523.082336,203.938202 523.260742,209.575974 523.035645,215.197586 
	C522.774536,221.718674 519.522278,225.110443 513.766663,225.415497 
	C507.644043,225.739990 504.039001,222.716660 503.012512,216.101395 
	C502.529510,212.988495 502.197784,209.812302 502.218842,206.667618 
	C502.338165,188.853775 502.313507,171.031540 502.919342,153.231964 
	C503.168945,145.897980 507.244781,142.753967 513.795288,143.027435 
	C519.994995,143.286255 522.945251,146.700424 523.121399,154.103302 
	C523.242004,159.172363 523.144470,164.246597 523.144470,169.217743 
	C530.505554,169.217743 536.616577,169.217743 543.276672,169.217743 
	C542.934082,163.094711 543.009216,157.243744 542.208130,151.515305 
	C540.113037,136.535431 532.453857,129.311172 517.581482,128.246033 
	C513.147705,127.928490 508.576630,128.250870 504.178772,128.962067 
	C493.625183,130.668732 486.371704,136.803635 484.146881,147.261719 
	C482.536652,154.830643 482.538849,162.742599 481.821960,171.500793 
M766.310730,232.237610 
	C767.391113,234.542679 768.210999,238.634201 769.598022,238.836441 
	C774.945251,239.616226 780.473694,239.152817 786.463135,239.152817 
	C783.894043,226.497162 781.442871,214.461563 779.008667,202.422531 
	C774.327637,179.271164 769.692749,156.110275 764.891418,132.983917 
	C764.598633,131.573914 763.073669,129.393250 762.024719,129.335419 
	C755.772156,128.990662 749.490967,129.164886 743.159180,129.164886 
	C735.666199,166.016693 728.285278,202.317368 720.838684,238.940933 
	C727.441101,238.940933 733.544861,238.940933 739.913940,238.940933 
	C741.450317,230.555084 742.964661,222.289444 744.470215,214.072174 
	C750.915222,214.072174 756.875610,214.072174 763.184875,214.072174 
	C764.190002,219.946259 765.168884,225.667068 766.310730,232.237610 
M526.196838,333.193481 
	C524.782043,326.022552 523.497375,318.821136 521.831055,311.709106 
	C521.534790,310.444489 519.698486,308.695251 518.495544,308.631256 
	C512.529602,308.313995 506.537689,308.486633 500.180176,308.486633 
	C492.748901,345.044830 485.361755,381.385925 477.940399,417.895355 
	C484.690582,417.895355 490.776306,417.895355 497.031342,417.895355 
	C498.554199,409.531555 500.033752,401.405670 501.530762,393.183777 
	C507.868805,393.183777 513.823547,393.183777 520.196045,393.183777 
	C521.473022,400.392609 522.622803,407.590912 524.123840,414.715210 
	C524.398926,416.021027 526.040771,417.940155 527.155396,418.014160 
	C532.417358,418.363586 537.715393,418.169922 543.518494,418.169922 
	C537.718018,389.681824 532.051453,361.851776 526.196838,333.193481 
M870.498413,129.145859 
	C861.223328,129.145859 851.948242,129.145859 842.468872,129.145859 
	C842.468872,166.080627 842.468872,202.438477 842.468872,238.837662 
	C858.016113,238.837662 873.237732,238.837662 888.417847,238.837662 
	C888.417847,234.108490 888.417847,229.741943 888.417847,224.873611 
	C879.578918,224.873611 871.170227,224.873611 862.907227,224.873611 
	C862.907227,212.778244 862.907227,201.203033 862.907227,189.182297 
	C869.690247,189.182297 876.113831,189.182297 882.637939,189.182297 
	C882.637939,184.196747 882.637939,179.670273 882.637939,174.800720 
	C875.818909,174.800720 869.371338,174.800720 862.860229,174.800720 
	C862.860229,164.389725 862.860229,154.334122 862.860229,143.721405 
	C871.410461,143.721405 879.649109,143.721405 887.795410,143.721405 
	C887.795410,138.589691 887.795410,134.029694 887.795410,129.145859 
	C882.107422,129.145859 876.802490,129.145859 870.498413,129.145859 
M648.499390,308.451019 
	C636.075989,308.451019 623.652649,308.451019 611.198425,308.451019 
	C611.198425,313.796753 611.198425,318.411530 611.198425,323.677795 
	C617.295227,323.677795 623.186035,323.677795 629.646240,323.677795 
	C629.646240,355.524445 629.646240,386.722107 629.646240,417.924988 
	C636.680115,417.924988 643.118835,417.924988 650.032715,417.924988 
	C650.032715,386.408936 650.032715,355.160645 650.032715,323.315613 
	C656.071594,323.315613 661.637878,323.315613 667.206055,323.315613 
	C667.206055,318.127014 667.206055,313.547882 667.206055,308.451080 
	C661.082397,308.451080 655.290588,308.451080 648.499390,308.451019 
M784.804382,144.168762 
	C789.724243,144.168762 794.644104,144.168762 799.946045,144.168762 
	C799.946045,176.227570 799.946045,207.470245 799.946045,238.920929 
	C806.760498,238.920929 813.157349,238.920929 820.087708,238.920929 
	C820.087708,207.303787 820.087708,175.931534 820.087708,144.085464 
	C826.193176,144.085464 831.779358,144.085464 837.454651,144.085464 
	C837.454651,138.893005 837.454651,134.191269 837.454651,129.514984 
	C818.686340,129.514984 800.306396,129.514984 781.510071,129.514984 
	C781.510071,133.835846 781.376526,137.814499 781.617371,141.770355 
	C781.668396,142.609634 783.085571,143.365753 784.804382,144.168762 
M570.501953,239.195892 
	C579.807373,239.195892 589.112793,239.195892 598.535278,239.195892 
	C598.535278,234.369308 598.535278,229.978867 598.535278,225.067734 
	C589.803101,225.067734 581.391418,225.067734 572.379272,225.067734 
	C572.379272,192.835510 572.379272,161.124191 572.379272,129.424316 
	C565.502991,129.424316 559.245544,129.424316 552.774658,129.424316 
	C552.774658,166.080154 552.774658,202.445663 552.774658,239.195862 
	C558.561462,239.195862 564.032593,239.195862 570.501953,239.195892 
M672.451050,330.499878 
	C672.451050,359.595490 672.451050,388.691132 672.451050,417.862793 
	C679.470642,417.862793 685.879333,417.862793 692.133545,417.862793 
	C692.133545,381.294647 692.133545,345.060974 692.133545,308.791840 
	C685.466003,308.791840 679.219238,308.791840 672.451111,308.791840 
	C672.451111,315.915222 672.451111,322.707611 672.451050,330.499878 
M605.978516,238.325790 
	C612.452576,238.713943 618.926575,239.102081 625.475159,239.494705 
	C625.475159,202.173965 625.475159,165.846481 625.475159,129.416656 
	C618.851929,129.416656 612.602783,129.416656 605.849731,129.416656 
	C605.849731,165.569733 605.849731,201.462036 605.978516,238.325790 
z"/>
<path fill="#FEFFFE" opacity="1.000000" stroke="none" 
	d="
M582.256592,685.219482 
	C631.633789,672.355347 681.430420,664.990173 731.996155,663.090454 
	C843.243103,658.910889 949.986877,678.218872 1051.297974,725.141541 
	C1122.021362,757.897400 1185.211670,801.690430 1241.345093,855.725281 
	C1269.731079,883.050110 1295.755737,912.412537 1318.703613,944.485779 
	C1320.974243,947.659119 1320.778076,949.613770 1318.577759,952.650085 
	C1272.947144,1015.617310 1217.340942,1068.306763 1153.553589,1112.460693 
	C1070.187012,1170.167358 978.379028,1207.297241 878.333984,1223.755371 
	C817.072205,1233.833374 755.434937,1235.778198 693.653564,1229.764771 
	C552.542908,1216.030396 427.738586,1163.182617 318.976562,1072.390381 
	C276.218323,1036.696777 238.037964,996.654541 205.525253,951.312012 
	C203.217957,948.094299 203.083160,946.005310 205.487488,942.730347 
	C268.573578,856.798523 347.861816,789.755798 441.847992,739.874817 
	C486.376373,716.242371 533.177734,698.343079 582.256592,685.219482 
M605.946533,914.563599 
	C591.501709,907.850281 576.258118,903.381470 560.570496,901.589111 
	C555.138733,900.968506 548.294800,903.935669 543.684082,907.386230 
	C539.143738,910.784058 536.492981,916.791809 533.262024,921.814453 
	C531.878723,923.964844 530.406494,926.458130 530.194092,928.901611 
	C527.013428,965.492920 532.182678,1000.902954 545.723389,1035.067383 
	C548.090698,1041.040405 555.483032,1043.529297 561.189758,1040.347412 
	C566.563354,1037.351318 571.928467,1034.335205 577.376465,1031.478760 
	C583.442200,1028.298218 586.334045,1028.901245 591.049744,1033.753418 
	C592.547058,1035.294312 594.148987,1036.858276 595.987488,1037.918457 
	C601.074829,1040.852295 603.620056,1045.186523 603.830994,1050.950684 
	C603.993591,1055.395020 605.938110,1056.254272 609.983154,1054.711304 
	C615.753052,1052.510376 617.894287,1053.863403 619.072998,1059.846924 
	C620.133362,1065.229736 620.877930,1070.692383 622.268311,1075.986694 
	C623.202881,1079.545166 624.800354,1083.142944 629.962830,1081.777832 
	C630.158569,1085.301514 630.092590,1088.477417 630.552612,1091.575195 
	C631.915039,1100.750122 633.200256,1109.954224 635.117920,1119.019653 
	C635.855591,1122.506958 638.042480,1126.126465 642.489990,1126.086060 
	C655.319458,1125.969727 666.781555,1122.193115 675.408508,1112.198364 
	C682.081177,1104.467773 685.453308,1095.059082 688.017761,1085.337402 
	C689.520691,1079.639648 691.034241,1074.013062 697.179504,1071.278931 
	C698.096191,1070.871094 698.979858,1069.617065 699.227783,1068.596313 
	C701.954590,1057.372070 707.289978,1046.697754 705.774780,1034.579712 
	C704.800598,1026.787842 706.959412,1019.733887 712.746033,1014.076660 
	C716.316528,1010.585999 719.955933,1007.162109 723.436768,1003.584106 
	C729.366760,997.488770 732.062683,987.237671 721.695007,982.092590 
	C718.569946,980.541748 715.428345,978.924744 712.582642,976.927307 
	C699.521606,967.759460 691.446533,955.487732 690.086914,939.329102 
	C689.937073,937.547607 690.982788,935.665649 691.473999,933.830261 
	C693.125977,934.753113 695.130127,935.342651 696.371277,936.654297 
	C703.122375,943.789124 709.630005,951.153687 716.335144,958.333008 
	C720.013916,962.271912 724.126099,966.395142 729.899353,965.680176 
	C739.814819,964.452087 748.378723,960.140686 754.073364,951.505798 
	C756.912964,947.200012 756.991089,942.682739 753.414246,938.609558 
	C750.672119,935.486877 747.817200,932.457520 744.911194,929.485657 
	C736.303406,920.682800 727.539124,912.028503 719.128662,903.042236 
	C717.948730,901.781555 718.406006,898.988464 718.105469,896.904724 
	C720.251709,896.920654 722.452209,896.654053 724.525024,897.052185 
	C725.897217,897.315796 727.080078,898.542969 728.358337,899.321350 
	C736.846069,904.489563 745.200195,909.897827 753.872742,914.735046 
	C760.022217,918.165039 763.736572,922.893250 764.905212,929.801331 
	C766.387878,938.565247 771.479004,944.532654 779.571960,947.974426 
	C782.319763,949.143066 785.122864,950.239685 787.988770,951.062866 
	C802.850830,955.332031 817.068298,960.620911 827.453125,973.031311 
	C829.934998,975.997253 833.652466,976.424683 836.036743,972.964722 
	C842.060181,964.223694 848.690918,955.543701 845.199951,943.720154 
	C843.862549,939.190613 845.731689,936.075256 849.857666,933.921509 
	C858.246887,929.542175 866.496033,932.419312 870.264771,941.493164 
	C874.537659,951.780823 878.094543,962.389038 882.810059,972.461121 
	C885.636108,978.497620 889.379517,984.455444 893.983582,989.217957 
	C899.482361,994.906250 906.308105,999.322876 912.634644,1004.192017 
	C914.201721,1005.398193 915.954163,1006.638184 917.813416,1007.117249 
	C919.910156,1007.657471 922.885010,1008.211365 924.242554,1007.161682 
	C925.418396,1006.252441 925.655396,1002.785889 924.929138,1001.014832 
	C922.858459,995.965454 920.518494,990.915710 917.503174,986.386169 
	C909.770874,974.770630 912.437500,963.789246 919.370544,953.346741 
	C921.257324,950.504944 925.130310,948.013123 928.497070,947.314758 
	C936.707458,945.611816 943.916992,942.175171 950.643982,937.443726 
	C956.839661,933.086121 957.329468,931.188965 953.182861,924.770508 
	C949.468201,919.020508 948.120361,912.871826 949.002991,906.204529 
	C949.583679,901.818726 952.470825,900.401611 956.049744,902.979553 
	C958.427063,904.691895 960.328918,907.111633 962.284912,909.353210 
	C969.373779,917.477417 982.581421,916.984009 986.733887,907.678284 
	C988.750916,903.158142 989.437256,897.040405 988.265808,892.247192 
	C954.253967,753.087158 800.061401,677.375732 669.101379,735.418579 
	C658.867981,739.954163 649.096252,745.531494 639.109924,750.624573 
	C639.285278,751.072205 639.460571,751.519775 639.635925,751.967407 
	C641.367859,751.818787 643.098083,751.645020 644.832031,751.525696 
	C657.947327,750.622314 671.056458,749.217896 684.182129,749.037048 
	C691.364319,748.938110 698.755066,750.252136 705.719482,752.149109 
	C711.980042,753.854431 714.152222,758.248230 712.729065,764.585083 
	C711.214539,771.329041 713.628784,776.388306 718.328857,780.621033 
	C721.780701,783.729675 725.719360,786.290710 729.334595,789.226868 
	C734.034912,793.044006 733.941101,795.762451 728.835266,798.811340 
	C719.696960,804.268127 710.501404,809.634583 701.216919,814.837524 
	C698.342773,816.447998 695.185791,818.016785 692.001282,818.449463 
	C689.841980,818.742859 687.408813,817.020813 685.098145,816.200134 
	C685.962219,814.227234 686.328003,811.675415 687.799805,810.408752 
	C690.405823,808.166260 693.647888,806.640564 696.690186,804.933167 
	C700.459595,802.817566 704.372498,800.947510 708.063171,798.707397 
	C709.358215,797.921326 710.179138,796.354248 711.216614,795.143799 
	C709.843811,794.085388 708.576172,792.330750 707.077637,792.104248 
	C703.186584,791.516357 698.986145,790.705383 695.276978,791.567017 
	C676.777832,795.864014 658.202393,799.298523 639.183533,800.328125 
	C628.931580,800.883118 619.834351,805.147400 611.869995,811.492798 
	C603.790100,817.930359 604.140381,824.062622 613.174561,828.926025 
	C618.825317,831.967957 625.158020,833.729858 631.145874,836.161804 
	C642.444641,840.750732 651.099365,837.045410 658.354065,827.971130 
	C660.487000,825.303223 663.084595,822.701111 666.020569,821.048035 
	C671.235291,818.111816 677.067932,820.450073 678.930420,825.662903 
	C676.146362,827.686584 673.217346,829.589050 670.556152,831.812073 
	C667.755188,834.151978 665.044495,836.646912 662.584656,839.339294 
	C655.166504,847.459045 648.340515,848.605225 637.927185,845.044556 
	C624.196228,840.349365 610.521912,840.475098 597.649597,848.442139 
	C593.419067,851.060486 589.183350,853.777100 584.651917,855.771484 
	C580.445618,857.622742 577.694458,859.332458 580.003540,864.572998 
	C581.752747,868.542847 579.576477,871.570984 576.512878,874.088745 
	C573.526611,876.542969 570.274353,877.394470 566.820251,875.451050 
	C561.528748,872.473877 556.018921,872.807312 550.315979,873.632446 
	C539.135742,875.249878 536.926147,881.360535 539.965271,892.113770 
	C541.799500,898.603760 546.286560,899.875732 552.455688,896.942505 
	C556.595642,894.974182 560.971436,893.194702 565.436218,892.276489 
	C576.797424,889.939941 587.772339,887.052734 596.632080,878.897705 
	C599.432617,876.319824 603.018188,876.397095 605.828064,878.668823 
	C608.334045,880.694946 610.467651,883.378052 612.194580,886.129639 
	C615.547913,891.472839 618.360474,897.154724 621.693970,902.511536 
	C622.893677,904.439331 624.947021,905.835876 626.610779,907.474915 
	C627.141174,907.164734 627.671509,906.854492 628.201904,906.544312 
	C626.477844,900.251465 624.753784,893.958618 623.029724,887.665833 
	C623.591064,887.270874 624.152466,886.875977 624.713806,886.481018 
	C626.541565,887.587891 628.623169,888.428101 630.134949,889.867004 
	C632.168030,891.801819 633.947510,894.075745 635.499878,896.426025 
	C637.808594,899.921509 639.999878,900.928589 644.022583,898.377380 
	C648.562927,895.497803 653.406067,896.377441 655.896423,899.424438 
	C659.035278,903.264893 659.132507,910.053040 655.541931,913.746277 
	C650.179871,919.261780 643.593323,924.003357 635.799133,922.733582 
	C625.919678,921.124146 616.355652,917.577698 605.946533,914.563599 
M929.218628,1111.926392 
	C948.809509,1091.606445 964.071167,1068.443237 976.050964,1042.872437 
	C980.784973,1032.767822 980.370361,1023.916199 975.178223,1014.521973 
	C971.429810,1007.739929 970.633789,1007.190613 964.361328,1011.582947 
	C952.861206,1019.635986 940.254700,1024.607056 926.470337,1027.366699 
	C915.429443,1029.576904 904.552795,1032.795044 893.789978,1036.162964 
	C877.955933,1041.117554 859.569397,1065.698730 869.028992,1087.795288 
	C870.781311,1091.888672 871.789917,1096.334717 872.830139,1100.692261 
	C876.378113,1115.554932 878.111145,1116.258667 891.151611,1108.108032 
	C893.955566,1106.355469 897.026367,1105.029663 900.916382,1103.020630 
	C900.689209,1105.634399 900.377075,1106.775391 900.545166,1107.840698 
	C900.828125,1109.635010 901.415955,1111.381104 901.875549,1113.147339 
	C903.639221,1112.678345 905.409302,1112.231934 907.164917,1111.734741 
	C909.320068,1111.124390 911.575745,1109.712646 913.585754,1110.010742 
	C916.792786,1110.486572 919.767395,1112.380005 922.969421,1113.096436 
	C924.745239,1113.493774 926.783264,1112.719116 929.218628,1111.926392 
M868.279663,1156.774414 
	C880.261597,1150.415039 891.939453,1143.592407 903.041077,1134.631226 
	C890.460815,1128.275391 878.020203,1127.252930 866.188110,1132.620361 
	C857.557983,1136.535522 849.466187,1142.294067 842.287231,1148.553101 
	C836.046143,1153.994263 830.299011,1155.062378 822.782043,1152.544434 
	C807.028442,1147.267822 791.257935,1141.956665 775.250488,1137.544922 
	C756.131348,1132.275635 736.839966,1131.234375 717.923157,1138.981201 
	C707.395447,1143.292358 698.855713,1149.861572 694.233215,1160.609863 
	C691.375305,1167.255005 693.713013,1172.056274 700.616760,1173.863159 
	C758.354797,1188.975342 814.044373,1183.636719 868.279663,1156.774414 
M975.270630,940.891418 
	C967.121460,958.221558 975.169983,987.677490 990.311340,995.937256 
	C994.189636,984.268860 997.074463,947.654968 995.049133,935.804504 
	C993.272827,925.411194 984.270630,918.371155 974.833374,920.320557 
	C975.336670,921.553284 975.622986,922.867310 976.331604,923.888245 
	C980.257629,929.544312 981.062073,935.007324 975.270630,940.891418 
M567.333984,850.833801 
	C574.518555,843.427612 581.690552,836.081726 591.045349,831.196594 
	C593.531799,829.898071 595.126160,826.891052 597.130127,824.668518 
	C594.306274,822.875305 591.560181,820.936401 588.617615,819.365540 
	C587.546448,818.793640 585.991699,818.919556 584.683716,819.031921 
	C573.789673,819.968201 564.238464,822.718018 559.364075,834.232605 
	C555.459106,843.457275 550.493652,852.233032 545.998840,861.208008 
	C546.437561,861.789429 546.876282,862.370850 547.315002,862.952271 
	C550.289551,862.106445 553.658264,861.873657 556.147827,860.273254 
	C560.023499,857.781799 563.301880,854.361145 567.333984,850.833801 
M731.432861,1010.175110 
	C723.680054,1011.367126 718.095215,1016.327148 716.644897,1023.273254 
	C713.845886,1036.678711 712.612427,1050.420044 710.997925,1064.053955 
	C710.762024,1066.045654 712.001404,1068.212036 712.558105,1070.297607 
	C713.130737,1070.392944 713.703369,1070.488403 714.276001,1070.583740 
	C715.590759,1068.638672 717.239624,1066.837402 718.152283,1064.718994 
	C720.181335,1060.009033 721.817017,1055.130859 723.657471,1050.338501 
	C727.212036,1041.082520 730.740601,1031.816040 734.388794,1022.596924 
	C737.128906,1015.672729 736.726990,1012.971558 731.432861,1010.175110 
M596.015808,781.245300 
	C593.617432,782.912109 590.799744,784.204712 588.908508,786.324097 
	C585.039551,790.659729 581.527710,795.340088 578.167480,800.089722 
	C576.970032,801.782227 575.451721,805.081482 576.148071,805.910950 
	C577.764832,807.836853 580.560120,809.628479 583.020935,809.844727 
	C594.399170,810.844666 607.805481,800.116333 609.583130,789.103638 
	C610.581055,782.921448 607.428711,779.558167 601.204773,780.238403 
	C599.721985,780.400513 598.263794,780.787109 596.015808,781.245300 
M816.320801,970.844727 
	C810.520508,969.058105 805.916992,970.412170 803.247009,975.448547 
	C802.415039,977.017822 802.567261,980.171082 803.636841,981.490234 
	C807.084595,985.742554 818.647583,987.492188 823.675842,985.193237 
	C827.047058,983.651978 827.848633,981.097107 825.573608,978.496216 
	C823.123535,975.695312 819.923828,973.549988 816.320801,970.844727 
M947.811462,1008.266418 
	C950.924438,1007.723877 954.453003,1007.400574 954.487610,1003.193420 
	C954.519348,999.347900 946.880005,993.088257 941.511292,992.103394 
	C937.601196,991.386047 932.518921,994.257080 930.526672,998.233032 
	C929.148987,1000.982422 929.851807,1003.550476 932.448181,1004.481262 
	C937.168701,1006.173706 942.154602,1007.125977 947.811462,1008.266418 
M940.457642,980.933044 
	C936.725098,976.901672 933.387146,972.370056 929.125854,969.009033 
	C926.122437,966.640015 921.379578,969.367493 922.251404,972.750183 
	C923.287170,976.768555 925.402954,981.167847 928.428406,983.845642 
	C932.124268,987.117065 938.506165,985.299866 940.457642,980.933044 
z"/>
<path fill="#FEFEFE" opacity="1.000000" stroke="none" 
	d="
M369.169983,338.978271 
	C368.683960,355.612030 365.863159,371.201324 358.627472,385.823090 
	C350.134003,402.986664 336.715698,414.113098 318.112152,418.589935 
	C299.650604,423.032654 281.090393,422.790253 262.762726,417.845764 
	C245.773666,413.262360 233.309784,402.873413 225.503723,387.024445 
	C215.872955,367.470856 214.505280,346.572906 215.116776,325.062927 
	C233.391418,325.062927 251.309052,325.062927 269.352325,325.062927 
	C269.903534,333.660828 270.290253,342.095947 271.054718,350.496674 
	C271.383850,354.113373 272.227509,357.741882 273.303741,361.220734 
	C276.203827,370.594940 282.343445,374.997498 292.218384,375.157867 
	C303.829163,375.346466 309.607880,371.336395 312.256744,359.917877 
	C316.185852,342.980774 316.349762,325.869629 311.930115,308.988983 
	C308.505707,295.909332 301.330566,290.191925 287.886353,288.775726 
	C283.271027,288.289551 278.629120,288.055481 273.747284,287.687256 
	C273.747284,274.535522 273.747284,261.437775 273.747284,247.828629 
	C277.270782,247.828629 280.563477,247.877838 283.854279,247.820435 
	C301.341156,247.515457 309.976837,240.531754 313.317841,223.494278 
	C315.745880,211.112457 315.736572,198.661423 312.906586,186.302841 
	C309.200287,170.117722 297.235229,167.820236 285.120087,170.319275 
	C279.555603,171.467056 275.285553,175.345444 274.129669,180.876999 
	C272.203552,190.094269 271.088501,199.492035 269.910339,208.848862 
	C269.479248,212.272766 269.840912,215.796463 269.840912,219.637253 
	C251.515060,219.637253 233.482483,219.637253 215.162216,219.637253 
	C214.622025,202.726013 214.497025,185.951126 220.425964,169.840210 
	C228.662430,147.458984 244.685394,133.605896 267.745178,128.209167 
	C285.375031,124.083221 303.215118,124.272102 320.620209,129.292068 
	C348.088959,137.214554 363.418610,156.196457 367.903900,184.068893 
	C370.032349,197.295517 370.158356,210.632462 367.101532,223.788635 
	C362.736053,242.577011 353.439758,257.611664 334.141205,265.360626 
	C336.169769,266.376892 337.839172,267.160431 339.460358,268.033569 
	C357.595062,277.800537 365.251465,294.274231 367.889343,313.576263 
	C369.010956,321.783539 368.784210,330.175049 369.169983,338.978271 
z"/>
<path fill="#FEFEFE" opacity="1.000000" stroke="none" 
	d="
M187.001755,288.000000 
	C187.001755,330.972931 187.001755,373.445892 187.001755,416.213776 
	C168.621552,416.213776 150.533051,416.213776 131.971466,416.213776 
	C131.971466,339.858795 131.971466,263.651611 131.971466,186.992371 
	C117.899574,192.062698 104.383217,196.932861 90.177628,202.051361 
	C90.177628,188.595810 90.085403,175.694260 90.343216,162.799713 
	C90.365120,161.703979 92.592453,160.423050 94.016243,159.620056 
	C108.471924,151.467361 123.386101,144.029572 137.261017,134.992996 
	C142.877792,131.334839 147.757233,129.132156 154.364471,129.382538 
	C164.992447,129.785278 175.646851,129.490616 187.001755,129.490616 
	C187.001755,182.387985 187.001755,234.943985 187.001755,288.000000 
z"/>
<path fill="#FBFCFB" opacity="1.000000" stroke="none" 
	d="
M654.514160,184.640503 
	C654.506226,202.898483 654.506226,220.687149 654.506226,238.824219 
	C648.261230,238.824219 643.387390,238.824219 637.978333,238.824219 
	C638.594849,202.394943 639.210144,166.037598 639.829895,129.418884 
	C646.906067,129.418884 653.494446,129.418884 660.561279,129.418884 
	C665.669373,154.102539 670.771484,178.757019 675.873596,203.411499 
	C676.177307,203.397751 676.481079,203.384003 676.784790,203.370255 
	C680.211365,187.194855 683.631775,171.018143 687.067322,154.844650 
	C688.656433,147.363647 690.156250,139.859482 691.993591,132.439377 
	C692.311523,131.155426 694.065002,129.370667 695.242554,129.301468 
	C700.859070,128.971497 706.505676,129.153671 712.790405,129.153671 
	C713.409424,165.886780 714.022034,202.237701 714.639709,238.887970 
	C709.408875,238.887970 704.527283,238.887970 698.644409,238.887970 
	C698.644409,215.423492 698.644409,192.226547 698.644409,169.029602 
	C698.162231,168.999908 697.680054,168.970215 697.197876,168.940506 
	C694.130737,183.519699 691.063965,198.098984 687.996033,212.678024 
	C686.420654,220.164536 684.661011,227.619019 683.355042,235.152206 
	C682.824097,238.214310 681.803467,239.554855 678.587219,239.233063 
	C675.978455,238.972031 673.322693,239.180084 670.493286,239.180084 
	C665.531433,215.769623 660.659607,192.783646 655.787781,169.797668 
	C655.365906,169.833221 654.944031,169.868774 654.522156,169.904312 
	C654.522156,174.659958 654.522156,179.415588 654.514160,184.640503 
z"/>
<path fill="#FCFDFC" opacity="1.000000" stroke="none" 
	d="
M756.499084,313.439117 
	C763.602051,319.986542 766.167419,328.264954 766.298035,337.082275 
	C766.569214,355.388489 767.149658,373.768066 765.890503,391.999176 
	C764.343445,414.398407 750.336365,420.598724 732.410095,419.640594 
	C714.010925,418.657196 705.210327,410.667297 703.985779,392.024567 
	C702.744446,373.125610 702.698914,354.031830 703.821838,335.123871 
	C705.164001,312.525238 718.934692,306.082214 738.482483,307.467926 
	C744.502197,307.894684 750.317017,311.211456 756.499084,313.439117 
M723.845459,386.438049 
	C723.941772,389.264404 723.786987,392.126648 724.184753,394.909912 
	C725.115051,401.419952 728.719910,404.599365 734.763062,404.625885 
	C741.983459,404.657623 745.881165,400.422394 745.945251,391.725494 
	C746.085144,372.748932 745.998596,353.770630 745.966431,334.793121 
	C745.964172,333.476410 745.752197,332.136230 745.458435,330.847839 
	C743.921326,324.107178 739.367432,321.140900 732.575195,322.390259 
	C726.617249,323.486176 724.010986,326.935638 723.929260,335.016479 
	C723.759155,351.828125 723.857483,368.642548 723.845459,386.438049 
z"/>
<path fill="#FCFDFC" opacity="1.000000" stroke="none" 
	d="
M834.176392,336.000122 
	C834.176392,363.470581 834.176392,390.441071 834.176392,418.158722 
	C830.208801,418.158722 826.403809,418.527008 822.740051,417.968628 
	C821.368408,417.759613 819.877869,415.582245 819.201477,413.981323 
	C811.765686,396.382172 804.482788,378.718414 797.148254,361.076447 
	C796.535034,359.601196 795.849060,358.156158 794.409668,356.870270 
	C794.409668,377.041901 794.409668,397.213501 794.409668,417.779358 
	C788.588928,417.779358 783.179260,417.779358 777.378540,417.779358 
	C777.378540,381.667450 777.378540,345.323792 777.378540,308.489807 
	C781.246399,308.489807 785.094055,308.142395 788.819031,308.666626 
	C790.241516,308.866791 791.893127,310.838776 792.574097,312.384827 
	C799.872253,328.953156 806.993164,345.599518 814.174866,362.219208 
	C814.822815,363.718628 815.556641,365.180969 817.061646,366.620331 
	C817.061646,347.539215 817.061646,328.458069 817.061646,308.931152 
	C823.076294,308.931152 828.430481,308.931152 834.176392,308.931152 
	C834.176392,317.879547 834.176392,326.689819 834.176392,336.000122 
z"/>
<path fill="#FBFCFB" opacity="1.000000" stroke="none" 
	d="
M587.266602,401.156311 
	C588.621277,393.172211 589.725159,385.512970 590.899902,377.361816 
	C596.195374,377.361816 602.410339,377.361816 609.736023,377.361816 
	C609.052124,385.178528 609.196106,393.062683 607.526123,400.541718 
	C604.500793,414.090515 592.865784,421.039642 577.263611,419.771149 
	C559.482483,418.325470 550.148499,410.484558 549.085938,392.872650 
	C547.915466,373.472961 547.891907,353.899780 548.999084,334.495209 
	C550.192078,313.588104 562.963806,306.030731 583.167358,307.351288 
	C600.154114,308.461609 608.173645,317.248260 609.003662,334.370819 
	C609.220398,338.841278 609.036316,343.331177 609.036316,348.168335 
	C602.630127,348.168335 596.417847,348.168335 590.141968,348.168335 
	C589.830872,342.121643 589.587158,336.317535 589.217773,330.521423 
	C588.887939,325.346710 585.761169,322.820709 580.861694,322.236969 
	C575.597595,321.609802 571.448486,323.978668 569.938293,328.792633 
	C569.205261,331.129211 568.909119,333.690155 568.897400,336.151794 
	C568.813110,353.983856 568.830872,371.816589 568.879578,389.648926 
	C568.885437,391.798096 569.038208,393.999786 569.519653,396.085571 
	C571.561096,404.930969 580.003723,407.494690 587.266602,401.156311 
z"/>
<path fill="#FCFDFC" opacity="1.000000" stroke="none" 
	d="
M481.821960,171.001190 
	C482.538849,162.742599 482.536652,154.830643 484.146881,147.261719 
	C486.371704,136.803635 493.625183,130.668732 504.178772,128.962067 
	C508.576630,128.250870 513.147705,127.928490 517.581482,128.246033 
	C532.453857,129.311172 540.113037,136.535431 542.208130,151.515305 
	C543.009216,157.243744 542.934082,163.094711 543.276672,169.217743 
	C536.616577,169.217743 530.505554,169.217743 523.144470,169.217743 
	C523.144470,164.246597 523.242004,159.172363 523.121399,154.103302 
	C522.945251,146.700424 519.994995,143.286255 513.795288,143.027435 
	C507.244781,142.753967 503.168945,145.897980 502.919342,153.231964 
	C502.313507,171.031540 502.338165,188.853775 502.218842,206.667618 
	C502.197784,209.812302 502.529510,212.988495 503.012512,216.101395 
	C504.039001,222.716660 507.644043,225.739990 513.766663,225.415497 
	C519.522278,225.110443 522.774536,221.718674 523.035645,215.197586 
	C523.260742,209.575974 523.082336,203.938202 523.082336,198.075226 
	C530.093689,198.075226 536.205872,198.075226 542.828857,198.075226 
	C543.213135,208.336395 543.441895,218.559143 538.677246,228.150009 
	C537.945496,229.622955 536.977539,231.055847 535.838501,232.236893 
	C526.914124,241.490372 515.613647,241.497192 504.199402,239.668396 
	C493.938202,238.024353 486.888580,231.789352 484.242218,221.711700 
	C482.698090,215.831482 482.128357,209.591782 481.922211,203.486725 
	C481.562500,192.835770 481.821960,182.163895 481.821960,171.001190 
z"/>
<path fill="#FCFDFC" opacity="1.000000" stroke="none" 
	d="
M766.229248,231.812744 
	C765.168884,225.667068 764.190002,219.946259 763.184875,214.072174 
	C756.875610,214.072174 750.915222,214.072174 744.470215,214.072174 
	C742.964661,222.289444 741.450317,230.555084 739.913940,238.940933 
	C733.544861,238.940933 727.441101,238.940933 720.838684,238.940933 
	C728.285278,202.317368 735.666199,166.016693 743.159180,129.164886 
	C749.490967,129.164886 755.772156,128.990662 762.024719,129.335419 
	C763.073669,129.393250 764.598633,131.573914 764.891418,132.983917 
	C769.692749,156.110275 774.327637,179.271164 779.008667,202.422531 
	C781.442871,214.461563 783.894043,226.497162 786.463135,239.152817 
	C780.473694,239.152817 774.945251,239.616226 769.598022,238.836441 
	C768.210999,238.634201 767.391113,234.542679 766.229248,231.812744 
M752.557495,164.141647 
	C750.607300,176.072189 748.657104,188.002731 746.663391,200.199478 
	C751.693726,200.199478 756.090454,200.199478 760.907715,200.199478 
	C758.598022,186.169678 756.348450,172.505310 754.098877,158.840942 
	C753.835449,158.876266 753.572021,158.911606 753.308594,158.946945 
	C753.107910,160.424637 752.907288,161.902344 752.557495,164.141647 
z"/>
<path fill="#FCFDFC" opacity="1.000000" stroke="none" 
	d="
M526.290894,333.607605 
	C532.051453,361.851776 537.718018,389.681824 543.518494,418.169922 
	C537.715393,418.169922 532.417358,418.363586 527.155396,418.014160 
	C526.040771,417.940155 524.398926,416.021027 524.123840,414.715210 
	C522.622803,407.590912 521.473022,400.392609 520.196045,393.183777 
	C513.823547,393.183777 507.868805,393.183777 501.530762,393.183777 
	C500.033752,401.405670 498.554199,409.531555 497.031342,417.895355 
	C490.776306,417.895355 484.690582,417.895355 477.940399,417.895355 
	C485.361755,381.385925 492.748901,345.044830 500.180176,308.486633 
	C506.537689,308.486633 512.529602,308.313995 518.495544,308.631256 
	C519.698486,308.695251 521.534790,310.444489 521.831055,311.709106 
	C523.497375,318.821136 524.782043,326.022552 526.290894,333.607605 
M504.389160,374.892853 
	C504.233154,376.349365 504.077148,377.805878 503.903320,379.428680 
	C508.730743,379.428680 513.211792,379.428680 517.996399,379.428680 
	C515.686462,365.503235 513.451050,352.027313 511.215637,338.551392 
	C510.906525,338.601715 510.597382,338.652069 510.288269,338.702393 
	C508.399200,350.484192 506.510101,362.265961 504.389160,374.892853 
z"/>
<path fill="#FAFCFA" opacity="1.000000" stroke="none" 
	d="
M870.997986,129.145859 
	C876.802490,129.145859 882.107422,129.145859 887.795410,129.145859 
	C887.795410,134.029694 887.795410,138.589691 887.795410,143.721405 
	C879.649109,143.721405 871.410461,143.721405 862.860229,143.721405 
	C862.860229,154.334122 862.860229,164.389725 862.860229,174.800720 
	C869.371338,174.800720 875.818909,174.800720 882.637939,174.800720 
	C882.637939,179.670273 882.637939,184.196747 882.637939,189.182297 
	C876.113831,189.182297 869.690247,189.182297 862.907227,189.182297 
	C862.907227,201.203033 862.907227,212.778244 862.907227,224.873611 
	C871.170227,224.873611 879.578918,224.873611 888.417847,224.873611 
	C888.417847,229.741943 888.417847,234.108490 888.417847,238.837662 
	C873.237732,238.837662 858.016113,238.837662 842.468872,238.837662 
	C842.468872,202.438477 842.468872,166.080627 842.468872,129.145859 
	C851.948242,129.145859 861.223328,129.145859 870.997986,129.145859 
z"/>
<path fill="#F7F9F7" opacity="1.000000" stroke="none" 
	d="
M648.999023,308.451050 
	C655.290588,308.451080 661.082397,308.451080 667.206055,308.451080 
	C667.206055,313.547882 667.206055,318.127014 667.206055,323.315613 
	C661.637878,323.315613 656.071594,323.315613 650.032715,323.315613 
	C650.032715,355.160645 650.032715,386.408936 650.032715,417.924988 
	C643.118835,417.924988 636.680115,417.924988 629.646240,417.924988 
	C629.646240,386.722107 629.646240,355.524445 629.646240,323.677795 
	C623.186035,323.677795 617.295227,323.677795 611.198425,323.677795 
	C611.198425,318.411530 611.198425,313.796753 611.198425,308.451019 
	C623.652649,308.451019 636.075989,308.451019 648.999023,308.451050 
z"/>
<path fill="#FEFEFE" opacity="1.000000" stroke="none" 
	d="
M784.338867,144.164474 
	C783.085571,143.365753 781.668396,142.609634 781.617371,141.770355 
	C781.376526,137.814499 781.510071,133.835846 781.510071,129.514984 
	C800.306396,129.514984 818.686340,129.514984 837.454651,129.514984 
	C837.454651,134.191269 837.454651,138.893005 837.454651,144.085464 
	C831.779358,144.085464 826.193176,144.085464 820.087708,144.085464 
	C820.087708,175.931534 820.087708,207.303787 820.087708,238.920929 
	C813.157349,238.920929 806.760498,238.920929 799.946045,238.920929 
	C799.946045,207.470245 799.946045,176.227570 799.946045,144.168762 
	C794.644104,144.168762 789.724243,144.168762 784.338867,144.164474 
z"/>
<path fill="#F7F9F7" opacity="1.000000" stroke="none" 
	d="
M570.002808,239.195877 
	C564.032593,239.195862 558.561462,239.195862 552.774658,239.195862 
	C552.774658,202.445663 552.774658,166.080154 552.774658,129.424316 
	C559.245544,129.424316 565.502991,129.424316 572.379272,129.424316 
	C572.379272,161.124191 572.379272,192.835510 572.379272,225.067734 
	C581.391418,225.067734 589.803101,225.067734 598.535278,225.067734 
	C598.535278,229.978867 598.535278,234.369308 598.535278,239.195892 
	C589.112793,239.195892 579.807373,239.195892 570.002808,239.195877 
z"/>
<path fill="#F7F9F7" opacity="1.000000" stroke="none" 
	d="
M672.451050,329.999939 
	C672.451111,322.707611 672.451111,315.915222 672.451111,308.791840 
	C679.219238,308.791840 685.466003,308.791840 692.133545,308.791840 
	C692.133545,345.060974 692.133545,381.294647 692.133545,417.862793 
	C685.879333,417.862793 679.470642,417.862793 672.451050,417.862793 
	C672.451050,388.691132 672.451050,359.595490 672.451050,329.999939 
z"/>
<path fill="#FCFDFC" opacity="1.000000" stroke="none" 
	d="
M605.914124,237.840057 
	C605.849731,201.462036 605.849731,165.569733 605.849731,129.416656 
	C612.602783,129.416656 618.851929,129.416656 625.475159,129.416656 
	C625.475159,165.846481 625.475159,202.173965 625.475159,239.494705 
	C618.926575,239.102081 612.452576,238.713943 605.914124,237.840057 
z"/>
<path fill="#407E45" opacity="1.000000" stroke="none" 
	d="
M606.301086,914.715088 
	C616.355652,917.577698 625.919678,921.124146 635.799133,922.733582 
	C643.593323,924.003357 650.179871,919.261780 655.541931,913.746277 
	C659.132507,910.053040 659.035278,903.264893 655.896423,899.424438 
	C653.406067,896.377441 648.562927,895.497803 644.022583,898.377380 
	C639.999878,900.928589 637.808594,899.921509 635.499878,896.426025 
	C633.947510,894.075745 632.168030,891.801819 630.134949,889.867004 
	C628.623169,888.428101 626.541565,887.587891 624.713806,886.481018 
	C624.152466,886.875977 623.591064,887.270874 623.029724,887.665833 
	C624.753784,893.958618 626.477844,900.251465 628.201904,906.544312 
	C627.671509,906.854492 627.141174,907.164734 626.610779,907.474915 
	C624.947021,905.835876 622.893677,904.439331 621.693970,902.511536 
	C618.360474,897.154724 615.547913,891.472839 612.194580,886.129639 
	C610.467651,883.378052 608.334045,880.694946 605.828064,878.668823 
	C603.018188,876.397095 599.432617,876.319824 596.632080,878.897705 
	C587.772339,887.052734 576.797424,889.939941 565.436218,892.276489 
	C560.971436,893.194702 556.595642,894.974182 552.455688,896.942505 
	C546.286560,899.875732 541.799500,898.603760 539.965271,892.113770 
	C536.926147,881.360535 539.135742,875.249878 550.315979,873.632446 
	C556.018921,872.807312 561.528748,872.473877 566.820251,875.451050 
	C570.274353,877.394470 573.526611,876.542969 576.512878,874.088745 
	C579.576477,871.570984 581.752747,868.542847 580.003540,864.572998 
	C577.694458,859.332458 580.445618,857.622742 584.651917,855.771484 
	C589.183350,853.777100 593.419067,851.060486 597.649597,848.442139 
	C610.521912,840.475098 624.196228,840.349365 637.927185,845.044556 
	C648.340515,848.605225 655.166504,847.459045 662.584656,839.339294 
	C665.044495,836.646912 667.755188,834.151978 670.556152,831.812073 
	C673.217346,829.589050 676.146362,827.686584 678.930420,825.662903 
	C677.067932,820.450073 671.235291,818.111816 666.020569,821.048035 
	C663.084595,822.701111 660.487000,825.303223 658.354065,827.971130 
	C651.099365,837.045410 642.444641,840.750732 631.145874,836.161804 
	C625.158020,833.729858 618.825317,831.967957 613.174561,828.926025 
	C604.140381,824.062622 603.790100,817.930359 611.869995,811.492798 
	C619.834351,805.147400 628.931580,800.883118 639.183533,800.328125 
	C658.202393,799.298523 676.777832,795.864014 695.276978,791.567017 
	C698.986145,790.705383 703.186584,791.516357 707.077637,792.104248 
	C708.576172,792.330750 709.843811,794.085388 711.216553,795.143799 
	C710.179138,796.354248 709.358215,797.921326 708.063171,798.707397 
	C704.372498,800.947510 700.459595,802.817566 696.690186,804.933167 
	C693.647888,806.640564 690.405823,808.166260 687.799805,810.408752 
	C686.328003,811.675415 685.962219,814.227234 685.098145,816.200195 
	C687.408813,817.020813 689.841980,818.742859 692.001282,818.449463 
	C695.185791,818.016785 698.342773,816.447998 701.216919,814.837524 
	C710.501404,809.634583 719.696960,804.268127 728.835266,798.811340 
	C733.941101,795.762451 734.034912,793.044006 729.334595,789.226868 
	C725.719360,786.290710 721.780701,783.729675 718.328857,780.621033 
	C713.628784,776.388306 711.214539,771.329041 712.729065,764.585083 
	C714.152222,758.248230 711.980042,753.854431 705.719482,752.149109 
	C698.755066,750.252136 691.364319,748.938110 684.182129,749.037048 
	C671.056458,749.217896 657.947327,750.622314 644.832031,751.525696 
	C643.098083,751.645020 641.367859,751.818787 639.635925,751.967407 
	C639.460571,751.519775 639.285278,751.072205 639.109924,750.624573 
	C649.096252,745.531494 658.867981,739.954163 669.101379,735.418579 
	C800.061401,677.375732 954.253967,753.087158 988.265808,892.247192 
	C989.437256,897.040405 988.750916,903.158142 986.733887,907.678284 
	C982.581421,916.984009 969.373779,917.477417 962.284912,909.353210 
	C960.328918,907.111633 958.427063,904.691895 956.049744,902.979553 
	C952.470825,900.401611 949.583679,901.818726 949.002991,906.204529 
	C948.120361,912.871826 949.468201,919.020508 953.182861,924.770508 
	C957.329468,931.188965 956.839661,933.086121 950.643982,937.443726 
	C943.916992,942.175171 936.707458,945.611816 928.497070,947.314758 
	C925.130310,948.013123 921.257324,950.504944 919.370544,953.346741 
	C912.437500,963.789246 909.770874,974.770630 917.503174,986.386169 
	C920.518494,990.915710 922.858459,995.965454 924.929138,1001.014832 
	C925.655396,1002.785889 925.418396,1006.252441 924.242554,1007.161682 
	C922.885010,1008.211365 919.910156,1007.657471 917.813416,1007.117249 
	C915.954163,1006.638184 914.201721,1005.398193 912.634644,1004.192017 
	C906.308105,999.322876 899.482361,994.906250 893.983582,989.217957 
	C889.379517,984.455444 885.636108,978.497620 882.810059,972.461121 
	C878.094543,962.389038 874.537659,951.780823 870.264771,941.493164 
	C866.496033,932.419312 858.246887,929.542175 849.857666,933.921509 
	C845.731689,936.075256 843.862549,939.190613 845.199951,943.720154 
	C848.690918,955.543701 842.060181,964.223694 836.036743,972.964722 
	C833.652466,976.424683 829.934998,975.997253 827.453125,973.031311 
	C817.068298,960.620911 802.850830,955.332031 787.988770,951.062866 
	C785.122864,950.239685 782.319763,949.143066 779.571960,947.974426 
	C771.479004,944.532654 766.387878,938.565247 764.905212,929.801331 
	C763.736572,922.893250 760.022217,918.165039 753.872742,914.735046 
	C745.200195,909.897827 736.846069,904.489563 728.358337,899.321350 
	C727.080078,898.542969 725.897217,897.315796 724.525024,897.052185 
	C722.452209,896.654053 720.251709,896.920654 718.105469,896.904724 
	C718.406006,898.988464 717.948730,901.781555 719.128662,903.042236 
	C727.539124,912.028503 736.303406,920.682800 744.911194,929.485657 
	C747.817200,932.457520 750.672119,935.486877 753.414246,938.609558 
	C756.991089,942.682739 756.912964,947.200012 754.073364,951.505798 
	C748.378723,960.140686 739.814819,964.452087 729.899353,965.680176 
	C724.126099,966.395142 720.013916,962.271912 716.335144,958.333008 
	C709.630005,951.153687 703.122375,943.789124 696.371277,936.654297 
	C695.130127,935.342651 693.125977,934.753113 691.473999,933.830261 
	C690.982788,935.665649 689.937073,937.547607 690.086914,939.329102 
	C691.446533,955.487732 699.521606,967.759460 712.582642,976.927307 
	C715.428345,978.924744 718.569946,980.541748 721.695007,982.092590 
	C732.062683,987.237671 729.366760,997.488770 723.436768,1003.584106 
	C719.955933,1007.162109 716.316528,1010.585999 712.746033,1014.076660 
	C706.959412,1019.733887 704.800598,1026.787842 705.774780,1034.579712 
	C707.289978,1046.697754 701.954590,1057.372070 699.227783,1068.596313 
	C698.979858,1069.617065 698.096191,1070.871094 697.179504,1071.278931 
	C691.034241,1074.013062 689.520691,1079.639648 688.017761,1085.337402 
	C685.453308,1095.059082 682.081177,1104.467773 675.408508,1112.198364 
	C666.781555,1122.193115 655.319458,1125.969727 642.489990,1126.086060 
	C638.042480,1126.126465 635.855591,1122.506958 635.117920,1119.019653 
	C633.200256,1109.954224 631.915039,1100.750122 630.552612,1091.575195 
	C630.092590,1088.477417 630.158569,1085.301514 629.962830,1081.777832 
	C624.800354,1083.142944 623.202881,1079.545166 622.268311,1075.986694 
	C620.877930,1070.692383 620.133362,1065.229736 619.072998,1059.846924 
	C617.894287,1053.863403 615.753052,1052.510376 609.983154,1054.711304 
	C605.938110,1056.254272 603.993591,1055.395020 603.830994,1050.950684 
	C603.620056,1045.186523 601.074829,1040.852295 595.987488,1037.918457 
	C594.148987,1036.858276 592.547058,1035.294312 591.049744,1033.753418 
	C586.334045,1028.901245 583.442200,1028.298218 577.376465,1031.478760 
	C571.928467,1034.335205 566.563354,1037.351318 561.189758,1040.347412 
	C555.483032,1043.529297 548.090698,1041.040405 545.723389,1035.067383 
	C532.182678,1000.902954 527.013428,965.492920 530.194092,928.901611 
	C530.406494,926.458130 531.878723,923.964844 533.262024,921.814453 
	C536.492981,916.791809 539.143738,910.784058 543.684082,907.386230 
	C548.294800,903.935669 555.138733,900.968506 560.570496,901.589111 
	C576.258118,903.381470 591.501709,907.850281 606.301086,914.715088 
z"/>
<path fill="#407F45" opacity="1.000000" stroke="none" 
	d="
M928.960876,1112.199463 
	C926.783264,1112.719116 924.745239,1113.493774 922.969421,1113.096436 
	C919.767395,1112.380005 916.792786,1110.486572 913.585754,1110.010742 
	C911.575745,1109.712646 909.320068,1111.124390 907.164917,1111.734741 
	C905.409302,1112.231934 903.639221,1112.678345 901.875549,1113.147461 
	C901.415955,1111.381104 900.828125,1109.635010 900.545166,1107.840698 
	C900.377075,1106.775391 900.689209,1105.634399 900.916382,1103.020630 
	C897.026367,1105.029663 893.955566,1106.355469 891.151611,1108.108032 
	C878.111145,1116.258667 876.378113,1115.554932 872.830139,1100.692261 
	C871.789917,1096.334717 870.781311,1091.888672 869.028992,1087.795288 
	C859.569397,1065.698730 877.955933,1041.117554 893.789978,1036.162964 
	C904.552795,1032.795044 915.429443,1029.576904 926.470337,1027.366699 
	C940.254700,1024.607056 952.861206,1019.635986 964.361328,1011.582947 
	C970.633789,1007.190613 971.429810,1007.739929 975.178223,1014.521973 
	C980.370361,1023.916199 980.784973,1032.767822 976.050964,1042.872437 
	C964.071167,1068.443237 948.809509,1091.606445 928.960876,1112.199463 
z"/>
<path fill="#407F45" opacity="1.000000" stroke="none" 
	d="
M867.935303,1156.915771 
	C814.044373,1183.636719 758.354797,1188.975342 700.616760,1173.863159 
	C693.713013,1172.056274 691.375305,1167.255005 694.233215,1160.609863 
	C698.855713,1149.861572 707.395447,1143.292358 717.923157,1138.981201 
	C736.839966,1131.234375 756.131348,1132.275635 775.250488,1137.544922 
	C791.257935,1141.956665 807.028442,1147.267822 822.782043,1152.544434 
	C830.299011,1155.062378 836.046143,1153.994263 842.287231,1148.553101 
	C849.466187,1142.294067 857.557983,1136.535522 866.188110,1132.620361 
	C878.020203,1127.252930 890.460815,1128.275391 903.041077,1134.631226 
	C891.939453,1143.592407 880.261597,1150.415039 867.935303,1156.915771 
z"/>
<path fill="#407F45" opacity="1.000000" stroke="none" 
	d="
M975.476318,940.577026 
	C981.062073,935.007324 980.257629,929.544312 976.331604,923.888245 
	C975.622986,922.867310 975.336670,921.553284 974.833374,920.320557 
	C984.270630,918.371155 993.272827,925.411194 995.049133,935.804504 
	C997.074463,947.654968 994.189636,984.268860 990.311340,995.937256 
	C975.169983,987.677490 967.121460,958.221558 975.476318,940.577026 
z"/>
<path fill="#438047" opacity="1.000000" stroke="none" 
	d="
M567.083679,851.084106 
	C563.301880,854.361145 560.023499,857.781799 556.147827,860.273254 
	C553.658264,861.873657 550.289551,862.106445 547.315002,862.952271 
	C546.876282,862.370850 546.437561,861.789429 545.998840,861.208008 
	C550.493652,852.233032 555.459106,843.457275 559.364075,834.232605 
	C564.238464,822.718018 573.789673,819.968201 584.683716,819.031921 
	C585.991699,818.919556 587.546448,818.793640 588.617615,819.365540 
	C591.560181,820.936401 594.306274,822.875305 597.130127,824.668457 
	C595.126160,826.891052 593.531799,829.898071 591.045349,831.196594 
	C581.690552,836.081726 574.518555,843.427612 567.083679,851.084106 
z"/>
<path fill="#438047" opacity="1.000000" stroke="none" 
	d="
M731.821655,1010.207520 
	C736.726990,1012.971558 737.128906,1015.672729 734.388794,1022.596924 
	C730.740601,1031.816040 727.212036,1041.082520 723.657471,1050.338501 
	C721.817017,1055.130859 720.181335,1060.009033 718.152283,1064.718994 
	C717.239624,1066.837402 715.590759,1068.638672 714.276001,1070.583740 
	C713.703369,1070.488403 713.130737,1070.392944 712.558105,1070.297607 
	C712.001404,1068.212036 710.762024,1066.045654 710.997925,1064.053955 
	C712.612427,1050.420044 713.845886,1036.678711 716.644897,1023.273254 
	C718.095215,1016.327148 723.680054,1011.367126 731.821655,1010.207520 
z"/>
<path fill="#438047" opacity="1.000000" stroke="none" 
	d="
M596.405029,781.157959 
	C598.263794,780.787109 599.721985,780.400513 601.204773,780.238403 
	C607.428711,779.558167 610.581055,782.921448 609.583130,789.103638 
	C607.805481,800.116333 594.399170,810.844666 583.020935,809.844727 
	C580.560120,809.628479 577.764832,807.836853 576.148071,805.910950 
	C575.451721,805.081482 576.970032,801.782227 578.167480,800.089722 
	C581.527710,795.340088 585.039551,790.659729 588.908508,786.324097 
	C590.799744,784.204712 593.617432,782.912109 596.405029,781.157959 
z"/>
<path fill="#438047" opacity="1.000000" stroke="none" 
	d="
M816.685974,970.981689 
	C819.923828,973.549988 823.123535,975.695312 825.573608,978.496216 
	C827.848633,981.097107 827.047058,983.651978 823.675842,985.193237 
	C818.647583,987.492188 807.084595,985.742554 803.636841,981.490234 
	C802.567261,980.171082 802.415039,977.017822 803.247009,975.448547 
	C805.916992,970.412170 810.520508,969.058105 816.685974,970.981689 
z"/>
<path fill="#438047" opacity="1.000000" stroke="none" 
	d="
M947.420654,1008.326782 
	C942.154602,1007.125977 937.168701,1006.173706 932.448181,1004.481262 
	C929.851807,1003.550476 929.148987,1000.982422 930.526672,998.233032 
	C932.518921,994.257080 937.601196,991.386047 941.511292,992.103394 
	C946.880005,993.088257 954.519348,999.347900 954.487610,1003.193420 
	C954.453003,1007.400574 950.924438,1007.723877 947.420654,1008.326782 
z"/>
<path fill="#438047" opacity="1.000000" stroke="none" 
	d="
M940.560974,981.292969 
	C938.506165,985.299866 932.124268,987.117065 928.428406,983.845642 
	C925.402954,981.167847 923.287170,976.768555 922.251404,972.750183 
	C921.379578,969.367493 926.122437,966.640015 929.125854,969.009033 
	C933.387146,972.370056 936.725098,976.901672 940.560974,981.292969 
z"/>
<path fill="#407F45" opacity="1.000000" stroke="none" 
	d="
M723.845459,385.946930 
	C723.857483,368.642548 723.759155,351.828125 723.929260,335.016479 
	C724.010986,326.935638 726.617249,323.486176 732.575195,322.390259 
	C739.367432,321.140900 743.921326,324.107178 745.458435,330.847839 
	C745.752197,332.136230 745.964172,333.476410 745.966431,334.793121 
	C745.998596,353.770630 746.085144,372.748932 745.945251,391.725494 
	C745.881165,400.422394 741.983459,404.657623 734.763062,404.625885 
	C728.719910,404.599365 725.115051,401.419952 724.184753,394.909912 
	C723.786987,392.126648 723.941772,389.264404 723.845459,385.946930 
z"/>
<path fill="#438047" opacity="1.000000" stroke="none" 
	d="
M752.632080,163.760834 
	C752.907288,161.902344 753.107910,160.424637 753.308594,158.946945 
	C753.572021,158.911606 753.835449,158.876266 754.098877,158.840942 
	C756.348450,172.505310 758.598022,186.169678 760.907715,200.199478 
	C756.090454,200.199478 751.693726,200.199478 746.663391,200.199478 
	C748.657104,188.002731 750.607300,176.072189 752.632080,163.760834 
z"/>
<path fill="#438047" opacity="1.000000" stroke="none" 
	d="
M504.505096,374.470306 
	C506.510101,362.265961 508.399200,350.484192 510.288269,338.702393 
	C510.597382,338.652069 510.906525,338.601715 511.215637,338.551392 
	C513.451050,352.027313 515.686462,365.503235 517.996399,379.428680 
	C513.211792,379.428680 508.730743,379.428680 503.903320,379.428680 
	C504.077148,377.805878 504.233154,376.349365 504.505096,374.470306 
z"/>
</svg>