<svg version="1.1" id="Layer_1" xmlns="http://www.w3.org/2000/svg" xmlns:xlink="http://www.w3.org/1999/xlink" x="0px" y="0px"
	 width="100%" viewBox="0 0 1500 1500" enable-background="new 0 0 1500 1500" xml:space="preserve">
<path fill="#BF8B2E" opacity="1.000000" stroke="none" 
	d="
M1.000000,550.000000 
	C1.000000,366.666687 1.000000,183.833405 1.000000,1.000074 
	C500.999878,1.000049 1000.999756,1.000049 1500.999756,1.000025 
	C1500.999756,500.999786 1500.999756,1000.999573 1500.999878,1500.999512 
	C1001.000305,1500.999756 501.000610,1500.999756 1.000452,1500.999878 
	C1.000000,1184.166626 1.000000,867.333313 1.000000,550.000000 
M968.377197,324.009979 
	C963.822937,312.749298 954.784851,308.642181 943.376953,308.510132 
	C934.046448,308.402130 924.713684,308.469574 915.382080,308.502594 
	C913.961792,308.507599 912.542236,308.747559 911.100159,308.880920 
	C911.100159,345.433563 911.100159,381.526215 911.100159,417.882996 
	C917.761658,417.882996 924.149353,417.882996 931.093140,417.882996 
	C931.093140,401.693848 931.093140,385.785217 931.093140,369.767670 
	C936.622620,369.518921 941.612671,369.412598 946.583679,369.048004 
	C959.973999,368.065796 968.866821,360.119965 969.968018,346.835754 
	C970.589722,339.335724 969.350952,331.681458 969.776123,323.597168 
	C975.674866,323.597168 981.573669,323.597168 987.951233,323.597168 
	C987.951233,355.575348 987.951233,386.646332 987.951233,417.842407 
	C994.849792,417.842407 1001.235779,417.842407 1008.187622,417.842407 
	C1008.187622,386.294220 1008.187622,355.076538 1008.187622,323.291840 
	C1014.348022,323.291840 1019.941833,323.291840 1025.492676,323.291840 
	C1025.492676,318.137177 1025.492676,313.565552 1025.492676,308.893768 
	C1006.581360,308.893768 988.026306,308.893768 969.076233,308.893768 
	C969.076233,314.281738 969.076233,319.255157 968.377197,324.009979 
M650.208618,1044.806519 
	C619.925537,1053.248535 589.622437,1061.620361 559.388489,1070.234863 
	C556.142639,1071.159668 551.877319,1072.781494 550.589050,1075.340698 
	C548.435303,1079.619263 553.391174,1081.837891 556.048340,1084.301514 
	C565.058777,1092.655640 574.251099,1100.813477 583.431152,1109.098022 
	C582.808044,1109.774414 582.541809,1110.211426 582.154419,1110.458740 
	C580.330322,1111.623413 578.500427,1112.783813 576.623474,1113.859985 
	C537.954895,1136.033081 496.544861,1139.689941 454.357239,1128.615356 
	C398.594818,1113.977173 361.341522,1078.525024 346.689941,1022.188293 
	C338.117310,989.225708 339.557739,955.444702 345.594025,922.010254 
	C350.311768,895.878967 359.354706,871.241699 377.359985,851.372925 
	C417.153229,807.461304 467.852295,793.587708 525.032532,802.050781 
	C563.650696,807.766541 596.109558,826.649902 623.476746,854.336731 
	C643.475037,874.568665 660.387634,897.221008 675.843994,921.026855 
	C695.824951,951.801575 712.081116,984.623108 729.117493,1017.036926 
	C750.396667,1057.523315 776.382812,1094.657959 809.706421,1126.336792 
	C835.185486,1150.558228 864.135132,1169.409668 896.138672,1183.948730 
	C940.422791,1204.066772 986.598755,1213.273315 1034.761353,1205.574585 
	C1114.409912,1192.843262 1170.092285,1148.290283 1198.576050,1072.866699 
	C1222.133789,1010.487122 1222.395508,946.169495 1203.542236,882.462036 
	C1186.048584,823.348938 1149.138916,779.402771 1092.637329,753.791626 
	C1018.233826,720.065857 944.170349,721.007385 871.729675,760.195618 
	C833.122986,781.080811 802.737366,811.566711 775.470703,845.428833 
	C772.810120,848.732849 773.573730,851.667847 775.526245,855.018311 
	C785.079773,871.412231 794.542114,887.860474 803.894104,904.370239 
	C808.098267,911.792236 812.114441,912.149841 817.200623,905.195129 
	C833.473755,882.943604 851.312439,862.127686 872.299561,844.105286 
	C901.439514,819.081726 935.137024,804.213135 973.123169,799.642090 
	C992.473328,797.313599 1011.702454,800.337341 1030.525146,805.093445 
	C1089.049072,819.881592 1126.946655,855.708191 1140.613403,915.144409 
	C1149.366089,953.208923 1148.892334,991.545593 1139.826538,1029.545898 
	C1122.527344,1102.057983 1060.284302,1145.925049 986.320007,1137.710938 
	C941.257507,1132.706787 902.056580,1113.773193 867.571472,1084.991211 
	C836.965515,1059.446777 814.271790,1027.400635 795.111084,992.782227 
	C778.109863,962.065430 762.355347,930.631592 744.591858,900.370422 
	C720.896118,860.003174 692.905823,822.814636 657.905823,791.231567 
	C621.106812,758.025208 577.618225,739.505859 529.175110,731.958496 
	C500.866730,727.548035 472.590302,729.701172 444.809479,736.098999 
	C362.263000,755.108826 306.968628,803.990662 282.846405,886.089050 
	C271.033051,926.295105 269.814117,967.419739 273.846283,1008.881653 
	C278.156311,1053.200928 294.634918,1092.669067 323.764984,1125.990723 
	C372.635742,1181.893555 435.278076,1206.561768 509.121857,1203.414673 
	C547.604370,1201.774414 583.620056,1191.668701 616.388855,1171.018799 
	C623.253113,1166.693237 629.937439,1162.081909 636.949707,1157.440063 
	C647.175110,1166.653931 657.222412,1175.884521 667.531250,1184.813232 
	C669.153320,1186.218140 672.219177,1187.176147 674.137939,1186.636353 
	C675.702332,1186.196289 677.279724,1183.328735 677.608582,1181.332886 
	C685.212097,1135.182739 692.659119,1089.006836 700.099121,1042.829834 
	C701.618774,1033.398071 699.033508,1031.109009 689.906433,1033.653076 
	C676.926453,1037.271118 663.953918,1040.915771 650.208618,1044.806519 
M315.989594,128.493042 
	C305.396637,127.686188 294.779877,125.990547 284.216156,126.273674 
	C266.893311,126.737946 250.634537,131.306183 237.502319,143.570145 
	C228.406952,152.064194 222.621658,162.621750 218.696457,174.326813 
	C212.886124,191.653366 212.491669,209.465286 213.222961,227.435486 
	C231.086166,227.435486 248.464325,227.435486 266.171112,227.435486 
	C266.171112,223.883530 266.062622,220.725555 266.190521,217.577194 
	C266.656250,206.112167 266.668213,194.554092 271.938141,183.911545 
	C275.974243,175.760727 284.206818,171.385010 293.865753,172.195816 
	C302.667633,172.934677 308.458099,177.861282 311.115448,187.082565 
	C313.761597,196.264999 313.250214,205.544083 311.482788,214.782471 
	C308.565521,230.030899 300.296722,242.822235 292.113037,255.543594 
	C266.717957,295.019928 241.103241,334.354950 215.610916,373.768829 
	C214.553345,375.403961 213.158264,377.268494 213.126770,379.047485 
	C212.909225,391.340729 213.012207,403.639679 213.012207,416.094757 
	C262.124268,416.094757 310.824066,416.094757 359.413086,416.094757 
	C359.413086,401.611481 359.413086,387.550262 359.413086,372.860229 
	C331.175293,372.860229 303.358215,372.860229 274.890686,372.860229 
	C278.791016,366.992157 282.205627,361.880890 285.594269,356.752411 
	C307.342834,323.837433 329.518890,291.194031 350.679504,257.905212 
	C364.992462,235.388718 370.015259,210.423584 366.066254,183.744583 
	C361.828644,155.115891 344.183746,135.172623 315.989594,128.493042 
M127.829315,364.499908 
	C127.829315,381.635345 127.829315,398.770782 127.829315,416.145569 
	C146.337265,416.145569 164.399445,416.145569 182.574341,416.145569 
	C182.574341,320.558868 182.574341,225.339676 182.574341,130.145950 
	C181.868484,129.897675 181.406647,129.594604 180.943665,129.592834 
	C167.950851,129.542892 154.957748,129.488403 141.965332,129.556870 
	C140.758713,129.563217 139.262207,130.065292 138.396469,130.870605 
	C126.634277,141.811935 112.730774,149.641693 98.095779,155.422714 
	C87.897804,159.451065 84.789009,164.901154 85.960686,175.230789 
	C86.937958,183.846542 86.161057,192.661255 86.161057,201.986679 
	C100.459526,196.852798 113.955757,192.006958 127.829315,187.025635 
	C127.829315,246.235550 127.829315,304.867706 127.829315,364.499908 
M826.682495,418.179779 
	C830.299438,418.179779 833.916321,418.179779 838.525024,418.179779 
	C838.525024,394.498199 838.525024,371.375763 838.525024,348.253326 
	C838.967285,348.229919 839.409485,348.206512 839.851746,348.183105 
	C840.199951,349.594543 840.589417,350.997253 840.890198,352.418732 
	C845.230164,372.924042 849.512024,393.441925 853.980286,413.919189 
	C854.320679,415.479065 855.778625,417.738983 857.031616,417.970428 
	C860.189941,418.553833 863.528198,418.163605 866.785217,418.163605 
	C871.673401,394.965851 876.422668,372.427429 881.171875,349.889008 
	C881.825073,349.951233 882.478271,350.013458 883.131470,350.075684 
	C883.131470,372.636993 883.131470,395.198303 883.131470,417.916626 
	C888.982849,417.916626 893.739563,417.916626 899.008606,417.916626 
	C898.369812,381.440704 897.735779,345.237488 897.091919,308.472748 
	C891.657593,308.472748 886.683411,308.665771 881.732727,308.408051 
	C878.155212,308.221771 876.525452,309.189789 875.774719,313.047119 
	C872.724304,328.719940 869.262024,344.312836 865.927002,359.929932 
	C864.329712,367.409546 862.677551,374.877411 861.050171,382.350586 
	C860.739075,382.309967 860.427917,382.269348 860.116760,382.228760 
	C855.037415,357.690918 849.958130,333.153076 844.910889,308.770264 
	C837.680420,308.770264 831.061523,308.770264 824.569824,308.770264 
	C824.319214,309.363770 824.087463,309.660004 824.082642,309.959869 
	C823.517761,345.094391 823.006836,380.229828 822.352661,415.362610 
	C822.298218,418.285492 823.830017,418.185547 826.682495,418.179779 
M968.154846,208.499908 
	C968.154846,218.595703 968.154846,228.691498 968.154846,239.176788 
	C978.167297,239.176788 987.470520,239.202194 996.773376,239.162689 
	C999.933716,239.149277 1003.129761,239.240341 1006.246399,238.817963 
	C1014.510437,237.697968 1022.167419,234.597672 1025.859741,226.812500 
	C1028.557129,221.125488 1030.408325,214.514435 1030.575073,208.260300 
	C1030.909302,195.724915 1028.259521,185.607147 1014.783508,180.674988 
	C1014.659119,180.629471 1014.685242,180.172760 1014.598511,179.652298 
	C1024.770630,176.167801 1026.987183,167.736511 1027.481323,158.275177 
	C1028.270142,143.176422 1021.865234,132.948715 1007.919983,130.834915 
	C995.062256,128.885971 981.857971,129.223267 968.154846,128.520096 
	C968.154846,155.656677 968.154846,181.578293 968.154846,208.499908 
M613.151123,565.499939 
	C613.151123,575.953430 613.151123,586.406921 613.151123,597.051758 
	C625.069763,597.051758 636.537415,597.583191 647.935242,596.917786 
	C662.323975,596.077698 671.988281,587.363464 672.674866,572.969238 
	C673.656189,552.397827 673.555054,531.721558 672.734192,511.137115 
	C672.231750,498.538361 664.638977,490.515656 652.114197,489.101471 
	C639.624634,487.691284 626.904663,488.318542 614.285156,488.082520 
	C614.034485,488.077820 613.776855,488.442017 613.151123,488.914490 
	C613.151123,513.928711 613.151123,539.214294 613.151123,565.499939 
M922.149841,573.499939 
	C922.149841,581.289978 922.149841,589.080078 922.149841,597.089966 
	C933.915771,597.089966 945.216980,597.583313 956.457642,596.968384 
	C971.418274,596.150024 981.097717,587.395996 981.770447,572.480652 
	C982.691284,552.065002 982.571594,531.553284 981.768799,511.127197 
	C981.274902,498.562012 973.659058,490.584320 961.139221,489.076416 
	C949.469055,487.670898 937.570557,488.149231 925.771423,487.846375 
	C924.681396,487.818390 923.582520,488.138123 922.149841,488.345306 
	C922.149841,516.587402 922.149841,544.543640 922.149841,573.499939 
M799.529663,582.488892 
	C799.529663,571.049622 799.529663,559.610413 799.529663,548.310669 
	C807.654297,546.657532 807.759888,546.697266 809.529541,553.426941 
	C813.038452,566.770996 816.465393,580.137207 820.085022,593.451050 
	C820.489502,594.938660 821.851562,597.239685 822.886475,597.304810 
	C828.796692,597.676636 834.742249,597.485352 841.261047,597.485352 
	C840.624207,594.913025 840.208069,593.012756 839.682556,591.143372 
	C835.634094,576.742798 831.521240,562.360046 827.564087,547.934570 
	C827.140015,546.388611 826.947449,543.557922 827.720947,543.087219 
	C839.794800,535.739929 839.654663,523.974976 839.089294,512.164551 
	C838.499695,499.849365 831.959412,491.082245 819.883240,489.430267 
	C806.656128,487.620758 793.146729,487.874908 779.473511,487.215942 
	C779.473511,524.591553 779.473511,560.775513 779.473511,597.184204 
	C786.193909,597.184204 792.588135,597.184204 799.529541,597.184204 
	C799.529541,592.393799 799.529541,587.937927 799.529663,582.488892 
M1182.208374,418.183319 
	C1185.497314,418.183319 1188.786255,418.183319 1192.535645,418.183319 
	C1192.535645,415.644501 1192.535645,413.683105 1192.535645,411.721680 
	C1192.535645,382.073029 1192.535645,352.424377 1192.535645,322.775726 
	C1192.535645,307.090363 1192.535645,307.089874 1176.833862,308.695068 
	C1176.687866,308.709961 1176.553223,308.834442 1175.717773,309.272003 
	C1175.717773,327.898224 1175.717773,346.899750 1175.717773,365.901306 
	C1175.297241,366.003876 1174.876709,366.106445 1174.456177,366.209045 
	C1173.633911,364.515289 1172.747559,362.849365 1171.999390,361.123505 
	C1164.990845,344.953491 1158.051392,328.753296 1150.944092,312.626953 
	C1150.239990,311.029419 1148.691650,308.882172 1147.297363,308.686829 
	C1143.429077,308.144836 1139.435303,308.498932 1135.518311,308.498932 
	C1135.518311,345.432678 1135.518311,381.632843 1135.518311,417.858582 
	C1141.322632,417.858582 1146.750854,417.858582 1152.812500,417.858582 
	C1152.812500,397.573792 1152.812500,377.608887 1152.812500,357.643982 
	C1154.491455,359.123199 1155.268311,360.708679 1155.944824,362.335846 
	C1163.093994,379.529510 1170.173950,396.752411 1177.448608,413.892639 
	C1178.162354,415.574066 1180.044800,416.759460 1182.208374,418.183319 
M477.153107,141.522919 
	C477.153107,173.924316 477.153107,206.325699 477.153107,238.854355 
	C484.229950,238.854355 490.627472,238.854355 497.770874,238.854355 
	C497.770874,222.186630 497.770874,205.829437 497.770874,189.572968 
	C506.081757,188.757782 506.083160,188.757416 507.903290,195.772629 
	C508.278870,197.220245 508.628967,198.674484 509.009125,200.120865 
	C512.416687,213.085617 515.828247,226.049316 519.189148,238.824860 
	C526.147217,238.824860 532.546997,238.824860 539.311279,238.824860 
	C538.819885,236.810822 538.477783,235.204620 538.035156,233.626633 
	C534.039978,219.385651 530.135437,205.117615 525.947205,190.933441 
	C524.833008,187.160004 524.970276,185.021103 528.673401,182.367661 
	C531.904724,180.052261 534.561890,175.816559 535.662109,171.918274 
	C537.166809,166.586914 537.625000,160.739212 537.354248,155.170090 
	C536.607483,139.811218 528.477783,131.289230 513.038208,130.082443 
	C501.782471,129.202667 490.438416,129.444748 479.132843,129.234680 
	C478.546539,129.223755 477.951813,129.663223 477.153107,129.973862 
	C477.153107,133.560150 477.153107,137.047516 477.153107,141.522919 
M857.251648,493.739532 
	C854.783691,498.552673 850.357117,503.296051 850.182922,508.190857 
	C849.379944,530.746399 848.631531,553.419495 850.128357,575.899597 
	C851.081238,590.210632 859.606018,596.868469 873.966309,598.455505 
	C895.349548,600.818665 909.911560,593.518188 911.263916,570.394348 
	C912.407532,550.840088 911.638367,531.134949 910.896484,511.527588 
	C910.574280,503.010559 906.582153,495.574310 898.949280,490.625854 
	C890.257507,484.990875 866.643372,484.271423 857.251648,493.739532 
M1087.171631,419.356049 
	C1111.315186,421.977844 1123.971558,411.312256 1124.806030,387.106964 
	C1125.253296,374.134674 1125.073242,361.136047 1124.957520,348.151276 
	C1124.907227,342.510376 1124.755737,336.802032 1123.861938,331.251251 
	C1121.996094,319.665039 1116.216064,310.861633 1103.974609,308.459015 
	C1098.515015,307.387451 1092.677979,307.098633 1087.153442,307.716705 
	C1071.825806,309.431427 1063.056030,317.507080 1062.319946,332.779053 
	C1061.343994,353.026703 1061.294556,373.398315 1062.347534,393.638611 
	C1063.150024,409.065155 1072.039185,417.290985 1087.171631,419.356049 
M1222.296631,500.898712 
	C1221.336792,504.075958 1219.582031,507.244110 1219.545776,510.431885 
	C1219.303101,531.710815 1218.303955,553.073486 1219.804443,574.249207 
	C1220.908569,589.828308 1229.811035,597.220764 1244.876343,598.577209 
	C1265.795288,600.460693 1279.686890,593.493958 1281.314209,571.085693 
	C1282.685059,552.208069 1282.726929,533.072937 1281.340454,514.199951 
	C1279.870361,494.190887 1269.701050,486.389374 1249.486084,486.493561 
	C1247.328979,486.504669 1245.164062,486.682617 1243.018555,486.923645 
	C1234.003174,487.936584 1226.914795,491.934723 1222.296631,500.898712 
M585.256104,418.915833 
	C598.440430,415.541443 606.145142,408.002716 606.794800,394.254425 
	C607.751282,374.010681 607.982910,353.643463 606.875000,333.419128 
	C605.957397,316.667755 596.990723,309.065277 580.185364,307.296021 
	C560.435486,305.216797 546.448547,314.246185 545.359741,332.100586 
	C544.106812,352.645386 544.284058,373.362640 545.301208,393.932709 
	C546.062256,409.323547 555.237915,417.598480 570.512817,419.306702 
	C575.077759,419.817230 579.774414,419.150391 585.256104,418.915833 
M734.011108,140.572998 
	C732.616760,144.980194 730.154602,149.353485 730.013428,153.800476 
	C729.411316,172.760056 729.399353,191.741531 729.417542,210.714767 
	C729.420837,214.151749 730.293823,217.668030 731.249817,221.009094 
	C734.218018,231.382431 740.944946,237.994919 751.723450,239.738251 
	C756.117859,240.449036 760.711182,240.626022 765.147827,240.254822 
	C781.397339,238.895340 790.968933,230.305588 791.761475,214.005829 
	C792.730347,194.080139 792.694031,174.037704 791.753906,154.108902 
	C791.024719,138.652359 782.009094,129.955276 766.818359,128.410034 
	C754.428894,127.149742 742.289001,127.953049 734.011108,140.572998 
M1309.529663,586.441162 
	C1309.529663,569.833069 1309.529663,553.224915 1309.529663,536.616821 
	C1311.483154,538.010925 1312.206299,539.467285 1312.829224,540.965393 
	C1320.104248,558.462708 1327.332153,575.979858 1334.685059,593.444397 
	C1335.321289,594.955750 1336.630005,597.121033 1337.846069,597.277771 
	C1341.696899,597.773987 1345.651855,597.461121 1349.562744,597.461121 
	C1349.562744,560.555542 1349.562744,524.477722 1349.562744,488.237762 
	C1343.920898,488.237762 1338.573120,488.237762 1332.891357,488.237762 
	C1332.891357,508.042725 1332.891357,527.430969 1332.891357,546.819214 
	C1331.494629,545.581177 1330.754028,544.183533 1330.127197,542.736694 
	C1322.792725,525.806580 1315.517578,508.850433 1308.084595,491.963776 
	C1307.384766,490.373657 1305.857422,488.224640 1304.478149,488.032837 
	C1300.609253,487.494690 1296.616943,487.845276 1292.498169,487.845276 
	C1292.498169,524.627075 1292.498169,560.809631 1292.498169,597.162048 
	C1298.243896,597.162048 1303.636841,597.162048 1309.529541,597.162048 
	C1309.529541,593.672119 1309.529541,590.543579 1309.529663,586.441162 
M658.915833,309.966064 
	C658.915833,328.997864 658.915833,348.029663 658.915833,367.061432 
	C657.162292,365.972961 656.488831,364.730927 655.929260,363.439484 
	C648.592590,346.506805 641.314819,329.548309 633.877930,312.659821 
	C633.172668,311.058075 631.634094,308.895081 630.243469,308.700592 
	C626.360535,308.157440 622.351990,308.511658 618.297729,308.511658 
	C618.297729,345.305847 618.297729,381.533508 618.297729,417.825745 
	C624.001038,417.825745 629.392700,417.825745 635.253906,417.825745 
	C635.253906,397.133209 635.253906,376.787537 635.253906,356.441833 
	C636.808899,357.689606 637.482300,359.120667 638.089294,360.579315 
	C645.500610,378.388519 652.861145,396.219116 660.375732,413.984589 
	C661.053223,415.586304 662.559082,417.754028 663.939087,417.964813 
	C667.599365,418.523895 671.401428,418.154510 675.053711,418.154510 
	C675.053711,381.166046 675.053711,344.969910 675.053711,308.207764 
	C669.458313,308.526978 664.354370,308.818146 658.915833,309.966064 
M601.000793,490.698608 
	C600.378479,489.755615 599.793579,488.026672 599.127930,487.995056 
	C594.235229,487.762604 589.326355,487.869568 583.843506,487.869568 
	C583.843506,507.839172 583.843506,526.938538 583.843506,546.037903 
	C582.617554,545.038025 582.101562,544.014465 581.646912,542.964355 
	C574.246826,525.872131 566.900879,508.756104 559.382080,491.716309 
	C558.702148,490.175385 557.047729,488.216797 555.625183,488.016174 
	C551.918945,487.493347 548.090027,487.840271 544.160217,487.840271 
	C544.160217,524.624573 544.160217,560.826233 544.160217,597.027344 
	C549.867004,597.027344 555.226257,597.027344 560.973755,597.027344 
	C560.973755,576.320068 560.973755,556.098877 560.973755,535.877686 
	C562.514160,537.246704 563.307922,538.789246 563.972229,540.385742 
	C571.318909,558.039795 578.590454,575.725647 586.067566,593.324219 
	C586.775330,594.989929 588.574585,597.025391 590.155090,597.314575 
	C593.506592,597.927673 597.048157,597.501526 601.004761,597.501526 
	C601.004761,561.873291 601.004761,526.771179 601.000793,490.698608 
M820.005493,228.474167 
	C820.005493,211.348343 820.005493,194.222519 820.005493,177.096695 
	C821.368774,177.943680 821.800781,178.823944 822.176636,179.727570 
	C829.838257,198.148163 837.465332,216.583282 845.201355,234.972519 
	C845.848755,236.511261 847.084717,238.771957 848.281799,238.930969 
	C852.119507,239.440796 856.067505,239.120438 859.803162,239.120438 
	C859.803162,202.057785 859.803162,165.827820 859.803162,129.393982 
	C854.341492,129.393982 849.250671,129.393982 843.332642,129.393982 
	C843.332642,148.871948 843.332642,168.133133 843.332642,187.394318 
	C841.559998,186.038300 840.821899,184.605515 840.181763,183.130264 
	C832.901917,166.352737 825.663635,149.557098 818.318420,132.808273 
	C817.721497,131.447083 816.514771,129.473404 815.430420,129.362793 
	C811.394043,128.951035 807.290344,129.198486 803.294556,129.198486 
	C803.294556,166.253220 803.294556,202.499329 803.294556,238.784302 
	C808.975464,238.784302 814.347229,238.784302 820.005493,238.784302 
	C820.005493,235.419434 820.005493,232.440994 820.005493,228.474167 
M1011.848877,497.551666 
	C1011.848877,494.446381 1011.848877,491.341064 1011.848877,488.237000 
	C1004.933411,488.237000 998.722107,488.237000 992.151123,488.237000 
	C992.151123,508.945282 992.075012,529.238586 992.189148,549.530884 
	C992.234009,557.510681 992.302185,565.526733 993.065918,573.458313 
	C994.558289,588.956604 1002.482239,596.765198 1017.827209,598.667480 
	C1036.880859,601.029541 1049.127441,593.501587 1052.659668,577.042908 
	C1053.458130,573.322388 1053.931641,569.457275 1053.948853,565.655945 
	C1054.061768,540.841431 1054.009766,516.026245 1054.000000,491.211243 
	C1053.999634,490.251617 1053.879639,489.292023 1053.806152,488.194855 
	C1047.300903,488.194855 1041.108032,488.194855 1034.472168,488.194855 
	C1034.472168,490.539642 1034.472168,492.512817 1034.472168,494.485962 
	C1034.472168,517.135864 1034.554565,539.786377 1034.403320,562.435242 
	C1034.372437,567.051392 1033.865356,571.752441 1032.850342,576.250244 
	C1031.737671,581.181458 1027.667969,583.857971 1022.956909,583.728027 
	C1018.280457,583.598938 1014.404480,580.632996 1013.208984,575.851990 
	C1012.528442,573.130493 1012.058899,570.277893 1012.042175,567.481079 
	C1011.904907,544.499939 1011.896423,521.518005 1011.848877,497.551666 
M791.822388,319.532227 
	C791.822327,340.692841 791.912903,361.854187 791.751099,383.013550 
	C791.715759,387.632416 791.191528,392.339905 790.150085,396.834595 
	C788.930542,402.097534 785.393250,404.473480 780.428711,404.443359 
	C775.318359,404.412354 771.537170,401.689819 770.426392,396.407898 
	C769.542786,392.205902 769.100342,387.839783 769.069458,383.542175 
	C768.930786,364.215393 769.008850,344.887054 769.008789,325.559296 
	C769.008789,320.076233 769.008789,314.593201 769.008789,308.831268 
	C762.442078,308.831268 756.221375,308.831268 750.020569,308.831268 
	C749.798279,309.631866 749.553955,310.098663 749.555786,310.564514 
	C749.663818,337.549225 749.255310,364.550598 750.096619,391.512939 
	C750.717529,411.414185 762.902649,421.243011 782.775146,419.783356 
	C794.462891,418.924866 804.650879,415.444275 808.332886,402.897125 
	C809.997009,397.226196 810.979309,391.156311 811.052734,385.252289 
	C811.351074,361.262909 811.182129,337.267670 811.164490,313.274567 
	C811.163452,311.831970 810.980591,310.389496 810.872009,308.796387 
	C804.427368,308.796387 798.338684,308.796387 791.822388,308.796387 
	C791.822388,312.256744 791.822388,315.401154 791.822388,319.532227 
M1063.477295,563.208984 
	C1063.673584,566.198792 1063.752930,569.201721 1064.086182,572.176208 
	C1065.673340,586.340820 1073.087891,595.796082 1085.338501,597.788513 
	C1091.461304,598.784302 1097.948975,598.562927 1104.143066,597.820190 
	C1111.011841,596.996338 1116.631348,593.314514 1120.065796,586.990173 
	C1125.322021,577.311157 1124.814453,566.922913 1124.200317,556.476929 
	C1117.592163,556.476929 1111.501587,556.476929 1104.821655,556.476929 
	C1104.821655,562.589172 1105.137329,568.409180 1104.736084,574.179321 
	C1104.303711,580.398987 1100.833496,583.598572 1095.321899,583.812012 
	C1089.608398,584.033325 1086.143066,581.295044 1084.934082,575.259827 
	C1084.382080,572.504578 1084.062866,569.655823 1084.049194,566.847473 
	C1083.968750,550.354553 1083.959961,533.860779 1084.055542,517.368042 
	C1084.072754,514.397522 1084.362915,511.345886 1085.105591,508.481720 
	C1086.211792,504.214966 1089.084717,501.774780 1093.728760,501.525513 
	C1100.834961,501.144135 1104.406128,503.977173 1104.822266,511.188965 
	C1105.134155,516.596558 1104.883789,522.036682 1104.883789,527.549805 
	C1111.778931,527.549805 1117.852295,527.549805 1125.401245,527.549805 
	C1124.340698,518.946777 1123.780151,510.703857 1122.176147,502.669250 
	C1121.076416,497.159790 1117.347168,492.901611 1112.273315,490.070587 
	C1090.031494,477.660706 1065.227173,490.655731 1063.988647,515.804993 
	C1063.227539,531.261353 1063.607910,546.773987 1063.477295,563.208984 
M515.836609,327.082581 
	C516.472229,333.991211 517.107849,340.899811 517.763000,348.019958 
	C523.932007,348.019958 530.261963,348.019958 537.197693,348.019958 
	C536.715515,341.193115 536.675659,334.846710 535.719849,328.641418 
	C534.656921,321.740326 531.710571,315.612305 525.492249,311.624390 
	C504.130951,297.925049 477.142944,311.061371 476.085876,336.189392 
	C475.324188,354.295441 475.446350,372.475189 476.057556,390.592255 
	C476.678894,409.011169 486.556030,418.828430 504.835724,419.690704 
	C515.398315,420.188995 525.771240,418.563568 531.838806,408.225220 
	C537.483459,398.607391 536.797485,387.917236 536.703918,377.399353 
	C529.882568,377.399353 523.664124,377.399353 516.908020,377.399353 
	C516.908020,383.445282 517.171265,389.102997 516.837585,394.725250 
	C516.467590,400.959503 513.188110,404.172302 507.655609,404.544037 
	C501.613281,404.949982 498.191193,402.321533 496.940063,395.882477 
	C496.341522,392.801941 496.066803,389.614014 496.049347,386.472504 
	C495.962372,370.819489 495.976807,355.165558 496.039948,339.512299 
	C496.051300,336.697235 496.275452,333.854187 496.724884,331.076416 
	C497.406372,326.864288 499.344482,323.509399 503.963654,322.592102 
	C508.485199,321.694244 512.608398,322.108124 515.836609,327.082581 
M515.991699,583.666199 
	C516.805786,588.182312 517.619934,592.698486 518.430847,597.196838 
	C524.858093,597.196838 530.760315,597.196838 537.221863,597.196838 
	C529.787415,560.534607 522.438660,524.295471 515.091431,488.063385 
	C507.755524,488.063385 500.981110,488.063385 493.837006,488.063385 
	C486.445312,524.459961 479.085907,560.697449 471.680725,597.160400 
	C478.493530,597.160400 484.559845,597.160400 490.762207,597.160400 
	C492.303223,588.703369 493.785431,580.568970 495.296112,572.278442 
	C501.647034,572.278442 507.728058,572.278442 513.894409,572.278442 
	C514.586121,575.951965 515.231628,579.380127 515.991699,583.666199 
M691.769897,409.672913 
	C699.196777,418.831299 709.207947,420.716278 720.116455,419.289917 
	C733.840332,417.495392 742.432617,407.793427 742.953796,393.946442 
	C743.335205,383.815552 740.192932,374.744720 733.156494,367.539612 
	C726.314087,360.533173 718.801941,354.177856 711.539917,347.585144 
	C706.792419,343.275146 703.343811,338.420197 703.924500,331.572266 
	C704.356812,326.472900 706.972290,323.449921 711.765442,322.732452 
	C716.889465,321.965546 720.405334,324.043579 721.953918,329.278259 
	C722.972351,332.720703 723.404236,336.336700 724.197998,340.380524 
	C729.904724,339.252838 735.350342,338.176727 740.698975,337.119812 
	C740.682129,319.661896 732.629272,309.097321 717.586975,307.453064 
	C699.434875,305.468811 684.199219,314.511169 684.903809,335.905426 
	C685.248474,346.370514 689.811218,354.299286 697.388062,360.968384 
	C704.006775,366.794098 710.677673,372.568573 717.106812,378.598907 
	C722.001770,383.190308 724.402283,389.172577 723.188660,395.755035 
	C722.669312,398.571777 720.390686,401.873047 717.944336,403.326355 
	C714.689392,405.260071 710.550171,404.303040 707.996948,401.187805 
	C706.170105,398.958954 704.849426,396.117035 704.000366,393.335724 
	C702.963257,389.938538 702.655945,386.318573 701.967163,382.422485 
	C696.035889,383.666626 690.573181,384.812469 684.940918,385.993896 
	C685.070007,394.587555 686.686035,402.252502 691.769897,409.672913 
M891.953491,145.392899 
	C895.257446,144.944519 899.084351,143.208557 901.764282,144.296829 
	C908.897095,147.193329 907.168335,154.879913 908.955444,161.275696 
	C914.658691,160.099762 920.232849,158.950439 925.852112,157.791824 
	C925.466919,154.809265 925.276367,152.485275 924.853943,150.204224 
	C922.474976,137.356598 915.541504,130.263535 903.561951,128.329758 
	C886.622009,125.595284 872.337891,134.327072 870.171509,149.094437 
	C868.372925,161.355331 871.219971,172.201691 880.986023,180.660919 
	C888.029480,186.761902 895.037415,192.916763 901.807983,199.315552 
	C906.644104,203.886185 908.792419,209.732407 908.191711,216.471191 
	C907.855774,220.240051 906.421997,223.263824 902.546448,224.471161 
	C898.470825,225.740829 894.525879,224.875900 892.293396,221.399414 
	C890.212341,218.158676 889.161560,214.197510 887.999695,210.447388 
	C887.296875,208.178772 887.245850,205.708237 886.885193,203.212479 
	C880.827637,204.482132 875.476746,205.603653 869.805237,206.792389 
	C870.115234,218.316010 872.057556,228.989258 882.081665,235.614410 
	C892.106384,242.239899 903.195312,242.281586 914.029358,237.388504 
	C920.193115,234.604736 924.321716,229.547516 926.244202,222.963898 
	C929.899597,210.445908 927.174133,199.109146 918.807617,189.417603 
	C914.052002,183.908752 908.289795,179.271393 903.008240,174.213104 
	C899.173035,170.540070 895.009766,167.125717 891.666565,163.044159 
	C887.489563,157.944656 887.713440,151.323242 891.953491,145.392899 
M632.879944,200.710175 
	C636.409912,205.176941 638.364014,210.166428 637.988403,215.948288 
	C637.716431,220.135483 636.074707,223.454224 631.790649,224.615097 
	C627.724609,225.716873 623.953247,224.590729 621.629456,221.095779 
	C619.929443,218.538818 618.871948,215.450851 618.026917,212.458725 
	C617.198486,209.525406 617.000671,206.414001 616.493408,203.171844 
	C610.487305,204.484207 604.882019,205.709015 599.153442,206.960754 
	C599.465027,209.751099 599.666870,211.888885 599.946960,214.016342 
	C602.676880,234.749069 619.479492,245.404327 639.601929,239.098770 
	C647.978882,236.473755 653.795166,230.957932 656.040161,222.463043 
	C659.715820,208.553940 655.918518,196.375381 645.859192,186.361099 
	C639.027405,179.559875 631.268494,173.671280 624.632874,166.700012 
	C621.628967,163.544189 619.515198,158.948395 618.487244,154.649643 
	C617.099854,148.847961 620.821167,144.393082 626.401978,143.436249 
	C631.400513,142.579239 635.454163,145.458084 636.829712,151.151566 
	C637.599487,154.337738 637.945251,157.626312 638.551697,161.289108 
	C644.208069,160.141068 649.664917,159.033524 654.993225,157.952072 
	C655.298401,141.285660 647.454590,130.722992 633.481445,128.377167 
	C617.657593,125.720634 603.686951,133.117813 600.517029,146.450516 
	C597.361511,159.722641 600.231873,171.534912 610.812256,180.891922 
	C618.039856,187.283829 625.216187,193.733826 632.879944,200.710175 
M685.003540,203.512848 
	C685.003540,199.234390 685.003540,194.955917 685.003540,189.997711 
	C690.336121,189.997711 695.138000,190.258224 699.902527,189.947266 
	C712.526794,189.123367 721.621216,182.415054 723.290161,170.737701 
	C724.436218,162.719177 723.844788,154.146240 722.341736,146.137955 
	C720.714111,137.465347 714.235229,131.388855 705.503540,130.470917 
	C692.204529,129.072815 678.743591,129.215805 665.198608,128.698502 
	C665.198608,166.135910 665.198608,202.473068 665.198608,238.785385 
	C671.953857,238.785385 678.334045,238.785385 685.003540,238.785385 
	C685.003540,227.104370 685.003540,215.806198 685.003540,203.512848 
M712.995300,573.500000 
	C712.995300,581.304565 712.995300,589.109070 712.995300,597.211609 
	C719.795593,597.211609 726.212646,597.211609 733.174255,597.211609 
	C733.174255,581.059753 733.174255,565.150818 733.174255,548.509216 
	C737.464966,548.509216 741.240723,548.594604 745.011597,548.494568 
	C762.046082,548.042969 771.198730,539.790955 772.688721,523.319946 
	C773.016052,519.701965 772.909424,515.970947 772.434631,512.366760 
	C770.165222,495.140564 761.757141,487.846191 744.474182,487.828949 
	C737.479858,487.821991 730.485596,487.827820 723.491272,487.827789 
	C720.077515,487.827759 716.663818,487.827789 712.995300,487.827789 
	C712.995300,516.582092 712.995300,544.541077 712.995300,573.500000 
M568.541199,160.497681 
	C568.541199,155.083603 568.541199,149.669525 568.541199,143.707581 
	C577.577454,143.707581 585.805664,143.707581 594.124512,143.707581 
	C594.124512,138.577026 594.124512,134.016907 594.124512,129.485870 
	C578.804382,129.485870 563.903320,129.485870 548.733276,129.485870 
	C548.733276,166.073456 548.733276,202.318130 548.733276,238.867462 
	C564.084229,238.867462 579.299011,238.867462 594.384949,238.867462 
	C594.384949,234.153015 594.384949,229.770355 594.384949,224.972961 
	C585.645081,224.972961 577.372253,224.972961 569.033691,224.972961 
	C569.033691,212.849548 569.033691,201.174194 569.033691,188.995667 
	C575.931885,188.995667 582.342102,188.995667 588.660278,188.995667 
	C588.660278,184.071686 588.660278,179.666565 588.660278,174.826904 
	C581.877502,174.826904 575.445557,174.826904 568.541077,174.826904 
	C568.541077,170.090546 568.541077,165.792786 568.541199,160.497681 
M1112.500122,239.172226 
	C1120.972778,239.172226 1129.445435,239.172226 1138.133545,239.172226 
	C1138.133545,234.303177 1138.133545,229.900177 1138.133545,224.929108 
	C1129.353638,224.929108 1120.943970,224.929108 1112.529907,224.929108 
	C1112.529907,212.786438 1112.529907,201.219940 1112.529907,188.991425 
	C1119.419189,188.991425 1125.972778,188.991425 1132.571411,188.991425 
	C1132.571411,184.059692 1132.571411,179.799026 1132.571411,174.960907 
	C1125.757446,174.960907 1119.190796,174.960907 1112.540771,174.960907 
	C1112.540771,164.318604 1112.540771,154.262360 1112.540771,143.706818 
	C1121.165649,143.706818 1129.432983,143.706818 1137.780396,143.706818 
	C1137.780396,138.650299 1137.780396,134.105225 1137.780396,129.569092 
	C1122.337036,129.569092 1107.288818,129.569092 1092.301025,129.569092 
	C1092.301025,166.238617 1092.301025,202.497742 1092.301025,239.172226 
	C1098.901489,239.172226 1105.200928,239.172226 1112.500122,239.172226 
M1165.004639,552.500000 
	C1165.004639,536.068787 1165.004639,519.637573 1165.004639,502.674622 
	C1171.221313,502.674622 1176.798950,502.674622 1182.553467,502.674622 
	C1182.553467,497.556702 1182.553467,492.979889 1182.553467,488.116333 
	C1163.864258,488.116333 1145.461426,488.116333 1126.893555,488.116333 
	C1126.893555,493.076813 1126.893555,497.802368 1126.893555,503.104095 
	C1133.030273,503.104095 1138.764038,503.104095 1144.917114,503.104095 
	C1144.917114,534.775940 1144.917114,565.866638 1144.917114,597.212036 
	C1151.781250,597.212036 1158.200562,597.212036 1165.004639,597.212036 
	C1165.004639,582.441406 1165.004639,567.970703 1165.004639,552.500000 
M1039.145752,168.499939 
	C1039.145752,191.918518 1039.145752,215.337112 1039.145752,238.782516 
	C1055.052612,238.782516 1070.260132,238.782516 1085.516113,238.782516 
	C1085.516113,234.136688 1085.516113,229.898926 1085.516113,225.063904 
	C1076.791504,225.063904 1068.393066,225.063904 1059.300537,225.063904 
	C1059.300537,192.784958 1059.300537,161.103714 1059.300537,129.603439 
	C1052.190063,129.603439 1045.799194,129.603439 1039.145752,129.603439 
	C1039.145752,142.539383 1039.145752,155.019653 1039.145752,168.499939 
M955.841675,143.509125 
	C955.841675,138.901276 955.841675,134.293442 955.841675,129.585892 
	C948.836914,129.585892 942.484985,129.585892 936.126953,129.585892 
	C936.126953,166.233856 936.126953,202.453522 936.126953,238.747803 
	C942.789124,238.747803 949.144165,238.747803 955.841675,238.747803 
	C955.841675,207.051224 955.841675,175.778824 955.841675,143.509125 
M1031.032715,417.274292 
	C1037.490234,417.676270 1043.947754,418.078247 1050.643066,418.494995 
	C1050.643066,381.330750 1050.643066,345.276367 1050.643066,308.849854 
	C1044.080322,308.849854 1037.685303,308.849854 1030.868774,308.849854 
	C1030.868774,344.826202 1030.868774,380.570465 1031.032715,417.274292 
M1192.768921,597.521240 
	C1197.697021,597.521240 1202.625000,597.521240 1207.435547,597.521240 
	C1207.435547,560.506409 1207.435547,524.328491 1207.435547,488.143799 
	C1200.774170,488.143799 1194.527588,488.143799 1188.396729,488.143799 
	C1188.158325,488.756470 1187.941772,489.053375 1187.941406,489.350586 
	C1187.893066,524.294189 1187.894043,559.237915 1187.772095,594.181213 
	C1187.760864,597.413940 1189.444214,597.676270 1192.768921,597.521240 
z"/>
<path fill="#FFFFFE" opacity="1.000000" stroke="none" 
	d="
M650.593384,1044.677734 
	C663.953918,1040.915771 676.926453,1037.271118 689.906433,1033.653076 
	C699.033508,1031.109009 701.618774,1033.398071 700.099121,1042.829834 
	C692.659119,1089.006836 685.212097,1135.182739 677.608582,1181.332886 
	C677.279724,1183.328735 675.702332,1186.196289 674.137939,1186.636353 
	C672.219177,1187.176147 669.153320,1186.218140 667.531250,1184.813232 
	C657.222412,1175.884521 647.175110,1166.653931 636.949707,1157.440063 
	C629.937439,1162.081909 623.253113,1166.693237 616.388855,1171.018799 
	C583.620056,1191.668701 547.604370,1201.774414 509.121857,1203.414673 
	C435.278076,1206.561768 372.635742,1181.893555 323.764984,1125.990723 
	C294.634918,1092.669067 278.156311,1053.200928 273.846283,1008.881653 
	C269.814117,967.419739 271.033051,926.295105 282.846405,886.089050 
	C306.968628,803.990662 362.263000,755.108826 444.809479,736.098999 
	C472.590302,729.701172 500.866730,727.548035 529.175110,731.958496 
	C577.618225,739.505859 621.106812,758.025208 657.905823,791.231567 
	C692.905823,822.814636 720.896118,860.003174 744.591858,900.370422 
	C762.355347,930.631592 778.109863,962.065430 795.111084,992.782227 
	C814.271790,1027.400635 836.965515,1059.446777 867.571472,1084.991211 
	C902.056580,1113.773193 941.257507,1132.706787 986.320007,1137.710938 
	C1060.284302,1145.925049 1122.527344,1102.057983 1139.826538,1029.545898 
	C1148.892334,991.545593 1149.366089,953.208923 1140.613403,915.144409 
	C1126.946655,855.708191 1089.049072,819.881592 1030.525146,805.093445 
	C1011.702454,800.337341 992.473328,797.313599 973.123169,799.642090 
	C935.137024,804.213135 901.439514,819.081726 872.299561,844.105286 
	C851.312439,862.127686 833.473755,882.943604 817.200623,905.195129 
	C812.114441,912.149841 808.098267,911.792236 803.894104,904.370239 
	C794.542114,887.860474 785.079773,871.412231 775.526245,855.018311 
	C773.573730,851.667847 772.810120,848.732849 775.470703,845.428833 
	C802.737366,811.566711 833.122986,781.080811 871.729675,760.195618 
	C944.170349,721.007385 1018.233826,720.065857 1092.637329,753.791626 
	C1149.138916,779.402771 1186.048584,823.348938 1203.542236,882.462036 
	C1222.395508,946.169495 1222.133789,1010.487122 1198.576050,1072.866699 
	C1170.092285,1148.290283 1114.409912,1192.843262 1034.761353,1205.574585 
	C986.598755,1213.273315 940.422791,1204.066772 896.138672,1183.948730 
	C864.135132,1169.409668 835.185486,1150.558228 809.706421,1126.336792 
	C776.382812,1094.657959 750.396667,1057.523315 729.117493,1017.036926 
	C712.081116,984.623108 695.824951,951.801575 675.843994,921.026855 
	C660.387634,897.221008 643.475037,874.568665 623.476746,854.336731 
	C596.109558,826.649902 563.650696,807.766541 525.032532,802.050781 
	C467.852295,793.587708 417.153229,807.461304 377.359985,851.372925 
	C359.354706,871.241699 350.311768,895.878967 345.594025,922.010254 
	C339.557739,955.444702 338.117310,989.225708 346.689941,1022.188293 
	C361.341522,1078.525024 398.594818,1113.977173 454.357239,1128.615356 
	C496.544861,1139.689941 537.954895,1136.033081 576.623474,1113.859985 
	C578.500427,1112.783813 580.330322,1111.623413 582.154419,1110.458740 
	C582.541809,1110.211426 582.808044,1109.774414 583.431152,1109.098022 
	C574.251099,1100.813477 565.058777,1092.655640 556.048340,1084.301514 
	C553.391174,1081.837891 548.435303,1079.619263 550.589050,1075.340698 
	C551.877319,1072.781494 556.142639,1071.159668 559.388489,1070.234863 
	C589.622437,1061.620361 619.925537,1053.248535 650.593384,1044.677734 
z"/>
<path fill="#FEFEFD" opacity="1.000000" stroke="none" 
	d="
M316.385071,128.618774 
	C344.183746,135.172623 361.828644,155.115891 366.066254,183.744583 
	C370.015259,210.423584 364.992462,235.388718 350.679504,257.905212 
	C329.518890,291.194031 307.342834,323.837433 285.594269,356.752411 
	C282.205627,361.880890 278.791016,366.992157 274.890686,372.860229 
	C303.358215,372.860229 331.175293,372.860229 359.413086,372.860229 
	C359.413086,387.550262 359.413086,401.611481 359.413086,416.094757 
	C310.824066,416.094757 262.124268,416.094757 213.012207,416.094757 
	C213.012207,403.639679 212.909225,391.340729 213.126770,379.047485 
	C213.158264,377.268494 214.553345,375.403961 215.610916,373.768829 
	C241.103241,334.354950 266.717957,295.019928 292.113037,255.543594 
	C300.296722,242.822235 308.565521,230.030899 311.482788,214.782471 
	C313.250214,205.544083 313.761597,196.264999 311.115448,187.082565 
	C308.458099,177.861282 302.667633,172.934677 293.865753,172.195816 
	C284.206818,171.385010 275.974243,175.760727 271.938141,183.911545 
	C266.668213,194.554092 266.656250,206.112167 266.190521,217.577194 
	C266.062622,220.725555 266.171112,223.883530 266.171112,227.435486 
	C248.464325,227.435486 231.086166,227.435486 213.222961,227.435486 
	C212.491669,209.465286 212.886124,191.653366 218.696457,174.326813 
	C222.621658,162.621750 228.406952,152.064194 237.502319,143.570145 
	C250.634537,131.306183 266.893311,126.737946 284.216156,126.273674 
	C294.779877,125.990547 305.396637,127.686188 316.385071,128.618774 
z"/>
<path fill="#FEFEFD" opacity="1.000000" stroke="none" 
	d="
M127.829315,363.999878 
	C127.829315,304.867706 127.829315,246.235550 127.829315,187.025635 
	C113.955757,192.006958 100.459526,196.852798 86.161057,201.986679 
	C86.161057,192.661255 86.937958,183.846542 85.960686,175.230789 
	C84.789009,164.901154 87.897804,159.451065 98.095779,155.422714 
	C112.730774,149.641693 126.634277,141.811935 138.396469,130.870605 
	C139.262207,130.065292 140.758713,129.563217 141.965332,129.556870 
	C154.957748,129.488403 167.950851,129.542892 180.943665,129.592834 
	C181.406647,129.594604 181.868484,129.897675 182.574341,130.145950 
	C182.574341,225.339676 182.574341,320.558868 182.574341,416.145569 
	C164.399445,416.145569 146.337265,416.145569 127.829315,416.145569 
	C127.829315,398.770782 127.829315,381.635345 127.829315,363.999878 
z"/>
<path fill="#FEFCFA" opacity="1.000000" stroke="none" 
	d="
M826.210327,418.178406 
	C823.830017,418.185547 822.298218,418.285492 822.352661,415.362610 
	C823.006836,380.229828 823.517761,345.094391 824.082642,309.959869 
	C824.087463,309.660004 824.319214,309.363770 824.569824,308.770264 
	C831.061523,308.770264 837.680420,308.770264 844.910889,308.770264 
	C849.958130,333.153076 855.037415,357.690918 860.116760,382.228760 
	C860.427917,382.269348 860.739075,382.309967 861.050171,382.350586 
	C862.677551,374.877411 864.329712,367.409546 865.927002,359.929932 
	C869.262024,344.312836 872.724304,328.719940 875.774719,313.047119 
	C876.525452,309.189789 878.155212,308.221771 881.732727,308.408051 
	C886.683411,308.665771 891.657593,308.472748 897.091919,308.472748 
	C897.735779,345.237488 898.369812,381.440704 899.008606,417.916626 
	C893.739563,417.916626 888.982849,417.916626 883.131470,417.916626 
	C883.131470,395.198303 883.131470,372.636993 883.131470,350.075684 
	C882.478271,350.013458 881.825073,349.951233 881.171875,349.889008 
	C876.422668,372.427429 871.673401,394.965851 866.785217,418.163605 
	C863.528198,418.163605 860.189941,418.553833 857.031616,417.970428 
	C855.778625,417.738983 854.320679,415.479065 853.980286,413.919189 
	C849.512024,393.441925 845.230164,372.924042 840.890198,352.418732 
	C840.589417,350.997253 840.199951,349.594543 839.851746,348.183105 
	C839.409485,348.206512 838.967285,348.229919 838.525024,348.253326 
	C838.525024,371.375763 838.525024,394.498199 838.525024,418.179779 
	C833.916321,418.179779 830.299438,418.179779 826.210327,418.178406 
z"/>
<path fill="#FEFDFB" opacity="1.000000" stroke="none" 
	d="
M968.154846,207.999908 
	C968.154846,181.578293 968.154846,155.656677 968.154846,128.520096 
	C981.857971,129.223267 995.062256,128.885971 1007.919983,130.834915 
	C1021.865234,132.948715 1028.270142,143.176422 1027.481323,158.275177 
	C1026.987183,167.736511 1024.770630,176.167801 1014.598511,179.652298 
	C1014.685242,180.172760 1014.659119,180.629471 1014.783508,180.674988 
	C1028.259521,185.607147 1030.909302,195.724915 1030.575073,208.260300 
	C1030.408325,214.514435 1028.557129,221.125488 1025.859741,226.812500 
	C1022.167419,234.597672 1014.510437,237.697968 1006.246399,238.817963 
	C1003.129761,239.240341 999.933716,239.149277 996.773376,239.162689 
	C987.470520,239.202194 978.167297,239.176788 968.154846,239.176788 
	C968.154846,228.691498 968.154846,218.595703 968.154846,207.999908 
M988.725342,189.281174 
	C988.725342,201.003754 988.725342,212.726318 988.725342,224.743820 
	C992.487854,224.743820 995.814270,225.033112 999.073120,224.686279 
	C1006.924011,223.850708 1010.482361,219.604828 1011.093872,210.863098 
	C1012.000854,197.898758 1008.923035,190.880646 1001.002502,189.198318 
	C997.193115,188.389175 993.141235,188.721405 988.725342,189.281174 
M988.518677,156.502014 
	C988.518677,162.240585 988.518677,167.979156 988.518677,174.046417 
	C995.938232,173.743408 1003.439697,175.607651 1007.403259,168.558640 
	C1010.944275,162.261215 1011.691528,154.725098 1007.460876,148.536606 
	C1003.123779,142.192352 995.681763,144.041260 988.518616,143.643661 
	C988.518616,147.940475 988.518616,151.722610 988.518677,156.502014 
z"/>
<path fill="#FEFCFA" opacity="1.000000" stroke="none" 
	d="
M613.151123,564.999878 
	C613.151123,539.214294 613.151123,513.928711 613.151123,488.914490 
	C613.776855,488.442017 614.034485,488.077820 614.285156,488.082520 
	C626.904663,488.318542 639.624634,487.691284 652.114197,489.101471 
	C664.638977,490.515656 672.231750,498.538361 672.734192,511.137115 
	C673.555054,531.721558 673.656189,552.397827 672.674866,572.969238 
	C671.988281,587.363464 662.323975,596.077698 647.935242,596.917786 
	C636.537415,597.583191 625.069763,597.051758 613.151123,597.051758 
	C613.151123,586.406921 613.151123,575.953430 613.151123,564.999878 
M650.021606,579.464905 
	C651.009583,575.666382 652.782837,571.881775 652.850891,568.066895 
	C653.159668,550.750366 653.012817,533.425171 652.954346,516.103333 
	C652.947632,514.128784 652.532166,512.144409 652.192261,510.184418 
	C651.486023,506.112457 648.973633,503.567444 644.994141,502.909332 
	C641.463135,502.325348 637.839600,502.300598 633.938232,502.004852 
	C633.938232,529.425903 633.938232,556.096313 633.938232,582.958801 
	C639.630432,583.142090 644.990967,583.977905 650.021606,579.464905 
z"/>
<path fill="#FDFCFA" opacity="1.000000" stroke="none" 
	d="
M922.149841,572.999878 
	C922.149841,544.543640 922.149841,516.587402 922.149841,488.345306 
	C923.582520,488.138123 924.681396,487.818390 925.771423,487.846375 
	C937.570557,488.149231 949.469055,487.670898 961.139221,489.076416 
	C973.659058,490.584320 981.274902,498.562012 981.768799,511.127197 
	C982.571594,531.553284 982.691284,552.065002 981.770447,572.480652 
	C981.097717,587.395996 971.418274,596.150024 956.457642,596.968384 
	C945.216980,597.583313 933.915771,597.089966 922.149841,597.089966 
	C922.149841,589.080078 922.149841,581.289978 922.149841,572.999878 
M942.526245,570.494202 
	C942.526245,574.582397 942.526245,578.670654 942.526245,582.631592 
	C957.344238,584.524475 961.876343,580.735046 961.977661,566.965576 
	C962.085388,552.321289 962.146606,537.676331 962.119385,523.031799 
	C962.112000,519.051880 961.892212,515.052368 961.446289,511.098297 
	C960.890686,506.171692 957.879028,503.292206 953.008179,502.670685 
	C949.778381,502.258545 946.492432,502.286591 942.526184,502.080994 
	C942.526184,525.001587 942.526184,547.248230 942.526245,570.494202 
z"/>
<path fill="#FDFCFA" opacity="1.000000" stroke="none" 
	d="
M799.529602,582.985474 
	C799.529541,587.937927 799.529541,592.393799 799.529541,597.184204 
	C792.588135,597.184204 786.193909,597.184204 779.473511,597.184204 
	C779.473511,560.775513 779.473511,524.591553 779.473511,487.215942 
	C793.146729,487.874908 806.656128,487.620758 819.883240,489.430267 
	C831.959412,491.082245 838.499695,499.849365 839.089294,512.164551 
	C839.654663,523.974976 839.794800,535.739929 827.720947,543.087219 
	C826.947449,543.557922 827.140015,546.388611 827.564087,547.934570 
	C831.521240,562.360046 835.634094,576.742798 839.682556,591.143372 
	C840.208069,593.012756 840.624207,594.913025 841.261047,597.485352 
	C834.742249,597.485352 828.796692,597.676636 822.886475,597.304810 
	C821.851562,597.239685 820.489502,594.938660 820.085022,593.451050 
	C816.465393,580.137207 813.038452,566.770996 809.529541,553.426941 
	C807.759888,546.697266 807.654297,546.657532 799.529663,548.310669 
	C799.529663,559.610413 799.529663,571.049622 799.529602,582.985474 
M799.526245,523.494263 
	C799.526245,526.941467 799.526245,530.388672 799.526245,534.242188 
	C806.650391,534.465027 813.786133,535.493958 817.623474,528.968384 
	C821.789246,521.884277 821.876282,513.605530 817.570496,506.561798 
	C813.518311,499.932953 806.280029,502.011047 800.014160,502.025299 
	C799.794128,503.062256 799.606750,503.541412 799.603516,504.021851 
	C799.562378,510.179077 799.547607,516.336426 799.526245,523.494263 
z"/>
<path fill="#FDFBF9" opacity="1.000000" stroke="none" 
	d="
M1181.796509,418.179199 
	C1180.044800,416.759460 1178.162354,415.574066 1177.448608,413.892639 
	C1170.173950,396.752411 1163.093994,379.529510 1155.944824,362.335846 
	C1155.268311,360.708679 1154.491455,359.123199 1152.812500,357.643982 
	C1152.812500,377.608887 1152.812500,397.573792 1152.812500,417.858582 
	C1146.750854,417.858582 1141.322632,417.858582 1135.518311,417.858582 
	C1135.518311,381.632843 1135.518311,345.432678 1135.518311,308.498932 
	C1139.435303,308.498932 1143.429077,308.144836 1147.297363,308.686829 
	C1148.691650,308.882172 1150.239990,311.029419 1150.944092,312.626953 
	C1158.051392,328.753296 1164.990845,344.953491 1171.999390,361.123505 
	C1172.747559,362.849365 1173.633911,364.515289 1174.456177,366.209045 
	C1174.876709,366.106445 1175.297241,366.003876 1175.717773,365.901306 
	C1175.717773,346.899750 1175.717773,327.898224 1175.717773,309.272003 
	C1176.553223,308.834442 1176.687866,308.709961 1176.833862,308.695068 
	C1192.535645,307.089874 1192.535645,307.090363 1192.535645,322.775726 
	C1192.535645,352.424377 1192.535645,382.073029 1192.535645,411.721680 
	C1192.535645,413.683105 1192.535645,415.644501 1192.535645,418.183319 
	C1188.786255,418.183319 1185.497314,418.183319 1181.796509,418.179199 
z"/>
<path fill="#FEFDFB" opacity="1.000000" stroke="none" 
	d="
M477.153107,141.028900 
	C477.153107,137.047516 477.153107,133.560150 477.153107,129.973862 
	C477.951813,129.663223 478.546539,129.223755 479.132843,129.234680 
	C490.438416,129.444748 501.782471,129.202667 513.038208,130.082443 
	C528.477783,131.289230 536.607483,139.811218 537.354248,155.170090 
	C537.625000,160.739212 537.166809,166.586914 535.662109,171.918274 
	C534.561890,175.816559 531.904724,180.052261 528.673401,182.367661 
	C524.970276,185.021103 524.833008,187.160004 525.947205,190.933441 
	C530.135437,205.117615 534.039978,219.385651 538.035156,233.626633 
	C538.477783,235.204620 538.819885,236.810822 539.311279,238.824860 
	C532.546997,238.824860 526.147217,238.824860 519.189148,238.824860 
	C515.828247,226.049316 512.416687,213.085617 509.009125,200.120865 
	C508.628967,198.674484 508.278870,197.220245 507.903290,195.772629 
	C506.083160,188.757416 506.081757,188.757782 497.770874,189.572968 
	C497.770874,205.829437 497.770874,222.186630 497.770874,238.854355 
	C490.627472,238.854355 484.229950,238.854355 477.153107,238.854355 
	C477.153107,206.325699 477.153107,173.924316 477.153107,141.028900 
M512.330566,174.064636 
	C518.239685,169.728821 520.397339,158.988770 517.071045,150.468750 
	C514.736267,144.488403 508.530640,142.217361 497.839294,143.607178 
	C497.839294,154.260284 497.839294,164.961716 497.839294,176.777679 
	C502.685913,175.947281 507.159180,175.180847 512.330566,174.064636 
z"/>
<path fill="#FEFDFB" opacity="1.000000" stroke="none" 
	d="
M857.511108,493.494934 
	C866.643372,484.271423 890.257507,484.990875 898.949280,490.625854 
	C906.582153,495.574310 910.574280,503.010559 910.896484,511.527588 
	C911.638367,531.134949 912.407532,550.840088 911.263916,570.394348 
	C909.911560,593.518188 895.349548,600.818665 873.966309,598.455505 
	C859.606018,596.868469 851.081238,590.210632 850.128357,575.899597 
	C848.631531,553.419495 849.379944,530.746399 850.182922,508.190857 
	C850.357117,503.296051 854.783691,498.552673 857.511108,493.494934 
M886.205505,502.816162 
	C875.623779,499.100586 869.649719,503.020111 869.053955,514.079285 
	C869.000305,515.075867 869.009277,516.076477 869.009094,517.075256 
	C869.006653,534.058105 868.969360,551.041138 869.046997,568.023621 
	C869.059021,570.659485 869.357178,573.348511 869.946045,575.915955 
	C871.171448,581.259033 874.471191,583.735168 879.930664,583.817627 
	C886.950317,583.923584 890.999023,579.749939 891.072266,571.439697 
	C891.242493,552.127747 891.329041,532.809082 890.934570,513.503601 
	C890.864014,510.050476 888.321228,506.647827 886.205505,502.816162 
z"/>
<path fill="#FEFDFB" opacity="1.000000" stroke="none" 
	d="
M1086.739868,419.275391 
	C1072.039185,417.290985 1063.150024,409.065155 1062.347534,393.638611 
	C1061.294556,373.398315 1061.343994,353.026703 1062.319946,332.779053 
	C1063.056030,317.507080 1071.825806,309.431427 1087.153442,307.716705 
	C1092.677979,307.098633 1098.515015,307.387451 1103.974609,308.459015 
	C1116.216064,310.861633 1121.996094,319.665039 1123.861938,331.251251 
	C1124.755737,336.802032 1124.907227,342.510376 1124.957520,348.151276 
	C1125.073242,361.136047 1125.253296,374.134674 1124.806030,387.106964 
	C1123.971558,411.312256 1111.315186,421.977844 1086.739868,419.275391 
M1103.308594,397.320007 
	C1103.589722,395.354584 1104.108398,393.389923 1104.114990,391.423553 
	C1104.177002,372.604370 1104.242920,353.784271 1104.117188,334.965729 
	C1104.049072,324.781250 1097.946045,320.044861 1089.039795,322.844513 
	C1083.005249,324.741486 1082.214111,329.908020 1082.151001,334.880768 
	C1081.912109,353.696655 1082.029907,372.517273 1082.065552,391.336029 
	C1082.068359,392.815979 1082.440552,394.299225 1082.683350,395.773987 
	C1083.508911,400.788513 1086.197632,403.864716 1091.468506,404.461670 
	C1097.118530,405.101501 1100.477539,403.332458 1103.308594,397.320007 
z"/>
<path fill="#FEFDFB" opacity="1.000000" stroke="none" 
	d="
M1222.479980,500.572327 
	C1226.914795,491.934723 1234.003174,487.936584 1243.018555,486.923645 
	C1245.164062,486.682617 1247.328979,486.504669 1249.486084,486.493561 
	C1269.701050,486.389374 1279.870361,494.190887 1281.340454,514.199951 
	C1282.726929,533.072937 1282.685059,552.208069 1281.314209,571.085693 
	C1279.686890,593.493958 1265.795288,600.460693 1244.876343,598.577209 
	C1229.811035,597.220764 1220.908569,589.828308 1219.804443,574.249207 
	C1218.303955,553.073486 1219.303101,531.710815 1219.545776,510.431885 
	C1219.582031,507.244110 1221.336792,504.075958 1222.479980,500.572327 
M1239.007690,536.500000 
	C1239.199219,548.966187 1238.961792,561.459473 1239.745972,573.888306 
	C1240.203613,581.139893 1244.461426,584.168396 1250.933594,583.807251 
	C1257.140991,583.460876 1260.856323,580.137878 1260.962646,573.057800 
	C1261.269653,552.605469 1261.297485,532.141724 1260.953613,511.690521 
	C1260.827759,504.202026 1256.482544,501.063416 1249.069702,501.552368 
	C1242.761230,501.968475 1239.741821,505.143188 1239.279053,513.043274 
	C1238.841797,520.508484 1239.071411,528.012878 1239.007690,536.500000 
z"/>
<path fill="#FEFDFB" opacity="1.000000" stroke="none" 
	d="
M584.833374,418.969391 
	C579.774414,419.150391 575.077759,419.817230 570.512817,419.306702 
	C555.237915,417.598480 546.062256,409.323547 545.301208,393.932709 
	C544.284058,373.362640 544.106812,352.645386 545.359741,332.100586 
	C546.448547,314.246185 560.435486,305.216797 580.185364,307.296021 
	C596.990723,309.065277 605.957397,316.667755 606.875000,333.419128 
	C607.982910,353.643463 607.751282,374.010681 606.794800,394.254425 
	C606.145142,408.002716 598.440430,415.541443 584.833374,418.969391 
M565.006409,341.560791 
	C565.006470,357.532990 564.976990,373.505280 565.039429,389.477234 
	C565.048401,391.780975 565.273621,394.135315 565.791199,396.375580 
	C567.117859,402.117584 570.221375,404.514923 575.989563,404.598846 
	C581.576355,404.680176 585.071533,402.132111 586.381958,396.550659 
	C586.981750,393.996124 587.115234,391.286804 587.124939,388.646423 
	C587.187256,371.676239 587.180725,354.705627 587.130310,337.735352 
	C587.122925,335.253876 587.045166,332.709686 586.505737,330.305420 
	C585.253296,324.723267 581.887817,322.226624 576.143127,322.182465 
	C570.361511,322.138062 566.978394,324.511322 565.799744,330.191467 
	C565.099670,333.565399 565.242554,337.114227 565.006409,341.560791 
z"/>
<path fill="#FEFDFB" opacity="1.000000" stroke="none" 
	d="
M734.198547,140.258545 
	C742.289001,127.953049 754.428894,127.149742 766.818359,128.410034 
	C782.009094,129.955276 791.024719,138.652359 791.753906,154.108902 
	C792.694031,174.037704 792.730347,194.080139 791.761475,214.005829 
	C790.968933,230.305588 781.397339,238.895340 765.147827,240.254822 
	C760.711182,240.626022 756.117859,240.449036 751.723450,239.738251 
	C740.944946,237.994919 734.218018,231.382431 731.249817,221.009094 
	C730.293823,217.668030 729.420837,214.151749 729.417542,210.714767 
	C729.399353,191.741531 729.411316,172.760056 730.013428,153.800476 
	C730.154602,149.353485 732.616760,144.980194 734.198547,140.258545 
M771.395569,151.583755 
	C770.465210,146.828400 767.798096,143.862015 762.849365,143.146912 
	C755.066528,142.022293 750.256714,145.966736 750.012146,154.523376 
	C749.684021,166.004272 749.853760,177.500031 749.852051,188.989410 
	C749.850830,197.314575 749.690430,205.648819 750.021118,213.962296 
	C750.333130,221.807297 754.082581,225.458832 760.940186,225.429657 
	C767.543152,225.401566 771.614197,221.946289 771.724426,214.319138 
	C772.022522,193.684906 771.698853,173.041672 771.395569,151.583755 
z"/>
<path fill="#FDFCFA" opacity="1.000000" stroke="none" 
	d="
M1309.529541,586.928101 
	C1309.529541,590.543579 1309.529541,593.672119 1309.529541,597.162048 
	C1303.636841,597.162048 1298.243896,597.162048 1292.498169,597.162048 
	C1292.498169,560.809631 1292.498169,524.627075 1292.498169,487.845276 
	C1296.616943,487.845276 1300.609253,487.494690 1304.478149,488.032837 
	C1305.857422,488.224640 1307.384766,490.373657 1308.084595,491.963776 
	C1315.517578,508.850433 1322.792725,525.806580 1330.127197,542.736694 
	C1330.754028,544.183533 1331.494629,545.581177 1332.891357,546.819214 
	C1332.891357,527.430969 1332.891357,508.042725 1332.891357,488.237762 
	C1338.573120,488.237762 1343.920898,488.237762 1349.562744,488.237762 
	C1349.562744,524.477722 1349.562744,560.555542 1349.562744,597.461121 
	C1345.651855,597.461121 1341.696899,597.773987 1337.846069,597.277771 
	C1336.630005,597.121033 1335.321289,594.955750 1334.685059,593.444397 
	C1327.332153,575.979858 1320.104248,558.462708 1312.829224,540.965393 
	C1312.206299,539.467285 1311.483154,538.010925 1309.529663,536.616821 
	C1309.529663,553.224915 1309.529663,569.833069 1309.529541,586.928101 
z"/>
<path fill="#FEFDFB" opacity="1.000000" stroke="none" 
	d="
M659.083130,309.537720 
	C664.354370,308.818146 669.458313,308.526978 675.053711,308.207764 
	C675.053711,344.969910 675.053711,381.166046 675.053711,418.154510 
	C671.401428,418.154510 667.599365,418.523895 663.939087,417.964813 
	C662.559082,417.754028 661.053223,415.586304 660.375732,413.984589 
	C652.861145,396.219116 645.500610,378.388519 638.089294,360.579315 
	C637.482300,359.120667 636.808899,357.689606 635.253906,356.441833 
	C635.253906,376.787537 635.253906,397.133209 635.253906,417.825745 
	C629.392700,417.825745 624.001038,417.825745 618.297729,417.825745 
	C618.297729,381.533508 618.297729,345.305847 618.297729,308.511658 
	C622.351990,308.511658 626.360535,308.157440 630.243469,308.700592 
	C631.634094,308.895081 633.172668,311.058075 633.877930,312.659821 
	C641.314819,329.548309 648.592590,346.506805 655.929260,363.439484 
	C656.488831,364.730927 657.162292,365.972961 658.915833,367.061432 
	C658.915833,348.029663 658.915833,328.997864 659.083130,309.537720 
z"/>
<path fill="#FEFEFC" opacity="1.000000" stroke="none" 
	d="
M601.002808,491.183838 
	C601.004761,526.771179 601.004761,561.873291 601.004761,597.501526 
	C597.048157,597.501526 593.506592,597.927673 590.155090,597.314575 
	C588.574585,597.025391 586.775330,594.989929 586.067566,593.324219 
	C578.590454,575.725647 571.318909,558.039795 563.972229,540.385742 
	C563.307922,538.789246 562.514160,537.246704 560.973755,535.877686 
	C560.973755,556.098877 560.973755,576.320068 560.973755,597.027344 
	C555.226257,597.027344 549.867004,597.027344 544.160217,597.027344 
	C544.160217,560.826233 544.160217,524.624573 544.160217,487.840271 
	C548.090027,487.840271 551.918945,487.493347 555.625183,488.016174 
	C557.047729,488.216797 558.702148,490.175385 559.382080,491.716309 
	C566.900879,508.756104 574.246826,525.872131 581.646912,542.964355 
	C582.101562,544.014465 582.617554,545.038025 583.843506,546.037903 
	C583.843506,526.938538 583.843506,507.839172 583.843506,487.869568 
	C589.326355,487.869568 594.235229,487.762604 599.127930,487.995056 
	C599.793579,488.026672 600.378479,489.755615 601.002808,491.183838 
z"/>
<path fill="#FEFEFC" opacity="1.000000" stroke="none" 
	d="
M820.005493,228.968353 
	C820.005493,232.440994 820.005493,235.419434 820.005493,238.784302 
	C814.347229,238.784302 808.975464,238.784302 803.294556,238.784302 
	C803.294556,202.499329 803.294556,166.253220 803.294556,129.198486 
	C807.290344,129.198486 811.394043,128.951035 815.430420,129.362793 
	C816.514771,129.473404 817.721497,131.447083 818.318420,132.808273 
	C825.663635,149.557098 832.901917,166.352737 840.181763,183.130264 
	C840.821899,184.605515 841.559998,186.038300 843.332642,187.394318 
	C843.332642,168.133133 843.332642,148.871948 843.332642,129.393982 
	C849.250671,129.393982 854.341492,129.393982 859.803162,129.393982 
	C859.803162,165.827820 859.803162,202.057785 859.803162,239.120438 
	C856.067505,239.120438 852.119507,239.440796 848.281799,238.930969 
	C847.084717,238.771957 845.848755,236.511261 845.201355,234.972519 
	C837.465332,216.583282 829.838257,198.148163 822.176636,179.727570 
	C821.800781,178.823944 821.368774,177.943680 820.005493,177.096695 
	C820.005493,194.222519 820.005493,211.348343 820.005493,228.968353 
z"/>
<path fill="#FEFCFA" opacity="1.000000" stroke="none" 
	d="
M1011.848877,498.044006 
	C1011.896423,521.518005 1011.904907,544.499939 1012.042175,567.481079 
	C1012.058899,570.277893 1012.528442,573.130493 1013.208984,575.851990 
	C1014.404480,580.632996 1018.280457,583.598938 1022.956909,583.728027 
	C1027.667969,583.857971 1031.737671,581.181458 1032.850342,576.250244 
	C1033.865356,571.752441 1034.372437,567.051392 1034.403320,562.435242 
	C1034.554565,539.786377 1034.472168,517.135864 1034.472168,494.485962 
	C1034.472168,492.512817 1034.472168,490.539642 1034.472168,488.194855 
	C1041.108032,488.194855 1047.300903,488.194855 1053.806152,488.194855 
	C1053.879639,489.292023 1053.999634,490.251617 1054.000000,491.211243 
	C1054.009766,516.026245 1054.061768,540.841431 1053.948853,565.655945 
	C1053.931641,569.457275 1053.458130,573.322388 1052.659668,577.042908 
	C1049.127441,593.501587 1036.880859,601.029541 1017.827209,598.667480 
	C1002.482239,596.765198 994.558289,588.956604 993.065918,573.458313 
	C992.302185,565.526733 992.234009,557.510681 992.189148,549.530884 
	C992.075012,529.238586 992.151123,508.945282 992.151123,488.237000 
	C998.722107,488.237000 1004.933411,488.237000 1011.848877,488.237000 
	C1011.848877,491.341064 1011.848877,494.446381 1011.848877,498.044006 
z"/>
<path fill="#FEFDFB" opacity="1.000000" stroke="none" 
	d="
M791.822388,319.038910 
	C791.822388,315.401154 791.822388,312.256744 791.822388,308.796387 
	C798.338684,308.796387 804.427368,308.796387 810.872009,308.796387 
	C810.980591,310.389496 811.163452,311.831970 811.164490,313.274567 
	C811.182129,337.267670 811.351074,361.262909 811.052734,385.252289 
	C810.979309,391.156311 809.997009,397.226196 808.332886,402.897125 
	C804.650879,415.444275 794.462891,418.924866 782.775146,419.783356 
	C762.902649,421.243011 750.717529,411.414185 750.096619,391.512939 
	C749.255310,364.550598 749.663818,337.549225 749.555786,310.564514 
	C749.553955,310.098663 749.798279,309.631866 750.020569,308.831268 
	C756.221375,308.831268 762.442078,308.831268 769.008789,308.831268 
	C769.008789,314.593201 769.008789,320.076233 769.008789,325.559296 
	C769.008850,344.887054 768.930786,364.215393 769.069458,383.542175 
	C769.100342,387.839783 769.542786,392.205902 770.426392,396.407898 
	C771.537170,401.689819 775.318359,404.412354 780.428711,404.443359 
	C785.393250,404.473480 788.930542,402.097534 790.150085,396.834595 
	C791.191528,392.339905 791.715759,387.632416 791.751099,383.013550 
	C791.912903,361.854187 791.822327,340.692841 791.822388,319.038910 
z"/>
<path fill="#FEFDFB" opacity="1.000000" stroke="none" 
	d="
M1063.476562,562.735168 
	C1063.607910,546.773987 1063.227539,531.261353 1063.988647,515.804993 
	C1065.227173,490.655731 1090.031494,477.660706 1112.273315,490.070587 
	C1117.347168,492.901611 1121.076416,497.159790 1122.176147,502.669250 
	C1123.780151,510.703857 1124.340698,518.946777 1125.401245,527.549805 
	C1117.852295,527.549805 1111.778931,527.549805 1104.883789,527.549805 
	C1104.883789,522.036682 1105.134155,516.596558 1104.822266,511.188965 
	C1104.406128,503.977173 1100.834961,501.144135 1093.728760,501.525513 
	C1089.084717,501.774780 1086.211792,504.214966 1085.105591,508.481720 
	C1084.362915,511.345886 1084.072754,514.397522 1084.055542,517.368042 
	C1083.959961,533.860779 1083.968750,550.354553 1084.049194,566.847473 
	C1084.062866,569.655823 1084.382080,572.504578 1084.934082,575.259827 
	C1086.143066,581.295044 1089.608398,584.033325 1095.321899,583.812012 
	C1100.833496,583.598572 1104.303711,580.398987 1104.736084,574.179321 
	C1105.137329,568.409180 1104.821655,562.589172 1104.821655,556.476929 
	C1111.501587,556.476929 1117.592163,556.476929 1124.200317,556.476929 
	C1124.814453,566.922913 1125.322021,577.311157 1120.065796,586.990173 
	C1116.631348,593.314514 1111.011841,596.996338 1104.143066,597.820190 
	C1097.948975,598.562927 1091.461304,598.784302 1085.338501,597.788513 
	C1073.087891,595.796082 1065.673340,586.340820 1064.086182,572.176208 
	C1063.752930,569.201721 1063.673584,566.198792 1063.476562,562.735168 
z"/>
<path fill="#FEFDFB" opacity="1.000000" stroke="none" 
	d="
M515.640198,326.729065 
	C512.608398,322.108124 508.485199,321.694244 503.963654,322.592102 
	C499.344482,323.509399 497.406372,326.864288 496.724884,331.076416 
	C496.275452,333.854187 496.051300,336.697235 496.039948,339.512299 
	C495.976807,355.165558 495.962372,370.819489 496.049347,386.472504 
	C496.066803,389.614014 496.341522,392.801941 496.940063,395.882477 
	C498.191193,402.321533 501.613281,404.949982 507.655609,404.544037 
	C513.188110,404.172302 516.467590,400.959503 516.837585,394.725250 
	C517.171265,389.102997 516.908020,383.445282 516.908020,377.399353 
	C523.664124,377.399353 529.882568,377.399353 536.703918,377.399353 
	C536.797485,387.917236 537.483459,398.607391 531.838806,408.225220 
	C525.771240,418.563568 515.398315,420.188995 504.835724,419.690704 
	C486.556030,418.828430 476.678894,409.011169 476.057556,390.592255 
	C475.446350,372.475189 475.324188,354.295441 476.085876,336.189392 
	C477.142944,311.061371 504.130951,297.925049 525.492249,311.624390 
	C531.710571,315.612305 534.656921,321.740326 535.719849,328.641418 
	C536.675659,334.846710 536.715515,341.193115 537.197693,348.019958 
	C530.261963,348.019958 523.932007,348.019958 517.763000,348.019958 
	C517.107849,340.899811 516.472229,333.991211 515.640198,326.729065 
z"/>
<path fill="#FEFDFB" opacity="1.000000" stroke="none" 
	d="
M515.934448,583.237305 
	C515.231628,579.380127 514.586121,575.951965 513.894409,572.278442 
	C507.728058,572.278442 501.647034,572.278442 495.296112,572.278442 
	C493.785431,580.568970 492.303223,588.703369 490.762207,597.160400 
	C484.559845,597.160400 478.493530,597.160400 471.680725,597.160400 
	C479.085907,560.697449 486.445312,524.459961 493.837006,488.063385 
	C500.981110,488.063385 507.755524,488.063385 515.091431,488.063385 
	C522.438660,524.295471 529.787415,560.534607 537.221863,597.196838 
	C530.760315,597.196838 524.858093,597.196838 518.430847,597.196838 
	C517.619934,592.698486 516.805786,588.182312 515.934448,583.237305 
M506.227539,525.240540 
	C505.774506,522.613647 505.321503,519.986816 504.868469,517.359924 
	C504.618958,517.385986 504.369415,517.411987 504.119904,517.437988 
	C501.929962,531.001892 499.740021,544.565796 497.497589,558.454834 
	C502.516998,558.454834 506.863464,558.454834 511.669250,558.454834 
	C509.860687,547.359253 508.125885,536.716431 506.227539,525.240540 
z"/>
<path fill="#FEFDFB" opacity="1.000000" stroke="none" 
	d="
M691.548584,409.387054 
	C686.686035,402.252502 685.070007,394.587555 684.940918,385.993896 
	C690.573181,384.812469 696.035889,383.666626 701.967163,382.422485 
	C702.655945,386.318573 702.963257,389.938538 704.000366,393.335724 
	C704.849426,396.117035 706.170105,398.958954 707.996948,401.187805 
	C710.550171,404.303040 714.689392,405.260071 717.944336,403.326355 
	C720.390686,401.873047 722.669312,398.571777 723.188660,395.755035 
	C724.402283,389.172577 722.001770,383.190308 717.106812,378.598907 
	C710.677673,372.568573 704.006775,366.794098 697.388062,360.968384 
	C689.811218,354.299286 685.248474,346.370514 684.903809,335.905426 
	C684.199219,314.511169 699.434875,305.468811 717.586975,307.453064 
	C732.629272,309.097321 740.682129,319.661896 740.698975,337.119812 
	C735.350342,338.176727 729.904724,339.252838 724.197998,340.380524 
	C723.404236,336.336700 722.972351,332.720703 721.953918,329.278259 
	C720.405334,324.043579 716.889465,321.965546 711.765442,322.732452 
	C706.972290,323.449921 704.356812,326.472900 703.924500,331.572266 
	C703.343811,338.420197 706.792419,343.275146 711.539917,347.585144 
	C718.801941,354.177856 726.314087,360.533173 733.156494,367.539612 
	C740.192932,374.744720 743.335205,383.815552 742.953796,393.946442 
	C742.432617,407.793427 733.840332,417.495392 720.116455,419.289917 
	C709.207947,420.716278 699.196777,418.831299 691.548584,409.387054 
z"/>
<path fill="#FEFDFB" opacity="1.000000" stroke="none" 
	d="
M891.662231,145.661011 
	C887.713440,151.323242 887.489563,157.944656 891.666565,163.044159 
	C895.009766,167.125717 899.173035,170.540070 903.008240,174.213104 
	C908.289795,179.271393 914.052002,183.908752 918.807617,189.417603 
	C927.174133,199.109146 929.899597,210.445908 926.244202,222.963898 
	C924.321716,229.547516 920.193115,234.604736 914.029358,237.388504 
	C903.195312,242.281586 892.106384,242.239899 882.081665,235.614410 
	C872.057556,228.989258 870.115234,218.316010 869.805237,206.792389 
	C875.476746,205.603653 880.827637,204.482132 886.885193,203.212479 
	C887.245850,205.708237 887.296875,208.178772 887.999695,210.447388 
	C889.161560,214.197510 890.212341,218.158676 892.293396,221.399414 
	C894.525879,224.875900 898.470825,225.740829 902.546448,224.471161 
	C906.421997,223.263824 907.855774,220.240051 908.191711,216.471191 
	C908.792419,209.732407 906.644104,203.886185 901.807983,199.315552 
	C895.037415,192.916763 888.029480,186.761902 880.986023,180.660919 
	C871.219971,172.201691 868.372925,161.355331 870.171509,149.094437 
	C872.337891,134.327072 886.622009,125.595284 903.561951,128.329758 
	C915.541504,130.263535 922.474976,137.356598 924.853943,150.204224 
	C925.276367,152.485275 925.466919,154.809265 925.852112,157.791824 
	C920.232849,158.950439 914.658691,160.099762 908.955444,161.275696 
	C907.168335,154.879913 908.897095,147.193329 901.764282,144.296829 
	C899.084351,143.208557 895.257446,144.944519 891.662231,145.661011 
z"/>
<path fill="#FEFDFB" opacity="1.000000" stroke="none" 
	d="
M632.647705,200.434021 
	C625.216187,193.733826 618.039856,187.283829 610.812256,180.891922 
	C600.231873,171.534912 597.361511,159.722641 600.517029,146.450516 
	C603.686951,133.117813 617.657593,125.720634 633.481445,128.377167 
	C647.454590,130.722992 655.298401,141.285660 654.993225,157.952072 
	C649.664917,159.033524 644.208069,160.141068 638.551697,161.289108 
	C637.945251,157.626312 637.599487,154.337738 636.829712,151.151566 
	C635.454163,145.458084 631.400513,142.579239 626.401978,143.436249 
	C620.821167,144.393082 617.099854,148.847961 618.487244,154.649643 
	C619.515198,158.948395 621.628967,163.544189 624.632874,166.700012 
	C631.268494,173.671280 639.027405,179.559875 645.859192,186.361099 
	C655.918518,196.375381 659.715820,208.553940 656.040161,222.463043 
	C653.795166,230.957932 647.978882,236.473755 639.601929,239.098770 
	C619.479492,245.404327 602.676880,234.749069 599.946960,214.016342 
	C599.666870,211.888885 599.465027,209.751099 599.153442,206.960754 
	C604.882019,205.709015 610.487305,204.484207 616.493408,203.171844 
	C617.000671,206.414001 617.198486,209.525406 618.026917,212.458725 
	C618.871948,215.450851 619.929443,218.538818 621.629456,221.095779 
	C623.953247,224.590729 627.724609,225.716873 631.790649,224.615097 
	C636.074707,223.454224 637.716431,220.135483 637.988403,215.948288 
	C638.364014,210.166428 636.409912,205.176941 632.647705,200.434021 
z"/>
<path fill="#FEFEFC" opacity="1.000000" stroke="none" 
	d="
M968.950195,324.096680 
	C969.350952,331.681458 970.589722,339.335724 969.968018,346.835754 
	C968.866821,360.119965 959.973999,368.065796 946.583679,369.048004 
	C941.612671,369.412598 936.622620,369.518921 931.093140,369.767670 
	C931.093140,385.785217 931.093140,401.693848 931.093140,417.882996 
	C924.149353,417.882996 917.761658,417.882996 911.100159,417.882996 
	C911.100159,381.526215 911.100159,345.433563 911.100159,308.880920 
	C912.542236,308.747559 913.961792,308.507599 915.382080,308.502594 
	C924.713684,308.469574 934.046448,308.402130 943.376953,308.510132 
	C954.784851,308.642181 963.822937,312.749298 968.705078,324.076843 
	C969.032959,324.143707 968.950195,324.096680 968.950195,324.096680 
M951.464355,334.292633 
	C950.018433,323.948975 943.126343,320.322418 931.390869,323.625214 
	C931.390869,334.048096 931.390869,344.430817 931.390869,354.776947 
	C949.040894,355.859924 952.912048,352.000275 951.464355,334.292633 
z"/>
<path fill="#FEFEFD" opacity="1.000000" stroke="none" 
	d="
M685.003540,204.010437 
	C685.003540,215.806198 685.003540,227.104370 685.003540,238.785385 
	C678.334045,238.785385 671.953857,238.785385 665.198608,238.785385 
	C665.198608,202.473068 665.198608,166.135910 665.198608,128.698502 
	C678.743591,129.215805 692.204529,129.072815 705.503540,130.470917 
	C714.235229,131.388855 720.714111,137.465347 722.341736,146.137955 
	C723.844788,154.146240 724.436218,162.719177 723.290161,170.737701 
	C721.621216,182.415054 712.526794,189.123367 699.902527,189.947266 
	C695.138000,190.258224 690.336121,189.997711 685.003540,189.997711 
	C685.003540,194.955917 685.003540,199.234390 685.003540,204.010437 
M685.001831,152.550446 
	C685.001831,160.308411 685.001831,168.066360 685.001831,176.112686 
	C692.193665,175.472778 700.161804,178.064697 703.605896,170.485001 
	C706.955811,163.112259 707.467529,154.462128 702.758301,147.469086 
	C698.596436,141.288834 691.337891,144.503983 685.001831,143.783798 
	C685.001831,146.940018 685.001831,149.254532 685.001831,152.550446 
z"/>
<path fill="#FEFEFD" opacity="1.000000" stroke="none" 
	d="
M712.995300,573.000000 
	C712.995300,544.541077 712.995300,516.582092 712.995300,487.827789 
	C716.663818,487.827789 720.077515,487.827759 723.491272,487.827789 
	C730.485596,487.827820 737.479858,487.821991 744.474182,487.828949 
	C761.757141,487.846191 770.165222,495.140564 772.434631,512.366760 
	C772.909424,515.970947 773.016052,519.701965 772.688721,523.319946 
	C771.198730,539.790955 762.046082,548.042969 745.011597,548.494568 
	C741.240723,548.594604 737.464966,548.509216 733.174255,548.509216 
	C733.174255,565.150818 733.174255,581.059753 733.174255,597.211609 
	C726.212646,597.211609 719.795593,597.211609 712.995300,597.211609 
	C712.995300,589.109070 712.995300,581.304565 712.995300,573.000000 
M753.849121,520.210205 
	C753.861755,503.858582 750.367065,500.590240 734.496582,502.134399 
	C734.204468,502.162842 733.933777,502.411835 733.463135,502.656799 
	C733.463135,512.940857 733.463135,523.307312 733.463135,533.619629 
	C747.541748,535.933655 752.288025,532.959717 753.849121,520.210205 
z"/>
<path fill="#FDFBF7" opacity="1.000000" stroke="none" 
	d="
M568.541138,160.996353 
	C568.541077,165.792786 568.541077,170.090546 568.541077,174.826904 
	C575.445557,174.826904 581.877502,174.826904 588.660278,174.826904 
	C588.660278,179.666565 588.660278,184.071686 588.660278,188.995667 
	C582.342102,188.995667 575.931885,188.995667 569.033691,188.995667 
	C569.033691,201.174194 569.033691,212.849548 569.033691,224.972961 
	C577.372253,224.972961 585.645081,224.972961 594.384949,224.972961 
	C594.384949,229.770355 594.384949,234.153015 594.384949,238.867462 
	C579.299011,238.867462 564.084229,238.867462 548.733276,238.867462 
	C548.733276,202.318130 548.733276,166.073456 548.733276,129.485870 
	C563.903320,129.485870 578.804382,129.485870 594.124512,129.485870 
	C594.124512,134.016907 594.124512,138.577026 594.124512,143.707581 
	C585.805664,143.707581 577.577454,143.707581 568.541199,143.707581 
	C568.541199,149.669525 568.541199,155.083603 568.541138,160.996353 
z"/>
<path fill="#FEFEFD" opacity="1.000000" stroke="none" 
	d="
M1112.000244,239.172226 
	C1105.200928,239.172226 1098.901489,239.172226 1092.301025,239.172226 
	C1092.301025,202.497742 1092.301025,166.238617 1092.301025,129.569092 
	C1107.288818,129.569092 1122.337036,129.569092 1137.780396,129.569092 
	C1137.780396,134.105225 1137.780396,138.650299 1137.780396,143.706818 
	C1129.432983,143.706818 1121.165649,143.706818 1112.540771,143.706818 
	C1112.540771,154.262360 1112.540771,164.318604 1112.540771,174.960907 
	C1119.190796,174.960907 1125.757446,174.960907 1132.571411,174.960907 
	C1132.571411,179.799026 1132.571411,184.059692 1132.571411,188.991425 
	C1125.972778,188.991425 1119.419189,188.991425 1112.529907,188.991425 
	C1112.529907,201.219940 1112.529907,212.786438 1112.529907,224.929108 
	C1120.943970,224.929108 1129.353638,224.929108 1138.133545,224.929108 
	C1138.133545,229.900177 1138.133545,234.303177 1138.133545,239.172226 
	C1129.445435,239.172226 1120.972778,239.172226 1112.000244,239.172226 
z"/>
<path fill="#FEFDFB" opacity="1.000000" stroke="none" 
	d="
M969.054565,324.186127 
	C969.076233,319.255157 969.076233,314.281738 969.076233,308.893768 
	C988.026306,308.893768 1006.581360,308.893768 1025.492676,308.893768 
	C1025.492676,313.565552 1025.492676,318.137177 1025.492676,323.291840 
	C1019.941833,323.291840 1014.348022,323.291840 1008.187622,323.291840 
	C1008.187622,355.076538 1008.187622,386.294220 1008.187622,417.842407 
	C1001.235779,417.842407 994.849792,417.842407 987.951233,417.842407 
	C987.951233,386.646332 987.951233,355.575348 987.951233,323.597168 
	C981.573669,323.597168 975.674866,323.597168 969.363159,323.846924 
	C968.950195,324.096680 969.032959,324.143707 969.054565,324.186127 
z"/>
<path fill="#FEFEFD" opacity="1.000000" stroke="none" 
	d="
M1165.004639,553.000000 
	C1165.004639,567.970703 1165.004639,582.441406 1165.004639,597.212036 
	C1158.200562,597.212036 1151.781250,597.212036 1144.917114,597.212036 
	C1144.917114,565.866638 1144.917114,534.775940 1144.917114,503.104095 
	C1138.764038,503.104095 1133.030273,503.104095 1126.893555,503.104095 
	C1126.893555,497.802368 1126.893555,493.076813 1126.893555,488.116333 
	C1145.461426,488.116333 1163.864258,488.116333 1182.553467,488.116333 
	C1182.553467,492.979889 1182.553467,497.556702 1182.553467,502.674622 
	C1176.798950,502.674622 1171.221313,502.674622 1165.004639,502.674622 
	C1165.004639,519.637573 1165.004639,536.068787 1165.004639,553.000000 
z"/>
<path fill="#FDFBF9" opacity="1.000000" stroke="none" 
	d="
M1039.145752,167.999939 
	C1039.145752,155.019653 1039.145752,142.539383 1039.145752,129.603439 
	C1045.799194,129.603439 1052.190063,129.603439 1059.300537,129.603439 
	C1059.300537,161.103714 1059.300537,192.784958 1059.300537,225.063904 
	C1068.393066,225.063904 1076.791504,225.063904 1085.516113,225.063904 
	C1085.516113,229.898926 1085.516113,234.136688 1085.516113,238.782516 
	C1070.260132,238.782516 1055.052612,238.782516 1039.145752,238.782516 
	C1039.145752,215.337112 1039.145752,191.918518 1039.145752,167.999939 
z"/>
<path fill="#FEFEFC" opacity="1.000000" stroke="none" 
	d="
M955.841675,144.007767 
	C955.841675,175.778824 955.841675,207.051224 955.841675,238.747803 
	C949.144165,238.747803 942.789124,238.747803 936.126953,238.747803 
	C936.126953,202.453522 936.126953,166.233856 936.126953,129.585892 
	C942.484985,129.585892 948.836914,129.585892 955.841675,129.585892 
	C955.841675,134.293442 955.841675,138.901276 955.841675,144.007767 
z"/>
<path fill="#FEFDFB" opacity="1.000000" stroke="none" 
	d="
M1030.950684,416.794495 
	C1030.868774,380.570465 1030.868774,344.826202 1030.868774,308.849854 
	C1037.685303,308.849854 1044.080322,308.849854 1050.643066,308.849854 
	C1050.643066,345.276367 1050.643066,381.330750 1050.643066,418.494995 
	C1043.947754,418.078247 1037.490234,417.676270 1030.950684,416.794495 
z"/>
<path fill="#FEFDFB" opacity="1.000000" stroke="none" 
	d="
M1192.303467,597.519958 
	C1189.444214,597.676270 1187.760864,597.413940 1187.772095,594.181213 
	C1187.894043,559.237915 1187.893066,524.294189 1187.941406,489.350586 
	C1187.941772,489.053375 1188.158325,488.756470 1188.396729,488.143799 
	C1194.527588,488.143799 1200.774170,488.143799 1207.435547,488.143799 
	C1207.435547,524.328491 1207.435547,560.506409 1207.435547,597.521240 
	C1202.625000,597.521240 1197.697021,597.521240 1192.303467,597.519958 
z"/>
<path fill="#C18F36" opacity="1.000000" stroke="none" 
	d="
M988.962280,188.908981 
	C993.141235,188.721405 997.193115,188.389175 1001.002502,189.198318 
	C1008.923035,190.880646 1012.000854,197.898758 1011.093872,210.863098 
	C1010.482361,219.604828 1006.924011,223.850708 999.073120,224.686279 
	C995.814270,225.033112 992.487854,224.743820 988.725342,224.743820 
	C988.725342,212.726318 988.725342,201.003754 988.962280,188.908981 
z"/>
<path fill="#BF8C2F" opacity="1.000000" stroke="none" 
	d="
M988.518677,156.003387 
	C988.518616,151.722610 988.518616,147.940475 988.518616,143.643661 
	C995.681763,144.041260 1003.123779,142.192352 1007.460876,148.536606 
	C1011.691528,154.725098 1010.944275,162.261215 1007.403259,168.558640 
	C1003.439697,175.607651 995.938232,173.743408 988.518677,174.046417 
	C988.518677,167.979156 988.518677,162.240585 988.518677,156.003387 
z"/>
<path fill="#BF8C2F" opacity="1.000000" stroke="none" 
	d="
M649.760620,579.759644 
	C644.990967,583.977905 639.630432,583.142090 633.938232,582.958801 
	C633.938232,556.096313 633.938232,529.425903 633.938232,502.004852 
	C637.839600,502.300598 641.463135,502.325348 644.994141,502.909332 
	C648.973633,503.567444 651.486023,506.112457 652.192261,510.184418 
	C652.532166,512.144409 652.947632,514.128784 652.954346,516.103333 
	C653.012817,533.425171 653.159668,550.750366 652.850891,568.066895 
	C652.782837,571.881775 651.009583,575.666382 649.760620,579.759644 
z"/>
<path fill="#BF8C2F" opacity="1.000000" stroke="none" 
	d="
M942.526245,569.994507 
	C942.526184,547.248230 942.526184,525.001587 942.526184,502.080994 
	C946.492432,502.286591 949.778381,502.258545 953.008179,502.670685 
	C957.879028,503.292206 960.890686,506.171692 961.446289,511.098297 
	C961.892212,515.052368 962.112000,519.051880 962.119385,523.031799 
	C962.146606,537.676331 962.085388,552.321289 961.977661,566.965576 
	C961.876343,580.735046 957.344238,584.524475 942.526245,582.631592 
	C942.526245,578.670654 942.526245,574.582397 942.526245,569.994507 
z"/>
<path fill="#BF8C2F" opacity="1.000000" stroke="none" 
	d="
M799.526245,522.994019 
	C799.547607,516.336426 799.562378,510.179077 799.603516,504.021851 
	C799.606750,503.541412 799.794128,503.062256 800.014160,502.025299 
	C806.280029,502.011047 813.518311,499.932953 817.570496,506.561798 
	C821.876282,513.605530 821.789246,521.884277 817.623474,528.968384 
	C813.786133,535.493958 806.650391,534.465027 799.526245,534.242188 
	C799.526245,530.388672 799.526245,526.941467 799.526245,522.994019 
z"/>
<path fill="#C18F36" opacity="1.000000" stroke="none" 
	d="
M511.981506,174.239532 
	C507.159180,175.180847 502.685913,175.947281 497.839294,176.777679 
	C497.839294,164.961716 497.839294,154.260284 497.839294,143.607178 
	C508.530640,142.217361 514.736267,144.488403 517.071045,150.468750 
	C520.397339,158.988770 518.239685,169.728821 511.981506,174.239532 
z"/>
<path fill="#BF8C2F" opacity="1.000000" stroke="none" 
	d="
M886.562744,503.019012 
	C888.321228,506.647827 890.864014,510.050476 890.934570,513.503601 
	C891.329041,532.809082 891.242493,552.127747 891.072266,571.439697 
	C890.999023,579.749939 886.950317,583.923584 879.930664,583.817627 
	C874.471191,583.735168 871.171448,581.259033 869.946045,575.915955 
	C869.357178,573.348511 869.059021,570.659485 869.046997,568.023621 
	C868.969360,551.041138 869.006653,534.058105 869.009094,517.075256 
	C869.009277,516.076477 869.000305,515.075867 869.053955,514.079285 
	C869.649719,503.020111 875.623779,499.100586 886.562744,503.019012 
z"/>
<path fill="#BF8C2F" opacity="1.000000" stroke="none" 
	d="
M1103.189575,397.716797 
	C1100.477539,403.332458 1097.118530,405.101501 1091.468506,404.461670 
	C1086.197632,403.864716 1083.508911,400.788513 1082.683350,395.773987 
	C1082.440552,394.299225 1082.068359,392.815979 1082.065552,391.336029 
	C1082.029907,372.517273 1081.912109,353.696655 1082.151001,334.880768 
	C1082.214111,329.908020 1083.005249,324.741486 1089.039795,322.844513 
	C1097.946045,320.044861 1104.049072,324.781250 1104.117188,334.965729 
	C1104.242920,353.784271 1104.177002,372.604370 1104.114990,391.423553 
	C1104.108398,393.389923 1103.589722,395.354584 1103.189575,397.716797 
z"/>
<path fill="#BF8C2F" opacity="1.000000" stroke="none" 
	d="
M1239.007812,536.000000 
	C1239.071411,528.012878 1238.841797,520.508484 1239.279053,513.043274 
	C1239.741821,505.143188 1242.761230,501.968475 1249.069702,501.552368 
	C1256.482544,501.063416 1260.827759,504.202026 1260.953613,511.690521 
	C1261.297485,532.141724 1261.269653,552.605469 1260.962646,573.057800 
	C1260.856323,580.137878 1257.140991,583.460876 1250.933594,583.807251 
	C1244.461426,584.168396 1240.203613,581.139893 1239.745972,573.888306 
	C1238.961792,561.459473 1239.199219,548.966187 1239.007812,536.000000 
z"/>
<path fill="#BF8C2F" opacity="1.000000" stroke="none" 
	d="
M565.006409,341.072632 
	C565.242554,337.114227 565.099670,333.565399 565.799744,330.191467 
	C566.978394,324.511322 570.361511,322.138062 576.143127,322.182465 
	C581.887817,322.226624 585.253296,324.723267 586.505737,330.305420 
	C587.045166,332.709686 587.122925,335.253876 587.130310,337.735352 
	C587.180725,354.705627 587.187256,371.676239 587.124939,388.646423 
	C587.115234,391.286804 586.981750,393.996124 586.381958,396.550659 
	C585.071533,402.132111 581.576355,404.680176 575.989563,404.598846 
	C570.221375,404.514923 567.117859,402.117584 565.791199,396.375580 
	C565.273621,394.135315 565.048401,391.780975 565.039429,389.477234 
	C564.976990,373.505280 565.006470,357.532990 565.006409,341.072632 
z"/>
<path fill="#BF8C2F" opacity="1.000000" stroke="none" 
	d="
M771.508667,151.992889 
	C771.698853,173.041672 772.022522,193.684906 771.724426,214.319138 
	C771.614197,221.946289 767.543152,225.401566 760.940186,225.429657 
	C754.082581,225.458832 750.333130,221.807297 750.021118,213.962296 
	C749.690430,205.648819 749.850830,197.314575 749.852051,188.989410 
	C749.853760,177.500031 749.684021,166.004272 750.012146,154.523376 
	C750.256714,145.966736 755.066528,142.022293 762.849365,143.146912 
	C767.798096,143.862015 770.465210,146.828400 771.508667,151.992889 
z"/>
<path fill="#C18F36" opacity="1.000000" stroke="none" 
	d="
M506.309326,525.657104 
	C508.125885,536.716431 509.860687,547.359253 511.669250,558.454834 
	C506.863464,558.454834 502.516998,558.454834 497.497589,558.454834 
	C499.740021,544.565796 501.929962,531.001892 504.119904,517.437988 
	C504.369415,517.411987 504.618958,517.385986 504.868469,517.359924 
	C505.321503,519.986816 505.774506,522.613647 506.309326,525.657104 
z"/>
<path fill="#BF8C2F" opacity="1.000000" stroke="none" 
	d="
M951.476501,334.720612 
	C952.912048,352.000275 949.040894,355.859924 931.390869,354.776947 
	C931.390869,344.430817 931.390869,334.048096 931.390869,323.625214 
	C943.126343,320.322418 950.018433,323.948975 951.476501,334.720612 
z"/>
<path fill="#BF8C2F" opacity="1.000000" stroke="none" 
	d="
M685.001831,152.059753 
	C685.001831,149.254532 685.001831,146.940018 685.001831,143.783798 
	C691.337891,144.503983 698.596436,141.288834 702.758301,147.469086 
	C707.467529,154.462128 706.955811,163.112259 703.605896,170.485001 
	C700.161804,178.064697 692.193665,175.472778 685.001831,176.112686 
	C685.001831,168.066360 685.001831,160.308411 685.001831,152.059753 
z"/>
<path fill="#C18F36" opacity="1.000000" stroke="none" 
	d="
M753.844360,520.655640 
	C752.288025,532.959717 747.541748,535.933655 733.463135,533.619629 
	C733.463135,523.307312 733.463135,512.940857 733.463135,502.656799 
	C733.933777,502.411835 734.204468,502.162842 734.496582,502.134399 
	C750.367065,500.590240 753.861755,503.858582 753.844360,520.655640 
z"/>
</svg>