<svg version="1.1" id="Layer_1" xmlns="http://www.w3.org/2000/svg" xmlns:xlink="http://www.w3.org/1999/xlink" x="0px" y="0px"
	 width="100%" viewBox="0 0 1500 1500" enable-background="new 0 0 1500 1500" xml:space="preserve">
<path fill="#E5243B" opacity="1.000000" stroke="none" 
	d="
M870.000000,1501.000000 
	C580.000061,1501.000000 290.500092,1501.000000 1.000117,1501.000000 
	C1.000078,1001.000122 1.000078,501.000275 1.000039,1.000318 
	C500.999756,1.000212 1000.999512,1.000212 1500.999512,1.000106 
	C1500.999634,500.999664 1500.999634,1000.999329 1500.999756,1500.999512 
	C1290.833374,1501.000000 1080.666626,1501.000000 870.000000,1501.000000 
M577.759338,902.173828 
	C566.280029,943.742249 554.800659,985.310730 543.097168,1027.690918 
	C558.042786,1027.690918 571.936890,1027.690918 586.159302,1027.690918 
	C586.159302,1030.248901 586.159241,1032.224365 586.159302,1034.199707 
	C586.159363,1071.198364 585.990723,1108.198730 586.358093,1145.193726 
	C586.407837,1150.202148 588.173706,1155.798340 590.854248,1160.042847 
	C595.596497,1167.552124 605.525574,1169.934570 613.995422,1166.975586 
	C622.509888,1164.000732 627.819763,1156.247070 627.827881,1146.483398 
	C627.859070,1108.818115 627.840637,1071.152832 627.840698,1033.487549 
	C627.840759,1031.575073 627.840698,1029.662476 627.840698,1027.908691 
	C632.058716,1027.908691 635.459167,1027.908691 639.159302,1027.908691 
	C639.159302,1030.278198 639.159302,1032.258179 639.159302,1034.238037 
	C639.159302,1071.069946 639.111084,1107.902100 639.235718,1144.733643 
	C639.247864,1148.318115 639.723267,1152.137451 641.025696,1155.436157 
	C644.713379,1164.776001 654.392761,1169.710327 664.153381,1167.804321 
	C673.898193,1165.901245 680.806519,1157.411499 680.820496,1146.963501 
	C680.870972,1109.131592 680.840576,1071.299561 680.840698,1033.467651 
	C680.840698,1031.560303 680.840698,1029.652954 680.840698,1027.163086 
	C695.554932,1027.163086 709.445679,1027.163086 723.569092,1027.163086 
	C723.215820,1025.423218 723.053406,1024.278809 722.748718,1023.173645 
	C713.646240,990.150574 704.527161,957.132080 695.416504,924.111267 
	C689.622742,903.112000 683.815613,882.116272 678.071411,861.103455 
	C677.056519,857.390930 675.680786,852.852905 680.527710,851.226379 
	C685.896667,849.424561 686.662598,854.488220 687.714844,858.001221 
	C694.871277,881.891479 701.823730,905.842957 709.011475,929.723572 
	C711.304443,937.341553 713.461792,945.114380 716.863220,952.253235 
	C720.391052,959.657471 726.999634,962.037842 734.387939,960.267029 
	C742.352173,958.358215 746.750488,953.561523 747.101685,945.184692 
	C747.278625,940.963013 746.708740,936.510803 745.487427,932.461182 
	C735.407104,899.038147 725.461670,865.564880 714.594727,832.395325 
	C711.879639,824.108093 706.786621,816.221558 701.320862,809.309998 
	C694.549255,800.747253 684.934814,796.817322 673.614563,796.919128 
	C646.617737,797.162048 619.617310,796.981140 592.618347,797.024841 
	C590.136719,797.028870 587.572021,797.081970 585.187866,797.679077 
	C568.102905,801.957642 558.270874,814.226868 553.205444,829.844543 
	C541.340027,866.427734 530.455383,903.329041 519.176025,940.093872 
	C509.360870,934.667419 503.843719,936.275940 497.766907,946.167908 
	C492.279755,955.099976 486.742584,964.003784 481.070099,972.818726 
	C477.475586,978.404541 472.382996,981.087891 465.502533,980.906738 
	C454.510559,980.617249 443.493561,980.517944 432.509827,980.935547 
	C424.804169,981.228516 419.388306,978.163025 415.344879,971.958313 
	C413.254730,968.751099 411.078064,965.597534 409.072906,962.338196 
	C405.324005,956.244324 401.824799,949.992004 397.940704,943.987366 
	C392.982635,936.322388 386.329010,935.022217 378.731506,939.879700 
	C378.300354,940.155457 377.748383,940.242249 377.002533,940.505127 
	C377.002533,903.243469 377.009155,866.414551 377.000458,829.585571 
	C376.993225,798.863403 352.165405,774.036926 321.377197,774.004211 
	C292.044983,773.973083 262.712677,773.974609 233.380447,774.003845 
	C203.275421,774.033813 178.235657,798.103394 177.932495,828.187195 
	C177.537857,867.348450 177.728195,906.517395 178.006744,945.680664 
	C178.032837,949.349915 180.545547,952.983887 181.798889,956.669922 
	C182.372192,958.356018 183.329987,960.247986 183.032379,961.845154 
	C170.963867,1026.612305 158.776596,1091.357422 146.587936,1156.102295 
	C145.363403,1162.606689 147.632523,1167.153809 152.789139,1168.281982 
	C158.635254,1169.560913 162.728378,1166.288086 164.032730,1159.345459 
	C176.350250,1093.782715 188.669983,1028.220459 201.042007,962.668030 
	C201.228729,961.678650 201.865280,960.476318 202.669373,959.948792 
	C208.761429,955.952271 210.586777,950.182617 210.560745,943.202698 
	C210.443939,911.870911 210.500183,880.538513 210.531403,849.206299 
	C210.533539,847.053223 210.109085,844.377197 211.183319,842.872925 
	C212.706039,840.740662 215.222107,838.770447 217.706146,838.005554 
	C221.086395,836.964661 222.853821,839.743774 223.528198,842.703613 
	C224.001358,844.780273 223.980118,846.996338 223.980545,849.150146 
	C224.000015,946.313232 223.997253,1043.476318 223.998993,1140.639404 
	C223.999023,1142.305664 223.941208,1143.977295 224.047684,1145.637451 
	C224.974304,1160.086548 238.204086,1170.116211 252.378677,1167.142334 
	C264.048248,1164.694092 270.986633,1155.294800 270.992523,1141.705444 
	C271.016449,1086.540771 271.002411,1031.376099 271.002716,976.211487 
	C271.002777,968.387390 272.773895,965.480042 277.493896,965.549988 
	C282.321625,965.621521 283.997101,968.386353 283.997192,976.291565 
	C283.997650,1031.789551 284.030792,1087.287598 283.958649,1142.785522 
	C283.948761,1150.405151 286.239258,1156.951172 292.037628,1161.889282 
	C299.574371,1168.307983 308.252716,1169.701294 317.211212,1165.540161 
	C326.336243,1161.301514 330.851959,1153.754639 330.850250,1143.564697 
	C330.833954,1046.234985 330.839386,948.905212 330.847717,851.575500 
	C330.847931,849.244141 330.781219,846.892395 331.051788,844.586121 
	C331.457489,841.127991 332.376678,837.903015 336.828766,837.816345 
	C341.243073,837.730408 343.689484,839.916504 344.127319,844.286743 
	C344.326141,846.271423 344.468994,848.271118 344.474335,850.264404 
	C344.506073,862.097168 344.490021,873.930115 344.490112,885.763000 
	C344.490234,905.428955 344.471954,925.094910 344.499390,944.760864 
	C344.510651,952.848267 348.017090,958.451721 354.540222,961.028687 
	C361.421936,963.747314 368.063354,962.061096 373.468811,956.139282 
	C374.012878,955.543152 374.207428,954.627869 374.882904,953.175293 
	C385.920288,973.130554 395.978607,991.858765 406.589508,1010.268372 
	C411.806976,1019.320557 412.249664,1028.647461 409.827637,1038.197021 
	C405.616791,1054.799561 400.832123,1071.255981 396.329559,1087.785034 
	C395.353516,1091.368164 394.552856,1094.999146 393.545319,1099.124268 
	C399.730316,1099.124268 405.169373,1099.124268 410.997437,1099.124268 
	C410.997437,1101.122437 410.997437,1102.754883 410.997467,1104.387329 
	C410.997559,1119.886719 410.954712,1135.386353 411.013123,1150.885620 
	C411.050964,1160.922485 417.808960,1168.023193 427.224579,1168.104858 
	C436.887146,1168.188721 443.756470,1161.080078 443.823486,1150.752441 
	C443.897034,1139.420044 443.840515,1128.086670 443.840607,1116.753784 
	C443.840668,1110.971924 443.840607,1105.189941 443.840607,1099.378174 
	C447.252136,1099.378174 450.123566,1099.378174 453.162567,1099.378174 
	C453.162567,1116.914429 453.031250,1134.077026 453.212708,1151.236450 
	C453.318604,1161.246582 460.379425,1168.153809 469.843842,1168.098999 
	C479.218628,1168.044678 485.984039,1160.878174 485.997070,1150.922241 
	C486.017548,1135.256104 486.002563,1119.590088 486.002594,1103.923950 
	C486.002594,1102.340576 486.002594,1100.757202 486.002594,1098.890137 
	C492.193146,1098.890137 497.653717,1098.890137 503.552368,1098.890137 
	C503.086578,1096.922729 502.751648,1095.318115 502.325714,1093.737793 
	C497.133026,1074.472168 491.686127,1055.270386 486.842285,1035.917603 
	C484.888885,1028.113403 485.082825,1020.114197 489.228912,1012.663208 
	C500.125610,993.080566 510.930511,973.446838 521.904968,953.592896 
	C522.518738,954.174316 523.218628,954.827026 523.907288,955.491394 
	C532.625244,963.902710 544.495117,962.431763 550.495361,952.015259 
	C552.051270,949.314148 553.099182,946.258484 554.000854,943.251831 
	C562.644836,914.427063 571.210999,885.578918 579.788147,856.734131 
	C580.787048,853.374390 582.034912,849.811096 586.417908,851.149597 
	C590.523743,852.403503 590.153320,856.096558 589.385742,859.522949 
	C589.131165,860.659424 588.829407,861.786133 588.520752,862.909607 
	C584.997437,875.734253 581.468628,888.557434 577.759338,902.173828 
M1147.828247,1071.500000 
	C1147.828613,1095.997681 1147.740601,1120.495972 1147.863159,1144.993042 
	C1147.934448,1159.243164 1160.864990,1169.818848 1174.872681,1167.375854 
	C1187.001587,1165.260376 1194.495483,1155.981812 1194.501221,1142.868530 
	C1194.525391,1087.540771 1194.510010,1032.213013 1194.519287,976.885315 
	C1194.519653,975.055603 1194.537476,973.216858 1194.711060,971.398010 
	C1195.068115,967.657959 1197.255859,965.668274 1200.957275,965.596252 
	C1204.633057,965.524719 1206.983032,967.325562 1207.423828,971.106506 
	C1207.673462,973.248169 1207.811157,975.415649 1207.812012,977.571594 
	C1207.832397,1033.066040 1207.810547,1088.560425 1207.839722,1144.054810 
	C1207.848022,1159.859253 1221.578979,1170.660645 1236.882935,1167.014282 
	C1247.770508,1164.420410 1254.506104,1155.025635 1254.507202,1142.325562 
	C1254.515137,1045.002075 1254.508545,947.678528 1254.530884,850.355042 
	C1254.531494,847.865784 1254.250977,845.151001 1255.131226,842.953918 
	C1255.930786,840.958557 1258.192505,838.105774 1259.708984,838.166077 
	C1262.224731,838.266113 1265.144165,839.937256 1266.957275,841.839111 
	C1268.152710,843.092896 1267.955933,845.910583 1267.959351,848.028809 
	C1268.013062,880.192139 1267.972656,912.355591 1268.010620,944.518982 
	C1268.022949,954.979370 1274.687012,962.125061 1284.272461,962.166931 
	C1293.932251,962.209106 1300.807129,955.113159 1300.821045,944.769653 
	C1300.873047,906.273621 1300.972656,867.776855 1300.800049,829.281555 
	C1300.663330,798.792419 1275.638306,774.040222 1245.258545,774.004150 
	C1215.761475,773.969055 1186.264526,773.964355 1156.767456,774.005859 
	C1128.536621,774.045532 1104.309692,795.916870 1101.951416,824.020447 
	C1101.104004,834.118469 1101.519165,844.329468 1101.504150,854.489075 
	C1101.459961,884.485962 1101.458252,914.483093 1101.504639,944.479980 
	C1101.521729,955.559448 1108.359985,962.528320 1118.631592,962.163879 
	C1127.844971,961.836853 1134.136230,954.728027 1134.152832,944.321289 
	C1134.203979,912.324585 1134.164062,880.327759 1134.192139,848.330994 
	C1134.193726,846.517517 1134.285767,844.658325 1134.686768,842.900513 
	C1135.513916,839.275208 1138.061035,837.802917 1141.668213,837.798401 
	C1145.246216,837.793884 1146.699463,840.050720 1147.202148,843.082092 
	C1147.608154,845.529419 1147.802490,848.039734 1147.803467,850.522217 
	C1147.833740,923.848145 1147.828247,997.174072 1147.828247,1071.500000 
M789.739380,994.108398 
	C786.713013,1005.070435 783.686584,1016.032532 780.443298,1027.780273 
	C795.353821,1027.780273 809.257996,1027.780273 823.489441,1027.780273 
	C823.489441,1030.340088 823.489441,1032.320312 823.489441,1034.300537 
	C823.489624,1071.294678 823.455505,1108.288818 823.507935,1145.282959 
	C823.527222,1158.900757 832.185364,1168.183716 844.532532,1168.128052 
	C856.157349,1168.075562 865.341187,1158.122314 865.175476,1145.381226 
	C864.690308,1108.060059 865.002747,1070.728516 865.002747,1033.401123 
	C865.002747,1031.604370 865.002808,1029.807617 865.002808,1027.906250 
	C869.018250,1027.906250 872.553711,1027.906250 876.489380,1027.906250 
	C876.489380,1030.266113 876.489380,1032.240234 876.489441,1034.214355 
	C876.489502,1070.708618 876.482422,1107.202759 876.506042,1143.697021 
	C876.507507,1146.021240 876.579163,1148.368896 876.902771,1150.665527 
	C878.620239,1162.854980 890.998352,1170.780518 902.855347,1167.356079 
	C912.838074,1164.473145 918.143433,1156.837524 918.156189,1144.981812 
	C918.196106,1107.987671 918.171021,1070.993408 918.171143,1033.999268 
	C918.171143,1032.041626 918.171143,1030.083984 918.171143,1027.437988 
	C932.709656,1027.437988 946.726624,1027.437988 961.074280,1027.437988 
	C960.745544,1026.079590 960.611694,1025.453125 960.442200,1024.836670 
	C945.541504,970.652588 930.621521,916.473755 915.787659,862.271362 
	C915.104126,859.773926 914.739746,856.999939 915.103760,854.481628 
	C915.297546,853.140747 917.254639,851.309509 918.632996,851.094910 
	C920.009644,850.880554 921.937988,852.121216 923.099915,853.259583 
	C924.076782,854.216431 924.416199,855.908386 924.838928,857.333923 
	C931.265625,879.005188 937.611572,900.700439 944.083801,922.358032 
	C946.842834,931.590576 949.331848,940.955383 952.888245,949.883789 
	C956.500977,958.953430 963.706604,962.319824 971.979004,960.195312 
	C980.684753,957.959534 985.396606,951.464233 984.757324,941.954651 
	C984.525635,938.509399 983.702698,935.039001 982.687744,931.721375 
	C972.574585,898.664734 962.637451,865.549316 951.977356,832.668762 
	C949.524414,825.102783 945.250977,817.811462 940.479187,811.386108 
	C933.159363,801.529907 922.930298,796.748718 910.217163,796.900574 
	C883.558472,797.219177 856.893372,796.978210 830.231018,797.026733 
	C827.584595,797.031555 824.847290,797.087646 822.307739,797.732422 
	C805.223572,802.069824 795.506958,814.470459 790.418457,830.043640 
	C779.220764,864.314209 769.010742,898.908936 758.579346,933.426270 
	C757.447021,937.173218 757.009338,941.294556 757.119934,945.217651 
	C757.332703,952.764709 761.920288,958.105347 769.014160,960.045593 
	C776.495789,962.091980 782.511780,960.108643 786.790283,953.532410 
	C788.748413,950.522705 790.152344,947.026978 791.195618,943.567139 
	C799.738708,915.234558 808.118225,886.852722 816.603638,858.502686 
	C817.703979,854.826477 818.169434,849.407593 823.824097,851.252625 
	C828.939758,852.921814 827.204651,857.705933 826.150024,861.549255 
	C814.096130,905.476990 802.013489,949.396912 789.739380,994.108398 
M988.441284,1058.037476 
	C992.480347,1045.195923 996.486633,1032.343872 1000.599609,1019.526062 
	C1001.116882,1017.914124 1002.195984,1016.482483 1003.014771,1014.967346 
	C1003.394775,1015.135620 1003.774841,1015.303894 1004.154846,1015.472168 
	C1004.154846,1017.462097 1004.154846,1019.452026 1004.154846,1021.441956 
	C1004.154907,1063.270508 1004.087097,1105.099243 1004.259583,1146.927002 
	C1004.276917,1151.130981 1004.990234,1155.675537 1006.713928,1159.453735 
	C1009.817566,1166.256836 1017.978333,1169.461304 1025.344482,1167.780884 
	C1033.078613,1166.016602 1038.400391,1159.288818 1038.472534,1150.524536 
	C1038.610962,1133.694336 1038.465942,1116.861816 1038.554443,1100.030884 
	C1038.574341,1096.228760 1037.386475,1090.974243 1043.372314,1090.892700 
	C1049.311890,1090.811768 1048.422363,1096.027466 1048.443359,1099.864258 
	C1048.536011,1116.861816 1048.406982,1133.860596 1048.512085,1150.858032 
	C1048.580811,1161.976440 1057.552856,1169.587280 1068.362671,1167.946777 
	C1077.005371,1166.635132 1082.501953,1159.578735 1082.507080,1149.598145 
	C1082.529053,1106.769775 1082.510864,1063.941406 1082.535034,1021.112976 
	C1082.536133,1019.151001 1082.803955,1017.189148 1082.947632,1015.227295 
	C1084.815674,1016.843506 1085.440674,1018.512268 1086.057007,1020.184021 
	C1092.035767,1036.398560 1098.075195,1052.591064 1103.950562,1068.842896 
	C1105.583618,1073.360352 1108.826050,1074.395020 1113.002075,1073.817261 
	C1121.261963,1072.674316 1126.172607,1064.424805 1123.105591,1056.686035 
	C1114.468628,1034.893555 1105.745117,1013.135315 1097.042847,991.368774 
	C1092.853516,980.890259 1085.477051,974.482910 1073.948608,973.506592 
	C1070.799927,973.239990 1067.636230,973.030212 1064.478271,973.016785 
	C1051.650269,972.962158 1038.762451,973.774597 1026.008423,972.801636 
	C1009.100830,971.511902 998.341919,978.735474 991.954041,993.792236 
	C991.434814,995.016113 990.738464,996.165771 990.237183,997.395874 
	C982.835938,1015.557983 975.401550,1033.706909 968.103149,1051.910278 
	C966.251160,1056.529297 964.483215,1061.240601 963.326904,1066.065308 
	C961.826904,1072.323608 965.317627,1077.577759 971.271057,1079.024292 
	C976.979797,1080.411377 982.118103,1077.501709 984.101746,1071.626953 
	C985.537292,1067.375610 986.814758,1063.070801 988.441284,1058.037476 
M129.907379,140.468018 
	C116.787384,147.614120 103.667389,154.760239 90.247086,162.069916 
	C90.247086,174.736969 90.247086,188.139267 90.247086,201.900162 
	C104.057678,196.940918 117.530785,192.102859 131.747925,186.997620 
	C131.747925,263.855347 131.747925,340.053558 131.747925,416.110687 
	C150.436661,416.110687 168.509872,416.110687 186.557312,416.110687 
	C186.557312,320.474030 186.557312,225.244919 186.557312,129.482025 
	C176.148056,129.482025 166.002335,129.831802 155.893997,129.367584 
	C148.274368,129.017670 141.467056,129.696945 136.147659,135.972015 
	C134.690063,137.691483 132.402573,138.707443 129.907379,140.468018 
M315.936829,733.278870 
	C316.185028,732.662415 316.448517,732.051575 316.679077,731.428589 
	C323.014069,714.310913 318.107117,695.551758 304.269531,683.974854 
	C291.111450,672.966492 271.787415,671.304749 256.623260,679.877625 
	C241.193130,688.600891 233.045090,706.114868 236.105087,723.980713 
	C239.020676,741.003235 253.314636,755.095642 270.444824,757.836182 
	C289.242950,760.843567 306.297333,751.843445 315.936829,733.278870 
M1159.168701,719.215149 
	C1159.393433,720.695190 1159.596802,722.178772 1159.846191,723.654602 
	C1162.811646,741.200745 1177.056641,755.311951 1194.379150,757.872314 
	C1212.525635,760.554382 1230.057251,751.775513 1238.278687,735.889832 
	C1246.692627,719.632019 1243.785400,699.803223 1231.101562,686.941284 
	C1219.197876,674.870300 1201.020142,671.052002 1185.467163,677.355530 
	C1168.812134,684.105835 1159.155151,699.138611 1159.168701,719.215149 
M836.178955,718.758789 
	C826.040771,738.563538 831.741638,760.863953 849.824768,772.137817 
	C867.194763,782.967102 890.242981,778.711731 902.580933,762.397522 
	C916.187195,744.406006 911.984314,718.348938 893.405762,705.514038 
	C874.473938,692.435059 849.293579,698.031494 836.178955,718.758789 
M603.754639,764.723938 
	C617.015747,779.068970 637.494324,782.312683 653.734009,772.640381 
	C670.058167,762.917908 677.485535,743.330811 671.102112,725.553101 
	C665.174744,709.045654 653.085327,700.164062 635.631592,698.623291 
	C621.012268,697.332703 605.503845,705.827148 598.613647,719.432129 
	C590.615173,735.225586 592.307861,750.252625 603.754639,764.723938 
M437.849945,349.505646 
	C437.849426,346.175812 437.918121,342.844299 437.837067,339.516418 
	C437.345551,319.339661 428.461639,308.669250 409.909515,307.362335 
	C390.592468,306.001526 375.998718,312.310852 374.905731,336.341766 
	C374.075073,354.605011 374.138794,372.971588 375.025940,391.232880 
	C375.940125,410.051239 385.955109,418.974823 404.757935,419.839417 
	C423.710205,420.710876 435.269287,411.724396 437.008301,392.895508 
	C438.304718,378.858673 437.640808,364.640808 437.849945,349.505646 
M439.173798,164.527634 
	C439.094818,162.199554 439.075745,159.867630 438.927368,157.543991 
	C437.819183,140.189468 429.751282,130.267639 413.846558,128.483871 
	C390.647797,125.882042 379.285919,134.369110 376.308350,153.492599 
	C375.900909,156.109161 375.850586,158.800018 375.843140,161.457062 
	C375.801208,176.440140 375.739929,191.424164 375.878662,206.406082 
	C375.915344,210.371063 376.250671,214.415802 377.114990,218.274719 
	C379.450012,228.699936 384.792236,236.852814 395.993835,239.131287 
	C408.561188,241.687531 420.975464,242.071884 430.966644,232.011368 
	C433.120636,229.842453 434.939911,226.909454 435.815308,223.998215 
	C437.331329,218.956543 438.703674,213.679489 438.869537,208.460892 
	C439.324097,194.157990 439.119995,179.834137 439.173798,164.527634 
M619.983337,310.354431 
	C606.107605,309.466522 592.231873,308.578613 578.300903,307.687164 
	C578.300903,345.345490 578.300903,381.602570 578.300903,417.849640 
	C585.016418,417.849640 591.422485,417.849640 598.430664,417.849640 
	C598.430664,401.154938 598.430664,384.775085 598.430664,368.390381 
	C601.507080,368.390381 603.969910,368.390381 606.600037,368.390381 
	C607.108032,370.111603 607.611267,371.671539 608.028748,373.254120 
	C611.676514,387.082062 615.247620,400.930969 619.043213,414.718109 
	C619.412415,416.059204 621.086792,417.943787 622.247070,418.011749 
	C628.034058,418.350677 633.851746,418.166656 640.129272,418.166656 
	C635.018494,399.934174 630.057617,382.236694 625.067322,364.434082 
	C631.089050,361.529510 635.492737,357.171875 636.388855,350.947449 
	C637.418396,343.796814 637.891663,336.380035 637.203430,329.213623 
	C636.269592,319.490479 630.107910,313.401733 619.983337,310.354431 
M364.005829,190.500000 
	C364.005829,170.219330 364.005829,149.938644 364.005829,129.574112 
	C358.139832,129.574112 352.778992,129.574112 346.952148,129.574112 
	C346.952148,149.323425 346.952148,168.658142 346.952148,187.992859 
	C345.473480,186.496124 344.688965,184.904251 343.983673,183.278030 
	C336.708740,166.503967 329.480408,149.709518 322.121552,132.972443 
	C321.481934,131.517685 320.118561,129.494247 318.896515,129.346497 
	C315.020477,128.877930 311.052124,129.173264 307.242615,129.173264 
	C307.242615,166.250504 307.242615,202.632309 307.242615,238.837082 
	C312.925751,238.837082 318.185028,238.837082 323.945709,238.837082 
	C323.945709,218.172302 323.945709,197.838715 323.945709,177.505127 
	C325.519745,178.942078 326.279053,180.515121 326.948761,182.125458 
	C334.288849,199.774704 341.573730,217.447205 349.015106,235.053558 
	C349.683685,236.635376 351.195374,238.766617 352.565216,238.971298 
	C356.232178,239.519226 360.034912,239.158066 364.005829,239.158066 
	C364.005829,222.789688 364.005829,207.144836 364.005829,190.500000 
M306.821777,400.498932 
	C306.821777,406.267975 306.821777,412.037048 306.821777,417.766357 
	C313.821350,417.766357 320.193176,417.766357 326.950134,417.766357 
	C326.950134,401.588745 326.950134,385.818237 326.950134,369.782959 
	C332.276978,369.539062 337.228027,369.402100 342.165802,369.068573 
	C354.556366,368.231720 363.520691,361.455475 365.241791,349.492828 
	C366.371429,341.641113 365.774200,333.225159 364.253204,325.391418 
	C362.530182,316.517303 355.920715,310.262238 346.970581,309.573883 
	C333.787903,308.559967 320.469391,309.312256 306.821777,309.312256 
	C306.821777,339.222473 306.821777,369.360962 306.821777,400.498932 
M479.020142,380.878113 
	C478.892456,380.984863 478.777283,381.117310 478.631989,381.187744 
	C478.556427,381.224396 478.344147,381.168945 478.335114,381.125580 
	C477.555420,377.392303 476.742981,373.665009 476.030670,369.918671 
	C472.367432,350.651093 468.775330,331.369720 464.986786,312.126953 
	C464.720856,310.776031 463.142975,308.740845 462.050201,308.657196 
	C457.125580,308.280426 452.155945,308.492798 446.670929,308.492798 
	C447.003876,310.672272 447.188568,312.279541 447.501434,313.861481 
	C448.984955,321.361816 450.492401,328.857483 452.011414,336.350739 
	C457.327057,362.572662 462.629211,388.797424 468.043671,414.998962 
	C468.283661,416.160309 469.536987,417.972168 470.383911,418.009949 
	C476.299103,418.273712 482.231659,418.149445 488.299744,418.149445 
	C495.780365,381.370178 503.138489,345.193268 510.542603,308.790222 
	C503.839691,308.790222 498.091217,308.790222 492.205994,308.790222 
	C487.862366,332.769257 483.569244,356.469696 479.020142,380.878113 
M481.150513,932.550171 
	C481.269196,931.392883 481.456360,930.238037 481.496216,929.078003 
	C481.967438,915.368958 476.469727,904.677246 464.442017,898.109619 
	C452.658264,891.675232 440.607910,892.307983 429.568695,900.020752 
	C418.310608,907.886475 414.045868,919.126465 415.947815,932.670044 
	C418.031952,947.510376 431.309052,959.423706 446.427826,960.135193 
	C463.639496,960.945190 476.872803,950.711609 481.150513,932.550171 
M1014.872803,910.464905 
	C1006.077087,927.012939 1010.980286,946.337891 1026.281372,955.429565 
	C1041.611938,964.538818 1061.087036,960.320251 1070.910400,945.762390 
	C1081.119507,930.632935 1077.267212,910.053467 1062.306885,899.801025 
	C1046.634033,889.060242 1026.531860,893.332458 1014.872803,910.464905 
M520.992310,382.500000 
	C520.992310,394.272034 520.992310,406.044067 520.992310,417.891235 
	C536.623596,417.891235 551.688171,417.891235 566.792664,417.891235 
	C566.792664,413.223236 566.792664,408.853333 566.792664,403.960327 
	C558.026306,403.960327 549.634033,403.960327 541.385864,403.960327 
	C541.385864,391.871124 541.385864,380.317932 541.385864,368.315125 
	C548.190674,368.315125 554.620667,368.315125 561.137695,368.315125 
	C561.137695,363.308746 561.137695,358.767639 561.137695,353.877167 
	C554.318298,353.877167 547.876099,353.877167 541.247925,353.877167 
	C541.247925,343.449646 541.247925,333.381653 541.247925,322.770874 
	C549.868408,322.770874 558.265137,322.770874 566.766541,322.770874 
	C566.766541,317.804474 566.766541,313.384216 566.766541,308.780090 
	C551.444275,308.780090 536.364380,308.780090 520.992310,308.780090 
	C520.992310,333.219574 520.992310,357.359802 520.992310,382.500000 
M713.848206,344.853821 
	C724.277893,368.174805 725.990417,392.810242 723.667480,417.859650 
	C730.942566,417.859650 737.020935,417.859650 743.529419,417.859650 
	C743.529419,407.080078 743.223877,396.606354 743.648743,386.162354 
	C743.888062,380.278961 744.693848,374.255890 746.359680,368.625671 
	C750.362183,355.098358 755.032959,341.769135 759.412842,328.353027 
	C761.501526,321.955536 763.541809,315.542236 765.818237,308.470795 
	C760.603394,308.470795 756.127075,308.734802 751.698303,308.389679 
	C747.956421,308.098114 746.651062,309.536438 745.678284,313.063690 
	C742.270020,325.422607 738.407288,337.656250 734.370972,351.089569 
	C733.390869,348.388855 732.776001,346.884979 732.295532,345.339325 
	C728.844910,334.239471 725.491821,323.108337 721.901306,312.054199 
	C721.449219,310.662598 719.856995,308.720978 718.684082,308.641510 
	C713.288147,308.275818 707.853577,308.480408 701.854675,308.480408 
	C705.925293,320.853180 709.750488,332.479858 713.848206,344.853821 
M683.177795,343.500580 
	C683.177795,337.044159 683.177795,330.587738 683.177795,323.436401 
	C689.397766,323.436401 695.095276,323.436401 700.742493,323.436401 
	C700.742493,318.127563 700.742493,313.529877 700.742493,308.763245 
	C682.058533,308.763245 663.640808,308.763245 645.023193,308.763245 
	C645.023193,313.668762 645.023193,318.290833 645.023193,323.422363 
	C650.949768,323.422363 656.708069,323.422363 663.091064,323.422363 
	C663.091064,355.286713 663.091064,386.648865 663.091064,417.794434 
	C670.139954,417.794434 676.549500,417.794434 683.177795,417.794434 
	C683.177795,393.107910 683.177795,368.804108 683.177795,343.500580 
z"/>
<path fill="#FFFEFE" opacity="1.000000" stroke="none" 
	d="
M577.850342,901.777405 
	C581.468628,888.557434 584.997437,875.734253 588.520752,862.909607 
	C588.829407,861.786133 589.131165,860.659424 589.385742,859.522949 
	C590.153320,856.096558 590.523743,852.403503 586.417908,851.149597 
	C582.034912,849.811096 580.787048,853.374390 579.788147,856.734131 
	C571.210999,885.578918 562.644836,914.427063 554.000854,943.251831 
	C553.099182,946.258484 552.051270,949.314148 550.495361,952.015259 
	C544.495117,962.431763 532.625244,963.902710 523.907288,955.491394 
	C523.218628,954.827026 522.518738,954.174316 521.904968,953.592896 
	C510.930511,973.446838 500.125610,993.080566 489.228912,1012.663208 
	C485.082825,1020.114197 484.888885,1028.113403 486.842285,1035.917603 
	C491.686127,1055.270386 497.133026,1074.472168 502.325714,1093.737793 
	C502.751648,1095.318115 503.086578,1096.922729 503.552368,1098.890137 
	C497.653717,1098.890137 492.193146,1098.890137 486.002594,1098.890137 
	C486.002594,1100.757202 486.002594,1102.340576 486.002594,1103.923950 
	C486.002563,1119.590088 486.017548,1135.256104 485.997070,1150.922241 
	C485.984039,1160.878174 479.218628,1168.044678 469.843842,1168.098999 
	C460.379425,1168.153809 453.318604,1161.246582 453.212708,1151.236450 
	C453.031250,1134.077026 453.162567,1116.914429 453.162567,1099.378174 
	C450.123566,1099.378174 447.252136,1099.378174 443.840607,1099.378174 
	C443.840607,1105.189941 443.840668,1110.971924 443.840607,1116.753784 
	C443.840515,1128.086670 443.897034,1139.420044 443.823486,1150.752441 
	C443.756470,1161.080078 436.887146,1168.188721 427.224579,1168.104858 
	C417.808960,1168.023193 411.050964,1160.922485 411.013123,1150.885620 
	C410.954712,1135.386353 410.997559,1119.886719 410.997467,1104.387329 
	C410.997437,1102.754883 410.997437,1101.122437 410.997437,1099.124268 
	C405.169373,1099.124268 399.730316,1099.124268 393.545319,1099.124268 
	C394.552856,1094.999146 395.353516,1091.368164 396.329559,1087.785034 
	C400.832123,1071.255981 405.616791,1054.799561 409.827637,1038.197021 
	C412.249664,1028.647461 411.806976,1019.320557 406.589508,1010.268372 
	C395.978607,991.858765 385.920288,973.130554 374.882904,953.175293 
	C374.207428,954.627869 374.012878,955.543152 373.468811,956.139282 
	C368.063354,962.061096 361.421936,963.747314 354.540222,961.028687 
	C348.017090,958.451721 344.510651,952.848267 344.499390,944.760864 
	C344.471954,925.094910 344.490234,905.428955 344.490112,885.763000 
	C344.490021,873.930115 344.506073,862.097168 344.474335,850.264404 
	C344.468994,848.271118 344.326141,846.271423 344.127319,844.286743 
	C343.689484,839.916504 341.243073,837.730408 336.828766,837.816345 
	C332.376678,837.903015 331.457489,841.127991 331.051788,844.586121 
	C330.781219,846.892395 330.847931,849.244141 330.847717,851.575500 
	C330.839386,948.905212 330.833954,1046.234985 330.850250,1143.564697 
	C330.851959,1153.754639 326.336243,1161.301514 317.211212,1165.540161 
	C308.252716,1169.701294 299.574371,1168.307983 292.037628,1161.889282 
	C286.239258,1156.951172 283.948761,1150.405151 283.958649,1142.785522 
	C284.030792,1087.287598 283.997650,1031.789551 283.997192,976.291565 
	C283.997101,968.386353 282.321625,965.621521 277.493896,965.549988 
	C272.773895,965.480042 271.002777,968.387390 271.002716,976.211487 
	C271.002411,1031.376099 271.016449,1086.540771 270.992523,1141.705444 
	C270.986633,1155.294800 264.048248,1164.694092 252.378677,1167.142334 
	C238.204086,1170.116211 224.974304,1160.086548 224.047684,1145.637451 
	C223.941208,1143.977295 223.999023,1142.305664 223.998993,1140.639404 
	C223.997253,1043.476318 224.000015,946.313232 223.980545,849.150146 
	C223.980118,846.996338 224.001358,844.780273 223.528198,842.703613 
	C222.853821,839.743774 221.086395,836.964661 217.706146,838.005554 
	C215.222107,838.770447 212.706039,840.740662 211.183319,842.872925 
	C210.109085,844.377197 210.533539,847.053223 210.531403,849.206299 
	C210.500183,880.538513 210.443939,911.870911 210.560745,943.202698 
	C210.586777,950.182617 208.761429,955.952271 202.669373,959.948792 
	C201.865280,960.476318 201.228729,961.678650 201.042007,962.668030 
	C188.669983,1028.220459 176.350250,1093.782715 164.032730,1159.345459 
	C162.728378,1166.288086 158.635254,1169.560913 152.789139,1168.281982 
	C147.632523,1167.153809 145.363403,1162.606689 146.587936,1156.102295 
	C158.776596,1091.357422 170.963867,1026.612305 183.032379,961.845154 
	C183.329987,960.247986 182.372192,958.356018 181.798889,956.669922 
	C180.545547,952.983887 178.032837,949.349915 178.006744,945.680664 
	C177.728195,906.517395 177.537857,867.348450 177.932495,828.187195 
	C178.235657,798.103394 203.275421,774.033813 233.380447,774.003845 
	C262.712677,773.974609 292.044983,773.973083 321.377197,774.004211 
	C352.165405,774.036926 376.993225,798.863403 377.000458,829.585571 
	C377.009155,866.414551 377.002533,903.243469 377.002533,940.505127 
	C377.748383,940.242249 378.300354,940.155457 378.731506,939.879700 
	C386.329010,935.022217 392.982635,936.322388 397.940704,943.987366 
	C401.824799,949.992004 405.324005,956.244324 409.072906,962.338196 
	C411.078064,965.597534 413.254730,968.751099 415.344879,971.958313 
	C419.388306,978.163025 424.804169,981.228516 432.509827,980.935547 
	C443.493561,980.517944 454.510559,980.617249 465.502533,980.906738 
	C472.382996,981.087891 477.475586,978.404541 481.070099,972.818726 
	C486.742584,964.003784 492.279755,955.099976 497.766907,946.167908 
	C503.843719,936.275940 509.360870,934.667419 519.176025,940.093872 
	C530.455383,903.329041 541.340027,866.427734 553.205444,829.844543 
	C558.270874,814.226868 568.102905,801.957642 585.187866,797.679077 
	C587.572021,797.081970 590.136719,797.028870 592.618347,797.024841 
	C619.617310,796.981140 646.617737,797.162048 673.614563,796.919128 
	C684.934814,796.817322 694.549255,800.747253 701.320862,809.309998 
	C706.786621,816.221558 711.879639,824.108093 714.594727,832.395325 
	C725.461670,865.564880 735.407104,899.038147 745.487427,932.461182 
	C746.708740,936.510803 747.278625,940.963013 747.101685,945.184692 
	C746.750488,953.561523 742.352173,958.358215 734.387939,960.267029 
	C726.999634,962.037842 720.391052,959.657471 716.863220,952.253235 
	C713.461792,945.114380 711.304443,937.341553 709.011475,929.723572 
	C701.823730,905.842957 694.871277,881.891479 687.714844,858.001221 
	C686.662598,854.488220 685.896667,849.424561 680.527710,851.226379 
	C675.680786,852.852905 677.056519,857.390930 678.071411,861.103455 
	C683.815613,882.116272 689.622742,903.112000 695.416504,924.111267 
	C704.527161,957.132080 713.646240,990.150574 722.748718,1023.173645 
	C723.053406,1024.278809 723.215820,1025.423218 723.569092,1027.163086 
	C709.445679,1027.163086 695.554932,1027.163086 680.840698,1027.163086 
	C680.840698,1029.652954 680.840698,1031.560303 680.840698,1033.467651 
	C680.840576,1071.299561 680.870972,1109.131592 680.820496,1146.963501 
	C680.806519,1157.411499 673.898193,1165.901245 664.153381,1167.804321 
	C654.392761,1169.710327 644.713379,1164.776001 641.025696,1155.436157 
	C639.723267,1152.137451 639.247864,1148.318115 639.235718,1144.733643 
	C639.111084,1107.902100 639.159302,1071.069946 639.159302,1034.238037 
	C639.159302,1032.258179 639.159302,1030.278198 639.159302,1027.908691 
	C635.459167,1027.908691 632.058716,1027.908691 627.840698,1027.908691 
	C627.840698,1029.662476 627.840759,1031.575073 627.840698,1033.487549 
	C627.840637,1071.152832 627.859070,1108.818115 627.827881,1146.483398 
	C627.819763,1156.247070 622.509888,1164.000732 613.995422,1166.975586 
	C605.525574,1169.934570 595.596497,1167.552124 590.854248,1160.042847 
	C588.173706,1155.798340 586.407837,1150.202148 586.358093,1145.193726 
	C585.990723,1108.198730 586.159363,1071.198364 586.159302,1034.199707 
	C586.159241,1032.224365 586.159302,1030.248901 586.159302,1027.690918 
	C571.936890,1027.690918 558.042786,1027.690918 543.097168,1027.690918 
	C554.800659,985.310730 566.280029,943.742249 577.850342,901.777405 
z"/>
<path fill="#FFFDFE" opacity="1.000000" stroke="none" 
	d="
M1147.828247,1071.000000 
	C1147.828247,997.174072 1147.833740,923.848145 1147.803467,850.522217 
	C1147.802490,848.039734 1147.608154,845.529419 1147.202148,843.082092 
	C1146.699463,840.050720 1145.246216,837.793884 1141.668213,837.798401 
	C1138.061035,837.802917 1135.513916,839.275208 1134.686768,842.900513 
	C1134.285767,844.658325 1134.193726,846.517517 1134.192139,848.330994 
	C1134.164062,880.327759 1134.203979,912.324585 1134.152832,944.321289 
	C1134.136230,954.728027 1127.844971,961.836853 1118.631592,962.163879 
	C1108.359985,962.528320 1101.521729,955.559448 1101.504639,944.479980 
	C1101.458252,914.483093 1101.459961,884.485962 1101.504150,854.489075 
	C1101.519165,844.329468 1101.104004,834.118469 1101.951416,824.020447 
	C1104.309692,795.916870 1128.536621,774.045532 1156.767456,774.005859 
	C1186.264526,773.964355 1215.761475,773.969055 1245.258545,774.004150 
	C1275.638306,774.040222 1300.663330,798.792419 1300.800049,829.281555 
	C1300.972656,867.776855 1300.873047,906.273621 1300.821045,944.769653 
	C1300.807129,955.113159 1293.932251,962.209106 1284.272461,962.166931 
	C1274.687012,962.125061 1268.022949,954.979370 1268.010620,944.518982 
	C1267.972656,912.355591 1268.013062,880.192139 1267.959351,848.028809 
	C1267.955933,845.910583 1268.152710,843.092896 1266.957275,841.839111 
	C1265.144165,839.937256 1262.224731,838.266113 1259.708984,838.166077 
	C1258.192505,838.105774 1255.930786,840.958557 1255.131226,842.953918 
	C1254.250977,845.151001 1254.531494,847.865784 1254.530884,850.355042 
	C1254.508545,947.678528 1254.515137,1045.002075 1254.507202,1142.325562 
	C1254.506104,1155.025635 1247.770508,1164.420410 1236.882935,1167.014282 
	C1221.578979,1170.660645 1207.848022,1159.859253 1207.839722,1144.054810 
	C1207.810547,1088.560425 1207.832397,1033.066040 1207.812012,977.571594 
	C1207.811157,975.415649 1207.673462,973.248169 1207.423828,971.106506 
	C1206.983032,967.325562 1204.633057,965.524719 1200.957275,965.596252 
	C1197.255859,965.668274 1195.068115,967.657959 1194.711060,971.398010 
	C1194.537476,973.216858 1194.519653,975.055603 1194.519287,976.885315 
	C1194.510010,1032.213013 1194.525391,1087.540771 1194.501221,1142.868530 
	C1194.495483,1155.981812 1187.001587,1165.260376 1174.872681,1167.375854 
	C1160.864990,1169.818848 1147.934448,1159.243164 1147.863159,1144.993042 
	C1147.740601,1120.495972 1147.828613,1095.997681 1147.828247,1071.000000 
z"/>
<path fill="#FFFEFE" opacity="1.000000" stroke="none" 
	d="
M789.838928,993.713623 
	C802.013489,949.396912 814.096130,905.476990 826.150024,861.549255 
	C827.204651,857.705933 828.939758,852.921814 823.824097,851.252625 
	C818.169434,849.407593 817.703979,854.826477 816.603638,858.502686 
	C808.118225,886.852722 799.738708,915.234558 791.195618,943.567139 
	C790.152344,947.026978 788.748413,950.522705 786.790283,953.532410 
	C782.511780,960.108643 776.495789,962.091980 769.014160,960.045593 
	C761.920288,958.105347 757.332703,952.764709 757.119934,945.217651 
	C757.009338,941.294556 757.447021,937.173218 758.579346,933.426270 
	C769.010742,898.908936 779.220764,864.314209 790.418457,830.043640 
	C795.506958,814.470459 805.223572,802.069824 822.307739,797.732422 
	C824.847290,797.087646 827.584595,797.031555 830.231018,797.026733 
	C856.893372,796.978210 883.558472,797.219177 910.217163,796.900574 
	C922.930298,796.748718 933.159363,801.529907 940.479187,811.386108 
	C945.250977,817.811462 949.524414,825.102783 951.977356,832.668762 
	C962.637451,865.549316 972.574585,898.664734 982.687744,931.721375 
	C983.702698,935.039001 984.525635,938.509399 984.757324,941.954651 
	C985.396606,951.464233 980.684753,957.959534 971.979004,960.195312 
	C963.706604,962.319824 956.500977,958.953430 952.888245,949.883789 
	C949.331848,940.955383 946.842834,931.590576 944.083801,922.358032 
	C937.611572,900.700439 931.265625,879.005188 924.838928,857.333923 
	C924.416199,855.908386 924.076782,854.216431 923.099915,853.259583 
	C921.937988,852.121216 920.009644,850.880554 918.632996,851.094910 
	C917.254639,851.309509 915.297546,853.140747 915.103760,854.481628 
	C914.739746,856.999939 915.104126,859.773926 915.787659,862.271362 
	C930.621521,916.473755 945.541504,970.652588 960.442200,1024.836670 
	C960.611694,1025.453125 960.745544,1026.079590 961.074280,1027.437988 
	C946.726624,1027.437988 932.709656,1027.437988 918.171143,1027.437988 
	C918.171143,1030.083984 918.171143,1032.041626 918.171143,1033.999268 
	C918.171021,1070.993408 918.196106,1107.987671 918.156189,1144.981812 
	C918.143433,1156.837524 912.838074,1164.473145 902.855347,1167.356079 
	C890.998352,1170.780518 878.620239,1162.854980 876.902771,1150.665527 
	C876.579163,1148.368896 876.507507,1146.021240 876.506042,1143.697021 
	C876.482422,1107.202759 876.489502,1070.708618 876.489441,1034.214355 
	C876.489380,1032.240234 876.489380,1030.266113 876.489380,1027.906250 
	C872.553711,1027.906250 869.018250,1027.906250 865.002808,1027.906250 
	C865.002808,1029.807617 865.002747,1031.604370 865.002747,1033.401123 
	C865.002747,1070.728516 864.690308,1108.060059 865.175476,1145.381226 
	C865.341187,1158.122314 856.157349,1168.075562 844.532532,1168.128052 
	C832.185364,1168.183716 823.527222,1158.900757 823.507935,1145.282959 
	C823.455505,1108.288818 823.489624,1071.294678 823.489441,1034.300537 
	C823.489441,1032.320312 823.489441,1030.340088 823.489441,1027.780273 
	C809.257996,1027.780273 795.353821,1027.780273 780.443298,1027.780273 
	C783.686584,1016.032532 786.713013,1005.070435 789.838928,993.713623 
z"/>
<path fill="#FFFCFD" opacity="1.000000" stroke="none" 
	d="
M988.302002,1058.413574 
	C986.814758,1063.070801 985.537292,1067.375610 984.101746,1071.626953 
	C982.118103,1077.501709 976.979797,1080.411377 971.271057,1079.024292 
	C965.317627,1077.577759 961.826904,1072.323608 963.326904,1066.065308 
	C964.483215,1061.240601 966.251160,1056.529297 968.103149,1051.910278 
	C975.401550,1033.706909 982.835938,1015.557983 990.237183,997.395874 
	C990.738464,996.165771 991.434814,995.016113 991.954041,993.792236 
	C998.341919,978.735474 1009.100830,971.511902 1026.008423,972.801636 
	C1038.762451,973.774597 1051.650269,972.962158 1064.478271,973.016785 
	C1067.636230,973.030212 1070.799927,973.239990 1073.948608,973.506592 
	C1085.477051,974.482910 1092.853516,980.890259 1097.042847,991.368774 
	C1105.745117,1013.135315 1114.468628,1034.893555 1123.105591,1056.686035 
	C1126.172607,1064.424805 1121.261963,1072.674316 1113.002075,1073.817261 
	C1108.826050,1074.395020 1105.583618,1073.360352 1103.950562,1068.842896 
	C1098.075195,1052.591064 1092.035767,1036.398560 1086.057007,1020.184021 
	C1085.440674,1018.512268 1084.815674,1016.843506 1082.947632,1015.227295 
	C1082.803955,1017.189148 1082.536133,1019.151001 1082.535034,1021.112976 
	C1082.510864,1063.941406 1082.529053,1106.769775 1082.507080,1149.598145 
	C1082.501953,1159.578735 1077.005371,1166.635132 1068.362671,1167.946777 
	C1057.552856,1169.587280 1048.580811,1161.976440 1048.512085,1150.858032 
	C1048.406982,1133.860596 1048.536011,1116.861816 1048.443359,1099.864258 
	C1048.422363,1096.027466 1049.311890,1090.811768 1043.372314,1090.892700 
	C1037.386475,1090.974243 1038.574341,1096.228760 1038.554443,1100.030884 
	C1038.465942,1116.861816 1038.610962,1133.694336 1038.472534,1150.524536 
	C1038.400391,1159.288818 1033.078613,1166.016602 1025.344482,1167.780884 
	C1017.978333,1169.461304 1009.817566,1166.256836 1006.713928,1159.453735 
	C1004.990234,1155.675537 1004.276917,1151.130981 1004.259583,1146.927002 
	C1004.087097,1105.099243 1004.154907,1063.270508 1004.154846,1021.441956 
	C1004.154846,1019.452026 1004.154846,1017.462097 1004.154846,1015.472168 
	C1003.774841,1015.303894 1003.394775,1015.135620 1003.014771,1014.967346 
	C1002.195984,1016.482483 1001.116882,1017.914124 1000.599609,1019.526062 
	C996.486633,1032.343872 992.480347,1045.195923 988.302002,1058.413574 
z"/>
<path fill="#FFFCFC" opacity="1.000000" stroke="none" 
	d="
M130.201660,140.257141 
	C132.402573,138.707443 134.690063,137.691483 136.147659,135.972015 
	C141.467056,129.696945 148.274368,129.017670 155.893997,129.367584 
	C166.002335,129.831802 176.148056,129.482025 186.557312,129.482025 
	C186.557312,225.244919 186.557312,320.474030 186.557312,416.110687 
	C168.509872,416.110687 150.436661,416.110687 131.747925,416.110687 
	C131.747925,340.053558 131.747925,263.855347 131.747925,186.997620 
	C117.530785,192.102859 104.057678,196.940918 90.247086,201.900162 
	C90.247086,188.139267 90.247086,174.736969 90.247086,162.069916 
	C103.667389,154.760239 116.787384,147.614120 130.201660,140.257141 
z"/>
<path fill="#FFFEFE" opacity="1.000000" stroke="none" 
	d="
M315.791077,733.630737 
	C306.297333,751.843445 289.242950,760.843567 270.444824,757.836182 
	C253.314636,755.095642 239.020676,741.003235 236.105087,723.980713 
	C233.045090,706.114868 241.193130,688.600891 256.623260,679.877625 
	C271.787415,671.304749 291.111450,672.966492 304.269531,683.974854 
	C318.107117,695.551758 323.014069,714.310913 316.679077,731.428589 
	C316.448517,732.051575 316.185028,732.662415 315.791077,733.630737 
z"/>
<path fill="#FFFEFE" opacity="1.000000" stroke="none" 
	d="
M1159.164551,718.760742 
	C1159.155151,699.138611 1168.812134,684.105835 1185.467163,677.355530 
	C1201.020142,671.052002 1219.197876,674.870300 1231.101562,686.941284 
	C1243.785400,699.803223 1246.692627,719.632019 1238.278687,735.889832 
	C1230.057251,751.775513 1212.525635,760.554382 1194.379150,757.872314 
	C1177.056641,755.311951 1162.811646,741.200745 1159.846191,723.654602 
	C1159.596802,722.178772 1159.393433,720.695190 1159.164551,718.760742 
z"/>
<path fill="#FFFEFE" opacity="1.000000" stroke="none" 
	d="
M836.379639,718.451233 
	C849.293579,698.031494 874.473938,692.435059 893.405762,705.514038 
	C911.984314,718.348938 916.187195,744.406006 902.580933,762.397522 
	C890.242981,778.711731 867.194763,782.967102 849.824768,772.137817 
	C831.741638,760.863953 826.040771,738.563538 836.379639,718.451233 
z"/>
<path fill="#FFFEFE" opacity="1.000000" stroke="none" 
	d="
M603.519897,764.456177 
	C592.307861,750.252625 590.615173,735.225586 598.613647,719.432129 
	C605.503845,705.827148 621.012268,697.332703 635.631592,698.623291 
	C653.085327,700.164062 665.174744,709.045654 671.102112,725.553101 
	C677.485535,743.330811 670.058167,762.917908 653.734009,772.640381 
	C637.494324,782.312683 617.015747,779.068970 603.519897,764.456177 
z"/>
<path fill="#FEFBFB" opacity="1.000000" stroke="none" 
	d="
M437.849945,350.004608 
	C437.640808,364.640808 438.304718,378.858673 437.008301,392.895508 
	C435.269287,411.724396 423.710205,420.710876 404.757935,419.839417 
	C385.955109,418.974823 375.940125,410.051239 375.025940,391.232880 
	C374.138794,372.971588 374.075073,354.605011 374.905731,336.341766 
	C375.998718,312.310852 390.592468,306.001526 409.909515,307.362335 
	C428.461639,308.669250 437.345551,319.339661 437.837067,339.516418 
	C437.918121,342.844299 437.849426,346.175812 437.849945,350.004608 
M417.152527,370.500061 
	C417.117035,358.186768 417.282410,345.868439 416.971771,333.562073 
	C416.780975,326.004669 413.088898,322.384796 406.495117,322.184021 
	C399.785004,321.979706 396.245911,325.287231 395.199158,332.782623 
	C395.061584,333.767700 395.017456,334.773010 395.016876,335.768982 
	C395.006226,354.074219 394.972595,372.379578 395.054230,390.684448 
	C395.064453,392.978851 395.545135,395.306488 396.075958,397.555420 
	C397.018066,401.547119 399.702209,403.695435 403.728088,404.374237 
	C411.435455,405.673767 416.466797,401.795441 416.933868,393.457520 
	C417.342773,386.157196 417.104767,378.820618 417.152527,370.500061 
z"/>
<path fill="#FFFCFC" opacity="1.000000" stroke="none" 
	d="
M439.175232,165.023102 
	C439.119995,179.834137 439.324097,194.157990 438.869537,208.460892 
	C438.703674,213.679489 437.331329,218.956543 435.815308,223.998215 
	C434.939911,226.909454 433.120636,229.842453 430.966644,232.011368 
	C420.975464,242.071884 408.561188,241.687531 395.993835,239.131287 
	C384.792236,236.852814 379.450012,228.699936 377.114990,218.274719 
	C376.250671,214.415802 375.915344,210.371063 375.878662,206.406082 
	C375.739929,191.424164 375.801208,176.440140 375.843140,161.457062 
	C375.850586,158.800018 375.900909,156.109161 376.308350,153.492599 
	C379.285919,134.369110 390.647797,125.882042 413.846558,128.483871 
	C429.751282,130.267639 437.819183,140.189468 438.927368,157.543991 
	C439.075745,159.867630 439.094818,162.199554 439.175232,165.023102 
M414.322906,145.022064 
	C404.637787,140.195969 397.984741,143.586945 396.448608,154.170792 
	C396.234436,155.646286 396.182526,157.156006 396.180969,158.650024 
	C396.163116,175.649796 396.124847,192.649796 396.214050,209.649124 
	C396.228790,212.455719 396.569794,215.321533 397.221985,218.049530 
	C398.193695,222.113907 400.757080,224.602051 405.145966,225.230667 
	C413.879608,226.481583 418.384033,221.977829 418.456757,211.162308 
	C418.577820,193.163361 418.693848,175.158844 418.327515,157.166519 
	C418.248016,153.262070 416.121216,149.399292 414.322906,145.022064 
z"/>
<path fill="#FFFDFD" opacity="1.000000" stroke="none" 
	d="
M620.352783,310.514343 
	C630.107910,313.401733 636.269592,319.490479 637.203430,329.213623 
	C637.891663,336.380035 637.418396,343.796814 636.388855,350.947449 
	C635.492737,357.171875 631.089050,361.529510 625.067322,364.434082 
	C630.057617,382.236694 635.018494,399.934174 640.129272,418.166656 
	C633.851746,418.166656 628.034058,418.350677 622.247070,418.011749 
	C621.086792,417.943787 619.412415,416.059204 619.043213,414.718109 
	C615.247620,400.930969 611.676514,387.082062 608.028748,373.254120 
	C607.611267,371.671539 607.108032,370.111603 606.600037,368.390381 
	C603.969910,368.390381 601.507080,368.390381 598.430664,368.390381 
	C598.430664,384.775085 598.430664,401.154938 598.430664,417.849640 
	C591.422485,417.849640 585.016418,417.849640 578.300903,417.849640 
	C578.300903,381.602570 578.300903,345.345490 578.300903,307.687164 
	C592.231873,308.578613 606.107605,309.466522 620.352783,310.514343 
M616.140930,350.490967 
	C620.208008,343.675293 620.009583,336.414734 617.385437,329.385315 
	C616.487427,326.979675 613.637695,324.453339 611.152710,323.683807 
	C607.198486,322.459229 602.802368,322.661469 598.497559,322.251160 
	C598.497559,333.745880 598.497559,344.303375 598.497559,355.052124 
	C604.810242,355.193146 610.876221,355.962769 616.140930,350.490967 
z"/>
<path fill="#FFFCFD" opacity="1.000000" stroke="none" 
	d="
M364.005829,191.000000 
	C364.005829,207.144836 364.005829,222.789688 364.005829,239.158066 
	C360.034912,239.158066 356.232178,239.519226 352.565216,238.971298 
	C351.195374,238.766617 349.683685,236.635376 349.015106,235.053558 
	C341.573730,217.447205 334.288849,199.774704 326.948761,182.125458 
	C326.279053,180.515121 325.519745,178.942078 323.945709,177.505127 
	C323.945709,197.838715 323.945709,218.172302 323.945709,238.837082 
	C318.185028,238.837082 312.925751,238.837082 307.242615,238.837082 
	C307.242615,202.632309 307.242615,166.250504 307.242615,129.173264 
	C311.052124,129.173264 315.020477,128.877930 318.896515,129.346497 
	C320.118561,129.494247 321.481934,131.517685 322.121552,132.972443 
	C329.480408,149.709518 336.708740,166.503967 343.983673,183.278030 
	C344.688965,184.904251 345.473480,186.496124 346.952148,187.992859 
	C346.952148,168.658142 346.952148,149.323425 346.952148,129.574112 
	C352.778992,129.574112 358.139832,129.574112 364.005829,129.574112 
	C364.005829,149.938644 364.005829,170.219330 364.005829,191.000000 
z"/>
<path fill="#FFFBFC" opacity="1.000000" stroke="none" 
	d="
M306.821777,399.999207 
	C306.821777,369.360962 306.821777,339.222473 306.821777,309.312256 
	C320.469391,309.312256 333.787903,308.559967 346.970581,309.573883 
	C355.920715,310.262238 362.530182,316.517303 364.253204,325.391418 
	C365.774200,333.225159 366.371429,341.641113 365.241791,349.492828 
	C363.520691,361.455475 354.556366,368.231720 342.165802,369.068573 
	C337.228027,369.402100 332.276978,369.539062 326.950134,369.782959 
	C326.950134,385.818237 326.950134,401.588745 326.950134,417.766357 
	C320.193176,417.766357 313.821350,417.766357 306.821777,417.766357 
	C306.821777,412.037048 306.821777,406.267975 306.821777,399.999207 
M326.843872,336.505920 
	C326.843872,342.577332 326.843872,348.648743 326.843872,355.064423 
	C333.916504,354.517548 341.146423,356.963196 345.577484,349.950195 
	C348.694183,345.017517 348.158112,330.072571 344.729523,326.409821 
	C339.708832,321.046173 333.171326,323.353577 326.843872,322.808533 
	C326.843872,327.568268 326.843872,331.538300 326.843872,336.505920 
z"/>
<path fill="#FEFBFB" opacity="1.000000" stroke="none" 
	d="
M479.148132,380.524109 
	C483.569244,356.469696 487.862366,332.769257 492.205994,308.790222 
	C498.091217,308.790222 503.839691,308.790222 510.542603,308.790222 
	C503.138489,345.193268 495.780365,381.370178 488.299744,418.149445 
	C482.231659,418.149445 476.299103,418.273712 470.383911,418.009949 
	C469.536987,417.972168 468.283661,416.160309 468.043671,414.998962 
	C462.629211,388.797424 457.327057,362.572662 452.011414,336.350739 
	C450.492401,328.857483 448.984955,321.361816 447.501434,313.861481 
	C447.188568,312.279541 447.003876,310.672272 446.670929,308.492798 
	C452.155945,308.492798 457.125580,308.280426 462.050201,308.657196 
	C463.142975,308.740845 464.720856,310.776031 464.986786,312.126953 
	C468.775330,331.369720 472.367432,350.651093 476.030670,369.918671 
	C476.742981,373.665009 477.555420,377.392303 478.335114,381.125580 
	C478.344147,381.168945 478.556427,381.224396 478.631989,381.187744 
	C478.777283,381.117310 478.892456,380.984863 479.148132,380.524109 
z"/>
<path fill="#FFFDFD" opacity="1.000000" stroke="none" 
	d="
M481.087036,932.965881 
	C476.872803,950.711609 463.639496,960.945190 446.427826,960.135193 
	C431.309052,959.423706 418.031952,947.510376 415.947815,932.670044 
	C414.045868,919.126465 418.310608,907.886475 429.568695,900.020752 
	C440.607910,892.307983 452.658264,891.675232 464.442017,898.109619 
	C476.469727,904.677246 481.967438,915.368958 481.496216,929.078003 
	C481.456360,930.238037 481.269196,931.392883 481.087036,932.965881 
z"/>
<path fill="#FFFDFD" opacity="1.000000" stroke="none" 
	d="
M1015.040649,910.137695 
	C1026.531860,893.332458 1046.634033,889.060242 1062.306885,899.801025 
	C1077.267212,910.053467 1081.119507,930.632935 1070.910400,945.762390 
	C1061.087036,960.320251 1041.611938,964.538818 1026.281372,955.429565 
	C1010.980286,946.337891 1006.077087,927.012939 1015.040649,910.137695 
z"/>
<path fill="#FFFBFC" opacity="1.000000" stroke="none" 
	d="
M520.992310,382.000000 
	C520.992310,357.359802 520.992310,333.219574 520.992310,308.780090 
	C536.364380,308.780090 551.444275,308.780090 566.766541,308.780090 
	C566.766541,313.384216 566.766541,317.804474 566.766541,322.770874 
	C558.265137,322.770874 549.868408,322.770874 541.247925,322.770874 
	C541.247925,333.381653 541.247925,343.449646 541.247925,353.877167 
	C547.876099,353.877167 554.318298,353.877167 561.137695,353.877167 
	C561.137695,358.767639 561.137695,363.308746 561.137695,368.315125 
	C554.620667,368.315125 548.190674,368.315125 541.385864,368.315125 
	C541.385864,380.317932 541.385864,391.871124 541.385864,403.960327 
	C549.634033,403.960327 558.026306,403.960327 566.792664,403.960327 
	C566.792664,408.853333 566.792664,413.223236 566.792664,417.891235 
	C551.688171,417.891235 536.623596,417.891235 520.992310,417.891235 
	C520.992310,406.044067 520.992310,394.272034 520.992310,382.000000 
z"/>
<path fill="#FEFAFA" opacity="1.000000" stroke="none" 
	d="
M713.711914,344.480164 
	C709.750488,332.479858 705.925293,320.853180 701.854675,308.480408 
	C707.853577,308.480408 713.288147,308.275818 718.684082,308.641510 
	C719.856995,308.720978 721.449219,310.662598 721.901306,312.054199 
	C725.491821,323.108337 728.844910,334.239471 732.295532,345.339325 
	C732.776001,346.884979 733.390869,348.388855 734.370972,351.089569 
	C738.407288,337.656250 742.270020,325.422607 745.678284,313.063690 
	C746.651062,309.536438 747.956421,308.098114 751.698303,308.389679 
	C756.127075,308.734802 760.603394,308.470795 765.818237,308.470795 
	C763.541809,315.542236 761.501526,321.955536 759.412842,328.353027 
	C755.032959,341.769135 750.362183,355.098358 746.359680,368.625671 
	C744.693848,374.255890 743.888062,380.278961 743.648743,386.162354 
	C743.223877,396.606354 743.529419,407.080078 743.529419,417.859650 
	C737.020935,417.859650 730.942566,417.859650 723.667480,417.859650 
	C725.990417,392.810242 724.277893,368.174805 713.711914,344.480164 
z"/>
<path fill="#FFFBFC" opacity="1.000000" stroke="none" 
	d="
M683.177795,344.000427 
	C683.177795,368.804108 683.177795,393.107910 683.177795,417.794434 
	C676.549500,417.794434 670.139954,417.794434 663.091064,417.794434 
	C663.091064,386.648865 663.091064,355.286713 663.091064,323.422363 
	C656.708069,323.422363 650.949768,323.422363 645.023193,323.422363 
	C645.023193,318.290833 645.023193,313.668762 645.023193,308.763245 
	C663.640808,308.763245 682.058533,308.763245 700.742493,308.763245 
	C700.742493,313.529877 700.742493,318.127563 700.742493,323.436401 
	C695.095276,323.436401 689.397766,323.436401 683.177795,323.436401 
	C683.177795,330.587738 683.177795,337.044159 683.177795,344.000427 
z"/>
<path fill="#E5253C" opacity="1.000000" stroke="none" 
	d="
M417.152527,371.000061 
	C417.104767,378.820618 417.342773,386.157196 416.933868,393.457520 
	C416.466797,401.795441 411.435455,405.673767 403.728088,404.374237 
	C399.702209,403.695435 397.018066,401.547119 396.075958,397.555420 
	C395.545135,395.306488 395.064453,392.978851 395.054230,390.684448 
	C394.972595,372.379578 395.006226,354.074219 395.016876,335.768982 
	C395.017456,334.773010 395.061584,333.767700 395.199158,332.782623 
	C396.245911,325.287231 399.785004,321.979706 406.495117,322.184021 
	C413.088898,322.384796 416.780975,326.004669 416.971771,333.562073 
	C417.282410,345.868439 417.117035,358.186768 417.152527,371.000061 
z"/>
<path fill="#E5273D" opacity="1.000000" stroke="none" 
	d="
M414.630127,145.269684 
	C416.121216,149.399292 418.248016,153.262070 418.327515,157.166519 
	C418.693848,175.158844 418.577820,193.163361 418.456757,211.162308 
	C418.384033,221.977829 413.879608,226.481583 405.145966,225.230667 
	C400.757080,224.602051 398.193695,222.113907 397.221985,218.049530 
	C396.569794,215.321533 396.228790,212.455719 396.214050,209.649124 
	C396.124847,192.649796 396.163116,175.649796 396.180969,158.650024 
	C396.182526,157.156006 396.234436,155.646286 396.448608,154.170792 
	C397.984741,143.586945 404.637787,140.195969 414.630127,145.269684 
z"/>
<path fill="#E62A40" opacity="1.000000" stroke="none" 
	d="
M615.916992,350.800537 
	C610.876221,355.962769 604.810242,355.193146 598.497559,355.052124 
	C598.497559,344.303375 598.497559,333.745880 598.497559,322.251160 
	C602.802368,322.661469 607.198486,322.459229 611.152710,323.683807 
	C613.637695,324.453339 616.487427,326.979675 617.385437,329.385315 
	C620.009583,336.414734 620.208008,343.675293 615.916992,350.800537 
z"/>
<path fill="#E5263C" opacity="1.000000" stroke="none" 
	d="
M326.843872,336.007111 
	C326.843872,331.538300 326.843872,327.568268 326.843872,322.808533 
	C333.171326,323.353577 339.708832,321.046173 344.729523,326.409821 
	C348.158112,330.072571 348.694183,345.017517 345.577484,349.950195 
	C341.146423,356.963196 333.916504,354.517548 326.843872,355.064423 
	C326.843872,348.648743 326.843872,342.577332 326.843872,336.007111 
z"/>
</svg>