<svg version="1.1" id="Layer_1" xmlns="http://www.w3.org/2000/svg" xmlns:xlink="http://www.w3.org/1999/xlink" x="0px" y="0px"
	 width="100%" viewBox="0 0 1500 1500" enable-background="new 0 0 1500 1500" xml:space="preserve">
<path fill="#A21942" opacity="1.000000" stroke="none" 
	d="
M1.000000,548.000000 
	C1.000000,366.833374 1.013539,186.166718 0.906292,5.500153 
	C0.904067,1.751047 1.750628,0.906395 5.499919,0.907133 
	C502.499817,1.004945 999.499695,1.004939 1496.499634,0.907217 
	C1500.247803,0.906480 1501.093628,1.749693 1501.092896,5.499651 
	C1500.995117,502.499542 1500.995117,999.499451 1501.092773,1496.499390 
	C1501.093506,1500.246948 1500.251099,1501.093628 1496.500610,1501.092896 
	C999.500732,1500.994995 502.500793,1500.994995 5.500920,1501.092651 
	C1.754014,1501.093384 0.905497,1500.252197 0.906697,1496.500854 
	C1.007790,1180.500610 1.000000,864.500305 1.000000,548.000000 
z"/>
<path fill="#FFFEFE" opacity="1.000000" stroke="none" 
	d="
M875.162903,1127.000000 
	C875.162903,1054.003418 875.243530,981.506531 875.076050,909.010254 
	C875.050903,898.132690 878.608643,889.760254 886.699219,882.195068 
	C919.907837,851.142700 952.663086,819.605469 985.590942,788.252808 
	C1003.079895,771.600342 1020.570740,754.949646 1038.096436,738.335876 
	C1039.411621,737.089233 1040.904541,735.933960 1042.505737,735.104492 
	C1046.315918,733.130737 1049.276978,734.346558 1050.880127,738.371399 
	C1051.691284,740.407776 1051.857910,742.545349 1051.857666,744.741333 
	C1051.835571,934.565857 1051.839111,1124.390381 1051.829956,1314.214966 
	C1051.829590,1322.217529 1048.674805,1325.478516 1040.630615,1325.485107 
	C989.299683,1325.527222 937.968750,1325.524536 886.637817,1325.489746 
	C878.096252,1325.483887 875.166016,1322.325317 875.165344,1313.491089 
	C875.160828,1251.494019 875.162903,1189.497070 875.162903,1127.000000 
z"/>
<path fill="#FFFFFF" opacity="1.000000" stroke="none" 
	d="
M832.167419,1082.000000 
	C832.167419,1159.318481 832.168518,1236.137085 832.166077,1312.955566 
	C832.165771,1322.879028 829.629761,1325.496216 819.856384,1325.499023 
	C769.199463,1325.513550 718.542603,1325.515991 667.885681,1325.496460 
	C658.458130,1325.492920 655.834778,1322.774536 655.834534,1313.210938 
	C655.831543,1197.733154 655.825439,1082.255371 655.860962,966.777588 
	C655.862244,962.563599 654.723755,957.263306 659.805908,955.414978 
	C664.524475,953.698914 667.869812,957.760986 670.842346,960.771729 
	C692.376770,982.582336 713.781982,1004.520447 735.252075,1026.394653 
	C740.629211,1031.873169 740.774902,1031.851685 746.237915,1026.357056 
	C769.615173,1002.844604 792.965881,979.305664 816.367981,955.817993 
	C819.612427,952.561768 822.881226,948.061279 828.150024,950.156128 
	C833.372314,952.232422 832.136719,957.643921 832.141602,962.022278 
	C832.185730,1001.848206 832.167419,1041.674072 832.167419,1082.000000 
z"/>
<path fill="#FEFEFE" opacity="1.000000" stroke="none" 
	d="
M797.701538,906.701538 
	C780.248108,924.156067 763.050537,941.366516 745.836914,958.560852 
	C741.431519,962.961365 740.551392,962.952637 736.155151,958.557129 
	C697.268616,919.677063 658.343872,880.834900 619.586182,841.826782 
	C616.354248,838.573853 614.846069,838.106384 611.316589,841.651062 
	C548.997131,904.236877 486.507721,966.653381 424.054291,1029.105713 
	C418.129272,1035.030762 417.867004,1035.026123 411.802216,1028.962769 
	C402.492126,1019.654907 393.170288,1010.358704 383.880219,1001.030823 
	C379.772552,996.906372 379.783264,995.834351 383.981415,991.635437 
	C459.507568,916.096558 535.039978,840.564026 610.578064,765.037109 
	C614.882141,760.733704 615.587524,760.742249 619.869568,765.023438 
	C658.994385,804.141357 698.146667,843.232056 737.161316,882.459595 
	C740.035706,885.349609 741.439636,885.548340 744.434143,882.547546 
	C830.953613,795.848816 917.570618,709.247498 1004.245239,622.703918 
	C1006.631104,620.321655 1006.976379,619.107117 1004.345215,616.605286 
	C996.256470,608.914307 988.505066,600.869568 980.566223,593.019348 
	C978.816406,591.289001 977.356873,589.517822 978.150574,586.919678 
	C978.905701,584.447998 981.115234,584.162415 983.290283,583.674561 
	C1021.911865,575.011902 1060.521240,566.295105 1099.134644,557.595886 
	C1106.250732,555.992676 1108.634644,558.209961 1107.137085,565.223022 
	C1098.766479,604.419434 1090.359985,643.608215 1081.944458,682.794983 
	C1080.756226,688.328430 1077.156128,689.450256 1073.066162,685.436096 
	C1065.098022,677.615906 1057.113403,669.802185 1049.440308,661.697266 
	C1046.667358,658.768311 1045.206299,659.077393 1042.511963,661.777710 
	C976.009216,728.429077 909.415100,794.989258 842.837341,861.565735 
	C827.875244,876.527466 812.913452,891.489624 797.701538,906.701538 
z"/>
<path fill="#FFFFFF" opacity="1.000000" stroke="none" 
	d="
M609.167542,1007.000122 
	C609.167542,1108.961792 609.167847,1210.423462 609.167114,1311.885132 
	C609.167053,1323.320557 606.964233,1325.503418 595.379395,1325.504272 
	C545.398254,1325.508179 495.417145,1325.507935 445.436035,1325.501343 
	C442.278778,1325.500854 439.068909,1325.658691 436.305542,1323.689209 
	C433.243042,1321.506470 432.792542,1318.362183 432.798096,1314.859741 
	C432.854401,1279.373169 432.832397,1243.886475 432.832367,1208.399902 
	C432.832367,1171.247314 432.959351,1134.093872 432.743439,1096.942505 
	C432.689240,1087.611328 435.914307,1080.391602 442.658508,1074.009766 
	C484.498993,1034.417114 526.172852,994.648682 567.904175,954.940674 
	C576.949524,946.333984 586.002258,937.735229 595.056213,929.137573 
	C595.659302,928.564819 596.284180,928.012329 596.926575,927.484131 
	C599.299377,925.533386 601.862122,923.679932 605.055420,925.067322 
	C608.414307,926.526611 609.051697,929.775818 609.105103,933.028931 
	C609.209045,939.358154 609.164307,945.690002 609.165955,952.020752 
	C609.170593,970.180542 609.167542,988.340271 609.167542,1007.000122 
z"/>
<path fill="#FFFEFE" opacity="1.000000" stroke="none" 
	d="
M174.617462,127.555367 
	C187.805557,125.375725 200.568924,125.265625 213.293533,127.790382 
	C240.145401,133.118195 256.497894,149.551605 262.779907,175.828094 
	C266.985657,193.419785 266.549774,211.227097 261.852051,228.727707 
	C257.853455,243.623932 249.727966,255.995422 237.199814,265.538361 
	C257.670685,277.151459 266.127533,295.975922 268.998749,317.842468 
	C271.737946,338.703552 270.913574,359.398956 263.138763,379.324097 
	C254.339203,401.875458 237.883347,415.034546 214.066971,419.102936 
	C198.620117,421.741608 183.220276,421.721008 167.960876,417.970093 
	C146.734741,412.752472 131.724899,400.079620 123.994934,379.563629 
	C115.061661,355.853973 114.028397,331.399445 119.582809,306.844025 
	C123.552727,289.293488 132.635956,274.876038 149.478134,265.746185 
	C146.855042,263.306915 144.396423,261.227814 142.175232,258.920166 
	C130.985260,247.294479 124.048492,233.524460 121.917801,217.494049 
	C119.813393,201.661285 119.970116,185.896591 124.986153,170.546127 
	C132.838959,146.514359 149.460983,132.393250 174.617462,127.555367 
z"/>
<path fill="#FDFAFB" opacity="1.000000" stroke="none" 
	d="
M757.588013,380.073792 
	C757.798401,380.945435 757.734314,381.685150 758.031128,381.882782 
	C759.767761,383.039093 759.250366,381.043945 759.338928,380.660492 
	C760.911011,373.856537 762.393677,367.031342 763.841553,360.199310 
	C767.221130,344.251801 770.687195,328.320923 773.838196,312.328094 
	C774.475586,309.092651 775.812927,308.211182 778.806396,308.428680 
	C781.624634,308.633453 784.469421,308.472076 787.302551,308.472137 
	C795.042542,308.472351 795.049866,308.472321 795.179016,315.966797 
	C795.738647,348.434967 796.225830,380.904724 796.937683,413.369537 
	C797.024475,417.327698 795.922668,418.368866 792.027771,418.277710 
	C782.098877,418.045288 781.786865,418.246674 781.477844,408.469177 
	C780.925598,390.995483 780.790466,373.508698 780.465088,356.027649 
	C780.425110,353.877869 780.774536,351.683838 779.389587,348.499969 
	C777.113831,359.277679 775.025635,369.095520 772.970154,378.920135 
	C770.517334,390.644073 767.852417,402.331116 765.753662,414.118561 
	C764.648499,420.325745 760.240784,417.614502 757.000793,418.161896 
	C753.869568,418.690918 752.451233,417.590393 751.755005,414.112152 
	C747.674133,393.723236 743.251343,373.402771 738.932861,353.061523 
	C738.565796,351.332855 738.118164,349.621246 736.527954,347.982483 
	C736.527954,355.570099 736.598938,363.158508 736.512695,370.745148 
	C736.349792,385.066742 736.002441,399.386993 735.951355,413.708557 
	C735.939453,417.028931 735.226257,418.303040 731.571838,418.278748 
	C720.409668,418.204376 720.326782,418.373444 720.487366,407.371582 
	C720.949097,375.735016 721.553528,344.100281 721.890564,312.462555 
	C721.928284,308.925262 723.172180,308.286255 726.209229,308.425171 
	C730.366821,308.615356 734.563354,308.746307 738.698730,308.388672 
	C742.208801,308.085144 743.190979,309.684296 743.799988,312.715637 
	C748.287964,335.055420 752.904297,357.369385 757.588013,380.073792 
z"/>
<path fill="#FDFAFB" opacity="1.000000" stroke="none" 
	d="
M1211.171265,309.836639 
	C1214.932617,331.674438 1218.592896,353.101776 1222.375610,375.244843 
	C1224.557251,371.420380 1224.133789,367.796295 1224.588501,364.443878 
	C1226.892456,347.460541 1229.085327,330.457458 1230.922607,313.418762 
	C1231.378174,309.193970 1232.985962,308.328033 1236.843506,308.390411 
	C1248.329712,308.576294 1248.496094,308.450623 1246.907715,319.753571 
	C1242.508057,351.059540 1237.907471,382.337311 1233.542603,413.647980 
	C1233.072144,417.022552 1232.221802,418.361938 1228.446045,418.295105 
	C1216.763062,418.088318 1216.675781,418.301086 1214.662109,406.711487 
	C1211.304810,387.388794 1208.067017,368.045349 1203.988525,348.623077 
	C1202.322998,358.367310 1200.635254,368.107819 1198.997559,377.856720 
	C1196.931396,390.157776 1194.839600,402.455353 1192.914673,414.778748 
	C1192.487915,417.510071 1191.287354,418.577057 1188.640015,418.183624 
	C1188.477051,418.159393 1188.307373,418.178497 1188.140747,418.181213 
	C1175.632568,418.386200 1175.628418,418.386810 1173.826904,405.910492 
	C1169.333618,374.792053 1164.900879,343.664642 1160.276855,312.565643 
	C1159.746460,308.998199 1160.859375,308.217529 1164.066528,308.433502 
	C1168.204712,308.712189 1173.338623,307.262451 1176.228638,309.227051 
	C1178.939453,311.069702 1177.904541,316.622070 1178.418091,320.550507 
	C1180.761353,338.471191 1183.021851,356.402618 1186.311890,374.451691 
	C1187.532227,367.360107 1188.777588,360.272705 1189.967529,353.176025 
	C1192.277466,339.399292 1194.639648,325.630188 1196.770874,311.825592 
	C1197.155029,309.337036 1197.908203,308.134857 1200.445190,308.483398 
	C1203.972778,308.968048 1207.681885,307.396576 1211.171265,309.836639 
z"/>
<path fill="#FDFAFB" opacity="1.000000" stroke="none" 
	d="
M780.552246,158.527252 
	C779.273560,149.692368 778.174438,141.276596 776.881226,132.890778 
	C776.461609,130.169525 776.928162,129.147079 780.020874,129.071320 
	C793.691711,128.736359 793.503723,128.651443 795.110535,142.226532 
	C797.239746,160.215500 799.694519,178.165924 802.769165,196.159149 
	C805.166382,181.849625 807.576721,167.542282 809.954895,153.229584 
	C811.072632,146.502838 812.237366,139.780731 813.163330,133.026718 
	C813.584106,129.957443 814.904907,129.039017 818.012695,129.068497 
	C827.638611,129.159836 827.549194,129.029037 829.112244,138.512100 
	C832.087708,156.564621 835.165405,174.600342 838.248535,192.634857 
	C838.459595,193.869476 838.408691,195.306473 839.725220,196.240356 
	C842.450745,175.047531 845.222351,153.929871 847.815125,132.790283 
	C848.140442,130.137756 848.812256,128.867798 851.674683,129.119415 
	C855.958008,129.495926 861.636902,127.342201 864.165955,129.989609 
	C866.414246,132.343262 863.756653,137.788422 863.178711,141.859894 
	C858.759399,172.993469 854.313171,204.123322 849.981445,235.269073 
	C849.594666,238.050171 848.792725,239.209534 845.710571,239.262527 
	C832.896667,239.482895 833.031738,239.576721 831.013733,227.009903 
	C828.086182,208.778732 824.943298,190.582153 821.893005,172.370697 
	C821.756714,171.557297 821.704773,170.693466 820.316650,170.374557 
	C817.538330,186.885239 814.771240,203.367981 811.987915,219.847977 
	C811.073853,225.260315 809.906738,230.640869 809.269958,236.084473 
	C808.949402,238.824661 807.691162,239.146591 805.400513,239.222107 
	C792.256775,239.655487 792.137878,239.719025 790.312500,227.161179 
	C787.009705,204.439011 783.866333,181.693665 780.552246,158.527252 
z"/>
<path fill="#FDF9FA" opacity="1.000000" stroke="none" 
	d="
M985.900269,233.273376 
	C982.406006,219.836655 978.721985,206.868561 975.704529,193.747192 
	C974.578125,188.849213 971.732239,188.847015 968.135071,189.208786 
	C964.148926,189.609680 965.960938,192.767273 965.938171,194.631973 
	C965.774902,207.963120 965.690979,221.300308 965.950195,234.628403 
	C966.025879,238.521881 964.792786,239.611694 961.145935,239.225616 
	C956.079773,238.689331 949.457092,241.367477 946.306335,238.099670 
	C943.396301,235.081528 945.514160,228.561630 945.503296,223.590256 
	C945.437927,193.757507 945.537048,163.924210 945.389954,134.092026 
	C945.371033,130.249725 946.260620,128.870239 950.331726,129.058395 
	C960.305481,129.519424 970.305054,128.790100 980.287109,129.831619 
	C997.099915,131.585846 1005.543884,140.256714 1005.763916,157.211182 
	C1005.902344,167.875046 1004.945618,178.414413 994.056274,184.550201 
	C991.941345,185.741928 993.304932,187.471786 993.723267,188.970230 
	C997.970154,204.183273 1002.130310,219.421997 1006.572083,234.578110 
	C1007.650696,238.258499 1007.299866,239.681564 1003.108582,239.250946 
	C999.810120,238.912018 996.408875,238.857132 993.125488,239.262100 
	C988.621155,239.817673 986.199341,238.313324 985.900269,233.273376 
z"/>
<path fill="#FDFAFB" opacity="1.000000" stroke="none" 
	d="
M1145.535889,317.526978 
	C1150.503662,324.848450 1151.881958,332.841248 1151.965942,341.069885 
	C1152.116821,355.877472 1152.091553,370.688477 1151.951172,385.496246 
	C1151.915161,389.295563 1151.474609,393.150452 1150.702881,396.872650 
	C1147.868896,410.543060 1140.193726,417.375732 1126.338623,419.363464 
	C1120.963379,420.134644 1115.684570,419.808899 1110.464722,418.807129 
	C1098.084351,416.431305 1090.202271,407.317902 1089.164551,392.764618 
	C1087.756470,373.016235 1087.691528,353.174500 1089.161987,333.436493 
	C1090.547485,314.841827 1104.134521,305.184418 1124.407837,307.290588 
	C1132.535400,308.135010 1140.156738,310.117767 1145.535889,317.526978 
z"/>
<path fill="#FDFBFC" opacity="1.000000" stroke="none" 
	d="
M647.530151,400.353912 
	C645.993530,395.482300 645.482178,390.834839 645.395630,386.177002 
	C645.086487,369.527039 644.357727,352.842163 645.727844,336.235931 
	C647.481567,314.979553 659.264954,305.448853 680.515686,307.208771 
	C698.567566,308.703796 707.244629,317.097382 708.437622,337.209076 
	C709.530029,355.625916 709.928284,374.201508 708.086670,392.617493 
	C705.895508,414.529633 692.284546,420.342865 674.470215,419.711060 
	C661.572815,419.253693 651.609192,414.110565 647.530151,400.353912 
z"/>
<path fill="#FDFBFC" opacity="1.000000" stroke="none" 
	d="
M561.514526,323.628357 
	C563.264526,328.215668 564.266724,332.613556 564.416077,337.114868 
	C565.017639,355.257782 565.665161,373.428772 564.098083,391.535004 
	C562.251282,412.873474 549.717651,420.901733 529.916321,419.571594 
	C511.909515,418.362000 503.640778,410.477966 501.939728,392.513641 
	C500.133301,373.436493 500.402222,354.208344 501.741913,335.120117 
	C503.261627,313.467590 516.094055,306.049561 536.983887,307.353302 
	C547.974365,308.039215 557.036011,312.138336 561.514526,323.628357 
z"/>
<path fill="#FDFBFC" opacity="1.000000" stroke="none" 
	d="
M872.620117,149.698074 
	C875.519531,137.244156 882.933777,130.317978 895.282776,128.568390 
	C901.642944,127.667297 907.923523,127.817978 914.134216,129.242844 
	C925.305664,131.805786 932.791626,140.621674 933.914062,153.925964 
	C935.623230,174.185196 935.699036,194.529922 933.869324,214.782913 
	C932.486328,230.091003 923.219666,238.646439 907.962585,240.255981 
	C903.103638,240.768585 898.279724,240.593521 893.539368,239.715881 
	C881.415161,237.471191 873.889099,228.936569 872.052551,215.405853 
	C871.472412,211.132004 871.135925,206.779007 871.208069,202.470917 
	C871.480896,186.159668 870.276978,169.825424 871.922791,153.536957 
	C872.039490,152.382263 872.308716,151.242981 872.620117,149.698074 
z"/>
<path fill="#FDF9FA" opacity="1.000000" stroke="none" 
	d="
M593.529053,410.862946 
	C593.520752,418.182098 593.520752,418.182068 586.600342,418.182861 
	C576.149109,418.184082 576.149048,418.184113 576.149048,407.890167 
	C576.149048,376.404297 576.215027,344.918152 576.063965,313.432983 
	C576.045410,309.580627 576.950562,308.274323 580.984375,308.371155 
	C590.277954,308.594208 590.278564,308.381073 594.082397,317.175079 
	C601.400208,334.092682 608.723755,351.007751 616.589966,369.183289 
	C616.791443,366.807190 616.974182,365.647400 616.975464,364.487457 
	C616.993896,347.328491 617.125244,330.167633 616.884155,313.012054 
	C616.829224,309.106659 618.062927,308.355927 621.656067,308.387054 
	C633.849670,308.492706 633.851013,308.356750 633.851013,320.563904 
	C633.851074,351.549988 633.786743,382.536377 633.935547,413.521759 
	C633.953308,417.213867 633.079285,418.374115 629.261475,418.281860 
	C620.341614,418.066315 620.317322,418.285583 616.898376,410.060425 
	C610.202881,393.952240 603.537598,377.831512 596.839233,361.724487 
	C596.175781,360.129120 595.370361,358.592773 593.529114,357.255280 
	C593.529114,374.963837 593.529114,392.672363 593.529053,410.862946 
z"/>
<path fill="#FEFEFE" opacity="1.000000" stroke="none" 
	d="
M1375.170288,321.015991 
	C1375.170288,352.177094 1375.109741,382.840973 1375.251343,413.503937 
	C1375.267944,417.106720 1374.566040,418.667358 1370.654663,418.230713 
	C1365.588013,417.665070 1358.767212,420.345856 1355.864746,417.143250 
	C1353.338745,414.355988 1355.041626,407.665710 1355.014038,402.699402 
	C1354.958618,392.700714 1354.880737,382.699280 1355.067871,372.703796 
	C1355.124634,369.678833 1354.388916,368.588318 1351.220825,368.767700 
	C1346.403320,369.040405 1341.545898,369.056122 1336.730835,368.763428 
	C1333.470581,368.565247 1332.909058,369.819305 1332.939331,372.752075 
	C1333.081421,386.582581 1332.925659,400.416107 1333.064331,414.246704 
	C1333.093628,417.161865 1332.562866,418.472626 1329.283325,418.243713 
	C1324.971436,417.942810 1320.618652,418.059265 1316.291138,418.211670 
	C1313.834351,418.298187 1312.768555,417.735046 1312.775513,414.955048 
	C1312.861572,380.625366 1312.868408,346.295258 1312.766846,311.965668 
	C1312.757812,308.897675 1314.010254,308.357025 1316.617798,308.452637 
	C1320.611938,308.599060 1324.630737,308.705688 1328.610474,308.424744 
	C1332.056763,308.181427 1333.151978,309.234100 1333.088501,312.805176 
	C1332.866455,325.299988 1333.100342,337.802490 1332.932251,350.298981 
	C1332.891479,353.325897 1333.617920,354.410645 1336.781616,354.232147 
	C1341.599121,353.960358 1346.456543,353.942993 1351.271484,354.236725 
	C1354.536377,354.435883 1355.096191,353.174438 1355.060669,350.245392 
	C1354.911011,337.915100 1355.192993,325.577087 1354.888062,313.252563 
	C1354.785767,309.114624 1356.195435,307.936127 1359.941528,308.468658 
	C1360.921631,308.608002 1361.938477,308.489594 1362.938354,308.489563 
	C1375.170288,308.489227 1375.170288,308.489227 1375.170288,321.015991 
z"/>
<path fill="#FEFEFE" opacity="1.000000" stroke="none" 
	d="
M1258.126465,129.161469 
	C1268.092773,129.324219 1277.581421,128.797073 1287.053467,129.894638 
	C1301.514282,131.570251 1309.913574,138.210495 1311.247070,152.552078 
	C1313.187012,173.417130 1313.459717,194.502731 1311.081421,215.351868 
	C1309.356812,230.471710 1300.488892,237.927902 1285.320923,238.820618 
	C1275.194336,239.416626 1265.011963,239.022400 1254.857178,239.212234 
	C1252.394897,239.258286 1251.789429,238.332748 1251.793213,236.024750 
	C1251.849121,201.547012 1251.886475,167.068954 1251.772217,132.591507 
	C1251.755005,127.416252 1255.329590,129.668259 1258.126465,129.161469 
z"/>
<path fill="#FEFDFD" opacity="1.000000" stroke="none" 
	d="
M1044.680176,308.486206 
	C1049.795654,308.771484 1054.462158,308.902496 1059.003052,310.087769 
	C1069.108765,312.725525 1075.681885,318.781464 1077.362061,329.388885 
	C1078.598877,337.197662 1078.507202,344.961853 1075.953125,352.557983 
	C1074.524170,356.807648 1072.112671,360.493164 1068.142944,362.530243 
	C1065.180542,364.050323 1065.265259,365.745667 1066.033569,368.404816 
	C1070.275146,383.085205 1074.385254,397.803619 1078.528564,412.512360 
	C1079.013306,414.233246 1079.425781,415.974548 1079.990479,418.168091 
	C1073.790771,418.168091 1067.984863,418.083801 1062.183594,418.206696 
	C1059.615112,418.261078 1059.362305,416.665131 1058.877197,414.775726 
	C1055.240601,400.616516 1051.516968,386.479645 1047.812622,372.337860 
	C1046.856567,368.687866 1042.308228,366.582489 1039.059082,368.293488 
	C1037.284180,369.228119 1038.046753,370.942047 1038.040894,372.300110 
	C1037.981567,386.119659 1037.895752,399.941040 1038.082397,413.758331 
	C1038.127930,417.124054 1037.461182,418.563660 1033.780884,418.249603 
	C1029.813599,417.911072 1025.781738,417.971771 1021.803467,418.237366 
	C1018.697021,418.444763 1017.899048,417.417694 1017.923218,414.344330 
	C1018.068604,395.863586 1017.995422,377.381104 1017.995422,358.899200 
	C1017.995361,343.747375 1018.111572,328.593994 1017.913025,313.444763 
	C1017.863953,309.701630 1018.617798,308.181793 1022.737366,308.386780 
	C1029.879395,308.742188 1037.051880,308.485565 1044.680176,308.486206 
z"/>
<path fill="#FEFEFE" opacity="1.000000" stroke="none" 
	d="
M377.829498,160.999908 
	C377.829742,151.338593 377.805878,142.177185 377.852203,133.016113 
	C377.860657,131.339859 377.167694,129.099258 380.220093,129.164352 
	C392.356171,129.423172 404.575867,128.158905 416.599915,130.489517 
	C429.008728,132.894684 435.885193,139.115753 437.127350,151.657227 
	C439.227173,172.858032 439.411469,194.263199 437.086426,215.437500 
	C435.423187,230.584473 426.483826,237.949295 411.254944,238.827866 
	C401.126526,239.412216 390.942810,238.974274 380.789642,239.226822 
	C377.140533,239.317566 377.839020,237.009262 377.837982,234.956894 
	C377.825256,210.471237 377.829620,185.985565 377.829498,160.999908 
z"/>
<path fill="#FEFCFD" opacity="1.000000" stroke="none" 
	d="
M663.177856,180.742844 
	C664.312317,183.301285 665.313965,185.499832 666.315552,187.698380 
	C666.627136,187.662048 666.938660,187.625702 667.250244,187.589371 
	C667.328003,185.890640 667.471375,184.192001 667.473206,182.493179 
	C667.490479,166.170319 667.578857,149.846466 667.408752,133.525375 
	C667.372070,130.012421 668.429626,129.057877 671.905396,129.072952 
	C684.173889,129.126129 684.174500,128.993240 684.174438,141.122131 
	C684.174377,172.268829 684.109131,203.415863 684.260986,234.561813 
	C684.278931,238.250809 683.417908,239.382965 679.614624,239.274734 
	C671.045288,239.030853 671.046143,239.247253 667.678528,231.154404 
	C660.786255,214.591782 653.899902,198.026672 646.963379,181.482590 
	C646.356384,180.034851 646.222595,178.254593 644.174438,177.008545 
	C644.174438,189.091263 644.174500,200.819916 644.174377,212.548569 
	C644.174255,220.210327 644.066589,227.874374 644.230469,235.532623 
	C644.289612,238.296783 643.566589,239.436111 640.637878,239.227661 
	C637.323547,238.991745 633.969727,239.017609 630.651184,239.222610 
	C627.925354,239.391006 626.922852,238.645493 626.931396,235.692978 
	C627.030823,201.381927 627.025391,167.070389 626.938293,132.759262 
	C626.931152,129.934204 627.738892,129.129013 630.580566,129.083038 
	C640.729248,128.918808 640.751221,128.791397 644.668457,137.829407 
	C650.812805,152.005783 656.921326,166.197647 663.177856,180.742844 
z"/>
<path fill="#FEFDFD" opacity="1.000000" stroke="none" 
	d="
M1222.142334,186.751511 
	C1222.157104,168.717957 1222.225464,151.063766 1222.097290,133.410995 
	C1222.074585,130.281357 1222.753906,129.097748 1226.184937,129.070496 
	C1239.173218,128.967316 1239.172119,128.834167 1239.172119,141.902969 
	C1239.172119,172.713699 1239.098022,203.524811 1239.264404,234.334641 
	C1239.285645,238.254135 1238.274780,239.828629 1234.336914,239.200119 
	C1233.200073,239.018677 1231.977417,238.996979 1230.849609,239.203888 
	C1226.792114,239.948288 1225.166260,237.981247 1223.699829,234.339386 
	C1216.379639,216.160751 1208.711792,198.122131 1201.162109,180.035950 
	C1200.737427,179.018707 1200.276489,178.016632 1199.003906,177.068954 
	C1199.003906,178.617661 1199.003784,180.166351 1199.003784,181.715057 
	C1199.003662,199.368774 1198.871704,217.024246 1199.106567,234.674835 
	C1199.158325,238.554443 1197.982788,239.305328 1194.366821,239.262146 
	C1181.829590,239.112411 1181.827881,239.255478 1181.827881,226.553955 
	C1181.827881,195.909775 1181.909302,165.265121 1181.733032,134.621964 
	C1181.708862,130.410126 1182.472778,128.810043 1187.111450,129.034149 
	C1195.690796,129.448624 1195.684082,129.144913 1199.128784,137.110657 
	C1206.315063,153.728683 1213.524292,170.336868 1220.747437,186.938980 
	C1220.906860,187.305359 1221.344360,187.550720 1221.652100,187.852539 
	C1221.811035,187.612152 1221.969971,187.371750 1222.142334,186.751511 
z"/>
<path fill="#FDF9FA" opacity="1.000000" stroke="none" 
	d="
M987.465088,378.981873 
	C987.702820,374.417816 984.619873,375.884003 982.592957,375.513672 
	C980.413635,375.115448 976.950317,376.827423 976.272034,374.435608 
	C975.314026,371.057556 975.841980,367.197113 976.090088,363.567169 
	C976.193542,362.053589 977.946838,362.503510 979.021667,362.497742 
	C986.852661,362.455750 994.685181,362.551849 1002.514587,362.432678 
	C1005.147034,362.392578 1005.912476,363.363953 1005.897644,365.933197 
	C1005.803528,382.261627 1005.819580,398.591003 1005.883301,414.919739 
	C1005.892029,417.156158 1005.356079,418.090942 1002.868164,418.248657 
	C993.526794,418.840942 993.448669,418.888733 990.957947,409.707245 
	C988.024963,412.714874 985.879333,416.213531 982.071838,418.004486 
	C970.325623,423.529663 953.903076,418.063354 947.987854,406.506683 
	C944.563721,399.816956 943.419556,392.527527 943.341736,385.210876 
	C943.166504,368.731903 942.317444,352.223175 943.890320,335.771515 
	C946.101379,312.644562 958.811096,306.087524 978.584839,307.301666 
	C1001.271851,308.694733 1005.670227,323.796570 1005.183472,342.956085 
	C1005.146118,344.428528 1004.552734,345.023682 1003.098022,345.014435 
	C998.099548,344.982574 993.099365,344.933014 988.102844,345.036377 
	C985.863708,345.082672 985.814392,343.789886 985.804565,342.161194 
	C985.779480,338.008179 985.956482,333.866730 985.095398,329.727020 
	C984.023132,324.571381 980.552734,322.525513 975.845520,322.252472 
	C971.234131,321.984955 967.228394,323.361542 965.317993,328.122162 
	C963.989868,331.431610 963.875854,334.954498 963.868774,338.453339 
	C963.835938,354.615631 963.838135,370.778046 963.865601,386.940338 
	C963.870972,390.101776 964.070618,393.247528 964.911377,396.338531 
	C966.462524,402.041290 968.969116,404.199402 974.678589,404.543762 
	C980.240540,404.879242 984.010315,402.513184 985.840881,397.292633 
	C987.868042,391.511536 987.428284,385.466766 987.465088,378.981873 
z"/>
<path fill="#FEFDFD" opacity="1.000000" stroke="none" 
	d="
M1058.060059,176.080475 
	C1056.378540,178.646500 1057.839478,180.566803 1058.577271,182.508087 
	C1065.652222,201.122345 1072.759399,219.724350 1080.169678,239.148468 
	C1073.654663,239.148468 1067.625000,239.154816 1061.595459,239.145248 
	C1059.276245,239.141556 1059.245239,237.166046 1058.697021,235.679825 
	C1053.465942,221.499130 1048.251343,207.312347 1043.024414,193.130127 
	C1042.527588,191.782150 1041.979858,190.452988 1041.220215,188.513885 
	C1038.676758,191.986130 1037.040283,194.878342 1037.102417,198.826584 
	C1037.293457,210.981369 1037.077148,223.142334 1037.238770,235.297974 
	C1037.278809,238.315750 1036.534058,239.440887 1033.369873,239.240036 
	C1029.057007,238.966278 1024.708984,239.047897 1020.385498,239.218048 
	C1017.866821,239.317169 1016.933289,238.644775 1016.940125,235.925461 
	C1017.026733,201.450836 1017.021606,166.975861 1016.948181,132.501175 
	C1016.942566,129.889511 1017.713684,128.993774 1020.346863,129.109558 
	C1024.668701,129.299606 1029.015869,129.349075 1033.331421,129.097122 
	C1036.469360,128.913925 1037.262329,130.069321 1037.231934,133.066696 
	C1037.093994,146.680832 1037.171631,160.297150 1037.171631,173.983719 
	C1039.313232,173.905441 1039.191650,172.136337 1039.662598,171.111526 
	C1045.490845,158.433075 1051.304199,145.745880 1056.897217,132.962891 
	C1058.148193,130.103714 1059.655396,128.910294 1062.826782,129.088913 
	C1067.635376,129.359756 1072.470337,129.159698 1078.087891,129.159698 
	C1071.323242,144.981293 1064.751953,160.350845 1058.060059,176.080475 
z"/>
<path fill="#FDFAFB" opacity="1.000000" stroke="none" 
	d="
M562.847534,160.065887 
	C562.847717,169.524200 562.847717,169.524200 554.050110,169.524261 
	C543.220947,169.524338 543.228638,169.524277 543.145203,158.638779 
	C543.129883,156.641571 543.102417,154.638809 542.945068,152.649338 
	C542.446045,146.338577 539.489807,143.298691 533.684875,143.024078 
	C527.639526,142.738083 523.902527,145.572800 522.890137,151.694839 
	C522.296509,155.284698 522.070435,158.969223 522.047058,162.613541 
	C521.955200,176.936890 522.011353,191.261185 522.008240,205.585129 
	C522.007446,209.419250 522.166077,213.236206 522.976196,217.003510 
	C524.249878,222.926407 527.665405,225.671249 533.505188,225.425537 
	C538.862976,225.200104 542.301270,222.090805 542.822449,216.276352 
	C543.252258,211.479965 543.243408,206.622620 543.086975,201.803375 
	C542.991211,198.850677 543.697632,197.563110 546.922363,197.757248 
	C551.237305,198.017014 555.579529,197.836929 559.909973,197.818542 
	C561.529236,197.811676 562.858093,197.936096 562.856812,200.131180 
	C562.851257,209.292633 563.037415,218.466003 558.996704,227.049088 
	C556.466125,232.424332 552.534790,236.265091 546.870239,238.213272 
	C537.584229,241.406952 528.238892,241.495651 519.003967,238.205383 
	C508.269653,234.380890 503.478821,225.593704 502.521851,215.176834 
	C500.632294,194.607788 500.340057,173.887741 502.584106,153.357697 
	C504.640717,134.542603 516.287170,126.037125 539.051331,128.430801 
	C553.524109,129.952621 560.413452,137.579819 562.160522,152.143127 
	C562.457581,154.619080 562.621765,157.110977 562.847534,160.065887 
z"/>
<path fill="#FDFAFB" opacity="1.000000" stroke="none" 
	d="
M451.526367,358.000366 
	C451.746674,370.152039 450.972931,381.821381 451.984497,393.455933 
	C452.631500,400.897583 455.593018,404.135864 461.686005,404.549316 
	C467.502991,404.944031 471.365631,402.063660 472.008789,396.210999 
	C472.588776,390.933014 472.745453,385.589752 472.748016,380.275085 
	C472.749298,377.620972 473.573822,376.823059 476.168640,376.938141 
	C480.490967,377.129883 484.828125,377.012665 489.158691,376.979736 
	C490.767273,376.967499 492.086823,376.952087 492.037659,379.244415 
	C491.884399,386.387146 492.509979,393.571747 490.548340,400.591553 
	C486.920837,413.572601 478.051331,419.706268 462.649597,419.847717 
	C444.446533,420.014862 433.803162,411.475555 431.908691,393.382324 
	C429.861664,373.832123 429.943146,354.071198 431.791260,334.534668 
	C433.698639,314.371582 445.195068,305.783203 465.464447,307.184937 
	C482.645233,308.373108 491.647400,317.882507 492.008514,335.224457 
	C492.285706,348.535645 492.276306,348.243958 479.122253,348.667603 
	C473.734192,348.841125 472.225647,347.150696 472.719696,342.057434 
	C473.052979,338.621643 472.568329,335.082520 472.231049,331.610840 
	C471.602081,325.135773 468.783905,322.374786 462.889191,322.187042 
	C456.824219,321.993866 452.875153,325.316772 452.075684,331.545135 
	C451.695404,334.508148 451.591125,337.518768 451.549347,340.510437 
	C451.470215,346.172760 451.526398,351.836945 451.526367,358.000366 
z"/>
<path fill="#FDFBFC" opacity="1.000000" stroke="none" 
	d="
M891.131836,376.992126 
	C895.681824,377.391998 901.148926,375.131378 903.447510,378.040100 
	C905.387451,380.495087 903.990234,385.708466 903.798889,389.687897 
	C903.647522,392.835052 903.344482,396.020569 902.658569,399.088379 
	C899.900330,411.425262 893.064026,417.387695 880.410889,419.300873 
	C874.859131,420.140320 869.401978,419.893250 864.050110,418.639099 
	C851.084595,415.600830 844.795044,406.395721 843.692383,393.922058 
	C841.916870,373.836578 841.826172,353.609161 843.624634,333.559723 
	C845.287170,315.025208 855.556885,305.772095 878.207336,307.409576 
	C894.819458,308.610565 902.628723,317.288788 903.801941,334.248901 
	C904.054443,337.899109 903.805054,341.583893 904.054016,345.234528 
	C904.241028,347.975555 903.086853,348.700317 900.585022,348.546326 
	C895.460083,348.230896 888.974915,350.558197 885.570618,347.651184 
	C882.338196,344.890961 884.519714,338.254730 884.204529,333.333801 
	C883.723450,325.825928 881.142700,322.518677 874.880432,322.186829 
	C868.367432,321.841705 864.578125,325.049774 863.829590,332.311584 
	C862.340393,346.758514 863.431152,361.267365 863.216614,375.747467 
	C863.123047,382.062256 862.805725,388.397766 863.875183,394.693817 
	C865.072510,401.742279 868.403564,404.887878 874.658569,404.606750 
	C880.762451,404.332397 883.791504,400.797699 884.120056,393.497589 
	C884.277100,390.007904 884.802795,386.459991 884.376282,383.036285 
	C883.724670,377.804840 885.755127,376.098358 891.131836,376.992126 
z"/>
<path fill="#FDFBFC" opacity="1.000000" stroke="none" 
	d="
M1112.291382,223.267731 
	C1118.481567,193.056000 1124.657471,163.274811 1130.562134,133.439941 
	C1131.284058,129.791901 1132.690674,128.760101 1136.114868,129.113953 
	C1141.529175,129.673431 1148.491577,126.831932 1151.994019,130.258392 
	C1155.172485,133.367920 1154.791626,140.175873 1155.852905,145.379181 
	C1161.831421,174.693115 1167.765137,204.016190 1173.730713,233.332794 
	C1174.920166,239.178284 1174.950562,239.274139 1168.994873,239.143127 
	C1164.710938,239.048889 1159.225220,240.962921 1156.488892,238.311951 
	C1154.044922,235.944229 1154.513428,230.534836 1153.769897,226.454330 
	C1151.470337,213.832642 1151.480347,214.006104 1138.328247,213.744843 
	C1134.046387,213.659805 1132.129150,214.649811 1131.747803,219.241531 
	C1131.282227,224.849274 1129.793823,230.365158 1128.959717,235.952408 
	C1128.591064,238.422226 1127.556396,239.325211 1125.052124,239.224518 
	C1120.729736,239.050720 1116.394287,239.117737 1112.066528,239.199585 
	C1109.973022,239.239166 1109.092651,238.832184 1109.694824,236.397018 
	C1110.730713,232.208725 1111.382080,227.925400 1112.291382,223.267731 
z"/>
<path fill="#FDF9FA" opacity="1.000000" stroke="none" 
	d="
M461.026306,129.149109 
	C471.518524,129.149445 481.517303,129.237762 491.512665,129.093506 
	C494.307312,129.053192 495.184082,129.858994 495.256653,132.728516 
	C495.538025,143.853668 495.646423,143.775604 484.556702,143.885956 
	C479.760529,143.933685 473.458710,141.821106 470.564362,144.678696 
	C467.439087,147.764267 469.776276,154.129486 469.562408,159.056961 
	C469.396362,162.882111 469.737610,166.734985 469.467468,170.548203 
	C469.228424,173.922745 470.133575,175.338272 473.790131,175.063858 
	C478.098083,174.740570 482.457336,175.152390 486.778107,174.929871 
	C489.525391,174.788391 490.016205,175.858032 490.075348,178.362762 
	C490.330902,189.184937 490.416718,189.182922 479.693726,189.182922 
	C469.529175,189.182922 469.529053,189.182907 469.529205,199.363266 
	C469.529327,206.528122 469.726685,213.700668 469.447815,220.854630 
	C469.306793,224.472733 470.572235,225.362549 473.978149,225.221268 
	C480.132599,224.965942 486.307922,225.254150 492.469269,225.102524 
	C495.103271,225.037689 495.816071,225.974686 495.914581,228.550873 
	C496.321198,239.186386 496.412292,239.182968 485.733887,239.182877 
	C474.903290,239.182785 464.070190,239.052414 453.243591,239.259720 
	C449.891174,239.323914 449.074188,238.245483 449.084229,235.024384 
	C449.189728,201.199905 449.199036,167.374817 449.074768,133.550476 
	C449.061920,130.059769 450.004211,128.707397 453.538635,129.100983 
	C455.842804,129.357574 458.198761,129.149185 461.026306,129.149109 
z"/>
<path fill="#FDFBFC" opacity="1.000000" stroke="none" 
	d="
M414.528717,368.519928 
	C408.916565,368.610321 401.979584,366.711304 399.073151,369.313751 
	C395.746826,372.292114 398.212128,379.353729 398.045013,384.635437 
	C397.876495,389.961334 398.164062,395.303101 397.946411,400.625397 
	C397.827881,403.524017 398.843384,404.294861 401.619385,404.211487 
	C407.778015,404.026428 413.954163,404.343109 420.107117,404.079987 
	C423.490784,403.935303 424.263092,405.131836 424.254852,408.334839 
	C424.229462,418.177216 424.365204,418.177643 414.350220,418.177551 
	C403.521179,418.177490 392.689606,418.045044 381.864655,418.255890 
	C378.512878,418.321167 377.746979,417.229370 377.757019,414.041931 
	C377.863068,380.222351 377.872620,346.402161 377.745636,312.582703 
	C377.732971,309.208405 378.794891,308.378723 381.985321,308.417053 
	C394.645111,308.569244 407.309387,308.588562 419.968384,308.406219 
	C423.303986,308.358215 424.106964,309.426636 424.088837,312.644012 
	C424.031281,322.844727 424.169434,322.845276 414.022522,322.845734 
	C409.690918,322.845917 405.354614,322.968536 401.029510,322.801270 
	C398.575714,322.706390 397.932037,323.628967 397.964233,325.963043 
	C398.079102,334.291473 398.088806,342.623749 397.959320,350.951752 
	C397.921814,353.364166 398.690765,354.116272 401.073853,354.038330 
	C405.900055,353.880463 410.736847,354.069061 415.565704,353.958771 
	C417.648590,353.911194 418.634277,354.506775 418.543304,356.743317 
	C418.421509,359.737152 418.410187,362.744171 418.542419,365.737122 
	C418.664337,368.495911 416.968689,368.617615 414.528717,368.519928 
z"/>
<path fill="#FEFDFD" opacity="1.000000" stroke="none" 
	d="
M572.827698,139.037582 
	C572.827698,129.159607 572.827698,129.159561 582.190186,129.159622 
	C593.189331,129.159683 604.190552,129.277725 615.186340,129.085464 
	C618.329529,129.030502 619.060608,130.018127 619.080566,133.035706 
	C619.152039,143.841202 619.269775,143.734756 608.616882,143.886353 
	C603.525208,143.958786 596.724365,141.647690 593.837708,144.898468 
	C591.321289,147.732361 592.947205,154.396942 593.050354,159.362534 
	C593.156311,164.464340 590.827576,171.267578 594.024536,174.167633 
	C596.804260,176.689163 603.530151,175.235550 608.466980,174.890854 
	C612.770447,174.590393 613.744446,176.076584 613.613953,180.162598 
	C613.326477,189.165222 613.550171,189.172363 604.763794,189.172394 
	C593.003906,189.172424 593.003784,189.172424 593.003906,201.104660 
	C593.003967,207.937469 593.133728,214.773895 592.942688,221.601364 
	C592.862915,224.453201 593.771118,225.302734 596.586426,225.218445 
	C602.913574,225.029007 609.254456,225.293732 615.581360,225.101013 
	C618.479065,225.012741 619.183228,226.044159 619.240051,228.816803 
	C619.452393,239.174515 619.555481,239.172424 609.352478,239.172379 
	C598.686646,239.172348 588.015625,238.983261 577.357605,239.272095 
	C573.494934,239.376785 572.728394,238.157089 572.744873,234.523026 
	C572.888489,202.859436 572.827759,171.194901 572.827698,139.037582 
z"/>
<path fill="#FDFAFB" opacity="1.000000" stroke="none" 
	d="
M1287.999023,308.475830 
	C1293.491943,308.477203 1298.487671,308.576752 1303.477051,308.439545 
	C1306.064697,308.368378 1306.817871,309.299500 1306.915161,311.891693 
	C1307.351440,323.523102 1307.439941,323.519775 1295.711670,323.524261 
	C1289.010742,323.526825 1289.009521,323.526825 1289.009399,329.996002 
	C1289.009033,357.790985 1288.923828,385.586517 1289.105835,413.380310 
	C1289.131714,417.333374 1288.074219,418.611847 1284.172485,418.251251 
	C1280.541870,417.915710 1276.837280,417.950287 1273.199585,418.245483 
	C1269.733643,418.526794 1268.702271,417.446472 1268.735352,413.883789 
	C1268.914795,394.578766 1268.820679,375.271210 1268.820557,355.964508 
	C1268.820435,346.477600 1268.716797,336.988922 1268.879883,327.504822 
	C1268.931641,324.499542 1268.063965,323.294006 1264.957397,323.476227 
	C1261.308350,323.690308 1257.636230,323.568451 1253.975952,323.497040 
	C1252.752197,323.473175 1250.810303,324.020264 1250.701050,322.189819 
	C1250.454102,318.052521 1250.377808,313.866882 1250.748413,309.747375 
	C1250.925903,307.774841 1253.185547,308.516724 1254.544800,308.509460 
	C1265.529419,308.450745 1276.514404,308.476105 1287.999023,308.475830 
z"/>
<path fill="#FEFDFD" opacity="1.000000" stroke="none" 
	d="
M702.755249,144.172455 
	C701.451721,144.172409 700.619385,144.172394 699.787109,144.172394 
	C688.282898,144.172379 687.490112,143.163422 689.111511,131.572174 
	C689.396179,129.537125 690.284973,129.146561 692.014893,129.149094 
	C708.993591,129.173965 725.996948,128.637573 742.938232,129.433853 
	C749.342834,129.734894 744.547424,136.150696 745.702271,139.582947 
	C746.336670,141.468231 746.738281,144.457993 742.734802,144.213211 
	C739.252319,144.000290 735.723328,144.421890 732.257019,144.104004 
	C728.598022,143.768463 727.918030,145.256287 727.932617,148.609650 
	C728.057190,177.239838 727.942139,205.871094 728.082703,234.501129 
	C728.100098,238.046402 727.498962,239.654449 723.538391,239.254730 
	C719.748474,238.872238 715.867920,238.918625 712.067383,239.244598 
	C708.399780,239.559158 707.740356,238.091858 707.755188,234.738754 
	C707.881958,206.108597 707.760132,177.477264 707.910889,148.847336 
	C707.930298,145.158997 707.022827,143.503403 702.755249,144.172455 
z"/>
<path fill="#FDFBFC" opacity="1.000000" stroke="none" 
	d="
M810.822510,358.999878 
	C810.822510,343.336243 810.908386,328.171753 810.755005,313.009644 
	C810.721680,309.710907 811.341492,308.112885 815.064941,308.408569 
	C819.039124,308.724182 823.068298,308.659119 827.053589,308.423584 
	C830.239807,308.235291 830.912964,309.520874 830.904785,312.485016 
	C830.810974,346.477997 830.818176,380.471344 830.895142,414.464386 
	C830.901306,417.195496 830.257874,418.385559 827.306091,418.231354 
	C823.151611,418.014313 818.960205,417.944305 814.816772,418.249023 
	C811.360413,418.503204 810.738708,417.094574 810.760498,413.988647 
	C810.887512,395.826477 810.822632,377.662964 810.822510,358.999878 
z"/>
<path fill="#A31C44" opacity="1.000000" stroke="none" 
	d="
M216.496002,328.434082 
	C217.148407,341.072266 216.333466,353.129364 212.763016,364.822723 
	C208.726501,378.042419 196.032227,383.717499 184.136002,377.949768 
	C179.521729,375.712616 176.486160,372.031738 174.976929,367.277130 
	C168.135696,345.725220 168.196548,324.068573 175.004303,302.571503 
	C177.755249,293.884796 184.144516,289.911713 193.198547,289.839996 
	C202.551605,289.765900 208.649597,293.845245 211.973068,302.551086 
	C215.093903,310.726105 215.955521,319.322418 216.496002,328.434082 
z"/>
<path fill="#A21A43" opacity="1.000000" stroke="none" 
	d="
M213.162720,209.235367 
	C212.847092,217.547577 211.852249,225.292343 208.921722,232.640228 
	C206.155884,239.575134 201.704422,244.801315 193.605927,244.926254 
	C185.622482,245.049423 180.302841,240.479767 177.744934,233.405640 
	C171.472855,216.059662 170.356827,198.274399 176.033325,180.591095 
	C179.466263,169.896881 188.294800,165.375748 198.242462,167.935989 
	C204.315170,169.498932 207.735046,173.817001 209.905045,179.295654 
	C213.672058,188.806259 213.850250,198.751831 213.162720,209.235367 
z"/>
<path fill="#A31C44" opacity="1.000000" stroke="none" 
	d="
M977.737488,175.157257 
	C966.040222,177.763092 965.843994,177.616440 965.844116,166.680328 
	C965.844177,160.048279 965.958801,153.413330 965.790710,146.785553 
	C965.719849,143.992691 966.560852,142.895844 969.434204,143.141235 
	C975.171082,143.631180 981.768433,142.842789 984.606934,149.256821 
	C987.799316,156.470428 987.831543,164.082489 983.762939,171.223480 
	C982.568726,173.319305 980.419922,174.366577 977.737488,175.157257 
z"/>
<path fill="#A21A43" opacity="1.000000" stroke="none" 
	d="
M1123.433960,404.177094 
	C1114.438599,405.235046 1110.655151,402.720764 1109.555176,394.332520 
	C1108.845459,388.920441 1109.054565,383.375153 1109.027588,377.888733 
	C1108.964600,365.061798 1108.976929,352.234253 1109.032593,339.407257 
	C1109.044067,336.753967 1109.124268,334.055023 1109.609375,331.458710 
	C1110.876709,324.676270 1114.548096,321.798462 1120.994385,322.188019 
	C1127.093872,322.556641 1130.485474,325.807129 1131.015137,332.447113 
	C1132.049561,345.414093 1131.352173,358.416351 1131.445190,371.402527 
	C1131.498779,378.890503 1131.405884,386.391785 1130.998535,393.866302 
	C1130.744019,398.536438 1129.184937,402.746216 1123.433960,404.177094 
z"/>
<path fill="#A21A43" opacity="1.000000" stroke="none" 
	d="
M666.006592,370.000000 
	C666.010315,357.848358 665.839294,346.193268 666.071899,334.546173 
	C666.265747,324.842743 672.010498,320.348694 680.614380,322.682495 
	C685.395691,323.979401 687.816589,327.167877 687.966858,333.766693 
	C688.232056,345.411896 688.147644,357.065887 688.144592,368.716187 
	C688.142395,377.036774 688.338440,385.373962 687.887085,393.673309 
	C687.437866,401.932343 682.265747,405.709198 674.475403,404.330231 
	C670.173340,403.568756 667.715576,401.091827 666.852905,396.872620 
	C665.064941,388.128082 666.444031,379.285614 666.006592,370.000000 
z"/>
<path fill="#A21A43" opacity="1.000000" stroke="none" 
	d="
M543.990601,391.619354 
	C543.507141,396.225983 543.192993,400.478516 539.116943,402.991241 
	C532.351990,407.161591 524.142639,403.772736 522.450134,396.004913 
	C521.924988,393.594727 521.875671,391.048004 521.868713,388.563080 
	C521.821533,371.743256 521.827820,354.923218 521.862976,338.103333 
	C521.867859,335.780243 521.885254,333.411713 522.315491,331.143646 
	C523.506775,324.864105 526.834412,322.170959 532.977295,322.179657 
	C538.936707,322.188110 542.079468,324.671326 543.428833,330.771332 
	C543.889832,332.855530 543.965698,335.056732 543.970459,337.205048 
	C544.010559,355.190643 543.992981,373.176361 543.990601,391.619354 
z"/>
<path fill="#A21A43" opacity="1.000000" stroke="none" 
	d="
M913.994080,193.999878 
	C913.984253,200.825851 914.157410,207.158859 913.916016,213.476028 
	C913.642334,220.638763 910.828064,224.230133 905.342224,225.170563 
	C897.466858,226.520615 892.542175,222.793732 892.112915,214.358200 
	C891.665039,205.556305 891.855713,196.719421 891.855347,187.897842 
	C891.854858,176.745178 891.694031,165.584030 892.073669,154.442596 
	C892.369995,145.748352 897.509094,141.746292 905.484436,143.206543 
	C911.017822,144.219666 913.883911,148.154144 913.956360,155.542877 
	C914.080383,168.194138 913.992798,180.847473 913.994080,193.999878 
z"/>
<path fill="#A31C44" opacity="1.000000" stroke="none" 
	d="
M1271.997559,181.000000 
	C1271.997559,169.674423 1272.163940,158.844879 1271.905273,148.025497 
	C1271.817261,144.340866 1273.109253,143.359085 1276.437378,143.804520 
	C1278.245117,144.046494 1280.106567,143.875076 1281.919434,144.092834 
	C1287.284180,144.737198 1290.130127,147.610260 1291.098145,153.010498 
	C1292.075806,158.464859 1291.910889,163.965317 1291.814087,169.452286 
	C1291.555420,184.095535 1292.607910,198.762527 1291.193115,213.381516 
	C1290.322021,222.380966 1282.408691,227.445206 1273.550537,225.010956 
	C1270.932129,224.291397 1272.066040,222.339188 1272.055908,220.971252 
	C1271.958496,207.814743 1271.997559,194.657227 1271.997559,181.000000 
z"/>
<path fill="#A21A43" opacity="1.000000" stroke="none" 
	d="
M1056.791016,349.520935 
	C1052.323120,355.769012 1045.984741,355.130707 1039.843140,355.146606 
	C1037.779663,355.151947 1038.010498,353.687103 1038.009399,352.380737 
	C1038.001221,343.406433 1038.086670,334.430939 1037.953857,325.458618 
	C1037.915894,322.888580 1039.058594,322.576813 1041.223511,322.468597 
	C1055.349854,321.762573 1061.307739,328.821075 1058.721924,343.489166 
	C1058.379883,345.428528 1057.571289,347.285583 1056.791016,349.520935 
z"/>
<path fill="#A31C44" opacity="1.000000" stroke="none" 
	d="
M397.997406,178.000000 
	C397.997406,167.836426 398.241974,158.163773 397.884277,148.513458 
	C397.728149,144.301071 399.303558,143.342468 402.953278,143.816879 
	C404.929443,144.073761 406.978546,143.887680 408.918976,144.277985 
	C413.406586,145.180618 416.249023,147.742035 417.080139,152.506775 
	C418.236877,159.138184 417.859985,165.802094 417.796021,172.448761 
	C417.666290,185.934555 418.264313,199.422256 417.407959,212.908997 
	C416.675110,224.450165 409.047424,225.346832 399.579376,224.924118 
	C396.864838,224.802933 398.064514,222.352509 398.055389,220.986038 
	C397.961182,206.824524 397.997437,192.662140 397.997406,178.000000 
z"/>
<path fill="#A8274E" opacity="1.000000" stroke="none" 
	d="
M1138.033203,181.015076 
	C1139.263550,173.602585 1140.447144,166.622391 1141.630615,159.642212 
	C1141.955444,159.633331 1142.280273,159.624466 1142.605103,159.615585 
	C1144.404663,170.529099 1146.296021,181.428513 1147.973633,192.360733 
	C1149.228394,200.538025 1149.102173,200.407669 1140.728638,200.609283 
	C1136.621704,200.708176 1134.097778,200.531570 1135.718018,195.151733 
	C1137.042236,190.754715 1137.271606,186.027969 1138.033203,181.015076 
z"/>
</svg>