<svg version="1.1" id="Layer_1" xmlns="http://www.w3.org/2000/svg" xmlns:xlink="http://www.w3.org/1999/xlink" x="0px" y="0px"
	 width="100%" viewBox="0 0 1500 1500" enable-background="new 0 0 1500 1500" xml:space="preserve">
<path fill="#C5192D" opacity="1.000000" stroke="none" 
	d="
M1501.000000,529.000000 
	C1501.000000,851.639893 1500.991699,1173.779785 1501.094360,1495.919678 
	C1501.095581,1499.935425 1500.529541,1501.128662 1496.081177,1501.127441 
	C999.289185,1500.992065 502.497131,1500.993164 5.705156,1501.115845 
	C1.556452,1501.116943 0.895069,1500.166870 0.895946,1496.205933 
	C1.005840,999.413879 1.005476,502.621887 0.901029,5.829871 
	C0.900212,1.943436 1.444299,0.878599 5.669391,0.879683 
	C502.461365,1.007215 999.253418,1.007433 1496.045410,0.879623 
	C1500.396973,0.878503 1501.105713,1.933719 1501.102905,6.044666 
	C1500.983032,180.196381 1501.000000,354.348206 1501.000000,529.000000 
z"/>
<path fill="#FFFFFF" opacity="1.000000" stroke="none" 
	d="
M942.027100,664.047852 
	C949.845703,659.562073 957.377686,655.309631 964.809692,650.889099 
	C967.287720,649.415161 968.426819,649.502380 968.180115,652.706238 
	C968.103577,653.700134 968.169312,654.704895 968.169312,655.704712 
	C968.169312,820.338318 968.148010,984.971985 968.279846,1149.605469 
	C968.283508,1154.176758 967.121887,1156.021973 962.588989,1157.376221 
	C875.325867,1183.446533 788.126892,1209.731567 700.913391,1235.968018 
	C695.173279,1237.694702 695.164368,1237.678467 695.164368,1231.500854 
	C695.163574,1091.695557 695.186340,951.890259 695.056946,812.085083 
	C695.052979,807.788696 696.562317,805.709045 700.130676,803.653931 
	C780.699097,757.252197 861.193298,710.721741 942.027100,664.047852 
z"/>
<path fill="#FFFEFE" opacity="1.000000" stroke="none" 
	d="
M394.162598,933.999878 
	C394.162598,838.929688 394.162598,744.359497 394.162598,648.899658 
	C402.337738,653.574280 409.810059,657.809998 417.247711,662.105652 
	C497.896576,708.686096 578.515564,755.318481 659.249207,801.751465 
	C663.833130,804.387939 665.655701,807.020264 665.648621,812.490234 
	C665.466736,952.119385 665.505371,1091.748779 665.504272,1231.378174 
	C665.504211,1237.495728 665.495483,1237.505493 659.755676,1235.773804 
	C572.566345,1209.468140 485.389496,1183.120972 398.152649,1156.973999 
	C394.107117,1155.761475 394.129669,1153.575439 394.131409,1150.441162 
	C394.171875,1078.460693 394.162598,1006.480347 394.162598,933.999878 
z"/>
<path fill="#FEFBFB" opacity="1.000000" stroke="none" 
	d="
M817.931152,1227.029053 
	C875.875244,1208.324951 933.408875,1189.638062 991.027771,1171.218018 
	C995.820312,1169.685913 997.288330,1167.762573 997.283569,1162.685425 
	C997.124573,993.366821 997.151917,824.048157 997.151978,654.729431 
	C997.151978,652.773193 997.151917,650.817017 997.151917,647.710815 
	C1002.545288,651.933594 1006.805176,656.259155 1011.902039,659.063232 
	C1024.368164,665.921387 1026.911133,675.937256 1026.866333,689.764587 
	C1026.331177,854.581970 1026.497192,1019.401611 1026.642822,1184.220581 
	C1026.646973,1188.930298 1025.261963,1190.678589 1020.819397,1192.012939 
	C942.825317,1215.440308 865.504456,1241.012939 787.794250,1265.348755 
	C759.087646,1274.338745 730.459045,1283.577881 701.800232,1292.720215 
	C699.088257,1293.585571 696.313232,1293.773071 693.500305,1294.093140 
	C666.136902,1297.208252 640.993042,1287.596680 615.443359,1280.552979 
	C524.412415,1255.456909 433.440887,1230.145142 342.389648,1205.123413 
	C337.562714,1203.796753 336.371613,1201.802490 336.375000,1197.052246 
	C336.498444,1023.567383 336.495270,850.082336 336.382172,676.597412 
	C336.379395,672.319519 337.548981,669.604675 341.024323,667.049683 
	C349.169342,661.061523 356.964355,654.597351 365.848022,647.577698 
	C365.848022,650.521606 365.848022,652.419006 365.848022,654.316406 
	C365.848022,828.468018 365.872192,1002.619629 365.720093,1176.771118 
	C365.715942,1181.520264 367.141998,1183.138550 371.566437,1184.368042 
	C468.471313,1211.297485 565.230652,1238.759155 662.292664,1265.106323 
	C677.852295,1269.329956 694.413269,1267.477783 710.409180,1262.026001 
	C745.957275,1249.910278 781.812805,1238.697144 817.931152,1227.029053 
z"/>
<path fill="#FFFFFF" opacity="1.000000" stroke="none" 
	d="
M1181.000000,1080.000000 
	C1181.000000,1100.163208 1180.931885,1119.826904 1181.048218,1139.489502 
	C1181.077026,1144.369385 1180.413086,1149.021606 1179.056885,1153.711060 
	C1169.362305,1187.230591 1159.795898,1220.787354 1150.192017,1254.333130 
	C1149.884399,1255.407959 1149.961060,1256.666504 1148.463257,1257.578979 
	C1143.050903,1238.773193 1137.678223,1220.184204 1132.354126,1201.581421 
	C1127.782104,1185.606445 1123.356445,1169.588867 1118.665405,1153.649292 
	C1117.378174,1149.275391 1116.792480,1144.946899 1116.793823,1140.405518 
	C1116.838867,994.264221 1116.864502,848.122925 1116.694946,701.981873 
	C1116.688965,696.774109 1118.124023,695.795349 1122.980225,695.879333 
	C1140.638550,696.184814 1158.307495,696.149780 1175.967285,695.890198 
	C1180.162964,695.828491 1181.102661,696.933838 1181.098633,701.065796 
	C1180.977661,827.210449 1181.000000,953.355225 1181.000000,1080.000000 
z"/>
<path fill="#FEFDFD" opacity="1.000000" stroke="none" 
	d="
M134.656586,255.594971 
	C152.053864,214.727402 169.305679,174.212372 186.450180,133.651978 
	C187.700851,130.693146 189.096558,129.345886 192.596161,129.389206 
	C210.088043,129.605804 227.585892,129.623962 245.077271,129.388443 
	C249.207108,129.332840 249.924530,130.772308 249.917206,134.508606 
	C249.808060,190.157730 249.902084,245.807327 249.730698,301.456146 
	C249.716553,306.048523 250.904251,307.380676 255.437775,307.098022 
	C261.910583,306.694489 268.431641,307.134491 274.923309,306.932159 
	C277.810486,306.842194 278.597198,307.815063 278.564850,310.605713 
	C278.433502,321.933990 278.417419,333.265961 278.572693,344.593628 
	C278.614471,347.639008 277.710083,348.665802 274.620087,348.574036 
	C267.794922,348.371277 260.951050,348.715698 254.131790,348.430359 
	C250.512283,348.278900 249.741882,349.559814 249.768265,352.951904 
	C249.919876,372.444641 249.714844,391.940704 249.942032,411.431976 
	C249.991364,415.663879 248.725861,416.689453 244.635300,416.609406 
	C231.311218,416.348755 217.976974,416.389557 204.650879,416.592255 
	C201.042267,416.647125 199.845886,415.863342 199.891663,411.969330 
	C200.118881,392.644684 199.808121,373.312836 200.127167,353.990753 
	C200.206741,349.170837 198.597107,348.389832 194.293182,348.421417 
	C169.135712,348.605896 143.974930,348.383453 118.818504,348.629669 
	C114.261909,348.674225 113.140572,347.327545 113.395409,343.029205 
	C113.759621,336.886047 113.958382,330.661591 113.391693,324.549408 
	C112.153793,311.197601 115.319099,299.006775 121.107933,287.075409 
	C126.033989,276.922333 130.060349,266.332794 134.656586,255.594971 
z"/>
<path fill="#FEFDFD" opacity="1.000000" stroke="none" 
	d="
M450.887939,250.417923 
	C450.347534,252.370697 449.853058,253.957932 449.409149,255.559204 
	C447.646667,261.916687 447.649384,261.922363 442.210724,257.721558 
	C436.894653,253.615356 432.428955,248.686768 428.560730,243.233017 
	C427.178070,241.283600 425.624054,240.542908 423.195190,240.444641 
	C403.617035,239.652649 393.776733,230.256897 393.091034,210.674347 
	C392.502533,193.867966 392.557892,177.021149 392.904785,160.204102 
	C393.427612,134.857758 407.080414,125.878326 430.689362,128.456711 
	C445.993866,130.128143 453.686218,137.662521 455.362335,154.432953 
	C457.331665,174.136826 456.980560,194.058640 455.441620,213.811462 
	C454.531708,225.491058 451.621277,228.944351 441.617554,237.554871 
	C443.711517,240.584610 446.322021,243.149597 449.142151,245.475830 
	C450.673798,246.739288 451.831604,247.939774 450.887939,250.417923 
z"/>
<path fill="#FDF9F9" opacity="1.000000" stroke="none" 
	d="
M451.471375,318.096497 
	C451.471313,308.471344 451.471649,308.423767 460.627899,308.485687 
	C468.610809,308.539642 476.612030,308.409454 484.571442,308.903564 
	C501.519958,309.955780 510.324219,317.438354 511.433319,334.382660 
	C512.734619,354.263733 513.246216,374.316254 511.002716,394.192505 
	C509.333282,408.982635 500.361328,417.080475 485.442810,417.909943 
	C475.154266,418.482025 464.812042,418.026611 454.497833,418.231323 
	C450.427765,418.312134 451.505615,415.522186 451.502350,413.452850 
	C451.456818,384.492126 451.471405,355.531281 451.471313,326.570465 
	C451.471283,323.907410 451.471344,321.244354 451.471375,318.096497 
z"/>
<path fill="#FEFCFC" opacity="1.000000" stroke="none" 
	d="
M965.177551,377.000122 
	C965.177490,389.498047 965.044128,401.498352 965.259277,413.492432 
	C965.323364,417.063385 964.623779,418.400360 960.689392,418.285736 
	C951.810730,418.027130 951.803040,418.264069 948.338562,409.928284 
	C941.323730,393.049561 934.311401,376.169769 927.291382,359.293213 
	C926.811584,358.139954 926.681702,356.767517 925.006470,355.697937 
	C925.006470,373.349884 925.006470,390.606018 925.006470,407.862152 
	C925.006470,418.178741 925.006470,418.178772 914.691528,418.177612 
	C907.823242,418.176849 907.822571,418.176788 907.822571,411.376953 
	C907.822327,378.715942 907.889221,346.054596 907.734314,313.394318 
	C907.715759,309.499268 908.700195,308.287048 912.674500,308.387726 
	C921.855408,308.620239 921.871094,308.407623 925.506409,316.821075 
	C932.034180,331.928711 938.544739,347.043854 945.072937,362.151337 
	C945.769897,363.764282 946.536377,365.347229 948.213928,366.874084 
	C948.304016,365.191193 948.470337,363.508392 948.472412,361.825439 
	C948.492310,345.661560 948.569824,329.496887 948.416443,313.334473 
	C948.383728,309.885376 948.889954,308.334045 952.946411,308.374146 
	C965.175598,308.495056 965.177612,308.299255 965.177612,320.509491 
	C965.177612,339.173035 965.177551,357.836548 965.177551,377.000122 
z"/>
<path fill="#FFFDFD" opacity="1.000000" stroke="none" 
	d="
M894.001526,388.770081 
	C893.559387,392.201019 893.347046,395.214874 892.643494,398.109344 
	C889.516174,410.975250 881.947266,417.484253 868.739380,419.329010 
	C863.369629,420.079041 858.086670,419.824860 852.849304,418.850800 
	C840.656860,416.583191 833.040710,408.938690 831.647522,393.899048 
	C829.745911,373.371490 829.571289,352.595123 831.708008,332.081909 
	C833.716919,312.795746 846.454285,306.091095 866.047485,307.339386 
	C884.019043,308.484375 893.359497,318.558960 893.890198,337.365265 
	C894.368958,354.330414 894.000183,371.319489 894.001526,388.770081 
z"/>
<path fill="#FDF9F9" opacity="1.000000" stroke="none" 
	d="
M567.146973,332.000000 
	C567.147095,325.171600 567.279358,318.839233 567.088379,312.516602 
	C567.000366,309.601105 567.648438,308.228516 570.894775,308.412720 
	C575.210938,308.657593 579.551941,308.521881 583.880920,308.458099 
	C585.898926,308.428375 586.917053,309.023041 586.878601,311.289490 
	C586.415649,338.584625 588.002747,365.915131 586.022888,393.174408 
	C584.796082,410.064789 576.666077,417.746796 559.814392,419.586273 
	C554.269287,420.191528 548.857544,419.538910 543.524536,418.084747 
	C536.104980,416.061737 531.000549,411.368500 528.234070,404.242493 
	C525.921997,398.286957 524.995483,392.040680 524.992188,385.665070 
	C524.979858,361.517242 525.099487,337.368408 524.879150,313.222595 
	C524.841309,309.079834 526.196106,308.074951 529.939880,308.425659 
	C534.549255,308.857391 540.577026,306.537506 543.461853,309.282745 
	C546.625916,312.293701 544.425842,318.422913 544.476501,323.177216 
	C544.715820,345.649841 544.733032,368.124847 544.955078,390.597748 
	C544.979248,393.047607 545.517578,395.593140 546.333313,397.912903 
	C547.887268,402.331970 551.342834,404.433502 555.962769,404.419495 
	C560.608887,404.405396 563.905334,402.205933 565.488464,397.766418 
	C567.139160,393.137421 567.134521,388.287598 567.139771,383.460205 
	C567.158264,366.473450 567.146973,349.486725 567.146973,332.000000 
z"/>
<path fill="#FEF9FA" opacity="1.000000" stroke="none" 
	d="
M515.276855,129.148987 
	C520.546021,129.382782 526.822083,127.140694 529.762573,129.948059 
	C532.974365,133.014450 530.768372,139.397003 530.798584,144.318344 
	C530.924377,164.812119 530.886230,185.307175 530.829834,205.801559 
	C530.813293,211.810577 530.030090,217.727905 528.118042,223.478317 
	C525.382202,231.706451 519.999207,237.035950 511.511261,239.143799 
	C503.249146,241.195572 494.962372,241.182053 486.851318,238.737457 
	C476.522980,235.624573 471.980499,227.555511 470.193634,217.629608 
	C469.459747,213.552917 469.058258,209.361557 469.039856,205.219986 
	C468.933960,181.393478 469.077393,157.565582 468.896088,133.739975 
	C468.867523,129.981155 469.829803,128.715134 473.594635,129.077698 
	C477.061584,129.411545 480.603455,129.366623 484.080078,129.087326 
	C487.549164,128.808670 488.658569,129.954422 488.603241,133.498535 
	C488.405548,146.158737 488.483643,158.824097 488.538391,171.487152 
	C488.593079,184.142044 488.758087,196.796432 488.844116,209.451248 
	C488.863495,212.307495 489.253571,215.100662 490.082214,217.819626 
	C491.580872,222.736771 494.942139,225.167908 500.071564,225.146027 
	C505.218567,225.124069 508.378754,222.723770 509.893799,217.628693 
	C511.046722,213.751480 511.154358,209.758316 511.152893,205.751450 
	C511.144073,181.757843 511.157837,157.764221 511.135437,133.770645 
	C511.133026,131.184799 510.792084,128.476654 515.276855,129.148987 
z"/>
<path fill="#FEFBFB" opacity="1.000000" stroke="none" 
	d="
M610.729126,312.654633 
	C621.735962,305.939819 633.175598,305.756042 644.705994,309.317535 
	C653.989441,312.184967 658.187500,319.695892 659.864929,328.716705 
	C660.869934,334.121521 660.903320,339.637146 660.912415,345.145630 
	C660.916809,347.808136 659.980652,348.638794 657.435242,348.556183 
	C653.108459,348.415771 648.769653,348.402496 644.443970,348.558716 
	C641.760010,348.655609 641.026062,347.553009 641.103516,345.022858 
	C641.230713,340.865356 641.145874,336.693756 640.964722,332.536194 
	C640.670471,325.780853 637.831909,322.629120 631.890198,322.194153 
	C625.589294,321.732880 621.769348,324.842377 620.734314,331.638031 
	C620.235535,334.912811 620.056458,338.262634 620.040039,341.579987 
	C619.968323,356.073029 620.011902,370.566620 620.007568,385.060028 
	C620.006470,388.728455 620.156311,392.380066 620.932556,395.984131 
	C622.261536,402.153870 625.853149,405.013611 631.789978,404.596130 
	C637.253357,404.211945 640.507629,400.853546 640.905090,394.686096 
	C641.204590,390.038605 641.228943,385.360016 641.097412,380.703156 
	C641.021606,378.015961 641.620911,376.769775 644.632751,376.929749 
	C649.118042,377.167938 653.626038,377.037964 658.122986,376.971313 
	C659.920532,376.944702 660.866760,377.380707 660.876465,379.454834 
	C660.911621,386.961426 660.952271,394.484985 658.782654,401.744873 
	C654.984009,414.455902 643.668152,421.115601 628.524231,419.784363 
	C610.116638,418.166168 600.954163,408.826263 599.990234,390.236664 
	C599.067200,372.436859 599.085876,354.614594 600.005615,336.816010 
	C600.479980,327.635834 602.802979,319.040375 610.729126,312.654633 
z"/>
<path fill="#FEFCFC" opacity="1.000000" stroke="none" 
	d="
M582.235962,129.296692 
	C586.058838,140.033600 587.491699,151.103439 589.782593,161.976669 
	C594.853027,186.042252 599.457458,210.206024 604.528748,234.271423 
	C605.404602,238.427780 604.571899,239.682953 600.462036,239.209152 
	C595.887390,238.681778 589.984436,241.188889 587.036743,238.153336 
	C584.427917,235.466843 584.840759,229.759308 584.108765,225.354065 
	C582.197571,213.851791 582.238892,213.844925 570.797363,213.845230 
	C563.195557,213.845428 563.232361,213.851425 562.025940,221.254181 
	C561.224060,226.173965 560.183716,231.057159 559.477600,235.989304 
	C559.131836,238.404358 558.231628,239.366669 555.680359,239.235199 
	C551.528931,239.021286 547.354553,239.068268 543.197388,239.217010 
	C540.587402,239.310410 539.711487,238.701660 540.300293,235.842133 
	C547.372192,201.497208 554.354431,167.133713 561.270203,132.756989 
	C561.825562,129.996216 562.845398,128.904831 565.833557,129.074020 
	C571.145020,129.374756 576.484497,129.179855 582.235962,129.296692 
z"/>
<path fill="#FEFCFC" opacity="1.000000" stroke="none" 
	d="
M692.532410,393.111572 
	C689.566406,399.566833 689.178650,406.396057 688.083801,413.047577 
	C687.419067,417.086151 686.047729,418.815765 681.766174,418.262695 
	C678.489990,417.839508 675.105347,418.017822 671.787476,418.225250 
	C668.718201,418.417114 667.864929,417.819000 668.585266,414.395172 
	C673.683838,390.161621 678.517273,365.872284 683.431946,341.600067 
	C685.345032,332.152161 687.341858,322.719727 689.108459,313.244415 
	C689.733582,309.891693 690.775024,308.017395 694.765320,308.388031 
	C700.039612,308.878021 706.589661,306.841888 710.350220,309.308441 
	C714.209290,311.839600 713.313965,318.996796 714.376221,324.143341 
	C720.591125,354.256287 726.652466,384.401001 732.850586,414.517487 
	C733.444275,417.402252 732.758972,418.390076 729.760193,418.229980 
	C725.774536,418.017151 721.764282,418.059204 717.773743,418.220215 
	C715.255554,418.321838 714.315430,417.392975 713.967285,414.887817 
	C713.120605,408.795319 711.799072,402.768616 710.961243,396.675171 
	C710.560913,393.764252 709.417175,392.766663 706.464478,392.940491 
	C701.983032,393.204254 697.475342,393.022614 692.532410,393.111572 
z"/>
<path fill="#FFFEFE" opacity="1.000000" stroke="none" 
	d="
M1139.700439,605.423767 
	C1160.008423,600.057495 1177.872437,613.210327 1180.331665,630.269409 
	C1182.186279,643.134033 1180.694336,656.200928 1180.994507,669.173523 
	C1181.043823,671.297424 1179.528076,670.994263 1178.232056,670.994751 
	C1158.744507,671.002197 1139.256714,670.955811 1119.769653,671.053467 
	C1117.200562,671.066345 1116.774170,670.045654 1116.792725,667.812927 
	C1116.888306,656.321228 1116.597534,644.820923 1116.937378,633.338257 
	C1117.306396,620.872314 1126.208618,610.171204 1139.700439,605.423767 
z"/>
<path fill="#FDF7F8" opacity="1.000000" stroke="none" 
	d="
M429.778015,353.982483 
	C434.608734,353.101746 435.398529,355.176636 435.287537,359.143524 
	C435.024811,368.532135 435.225006,368.537750 425.897858,368.537781 
	C414.858917,368.537811 414.858917,368.537811 414.858948,379.723938 
	C414.858978,386.388092 415.039062,393.059174 414.784058,399.713562 
	C414.654358,403.097595 415.454041,404.410553 419.107269,404.226044 
	C425.255890,403.915466 431.434174,404.244049 437.594788,404.093079 
	C440.127686,404.031036 440.999054,404.711639 441.091858,407.408813 
	C441.463104,418.196472 441.570679,418.192810 430.701660,418.192749 
	C420.039001,418.192688 409.375275,418.109650 398.714355,418.245605 
	C395.714264,418.283844 394.359772,417.809875 394.375244,414.246948 
	C394.522156,380.426910 394.516693,346.605835 394.384521,312.785706 
	C394.370270,309.141754 395.632172,308.350281 398.989136,308.395447 
	C411.482147,308.563568 423.980652,308.579712 436.472992,308.387543 
	C439.968964,308.333740 440.981812,309.370270 440.944611,312.871185 
	C440.838531,322.857178 440.996979,322.858856 431.070404,322.858917 
	C427.238525,322.858948 423.390259,323.078583 419.579529,322.794739 
	C416.050934,322.531860 414.556854,323.315552 414.755707,327.316742 
	C415.119141,334.629242 415.043793,341.979462 414.779388,349.300476 
	C414.651184,352.849701 415.329834,354.522400 419.320801,354.060150 
	C422.608826,353.679291 425.976013,353.982452 429.778015,353.982483 
z"/>
<path fill="#FEFCFD" opacity="1.000000" stroke="none" 
	d="
M757.892090,130.209946 
	C763.545471,128.160065 769.179565,129.459442 774.733276,129.250778 
	C777.264282,129.155685 777.051086,131.810013 777.548523,133.375793 
	C781.517761,145.869278 785.351562,158.405777 789.650940,172.299286 
	C791.669800,165.716110 793.327454,160.399261 794.929382,155.065674 
	C797.175842,147.585693 799.532532,140.133301 801.526306,132.585709 
	C802.286743,129.706894 803.686401,128.944641 806.436340,129.104767 
	C810.088135,129.317383 813.775330,129.354492 817.421814,129.100571 
	C820.901245,128.858292 821.211365,129.913254 820.174194,133.028580 
	C813.563110,152.887344 807.230164,172.838837 800.591797,192.688278 
	C799.287903,196.587158 798.963562,200.429749 798.986084,204.436722 
	C799.044128,214.762695 798.872253,225.091934 799.084961,235.413849 
	C799.150574,238.597305 798.129272,239.424530 795.134033,239.234558 
	C791.318604,238.992599 787.461975,238.971710 783.650085,239.239731 
	C780.529175,239.459152 779.705505,238.395523 779.753479,235.330368 
	C779.930786,224.007538 779.778320,212.679947 779.858582,201.354904 
	C779.876648,198.811127 779.464661,196.413437 778.676880,194.028549 
	C771.800537,173.212265 764.937561,152.391541 758.066956,131.178421 
	C757.946167,130.656067 757.829102,130.527435 757.892090,130.209946 
z"/>
<path fill="#FDF6F7" opacity="1.000000" stroke="none" 
	d="
M770.541565,414.482330 
	C770.570862,416.640259 770.716064,418.432312 768.112915,418.185883 
	C767.783447,418.154694 767.447327,418.200165 767.114746,418.192810 
	C761.641357,418.071838 754.637268,419.938690 751.138489,417.248016 
	C747.841248,414.712463 750.203247,407.297760 750.182007,402.039764 
	C750.082458,377.401550 750.049377,352.762054 750.230530,328.124756 
	C750.258423,324.322357 749.182983,322.966797 745.490662,323.512268 
	C744.187317,323.704834 742.823547,323.636841 741.501404,323.523743 
	C738.407043,323.259064 733.823242,325.025848 732.531860,322.768921 
	C730.482300,319.187073 731.924805,314.362091 731.878357,310.064484 
	C731.859558,308.324982 733.252075,308.473694 734.395691,308.472900 
	C751.376343,308.460938 768.376221,308.001038 785.327576,308.705353 
	C791.537598,308.963379 787.045898,315.067139 788.014526,318.340240 
	C788.516663,320.036713 789.826904,323.727356 785.258789,323.560486 
	C782.099976,323.445068 778.907288,323.798248 775.776917,323.479126 
	C771.697449,323.063171 770.414429,324.374756 770.443176,328.632507 
	C770.635193,357.098846 770.542542,385.567047 770.541565,414.482330 
z"/>
<path fill="#FDF7F8" opacity="1.000000" stroke="none" 
	d="
M757.581543,130.019272 
	C758.084839,130.190689 758.087769,130.360443 758.072021,130.657532 
	C754.892395,133.133850 756.662964,136.482971 756.680237,139.268875 
	C756.703735,143.044846 755.844666,144.601410 751.752563,144.287476 
	C747.645569,143.972412 742.167542,142.888535 739.696289,144.981888 
	C737.070618,147.206085 738.903992,152.837875 738.892700,156.972244 
	C738.822876,182.635513 738.714844,208.300598 738.988464,233.961121 
	C739.038025,238.605469 737.582642,239.692032 733.414429,239.252060 
	C730.447815,238.938934 727.385010,238.894821 724.430359,239.259430 
	C719.768799,239.834671 718.277649,238.473572 718.329102,233.450302 
	C718.612244,205.789993 718.351929,178.124390 718.570984,150.462906 
	C718.609070,145.650146 717.715393,143.125290 712.399841,144.169388 
	C711.597595,144.326965 710.737732,144.191330 709.904480,144.191315 
	C700.098694,144.191162 700.313843,144.185211 700.040527,134.292404 
	C699.925354,130.125381 701.101440,128.973358 705.279724,129.041687 
	C720.773621,129.295059 736.274231,129.137772 751.772278,129.149200 
	C753.585083,129.150543 755.462280,128.849121 757.581543,130.019272 
z"/>
<path fill="#FDF7F8" opacity="1.000000" stroke="none" 
	d="
M647.996094,225.142563 
	C649.824524,225.142563 651.157593,225.142548 652.490662,225.142548 
	C661.940674,225.142548 661.747314,225.146790 661.952820,234.553909 
	C662.034668,238.301117 661.015991,239.354919 657.243164,239.282684 
	C644.583679,239.040314 631.914978,239.077789 619.253723,239.266495 
	C615.928406,239.316055 615.065430,238.301346 615.075867,235.051483 
	C615.184570,201.225296 615.190491,167.398453 615.070312,133.572342 
	C615.058044,130.124832 615.918274,128.804260 619.501404,129.074265 
	C623.478027,129.373917 627.520447,129.426498 631.486633,129.064438 
	C635.583679,128.690430 635.578979,130.927200 635.572205,133.895370 
	C635.509644,161.056427 635.535461,188.217697 635.535583,215.378906 
	C635.535583,225.142548 635.535583,225.142532 645.501038,225.142548 
	C646.167603,225.142548 646.834167,225.142563 647.996094,225.142563 
z"/>
<path fill="#FCF3F4" opacity="1.000000" stroke="none" 
	d="
M816.553589,337.000305 
	C816.553528,362.794098 816.463135,388.088501 816.647278,413.380920 
	C816.676086,417.340851 815.572449,418.613342 811.675110,418.274963 
	C807.876404,417.945160 804.011353,417.992157 800.203918,418.267334 
	C796.974609,418.500732 796.380066,417.195831 796.388062,414.258942 
	C796.480530,380.312317 796.478149,346.365265 796.393494,312.418610 
	C796.386047,309.432526 797.187256,308.114532 800.322205,308.418915 
	C805.560730,308.927490 812.241943,306.206268 815.679626,309.568390 
	C818.667969,312.491058 816.369080,319.064362 816.526611,324.020752 
	C816.658691,328.176697 816.553650,332.340179 816.553589,337.000305 
z"/>
<path fill="#FFFFFF" opacity="1.000000" stroke="none" 
	d="
M671.999634,175.000000 
	C671.999695,160.673355 672.086426,146.845749 671.932312,133.020813 
	C671.898315,129.972885 672.695862,128.821548 675.831421,129.120300 
	C681.079834,129.620361 687.939941,126.955597 691.146973,130.236649 
	C693.689697,132.838028 691.978516,139.695190 691.984009,144.662842 
	C692.016968,174.648300 691.925598,204.634247 692.094421,234.618774 
	C692.115662,238.388000 691.157104,239.631149 687.416260,239.237015 
	C684.285828,238.907227 681.056641,238.865768 677.936584,239.240875 
	C673.301453,239.798126 671.768494,238.507187 671.859131,233.469406 
	C672.206482,214.151688 671.999634,194.823975 671.999634,175.000000 
z"/>
<path fill="#C51A2E" opacity="1.000000" stroke="none" 
	d="
M199.997849,296.967133 
	C199.997849,306.997864 199.997849,306.997864 190.441132,306.997864 
	C179.452408,306.997864 168.463684,306.997864 156.763229,306.997864 
	C170.951096,267.314697 184.993744,228.037643 199.036407,188.760605 
	C199.356888,188.809860 199.677368,188.859116 199.997849,188.908371 
	C199.997849,224.763306 199.997849,260.618225 199.997849,296.967133 
z"/>
<path fill="#C72134" opacity="1.000000" stroke="none" 
	d="
M435.526550,188.000305 
	C435.514557,196.664169 435.769745,204.839478 435.420593,212.988892 
	C435.017242,222.404022 430.470703,226.346069 422.378143,225.282791 
	C418.023438,224.710617 415.467163,222.350098 414.266388,218.290634 
	C414.031738,217.497406 413.847778,216.665665 413.803741,215.842941 
	C412.682220,194.883408 412.609558,173.905777 413.819672,152.964676 
	C414.246521,145.578186 418.195709,142.776855 424.966095,143.010681 
	C431.305725,143.229599 434.754028,146.218063 435.109528,153.541016 
	C435.658112,164.840897 435.426971,176.178619 435.526550,188.000305 
z"/>
<path fill="#C5192D" opacity="1.000000" stroke="none" 
	d="
M471.852936,344.000153 
	C471.853210,337.838379 472.011139,332.170410 471.788879,326.517365 
	C471.673737,323.588776 472.702637,322.666473 475.475647,322.983917 
	C477.618134,323.229218 479.824341,323.003723 481.943817,323.347626 
	C487.621216,324.268799 490.683868,327.202545 490.942200,332.984222 
	C491.848755,353.276245 491.999756,373.590485 490.846710,393.873199 
	C490.415802,401.453094 479.703735,407.129120 472.945343,403.902924 
	C471.070709,403.007965 471.898499,401.283539 471.894135,399.952332 
	C471.833649,381.468414 471.853027,362.984222 471.852936,344.000153 
z"/>
<path fill="#C72134" opacity="1.000000" stroke="none" 
	d="
M873.527588,361.000366 
	C873.523560,371.498718 873.714417,381.502014 873.460876,391.494019 
	C873.206543,401.516357 868.475342,405.797455 860.067444,404.403778 
	C855.510315,403.648407 852.492798,400.993561 852.154663,396.637970 
	C850.438965,374.539337 850.431030,352.397980 852.135986,330.307587 
	C852.583069,324.514435 856.807373,322.004456 862.823486,322.157410 
	C868.776794,322.308746 872.190063,324.982086 872.983643,331.050049 
	C874.261719,340.823181 873.270691,350.682281 873.527588,361.000366 
z"/>
<path fill="#C82639" opacity="1.000000" stroke="none" 
	d="
M578.909546,193.936432 
	C579.826965,200.544662 579.826965,200.544678 573.313843,200.546722 
	C572.648254,200.546936 571.967773,200.455688 571.319397,200.561218 
	C566.552124,201.337219 565.406433,199.488663 566.282959,194.830826 
	C568.524841,182.917038 570.328308,170.920746 573.014771,158.818466 
	C574.960632,170.385117 576.906494,181.951767 578.909546,193.936432 
z"/>
<path fill="#C82639" opacity="1.000000" stroke="none" 
	d="
M705.563904,364.442566 
	C706.174011,368.147003 706.251526,371.565948 707.263245,374.681549 
	C708.889343,379.689270 706.601013,380.043640 702.530701,379.935333 
	C693.807983,379.703217 693.707581,379.858337 694.996094,371.455505 
	C696.681335,360.464691 698.537048,349.500000 701.228394,338.383667 
	C702.635803,346.929443 704.043152,355.475189 705.563904,364.442566 
z"/>
</svg>