<svg version="1.1" id="Layer_1" xmlns="http://www.w3.org/2000/svg" xmlns:xlink="http://www.w3.org/1999/xlink" x="0px" y="0px"
	 width="100%" viewBox="0 0 1500 1500" enable-background="new 0 0 1500 1500" xml:space="preserve">
<path fill="#FD6925" opacity="1.000000" stroke="none" 
	d="
M1501.000000,510.000000 
	C1501.000000,840.639221 1501.000000,1170.778442 1501.000000,1500.958740 
	C1001.069031,1500.958740 501.138062,1500.958740 1.103541,1500.958740 
	C1.103541,1001.110596 1.103541,501.221222 1.103541,1.165902 
	C500.999969,1.165902 1001.000000,1.165902 1501.000000,1.165902 
	C1501.000000,170.528961 1501.000000,340.014465 1501.000000,510.000000 
M634.525635,628.041199 
	C613.347778,640.285950 592.296875,652.758911 570.921265,664.648193 
	C563.705688,668.661621 561.025818,673.860229 561.050110,681.940857 
	C561.247375,747.598083 561.101990,813.256348 561.285461,878.913574 
	C561.298523,883.603760 559.670349,885.914734 555.793457,888.142334 
	C498.941956,920.809753 442.232025,953.723816 385.325562,986.294617 
	C378.212921,990.365601 375.344727,995.362427 375.370026,1003.506226 
	C375.582916,1071.996338 375.611084,1140.487793 375.342896,1208.977417 
	C375.308502,1217.753662 378.401611,1222.971191 386.004028,1227.318481 
	C445.668396,1261.436523 505.165497,1295.847656 564.618530,1330.333252 
	C570.981995,1334.024292 576.414490,1333.936035 582.757019,1330.254517 
	C639.753235,1297.171143 696.882385,1264.316650 753.895813,1231.262817 
	C757.733459,1229.037842 760.566772,1228.698486 764.642517,1231.067627 
	C821.619568,1264.182739 878.756836,1297.022339 935.737976,1330.130493 
	C942.453613,1334.032715 948.118835,1333.895264 954.789612,1330.021973 
	C1014.659912,1295.259277 1074.626343,1260.661499 1134.657349,1226.176880 
	C1140.697876,1222.706909 1143.286255,1218.319458 1143.269897,1211.303345 
	C1143.108276,1141.646484 1143.087036,1071.988892 1143.295288,1002.332214 
	C1143.317627,994.855835 1140.523438,990.365845 1134.182007,986.727112 
	C1076.877686,953.845886 1019.706055,920.733093 962.415649,887.827271 
	C958.790894,885.745300 957.399231,883.522339 957.408508,879.275208 
	C957.552063,813.284485 957.427429,747.293030 957.617920,681.302490 
	C957.640320,673.564514 954.929382,668.685059 948.165222,664.806396 
	C887.964539,630.285583 827.882507,595.557678 767.833862,560.772522 
	C762.010376,557.399109 756.849670,557.343872 751.014160,560.736328 
	C712.455750,583.152405 673.800049,605.401062 634.525635,628.041199 
M214.828598,300.750488 
	C214.828568,311.082520 215.334518,321.446106 214.692230,331.738037 
	C213.990204,342.987732 212.732040,354.262054 210.739914,365.350189 
	C209.493866,372.285583 204.922653,377.141510 197.213287,378.151001 
	C183.479691,379.949280 175.861008,374.089478 174.088104,359.915527 
	C173.392288,354.352753 173.070541,348.743195 172.584839,343.227509 
	C155.320602,343.227509 138.276825,343.227509 120.356934,343.227509 
	C121.272568,352.283508 121.708740,360.930084 123.086205,369.424011 
	C127.552162,396.962646 142.648804,413.252625 170.001465,418.123840 
	C181.980408,420.257111 194.575165,420.548737 206.744888,419.667847 
	C234.685211,417.645386 253.845322,403.273682 263.066162,376.302155 
	C268.402466,360.693115 270.882080,344.637939 270.950989,328.241516 
	C271.110657,290.246643 271.304230,252.246719 270.813141,214.257507 
	C270.670197,203.200958 269.302338,191.918472 266.673309,181.186035 
	C261.164307,158.696716 249.571243,140.376968 226.822937,131.452454 
	C213.537170,126.240242 199.599319,125.217682 185.528336,126.203300 
	C152.548264,128.513412 130.755371,145.823792 122.215889,177.674194 
	C119.097160,189.306381 117.515900,201.531097 116.773499,213.580383 
	C115.464218,234.830368 117.301407,255.839310 126.041061,275.723206 
	C134.039871,293.921570 147.397903,305.313080 167.419144,307.580261 
	C184.769409,309.545013 201.380219,307.946259 214.828583,292.945007 
	C214.828583,295.993713 214.828583,297.917480 214.828598,300.750488 
M489.415863,306.469330 
	C482.297913,306.469330 475.179962,306.469330 467.883057,306.469330 
	C467.883057,343.431976 467.883057,379.793030 467.883057,415.797638 
	C480.097046,415.797638 491.971680,416.649536 503.670227,415.578278 
	C517.740723,414.289795 526.059509,405.999603 526.862305,391.794403 
	C527.959961,372.371613 528.415771,352.806763 527.365967,333.399139 
	C526.383606,315.239471 517.702820,308.082916 499.368927,306.823242 
	C496.380981,306.617950 493.381317,306.583099 489.415863,306.469330 
M1022.518677,347.891449 
	C1022.960876,342.935669 1023.895874,337.965546 1023.752502,333.026764 
	C1023.329285,318.448730 1016.625122,310.668304 1002.409851,307.743683 
	C999.331909,307.110474 996.156860,306.694641 993.019836,306.649963 
	C983.279846,306.511200 973.536621,306.599182 963.804688,306.599182 
	C963.804688,343.553070 963.804688,379.777618 963.804688,416.214233 
	C970.550659,416.214233 976.957031,416.214233 984.073242,416.214233 
	C984.073242,399.388672 984.073242,382.869202 984.073242,366.415161 
	C992.284058,365.935547 992.274658,365.938019 994.089539,372.855865 
	C997.590210,386.199188 1001.041016,399.556427 1004.701233,412.855896 
	C1005.085266,414.251160 1006.674133,416.272919 1007.806580,416.342865 
	C1013.564697,416.698578 1019.356628,416.506866 1025.871948,416.506866 
	C1020.722961,398.111572 1015.776245,380.438904 1010.863647,362.888153 
	C1018.890503,357.057037 1020.026123,355.620911 1022.518677,347.891449 
M721.703247,306.473938 
	C719.614746,306.473938 717.526245,306.473938 715.474792,306.473938 
	C715.474792,343.542419 715.474792,379.769897 715.474792,416.190369 
	C722.201538,416.190369 728.600403,416.190369 735.617371,416.190369 
	C735.617371,399.474213 735.617371,383.081665 735.617371,366.805908 
	C743.786926,365.488525 743.792358,365.487091 745.679504,372.577118 
	C746.149963,374.344574 746.555176,376.129395 747.020508,377.898254 
	C750.396973,390.732483 753.781250,403.564606 757.100220,416.159424 
	C763.996765,416.159424 770.401428,416.159424 777.195007,416.159424 
	C776.850830,414.632935 776.652344,413.525787 776.350342,412.447571 
	C772.090637,397.239105 767.761719,382.049530 763.627625,366.807068 
	C763.191772,365.200073 763.234741,362.241913 764.148865,361.675751 
	C775.362915,354.730194 775.850769,343.714264 775.158813,332.563507 
	C774.147644,316.269226 765.903137,308.126373 749.611572,307.063385 
	C740.652649,306.478821 731.644775,306.645844 721.703247,306.473938 
M488.784882,143.950958 
	C485.840393,135.996521 480.239655,130.258255 471.973785,129.244934 
	C458.547150,127.598938 444.959961,127.263039 431.126526,126.353493 
	C431.126526,164.055634 431.126526,200.390778 431.126526,236.730469 
	C443.034271,236.730469 454.718994,237.599869 466.218567,236.512039 
	C480.836273,235.129257 489.043518,227.501114 489.975433,212.825409 
	C491.258331,192.622437 490.546509,172.289276 490.530396,152.012024 
	C490.528473,149.578598 489.536926,147.145966 488.784882,143.950958 
M1329.765137,388.889557 
	C1331.872437,397.103516 1333.886475,405.343781 1336.189331,413.502533 
	C1336.527710,414.701447 1338.198364,416.312653 1339.321289,416.369324 
	C1345.077759,416.659698 1350.856689,416.503693 1357.243530,416.503693 
	C1352.070801,398.023132 1347.084717,380.209381 1342.070801,362.296173 
	C1348.535400,359.565063 1352.548706,354.881989 1353.491089,348.737305 
	C1354.561401,341.759430 1354.992065,334.489594 1354.310181,327.481964 
	C1353.269531,316.787964 1346.328979,309.765900 1336.079102,308.367645 
	C1322.662720,306.537476 1308.992310,306.568146 1295.185547,305.784424 
	C1295.185547,343.343109 1295.185547,379.621368 1295.185547,416.077271 
	C1301.841187,416.077271 1308.358154,416.077271 1315.438477,416.077271 
	C1315.438477,399.244110 1315.438477,382.843018 1315.438477,366.512177 
	C1323.662720,365.776184 1323.674438,365.773102 1325.614014,373.140808 
	C1326.926392,378.126373 1328.200073,383.122101 1329.765137,388.889557 
M1387.199097,219.395355 
	C1389.239502,224.308853 1391.162720,229.276718 1393.400146,234.098862 
	C1393.982788,235.354721 1395.465088,236.895630 1396.673096,237.026917 
	C1400.251465,237.415741 1403.899170,237.166016 1407.696899,237.166016 
	C1407.696899,200.321991 1407.696899,163.955688 1407.696899,127.464172 
	C1402.146118,127.464172 1396.912598,127.464172 1390.977783,127.464172 
	C1390.977783,147.173431 1390.977783,166.580399 1390.977783,185.987350 
	C1389.362549,184.397507 1388.610474,182.752380 1387.890747,181.093262 
	C1380.679321,164.469513 1373.530396,147.818130 1366.176880,131.257492 
	C1365.445190,129.609604 1363.627441,127.603233 1362.051636,127.341614 
	C1358.509155,126.753487 1354.802124,127.157196 1350.820068,127.157196 
	C1350.820068,163.935043 1350.820068,200.325043 1350.820068,236.900604 
	C1356.468018,236.900604 1361.883301,236.900604 1367.930176,236.900604 
	C1367.930176,216.336929 1367.930176,196.045029 1367.930176,175.753143 
	C1368.281860,175.698059 1368.633545,175.642975 1368.985229,175.587891 
	C1374.972778,189.949142 1380.960205,204.310394 1387.199097,219.395355 
M913.867004,211.735825 
	C916.917542,219.111832 919.896423,226.519073 923.085144,233.834854 
	C923.653748,235.139191 925.002808,236.888824 926.145752,237.013000 
	C929.869873,237.417572 933.665405,237.164536 937.402954,237.164536 
	C937.402954,200.124237 937.402954,163.764038 937.402954,127.540283 
	C931.697693,127.540283 926.451294,127.540283 920.845581,127.540283 
	C920.845581,147.317078 920.845581,166.701843 920.845581,186.086609 
	C919.441223,184.832291 918.700928,183.435638 918.074341,181.989700 
	C910.733032,165.049576 903.312927,148.142303 896.165955,131.120392 
	C894.835205,127.950874 893.183655,126.765335 889.852722,127.086685 
	C886.937012,127.367973 883.972656,127.145393 880.866211,127.145393 
	C880.866211,164.101120 880.866211,200.470139 880.866211,236.882050 
	C886.526306,236.882050 891.782776,236.882050 897.780273,236.882050 
	C897.780273,216.328125 897.780273,196.067932 897.780273,175.807724 
	C898.133240,175.771759 898.486267,175.735779 898.839233,175.699814 
	C903.751465,187.476196 908.663635,199.252594 913.867004,211.735825 
M434.542725,355.873993 
	C427.947296,340.618286 421.395172,325.343475 414.685822,310.138000 
	C414.051880,308.701263 412.534851,306.814972 411.247528,306.662811 
	C407.362549,306.203674 403.388611,306.497070 399.428650,306.497070 
	C399.428650,343.474030 399.428650,379.707977 399.428650,416.140472 
	C405.089233,416.140472 410.463379,416.140472 416.341034,416.140472 
	C416.341034,395.270874 416.341034,374.785736 416.341034,354.300629 
	C417.823273,355.631226 418.483490,357.093842 419.101807,358.573914 
	C426.661896,376.669556 434.286713,394.738892 441.696106,412.896088 
	C442.829102,415.672638 444.214203,416.812012 447.172577,416.579956 
	C450.100037,416.350342 453.059540,416.529755 456.121277,416.529755 
	C456.121277,379.534973 456.121277,343.194031 456.121277,306.728088 
	C450.603760,306.728088 445.498474,306.728088 439.631378,306.728088 
	C439.631378,326.343170 439.631378,345.714508 439.631378,365.085815 
	C439.291779,365.116272 438.952179,365.146698 438.612579,365.177124 
	C437.358948,362.307861 436.105316,359.438599 434.542725,355.873993 
M736.746765,145.991791 
	C734.476135,137.049576 728.641846,130.737610 719.874756,129.493668 
	C706.165894,127.548523 692.219482,127.277428 678.209717,126.285538 
	C678.209717,164.155518 678.209717,200.519135 678.209717,236.780548 
	C684.987854,236.780548 691.376099,236.780548 698.161865,236.780548 
	C698.161865,220.131699 698.161865,203.872360 698.161865,187.678314 
	C706.260010,186.574112 706.246948,186.577560 708.183228,193.920242 
	C711.659973,207.104309 715.111450,220.295456 718.705322,233.447617 
	C719.075256,234.801422 720.286072,236.922745 721.196411,236.970245 
	C727.248901,237.286087 733.325806,237.133911 739.871826,237.133911 
	C734.703003,218.660782 729.752502,200.967773 724.803894,183.281586 
	C733.000854,179.313751 736.643982,172.777405 737.190002,164.657990 
	C737.588013,158.738861 737.041016,152.756165 736.746765,145.991791 
M1021.235352,132.672012 
	C1018.487732,137.699844 1014.006104,142.494476 1013.293091,147.795929 
	C1010.224670,170.611984 1010.130981,193.635803 1013.220642,216.457901 
	C1014.785339,228.015625 1022.076843,235.722000 1034.056519,237.715240 
	C1038.450317,238.446335 1043.041992,238.660751 1047.482544,238.319672 
	C1063.322266,237.102951 1072.834595,229.473923 1073.831543,213.637695 
	C1075.155518,192.607803 1074.551392,171.415909 1073.887085,150.321594 
	C1073.624878,141.992981 1069.691406,134.080948 1061.689087,130.272308 
	C1048.268066,123.884735 1034.713257,123.905273 1021.235352,132.672012 
M385.296661,182.299576 
	C392.387878,199.335068 399.442413,216.386063 406.635498,233.378464 
	C407.253052,234.837280 408.670227,236.821182 409.922302,236.985092 
	C413.609283,237.467789 417.400116,237.157333 421.215515,237.157333 
	C421.215515,200.159790 421.215515,163.909744 421.215515,127.484009 
	C415.679230,127.484009 410.457306,127.484009 404.554474,127.484009 
	C404.554474,147.202881 404.554474,166.597214 404.554474,185.991547 
	C403.020111,184.745560 402.427155,183.405334 401.845459,182.060242 
	C394.519958,165.121719 387.227081,148.168915 379.819305,131.266464 
	C379.150696,129.740952 377.868683,127.521500 376.657135,127.372925 
	C372.637787,126.880020 368.520447,127.186707 364.472046,127.186707 
	C364.472046,164.247787 364.472046,200.490219 364.472046,236.780426 
	C370.180420,236.780426 375.558655,236.780426 381.303253,236.780426 
	C381.303253,216.001862 381.303253,195.623337 381.303253,175.244812 
	C381.625702,175.157471 381.948151,175.070114 382.270569,174.982773 
	C383.187561,177.186371 384.104523,179.389969 385.296661,182.299576 
M614.006042,409.369141 
	C614.006042,391.197540 614.006042,373.025970 614.006042,354.854370 
	C615.618591,356.203979 616.326965,357.650085 616.943542,359.134369 
	C624.341248,376.941895 631.679871,394.774323 639.191895,412.533325 
	C639.852356,414.094696 641.484436,416.094635 642.909363,416.315338 
	C646.437744,416.861969 650.107788,416.494843 653.795898,416.494843 
	C653.795898,379.579803 653.795898,343.311707 653.795898,306.902405 
	C648.199097,306.902405 642.819702,306.902405 637.049194,306.902405 
	C637.049194,326.542450 637.049194,345.767670 637.049194,364.992889 
	C635.705017,364.097290 635.165161,362.966919 634.666199,361.818756 
	C627.179993,344.592102 619.748535,327.341217 612.130737,310.173004 
	C611.464661,308.671722 609.703369,306.872314 608.242920,306.663177 
	C604.683716,306.153534 601.002380,306.497101 597.172729,306.497101 
	C597.172729,343.363861 597.172729,379.718292 597.172729,416.153503 
	C602.930725,416.153503 608.331909,416.153503 614.006042,416.153503 
	C614.006042,413.970673 614.006042,412.149628 614.006042,409.369141 
M1339.561768,141.088181 
	C1335.292847,131.530228 1327.356445,127.305756 1317.457764,126.391281 
	C1294.820068,124.299965 1282.119263,132.402298 1280.685913,152.159744 
	C1279.256836,171.858826 1279.931519,191.752472 1280.518677,211.536057 
	C1280.767578,219.920593 1283.923584,227.923050 1291.256348,233.206421 
	C1311.157593,247.545837 1338.932373,236.217224 1342.689331,212.258698 
	C1343.074341,209.804016 1343.145508,207.281143 1343.152344,204.789337 
	C1343.193359,189.800781 1343.480103,174.802673 1343.022705,159.827972 
	C1342.838257,153.786484 1340.980103,147.796112 1339.561768,141.088181 
M979.631226,209.962616 
	C982.942383,217.943420 986.184021,225.954514 989.634155,233.874771 
	C990.199646,235.172913 991.595215,236.878159 992.758789,237.005005 
	C996.456543,237.408127 1000.225891,237.154190 1003.858154,237.154190 
	C1003.858154,200.107834 1003.858154,163.877258 1003.858154,127.528488 
	C998.337036,127.528488 993.139709,127.528488 987.380371,127.528488 
	C987.380371,147.084747 987.380371,166.276764 987.380371,185.468765 
	C985.722046,184.277145 984.965698,182.908035 984.345398,181.479858 
	C976.995972,164.558502 969.705322,147.611374 962.262146,130.731461 
	C961.639404,129.319138 960.130981,127.484146 958.852600,127.327667 
	C955.120911,126.870880 951.297241,127.165375 947.280518,127.165375 
	C947.280518,164.036484 947.280518,200.397217 947.280518,236.817322 
	C952.947815,236.817322 958.323730,236.817322 964.176270,236.817322 
	C964.176270,215.984955 964.176270,195.507599 964.176270,175.030258 
	C964.463623,174.980286 964.750977,174.930313 965.038330,174.880341 
	C969.777283,186.350433 974.516235,197.820526 979.631226,209.962616 
M1271.688110,306.478912 
	C1269.603638,306.478912 1267.519043,306.478912 1265.152710,306.478912 
	C1265.152710,309.151276 1265.152710,310.971405 1265.152710,312.791534 
	C1265.152588,336.601746 1265.204712,360.412231 1265.097046,384.221954 
	C1265.080688,387.844025 1264.687378,391.552521 1263.821777,395.061493 
	C1262.590454,400.052063 1258.863770,402.544128 1253.901733,402.450256 
	C1248.984741,402.357239 1245.278076,399.712799 1244.164673,394.756531 
	C1243.333984,391.058746 1242.920288,387.192780 1242.902710,383.399017 
	C1242.793091,359.755798 1242.847412,336.111816 1242.847290,312.468109 
	C1242.847290,310.679779 1242.847290,308.891449 1242.847290,306.873901 
	C1235.981445,306.873901 1229.617188,306.873901 1223.075073,306.873901 
	C1223.075073,332.399109 1223.036987,357.529938 1223.117188,382.660431 
	C1223.128906,386.306030 1223.467407,389.989868 1224.068237,393.586945 
	C1225.742554,403.608582 1229.694946,412.208038 1240.223511,415.667175 
	C1249.489258,418.711365 1258.904175,418.693176 1268.181763,415.554993 
	C1274.342163,413.471252 1279.237305,409.449127 1281.024780,403.215179 
	C1282.973755,396.417908 1284.696533,389.297211 1284.830811,382.285248 
	C1285.289673,358.317291 1285.011108,334.335144 1284.997070,310.358429 
	C1284.996338,309.233063 1284.833496,308.107758 1284.707275,306.479004 
	C1280.563843,306.479004 1276.600098,306.479004 1271.688110,306.478912 
M1066.014404,402.168121 
	C1058.145264,402.803223 1054.342651,400.056305 1053.075684,392.485291 
	C1052.529053,389.218201 1052.234131,385.870544 1052.224121,382.558289 
	C1052.153564,359.070831 1052.191772,335.583099 1052.175781,312.095428 
	C1052.174683,310.343933 1052.022827,308.592529 1051.944824,306.921509 
	C1045.181885,306.921509 1038.966553,306.921509 1033.086792,306.921509 
	C1033.086792,335.172913 1032.817627,362.974823 1033.255859,390.765594 
	C1033.382324,398.783051 1035.994995,406.632294 1042.842529,411.969299 
	C1061.800293,426.744843 1089.848267,416.029022 1093.700439,392.584290 
	C1093.996338,390.783447 1094.137451,388.938110 1094.147461,387.112335 
	C1094.290161,361.132019 1094.401855,335.151489 1094.492920,309.170959 
	C1094.495605,308.396301 1094.190796,307.620636 1094.039062,306.892090 
	C1087.543213,306.892090 1081.336060,306.892090 1074.813477,306.892090 
	C1074.813477,309.126221 1074.813477,310.944427 1074.813477,312.762665 
	C1074.813477,336.250336 1074.854858,359.738129 1074.768311,383.225494 
	C1074.755493,386.699371 1074.366455,390.212891 1073.740234,393.632751 
	C1073.016479,397.584808 1071.042969,400.792480 1066.014404,402.168121 
M497.821167,187.499908 
	C497.886627,194.994232 497.495270,202.527206 498.125549,209.973724 
	C499.051819,220.916382 501.769897,231.342865 513.440186,235.906021 
	C523.058899,239.666992 532.964844,239.500336 542.787109,236.309296 
	C549.046204,234.275818 553.532288,230.092926 555.724731,224.011627 
	C557.341064,219.528183 558.846191,214.709183 558.923645,210.015305 
	C559.363525,183.374222 559.365356,156.725800 559.476318,130.079727 
	C559.480103,129.168259 559.059814,128.255020 558.877991,127.509995 
	C552.467224,127.509995 546.382690,127.509995 539.992676,127.509995 
	C539.992676,129.677795 539.992676,131.491470 539.992676,133.305145 
	C539.992615,155.793716 540.064148,178.282700 539.935364,200.770538 
	C539.907898,205.568832 539.545105,210.439346 538.630432,215.139099 
	C537.562256,220.627243 534.022339,223.123062 528.735168,223.150986 
	C523.373108,223.179306 519.913452,220.824646 518.675049,215.359650 
	C517.727539,211.178513 517.266785,206.803421 517.242065,202.510834 
	C517.108582,179.356720 517.178711,156.201401 517.178711,133.046509 
	C517.178711,131.263565 517.178711,129.480621 517.178711,127.428940 
	C510.541718,127.428940 504.473999,127.428940 497.821136,127.428940 
	C497.821136,147.290329 497.821136,166.895111 497.821167,187.499908 
M1143.134766,325.805328 
	C1143.647827,332.531677 1144.161011,339.257996 1144.687256,346.155762 
	C1151.024536,346.155762 1157.265991,346.155762 1163.394409,346.155762 
	C1163.394409,340.653412 1163.893188,335.457550 1163.302979,330.388458 
	C1161.369019,313.777740 1154.319458,306.512054 1137.651489,305.418091 
	C1115.319824,303.952423 1104.971680,313.010284 1103.679565,331.046204 
	C1102.232300,351.248352 1102.262817,371.709076 1103.673950,391.915924 
	C1104.844971,408.685944 1114.176270,416.142151 1130.795410,417.741974 
	C1145.436890,419.151398 1156.566284,413.549744 1160.889160,402.373077 
	C1164.262329,393.651855 1164.134399,384.557953 1163.616089,375.321075 
	C1157.010132,375.321075 1150.786011,375.321075 1143.962036,375.321075 
	C1143.962036,381.437195 1144.214355,387.249023 1143.892700,393.028870 
	C1143.554321,399.105682 1140.047241,402.459290 1134.534180,402.748322 
	C1128.980957,403.039459 1125.178101,400.055206 1124.056885,394.210602 
	C1123.526978,391.449188 1123.236328,388.601013 1123.216919,385.789520 
	C1123.129883,373.129333 1123.115479,360.467712 1123.205933,347.807556 
	C1123.249878,341.659210 1123.361206,335.495087 1123.856079,329.371552 
	C1124.216675,324.911255 1126.395508,321.483276 1131.272827,320.575562 
	C1136.055664,319.685394 1140.246704,320.315277 1143.134766,325.805328 
M839.184448,388.090302 
	C833.733826,361.034302 828.283142,333.978271 822.743164,306.478760 
	C816.872314,306.478760 811.233826,306.628876 805.608704,306.419464 
	C802.497009,306.303650 801.390625,307.372742 800.768982,310.487671 
	C794.679932,341.000488 788.377014,371.470642 782.166565,401.959381 
	C781.220215,406.605499 780.435242,411.284515 779.474365,416.497955 
	C785.504883,416.497955 790.816589,416.697845 796.088867,416.331085 
	C797.157043,416.256805 798.672302,414.169128 798.964539,412.793610 
	C800.478577,405.666351 801.662842,398.469025 802.955322,391.333099 
	C809.427246,391.333099 815.517700,391.333099 821.652771,391.333099 
	C823.206665,399.898529 824.705505,408.160522 826.156921,416.161194 
	C832.738037,416.161194 838.643127,416.161194 844.942688,416.161194 
	C843.025574,406.799316 841.195312,397.861450 839.184448,388.090302 
M371.992004,398.657959 
	C373.033997,404.529907 374.075958,410.401855 375.120239,416.286743 
	C381.460999,416.286743 387.413696,416.286743 393.652985,416.286743 
	C393.501251,415.067383 393.444794,414.103912 393.255554,413.167297 
	C387.196289,383.173584 381.135895,353.180115 375.043335,323.193207 
	C373.953918,317.831146 374.416473,310.348358 371.098389,307.734772 
	C367.533112,304.926514 360.345703,306.848480 354.760254,306.424469 
	C351.316711,306.163086 350.344940,307.613342 349.707611,310.828674 
	C344.663208,336.277985 339.375061,361.678833 334.193939,387.101135 
	C332.245270,396.662598 330.381531,406.241394 328.338165,416.521179 
	C333.823914,416.521179 338.613495,416.374207 343.388580,416.573822 
	C346.470551,416.702728 347.739532,415.737122 348.188293,412.503357 
	C349.182892,405.336243 350.701752,398.241852 351.977234,391.279358 
	C358.557220,391.279358 364.497986,391.279358 370.563782,391.279358 
	C371.032074,393.606567 371.453766,395.702179 371.992004,398.657959 
M1195.970825,208.505417 
	C1190.690430,182.584671 1185.443481,156.656937 1180.033569,130.763260 
	C1179.751953,129.415466 1178.132812,127.386108 1177.046021,127.326744 
	C1170.934570,126.992851 1164.795532,127.165726 1158.431763,127.165726 
	C1150.956909,163.938217 1143.577515,200.241165 1136.126709,236.895447 
	C1142.626099,236.895447 1148.723511,236.895447 1155.242188,236.895447 
	C1156.502930,229.805756 1157.859863,222.802933 1158.944702,215.758163 
	C1159.367432,213.012985 1160.231812,211.586624 1163.324463,211.788055 
	C1167.141113,212.036652 1170.995728,212.011246 1174.816406,211.795517 
	C1177.851074,211.624176 1178.739502,212.896576 1179.150269,215.758682 
	C1180.163330,222.816254 1181.593506,229.813934 1182.872681,236.929169 
	C1189.169434,236.929169 1195.104980,236.929169 1201.643677,236.929169 
	C1199.739014,227.502914 1197.904907,218.426392 1195.970825,208.505417 
M893.262634,413.908569 
	C902.704102,407.920990 905.966003,399.015472 905.467102,388.272675 
	C904.899902,376.060699 898.381897,367.071991 889.777710,359.254517 
	C884.359253,354.331604 878.717102,349.655457 873.274963,344.757874 
	C869.037964,340.944916 866.234680,336.399445 866.514404,330.376221 
	C866.779846,324.662567 869.436707,321.387939 874.601746,320.713165 
	C879.826233,320.030640 883.329468,322.380096 884.812744,327.973267 
	C885.684448,331.260529 886.069214,334.676910 886.749023,338.458099 
	C892.541504,337.279480 897.968445,336.175232 903.269653,335.096588 
	C902.677979,316.563354 894.905029,307.058746 879.459656,305.297272 
	C863.735474,303.503998 850.661682,311.708405 848.188904,325.234131 
	C845.758850,338.525452 849.275146,349.889801 859.754272,358.879211 
	C866.570435,364.726410 873.328186,370.656067 879.857361,376.818726 
	C884.577698,381.274078 886.559937,387.032745 886.068420,393.555511 
	C885.784424,397.323944 884.287842,400.449219 880.474487,401.607697 
	C876.532349,402.805298 872.541016,402.213715 870.134399,398.702484 
	C868.222595,395.913055 867.066040,392.509705 866.052856,389.231018 
	C865.237061,386.591034 865.137268,383.729797 864.650940,380.510773 
	C859.528381,381.540436 854.634949,382.345001 849.869629,383.626373 
	C848.864502,383.896606 847.646912,385.931915 847.677917,387.123993 
	C848.323792,411.957001 870.314087,425.178314 893.262634,413.908569 
M617.944946,228.361511 
	C619.632507,223.231323 622.300537,218.197906 622.818237,212.952271 
	C624.205627,198.893860 616.829468,188.524460 606.878357,179.643799 
	C601.536804,174.876862 596.047485,170.274292 590.747131,165.462845 
	C586.527710,161.632675 583.729980,157.036789 584.010559,151.035507 
	C584.272339,145.436707 586.933777,142.351318 592.327637,141.500381 
	C597.101135,140.747284 600.698730,143.106552 602.226501,148.452942 
	C603.209229,151.891678 603.669067,155.479843 604.424194,159.310471 
	C610.150269,158.134552 615.591370,157.017151 621.252686,155.854507 
	C619.852356,144.031113 617.805664,133.126587 605.768982,128.274933 
	C596.367554,124.485481 586.794800,125.150360 577.703552,129.708420 
	C571.379150,132.879303 567.502258,138.207672 566.021423,145.086029 
	C563.026123,158.998245 566.764954,170.680130 577.713806,180.035446 
	C584.544922,185.872360 591.356995,191.767029 597.750427,198.069183 
	C602.737061,202.984604 604.954407,209.272247 603.278748,216.348511 
	C601.943176,221.988800 596.346252,224.865799 591.319153,222.029526 
	C588.677307,220.539017 586.226746,217.639511 585.086243,214.812805 
	C583.445984,210.747375 583.078796,206.168274 582.065430,201.316406 
	C576.502747,202.486298 570.782898,203.689255 565.209900,204.861313 
	C565.066956,220.774063 571.464783,232.095978 582.679443,236.468597 
	C595.063599,241.297211 608.908142,238.297516 617.944946,228.361511 
M1112.626465,185.984634 
	C1111.714233,190.760864 1110.802002,195.537079 1109.889648,200.313309 
	C1108.813110,198.496414 1108.381836,196.732956 1108.045532,194.951569 
	C1104.005005,173.548386 1100.021118,152.134247 1095.846436,130.757355 
	C1095.583862,129.412964 1093.930054,127.412300 1092.800049,127.325623 
	C1087.864868,126.947098 1082.884155,127.162811 1077.377319,127.162811 
	C1077.789185,129.589050 1078.063232,131.523895 1078.450562,133.435837 
	C1084.292725,162.275665 1090.121826,191.118210 1096.026978,219.945206 
	C1097.184204,225.594467 1096.907959,233.370911 1100.453491,236.186646 
	C1104.068848,239.057938 1111.579590,237.033142 1117.385254,237.121704 
	C1117.858032,237.128922 1118.334473,236.903366 1119.203735,236.688416 
	C1126.582397,200.441467 1133.984863,164.077881 1141.442261,127.444611 
	C1134.754761,127.444611 1129.007080,127.444611 1123.004150,127.444611 
	C1119.577271,146.834030 1116.192261,165.986526 1112.626465,185.984634 
M1409.025879,416.487305 
	C1409.734741,415.775208 1411.017090,415.093170 1411.056274,414.345947 
	C1411.261597,410.427338 1411.152222,406.492188 1411.152222,402.020874 
	C1402.099243,402.020874 1393.709839,402.020874 1385.394897,402.020874 
	C1385.394897,389.907440 1385.394897,378.364258 1385.394897,366.328094 
	C1392.197632,366.328094 1398.620239,366.328094 1405.110840,366.328094 
	C1405.110840,361.290375 1405.110840,356.761017 1405.110840,351.841003 
	C1398.270020,351.841003 1391.836914,351.841003 1385.300903,351.841003 
	C1385.300903,341.377960 1385.300903,331.318878 1385.300903,320.685913 
	C1393.969971,320.685913 1402.362549,320.685913 1410.682373,320.685913 
	C1410.682373,315.696045 1410.682373,311.290405 1410.682373,306.837463 
	C1395.296753,306.837463 1380.242432,306.837463 1365.041626,306.837463 
	C1365.041626,343.447327 1365.041626,379.693298 1365.041626,416.516541 
	C1379.540039,416.516541 1393.820068,416.516541 1409.025879,416.487305 
M776.382446,237.175690 
	C779.574158,237.705780 780.276794,236.166321 780.234619,233.219727 
	C780.084534,222.730408 780.012939,212.233749 780.261841,201.748184 
	C780.354675,197.836029 780.939819,193.799179 782.109070,190.072906 
	C786.785461,175.169540 791.798279,160.371918 796.647278,145.522339 
	C798.580750,139.601471 800.412048,133.647247 802.464233,127.156700 
	C796.974976,127.156700 792.316040,127.350266 787.682739,127.089325 
	C784.541687,126.912430 783.403870,128.174103 782.615356,131.080032 
	C780.222656,139.897018 777.498169,148.624451 774.865967,157.375641 
	C773.748047,161.092514 772.538330,164.781769 770.937561,169.855179 
	C769.911743,166.892990 769.352173,165.407959 768.880859,163.895432 
	C765.470581,152.949905 762.161621,141.971375 758.584106,131.080963 
	C758.084167,129.558792 756.375000,127.448738 755.084717,127.343864 
	C749.839539,126.917557 744.539429,127.166527 738.642334,127.166527 
	C739.316956,129.501831 739.757568,131.231049 740.314331,132.922043 
	C745.353821,148.230392 750.193115,163.609650 755.542236,178.809372 
	C759.332703,189.580078 761.904419,200.348404 761.104370,211.918121 
	C760.534851,220.155396 760.993896,228.463791 760.993896,237.176865 
	C766.158081,237.176865 770.782776,237.176865 776.382446,237.175690 
M942.557495,410.256836 
	C942.557495,380.854980 942.557495,351.453125 942.557495,321.557648 
	C945.615051,321.557648 947.910522,321.558258 950.206055,321.557526 
	C960.772949,321.554138 960.575989,321.552490 960.657837,310.971252 
	C960.688782,306.965912 959.109558,306.344299 955.636047,306.377533 
	C939.984680,306.527283 924.331055,306.435822 908.678284,306.455109 
	C907.216980,306.456909 905.755981,306.626221 904.156128,306.726471 
	C904.156128,311.694672 904.156128,316.318390 904.156128,321.642548 
	C910.210327,321.642548 916.095825,321.642548 922.442322,321.642548 
	C922.442322,325.967834 922.442261,329.598145 922.442261,333.228455 
	C922.442322,359.205444 922.557739,385.183411 922.333801,411.158447 
	C922.294739,415.696075 923.685425,417.072723 927.999207,416.621429 
	C931.128845,416.294006 934.349854,416.283966 937.476929,416.623047 
	C941.876221,417.100128 943.142334,415.121307 942.557495,410.256836 
M664.990723,345.500000 
	C664.990723,369.049988 664.990723,392.600006 664.990723,416.104919 
	C672.108337,416.104919 678.487671,416.104919 685.383118,416.104919 
	C685.383118,399.457977 685.383118,383.222076 685.383118,366.478455 
	C692.176941,366.478455 698.446777,366.478455 704.905396,366.478455 
	C704.905396,361.539886 704.905396,357.126038 704.905396,352.042114 
	C698.275208,352.042114 691.904785,352.042114 685.481079,352.042114 
	C685.481079,341.289673 685.481079,331.210876 685.481079,320.421021 
	C693.797119,320.421021 701.836365,320.421021 709.866699,320.421021 
	C709.866699,315.450653 709.866699,311.202637 709.866699,306.784485 
	C694.807861,306.784485 680.065186,306.784485 664.990723,306.784485 
	C664.990723,319.559509 664.990723,332.029755 664.990723,345.500000 
M639.500610,127.145248 
	C633.063416,127.145248 626.626221,127.145248 620.237549,127.145248 
	C620.237549,132.560532 620.237549,137.275436 620.237549,142.495392 
	C626.398621,142.495392 632.140076,142.495392 638.319641,142.495392 
	C638.319641,174.260300 638.319641,205.501938 638.319641,236.892578 
	C645.205872,236.892578 651.614441,236.892578 658.741577,236.892578 
	C658.741577,205.256195 658.741577,173.907501 658.741577,142.091187 
	C664.873596,142.091187 670.298035,142.091187 675.789795,142.091187 
	C675.789795,136.905167 675.789795,132.207458 675.789795,127.145248 
	C663.763672,127.145248 652.131958,127.145248 639.500610,127.145248 
M1201.499268,306.473907 
	C1189.216187,306.473907 1176.933228,306.473907 1164.403931,306.473907 
	C1164.403931,311.678345 1164.403931,316.264191 1164.403931,321.519592 
	C1170.462158,321.519592 1176.363770,321.519592 1182.743164,321.519592 
	C1182.743164,353.427216 1182.743164,384.671997 1182.743164,416.087158 
	C1189.754883,416.087158 1196.266846,416.087158 1203.199951,416.087158 
	C1203.199951,384.401062 1203.199951,353.151825 1203.199951,321.383087 
	C1209.226196,321.383087 1214.827026,321.383087 1220.601318,321.383087 
	C1220.601318,316.271606 1220.601318,311.686188 1220.601318,306.474030 
	C1214.411377,306.474030 1208.455078,306.474030 1201.499268,306.473907 
M1212.001587,234.312439 
	C1212.782959,235.259201 1213.531860,236.992584 1214.350952,237.026367 
	C1220.120117,237.264359 1225.903809,237.152695 1232.309082,237.152695 
	C1232.309082,205.259415 1232.309082,173.899155 1232.309082,142.030273 
	C1238.511108,142.030273 1244.088623,142.030273 1249.579346,142.030273 
	C1249.579346,136.798126 1249.579346,132.093170 1249.579346,127.441345 
	C1230.895996,127.441345 1212.635986,127.441345 1194.189209,127.441345 
	C1194.189209,132.428741 1194.189209,137.133316 1194.189209,142.380157 
	C1200.281372,142.380157 1206.023071,142.380157 1211.998657,142.380157 
	C1211.998657,173.064026 1211.998657,203.201996 1212.001587,234.312439 
M334.442505,185.499756 
	C334.442505,202.579483 334.442505,219.659195 334.442505,236.873245 
	C341.439240,236.873245 347.837769,236.873245 354.168335,236.873245 
	C354.168335,200.177475 354.168335,163.815353 354.168335,127.423035 
	C347.524200,127.423035 341.273651,127.423035 334.442627,127.423035 
	C334.442627,146.641083 334.442627,165.570404 334.442505,185.499756 
M585.188965,355.500916 
	C585.188965,339.249512 585.188965,322.998138 585.188965,306.467224 
	C580.182190,306.467224 575.837036,306.770752 571.553833,306.385651 
	C566.858276,305.963409 565.249634,307.373810 565.349365,312.331573 
	C565.667236,328.135315 565.467102,343.949524 565.467163,359.759674 
	C565.467285,377.067627 565.441345,394.375702 565.504333,411.683441 
	C565.511353,413.610046 564.495300,416.443787 568.066345,416.491852 
	C573.650452,416.567047 579.236267,416.511749 585.188904,416.511749 
	C585.188904,396.058777 585.188904,376.279877 585.188965,355.500916 
M1272.001587,180.500000 
	C1272.001587,162.791580 1272.001587,145.083160 1272.001587,127.483841 
	C1264.880371,127.483841 1258.628662,127.483841 1252.324219,127.483841 
	C1252.324219,164.153397 1252.324219,200.499969 1252.324219,236.769958 
	C1259.030396,236.769958 1265.404419,236.769958 1272.001587,236.769958 
	C1272.001587,218.079651 1272.001587,199.789825 1272.001587,180.500000 
M865.359070,237.178741 
	C867.101990,237.084961 868.844910,236.991165 870.528564,236.900558 
	C870.528564,200.089462 870.528564,163.883636 870.528564,127.418961 
	C863.980347,127.418961 857.749268,127.418961 851.265869,127.418961 
	C851.265869,164.031418 851.265869,200.379211 851.265869,237.178818 
	C855.817261,237.178818 860.106323,237.178818 865.359070,237.178741 
M818.328552,238.808014 
	C818.328552,232.271561 818.328552,225.735107 818.328552,219.254089 
	C811.897034,219.254089 806.152100,219.254089 800.200256,219.254089 
	C800.200256,225.271469 800.200256,231.021652 800.200256,236.885910 
	C803.382812,237.121887 806.425964,237.347534 810.452881,237.646118 
	C809.013550,240.587891 808.299561,243.014709 806.817505,244.805939 
	C805.315674,246.620987 803.054504,247.807693 800.950562,249.402527 
	C801.727295,251.589539 802.474731,253.694183 803.205627,255.752289 
	C813.042297,253.218765 816.854553,249.020935 818.328552,238.808014 
z"/>
<path fill="#FFFEFE" opacity="1.000000" stroke="none" 
	d="
M634.850830,627.872681 
	C673.800049,605.401062 712.455750,583.152405 751.014160,560.736328 
	C756.849670,557.343872 762.010376,557.399109 767.833862,560.772522 
	C827.882507,595.557678 887.964539,630.285583 948.165222,664.806396 
	C954.929382,668.685059 957.640320,673.564514 957.617920,681.302490 
	C957.427429,747.293030 957.552063,813.284485 957.408508,879.275208 
	C957.399231,883.522339 958.790894,885.745300 962.415649,887.827271 
	C1019.706055,920.733093 1076.877686,953.845886 1134.182007,986.727112 
	C1140.523438,990.365845 1143.317627,994.855835 1143.295288,1002.332214 
	C1143.087036,1071.988892 1143.108276,1141.646484 1143.269897,1211.303345 
	C1143.286255,1218.319458 1140.697876,1222.706909 1134.657349,1226.176880 
	C1074.626343,1260.661499 1014.659912,1295.259277 954.789612,1330.021973 
	C948.118835,1333.895264 942.453613,1334.032715 935.737976,1330.130493 
	C878.756836,1297.022339 821.619568,1264.182739 764.642517,1231.067627 
	C760.566772,1228.698486 757.733459,1229.037842 753.895813,1231.262817 
	C696.882385,1264.316650 639.753235,1297.171143 582.757019,1330.254517 
	C576.414490,1333.936035 570.981995,1334.024292 564.618530,1330.333252 
	C505.165497,1295.847656 445.668396,1261.436523 386.004028,1227.318481 
	C378.401611,1222.971191 375.308502,1217.753662 375.342896,1208.977417 
	C375.611084,1140.487793 375.582916,1071.996338 375.370026,1003.506226 
	C375.344727,995.362427 378.212921,990.365601 385.325562,986.294617 
	C442.232025,953.723816 498.941956,920.809753 555.793457,888.142334 
	C559.670349,885.914734 561.298523,883.603760 561.285461,878.913574 
	C561.101990,813.256348 561.247375,747.598083 561.050110,681.940857 
	C561.025818,673.860229 563.705688,668.661621 570.921265,664.648193 
	C592.296875,652.758911 613.347778,640.285950 634.850830,627.872681 
M520.323547,1090.130127 
	C480.497253,1067.154785 440.670959,1044.179443 400.419861,1020.958984 
	C400.285797,1022.527466 400.182129,1023.174622 400.182037,1023.821716 
	C400.173553,1083.631470 400.144318,1143.441284 400.312500,1203.250610 
	C400.317474,1205.015747 401.983276,1207.502563 403.583710,1208.431641 
	C454.807434,1238.167847 506.117676,1267.755005 557.425110,1297.346924 
	C558.475037,1297.952515 559.646423,1298.347412 560.977417,1298.936401 
	C561.062073,1297.748535 561.150330,1297.087280 561.150452,1296.426025 
	C561.158508,1236.782837 561.137024,1177.139771 561.229736,1117.496704 
	C561.234314,1114.551514 560.146545,1113.075195 557.706726,1111.694702 
	C545.399109,1104.730713 533.190857,1097.591309 520.323547,1090.130127 
M949.304138,1089.878662 
	C1001.351746,1059.810913 1053.399414,1029.743164 1105.947144,999.386597 
	C1104.072632,998.262451 1102.821411,997.487122 1101.547241,996.751709 
	C1050.841553,967.483337 1000.114136,938.252502 949.473572,908.871826 
	C946.321289,907.042969 944.113770,906.955200 940.943848,908.793274 
	C891.159241,937.661194 841.293030,966.388306 791.453735,995.162109 
	C789.248535,996.435242 787.121460,997.843628 784.827332,999.270264 
	C785.504028,999.845032 785.730530,1000.104431 786.012756,1000.267517 
	C838.138550,1030.406006 890.253662,1060.563110 942.471741,1090.540894 
	C943.969116,1091.400513 946.560608,1090.354614 949.304138,1089.878662 
M1118.491699,1123.500366 
	C1118.491699,1089.666504 1118.491699,1055.832642 1118.491699,1021.176147 
	C1116.375000,1022.235962 1115.334839,1022.691223 1114.357788,1023.255432 
	C1063.217163,1052.784912 1012.096191,1082.348267 960.907410,1111.793945 
	C958.151428,1113.379272 957.455261,1115.226562 957.458679,1118.170044 
	C957.526489,1176.969604 957.506531,1235.769287 957.526855,1294.568848 
	C957.527344,1295.948730 957.787231,1297.328491 957.962158,1299.066040 
	C959.065002,1298.563599 959.671570,1298.345703 960.221008,1298.028687 
	C1011.950134,1268.188354 1063.659058,1238.312988 1115.441040,1208.564575 
	C1118.371704,1206.880981 1118.520630,1204.712646 1118.516235,1201.956055 
	C1118.474121,1176.137573 1118.491577,1150.318970 1118.491699,1123.500366 
M813.494812,767.988342 
	C804.016541,773.450623 794.538269,778.912903 784.276978,784.826477 
	C833.989319,813.531311 883.075500,841.874512 932.533813,870.432678 
	C932.533813,812.989685 932.533813,756.604431 932.533813,699.215942 
	C892.629395,722.270996 853.379822,744.947693 813.494812,767.988342 
M727.453979,788.932983 
	C729.544556,787.669373 731.635132,786.405762 734.392090,784.739441 
	C684.712219,756.062622 635.734985,727.791382 586.340576,699.279297 
	C586.340576,756.744934 586.340576,813.239990 586.340576,870.411865 
	C633.524048,843.158325 680.160400,816.220886 727.453979,788.932983 
M639.497009,1158.995239 
	C621.888062,1148.831909 604.279114,1138.668579 586.422363,1128.362183 
	C586.422363,1185.826782 586.422363,1242.316528 586.422363,1299.367432 
	C635.954285,1270.767822 684.925171,1242.492188 734.518005,1213.857422 
	C702.375183,1195.288818 671.259033,1177.313110 639.497009,1158.995239 
M629.207214,1124.307007 
	C668.274536,1146.868530 707.341858,1169.430176 746.655396,1192.133911 
	C746.655396,1134.715088 746.655396,1078.182739 746.655396,1021.045593 
	C697.122192,1049.649536 648.109436,1077.953003 598.533691,1106.581543 
	C608.999268,1112.643311 618.777954,1118.307129 629.207214,1124.307007 
M627.733643,875.202942 
	C618.209595,880.736511 608.685547,886.270142 598.581543,892.140686 
	C648.413940,920.899841 697.308472,949.117798 746.718201,977.633057 
	C746.718201,920.252930 746.718201,863.776917 746.718201,806.508362 
	C706.904907,829.505676 667.643433,852.184265 627.733643,875.202942 
M916.100708,894.507141 
	C917.213074,893.736938 918.325439,892.966797 919.909363,891.870117 
	C870.326660,863.239990 821.434082,835.008362 772.270142,806.620056 
	C772.270142,863.899658 772.270142,920.375793 772.270142,977.519836 
	C820.411560,949.750610 867.939026,922.335510 916.100708,894.507141 
z"/>
<path fill="#FFFEFE" opacity="1.000000" stroke="none" 
	d="
M214.828583,300.295898 
	C214.828583,297.917480 214.828583,295.993713 214.828583,292.945007 
	C201.380219,307.946259 184.769409,309.545013 167.419144,307.580261 
	C147.397903,305.313080 134.039871,293.921570 126.041061,275.723206 
	C117.301407,255.839310 115.464218,234.830368 116.773499,213.580383 
	C117.515900,201.531097 119.097160,189.306381 122.215889,177.674194 
	C130.755371,145.823792 152.548264,128.513412 185.528336,126.203300 
	C199.599319,125.217682 213.537170,126.240242 226.822937,131.452454 
	C249.571243,140.376968 261.164307,158.696716 266.673309,181.186035 
	C269.302338,191.918472 270.670197,203.200958 270.813141,214.257507 
	C271.304230,252.246719 271.110657,290.246643 270.950989,328.241516 
	C270.882080,344.637939 268.402466,360.693115 263.066162,376.302155 
	C253.845322,403.273682 234.685211,417.645386 206.744888,419.667847 
	C194.575165,420.548737 181.980408,420.257111 170.001465,418.123840 
	C142.648804,413.252625 127.552162,396.962646 123.086205,369.424011 
	C121.708740,360.930084 121.272568,352.283508 120.356934,343.227509 
	C138.276825,343.227509 155.320602,343.227509 172.584839,343.227509 
	C173.070541,348.743195 173.392288,354.352753 174.088104,359.915527 
	C175.861008,374.089478 183.479691,379.949280 197.213287,378.151001 
	C204.922653,377.141510 209.493866,372.285583 210.739914,365.350189 
	C212.732040,354.262054 213.990204,342.987732 214.692230,331.738037 
	C215.334518,321.446106 214.828568,311.082520 214.828583,300.295898 
M208.324570,174.279907 
	C203.826675,167.609177 197.237671,166.126694 189.882614,167.272446 
	C182.451736,168.429993 178.037369,173.419907 176.409500,180.361526 
	C171.020889,203.340012 171.325851,226.633316 174.912323,249.721344 
	C176.869720,262.322205 185.146759,267.351227 197.117630,265.990540 
	C207.361679,264.826111 214.831802,256.540833 214.831909,246.342667 
	C214.832031,232.028091 215.010361,217.710541 214.770157,203.399994 
	C214.604980,193.559692 213.520660,183.801224 208.324570,174.279907 
z"/>
<path fill="#FFFBF9" opacity="1.000000" stroke="none" 
	d="
M489.901489,306.469391 
	C493.381317,306.583099 496.380981,306.617950 499.368927,306.823242 
	C517.702820,308.082916 526.383606,315.239471 527.365967,333.399139 
	C528.415771,352.806763 527.959961,372.371613 526.862305,391.794403 
	C526.059509,405.999603 517.740723,414.289795 503.670227,415.578278 
	C491.971680,416.649536 480.097046,415.797638 467.883057,415.797638 
	C467.883057,379.793030 467.883057,343.431976 467.883057,306.469330 
	C475.179962,306.469330 482.297913,306.469330 489.901489,306.469391 
M501.638275,322.471405 
	C497.170288,321.842285 492.702301,321.213165 488.227722,320.583130 
	C488.227722,348.465118 488.227722,375.175690 488.227722,401.994110 
	C490.751648,401.994110 492.906799,402.100403 495.048401,401.975098 
	C503.019348,401.508698 506.792938,398.157288 506.900726,390.204163 
	C507.162292,370.901886 507.219971,351.589478 506.810150,332.292816 
	C506.743011,329.131622 503.879456,326.029785 501.638275,322.471405 
z"/>
<path fill="#FFFBF9" opacity="1.000000" stroke="none" 
	d="
M1022.379700,348.272339 
	C1020.026123,355.620911 1018.890503,357.057037 1010.863647,362.888153 
	C1015.776245,380.438904 1020.722961,398.111572 1025.871948,416.506866 
	C1019.356628,416.506866 1013.564697,416.698578 1007.806580,416.342865 
	C1006.674133,416.272919 1005.085266,414.251160 1004.701233,412.855896 
	C1001.041016,399.556427 997.590210,386.199188 994.089539,372.855865 
	C992.274658,365.938019 992.284058,365.935547 984.073242,366.415161 
	C984.073242,382.869202 984.073242,399.388672 984.073242,416.214233 
	C976.957031,416.214233 970.550659,416.214233 963.804688,416.214233 
	C963.804688,379.777618 963.804688,343.553070 963.804688,306.599182 
	C973.536621,306.599182 983.279846,306.511200 993.019836,306.649963 
	C996.156860,306.694641 999.331909,307.110474 1002.409851,307.743683 
	C1016.625122,310.668304 1023.329285,318.448730 1023.752502,333.026764 
	C1023.895874,337.965546 1022.960876,342.935669 1022.379700,348.272339 
M1000.772705,323.658508 
	C995.709045,319.844818 990.010010,320.417511 984.199097,320.789032 
	C984.199097,331.791565 984.199097,342.312134 984.199097,353.007904 
	C987.349365,353.007904 990.174561,353.251099 992.941650,352.953552 
	C997.640625,352.448334 1001.718506,350.617462 1003.269531,345.682526 
	C1005.590210,338.298920 1005.797119,331.018829 1000.772705,323.658508 
z"/>
<path fill="#FFFCFA" opacity="1.000000" stroke="none" 
	d="
M722.181091,306.473969 
	C731.644775,306.645844 740.652649,306.478821 749.611572,307.063385 
	C765.903137,308.126373 774.147644,316.269226 775.158813,332.563507 
	C775.850769,343.714264 775.362915,354.730194 764.148865,361.675751 
	C763.234741,362.241913 763.191772,365.200073 763.627625,366.807068 
	C767.761719,382.049530 772.090637,397.239105 776.350342,412.447571 
	C776.652344,413.525787 776.850830,414.632935 777.195007,416.159424 
	C770.401428,416.159424 763.996765,416.159424 757.100220,416.159424 
	C753.781250,403.564606 750.396973,390.732483 747.020508,377.898254 
	C746.555176,376.129395 746.149963,374.344574 745.679504,372.577118 
	C743.792358,365.487091 743.786926,365.488525 735.617371,366.805908 
	C735.617371,383.081665 735.617371,399.474213 735.617371,416.190369 
	C728.600403,416.190369 722.201538,416.190369 715.474792,416.190369 
	C715.474792,379.769897 715.474792,343.542419 715.474792,306.473938 
	C717.526245,306.473938 719.614746,306.473938 722.181091,306.473969 
M754.529541,346.688599 
	C754.955383,341.276581 755.881775,335.843475 755.654541,330.459015 
	C755.459534,325.836090 752.597961,322.209625 747.770264,321.305450 
	C743.942444,320.588501 739.968689,320.651154 735.853516,320.352722 
	C735.853516,331.698364 735.853516,342.248688 735.853516,353.044586 
	C742.844666,353.138489 749.703613,354.255005 754.529541,346.688599 
z"/>
<path fill="#FFFDFC" opacity="1.000000" stroke="none" 
	d="
M488.894470,144.331955 
	C489.536926,147.145966 490.528473,149.578598 490.530396,152.012024 
	C490.546509,172.289276 491.258331,192.622437 489.975433,212.825409 
	C489.043518,227.501114 480.836273,235.129257 466.218567,236.512039 
	C454.718994,237.599869 443.034271,236.730469 431.126526,236.730469 
	C431.126526,200.390778 431.126526,164.055634 431.126526,126.353493 
	C444.959961,127.263039 458.547150,127.598938 471.973785,129.244934 
	C480.239655,130.258255 485.840393,135.996521 488.894470,144.331955 
M450.844452,209.491669 
	C450.844452,213.914719 450.844452,218.337769 450.844452,222.992798 
	C453.065918,222.992798 454.549316,223.006134 456.032379,222.990662 
	C466.192657,222.884720 469.560883,219.973450 470.130157,209.750458 
	C470.592407,201.448212 470.488983,193.108627 470.458344,184.786255 
	C470.417877,173.799774 470.447296,162.803299 469.968445,151.832001 
	C469.699677,145.674469 466.074310,142.501099 460.021790,142.087189 
	C457.093384,141.886902 454.139954,142.052612 450.844452,142.052612 
	C450.844452,164.575989 450.844452,186.535507 450.844452,209.491669 
z"/>
<path fill="#FFFDFC" opacity="1.000000" stroke="none" 
	d="
M1329.628174,388.501404 
	C1328.200073,383.122101 1326.926392,378.126373 1325.614014,373.140808 
	C1323.674438,365.773102 1323.662720,365.776184 1315.438477,366.512177 
	C1315.438477,382.843018 1315.438477,399.244110 1315.438477,416.077271 
	C1308.358154,416.077271 1301.841187,416.077271 1295.185547,416.077271 
	C1295.185547,379.621368 1295.185547,343.343109 1295.185547,305.784424 
	C1308.992310,306.568146 1322.662720,306.537476 1336.079102,308.367645 
	C1346.328979,309.765900 1353.269531,316.787964 1354.310181,327.481964 
	C1354.992065,334.489594 1354.561401,341.759430 1353.491089,348.737305 
	C1352.548706,354.881989 1348.535400,359.565063 1342.070801,362.296173 
	C1347.084717,380.209381 1352.070801,398.023132 1357.243530,416.503693 
	C1350.856689,416.503693 1345.077759,416.659698 1339.321289,416.369324 
	C1338.198364,416.312653 1336.527710,414.701447 1336.189331,413.502533 
	C1333.886475,405.343781 1331.872437,397.103516 1329.628174,388.501404 
M1322.073242,320.509766 
	C1319.844116,320.509766 1317.614868,320.509766 1315.444702,320.509766 
	C1315.444702,331.832947 1315.444702,342.242798 1315.444702,352.597748 
	C1327.753296,354.689362 1334.735596,351.110992 1335.728149,341.623718 
	C1337.241455,327.160156 1333.903687,321.007294 1322.073242,320.509766 
z"/>
<path fill="#FFFCFA" opacity="1.000000" stroke="none" 
	d="
M1387.073364,219.033508 
	C1380.960205,204.310394 1374.972778,189.949142 1368.985229,175.587891 
	C1368.633545,175.642975 1368.281860,175.698059 1367.930176,175.753143 
	C1367.930176,196.045029 1367.930176,216.336929 1367.930176,236.900604 
	C1361.883301,236.900604 1356.468018,236.900604 1350.820068,236.900604 
	C1350.820068,200.325043 1350.820068,163.935043 1350.820068,127.157196 
	C1354.802124,127.157196 1358.509155,126.753487 1362.051636,127.341614 
	C1363.627441,127.603233 1365.445190,129.609604 1366.176880,131.257492 
	C1373.530396,147.818130 1380.679321,164.469513 1387.890747,181.093262 
	C1388.610474,182.752380 1389.362549,184.397507 1390.977783,185.987350 
	C1390.977783,166.580399 1390.977783,147.173431 1390.977783,127.464172 
	C1396.912598,127.464172 1402.146118,127.464172 1407.696899,127.464172 
	C1407.696899,163.955688 1407.696899,200.321991 1407.696899,237.166016 
	C1403.899170,237.166016 1400.251465,237.415741 1396.673096,237.026917 
	C1395.465088,236.895630 1393.982788,235.354721 1393.400146,234.098862 
	C1391.162720,229.276718 1389.239502,224.308853 1387.073364,219.033508 
z"/>
<path fill="#FFFBF9" opacity="1.000000" stroke="none" 
	d="
M913.721436,211.382401 
	C908.663635,199.252594 903.751465,187.476196 898.839233,175.699814 
	C898.486267,175.735779 898.133240,175.771759 897.780273,175.807724 
	C897.780273,196.067932 897.780273,216.328125 897.780273,236.882050 
	C891.782776,236.882050 886.526306,236.882050 880.866211,236.882050 
	C880.866211,200.470139 880.866211,164.101120 880.866211,127.145393 
	C883.972656,127.145393 886.937012,127.367973 889.852722,127.086685 
	C893.183655,126.765335 894.835205,127.950874 896.165955,131.120392 
	C903.312927,148.142303 910.733032,165.049576 918.074341,181.989700 
	C918.700928,183.435638 919.441223,184.832291 920.845581,186.086609 
	C920.845581,166.701843 920.845581,147.317078 920.845581,127.540283 
	C926.451294,127.540283 931.697693,127.540283 937.402954,127.540283 
	C937.402954,163.764038 937.402954,200.124237 937.402954,237.164536 
	C933.665405,237.164536 929.869873,237.417572 926.145752,237.013000 
	C925.002808,236.888824 923.653748,235.139191 923.085144,233.834854 
	C919.896423,226.519073 916.917542,219.111832 913.721436,211.382401 
z"/>
<path fill="#FFFBF9" opacity="1.000000" stroke="none" 
	d="
M434.697205,356.221680 
	C436.105316,359.438599 437.358948,362.307861 438.612579,365.177124 
	C438.952179,365.146698 439.291779,365.116272 439.631378,365.085815 
	C439.631378,345.714508 439.631378,326.343170 439.631378,306.728088 
	C445.498474,306.728088 450.603760,306.728088 456.121277,306.728088 
	C456.121277,343.194031 456.121277,379.534973 456.121277,416.529755 
	C453.059540,416.529755 450.100037,416.350342 447.172577,416.579956 
	C444.214203,416.812012 442.829102,415.672638 441.696106,412.896088 
	C434.286713,394.738892 426.661896,376.669556 419.101807,358.573914 
	C418.483490,357.093842 417.823273,355.631226 416.341034,354.300629 
	C416.341034,374.785736 416.341034,395.270874 416.341034,416.140472 
	C410.463379,416.140472 405.089233,416.140472 399.428650,416.140472 
	C399.428650,379.707977 399.428650,343.474030 399.428650,306.497070 
	C403.388611,306.497070 407.362549,306.203674 411.247528,306.662811 
	C412.534851,306.814972 414.051880,308.701263 414.685822,310.138000 
	C421.395172,325.343475 427.947296,340.618286 434.697205,356.221680 
z"/>
<path fill="#FFFEFD" opacity="1.000000" stroke="none" 
	d="
M736.831055,146.396790 
	C737.041016,152.756165 737.588013,158.738861 737.190002,164.657990 
	C736.643982,172.777405 733.000854,179.313751 724.803894,183.281586 
	C729.752502,200.967773 734.703003,218.660782 739.871826,237.133911 
	C733.325806,237.133911 727.248901,237.286087 721.196411,236.970245 
	C720.286072,236.922745 719.075256,234.801422 718.705322,233.447617 
	C715.111450,220.295456 711.659973,207.104309 708.183228,193.920242 
	C706.246948,186.577560 706.260010,186.574112 698.161865,187.678314 
	C698.161865,203.872360 698.161865,220.131699 698.161865,236.780548 
	C691.376099,236.780548 684.987854,236.780548 678.209717,236.780548 
	C678.209717,200.519135 678.209717,164.155518 678.209717,126.285538 
	C692.219482,127.277428 706.165894,127.548523 719.874756,129.493668 
	C728.641846,130.737610 734.476135,137.049576 736.831055,146.396790 
M706.843140,141.551010 
	C704.074890,141.406967 701.306641,141.262924 698.310913,141.107040 
	C698.310913,152.408096 698.310913,163.129349 698.310913,173.817245 
	C714.158447,175.386063 720.539124,169.133484 718.706055,154.164459 
	C718.625183,153.504044 718.483276,152.850769 718.360718,152.195877 
	C717.053162,145.209229 714.858826,143.048035 706.843140,141.551010 
z"/>
<path fill="#FFFDFC" opacity="1.000000" stroke="none" 
	d="
M1021.509766,132.438904 
	C1034.713257,123.905273 1048.268066,123.884735 1061.689087,130.272308 
	C1069.691406,134.080948 1073.624878,141.992981 1073.887085,150.321594 
	C1074.551392,171.415909 1075.155518,192.607803 1073.831543,213.637695 
	C1072.834595,229.473923 1063.322266,237.102951 1047.482544,238.319672 
	C1043.041992,238.660751 1038.450317,238.446335 1034.056519,237.715240 
	C1022.076843,235.722000 1014.785339,228.015625 1013.220642,216.457901 
	C1010.130981,193.635803 1010.224670,170.611984 1013.293091,147.795929 
	C1014.006104,142.494476 1018.487732,137.699844 1021.509766,132.438904 
M1032.156982,173.500000 
	C1032.156982,184.990631 1032.111328,196.481583 1032.193481,207.971634 
	C1032.211182,210.447418 1032.473999,212.967026 1033.000610,215.384384 
	C1034.209839,220.934814 1037.603394,223.487900 1043.342651,223.495377 
	C1048.998901,223.502747 1052.567383,220.877899 1053.710571,215.368225 
	C1054.313599,212.461349 1054.475220,209.421661 1054.488281,206.440384 
	C1054.559448,190.287216 1054.542236,174.133530 1054.500488,157.980148 
	C1054.494019,155.492020 1054.370728,152.979843 1054.010132,150.521561 
	C1052.972656,143.450256 1048.378052,140.126862 1041.316650,141.168793 
	C1035.431519,142.037186 1032.571167,145.672165 1032.237305,153.518204 
	C1031.968506,159.835175 1032.166260,166.172028 1032.156982,173.500000 
z"/>
<path fill="#FFFCFA" opacity="1.000000" stroke="none" 
	d="
M385.159088,181.946564 
	C384.104523,179.389969 383.187561,177.186371 382.270569,174.982773 
	C381.948151,175.070114 381.625702,175.157471 381.303253,175.244812 
	C381.303253,195.623337 381.303253,216.001862 381.303253,236.780426 
	C375.558655,236.780426 370.180420,236.780426 364.472046,236.780426 
	C364.472046,200.490219 364.472046,164.247787 364.472046,127.186707 
	C368.520447,127.186707 372.637787,126.880020 376.657135,127.372925 
	C377.868683,127.521500 379.150696,129.740952 379.819305,131.266464 
	C387.227081,148.168915 394.519958,165.121719 401.845459,182.060242 
	C402.427155,183.405334 403.020111,184.745560 404.554474,185.991547 
	C404.554474,166.597214 404.554474,147.202881 404.554474,127.484009 
	C410.457306,127.484009 415.679230,127.484009 421.215515,127.484009 
	C421.215515,163.909744 421.215515,200.159790 421.215515,237.157333 
	C417.400116,237.157333 413.609283,237.467789 409.922302,236.985092 
	C408.670227,236.821182 407.253052,234.837280 406.635498,233.378464 
	C399.442413,216.386063 392.387878,199.335068 385.159088,181.946564 
z"/>
<path fill="#FFFDFC" opacity="1.000000" stroke="none" 
	d="
M614.006042,409.848877 
	C614.006042,412.149628 614.006042,413.970673 614.006042,416.153503 
	C608.331909,416.153503 602.930725,416.153503 597.172729,416.153503 
	C597.172729,379.718292 597.172729,343.363861 597.172729,306.497101 
	C601.002380,306.497101 604.683716,306.153534 608.242920,306.663177 
	C609.703369,306.872314 611.464661,308.671722 612.130737,310.173004 
	C619.748535,327.341217 627.179993,344.592102 634.666199,361.818756 
	C635.165161,362.966919 635.705017,364.097290 637.049194,364.992889 
	C637.049194,345.767670 637.049194,326.542450 637.049194,306.902405 
	C642.819702,306.902405 648.199097,306.902405 653.795898,306.902405 
	C653.795898,343.311707 653.795898,379.579803 653.795898,416.494843 
	C650.107788,416.494843 646.437744,416.861969 642.909363,416.315338 
	C641.484436,416.094635 639.852356,414.094696 639.191895,412.533325 
	C631.679871,394.774323 624.341248,376.941895 616.943542,359.134369 
	C616.326965,357.650085 615.618591,356.203979 614.006042,354.854370 
	C614.006042,373.025970 614.006042,391.197540 614.006042,409.848877 
z"/>
<path fill="#FFFEFD" opacity="1.000000" stroke="none" 
	d="
M1339.722656,141.435333 
	C1340.980103,147.796112 1342.838257,153.786484 1343.022705,159.827972 
	C1343.480103,174.802673 1343.193359,189.800781 1343.152344,204.789337 
	C1343.145508,207.281143 1343.074341,209.804016 1342.689331,212.258698 
	C1338.932373,236.217224 1311.157593,247.545837 1291.256348,233.206421 
	C1283.923584,227.923050 1280.767578,219.920593 1280.518677,211.536057 
	C1279.931519,191.752472 1279.256836,171.858826 1280.685913,152.159744 
	C1282.119263,132.402298 1294.820068,124.299965 1317.457764,126.391281 
	C1327.356445,127.305756 1335.292847,131.530228 1339.722656,141.435333 
M1300.473267,171.500443 
	C1300.473389,183.657959 1300.444336,195.815628 1300.499390,207.972885 
	C1300.509888,210.292542 1300.645752,212.650574 1301.083008,214.921722 
	C1302.195923,220.700989 1305.769165,223.524689 1311.588257,223.504852 
	C1317.460815,223.484833 1320.917236,220.723846 1322.020386,214.874847 
	C1322.511108,212.273727 1322.799683,209.594666 1322.810791,206.949432 
	C1322.880737,190.462143 1322.875122,173.974304 1322.814819,157.486923 
	C1322.805664,155.005966 1322.546997,152.496765 1322.113281,150.052200 
	C1321.007690,143.821930 1317.607178,140.993134 1311.539429,141.011780 
	C1305.205933,141.031250 1301.558228,143.948181 1300.975586,150.553391 
	C1300.392334,157.165894 1300.608032,163.848846 1300.473267,171.500443 
z"/>
<path fill="#FFFDFC" opacity="1.000000" stroke="none" 
	d="
M979.443176,209.626617 
	C974.516235,197.820526 969.777283,186.350433 965.038330,174.880341 
	C964.750977,174.930313 964.463623,174.980286 964.176270,175.030258 
	C964.176270,195.507599 964.176270,215.984955 964.176270,236.817322 
	C958.323730,236.817322 952.947815,236.817322 947.280518,236.817322 
	C947.280518,200.397217 947.280518,164.036484 947.280518,127.165375 
	C951.297241,127.165375 955.120911,126.870880 958.852600,127.327667 
	C960.130981,127.484146 961.639404,129.319138 962.262146,130.731461 
	C969.705322,147.611374 976.995972,164.558502 984.345398,181.479858 
	C984.965698,182.908035 985.722046,184.277145 987.380371,185.468765 
	C987.380371,166.276764 987.380371,147.084747 987.380371,127.528488 
	C993.139709,127.528488 998.337036,127.528488 1003.858154,127.528488 
	C1003.858154,163.877258 1003.858154,200.107834 1003.858154,237.154190 
	C1000.225891,237.154190 996.456543,237.408127 992.758789,237.005005 
	C991.595215,236.878159 990.199646,235.172913 989.634155,233.874771 
	C986.184021,225.954514 982.942383,217.943420 979.443176,209.626617 
z"/>
<path fill="#FFFCFB" opacity="1.000000" stroke="none" 
	d="
M1272.162109,306.478943 
	C1276.600098,306.479004 1280.563843,306.479004 1284.707275,306.479004 
	C1284.833496,308.107758 1284.996338,309.233063 1284.997070,310.358429 
	C1285.011108,334.335144 1285.289673,358.317291 1284.830811,382.285248 
	C1284.696533,389.297211 1282.973755,396.417908 1281.024780,403.215179 
	C1279.237305,409.449127 1274.342163,413.471252 1268.181763,415.554993 
	C1258.904175,418.693176 1249.489258,418.711365 1240.223511,415.667175 
	C1229.694946,412.208038 1225.742554,403.608582 1224.068237,393.586945 
	C1223.467407,389.989868 1223.128906,386.306030 1223.117188,382.660431 
	C1223.036987,357.529938 1223.075073,332.399109 1223.075073,306.873901 
	C1229.617188,306.873901 1235.981445,306.873901 1242.847290,306.873901 
	C1242.847290,308.891449 1242.847290,310.679779 1242.847290,312.468109 
	C1242.847412,336.111816 1242.793091,359.755798 1242.902710,383.399017 
	C1242.920288,387.192780 1243.333984,391.058746 1244.164673,394.756531 
	C1245.278076,399.712799 1248.984741,402.357239 1253.901733,402.450256 
	C1258.863770,402.544128 1262.590454,400.052063 1263.821777,395.061493 
	C1264.687378,391.552521 1265.080688,387.844025 1265.097046,384.221954 
	C1265.204712,360.412231 1265.152588,336.601746 1265.152710,312.791534 
	C1265.152710,310.971405 1265.152710,309.151276 1265.152710,306.478912 
	C1267.519043,306.478912 1269.603638,306.478912 1272.162109,306.478943 
z"/>
<path fill="#FFFBF9" opacity="1.000000" stroke="none" 
	d="
M1066.425293,402.091003 
	C1071.042969,400.792480 1073.016479,397.584808 1073.740234,393.632751 
	C1074.366455,390.212891 1074.755493,386.699371 1074.768311,383.225494 
	C1074.854858,359.738129 1074.813477,336.250336 1074.813477,312.762665 
	C1074.813477,310.944427 1074.813477,309.126221 1074.813477,306.892090 
	C1081.336060,306.892090 1087.543213,306.892090 1094.039062,306.892090 
	C1094.190796,307.620636 1094.495605,308.396301 1094.492920,309.170959 
	C1094.401855,335.151489 1094.290161,361.132019 1094.147461,387.112335 
	C1094.137451,388.938110 1093.996338,390.783447 1093.700439,392.584290 
	C1089.848267,416.029022 1061.800293,426.744843 1042.842529,411.969299 
	C1035.994995,406.632294 1033.382324,398.783051 1033.255859,390.765594 
	C1032.817627,362.974823 1033.086792,335.172913 1033.086792,306.921509 
	C1038.966553,306.921509 1045.181885,306.921509 1051.944824,306.921509 
	C1052.022827,308.592529 1052.174683,310.343933 1052.175781,312.095428 
	C1052.191772,335.583099 1052.153564,359.070831 1052.224121,382.558289 
	C1052.234131,385.870544 1052.529053,389.218201 1053.075684,392.485291 
	C1054.342651,400.056305 1058.145264,402.803223 1066.425293,402.091003 
z"/>
<path fill="#FFFDFC" opacity="1.000000" stroke="none" 
	d="
M497.821167,186.999908 
	C497.821136,166.895111 497.821136,147.290329 497.821136,127.428940 
	C504.473999,127.428940 510.541718,127.428940 517.178711,127.428940 
	C517.178711,129.480621 517.178711,131.263565 517.178711,133.046509 
	C517.178711,156.201401 517.108582,179.356720 517.242065,202.510834 
	C517.266785,206.803421 517.727539,211.178513 518.675049,215.359650 
	C519.913452,220.824646 523.373108,223.179306 528.735168,223.150986 
	C534.022339,223.123062 537.562256,220.627243 538.630432,215.139099 
	C539.545105,210.439346 539.907898,205.568832 539.935364,200.770538 
	C540.064148,178.282700 539.992615,155.793716 539.992676,133.305145 
	C539.992676,131.491470 539.992676,129.677795 539.992676,127.509995 
	C546.382690,127.509995 552.467224,127.509995 558.877991,127.509995 
	C559.059814,128.255020 559.480103,129.168259 559.476318,130.079727 
	C559.365356,156.725800 559.363525,183.374222 558.923645,210.015305 
	C558.846191,214.709183 557.341064,219.528183 555.724731,224.011627 
	C553.532288,230.092926 549.046204,234.275818 542.787109,236.309296 
	C532.964844,239.500336 523.058899,239.666992 513.440186,235.906021 
	C501.769897,231.342865 499.051819,220.916382 498.125549,209.973724 
	C497.495270,202.527206 497.886627,194.994232 497.821167,186.999908 
z"/>
<path fill="#FFFDFC" opacity="1.000000" stroke="none" 
	d="
M1143.005371,325.416321 
	C1140.246704,320.315277 1136.055664,319.685394 1131.272827,320.575562 
	C1126.395508,321.483276 1124.216675,324.911255 1123.856079,329.371552 
	C1123.361206,335.495087 1123.249878,341.659210 1123.205933,347.807556 
	C1123.115479,360.467712 1123.129883,373.129333 1123.216919,385.789520 
	C1123.236328,388.601013 1123.526978,391.449188 1124.056885,394.210602 
	C1125.178101,400.055206 1128.980957,403.039459 1134.534180,402.748322 
	C1140.047241,402.459290 1143.554321,399.105682 1143.892700,393.028870 
	C1144.214355,387.249023 1143.962036,381.437195 1143.962036,375.321075 
	C1150.786011,375.321075 1157.010132,375.321075 1163.616089,375.321075 
	C1164.134399,384.557953 1164.262329,393.651855 1160.889160,402.373077 
	C1156.566284,413.549744 1145.436890,419.151398 1130.795410,417.741974 
	C1114.176270,416.142151 1104.844971,408.685944 1103.673950,391.915924 
	C1102.262817,371.709076 1102.232300,351.248352 1103.679565,331.046204 
	C1104.971680,313.010284 1115.319824,303.952423 1137.651489,305.418091 
	C1154.319458,306.512054 1161.369019,313.777740 1163.302979,330.388458 
	C1163.893188,335.457550 1163.394409,340.653412 1163.394409,346.155762 
	C1157.265991,346.155762 1151.024536,346.155762 1144.687256,346.155762 
	C1144.161011,339.257996 1143.647827,332.531677 1143.005371,325.416321 
z"/>
<path fill="#FFFCFB" opacity="1.000000" stroke="none" 
	d="
M839.274780,388.506958 
	C841.195312,397.861450 843.025574,406.799316 844.942688,416.161194 
	C838.643127,416.161194 832.738037,416.161194 826.156921,416.161194 
	C824.705505,408.160522 823.206665,399.898529 821.652771,391.333099 
	C815.517700,391.333099 809.427246,391.333099 802.955322,391.333099 
	C801.662842,398.469025 800.478577,405.666351 798.964539,412.793610 
	C798.672302,414.169128 797.157043,416.256805 796.088867,416.331085 
	C790.816589,416.697845 785.504883,416.497955 779.474365,416.497955 
	C780.435242,411.284515 781.220215,406.605499 782.166565,401.959381 
	C788.377014,371.470642 794.679932,341.000488 800.768982,310.487671 
	C801.390625,307.372742 802.497009,306.303650 805.608704,306.419464 
	C811.233826,306.628876 816.872314,306.478760 822.743164,306.478760 
	C828.283142,333.978271 833.733826,361.034302 839.274780,388.506958 
M807.140320,377.827240 
	C811.049927,377.827240 814.959534,377.827240 819.472168,377.827240 
	C817.143616,363.523132 814.944946,350.016693 812.746277,336.510254 
	C809.726685,349.272339 807.646057,362.014923 805.659912,374.772217 
	C805.515259,375.701477 806.055969,376.737457 807.140320,377.827240 
z"/>
<path fill="#FFFCFB" opacity="1.000000" stroke="none" 
	d="
M371.933716,398.227875 
	C371.453766,395.702179 371.032074,393.606567 370.563782,391.279358 
	C364.497986,391.279358 358.557220,391.279358 351.977234,391.279358 
	C350.701752,398.241852 349.182892,405.336243 348.188293,412.503357 
	C347.739532,415.737122 346.470551,416.702728 343.388580,416.573822 
	C338.613495,416.374207 333.823914,416.521179 328.338165,416.521179 
	C330.381531,406.241394 332.245270,396.662598 334.193939,387.101135 
	C339.375061,361.678833 344.663208,336.277985 349.707611,310.828674 
	C350.344940,307.613342 351.316711,306.163086 354.760254,306.424469 
	C360.345703,306.848480 367.533112,304.926514 371.098389,307.734772 
	C374.416473,310.348358 373.953918,317.831146 375.043335,323.193207 
	C381.135895,353.180115 387.196289,383.173584 393.255554,413.167297 
	C393.444794,414.103912 393.501251,415.067383 393.652985,416.286743 
	C387.413696,416.286743 381.460999,416.286743 375.120239,416.286743 
	C374.075958,410.401855 373.033997,404.529907 371.933716,398.227875 
M368.039154,375.469910 
	C365.940704,362.449554 363.842224,349.429230 361.743744,336.408875 
	C361.440430,336.387848 361.137085,336.366791 360.833771,336.345764 
	C358.606018,349.975769 356.378265,363.605743 353.937042,378.542023 
	C359.146667,377.741241 363.609161,377.055328 368.039154,375.469910 
z"/>
<path fill="#FFFDFC" opacity="1.000000" stroke="none" 
	d="
M1196.020874,208.927643 
	C1197.904907,218.426392 1199.739014,227.502914 1201.643677,236.929169 
	C1195.104980,236.929169 1189.169434,236.929169 1182.872681,236.929169 
	C1181.593506,229.813934 1180.163330,222.816254 1179.150269,215.758682 
	C1178.739502,212.896576 1177.851074,211.624176 1174.816406,211.795517 
	C1170.995728,212.011246 1167.141113,212.036652 1163.324463,211.788055 
	C1160.231812,211.586624 1159.367432,213.012985 1158.944702,215.758163 
	C1157.859863,222.802933 1156.502930,229.805756 1155.242188,236.895447 
	C1148.723511,236.895447 1142.626099,236.895447 1136.126709,236.895447 
	C1143.577515,200.241165 1150.956909,163.938217 1158.431763,127.165726 
	C1164.795532,127.165726 1170.934570,126.992851 1177.046021,127.326744 
	C1178.132812,127.386108 1179.751953,129.415466 1180.033569,130.763260 
	C1185.443481,156.656937 1190.690430,182.584671 1196.020874,208.927643 
M1173.080444,179.307938 
	C1171.920776,172.200165 1170.761108,165.092407 1169.601318,157.984634 
	C1169.227295,157.973709 1168.853149,157.962784 1168.479126,157.951859 
	C1166.296265,171.319824 1164.113403,184.687805 1161.910767,198.176971 
	C1166.949341,198.176971 1171.330078,198.176971 1176.166504,198.176971 
	C1175.123169,191.891998 1174.150391,186.031708 1173.080444,179.307938 
z"/>
<path fill="#FFFCFB" opacity="1.000000" stroke="none" 
	d="
M892.928833,414.071716 
	C870.314087,425.178314 848.323792,411.957001 847.677917,387.123993 
	C847.646912,385.931915 848.864502,383.896606 849.869629,383.626373 
	C854.634949,382.345001 859.528381,381.540436 864.650940,380.510773 
	C865.137268,383.729797 865.237061,386.591034 866.052856,389.231018 
	C867.066040,392.509705 868.222595,395.913055 870.134399,398.702484 
	C872.541016,402.213715 876.532349,402.805298 880.474487,401.607697 
	C884.287842,400.449219 885.784424,397.323944 886.068420,393.555511 
	C886.559937,387.032745 884.577698,381.274078 879.857361,376.818726 
	C873.328186,370.656067 866.570435,364.726410 859.754272,358.879211 
	C849.275146,349.889801 845.758850,338.525452 848.188904,325.234131 
	C850.661682,311.708405 863.735474,303.503998 879.459656,305.297272 
	C894.905029,307.058746 902.677979,316.563354 903.269653,335.096588 
	C897.968445,336.175232 892.541504,337.279480 886.749023,338.458099 
	C886.069214,334.676910 885.684448,331.260529 884.812744,327.973267 
	C883.329468,322.380096 879.826233,320.030640 874.601746,320.713165 
	C869.436707,321.387939 866.779846,324.662567 866.514404,330.376221 
	C866.234680,336.399445 869.037964,340.944916 873.274963,344.757874 
	C878.717102,349.655457 884.359253,354.331604 889.777710,359.254517 
	C898.381897,367.071991 904.899902,376.060699 905.467102,388.272675 
	C905.966003,399.015472 902.704102,407.920990 892.928833,414.071716 
z"/>
<path fill="#FFFCFB" opacity="1.000000" stroke="none" 
	d="
M617.719849,228.643356 
	C608.908142,238.297516 595.063599,241.297211 582.679443,236.468597 
	C571.464783,232.095978 565.066956,220.774063 565.209900,204.861313 
	C570.782898,203.689255 576.502747,202.486298 582.065430,201.316406 
	C583.078796,206.168274 583.445984,210.747375 585.086243,214.812805 
	C586.226746,217.639511 588.677307,220.539017 591.319153,222.029526 
	C596.346252,224.865799 601.943176,221.988800 603.278748,216.348511 
	C604.954407,209.272247 602.737061,202.984604 597.750427,198.069183 
	C591.356995,191.767029 584.544922,185.872360 577.713806,180.035446 
	C566.764954,170.680130 563.026123,158.998245 566.021423,145.086029 
	C567.502258,138.207672 571.379150,132.879303 577.703552,129.708420 
	C586.794800,125.150360 596.367554,124.485481 605.768982,128.274933 
	C617.805664,133.126587 619.852356,144.031113 621.252686,155.854507 
	C615.591370,157.017151 610.150269,158.134552 604.424194,159.310471 
	C603.669067,155.479843 603.209229,151.891678 602.226501,148.452942 
	C600.698730,143.106552 597.101135,140.747284 592.327637,141.500381 
	C586.933777,142.351318 584.272339,145.436707 584.010559,151.035507 
	C583.729980,157.036789 586.527710,161.632675 590.747131,165.462845 
	C596.047485,170.274292 601.536804,174.876862 606.878357,179.643799 
	C616.829468,188.524460 624.205627,198.893860 622.818237,212.952271 
	C622.300537,218.197906 619.632507,223.231323 617.719849,228.643356 
z"/>
<path fill="#FFFCFB" opacity="1.000000" stroke="none" 
	d="
M1112.716797,185.561829 
	C1116.192261,165.986526 1119.577271,146.834030 1123.004150,127.444611 
	C1129.007080,127.444611 1134.754761,127.444611 1141.442261,127.444611 
	C1133.984863,164.077881 1126.582397,200.441467 1119.203735,236.688416 
	C1118.334473,236.903366 1117.858032,237.128922 1117.385254,237.121704 
	C1111.579590,237.033142 1104.068848,239.057938 1100.453491,236.186646 
	C1096.907959,233.370911 1097.184204,225.594467 1096.026978,219.945206 
	C1090.121826,191.118210 1084.292725,162.275665 1078.450562,133.435837 
	C1078.063232,131.523895 1077.789185,129.589050 1077.377319,127.162811 
	C1082.884155,127.162811 1087.864868,126.947098 1092.800049,127.325623 
	C1093.930054,127.412300 1095.583862,129.412964 1095.846436,130.757355 
	C1100.021118,152.134247 1104.005005,173.548386 1108.045532,194.951569 
	C1108.381836,196.732956 1108.813110,198.496414 1109.889648,200.313309 
	C1110.802002,195.537079 1111.714233,190.760864 1112.716797,185.561829 
z"/>
<path fill="#FFFCFA" opacity="1.000000" stroke="none" 
	d="
M1408.562988,416.501923 
	C1393.820068,416.516541 1379.540039,416.516541 1365.041626,416.516541 
	C1365.041626,379.693298 1365.041626,343.447327 1365.041626,306.837463 
	C1380.242432,306.837463 1395.296753,306.837463 1410.682373,306.837463 
	C1410.682373,311.290405 1410.682373,315.696045 1410.682373,320.685913 
	C1402.362549,320.685913 1393.969971,320.685913 1385.300903,320.685913 
	C1385.300903,331.318878 1385.300903,341.377960 1385.300903,351.841003 
	C1391.836914,351.841003 1398.270020,351.841003 1405.110840,351.841003 
	C1405.110840,356.761017 1405.110840,361.290375 1405.110840,366.328094 
	C1398.620239,366.328094 1392.197632,366.328094 1385.394897,366.328094 
	C1385.394897,378.364258 1385.394897,389.907440 1385.394897,402.020874 
	C1393.709839,402.020874 1402.099243,402.020874 1411.152222,402.020874 
	C1411.152222,406.492188 1411.261597,410.427338 1411.056274,414.345947 
	C1411.017090,415.093170 1409.734741,415.775208 1408.562988,416.501923 
z"/>
<path fill="#FFFDFC" opacity="1.000000" stroke="none" 
	d="
M775.894958,237.176270 
	C770.782776,237.176865 766.158081,237.176865 760.993896,237.176865 
	C760.993896,228.463791 760.534851,220.155396 761.104370,211.918121 
	C761.904419,200.348404 759.332703,189.580078 755.542236,178.809372 
	C750.193115,163.609650 745.353821,148.230392 740.314331,132.922043 
	C739.757568,131.231049 739.316956,129.501831 738.642334,127.166527 
	C744.539429,127.166527 749.839539,126.917557 755.084717,127.343864 
	C756.375000,127.448738 758.084167,129.558792 758.584106,131.080963 
	C762.161621,141.971375 765.470581,152.949905 768.880859,163.895432 
	C769.352173,165.407959 769.911743,166.892990 770.937561,169.855179 
	C772.538330,164.781769 773.748047,161.092514 774.865967,157.375641 
	C777.498169,148.624451 780.222656,139.897018 782.615356,131.080032 
	C783.403870,128.174103 784.541687,126.912430 787.682739,127.089325 
	C792.316040,127.350266 796.974976,127.156700 802.464233,127.156700 
	C800.412048,133.647247 798.580750,139.601471 796.647278,145.522339 
	C791.798279,160.371918 786.785461,175.169540 782.109070,190.072906 
	C780.939819,193.799179 780.354675,197.836029 780.261841,201.748184 
	C780.012939,212.233749 780.084534,222.730408 780.234619,233.219727 
	C780.276794,236.166321 779.574158,237.705780 775.894958,237.176270 
z"/>
<path fill="#FFF7F3" opacity="1.000000" stroke="none" 
	d="
M942.557373,410.719116 
	C943.142334,415.121307 941.876221,417.100128 937.476929,416.623047 
	C934.349854,416.283966 931.128845,416.294006 927.999207,416.621429 
	C923.685425,417.072723 922.294739,415.696075 922.333801,411.158447 
	C922.557739,385.183411 922.442322,359.205444 922.442261,333.228455 
	C922.442261,329.598145 922.442322,325.967834 922.442322,321.642548 
	C916.095825,321.642548 910.210327,321.642548 904.156128,321.642548 
	C904.156128,316.318390 904.156128,311.694672 904.156128,306.726471 
	C905.755981,306.626221 907.216980,306.456909 908.678284,306.455109 
	C924.331055,306.435822 939.984680,306.527283 955.636047,306.377533 
	C959.109558,306.344299 960.688782,306.965912 960.657837,310.971252 
	C960.575989,321.552490 960.772949,321.554138 950.206055,321.557526 
	C947.910522,321.558258 945.615051,321.557648 942.557495,321.557648 
	C942.557495,351.453125 942.557495,380.854980 942.557373,410.719116 
z"/>
<path fill="#FFFCFB" opacity="1.000000" stroke="none" 
	d="
M664.990723,345.000000 
	C664.990723,332.029755 664.990723,319.559509 664.990723,306.784485 
	C680.065186,306.784485 694.807861,306.784485 709.866699,306.784485 
	C709.866699,311.202637 709.866699,315.450653 709.866699,320.421021 
	C701.836365,320.421021 693.797119,320.421021 685.481079,320.421021 
	C685.481079,331.210876 685.481079,341.289673 685.481079,352.042114 
	C691.904785,352.042114 698.275208,352.042114 704.905396,352.042114 
	C704.905396,357.126038 704.905396,361.539886 704.905396,366.478455 
	C698.446777,366.478455 692.176941,366.478455 685.383118,366.478455 
	C685.383118,383.222076 685.383118,399.457977 685.383118,416.104919 
	C678.487671,416.104919 672.108337,416.104919 664.990723,416.104919 
	C664.990723,392.600006 664.990723,369.049988 664.990723,345.000000 
z"/>
<path fill="#FFFBF9" opacity="1.000000" stroke="none" 
	d="
M640.000488,127.145248 
	C652.131958,127.145248 663.763672,127.145248 675.789795,127.145248 
	C675.789795,132.207458 675.789795,136.905167 675.789795,142.091187 
	C670.298035,142.091187 664.873596,142.091187 658.741577,142.091187 
	C658.741577,173.907501 658.741577,205.256195 658.741577,236.892578 
	C651.614441,236.892578 645.205872,236.892578 638.319641,236.892578 
	C638.319641,205.501938 638.319641,174.260300 638.319641,142.495392 
	C632.140076,142.495392 626.398621,142.495392 620.237549,142.495392 
	C620.237549,137.275436 620.237549,132.560532 620.237549,127.145248 
	C626.626221,127.145248 633.063416,127.145248 640.000488,127.145248 
z"/>
<path fill="#FFFCFA" opacity="1.000000" stroke="none" 
	d="
M1201.999023,306.473969 
	C1208.455078,306.474030 1214.411377,306.474030 1220.601318,306.474030 
	C1220.601318,311.686188 1220.601318,316.271606 1220.601318,321.383087 
	C1214.827026,321.383087 1209.226196,321.383087 1203.199951,321.383087 
	C1203.199951,353.151825 1203.199951,384.401062 1203.199951,416.087158 
	C1196.266846,416.087158 1189.754883,416.087158 1182.743164,416.087158 
	C1182.743164,384.671997 1182.743164,353.427216 1182.743164,321.519592 
	C1176.363770,321.519592 1170.462158,321.519592 1164.403931,321.519592 
	C1164.403931,316.264191 1164.403931,311.678345 1164.403931,306.473907 
	C1176.933228,306.473907 1189.216187,306.473907 1201.999023,306.473969 
z"/>
<path fill="#FFFEFE" opacity="1.000000" stroke="none" 
	d="
M1212.000122,233.826202 
	C1211.998657,203.201996 1211.998657,173.064026 1211.998657,142.380157 
	C1206.023071,142.380157 1200.281372,142.380157 1194.189209,142.380157 
	C1194.189209,137.133316 1194.189209,132.428741 1194.189209,127.441345 
	C1212.635986,127.441345 1230.895996,127.441345 1249.579346,127.441345 
	C1249.579346,132.093170 1249.579346,136.798126 1249.579346,142.030273 
	C1244.088623,142.030273 1238.511108,142.030273 1232.309082,142.030273 
	C1232.309082,173.899155 1232.309082,205.259415 1232.309082,237.152695 
	C1225.903809,237.152695 1220.120117,237.264359 1214.350952,237.026367 
	C1213.531860,236.992584 1212.782959,235.259201 1212.000122,233.826202 
z"/>
<path fill="#FFF7F3" opacity="1.000000" stroke="none" 
	d="
M334.442566,184.999756 
	C334.442627,165.570404 334.442627,146.641083 334.442627,127.423035 
	C341.273651,127.423035 347.524200,127.423035 354.168335,127.423035 
	C354.168335,163.815353 354.168335,200.177475 354.168335,236.873245 
	C347.837769,236.873245 341.439240,236.873245 334.442505,236.873245 
	C334.442505,219.659195 334.442505,202.579483 334.442566,184.999756 
z"/>
<path fill="#FFFBF9" opacity="1.000000" stroke="none" 
	d="
M585.188965,356.000946 
	C585.188904,376.279877 585.188904,396.058777 585.188904,416.511749 
	C579.236267,416.511749 573.650452,416.567047 568.066345,416.491852 
	C564.495300,416.443787 565.511353,413.610046 565.504333,411.683441 
	C565.441345,394.375702 565.467285,377.067627 565.467163,359.759674 
	C565.467102,343.949524 565.667236,328.135315 565.349365,312.331573 
	C565.249634,307.373810 566.858276,305.963409 571.553833,306.385651 
	C575.837036,306.770752 580.182190,306.467224 585.188965,306.467224 
	C585.188965,322.998138 585.188965,339.249512 585.188965,356.000946 
z"/>
<path fill="#FFFEFE" opacity="1.000000" stroke="none" 
	d="
M1272.001587,181.000000 
	C1272.001587,199.789825 1272.001587,218.079651 1272.001587,236.769958 
	C1265.404419,236.769958 1259.030396,236.769958 1252.324219,236.769958 
	C1252.324219,200.499969 1252.324219,164.153397 1252.324219,127.483841 
	C1258.628662,127.483841 1264.880371,127.483841 1272.001587,127.483841 
	C1272.001587,145.083160 1272.001587,162.791580 1272.001587,181.000000 
z"/>
<path fill="#FFFDFC" opacity="1.000000" stroke="none" 
	d="
M864.877197,237.178772 
	C860.106323,237.178818 855.817261,237.178818 851.265869,237.178818 
	C851.265869,200.379211 851.265869,164.031418 851.265869,127.418961 
	C857.749268,127.418961 863.980347,127.418961 870.528564,127.418961 
	C870.528564,163.883636 870.528564,200.089462 870.528564,236.900558 
	C868.844910,236.991165 867.101990,237.084961 864.877197,237.178772 
z"/>
<path fill="#FFFBF9" opacity="1.000000" stroke="none" 
	d="
M818.262939,239.236572 
	C816.854553,249.020935 813.042297,253.218765 803.205627,255.752289 
	C802.474731,253.694183 801.727295,251.589539 800.950562,249.402527 
	C803.054504,247.807693 805.315674,246.620987 806.817505,244.805939 
	C808.299561,243.014709 809.013550,240.587891 810.452881,237.646118 
	C806.425964,237.347534 803.382812,237.121887 800.200256,236.885910 
	C800.200256,231.021652 800.200256,225.271469 800.200256,219.254089 
	C806.152100,219.254089 811.897034,219.254089 818.328552,219.254089 
	C818.328552,225.735107 818.328552,232.271561 818.262939,239.236572 
z"/>
<path fill="#FD6926" opacity="1.000000" stroke="none" 
	d="
M520.635620,1090.321777 
	C533.190857,1097.591309 545.399109,1104.730713 557.706726,1111.694702 
	C560.146545,1113.075195 561.234314,1114.551514 561.229736,1117.496704 
	C561.137024,1177.139771 561.158508,1236.782837 561.150452,1296.426025 
	C561.150330,1297.087280 561.062073,1297.748535 560.977417,1298.936401 
	C559.646423,1298.347412 558.475037,1297.952515 557.425110,1297.346924 
	C506.117676,1267.755005 454.807434,1238.167847 403.583710,1208.431641 
	C401.983276,1207.502563 400.317474,1205.015747 400.312500,1203.250610 
	C400.144318,1143.441284 400.173553,1083.631470 400.182037,1023.821716 
	C400.182129,1023.174622 400.285797,1022.527466 400.419861,1020.958984 
	C440.670959,1044.179443 480.497253,1067.154785 520.635620,1090.321777 
z"/>
<path fill="#FD6926" opacity="1.000000" stroke="none" 
	d="
M948.973022,1090.037842 
	C946.560608,1090.354614 943.969116,1091.400513 942.471741,1090.540894 
	C890.253662,1060.563110 838.138550,1030.406006 786.012756,1000.267517 
	C785.730530,1000.104431 785.504028,999.845032 784.827332,999.270264 
	C787.121460,997.843628 789.248535,996.435242 791.453735,995.162109 
	C841.293030,966.388306 891.159241,937.661194 940.943848,908.793274 
	C944.113770,906.955200 946.321289,907.042969 949.473572,908.871826 
	C1000.114136,938.252502 1050.841553,967.483337 1101.547241,996.751709 
	C1102.821411,997.487122 1104.072632,998.262451 1105.947144,999.386597 
	C1053.399414,1029.743164 1001.351746,1059.810913 948.973022,1090.037842 
z"/>
<path fill="#FD6925" opacity="1.000000" stroke="none" 
	d="
M1118.491699,1124.000488 
	C1118.491577,1150.318970 1118.474121,1176.137573 1118.516235,1201.956055 
	C1118.520630,1204.712646 1118.371704,1206.880981 1115.441040,1208.564575 
	C1063.659058,1238.312988 1011.950134,1268.188354 960.221008,1298.028687 
	C959.671570,1298.345703 959.065002,1298.563599 957.962158,1299.066040 
	C957.787231,1297.328491 957.527344,1295.948730 957.526855,1294.568848 
	C957.506531,1235.769287 957.526489,1176.969604 957.458679,1118.170044 
	C957.455261,1115.226562 958.151428,1113.379272 960.907410,1111.793945 
	C1012.096191,1082.348267 1063.217163,1052.784912 1114.357788,1023.255432 
	C1115.334839,1022.691223 1116.375000,1022.235962 1118.491699,1021.176147 
	C1118.491699,1055.832642 1118.491699,1089.666504 1118.491699,1124.000488 
z"/>
<path fill="#FD6A26" opacity="1.000000" stroke="none" 
	d="
M813.812561,767.806396 
	C853.379822,744.947693 892.629395,722.270996 932.533813,699.215942 
	C932.533813,756.604431 932.533813,812.989685 932.533813,870.432678 
	C883.075500,841.874512 833.989319,813.531311 784.276978,784.826477 
	C794.538269,778.912903 804.016541,773.450623 813.812561,767.806396 
z"/>
<path fill="#FD6926" opacity="1.000000" stroke="none" 
	d="
M727.125366,789.108154 
	C680.160400,816.220886 633.524048,843.158325 586.340576,870.411865 
	C586.340576,813.239990 586.340576,756.744934 586.340576,699.279297 
	C635.734985,727.791382 684.712219,756.062622 734.392090,784.739441 
	C731.635132,786.405762 729.544556,787.669373 727.125366,789.108154 
z"/>
<path fill="#FD6926" opacity="1.000000" stroke="none" 
	d="
M639.819946,1159.166382 
	C671.259033,1177.313110 702.375183,1195.288818 734.518005,1213.857422 
	C684.925171,1242.492188 635.954285,1270.767822 586.422363,1299.367432 
	C586.422363,1242.316528 586.422363,1185.826782 586.422363,1128.362183 
	C604.279114,1138.668579 621.888062,1148.831909 639.819946,1159.166382 
z"/>
<path fill="#FD6926" opacity="1.000000" stroke="none" 
	d="
M628.881958,1124.139038 
	C618.777954,1118.307129 608.999268,1112.643311 598.533691,1106.581543 
	C648.109436,1077.953003 697.122192,1049.649536 746.655396,1021.045593 
	C746.655396,1078.182739 746.655396,1134.715088 746.655396,1192.133911 
	C707.341858,1169.430176 668.274536,1146.868530 628.881958,1124.139038 
z"/>
<path fill="#FD6926" opacity="1.000000" stroke="none" 
	d="
M628.057800,875.032898 
	C667.643433,852.184265 706.904907,829.505676 746.718201,806.508362 
	C746.718201,863.776917 746.718201,920.252930 746.718201,977.633057 
	C697.308472,949.117798 648.413940,920.899841 598.581543,892.140686 
	C608.685547,886.270142 618.209595,880.736511 628.057800,875.032898 
z"/>
<path fill="#FD6926" opacity="1.000000" stroke="none" 
	d="
M915.783569,894.713745 
	C867.939026,922.335510 820.411560,949.750610 772.270142,977.519836 
	C772.270142,920.375793 772.270142,863.899658 772.270142,806.620056 
	C821.434082,835.008362 870.326660,863.239990 919.909363,891.870117 
	C918.325439,892.966797 917.213074,893.736938 915.783569,894.713745 
z"/>
<path fill="#FD6A26" opacity="1.000000" stroke="none" 
	d="
M208.539520,174.579086 
	C213.520660,183.801224 214.604980,193.559692 214.770157,203.399994 
	C215.010361,217.710541 214.832031,232.028091 214.831909,246.342667 
	C214.831802,256.540833 207.361679,264.826111 197.117630,265.990540 
	C185.146759,267.351227 176.869720,262.322205 174.912323,249.721344 
	C171.325851,226.633316 171.020889,203.340012 176.409500,180.361526 
	C178.037369,173.419907 182.451736,168.429993 189.882614,167.272446 
	C197.237671,166.126694 203.826675,167.609177 208.539520,174.579086 
z"/>
<path fill="#FD6926" opacity="1.000000" stroke="none" 
	d="
M501.973328,322.685974 
	C503.879456,326.029785 506.743011,329.131622 506.810150,332.292816 
	C507.219971,351.589478 507.162292,370.901886 506.900726,390.204163 
	C506.792938,398.157288 503.019348,401.508698 495.048401,401.975098 
	C492.906799,402.100403 490.751648,401.994110 488.227722,401.994110 
	C488.227722,375.175690 488.227722,348.465118 488.227722,320.583130 
	C492.702301,321.213165 497.170288,321.842285 501.973328,322.685974 
z"/>
<path fill="#FD6C29" opacity="1.000000" stroke="none" 
	d="
M1001.047852,323.933716 
	C1005.797119,331.018829 1005.590210,338.298920 1003.269531,345.682526 
	C1001.718506,350.617462 997.640625,352.448334 992.941650,352.953552 
	C990.174561,353.251099 987.349365,353.007904 984.199097,353.007904 
	C984.199097,342.312134 984.199097,331.791565 984.199097,320.789032 
	C990.010010,320.417511 995.709045,319.844818 1001.047852,323.933716 
z"/>
<path fill="#FD6E2C" opacity="1.000000" stroke="none" 
	d="
M754.333252,347.027435 
	C749.703613,354.255005 742.844666,353.138489 735.853516,353.044586 
	C735.853516,342.248688 735.853516,331.698364 735.853516,320.352722 
	C739.968689,320.651154 743.942444,320.588501 747.770264,321.305450 
	C752.597961,322.209625 755.459534,325.836090 755.654541,330.459015 
	C755.881775,335.843475 754.955383,341.276581 754.333252,347.027435 
z"/>
<path fill="#FD6926" opacity="1.000000" stroke="none" 
	d="
M450.844452,208.993347 
	C450.844452,186.535507 450.844452,164.575989 450.844452,142.052612 
	C454.139954,142.052612 457.093384,141.886902 460.021790,142.087189 
	C466.074310,142.501099 469.699677,145.674469 469.968445,151.832001 
	C470.447296,162.803299 470.417877,173.799774 470.458344,184.786255 
	C470.488983,193.108627 470.592407,201.448212 470.130157,209.750458 
	C469.560883,219.973450 466.192657,222.884720 456.032379,222.990662 
	C454.549316,223.006134 453.065918,222.992798 450.844452,222.992798 
	C450.844452,218.337769 450.844452,213.914719 450.844452,208.993347 
z"/>
<path fill="#FD6E2C" opacity="1.000000" stroke="none" 
	d="
M1322.492920,320.552521 
	C1333.903687,321.007294 1337.241455,327.160156 1335.728149,341.623718 
	C1334.735596,351.110992 1327.753296,354.689362 1315.444702,352.597748 
	C1315.444702,342.242798 1315.444702,331.832947 1315.444702,320.509766 
	C1317.614868,320.509766 1319.844116,320.509766 1322.492920,320.552521 
z"/>
<path fill="#FD6C29" opacity="1.000000" stroke="none" 
	d="
M707.260376,141.610626 
	C714.858826,143.048035 717.053162,145.209229 718.360718,152.195877 
	C718.483276,152.850769 718.625183,153.504044 718.706055,154.164459 
	C720.539124,169.133484 714.158447,175.386063 698.310913,173.817245 
	C698.310913,163.129349 698.310913,152.408096 698.310913,141.107040 
	C701.306641,141.262924 704.074890,141.406967 707.260376,141.610626 
z"/>
<path fill="#FD6E2C" opacity="1.000000" stroke="none" 
	d="
M1032.156982,173.000031 
	C1032.166260,166.172028 1031.968506,159.835175 1032.237305,153.518204 
	C1032.571167,145.672165 1035.431519,142.037186 1041.316650,141.168793 
	C1048.378052,140.126862 1052.972656,143.450256 1054.010132,150.521561 
	C1054.370728,152.979843 1054.494019,155.492020 1054.500488,157.980148 
	C1054.542236,174.133530 1054.559448,190.287216 1054.488281,206.440384 
	C1054.475220,209.421661 1054.313599,212.461349 1053.710571,215.368225 
	C1052.567383,220.877899 1048.998901,223.502747 1043.342651,223.495377 
	C1037.603394,223.487900 1034.209839,220.934814 1033.000610,215.384384 
	C1032.473999,212.967026 1032.211182,210.447418 1032.193481,207.971634 
	C1032.111328,196.481583 1032.156982,184.990631 1032.156982,173.000031 
z"/>
<path fill="#FD6E2C" opacity="1.000000" stroke="none" 
	d="
M1300.473389,171.000671 
	C1300.608032,163.848846 1300.392334,157.165894 1300.975586,150.553391 
	C1301.558228,143.948181 1305.205933,141.031250 1311.539429,141.011780 
	C1317.607178,140.993134 1321.007690,143.821930 1322.113281,150.052200 
	C1322.546997,152.496765 1322.805664,155.005966 1322.814819,157.486923 
	C1322.875122,173.974304 1322.880737,190.462143 1322.810791,206.949432 
	C1322.799683,209.594666 1322.511108,212.273727 1322.020386,214.874847 
	C1320.917236,220.723846 1317.460815,223.484833 1311.588257,223.504852 
	C1305.769165,223.524689 1302.195923,220.700989 1301.083008,214.921722 
	C1300.645752,212.650574 1300.509888,210.292542 1300.499390,207.972885 
	C1300.444336,195.815628 1300.473389,183.657959 1300.473389,171.000671 
z"/>
<path fill="#FD7131" opacity="1.000000" stroke="none" 
	d="
M806.709167,377.775513 
	C806.055969,376.737457 805.515259,375.701477 805.659912,374.772217 
	C807.646057,362.014923 809.726685,349.272339 812.746277,336.510254 
	C814.944946,350.016693 817.143616,363.523132 819.472168,377.827240 
	C814.959534,377.827240 811.049927,377.827240 806.709167,377.775513 
z"/>
<path fill="#FD7131" opacity="1.000000" stroke="none" 
	d="
M368.055389,375.919678 
	C363.609161,377.055328 359.146667,377.741241 353.937042,378.542023 
	C356.378265,363.605743 358.606018,349.975769 360.833771,336.345764 
	C361.137085,336.366791 361.440430,336.387848 361.743744,336.408875 
	C363.842224,349.429230 365.940704,362.449554 368.055389,375.919678 
z"/>
<path fill="#FD7131" opacity="1.000000" stroke="none" 
	d="
M1173.129028,179.739685 
	C1174.150391,186.031708 1175.123169,191.891998 1176.166504,198.176971 
	C1171.330078,198.176971 1166.949341,198.176971 1161.910767,198.176971 
	C1164.113403,184.687805 1166.296265,171.319824 1168.479126,157.951859 
	C1168.853149,157.962784 1169.227295,157.973709 1169.601318,157.984634 
	C1170.761108,165.092407 1171.920776,172.200165 1173.129028,179.739685 
z"/>
</svg>