<svg version="1.1" id="Layer_1" xmlns="http://www.w3.org/2000/svg" xmlns:xlink="http://www.w3.org/1999/xlink" x="0px" y="0px"
	 width="100%" viewBox="0 0 1500 1500" enable-background="new 0 0 1500 1500" xml:space="preserve">
<path fill="#00689D" opacity="1.000000" stroke="none" 
	d="
M1.000000,551.000000 
	C1.000000,367.333374 1.000000,184.166733 1.000000,1.000074 
	C500.999878,1.000049 1000.999756,1.000049 1500.999756,1.000025 
	C1500.999756,500.999786 1500.999756,1000.999573 1500.999878,1500.999512 
	C1001.000305,1500.999756 501.000610,1500.999756 1.000452,1500.999878 
	C1.000000,1184.500000 1.000000,868.000000 1.000000,551.000000 
M987.389893,777.895386 
	C977.520386,790.640564 970.424194,804.745239 966.977478,820.333496 
	C960.233398,813.820129 953.445251,807.685181 947.145569,801.084045 
	C937.059570,790.515320 925.241028,785.823181 910.664124,788.827759 
	C898.493286,791.336426 887.641724,796.951416 878.103455,804.468750 
	C861.775452,817.337280 846.015930,830.937683 830.213013,844.458984 
	C812.818604,859.341919 793.581360,870.381226 770.663574,873.977356 
	C743.891174,878.178284 719.593811,871.054199 696.728149,857.530457 
	C678.615845,846.817993 663.997803,832.011536 649.021973,817.524536 
	C609.121155,778.926331 563.432922,751.626282 506.779755,746.524597 
	C489.942932,745.008484 473.107819,745.440979 455.352814,747.362122 
	C456.502045,748.147217 456.869263,748.486206 457.301544,748.680542 
	C473.654205,756.031433 484.261688,768.917664 491.726898,784.708740 
	C501.533234,805.451843 506.844666,827.628601 512.010742,849.823975 
	C517.133057,871.830811 521.097473,894.129456 529.882141,915.151001 
	C541.390747,942.690979 557.860962,966.152771 583.830566,981.972107 
	C600.085327,991.873596 617.926270,997.046997 638.158813,999.497375 
	C635.523621,1000.254211 634.318420,1000.722107 633.069641,1000.940002 
	C621.809021,1002.904114 611.126953,1006.573181 601.368103,1012.502625 
	C591.273071,1018.636292 581.490051,1025.280884 571.468933,1031.539429 
	C562.459778,1037.166016 553.780518,1043.638916 544.135498,1047.867432 
	C519.371826,1058.724243 493.305115,1058.368408 467.088470,1054.528809 
	C464.968079,1054.218262 462.819122,1054.102539 460.683472,1053.896362 
	C483.143524,1064.039062 503.433563,1077.372070 523.770508,1090.514404 
	C552.067688,1108.800903 582.262573,1122.068848 615.653320,1127.502808 
	C625.973633,1129.182251 636.348999,1130.523315 646.710876,1132.020874 
	C646.710876,1154.318970 646.710876,1176.577515 646.710876,1199.254883 
	C573.301453,1197.684204 500.186523,1196.119873 427.237427,1194.558960 
	C427.237427,1210.871094 427.237427,1226.435059 427.237427,1242.088867 
	C464.937927,1241.332031 502.230896,1240.660645 539.519958,1239.816162 
	C590.118347,1238.670288 640.713135,1237.361938 691.310730,1236.180908 
	C724.267883,1235.411499 757.225830,1234.649658 790.186707,1234.075317 
	C804.978455,1233.817505 819.804932,1233.474609 834.566345,1234.189331 
	C847.678650,1234.824097 860.725769,1236.839722 873.795959,1238.296753 
	C884.810181,1239.524414 895.816223,1240.824951 906.998535,1242.113159 
	C906.998535,1254.117432 906.960999,1265.600098 907.011108,1277.082397 
	C907.047119,1285.343018 911.011841,1289.469727 919.234741,1289.481689 
	C958.898315,1289.539795 998.562195,1289.537720 1038.225830,1289.483032 
	C1046.260864,1289.472046 1050.154419,1285.464600 1050.159180,1277.470581 
	C1050.182617,1237.973511 1050.183716,1198.476440 1050.157837,1158.979370 
	C1050.152832,1151.322266 1046.142944,1147.194702 1038.498901,1147.185181 
	C998.501953,1147.135132 958.504761,1147.131836 918.507874,1147.190186 
	C911.346313,1147.200562 907.098999,1151.559692 907.025879,1158.820435 
	C906.921875,1169.151978 907.008484,1179.485352 906.988525,1189.817871 
	C906.985413,1191.422607 906.848816,1193.027100 906.770020,1194.716431 
	C890.281555,1196.517456 874.242554,1198.296143 858.197021,1200.012939 
	C847.446960,1201.163086 836.685303,1203.168335 825.932678,1203.143555 
	C798.134521,1203.079590 770.339539,1202.044556 742.541016,1201.520874 
	C732.439575,1201.330566 722.331665,1201.490234 712.049561,1201.490234 
	C712.049561,1176.959351 712.049561,1153.692871 712.049561,1130.258545 
	C713.984070,1129.881836 715.738525,1129.452759 717.518250,1129.206909 
	C738.516174,1126.306885 758.967163,1121.177246 778.882202,1113.961548 
	C807.715210,1103.514771 834.111511,1089.056519 855.081970,1066.139648 
	C883.949829,1034.592163 893.162048,996.466675 891.698181,954.887634 
	C891.051025,936.504089 891.885071,918.276245 897.087646,900.474182 
	C905.890137,870.354004 934.657654,847.823975 964.514587,848.100647 
	C965.325806,867.193237 969.265198,885.745178 975.447632,904.212402 
	C978.230042,903.837708 980.713745,903.503235 983.406738,903.140564 
	C977.465332,884.170593 972.677307,865.763550 972.712158,845.913147 
	C981.151306,845.515686 989.156860,845.138672 997.344238,844.753052 
	C990.311951,839.567139 983.593079,834.478271 976.715881,829.613159 
	C974.286377,827.894470 973.908386,826.145752 974.510742,823.294800 
	C978.372803,805.015564 987.453186,789.513550 999.767761,775.823792 
	C1012.015808,762.208252 1024.684692,748.971924 1036.987061,735.404297 
	C1040.262573,731.791931 1042.871094,727.574585 1045.972778,723.382263 
	C1043.319824,721.677246 1041.283325,720.368469 1039.338989,719.118896 
	C1034.835815,724.762024 1030.841553,730.309448 1026.295654,735.360229 
	C1013.601196,749.464478 1000.678345,763.363159 987.389893,777.895386 
M265.066406,128.471939 
	C245.936966,132.783020 232.190414,143.672684 224.001083,161.624451 
	C216.910721,177.167160 213.357162,193.606216 213.149445,210.477127 
	C212.640869,251.783661 212.534683,293.104279 213.077057,334.408569 
	C213.221558,345.412201 215.218964,356.681488 218.232193,367.299072 
	C225.210190,391.887146 239.291779,410.549927 265.371552,417.523621 
	C276.918762,420.611237 288.677673,420.997864 300.541840,420.027924 
	C327.481476,417.825500 347.249695,405.426270 357.109100,379.596069 
	C368.716400,349.186859 369.753845,317.911957 363.190521,286.304779 
	C360.446716,273.091187 355.333954,260.660767 345.064636,251.438309 
	C329.905029,237.824051 311.641479,236.254730 292.527924,239.641678 
	C283.241791,241.287186 275.168121,245.533981 268.428375,253.254684 
	C268.428375,238.524399 267.862488,224.714706 268.613281,210.976990 
	C269.180389,200.600861 270.987518,190.224686 273.104462,180.027435 
	C274.301880,174.259399 278.489014,170.016724 284.645752,168.778137 
	C297.645447,166.162918 307.119049,170.080551 308.927887,184.175400 
	C309.748657,190.570984 310.194153,197.014740 310.821350,203.556641 
	C328.157898,203.556641 345.228180,203.556641 363.429901,203.556641 
	C361.914795,192.325592 361.282776,181.323669 358.826996,170.745132 
	C353.627960,148.349655 339.683807,134.049133 316.905457,128.878494 
	C299.927246,125.024467 282.923645,125.001579 265.066406,128.471939 
M86.191261,200.524216 
	C87.101349,200.675934 88.142624,201.195221 88.901871,200.924271 
	C100.474892,196.794327 112.009621,192.557175 123.557785,188.357407 
	C124.853996,187.886002 126.177559,187.489792 128.116882,186.852036 
	C128.116882,263.782104 128.116882,339.970306 128.116882,416.226440 
	C146.503143,416.226440 164.427856,416.226440 182.535172,416.226440 
	C182.535172,320.619507 182.535172,225.299896 182.535172,129.486450 
	C170.941742,129.486450 159.639130,129.743866 148.356735,129.377731 
	C142.724792,129.194946 138.761078,131.302002 134.042023,134.296051 
	C119.780235,143.344559 104.802101,151.281052 89.940781,159.351959 
	C87.250786,160.812851 86.017975,162.030365 86.076401,165.212585 
	C86.287338,176.701324 86.161934,188.196243 86.191261,200.524216 
M956.499573,1134.518799 
	C975.161316,1134.518799 993.822998,1134.520142 1012.484741,1134.518311 
	C1023.148499,1134.517212 1033.817749,1134.723755 1044.474609,1134.448975 
	C1055.675903,1134.160156 1063.283325,1126.048706 1063.068115,1115.191528 
	C1062.862915,1104.843384 1054.768433,1097.035156 1043.849731,1097.019775 
	C1000.361389,1096.958618 956.872986,1096.992920 913.384583,1096.997925 
	C907.772705,1096.998535 902.877502,1098.874878 899.154297,1103.111328 
	C893.965332,1109.015503 892.669006,1115.799072 895.769531,1123.077881 
	C899.057129,1130.796143 905.252808,1134.441895 913.510864,1134.492798 
	C927.506653,1134.578979 941.503235,1134.517822 956.499573,1134.518799 
M1050.592041,1338.375610 
	C1060.033203,1334.251099 1064.615601,1326.220703 1062.830933,1316.928345 
	C1061.107544,1307.955933 1053.305664,1302.013184 1043.138916,1301.999878 
	C1026.657104,1301.978149 1010.175354,1301.993774 993.693542,1301.993896 
	C966.889832,1301.994019 940.085876,1301.935303 913.282410,1302.020020 
	C900.539062,1302.060181 891.858521,1313.147949 894.839905,1325.287109 
	C897.085754,1334.431519 904.380432,1339.500122 915.578064,1339.507568 
	C957.698181,1339.535400 999.818359,1339.533325 1041.938477,1339.483398 
	C1044.578003,1339.480347 1047.217041,1338.971558 1050.592041,1338.375610 
M622.773682,308.482880 
	C621.307556,308.558136 619.841431,308.633423 618.364868,308.709229 
	C618.364868,345.342651 618.364868,381.681183 618.364868,418.103302 
	C629.217957,418.103302 639.710754,418.389343 650.181946,418.036652 
	C666.130005,417.499573 676.118408,410.038910 677.221191,394.352936 
	C678.697327,373.354919 678.562012,352.118164 677.279907,331.096069 
	C676.431641,317.189056 667.076111,310.014038 652.655762,309.074738 
	C643.039429,308.448334 633.369019,308.651154 622.773682,308.482880 
M1004.325256,593.911194 
	C1012.149841,588.310913 1015.573425,580.092468 1015.825073,571.073242 
	C1016.354065,552.107544 1016.515869,533.098206 1015.833679,514.142517 
	C1015.273621,498.577942 1006.349182,488.730743 992.804871,487.090607 
	C988.051025,486.514984 983.144958,486.461426 978.374695,486.896484 
	C964.926758,488.122955 956.969971,495.251617 954.270630,508.272949 
	C953.498108,511.999664 953.081604,515.863159 953.047546,519.668823 
	C952.911926,534.832886 952.621155,550.012207 953.168030,565.157776 
	C953.397217,571.503723 955.037964,577.952576 957.013550,584.037659 
	C958.928406,589.935852 963.390442,594.205139 969.408569,596.249512 
	C981.065308,600.209229 992.579102,600.311401 1004.325256,593.911194 
M971.909485,329.710846 
	C967.584290,314.399536 960.909546,308.382324 945.267090,307.357269 
	C925.394409,306.055084 912.276733,312.666046 910.852783,331.851715 
	C909.258423,353.332367 910.044861,375.084656 911.237427,396.638916 
	C911.873901,408.143829 919.221008,416.354828 931.161377,418.628357 
	C936.312256,419.609131 941.794312,419.802734 947.016785,419.274841 
	C961.855530,417.774872 970.329773,410.233887 971.916931,395.329163 
	C973.338745,381.976837 973.040771,368.420227 973.099915,354.951965 
	C973.135681,346.821869 972.405212,338.688354 971.909485,329.710846 
M859.174316,398.499725 
	C859.174316,388.558044 859.174316,378.616394 859.174316,368.429871 
	C862.331238,368.429871 864.927551,368.429871 867.875427,368.429871 
	C872.216919,384.918701 876.562988,401.424713 880.872681,417.792725 
	C887.779175,417.792725 894.306274,417.792725 901.173828,417.792725 
	C896.123108,399.799805 891.196899,382.250458 886.217346,364.511139 
	C895.851379,359.816284 898.678162,351.442474 899.107788,341.797607 
	C899.233459,338.975189 899.204651,336.134155 899.046631,333.312866 
	C898.329224,320.507324 891.812317,311.865356 879.136108,310.154266 
	C866.050903,308.388031 852.705078,308.552063 839.357117,307.865601 
	C839.357117,345.326782 839.357117,381.671509 839.357117,417.805511 
	C846.134094,417.805511 852.544678,417.805511 859.174316,417.805511 
	C859.174316,411.458679 859.174316,405.479126 859.174316,398.499725 
M1055.036743,556.553406 
	C1060.211182,568.981750 1065.334961,581.431763 1070.628784,593.809021 
	C1071.244141,595.248108 1072.686523,597.178894 1073.942505,597.339294 
	C1077.639282,597.811646 1081.435181,597.507751 1085.110107,597.507751 
	C1085.110107,560.526245 1085.110107,524.315247 1085.110107,488.213806 
	C1079.455444,488.213806 1074.223145,488.213806 1068.707031,488.213806 
	C1068.707031,508.006104 1068.707031,527.407166 1068.707031,548.303223 
	C1067.381836,545.764709 1066.651733,544.556946 1066.096436,543.273560 
	C1058.705444,526.190552 1051.392700,509.073242 1043.882324,492.042969 
	C1043.145386,490.371796 1041.385864,488.263367 1039.836426,488.016052 
	C1036.135864,487.425323 1032.277344,487.825378 1028.242676,487.825378 
	C1028.242676,524.484924 1028.242676,560.737549 1028.242676,597.257080 
	C1033.801880,597.257080 1039.229858,597.257080 1045.350586,597.257080 
	C1045.350586,576.626465 1045.350586,556.206726 1045.350586,535.787048 
	C1045.675293,535.752808 1046.000000,535.718628 1046.324585,535.684448 
	C1049.148071,542.396973 1051.971558,549.109436 1055.036743,556.553406 
M564.183594,360.919281 
	C564.183594,359.357086 564.183594,357.794891 564.183594,356.232727 
	C565.708496,357.484406 566.411438,358.902802 567.018982,360.360901 
	C573.664917,376.311646 580.291687,392.270294 586.932312,408.223236 
	C591.407837,418.974976 591.414185,418.974731 603.080505,418.111755 
	C603.393494,418.088623 603.692810,417.879120 604.250549,417.655457 
	C604.250549,381.516174 604.250549,345.282379 604.250549,308.759399 
	C598.731445,308.759399 593.491150,308.759399 587.585754,308.759399 
	C587.585754,328.417267 587.585754,347.832642 587.585754,367.248016 
	C586.092651,365.989410 585.459839,364.658478 584.875488,363.306580 
	C577.556458,346.373383 570.289001,329.417572 562.857544,312.533905 
	C562.162109,310.953888 560.575073,308.864166 559.172729,308.670380 
	C555.314087,308.137085 551.333557,308.486176 547.535767,308.486176 
	C547.535767,345.469788 547.535767,381.693085 547.535767,417.923035 
	C553.195984,417.923035 558.464111,417.923035 564.183594,417.923035 
	C564.183594,399.049652 564.183594,380.433502 564.183594,360.919281 
M513.823730,580.498108 
	C513.823730,585.979126 513.823730,591.460144 513.823730,597.125549 
	C519.730835,597.125549 525.258484,597.125549 531.143921,597.125549 
	C531.143921,576.198975 531.143921,555.663147 531.143921,535.127258 
	C532.516724,536.607239 533.262512,538.204468 533.937683,539.831055 
	C541.389954,557.786194 548.796021,575.760620 556.340515,593.676819 
	C556.960327,595.148682 558.378540,597.156372 559.636597,597.322998 
	C563.327759,597.811890 567.125366,597.497131 570.822388,597.497131 
	C570.822388,560.544617 570.822388,524.315918 570.822388,488.213867 
	C565.244446,488.213867 560.028381,488.213867 554.124268,488.213867 
	C554.124268,507.681763 554.124268,526.767578 554.124268,545.853455 
	C552.470032,544.306763 551.693848,542.695984 550.985229,541.055908 
	C543.933289,524.734619 536.933167,508.390656 529.785217,492.111572 
	C529.073425,490.490479 527.620117,488.220856 526.268921,488.037781 
	C522.257690,487.494171 518.125427,487.843048 513.823730,487.843048 
	C513.823730,518.878113 513.823730,549.188599 513.823730,580.498108 
M1042.176147,345.500092 
	C1042.176147,333.355957 1042.176147,321.211853 1042.176147,308.919617 
	C1036.438965,308.919617 1031.081055,308.919617 1025.172119,308.919617 
	C1025.172119,328.504242 1025.172119,347.655090 1025.172119,366.805939 
	C1023.536621,365.380371 1022.730530,363.818573 1022.034119,362.209229 
	C1014.841248,345.587006 1007.714233,328.935913 1000.406677,312.364380 
	C999.726624,310.822205 998.060730,308.867096 996.633362,308.667023 
	C992.909302,308.144989 989.063477,308.491241 985.077393,308.491241 
	C985.077393,345.242493 985.077393,381.475525 985.077393,417.942322 
	C990.732910,417.942322 996.135071,417.942322 1001.969238,417.942322 
	C1001.969238,397.193878 1001.969238,376.659851 1001.969238,356.125824 
	C1003.284119,357.066498 1003.789734,358.214813 1004.271729,359.372955 
	C1011.869019,377.626038 1019.422119,395.897797 1027.131226,414.103577 
	C1027.798462,415.679413 1029.351074,417.773499 1030.736816,417.979065 
	C1034.407104,418.523438 1038.211426,418.163635 1042.176147,418.163635 
	C1042.176147,393.786560 1042.176147,370.143341 1042.176147,345.500092 
M811.008423,552.498962 
	C811.008423,531.070068 811.008423,509.641144 811.008423,488.238281 
	C804.122009,488.238281 797.763245,488.238281 791.151978,488.238281 
	C791.151978,508.617371 791.070068,528.580444 791.191711,548.542236 
	C791.241333,556.685120 791.355103,564.860168 792.102661,572.959412 
	C793.554932,588.695862 801.518616,596.696350 816.948486,598.691589 
	C835.721252,601.119080 847.958557,593.750610 851.672546,577.592773 
	C852.449707,574.211487 852.932739,570.683838 852.953979,567.220032 
	C853.110840,541.580322 853.120544,515.939636 853.150391,490.299225 
	C853.151306,489.533752 852.864624,488.767914 852.713501,488.009613 
	C846.308716,488.009613 840.181580,488.009613 833.476501,488.009613 
	C833.476501,489.984619 833.476440,491.774048 833.476440,493.563477 
	C833.476440,517.374329 833.513672,541.185303 833.433289,564.995911 
	C833.422180,568.299561 833.155334,571.673828 832.437195,574.888123 
	C831.125305,580.760376 827.140991,583.933228 822.021606,583.753418 
	C816.824402,583.570923 812.794922,580.270264 812.102539,574.381348 
	C811.290222,567.472900 811.335266,560.463623 811.008423,552.498962 
M1074.806152,392.366608 
	C1074.806641,372.577698 1074.539673,352.783386 1074.939697,333.002563 
	C1075.098999,325.129913 1079.340576,321.792725 1086.326294,322.187195 
	C1092.962769,322.561890 1095.911987,326.083435 1096.130005,334.063599 
	C1096.227783,337.646271 1096.146484,341.233826 1096.146484,344.623596 
	C1103.155518,344.623596 1109.393433,344.623596 1115.826294,344.623596 
	C1115.826294,341.758301 1115.962036,339.266541 1115.804565,336.793427 
	C1114.566040,317.337982 1107.284302,308.784882 1089.478760,307.398315 
	C1069.531738,305.845001 1056.682373,312.623657 1054.841919,333.901703 
	C1053.411865,350.433685 1053.706177,367.158295 1054.054321,383.780090 
	C1054.200928,390.783020 1055.749634,397.971436 1057.921509,404.666687 
	C1061.172485,414.689148 1069.429443,418.810516 1079.425781,419.760834 
	C1088.563965,420.629517 1096.259521,418.228851 1101.014771,409.632690 
	C1101.092529,409.492035 1101.570435,409.572662 1101.805054,409.554413 
	C1102.269043,412.326569 1102.730103,415.081299 1103.207520,417.933716 
	C1107.523682,417.933716 1111.609619,417.933716 1115.934814,417.933716 
	C1115.934814,399.458435 1115.934814,381.226868 1115.934814,362.811523 
	C1105.967529,362.811523 1096.228271,362.811523 1086.389526,362.811523 
	C1086.389526,367.078430 1086.389526,371.011322 1086.389526,375.598999 
	C1090.316040,375.598999 1094.028320,375.598999 1097.880859,375.598999 
	C1097.880859,380.895386 1097.967773,385.540344 1097.837280,390.179199 
	C1097.786377,391.987152 1097.392822,393.822601 1096.899902,395.573639 
	C1095.670044,399.942871 1093.611328,403.490021 1088.518433,404.347565 
	C1080.567139,405.686432 1076.339111,402.329346 1074.806152,392.366608 
M891.479187,145.503876 
	C891.479248,165.169052 891.197632,184.840469 891.632141,204.496048 
	C891.784119,211.373352 892.886597,218.472733 894.986816,225.010742 
	C898.767822,236.780624 908.796082,240.054733 919.897400,240.430634 
	C931.405518,240.820297 942.414856,239.405426 948.743286,227.774719 
	C949.688843,226.036865 950.596130,224.145096 950.914185,222.224045 
	C951.834473,216.666077 953.021423,211.062576 953.077271,205.466690 
	C953.313721,181.804214 953.181885,158.138000 953.168213,134.473160 
	C953.167297,132.855087 953.031799,131.237076 952.948975,129.397751 
	C946.536621,129.397751 940.459167,129.397751 933.822449,129.397751 
	C933.822449,131.416077 933.822388,133.197205 933.822388,134.978348 
	C933.822388,157.976578 933.898865,180.975266 933.756226,203.972610 
	C933.728516,208.428223 933.241516,212.968002 932.259888,217.309204 
	C930.958313,223.065155 927.445068,225.377060 921.797180,225.147217 
	C916.709412,224.940155 913.202942,222.114532 912.216492,216.650894 
	C911.452148,212.417633 911.078613,208.060043 911.058228,203.755234 
	C910.949890,180.757523 911.007141,157.759018 911.007141,134.760788 
	C911.007141,132.999374 911.007141,131.237961 911.007141,129.394135 
	C904.240967,129.394135 898.148132,129.394135 891.479248,129.394135 
	C891.479248,134.586090 891.479248,139.546478 891.479187,145.503876 
M1120.753540,143.307404 
	C1120.545654,143.760818 1120.228882,144.195343 1120.146362,144.670517 
	C1119.127441,150.538788 1117.348511,156.406174 1117.298096,162.286957 
	C1117.146606,179.913712 1117.133179,197.577255 1118.140259,215.164932 
	C1118.740112,225.641205 1123.738770,234.539383 1134.516357,238.124695 
	C1146.525879,242.119736 1158.464966,242.227249 1169.154053,234.193741 
	C1171.302612,232.578979 1172.857788,229.934723 1174.168335,227.487625 
	C1179.108887,218.261932 1178.184692,208.247589 1178.069702,198.160187 
	C1171.502075,198.160187 1165.302002,198.160187 1159.181885,198.160187 
	C1158.810181,204.792526 1158.764282,211.115723 1158.015015,217.354477 
	C1157.333130,223.033295 1153.575439,225.705872 1147.934326,225.431458 
	C1141.627197,225.124634 1138.182861,221.471771 1138.020142,213.492737 
	C1137.657227,195.691116 1137.683472,177.881027 1137.627563,160.074158 
	C1137.618652,157.255737 1137.761719,154.391388 1138.263672,151.626190 
	C1139.333496,145.733566 1143.328003,142.721680 1149.208862,143.019714 
	C1154.905151,143.308395 1157.829590,145.933899 1158.271729,152.175323 
	C1158.667847,157.766327 1158.355103,163.407547 1158.355103,169.129364 
	C1165.492676,169.129364 1171.692383,169.129364 1177.851440,169.129364 
	C1177.851440,163.255692 1178.334595,157.729187 1177.758423,152.315430 
	C1176.208008,137.747452 1169.048584,130.514755 1154.795166,128.351028 
	C1139.158569,125.977310 1127.141235,131.047562 1120.753540,143.307404 
M684.600220,238.026962 
	C690.981689,238.767975 697.372986,240.184937 703.742432,240.093124 
	C713.533508,239.951981 721.479492,235.847565 725.604980,226.303970 
	C729.547974,217.182465 729.299866,207.622940 728.754150,198.071442 
	C722.196777,198.071442 716.082275,198.071442 709.476501,198.071442 
	C709.476501,200.944824 709.517273,203.581314 709.465454,206.215973 
	C709.409851,209.042343 709.367920,211.875046 709.142761,214.690826 
	C708.545715,222.157471 705.569885,225.381378 699.374756,225.443344 
	C693.164490,225.505463 689.376770,222.343353 689.049255,215.135254 
	C688.399963,200.842957 688.315186,186.520493 688.230286,172.209091 
	C688.190857,165.564651 688.407227,158.889236 689.039124,152.278671 
	C689.651367,145.874374 693.636292,142.763321 699.820190,143.015671 
	C705.882874,143.263107 708.784058,146.205566 709.095459,153.035126 
	C709.341614,158.435120 709.144958,163.855316 709.144958,169.249771 
	C716.435730,169.249771 722.546631,169.249771 729.288269,169.249771 
	C728.950928,163.008469 729.082825,156.995880 728.218323,151.130157 
	C726.108826,136.816986 719.383240,129.834549 705.288696,128.420837 
	C680.110718,125.895424 669.863403,136.313965 668.612854,155.354858 
	C667.350098,174.581863 667.835938,193.975861 668.550720,213.259811 
	C668.940796,223.782913 673.361267,232.980621 684.600220,238.026962 
M655.349365,207.049591 
	C650.122437,181.186920 644.895508,155.324265 639.606445,129.154251 
	C633.621155,129.154251 627.977417,129.287918 622.344543,129.098358 
	C619.490295,129.002304 618.360413,129.864777 617.779419,132.819580 
	C613.290222,155.650818 608.582214,178.438980 603.943787,201.240891 
	C601.406372,213.714401 598.872314,226.188614 596.232239,239.176971 
	C601.823792,239.176971 606.800842,239.015991 611.760986,239.236969 
	C614.763489,239.370743 615.697083,238.248291 616.114929,235.349350 
	C617.146912,228.188324 618.617432,221.090485 619.885071,214.113647 
	C626.498230,214.113647 632.436157,214.113647 638.552734,214.113647 
	C640.090759,222.578674 641.588562,230.821793 643.060120,238.920990 
	C649.622314,238.920990 655.572205,238.920990 661.780762,238.920990 
	C659.685730,228.369797 657.649658,218.115204 655.349365,207.049591 
M509.352936,308.479187 
	C505.043121,308.479187 500.733337,308.479187 496.018402,308.479187 
	C488.594421,344.987701 481.215820,381.272980 473.773376,417.872253 
	C480.376740,417.872253 486.604706,417.872253 492.860870,417.872253 
	C494.393341,409.463470 495.872986,401.344696 497.364502,393.160522 
	C503.749512,393.160522 509.709290,393.160522 515.988342,393.160522 
	C517.502319,401.496704 519.000732,409.747070 520.484070,417.914307 
	C526.928589,417.914307 532.868713,417.914307 539.001648,417.914307 
	C538.911377,416.834045 538.924744,416.015808 538.765747,415.232574 
	C531.984863,381.839630 525.015747,348.483093 518.566589,315.026306 
	C517.508667,309.537842 515.559448,307.513275 509.352936,308.479187 
M751.484314,403.307983 
	C743.975891,405.024811 739.453796,402.526367 737.225098,394.877319 
	C736.088440,390.976227 735.716309,386.852386 734.920349,382.390533 
	C729.045044,383.652588 723.467224,384.850739 718.033630,386.017883 
	C717.835693,406.720825 727.653625,418.295013 746.111145,419.778900 
	C763.175049,421.150696 775.808594,409.499268 775.865051,392.455719 
	C775.900208,381.854218 771.833984,372.953644 764.433105,365.679657 
	C758.151855,359.505890 751.404602,353.804749 744.836792,347.924408 
	C739.806396,343.420563 736.055847,338.363403 736.905212,331.078491 
	C737.456116,326.353516 739.846313,323.456757 744.667358,322.742920 
	C749.644775,322.005859 753.260132,323.927490 754.726868,328.742950 
	C755.825073,332.348236 756.265747,336.153809 757.105164,340.407349 
	C762.746765,339.277130 768.321106,338.160400 773.798401,337.063141 
	C772.804077,318.328491 765.168884,309.033966 749.843811,307.278381 
	C733.430542,305.398163 720.424194,314.014038 718.258606,328.618896 
	C716.464050,340.721436 719.479614,351.411285 728.978577,359.739502 
	C735.109009,365.114319 741.507690,370.216614 747.288818,375.943176 
	C750.511108,379.135010 753.528320,383.032532 755.176270,387.191254 
	C757.332886,392.633636 758.060852,398.651550 751.484314,403.307983 
M499.853210,193.724350 
	C499.591003,191.340225 500.217102,190.010818 503.059814,190.127792 
	C507.045929,190.291840 511.064880,190.261154 515.041199,189.949448 
	C528.226685,188.915787 537.065430,181.287415 538.562256,168.327835 
	C539.349487,161.511642 538.892517,154.295547 537.543884,147.550659 
	C535.660339,138.130997 529.342651,131.170853 519.696716,130.389130 
	C506.542145,129.323044 493.236298,130.123154 479.824646,130.123154 
	C479.824646,166.102112 479.824646,202.477066 479.824646,238.866318 
	C486.598969,238.866318 493.013855,238.866318 499.852356,238.866318 
	C499.852356,223.929276 499.852356,209.305450 499.853210,193.724350 
M620.457336,570.143250 
	C621.242615,576.884705 619.356934,581.331238 615.105286,582.763794 
	C610.342163,584.368652 605.538818,582.381592 602.946228,577.517944 
	C602.022522,575.785034 601.335632,573.858704 600.917480,571.938538 
	C600.218079,568.726746 599.821472,565.448975 599.202515,561.610474 
	C593.391724,562.805359 587.790955,563.957031 582.286255,565.088989 
	C581.213867,583.602905 590.881897,596.345886 607.418030,598.637939 
	C628.775024,601.598145 643.409058,586.154846 639.483887,565.044983 
	C637.719849,555.557922 632.584961,548.223999 625.759949,541.887268 
	C620.152527,536.681030 614.280273,531.761108 608.569153,526.665222 
	C603.796631,522.406799 600.393494,517.487183 601.006042,510.640167 
	C601.437256,505.821320 604.122559,502.586945 608.426025,501.937164 
	C613.789734,501.127289 617.357178,502.982025 618.928223,508.012970 
	C620.051147,511.608643 620.509094,515.411987 621.352234,519.557495 
	C626.892944,518.455017 632.354370,517.368347 637.711426,516.302368 
	C638.458069,497.307068 627.730164,486.215393 609.324402,486.478790 
	C594.028320,486.697693 583.980225,494.920074 582.236328,508.976624 
	C580.793030,520.610962 584.046814,530.722290 592.932861,538.690674 
	C599.745300,544.799622 606.999146,550.472351 613.327637,557.041504 
	C616.498779,560.333191 618.042297,565.192871 620.457336,570.143250 
M1096.616333,508.241272 
	C1094.751099,520.543030 1098.301758,530.930359 1107.658203,539.215271 
	C1113.887573,544.731323 1120.205566,550.147156 1126.436279,555.661621 
	C1130.939087,559.646851 1133.970093,564.509155 1134.785400,570.570801 
	C1135.629028,576.844177 1133.289185,581.659546 1128.847412,582.903809 
	C1123.378174,584.435852 1118.224121,581.634277 1116.119019,575.315613 
	C1114.719727,571.115723 1114.184204,566.628113 1113.139526,561.689880 
	C1107.657104,562.788757 1102.028076,563.917053 1096.454468,565.034180 
	C1095.209717,583.002930 1104.648926,595.845215 1120.897339,598.534790 
	C1140.899658,601.845642 1155.233887,588.914246 1154.067383,568.720459 
	C1153.359863,556.471680 1146.520996,547.723328 1137.953125,539.933105 
	C1132.168335,534.673279 1126.239014,529.571594 1120.489258,524.274414 
	C1116.602417,520.693542 1114.828003,516.145447 1115.181274,510.823822 
	C1115.514771,505.800995 1118.410889,502.481873 1122.960327,501.910828 
	C1128.370239,501.231750 1131.607422,503.084503 1133.193848,508.352051 
	C1134.274170,511.939362 1134.763062,515.704773 1135.555298,519.580200 
	C1141.127930,518.471252 1146.482544,517.405762 1151.732666,516.361023 
	C1152.764648,502.259857 1145.315063,489.800507 1133.525146,487.576080 
	C1127.346802,486.410339 1120.507812,486.679138 1114.336914,488.012024 
	C1104.337158,490.171906 1098.402100,497.092316 1096.616333,508.241272 
M1000.173645,149.667328 
	C1000.938904,153.376358 1001.704224,157.085388 1002.569031,161.276932 
	C1008.123352,160.122711 1013.674255,158.969177 1019.161743,157.828827 
	C1019.065186,155.963745 1019.114441,154.782730 1018.927673,153.640289 
	C1017.194458,143.037949 1013.917297,133.389709 1002.375427,129.649536 
	C993.994873,126.933838 985.596375,127.313187 977.508606,130.881561 
	C969.972534,134.206497 965.459717,140.073303 963.917786,148.180359 
	C961.321411,161.831787 965.371338,173.072037 975.984985,182.078094 
	C982.458069,187.570709 988.839355,193.184418 995.039246,198.981842 
	C999.890930,203.518570 1002.269897,209.327911 1001.885010,216.020081 
	C1001.662109,219.895844 1000.117188,223.190674 996.045654,224.474564 
	C991.745056,225.830658 987.966675,224.609467 985.419983,221.045380 
	C983.827087,218.816238 982.790527,216.050278 982.070374,213.372910 
	C981.217957,210.204117 980.974976,206.871368 980.409973,203.237305 
	C974.605164,204.445831 968.974426,205.618088 963.428650,206.772675 
	C963.439941,231.520477 977.450439,242.957275 999.186829,240.078705 
	C1011.180359,238.490387 1019.945007,229.032806 1021.067200,217.008087 
	C1022.357300,203.185349 1016.618774,192.406815 1006.889343,183.353104 
	C1001.285217,178.138260 995.350647,173.280273 989.640991,168.176468 
	C985.438599,164.419952 982.224426,160.095078 982.165344,154.077988 
	C982.110352,148.477554 984.289062,145.073090 988.926453,143.790207 
	C994.015564,142.382309 996.732178,143.647720 1000.173645,149.667328 
M567.174316,207.500305 
	C567.174316,201.556396 567.174316,195.612503 567.174316,189.108063 
	C574.314148,189.108063 580.880127,189.108063 587.533569,189.108063 
	C587.533569,184.133972 587.533569,179.737442 587.533569,174.846191 
	C580.658325,174.846191 574.084167,174.846191 567.516724,174.846191 
	C567.516724,164.276688 567.516724,154.209564 567.516724,143.700455 
	C576.115295,143.700455 584.378418,143.700455 592.701599,143.700455 
	C592.701599,138.678192 592.701599,134.108612 592.701599,129.511398 
	C577.343384,129.511398 562.291077,129.511398 547.380859,129.511398 
	C547.380859,166.252869 547.380859,202.638824 547.380859,238.882629 
	C562.868591,238.882629 577.969360,238.882629 593.118652,238.882629 
	C593.118652,234.191284 593.118652,229.797409 593.118652,224.914276 
	C584.314392,224.914276 575.902161,224.914276 567.174316,224.914276 
	C567.174316,219.112045 567.174316,213.805283 567.174316,207.500305 
M1188.995361,141.516846 
	C1188.995361,173.935272 1188.995361,206.353699 1188.995361,238.841125 
	C1204.710571,238.841125 1219.912720,238.841125 1235.077148,238.841125 
	C1235.077148,234.125244 1235.077148,229.750946 1235.077148,224.875900 
	C1226.243896,224.875900 1217.841675,224.875900 1209.487305,224.875900 
	C1209.487305,212.784622 1209.487305,201.212723 1209.487305,189.078140 
	C1216.345337,189.078140 1222.906738,189.078140 1229.525146,189.078140 
	C1229.525146,184.109451 1229.525146,179.715591 1229.525146,174.832596 
	C1222.644409,174.832596 1216.073853,174.832596 1209.513916,174.832596 
	C1209.513916,164.272888 1209.513916,154.211044 1209.513916,143.745758 
	C1218.116089,143.745758 1226.385986,143.745758 1234.902100,143.745758 
	C1234.902100,138.774307 1234.902100,134.213898 1234.902100,129.414001 
	C1219.574097,129.414001 1204.518311,129.414001 1188.995361,129.414001 
	C1188.995361,133.279861 1188.995361,136.902832 1188.995361,141.516846 
M773.492004,225.157059 
	C769.073730,225.157059 764.655396,225.157059 760.254883,225.157059 
	C760.254883,212.849609 760.254883,201.252182 760.254883,189.072266 
	C767.041077,189.072266 773.591675,189.072266 780.182190,189.072266 
	C780.182190,184.069656 780.182190,179.658035 780.182190,174.749786 
	C773.277039,174.749786 766.697815,174.749786 760.366638,174.749786 
	C760.366638,164.158905 760.366638,154.073242 760.366638,143.656403 
	C769.007629,143.656403 777.287964,143.656403 785.734619,143.656403 
	C785.734619,138.740585 785.734619,134.171295 785.734619,129.449677 
	C770.395386,129.449677 755.327454,129.449677 740.174988,129.449677 
	C740.174988,166.128876 740.174988,202.514435 740.174988,238.887146 
	C755.611328,238.887146 770.696533,238.887146 785.790039,238.887146 
	C785.790039,234.216980 785.790039,229.841904 785.790039,225.157059 
	C781.766357,225.157059 778.123535,225.157059 773.492004,225.157059 
M679.858215,585.474487 
	C679.858215,558.062805 679.858215,530.651184 679.858215,502.712616 
	C685.991394,502.712616 691.551636,502.712616 697.149536,502.712616 
	C697.149536,497.474915 697.149536,492.773804 697.149536,487.981995 
	C678.308960,487.981995 659.858215,487.981995 641.236694,487.981995 
	C641.236694,492.896271 641.236694,497.636169 641.236694,502.947388 
	C647.370239,502.947388 653.270752,502.947388 659.693848,502.947388 
	C659.693848,534.728333 659.693848,565.939392 659.693848,597.206909 
	C666.662292,597.206909 673.079529,597.206909 679.858215,597.206909 
	C679.858215,593.406189 679.858215,589.933716 679.858215,585.474487 
M768.858215,560.500061 
	C768.858215,541.413879 768.858215,522.327637 768.858215,502.715790 
	C774.988647,502.715790 780.548889,502.715790 786.151611,502.715790 
	C786.151611,497.478485 786.151611,492.777161 786.151611,487.980835 
	C767.314087,487.980835 748.864258,487.980835 730.233704,487.980835 
	C730.233704,492.892151 730.233704,497.631165 730.233704,502.942169 
	C736.363892,502.942169 742.265564,502.942169 748.685913,502.942169 
	C748.685913,534.721924 748.685913,565.931274 748.685913,597.210632 
	C755.652039,597.210632 762.068726,597.210632 768.858215,597.210632 
	C768.858215,585.090942 768.858215,573.295532 768.858215,560.500061 
M876.461060,574.499634 
	C876.461060,582.078918 876.461060,589.658142 876.461060,597.178772 
	C883.737122,597.178772 890.158752,597.178772 897.044312,597.178772 
	C897.044312,565.601562 897.044312,534.381714 897.044312,502.837769 
	C902.964355,502.837769 908.415649,502.837769 914.200073,502.837769 
	C914.200073,497.779602 914.200073,493.045319 914.200073,488.058685 
	C895.494019,488.058685 876.903809,488.058685 858.274902,488.058685 
	C858.274902,492.945709 858.274902,497.697418 858.274902,503.015991 
	C864.447693,503.015991 870.348816,503.015991 876.461121,503.015991 
	C876.461121,526.892883 876.461121,550.196228 876.461060,574.499634 
M822.438965,308.454163 
	C807.365723,308.454163 792.292542,308.454163 777.195068,308.454163 
	C777.195068,313.807251 777.195068,318.420502 777.195068,323.546448 
	C783.144836,323.546448 788.892090,323.546448 795.071533,323.546448 
	C795.071533,355.286072 795.071533,386.515320 795.071533,417.884705 
	C802.100525,417.884705 808.679993,417.884705 815.773682,417.884705 
	C815.773682,386.366852 815.773682,355.155853 815.773682,323.373810 
	C821.830322,323.373810 827.380798,323.373810 832.788025,323.373810 
	C832.788025,318.074738 832.788025,313.361389 832.788025,308.454254 
	C829.392212,308.454254 826.401978,308.454254 822.438965,308.454163 
M1069.528564,144.172791 
	C1072.473633,144.172791 1075.418823,144.172791 1078.468994,144.172791 
	C1078.468994,138.906082 1078.468994,134.202057 1078.468994,129.540649 
	C1059.554932,129.540649 1041.015991,129.540649 1022.431152,129.540649 
	C1022.431152,134.514587 1022.431152,139.103760 1022.431152,144.247070 
	C1028.583374,144.247070 1034.483154,144.247070 1040.918213,144.247070 
	C1040.918213,176.151596 1040.918213,207.502853 1040.918213,238.874573 
	C1047.873535,238.874573 1054.267822,238.874573 1061.160156,238.874573 
	C1061.160156,207.222656 1061.160156,175.865234 1061.160156,144.172791 
	C1063.963379,144.172791 1066.265869,144.172791 1069.528564,144.172791 
M403.192871,1252.044067 
	C410.031769,1250.134888 414.613159,1245.356201 414.937042,1238.655518 
	C415.610016,1224.732178 415.744690,1210.710327 414.844208,1196.810303 
	C414.284393,1188.168091 407.190613,1183.243286 398.508148,1183.159180 
	C396.509033,1183.139771 394.509521,1183.146973 392.510284,1183.157471 
	C382.426819,1183.210449 375.267029,1189.782471 375.059082,1199.768066 
	C374.809387,1211.758545 374.828918,1223.761475 375.053345,1235.753052 
	C375.234253,1245.419922 382.302155,1252.272461 391.905609,1252.483765 
	C395.392517,1252.560547 398.887085,1252.286621 403.192871,1252.044067 
M878.507019,220.012466 
	C878.623718,218.352829 878.840881,216.693253 878.842163,215.033524 
	C878.863342,187.712601 878.863159,160.391647 878.838806,133.070724 
	C878.837708,131.818787 878.563293,130.567062 878.419495,129.344131 
	C871.682617,129.344131 865.390381,129.344131 858.461060,129.344131 
	C858.461060,131.493576 858.461060,133.445663 858.461060,135.397751 
	C858.460999,161.219376 858.471558,187.041000 858.456055,212.862625 
	C858.449097,224.442108 856.724365,226.266190 845.073547,227.266403 
	C844.803711,227.289581 844.558533,227.599960 844.228821,227.826538 
	C844.228821,232.217041 844.228821,236.642075 844.228821,241.039902 
	C867.565674,243.348770 876.707581,238.070786 878.507019,220.012466 
M939.208435,487.865906 
	C933.135742,487.865906 927.063049,487.865906 921.166138,487.865906 
	C921.166138,524.780090 921.166138,560.954956 921.166138,597.084656 
	C927.886658,597.084656 934.255005,597.084656 940.691406,597.084656 
	C940.758057,595.828613 940.839966,595.004211 940.840149,594.179871 
	C940.846924,560.079285 940.854004,525.978760 940.816467,491.878204 
	C940.815063,490.619293 940.369385,489.360809 939.208435,487.865906 
M1105.001465,234.386383 
	C1105.001465,199.457214 1105.001465,164.528030 1105.001465,129.492676 
	C1098.063477,129.492676 1091.676636,129.492676 1085.350342,129.492676 
	C1085.350342,166.215775 1085.350342,202.606445 1085.350342,239.168533 
	C1091.026978,239.168533 1096.361450,238.984146 1101.675049,239.237747 
	C1104.861938,239.389832 1105.303955,237.859680 1105.001465,234.386383 
M703.821716,566.499939 
	C703.821716,576.647095 703.821716,586.794250 703.821716,597.213257 
	C710.606201,597.213257 717.014526,597.213257 723.535583,597.213257 
	C723.535583,560.672913 723.535583,524.442017 723.535583,488.190308 
	C716.829102,488.190308 710.439819,488.190308 703.821716,488.190308 
	C703.821716,514.205505 703.821716,539.852661 703.821716,566.499939 
M479.998444,520.500000 
	C479.998444,546.052307 479.998444,571.604553 479.998444,597.110291 
	C487.046295,597.110291 493.421112,597.110291 499.678650,597.110291 
	C499.678650,560.497070 499.678650,524.283936 499.678650,488.206482 
	C492.965332,488.206482 486.580505,488.206482 479.998444,488.206482 
	C479.998444,498.888000 479.998444,509.194000 479.998444,520.500000 
M1055.281006,713.635437 
	C1057.434082,713.420654 1059.591187,713.239014 1061.739746,712.986084 
	C1090.854736,709.558167 1102.392090,686.190735 1099.413818,660.831421 
	C1065.933716,658.930298 1045.390747,677.921692 1048.582642,713.811096 
	C1050.481201,713.811096 1052.433960,713.811096 1055.281006,713.635437 
M994.824829,718.654419 
	C999.983093,725.542725 1006.495544,730.801697 1013.969421,734.932861 
	C1033.278687,708.335876 1028.109863,681.973938 998.473022,666.382629 
	C985.244568,684.011353 983.756531,702.783325 994.824829,718.654419 
M979.487976,769.967773 
	C981.647705,762.880310 984.985779,755.913330 985.725647,748.680542 
	C987.340515,732.892334 976.036316,716.795776 959.308899,708.978882 
	C939.707886,734.990051 945.477234,761.934875 975.044250,777.292114 
	C976.385376,775.084351 977.744446,772.846863 979.487976,769.967773 
M1086.647095,763.177734 
	C1090.863037,759.286316 1095.078857,755.394897 1099.319214,751.480774 
	C1078.639404,731.231812 1053.445190,730.845215 1035.251953,756.832581 
	C1051.735107,772.742004 1068.746460,775.015625 1086.647095,763.177734 
M1062.375610,802.020203 
	C1062.219116,801.307373 1062.273682,800.436707 1061.875610,799.904358 
	C1044.807617,777.076843 1022.077759,773.904541 998.899658,794.462158 
	C1001.903503,797.733459 1004.692383,801.233948 1007.946350,804.229248 
	C1018.563049,814.002014 1030.774048,818.047363 1044.645386,812.337158 
	C1050.712769,809.839478 1056.163086,805.843140 1062.375610,802.020203 
M799.836487,256.323364 
	C805.241272,254.201797 808.906067,250.139038 809.606018,244.603851 
	C810.577454,236.921356 810.464478,229.101746 810.817810,221.295013 
	C804.059692,221.295013 798.155334,221.295013 792.225464,221.295013 
	C792.225464,227.362610 792.225464,233.116867 792.225464,238.996185 
	C795.389343,239.142426 798.318115,239.277802 801.384644,239.419540 
	C801.525574,245.746262 797.708923,248.666672 792.824280,250.949371 
	C793.560913,253.313538 794.230103,255.461212 794.965576,257.821686 
	C796.687622,257.357239 797.943787,257.018433 799.836487,256.323364 
z"/>
<path fill="#FEFEFF" opacity="1.000000" stroke="none" 
	d="
M987.617798,777.619141 
	C1000.678345,763.363159 1013.601196,749.464478 1026.295654,735.360229 
	C1030.841553,730.309448 1034.835815,724.762024 1039.338989,719.118896 
	C1041.283325,720.368469 1043.319824,721.677246 1045.972778,723.382263 
	C1042.871094,727.574585 1040.262573,731.791931 1036.987061,735.404297 
	C1024.684692,748.971924 1012.015808,762.208252 999.767761,775.823792 
	C987.453186,789.513550 978.372803,805.015564 974.510742,823.294800 
	C973.908386,826.145752 974.286377,827.894470 976.715881,829.613159 
	C983.593079,834.478271 990.311951,839.567139 997.344238,844.753052 
	C989.156860,845.138672 981.151306,845.515686 972.712158,845.913147 
	C972.677307,865.763550 977.465332,884.170593 983.406738,903.140564 
	C980.713745,903.503235 978.230042,903.837708 975.447632,904.212402 
	C969.265198,885.745178 965.325806,867.193237 964.514587,848.100647 
	C934.657654,847.823975 905.890137,870.354004 897.087646,900.474182 
	C891.885071,918.276245 891.051025,936.504089 891.698181,954.887634 
	C893.162048,996.466675 883.949829,1034.592163 855.081970,1066.139648 
	C834.111511,1089.056519 807.715210,1103.514771 778.882202,1113.961548 
	C758.967163,1121.177246 738.516174,1126.306885 717.518250,1129.206909 
	C715.738525,1129.452759 713.984070,1129.881836 712.049561,1130.258545 
	C712.049561,1153.692871 712.049561,1176.959351 712.049561,1201.490234 
	C722.331665,1201.490234 732.439575,1201.330566 742.541016,1201.520874 
	C770.339539,1202.044556 798.134521,1203.079590 825.932678,1203.143555 
	C836.685303,1203.168335 847.446960,1201.163086 858.197021,1200.012939 
	C874.242554,1198.296143 890.281555,1196.517456 906.770020,1194.716431 
	C906.848816,1193.027100 906.985413,1191.422607 906.988525,1189.817871 
	C907.008484,1179.485352 906.921875,1169.151978 907.025879,1158.820435 
	C907.098999,1151.559692 911.346313,1147.200562 918.507874,1147.190186 
	C958.504761,1147.131836 998.501953,1147.135132 1038.498901,1147.185181 
	C1046.142944,1147.194702 1050.152832,1151.322266 1050.157837,1158.979370 
	C1050.183716,1198.476440 1050.182617,1237.973511 1050.159180,1277.470581 
	C1050.154419,1285.464600 1046.260864,1289.472046 1038.225830,1289.483032 
	C998.562195,1289.537720 958.898315,1289.539795 919.234741,1289.481689 
	C911.011841,1289.469727 907.047119,1285.343018 907.011108,1277.082397 
	C906.960999,1265.600098 906.998535,1254.117432 906.998535,1242.113159 
	C895.816223,1240.824951 884.810181,1239.524414 873.795959,1238.296753 
	C860.725769,1236.839722 847.678650,1234.824097 834.566345,1234.189331 
	C819.804932,1233.474609 804.978455,1233.817505 790.186707,1234.075317 
	C757.225830,1234.649658 724.267883,1235.411499 691.310730,1236.180908 
	C640.713135,1237.361938 590.118347,1238.670288 539.519958,1239.816162 
	C502.230896,1240.660645 464.937927,1241.332031 427.237427,1242.088867 
	C427.237427,1226.435059 427.237427,1210.871094 427.237427,1194.558960 
	C500.186523,1196.119873 573.301453,1197.684204 646.710876,1199.254883 
	C646.710876,1176.577515 646.710876,1154.318970 646.710876,1132.020874 
	C636.348999,1130.523315 625.973633,1129.182251 615.653320,1127.502808 
	C582.262573,1122.068848 552.067688,1108.800903 523.770508,1090.514404 
	C503.433563,1077.372070 483.143524,1064.039062 460.683472,1053.896362 
	C462.819122,1054.102539 464.968079,1054.218262 467.088470,1054.528809 
	C493.305115,1058.368408 519.371826,1058.724243 544.135498,1047.867432 
	C553.780518,1043.638916 562.459778,1037.166016 571.468933,1031.539429 
	C581.490051,1025.280884 591.273071,1018.636292 601.368103,1012.502625 
	C611.126953,1006.573181 621.809021,1002.904114 633.069641,1000.940002 
	C634.318420,1000.722107 635.523621,1000.254211 638.158813,999.497375 
	C617.926270,997.046997 600.085327,991.873596 583.830566,981.972107 
	C557.860962,966.152771 541.390747,942.690979 529.882141,915.151001 
	C521.097473,894.129456 517.133057,871.830811 512.010742,849.823975 
	C506.844666,827.628601 501.533234,805.451843 491.726898,784.708740 
	C484.261688,768.917664 473.654205,756.031433 457.301544,748.680542 
	C456.869263,748.486206 456.502045,748.147217 455.352814,747.362122 
	C473.107819,745.440979 489.942932,745.008484 506.779755,746.524597 
	C563.432922,751.626282 609.121155,778.926331 649.021973,817.524536 
	C663.997803,832.011536 678.615845,846.817993 696.728149,857.530457 
	C719.593811,871.054199 743.891174,878.178284 770.663574,873.977356 
	C793.581360,870.381226 812.818604,859.341919 830.213013,844.458984 
	C846.015930,830.937683 861.775452,817.337280 878.103455,804.468750 
	C887.641724,796.951416 898.493286,791.336426 910.664124,788.827759 
	C925.241028,785.823181 937.059570,790.515320 947.145569,801.084045 
	C953.445251,807.685181 960.233398,813.820129 966.977478,820.333496 
	C970.424194,804.745239 977.520386,790.640564 987.617798,777.619141 
M692.161133,1136.625000 
	C692.076477,1135.182861 691.991882,1133.740601 691.931213,1132.707520 
	C683.342346,1132.707520 675.123779,1132.707520 666.905273,1132.707520 
	C666.905273,1155.408936 666.905273,1177.419556 666.905273,1199.793213 
	C675.502930,1199.793213 683.705139,1199.793213 692.161194,1199.793213 
	C692.161194,1178.831543 692.161194,1158.217163 692.161133,1136.625000 
z"/>
<path fill="#FEFEFE" opacity="1.000000" stroke="none" 
	d="
M265.467102,128.354523 
	C282.923645,125.001579 299.927246,125.024467 316.905457,128.878494 
	C339.683807,134.049133 353.627960,148.349655 358.826996,170.745132 
	C361.282776,181.323669 361.914795,192.325592 363.429901,203.556641 
	C345.228180,203.556641 328.157898,203.556641 310.821350,203.556641 
	C310.194153,197.014740 309.748657,190.570984 308.927887,184.175400 
	C307.119049,170.080551 297.645447,166.162918 284.645752,168.778137 
	C278.489014,170.016724 274.301880,174.259399 273.104462,180.027435 
	C270.987518,190.224686 269.180389,200.600861 268.613281,210.976990 
	C267.862488,224.714706 268.428375,238.524399 268.428375,253.254684 
	C275.168121,245.533981 283.241791,241.287186 292.527924,239.641678 
	C311.641479,236.254730 329.905029,237.824051 345.064636,251.438309 
	C355.333954,260.660767 360.446716,273.091187 363.190521,286.304779 
	C369.753845,317.911957 368.716400,349.186859 357.109100,379.596069 
	C347.249695,405.426270 327.481476,417.825500 300.541840,420.027924 
	C288.677673,420.997864 276.918762,420.611237 265.371552,417.523621 
	C239.291779,410.549927 225.210190,391.887146 218.232193,367.299072 
	C215.218964,356.681488 213.221558,345.412201 213.077057,334.408569 
	C212.534683,293.104279 212.640869,251.783661 213.149445,210.477127 
	C213.357162,193.606216 216.910721,177.167160 224.001083,161.624451 
	C232.190414,143.672684 245.936966,132.783020 265.467102,128.354523 
M309.140991,294.577515 
	C304.608490,278.295380 288.543488,277.765350 278.687439,283.309753 
	C275.704254,284.987946 272.951660,287.391357 270.736267,290.007019 
	C269.282745,291.723175 268.305511,294.407074 268.275024,296.673157 
	C268.066895,312.159729 267.980499,327.653534 268.237030,343.138641 
	C268.386078,352.135712 269.394989,361.091095 273.794250,369.246674 
	C277.764618,376.607056 284.003326,379.954102 292.279633,379.433350 
	C300.720795,378.902222 305.857086,373.911499 307.796051,366.169800 
	C309.562500,359.116882 310.747498,351.817810 311.227417,344.563599 
	C312.314911,328.126190 312.657990,311.655701 309.140991,294.577515 
z"/>
<path fill="#FDFEFE" opacity="1.000000" stroke="none" 
	d="
M86.177399,200.106522 
	C86.161934,188.196243 86.287338,176.701324 86.076401,165.212585 
	C86.017975,162.030365 87.250786,160.812851 89.940781,159.351959 
	C104.802101,151.281052 119.780235,143.344559 134.042023,134.296051 
	C138.761078,131.302002 142.724792,129.194946 148.356735,129.377731 
	C159.639130,129.743866 170.941742,129.486450 182.535172,129.486450 
	C182.535172,225.299896 182.535172,320.619507 182.535172,416.226440 
	C164.427856,416.226440 146.503143,416.226440 128.116882,416.226440 
	C128.116882,339.970306 128.116882,263.782104 128.116882,186.852036 
	C126.177559,187.489792 124.853996,187.886002 123.557785,188.357407 
	C112.009621,192.557175 100.474892,196.794327 88.901871,200.924271 
	C88.142624,201.195221 87.101349,200.675934 86.177399,200.106522 
z"/>
<path fill="#FCFDFE" opacity="1.000000" stroke="none" 
	d="
M955.999512,1134.518799 
	C941.503235,1134.517822 927.506653,1134.578979 913.510864,1134.492798 
	C905.252808,1134.441895 899.057129,1130.796143 895.769531,1123.077881 
	C892.669006,1115.799072 893.965332,1109.015503 899.154297,1103.111328 
	C902.877502,1098.874878 907.772705,1096.998535 913.384583,1096.997925 
	C956.872986,1096.992920 1000.361389,1096.958618 1043.849731,1097.019775 
	C1054.768433,1097.035156 1062.862915,1104.843384 1063.068115,1115.191528 
	C1063.283325,1126.048706 1055.675903,1134.160156 1044.474609,1134.448975 
	C1033.817749,1134.723755 1023.148499,1134.517212 1012.484741,1134.518311 
	C993.822998,1134.520142 975.161316,1134.518799 955.999512,1134.518799 
z"/>
<path fill="#FCFDFE" opacity="1.000000" stroke="none" 
	d="
M1050.224121,1338.536743 
	C1047.217041,1338.971558 1044.578003,1339.480347 1041.938477,1339.483398 
	C999.818359,1339.533325 957.698181,1339.535400 915.578064,1339.507568 
	C904.380432,1339.500122 897.085754,1334.431519 894.839905,1325.287109 
	C891.858521,1313.147949 900.539062,1302.060181 913.282410,1302.020020 
	C940.085876,1301.935303 966.889832,1301.994019 993.693542,1301.993896 
	C1010.175354,1301.993774 1026.657104,1301.978149 1043.138916,1301.999878 
	C1053.305664,1302.013184 1061.107544,1307.955933 1062.830933,1316.928345 
	C1064.615601,1326.220703 1060.033203,1334.251099 1050.224121,1338.536743 
z"/>
<path fill="#FCFDFE" opacity="1.000000" stroke="none" 
	d="
M623.248291,308.482849 
	C633.369019,308.651154 643.039429,308.448334 652.655762,309.074738 
	C667.076111,310.014038 676.431641,317.189056 677.279907,331.096069 
	C678.562012,352.118164 678.697327,373.354919 677.221191,394.352936 
	C676.118408,410.038910 666.130005,417.499573 650.181946,418.036652 
	C639.710754,418.389343 629.217957,418.103302 618.364868,418.103302 
	C618.364868,381.681183 618.364868,345.342651 618.364868,308.709229 
	C619.841431,308.633423 621.307556,308.558136 623.248291,308.482849 
M656.075073,398.235870 
	C656.661133,394.820435 657.698730,391.412354 657.754761,387.988251 
	C657.994629,373.345428 657.992798,358.697723 657.968140,344.052032 
	C657.961731,340.240753 657.816223,336.392242 657.271484,332.627869 
	C656.387512,326.519135 653.550171,323.827515 647.536011,323.217194 
	C644.612671,322.920532 641.634338,323.165924 638.425964,323.165924 
	C638.425964,350.147552 638.425964,376.849091 638.425964,403.514801 
	C647.825317,404.830261 652.078491,403.688873 656.075073,398.235870 
z"/>
<path fill="#FAFCFD" opacity="1.000000" stroke="none" 
	d="
M1004.013062,594.096619 
	C992.579102,600.311401 981.065308,600.209229 969.408569,596.249512 
	C963.390442,594.205139 958.928406,589.935852 957.013550,584.037659 
	C955.037964,577.952576 953.397217,571.503723 953.168030,565.157776 
	C952.621155,550.012207 952.911926,534.832886 953.047546,519.668823 
	C953.081604,515.863159 953.498108,511.999664 954.270630,508.272949 
	C956.969971,495.251617 964.926758,488.122955 978.374695,486.896484 
	C983.144958,486.461426 988.051025,486.514984 992.804871,487.090607 
	C1006.349182,488.730743 1015.273621,498.577942 1015.833679,514.142517 
	C1016.515869,533.098206 1016.354065,552.107544 1015.825073,571.073242 
	C1015.573425,580.092468 1012.149841,588.310913 1004.013062,594.096619 
M994.811218,508.151520 
	C991.885254,502.259857 988.477966,500.561554 981.877563,501.704926 
	C976.937256,502.560730 974.602783,505.436127 973.883728,511.673431 
	C973.674377,513.489685 973.530457,515.324890 973.527527,517.151672 
	C973.500854,533.982849 973.472473,550.814270 973.550415,567.645081 
	C973.563416,570.455383 973.792969,573.332642 974.436096,576.057739 
	C975.715515,581.479370 979.393738,584.008362 985.051208,583.825623 
	C990.505981,583.649414 993.840515,581.078064 994.970642,575.783081 
	C995.521667,573.201538 995.781616,570.511292 995.792786,567.868652 
	C995.863953,551.037781 995.867615,534.206238 995.791138,517.375427 
	C995.778381,514.566528 995.265015,511.759827 994.811218,508.151520 
z"/>
<path fill="#FBFDFD" opacity="1.000000" stroke="none" 
	d="
M971.964233,330.133606 
	C972.405212,338.688354 973.135681,346.821869 973.099915,354.951965 
	C973.040771,368.420227 973.338745,381.976837 971.916931,395.329163 
	C970.329773,410.233887 961.855530,417.774872 947.016785,419.274841 
	C941.794312,419.802734 936.312256,419.609131 931.161377,418.628357 
	C919.221008,416.354828 911.873901,408.143829 911.237427,396.638916 
	C910.044861,375.084656 909.258423,353.332367 910.852783,331.851715 
	C912.276733,312.666046 925.394409,306.055084 945.267090,307.357269 
	C960.909546,308.382324 967.584290,314.399536 971.964233,330.133606 
M952.491516,347.501160 
	C952.368713,342.346161 952.554382,337.160553 952.047180,332.043671 
	C951.368469,325.195496 948.102417,322.321075 941.790894,322.174347 
	C935.233459,322.021942 931.931458,324.855591 930.768372,331.806213 
	C930.413391,333.928009 930.200623,336.099915 930.194641,338.249603 
	C930.148621,354.904602 930.128784,371.559967 930.208557,388.214722 
	C930.222046,391.024719 930.512085,393.883911 931.098389,396.629852 
	C932.243286,401.992950 935.961609,404.728577 941.520386,404.689545 
	C946.992371,404.651123 950.734253,401.782532 951.807434,396.413544 
	C952.324890,393.824615 952.450500,391.124268 952.462891,388.473022 
	C952.525146,375.149200 952.491455,361.824951 952.491516,347.501160 
z"/>
<path fill="#FCFDFE" opacity="1.000000" stroke="none" 
	d="
M859.174316,398.999664 
	C859.174316,405.479126 859.174316,411.458679 859.174316,417.805511 
	C852.544678,417.805511 846.134094,417.805511 839.357117,417.805511 
	C839.357117,381.671509 839.357117,345.326782 839.357117,307.865601 
	C852.705078,308.552063 866.050903,308.388031 879.136108,310.154266 
	C891.812317,311.865356 898.329224,320.507324 899.046631,333.312866 
	C899.204651,336.134155 899.233459,338.975189 899.107788,341.797607 
	C898.678162,351.442474 895.851379,359.816284 886.217346,364.511139 
	C891.196899,382.250458 896.123108,399.799805 901.173828,417.792725 
	C894.306274,417.792725 887.779175,417.792725 880.872681,417.792725 
	C876.562988,401.424713 872.216919,384.918701 867.875427,368.429871 
	C864.927551,368.429871 862.331238,368.429871 859.174316,368.429871 
	C859.174316,378.616394 859.174316,388.558044 859.174316,398.999664 
M869.483521,322.851318 
	C866.202332,322.851318 862.921143,322.851318 859.469055,322.851318 
	C859.469055,333.653748 859.469055,344.215790 859.469055,355.016510 
	C862.573303,355.016510 865.398987,355.225189 868.183350,354.974762 
	C874.767944,354.382446 878.782959,350.942993 879.673218,344.499542 
	C880.212646,340.594879 880.095459,336.499359 879.595764,332.575806 
	C878.922546,327.289093 875.858459,323.787262 869.483521,322.851318 
z"/>
<path fill="#FAFCFD" opacity="1.000000" stroke="none" 
	d="
M1054.915771,556.187683 
	C1051.971558,549.109436 1049.148071,542.396973 1046.324585,535.684448 
	C1046.000000,535.718628 1045.675293,535.752808 1045.350586,535.787048 
	C1045.350586,556.206726 1045.350586,576.626465 1045.350586,597.257080 
	C1039.229858,597.257080 1033.801880,597.257080 1028.242676,597.257080 
	C1028.242676,560.737549 1028.242676,524.484924 1028.242676,487.825378 
	C1032.277344,487.825378 1036.135864,487.425323 1039.836426,488.016052 
	C1041.385864,488.263367 1043.145386,490.371796 1043.882324,492.042969 
	C1051.392700,509.073242 1058.705444,526.190552 1066.096436,543.273560 
	C1066.651733,544.556946 1067.381836,545.764709 1068.707031,548.303223 
	C1068.707031,527.407166 1068.707031,508.006104 1068.707031,488.213806 
	C1074.223145,488.213806 1079.455444,488.213806 1085.110107,488.213806 
	C1085.110107,524.315247 1085.110107,560.526245 1085.110107,597.507751 
	C1081.435181,597.507751 1077.639282,597.811646 1073.942505,597.339294 
	C1072.686523,597.178894 1071.244141,595.248108 1070.628784,593.809021 
	C1065.334961,581.431763 1060.211182,568.981750 1054.915771,556.187683 
z"/>
<path fill="#F9FBFD" opacity="1.000000" stroke="none" 
	d="
M564.183594,361.368286 
	C564.183594,380.433502 564.183594,399.049652 564.183594,417.923035 
	C558.464111,417.923035 553.195984,417.923035 547.535767,417.923035 
	C547.535767,381.693085 547.535767,345.469788 547.535767,308.486176 
	C551.333557,308.486176 555.314087,308.137085 559.172729,308.670380 
	C560.575073,308.864166 562.162109,310.953888 562.857544,312.533905 
	C570.289001,329.417572 577.556458,346.373383 584.875488,363.306580 
	C585.459839,364.658478 586.092651,365.989410 587.585754,367.248016 
	C587.585754,347.832642 587.585754,328.417267 587.585754,308.759399 
	C593.491150,308.759399 598.731445,308.759399 604.250549,308.759399 
	C604.250549,345.282379 604.250549,381.516174 604.250549,417.655457 
	C603.692810,417.879120 603.393494,418.088623 603.080505,418.111755 
	C591.414185,418.974731 591.407837,418.974976 586.932312,408.223236 
	C580.291687,392.270294 573.664917,376.311646 567.018982,360.360901 
	C566.411438,358.902802 565.708496,357.484406 564.183594,356.232727 
	C564.183594,357.794891 564.183594,359.357086 564.183594,361.368286 
z"/>
<path fill="#FCFDFE" opacity="1.000000" stroke="none" 
	d="
M513.823730,579.998535 
	C513.823730,549.188599 513.823730,518.878113 513.823730,487.843048 
	C518.125427,487.843048 522.257690,487.494171 526.268921,488.037781 
	C527.620117,488.220856 529.073425,490.490479 529.785217,492.111572 
	C536.933167,508.390656 543.933289,524.734619 550.985229,541.055908 
	C551.693848,542.695984 552.470032,544.306763 554.124268,545.853455 
	C554.124268,526.767578 554.124268,507.681763 554.124268,488.213867 
	C560.028381,488.213867 565.244446,488.213867 570.822388,488.213867 
	C570.822388,524.315918 570.822388,560.544617 570.822388,597.497131 
	C567.125366,597.497131 563.327759,597.811890 559.636597,597.322998 
	C558.378540,597.156372 556.960327,595.148682 556.340515,593.676819 
	C548.796021,575.760620 541.389954,557.786194 533.937683,539.831055 
	C533.262512,538.204468 532.516724,536.607239 531.143921,535.127258 
	C531.143921,555.663147 531.143921,576.198975 531.143921,597.125549 
	C525.258484,597.125549 519.730835,597.125549 513.823730,597.125549 
	C513.823730,591.460144 513.823730,585.979126 513.823730,579.998535 
z"/>
<path fill="#FCFDFE" opacity="1.000000" stroke="none" 
	d="
M1042.176147,346.000122 
	C1042.176147,370.143341 1042.176147,393.786560 1042.176147,418.163635 
	C1038.211426,418.163635 1034.407104,418.523438 1030.736816,417.979065 
	C1029.351074,417.773499 1027.798462,415.679413 1027.131226,414.103577 
	C1019.422119,395.897797 1011.869019,377.626038 1004.271729,359.372955 
	C1003.789734,358.214813 1003.284119,357.066498 1001.969238,356.125824 
	C1001.969238,376.659851 1001.969238,397.193878 1001.969238,417.942322 
	C996.135071,417.942322 990.732910,417.942322 985.077393,417.942322 
	C985.077393,381.475525 985.077393,345.242493 985.077393,308.491241 
	C989.063477,308.491241 992.909302,308.144989 996.633362,308.667023 
	C998.060730,308.867096 999.726624,310.822205 1000.406677,312.364380 
	C1007.714233,328.935913 1014.841248,345.587006 1022.034119,362.209229 
	C1022.730530,363.818573 1023.536621,365.380371 1025.172119,366.805939 
	C1025.172119,347.655090 1025.172119,328.504242 1025.172119,308.919617 
	C1031.081055,308.919617 1036.438965,308.919617 1042.176147,308.919617 
	C1042.176147,321.211853 1042.176147,333.355957 1042.176147,346.000122 
z"/>
<path fill="#FAFCFD" opacity="1.000000" stroke="none" 
	d="
M811.008423,552.998535 
	C811.335266,560.463623 811.290222,567.472900 812.102539,574.381348 
	C812.794922,580.270264 816.824402,583.570923 822.021606,583.753418 
	C827.140991,583.933228 831.125305,580.760376 832.437195,574.888123 
	C833.155334,571.673828 833.422180,568.299561 833.433289,564.995911 
	C833.513672,541.185303 833.476440,517.374329 833.476440,493.563477 
	C833.476440,491.774048 833.476501,489.984619 833.476501,488.009613 
	C840.181580,488.009613 846.308716,488.009613 852.713501,488.009613 
	C852.864624,488.767914 853.151306,489.533752 853.150391,490.299225 
	C853.120544,515.939636 853.110840,541.580322 852.953979,567.220032 
	C852.932739,570.683838 852.449707,574.211487 851.672546,577.592773 
	C847.958557,593.750610 835.721252,601.119080 816.948486,598.691589 
	C801.518616,596.696350 793.554932,588.695862 792.102661,572.959412 
	C791.355103,564.860168 791.241333,556.685120 791.191711,548.542236 
	C791.070068,528.580444 791.151978,508.617371 791.151978,488.238281 
	C797.763245,488.238281 804.122009,488.238281 811.008423,488.238281 
	C811.008423,509.641144 811.008423,531.070068 811.008423,552.998535 
z"/>
<path fill="#FBFDFD" opacity="1.000000" stroke="none" 
	d="
M1074.845093,392.798218 
	C1076.339111,402.329346 1080.567139,405.686432 1088.518433,404.347565 
	C1093.611328,403.490021 1095.670044,399.942871 1096.899902,395.573639 
	C1097.392822,393.822601 1097.786377,391.987152 1097.837280,390.179199 
	C1097.967773,385.540344 1097.880859,380.895386 1097.880859,375.598999 
	C1094.028320,375.598999 1090.316040,375.598999 1086.389526,375.598999 
	C1086.389526,371.011322 1086.389526,367.078430 1086.389526,362.811523 
	C1096.228271,362.811523 1105.967529,362.811523 1115.934814,362.811523 
	C1115.934814,381.226868 1115.934814,399.458435 1115.934814,417.933716 
	C1111.609619,417.933716 1107.523682,417.933716 1103.207520,417.933716 
	C1102.730103,415.081299 1102.269043,412.326569 1101.805054,409.554413 
	C1101.570435,409.572662 1101.092529,409.492035 1101.014771,409.632690 
	C1096.259521,418.228851 1088.563965,420.629517 1079.425781,419.760834 
	C1069.429443,418.810516 1061.172485,414.689148 1057.921509,404.666687 
	C1055.749634,397.971436 1054.200928,390.783020 1054.054321,383.780090 
	C1053.706177,367.158295 1053.411865,350.433685 1054.841919,333.901703 
	C1056.682373,312.623657 1069.531738,305.845001 1089.478760,307.398315 
	C1107.284302,308.784882 1114.566040,317.337982 1115.804565,336.793427 
	C1115.962036,339.266541 1115.826294,341.758301 1115.826294,344.623596 
	C1109.393433,344.623596 1103.155518,344.623596 1096.146484,344.623596 
	C1096.146484,341.233826 1096.227783,337.646271 1096.130005,334.063599 
	C1095.911987,326.083435 1092.962769,322.561890 1086.326294,322.187195 
	C1079.340576,321.792725 1075.098999,325.129913 1074.939697,333.002563 
	C1074.539673,352.783386 1074.806641,372.577698 1074.845093,392.798218 
z"/>
<path fill="#FBFDFD" opacity="1.000000" stroke="none" 
	d="
M891.479248,145.005371 
	C891.479248,139.546478 891.479248,134.586090 891.479248,129.394135 
	C898.148132,129.394135 904.240967,129.394135 911.007141,129.394135 
	C911.007141,131.237961 911.007141,132.999374 911.007141,134.760788 
	C911.007141,157.759018 910.949890,180.757523 911.058228,203.755234 
	C911.078613,208.060043 911.452148,212.417633 912.216492,216.650894 
	C913.202942,222.114532 916.709412,224.940155 921.797180,225.147217 
	C927.445068,225.377060 930.958313,223.065155 932.259888,217.309204 
	C933.241516,212.968002 933.728516,208.428223 933.756226,203.972610 
	C933.898865,180.975266 933.822388,157.976578 933.822388,134.978348 
	C933.822388,133.197205 933.822449,131.416077 933.822449,129.397751 
	C940.459167,129.397751 946.536621,129.397751 952.948975,129.397751 
	C953.031799,131.237076 953.167297,132.855087 953.168213,134.473160 
	C953.181885,158.138000 953.313721,181.804214 953.077271,205.466690 
	C953.021423,211.062576 951.834473,216.666077 950.914185,222.224045 
	C950.596130,224.145096 949.688843,226.036865 948.743286,227.774719 
	C942.414856,239.405426 931.405518,240.820297 919.897400,240.430634 
	C908.796082,240.054733 898.767822,236.780624 894.986816,225.010742 
	C892.886597,218.472733 891.784119,211.373352 891.632141,204.496048 
	C891.197632,184.840469 891.479248,165.169052 891.479248,145.005371 
z"/>
<path fill="#F9FCFD" opacity="1.000000" stroke="none" 
	d="
M1120.890381,142.952698 
	C1127.141235,131.047562 1139.158569,125.977310 1154.795166,128.351028 
	C1169.048584,130.514755 1176.208008,137.747452 1177.758423,152.315430 
	C1178.334595,157.729187 1177.851440,163.255692 1177.851440,169.129364 
	C1171.692383,169.129364 1165.492676,169.129364 1158.355103,169.129364 
	C1158.355103,163.407547 1158.667847,157.766327 1158.271729,152.175323 
	C1157.829590,145.933899 1154.905151,143.308395 1149.208862,143.019714 
	C1143.328003,142.721680 1139.333496,145.733566 1138.263672,151.626190 
	C1137.761719,154.391388 1137.618652,157.255737 1137.627563,160.074158 
	C1137.683472,177.881027 1137.657227,195.691116 1138.020142,213.492737 
	C1138.182861,221.471771 1141.627197,225.124634 1147.934326,225.431458 
	C1153.575439,225.705872 1157.333130,223.033295 1158.015015,217.354477 
	C1158.764282,211.115723 1158.810181,204.792526 1159.181885,198.160187 
	C1165.302002,198.160187 1171.502075,198.160187 1178.069702,198.160187 
	C1178.184692,208.247589 1179.108887,218.261932 1174.168335,227.487625 
	C1172.857788,229.934723 1171.302612,232.578979 1169.154053,234.193741 
	C1158.464966,242.227249 1146.525879,242.119736 1134.516357,238.124695 
	C1123.738770,234.539383 1118.740112,225.641205 1118.140259,215.164932 
	C1117.133179,197.577255 1117.146606,179.913712 1117.298096,162.286957 
	C1117.348511,156.406174 1119.127441,150.538788 1120.146362,144.670517 
	C1120.228882,144.195343 1120.545654,143.760818 1120.890381,142.952698 
z"/>
<path fill="#FAFCFD" opacity="1.000000" stroke="none" 
	d="
M684.243286,237.887329 
	C673.361267,232.980621 668.940796,223.782913 668.550720,213.259811 
	C667.835938,193.975861 667.350098,174.581863 668.612854,155.354858 
	C669.863403,136.313965 680.110718,125.895424 705.288696,128.420837 
	C719.383240,129.834549 726.108826,136.816986 728.218323,151.130157 
	C729.082825,156.995880 728.950928,163.008469 729.288269,169.249771 
	C722.546631,169.249771 716.435730,169.249771 709.144958,169.249771 
	C709.144958,163.855316 709.341614,158.435120 709.095459,153.035126 
	C708.784058,146.205566 705.882874,143.263107 699.820190,143.015671 
	C693.636292,142.763321 689.651367,145.874374 689.039124,152.278671 
	C688.407227,158.889236 688.190857,165.564651 688.230286,172.209091 
	C688.315186,186.520493 688.399963,200.842957 689.049255,215.135254 
	C689.376770,222.343353 693.164490,225.505463 699.374756,225.443344 
	C705.569885,225.381378 708.545715,222.157471 709.142761,214.690826 
	C709.367920,211.875046 709.409851,209.042343 709.465454,206.215973 
	C709.517273,203.581314 709.476501,200.944824 709.476501,198.071442 
	C716.082275,198.071442 722.196777,198.071442 728.754150,198.071442 
	C729.299866,207.622940 729.547974,217.182465 725.604980,226.303970 
	C721.479492,235.847565 713.533508,239.951981 703.742432,240.093124 
	C697.372986,240.184937 690.981689,238.767975 684.243286,237.887329 
z"/>
<path fill="#FBFDFD" opacity="1.000000" stroke="none" 
	d="
M655.481445,207.455109 
	C657.649658,218.115204 659.685730,228.369797 661.780762,238.920990 
	C655.572205,238.920990 649.622314,238.920990 643.060120,238.920990 
	C641.588562,230.821793 640.090759,222.578674 638.552734,214.113647 
	C632.436157,214.113647 626.498230,214.113647 619.885071,214.113647 
	C618.617432,221.090485 617.146912,228.188324 616.114929,235.349350 
	C615.697083,238.248291 614.763489,239.370743 611.760986,239.236969 
	C606.800842,239.015991 601.823792,239.176971 596.232239,239.176971 
	C598.872314,226.188614 601.406372,213.714401 603.943787,201.240891 
	C608.582214,178.438980 613.290222,155.650818 617.779419,132.819580 
	C618.360413,129.864777 619.490295,129.002304 622.344543,129.098358 
	C627.977417,129.287918 633.621155,129.154251 639.606445,129.154251 
	C644.895508,155.324265 650.122437,181.186920 655.481445,207.455109 
M630.078125,161.991913 
	C629.941467,161.136063 629.804810,160.280212 629.668091,159.424362 
	C629.349609,159.411880 629.031067,159.399399 628.712585,159.386932 
	C626.496765,172.907684 624.280945,186.428436 622.011047,200.279236 
	C626.857300,200.279236 631.276855,200.279236 636.345825,200.279236 
	C634.256409,187.576416 632.213257,175.154572 630.078125,161.991913 
z"/>
<path fill="#FBFDFD" opacity="1.000000" stroke="none" 
	d="
M509.822845,308.479218 
	C515.559448,307.513275 517.508667,309.537842 518.566589,315.026306 
	C525.015747,348.483093 531.984863,381.839630 538.765747,415.232574 
	C538.924744,416.015808 538.911377,416.834045 539.001648,417.914307 
	C532.868713,417.914307 526.928589,417.914307 520.484070,417.914307 
	C519.000732,409.747070 517.502319,401.496704 515.988342,393.160522 
	C509.709290,393.160522 503.749512,393.160522 497.364502,393.160522 
	C495.872986,401.344696 494.393341,409.463470 492.860870,417.872253 
	C486.604706,417.872253 480.376740,417.872253 473.773376,417.872253 
	C481.215820,381.272980 488.594421,344.987701 496.018402,308.479187 
	C500.733337,308.479187 505.043121,308.479187 509.822845,308.479218 
M501.043030,369.581879 
	C500.601654,372.829620 500.160278,376.077332 499.684509,379.578217 
	C504.597687,379.578217 509.013519,379.578217 513.855469,379.578217 
	C511.540375,365.518372 509.282715,351.807068 507.025024,338.095795 
	C506.768951,338.136047 506.512878,338.176270 506.256805,338.216522 
	C504.550415,348.380249 502.844025,358.543945 501.043030,369.581879 
z"/>
<path fill="#FAFCFD" opacity="1.000000" stroke="none" 
	d="
M751.855957,403.153442 
	C758.060852,398.651550 757.332886,392.633636 755.176270,387.191254 
	C753.528320,383.032532 750.511108,379.135010 747.288818,375.943176 
	C741.507690,370.216614 735.109009,365.114319 728.978577,359.739502 
	C719.479614,351.411285 716.464050,340.721436 718.258606,328.618896 
	C720.424194,314.014038 733.430542,305.398163 749.843811,307.278381 
	C765.168884,309.033966 772.804077,318.328491 773.798401,337.063141 
	C768.321106,338.160400 762.746765,339.277130 757.105164,340.407349 
	C756.265747,336.153809 755.825073,332.348236 754.726868,328.742950 
	C753.260132,323.927490 749.644775,322.005859 744.667358,322.742920 
	C739.846313,323.456757 737.456116,326.353516 736.905212,331.078491 
	C736.055847,338.363403 739.806396,343.420563 744.836792,347.924408 
	C751.404602,353.804749 758.151855,359.505890 764.433105,365.679657 
	C771.833984,372.953644 775.900208,381.854218 775.865051,392.455719 
	C775.808594,409.499268 763.175049,421.150696 746.111145,419.778900 
	C727.653625,418.295013 717.835693,406.720825 718.033630,386.017883 
	C723.467224,384.850739 729.045044,383.652588 734.920349,382.390533 
	C735.716309,386.852386 736.088440,390.976227 737.225098,394.877319 
	C739.453796,402.526367 743.975891,405.024811 751.855957,403.153442 
z"/>
<path fill="#F9FBFD" opacity="1.000000" stroke="none" 
	d="
M499.852783,194.202972 
	C499.852356,209.305450 499.852356,223.929276 499.852356,238.866318 
	C493.013855,238.866318 486.598969,238.866318 479.824646,238.866318 
	C479.824646,202.477066 479.824646,166.102112 479.824646,130.123154 
	C493.236298,130.123154 506.542145,129.323044 519.696716,130.389130 
	C529.342651,131.170853 535.660339,138.130997 537.543884,147.550659 
	C538.892517,154.295547 539.349487,161.511642 538.562256,168.327835 
	C537.065430,181.287415 528.226685,188.915787 515.041199,189.949448 
	C511.064880,190.261154 507.045929,190.291840 503.059814,190.127792 
	C500.217102,190.010818 499.591003,191.340225 499.852783,194.202972 
M520.106384,156.733917 
	C519.418945,144.963928 514.925842,142.152328 500.250122,144.359390 
	C500.250122,154.859589 500.250122,165.365372 500.250122,175.846237 
	C517.399414,176.540634 520.171448,173.951141 520.106384,156.733917 
z"/>
<path fill="#FBFDFD" opacity="1.000000" stroke="none" 
	d="
M620.389648,569.743286 
	C618.042297,565.192871 616.498779,560.333191 613.327637,557.041504 
	C606.999146,550.472351 599.745300,544.799622 592.932861,538.690674 
	C584.046814,530.722290 580.793030,520.610962 582.236328,508.976624 
	C583.980225,494.920074 594.028320,486.697693 609.324402,486.478790 
	C627.730164,486.215393 638.458069,497.307068 637.711426,516.302368 
	C632.354370,517.368347 626.892944,518.455017 621.352234,519.557495 
	C620.509094,515.411987 620.051147,511.608643 618.928223,508.012970 
	C617.357178,502.982025 613.789734,501.127289 608.426025,501.937164 
	C604.122559,502.586945 601.437256,505.821320 601.006042,510.640167 
	C600.393494,517.487183 603.796631,522.406799 608.569153,526.665222 
	C614.280273,531.761108 620.152527,536.681030 625.759949,541.887268 
	C632.584961,548.223999 637.719849,555.557922 639.483887,565.044983 
	C643.409058,586.154846 628.775024,601.598145 607.418030,598.637939 
	C590.881897,596.345886 581.213867,583.602905 582.286255,565.088989 
	C587.790955,563.957031 593.391724,562.805359 599.202515,561.610474 
	C599.821472,565.448975 600.218079,568.726746 600.917480,571.938538 
	C601.335632,573.858704 602.022522,575.785034 602.946228,577.517944 
	C605.538818,582.381592 610.342163,584.368652 615.105286,582.763794 
	C619.356934,581.331238 621.242615,576.884705 620.389648,569.743286 
z"/>
<path fill="#FBFDFD" opacity="1.000000" stroke="none" 
	d="
M1096.713501,507.822479 
	C1098.402100,497.092316 1104.337158,490.171906 1114.336914,488.012024 
	C1120.507812,486.679138 1127.346802,486.410339 1133.525146,487.576080 
	C1145.315063,489.800507 1152.764648,502.259857 1151.732666,516.361023 
	C1146.482544,517.405762 1141.127930,518.471252 1135.555298,519.580200 
	C1134.763062,515.704773 1134.274170,511.939362 1133.193848,508.352051 
	C1131.607422,503.084503 1128.370239,501.231750 1122.960327,501.910828 
	C1118.410889,502.481873 1115.514771,505.800995 1115.181274,510.823822 
	C1114.828003,516.145447 1116.602417,520.693542 1120.489258,524.274414 
	C1126.239014,529.571594 1132.168335,534.673279 1137.953125,539.933105 
	C1146.520996,547.723328 1153.359863,556.471680 1154.067383,568.720459 
	C1155.233887,588.914246 1140.899658,601.845642 1120.897339,598.534790 
	C1104.648926,595.845215 1095.209717,583.002930 1096.454468,565.034180 
	C1102.028076,563.917053 1107.657104,562.788757 1113.139526,561.689880 
	C1114.184204,566.628113 1114.719727,571.115723 1116.119019,575.315613 
	C1118.224121,581.634277 1123.378174,584.435852 1128.847412,582.903809 
	C1133.289185,581.659546 1135.629028,576.844177 1134.785400,570.570801 
	C1133.970093,564.509155 1130.939087,559.646851 1126.436279,555.661621 
	C1120.205566,550.147156 1113.887573,544.731323 1107.658203,539.215271 
	C1098.301758,530.930359 1094.751099,520.543030 1096.713501,507.822479 
z"/>
<path fill="#FBFDFD" opacity="1.000000" stroke="none" 
	d="
M1000.050659,149.290894 
	C996.732178,143.647720 994.015564,142.382309 988.926453,143.790207 
	C984.289062,145.073090 982.110352,148.477554 982.165344,154.077988 
	C982.224426,160.095078 985.438599,164.419952 989.640991,168.176468 
	C995.350647,173.280273 1001.285217,178.138260 1006.889343,183.353104 
	C1016.618774,192.406815 1022.357300,203.185349 1021.067200,217.008087 
	C1019.945007,229.032806 1011.180359,238.490387 999.186829,240.078705 
	C977.450439,242.957275 963.439941,231.520477 963.428650,206.772675 
	C968.974426,205.618088 974.605164,204.445831 980.409973,203.237305 
	C980.974976,206.871368 981.217957,210.204117 982.070374,213.372910 
	C982.790527,216.050278 983.827087,218.816238 985.419983,221.045380 
	C987.966675,224.609467 991.745056,225.830658 996.045654,224.474564 
	C1000.117188,223.190674 1001.662109,219.895844 1001.885010,216.020081 
	C1002.269897,209.327911 999.890930,203.518570 995.039246,198.981842 
	C988.839355,193.184418 982.458069,187.570709 975.984985,182.078094 
	C965.371338,173.072037 961.321411,161.831787 963.917786,148.180359 
	C965.459717,140.073303 969.972534,134.206497 977.508606,130.881561 
	C985.596375,127.313187 993.994873,126.933838 1002.375427,129.649536 
	C1013.917297,133.389709 1017.194458,143.037949 1018.927673,153.640289 
	C1019.114441,154.782730 1019.065186,155.963745 1019.161743,157.828827 
	C1013.674255,158.969177 1008.123352,160.122711 1002.569031,161.276932 
	C1001.704224,157.085388 1000.938904,153.376358 1000.050659,149.290894 
z"/>
<path fill="#FCFDFE" opacity="1.000000" stroke="none" 
	d="
M567.174316,207.999420 
	C567.174316,213.805283 567.174316,219.112045 567.174316,224.914276 
	C575.902161,224.914276 584.314392,224.914276 593.118652,224.914276 
	C593.118652,229.797409 593.118652,234.191284 593.118652,238.882629 
	C577.969360,238.882629 562.868591,238.882629 547.380859,238.882629 
	C547.380859,202.638824 547.380859,166.252869 547.380859,129.511398 
	C562.291077,129.511398 577.343384,129.511398 592.701599,129.511398 
	C592.701599,134.108612 592.701599,138.678192 592.701599,143.700455 
	C584.378418,143.700455 576.115295,143.700455 567.516724,143.700455 
	C567.516724,154.209564 567.516724,164.276688 567.516724,174.846191 
	C574.084167,174.846191 580.658325,174.846191 587.533569,174.846191 
	C587.533569,179.737442 587.533569,184.133972 587.533569,189.108063 
	C580.880127,189.108063 574.314148,189.108063 567.174316,189.108063 
	C567.174316,195.612503 567.174316,201.556396 567.174316,207.999420 
z"/>
<path fill="#FCFDFE" opacity="1.000000" stroke="none" 
	d="
M1188.995361,141.021332 
	C1188.995361,136.902832 1188.995361,133.279861 1188.995361,129.414001 
	C1204.518311,129.414001 1219.574097,129.414001 1234.902100,129.414001 
	C1234.902100,134.213898 1234.902100,138.774307 1234.902100,143.745758 
	C1226.385986,143.745758 1218.116089,143.745758 1209.513916,143.745758 
	C1209.513916,154.211044 1209.513916,164.272888 1209.513916,174.832596 
	C1216.073853,174.832596 1222.644409,174.832596 1229.525146,174.832596 
	C1229.525146,179.715591 1229.525146,184.109451 1229.525146,189.078140 
	C1222.906738,189.078140 1216.345337,189.078140 1209.487305,189.078140 
	C1209.487305,201.212723 1209.487305,212.784622 1209.487305,224.875900 
	C1217.841675,224.875900 1226.243896,224.875900 1235.077148,224.875900 
	C1235.077148,229.750946 1235.077148,234.125244 1235.077148,238.841125 
	C1219.912720,238.841125 1204.710571,238.841125 1188.995361,238.841125 
	C1188.995361,206.353699 1188.995361,173.935272 1188.995361,141.021332 
z"/>
<path fill="#FCFDFE" opacity="1.000000" stroke="none" 
	d="
M773.986328,225.157059 
	C778.123535,225.157059 781.766357,225.157059 785.790039,225.157059 
	C785.790039,229.841904 785.790039,234.216980 785.790039,238.887146 
	C770.696533,238.887146 755.611328,238.887146 740.174988,238.887146 
	C740.174988,202.514435 740.174988,166.128876 740.174988,129.449677 
	C755.327454,129.449677 770.395386,129.449677 785.734619,129.449677 
	C785.734619,134.171295 785.734619,138.740585 785.734619,143.656403 
	C777.287964,143.656403 769.007629,143.656403 760.366638,143.656403 
	C760.366638,154.073242 760.366638,164.158905 760.366638,174.749786 
	C766.697815,174.749786 773.277039,174.749786 780.182190,174.749786 
	C780.182190,179.658035 780.182190,184.069656 780.182190,189.072266 
	C773.591675,189.072266 767.041077,189.072266 760.254883,189.072266 
	C760.254883,201.252182 760.254883,212.849609 760.254883,225.157059 
	C764.655396,225.157059 769.073730,225.157059 773.986328,225.157059 
z"/>
<path fill="#F6FAFC" opacity="1.000000" stroke="none" 
	d="
M679.858215,585.967834 
	C679.858215,589.933716 679.858215,593.406189 679.858215,597.206909 
	C673.079529,597.206909 666.662292,597.206909 659.693848,597.206909 
	C659.693848,565.939392 659.693848,534.728333 659.693848,502.947388 
	C653.270752,502.947388 647.370239,502.947388 641.236694,502.947388 
	C641.236694,497.636169 641.236694,492.896271 641.236694,487.981995 
	C659.858215,487.981995 678.308960,487.981995 697.149536,487.981995 
	C697.149536,492.773804 697.149536,497.474915 697.149536,502.712616 
	C691.551636,502.712616 685.991394,502.712616 679.858215,502.712616 
	C679.858215,530.651184 679.858215,558.062805 679.858215,585.967834 
z"/>
<path fill="#F6FAFC" opacity="1.000000" stroke="none" 
	d="
M768.858215,561.000122 
	C768.858215,573.295532 768.858215,585.090942 768.858215,597.210632 
	C762.068726,597.210632 755.652039,597.210632 748.685913,597.210632 
	C748.685913,565.931274 748.685913,534.721924 748.685913,502.942169 
	C742.265564,502.942169 736.363892,502.942169 730.233704,502.942169 
	C730.233704,497.631165 730.233704,492.892151 730.233704,487.980835 
	C748.864258,487.980835 767.314087,487.980835 786.151611,487.980835 
	C786.151611,492.777161 786.151611,497.478485 786.151611,502.715790 
	C780.548889,502.715790 774.988647,502.715790 768.858215,502.715790 
	C768.858215,522.327637 768.858215,541.413879 768.858215,561.000122 
z"/>
<path fill="#F6FAFC" opacity="1.000000" stroke="none" 
	d="
M876.461060,573.999634 
	C876.461121,550.196228 876.461121,526.892883 876.461121,503.015991 
	C870.348816,503.015991 864.447693,503.015991 858.274902,503.015991 
	C858.274902,497.697418 858.274902,492.945709 858.274902,488.058685 
	C876.903809,488.058685 895.494019,488.058685 914.200073,488.058685 
	C914.200073,493.045319 914.200073,497.779602 914.200073,502.837769 
	C908.415649,502.837769 902.964355,502.837769 897.044312,502.837769 
	C897.044312,534.381714 897.044312,565.601562 897.044312,597.178772 
	C890.158752,597.178772 883.737122,597.178772 876.461060,597.178772 
	C876.461060,589.658142 876.461060,582.078918 876.461060,573.999634 
z"/>
<path fill="#F5F9FB" opacity="1.000000" stroke="none" 
	d="
M822.925293,308.454224 
	C826.401978,308.454254 829.392212,308.454254 832.788025,308.454254 
	C832.788025,313.361389 832.788025,318.074738 832.788025,323.373810 
	C827.380798,323.373810 821.830322,323.373810 815.773682,323.373810 
	C815.773682,355.155853 815.773682,386.366852 815.773682,417.884705 
	C808.679993,417.884705 802.100525,417.884705 795.071533,417.884705 
	C795.071533,386.515320 795.071533,355.286072 795.071533,323.546448 
	C788.892090,323.546448 783.144836,323.546448 777.195068,323.546448 
	C777.195068,318.420502 777.195068,313.807251 777.195068,308.454163 
	C792.292542,308.454163 807.365723,308.454163 822.925293,308.454224 
z"/>
<path fill="#FDFEFE" opacity="1.000000" stroke="none" 
	d="
M1069.048584,144.172791 
	C1066.265869,144.172791 1063.963379,144.172791 1061.160156,144.172791 
	C1061.160156,175.865234 1061.160156,207.222656 1061.160156,238.874573 
	C1054.267822,238.874573 1047.873535,238.874573 1040.918213,238.874573 
	C1040.918213,207.502853 1040.918213,176.151596 1040.918213,144.247070 
	C1034.483154,144.247070 1028.583374,144.247070 1022.431152,144.247070 
	C1022.431152,139.103760 1022.431152,134.514587 1022.431152,129.540649 
	C1041.015991,129.540649 1059.554932,129.540649 1078.468994,129.540649 
	C1078.468994,134.202057 1078.468994,138.906082 1078.468994,144.172791 
	C1075.418823,144.172791 1072.473633,144.172791 1069.048584,144.172791 
z"/>
<path fill="#FCFDFE" opacity="1.000000" stroke="none" 
	d="
M402.785522,1252.108398 
	C398.887085,1252.286621 395.392517,1252.560547 391.905609,1252.483765 
	C382.302155,1252.272461 375.234253,1245.419922 375.053345,1235.753052 
	C374.828918,1223.761475 374.809387,1211.758545 375.059082,1199.768066 
	C375.267029,1189.782471 382.426819,1183.210449 392.510284,1183.157471 
	C394.509521,1183.146973 396.509033,1183.139771 398.508148,1183.159180 
	C407.190613,1183.243286 414.284393,1188.168091 414.844208,1196.810303 
	C415.744690,1210.710327 415.610016,1224.732178 414.937042,1238.655518 
	C414.613159,1245.356201 410.031769,1250.134888 402.785522,1252.108398 
z"/>
<path fill="#F6FAFC" opacity="1.000000" stroke="none" 
	d="
M878.433655,220.454880 
	C876.707581,238.070786 867.565674,243.348770 844.228821,241.039902 
	C844.228821,236.642075 844.228821,232.217041 844.228821,227.826538 
	C844.558533,227.599960 844.803711,227.289581 845.073547,227.266403 
	C856.724365,226.266190 858.449097,224.442108 858.456055,212.862625 
	C858.471558,187.041000 858.460999,161.219376 858.461060,135.397751 
	C858.461060,133.445663 858.461060,131.493576 858.461060,129.344131 
	C865.390381,129.344131 871.682617,129.344131 878.419495,129.344131 
	C878.563293,130.567062 878.837708,131.818787 878.838806,133.070724 
	C878.863159,160.391647 878.863342,187.712601 878.842163,215.033524 
	C878.840881,216.693253 878.623718,218.352829 878.433655,220.454880 
z"/>
<path fill="#FBFDFD" opacity="1.000000" stroke="none" 
	d="
M939.669617,487.984009 
	C940.369385,489.360809 940.815063,490.619293 940.816467,491.878204 
	C940.854004,525.978760 940.846924,560.079285 940.840149,594.179871 
	C940.839966,595.004211 940.758057,595.828613 940.691406,597.084656 
	C934.255005,597.084656 927.886658,597.084656 921.166138,597.084656 
	C921.166138,560.954956 921.166138,524.780090 921.166138,487.865906 
	C927.063049,487.865906 933.135742,487.865906 939.669617,487.984009 
z"/>
<path fill="#FEFEFF" opacity="1.000000" stroke="none" 
	d="
M1105.001465,234.873032 
	C1105.303955,237.859680 1104.861938,239.389832 1101.675049,239.237747 
	C1096.361450,238.984146 1091.026978,239.168533 1085.350342,239.168533 
	C1085.350342,202.606445 1085.350342,166.215775 1085.350342,129.492676 
	C1091.676636,129.492676 1098.063477,129.492676 1105.001465,129.492676 
	C1105.001465,164.528030 1105.001465,199.457214 1105.001465,234.873032 
z"/>
<path fill="#FBFDFD" opacity="1.000000" stroke="none" 
	d="
M703.821716,565.999878 
	C703.821716,539.852661 703.821716,514.205505 703.821716,488.190308 
	C710.439819,488.190308 716.829102,488.190308 723.535583,488.190308 
	C723.535583,524.442017 723.535583,560.672913 723.535583,597.213257 
	C717.014526,597.213257 710.606201,597.213257 703.821716,597.213257 
	C703.821716,586.794250 703.821716,576.647095 703.821716,565.999878 
z"/>
<path fill="#FEFEFF" opacity="1.000000" stroke="none" 
	d="
M479.998444,520.000000 
	C479.998444,509.194000 479.998444,498.888000 479.998444,488.206482 
	C486.580505,488.206482 492.965332,488.206482 499.678650,488.206482 
	C499.678650,524.283936 499.678650,560.497070 499.678650,597.110291 
	C493.421112,597.110291 487.046295,597.110291 479.998444,597.110291 
	C479.998444,571.604553 479.998444,546.052307 479.998444,520.000000 
z"/>
<path fill="#FCFDFE" opacity="1.000000" stroke="none" 
	d="
M1054.833862,713.723267 
	C1052.433960,713.811096 1050.481201,713.811096 1048.582642,713.811096 
	C1045.390747,677.921692 1065.933716,658.930298 1099.413818,660.831421 
	C1102.392090,686.190735 1090.854736,709.558167 1061.739746,712.986084 
	C1059.591187,713.239014 1057.434082,713.420654 1054.833862,713.723267 
z"/>
<path fill="#FCFDFE" opacity="1.000000" stroke="none" 
	d="
M994.599243,718.375610 
	C983.756531,702.783325 985.244568,684.011353 998.473022,666.382629 
	C1028.109863,681.973938 1033.278687,708.335876 1013.969421,734.932861 
	C1006.495544,730.801697 999.983093,725.542725 994.599243,718.375610 
z"/>
<path fill="#FCFDFE" opacity="1.000000" stroke="none" 
	d="
M979.295776,770.288574 
	C977.744446,772.846863 976.385376,775.084351 975.044250,777.292114 
	C945.477234,761.934875 939.707886,734.990051 959.308899,708.978882 
	C976.036316,716.795776 987.340515,732.892334 985.725647,748.680542 
	C984.985779,755.913330 981.647705,762.880310 979.295776,770.288574 
z"/>
<path fill="#FCFDFE" opacity="1.000000" stroke="none" 
	d="
M1086.365112,763.401978 
	C1068.746460,775.015625 1051.735107,772.742004 1035.251953,756.832581 
	C1053.445190,730.845215 1078.639404,731.231812 1099.319214,751.480774 
	C1095.078857,755.394897 1090.863037,759.286316 1086.365112,763.401978 
z"/>
<path fill="#FCFDFE" opacity="1.000000" stroke="none" 
	d="
M1062.134644,802.273682 
	C1056.163086,805.843140 1050.712769,809.839478 1044.645386,812.337158 
	C1030.774048,818.047363 1018.563049,814.002014 1007.946350,804.229248 
	C1004.692383,801.233948 1001.903503,797.733459 998.899658,794.462158 
	C1022.077759,773.904541 1044.807617,777.076843 1061.875610,799.904358 
	C1062.273682,800.436707 1062.219116,801.307373 1062.134644,802.273682 
z"/>
<path fill="#F6FAFC" opacity="1.000000" stroke="none" 
	d="
M799.518250,256.501495 
	C797.943787,257.018433 796.687622,257.357239 794.965576,257.821686 
	C794.230103,255.461212 793.560913,253.313538 792.824280,250.949371 
	C797.708923,248.666672 801.525574,245.746262 801.384644,239.419540 
	C798.318115,239.277802 795.389343,239.142426 792.225464,238.996185 
	C792.225464,233.116867 792.225464,227.362610 792.225464,221.295013 
	C798.155334,221.295013 804.059692,221.295013 810.817810,221.295013 
	C810.464478,229.101746 810.577454,236.921356 809.606018,244.603851 
	C808.906067,250.139038 805.241272,254.201797 799.518250,256.501495 
z"/>
<path fill="#00689D" opacity="1.000000" stroke="none" 
	d="
M692.161133,1137.113770 
	C692.161194,1158.217163 692.161194,1178.831543 692.161194,1199.793213 
	C683.705139,1199.793213 675.502930,1199.793213 666.905273,1199.793213 
	C666.905273,1177.419556 666.905273,1155.408936 666.905273,1132.707520 
	C675.123779,1132.707520 683.342346,1132.707520 691.931213,1132.707520 
	C691.991882,1133.740601 692.076477,1135.182861 692.161133,1137.113770 
z"/>
<path fill="#02699E" opacity="1.000000" stroke="none" 
	d="
M309.252075,294.967163 
	C312.657990,311.655701 312.314911,328.126190 311.227417,344.563599 
	C310.747498,351.817810 309.562500,359.116882 307.796051,366.169800 
	C305.857086,373.911499 300.720795,378.902222 292.279633,379.433350 
	C284.003326,379.954102 277.764618,376.607056 273.794250,369.246674 
	C269.394989,361.091095 268.386078,352.135712 268.237030,343.138641 
	C267.980499,327.653534 268.066895,312.159729 268.275024,296.673157 
	C268.305511,294.407074 269.282745,291.723175 270.736267,290.007019 
	C272.951660,287.391357 275.704254,284.987946 278.687439,283.309753 
	C288.543488,277.765350 304.608490,278.295380 309.252075,294.967163 
z"/>
<path fill="#036A9E" opacity="1.000000" stroke="none" 
	d="
M655.919800,398.601135 
	C652.078491,403.688873 647.825317,404.830261 638.425964,403.514801 
	C638.425964,376.849091 638.425964,350.147552 638.425964,323.165924 
	C641.634338,323.165924 644.612671,322.920532 647.536011,323.217194 
	C653.550171,323.827515 656.387512,326.519135 657.271484,332.627869 
	C657.816223,336.392242 657.961731,340.240753 657.968140,344.052032 
	C657.992798,358.697723 657.994629,373.345428 657.754761,387.988251 
	C657.698730,391.412354 656.661133,394.820435 655.919800,398.601135 
z"/>
<path fill="#036A9E" opacity="1.000000" stroke="none" 
	d="
M994.897095,508.551819 
	C995.265015,511.759827 995.778381,514.566528 995.791138,517.375427 
	C995.867615,534.206238 995.863953,551.037781 995.792786,567.868652 
	C995.781616,570.511292 995.521667,573.201538 994.970642,575.783081 
	C993.840515,581.078064 990.505981,583.649414 985.051208,583.825623 
	C979.393738,584.008362 975.715515,581.479370 974.436096,576.057739 
	C973.792969,573.332642 973.563416,570.455383 973.550415,567.645081 
	C973.472473,550.814270 973.500854,533.982849 973.527527,517.151672 
	C973.530457,515.324890 973.674377,513.489685 973.883728,511.673431 
	C974.602783,505.436127 976.937256,502.560730 981.877563,501.704926 
	C988.477966,500.561554 991.885254,502.259857 994.897095,508.551819 
z"/>
<path fill="#036A9E" opacity="1.000000" stroke="none" 
	d="
M952.491516,348.001007 
	C952.491455,361.824951 952.525146,375.149200 952.462891,388.473022 
	C952.450500,391.124268 952.324890,393.824615 951.807434,396.413544 
	C950.734253,401.782532 946.992371,404.651123 941.520386,404.689545 
	C935.961609,404.728577 932.243286,401.992950 931.098389,396.629852 
	C930.512085,393.883911 930.222046,391.024719 930.208557,388.214722 
	C930.128784,371.559967 930.148621,354.904602 930.194641,338.249603 
	C930.200623,336.099915 930.413391,333.928009 930.768372,331.806213 
	C931.931458,324.855591 935.233459,322.021942 941.790894,322.174347 
	C948.102417,322.321075 951.368469,325.195496 952.047180,332.043671 
	C952.554382,337.160553 952.368713,342.346161 952.491516,348.001007 
z"/>
<path fill="#036A9E" opacity="1.000000" stroke="none" 
	d="
M869.889771,322.910400 
	C875.858459,323.787262 878.922546,327.289093 879.595764,332.575806 
	C880.095459,336.499359 880.212646,340.594879 879.673218,344.499542 
	C878.782959,350.942993 874.767944,354.382446 868.183350,354.974762 
	C865.398987,355.225189 862.573303,355.016510 859.469055,355.016510 
	C859.469055,344.215790 859.469055,333.653748 859.469055,322.851318 
	C862.921143,322.851318 866.202332,322.851318 869.889771,322.910400 
z"/>
<path fill="#1071A3" opacity="1.000000" stroke="none" 
	d="
M630.124146,162.362305 
	C632.213257,175.154572 634.256409,187.576416 636.345825,200.279236 
	C631.276855,200.279236 626.857300,200.279236 622.011047,200.279236 
	C624.280945,186.428436 626.496765,172.907684 628.712585,159.386932 
	C629.031067,159.399399 629.349609,159.411880 629.668091,159.424362 
	C629.804810,160.280212 629.941467,161.136063 630.124146,162.362305 
z"/>
<path fill="#1071A3" opacity="1.000000" stroke="none" 
	d="
M501.090332,369.144775 
	C502.844025,358.543945 504.550415,348.380249 506.256805,338.216522 
	C506.512878,338.176270 506.768951,338.136047 507.025024,338.095795 
	C509.282715,351.807068 511.540375,365.518372 513.855469,379.578217 
	C509.013519,379.578217 504.597687,379.578217 499.684509,379.578217 
	C500.160278,376.077332 500.601654,372.829620 501.090332,369.144775 
z"/>
<path fill="#02699E" opacity="1.000000" stroke="none" 
	d="
M520.125916,157.193878 
	C520.171448,173.951141 517.399414,176.540634 500.250122,175.846237 
	C500.250122,165.365372 500.250122,154.859589 500.250122,144.359390 
	C514.925842,142.152328 519.418945,144.963928 520.125916,157.193878 
z"/>
</svg>