<svg version="1.1" id="Layer_1" xmlns="http://www.w3.org/2000/svg" xmlns:xlink="http://www.w3.org/1999/xlink" x="0px" y="0px"
	 width="100%" viewBox="0 0 1500 1500" enable-background="new 0 0 1500 1500" xml:space="preserve">
<path fill="#DD1367" opacity="1.000000" stroke="none" 
	d="
M1.000000,557.000000 
	C1.000000,372.833374 1.013327,189.166718 0.906314,5.500153 
	C0.904129,1.751060 1.750622,0.906395 5.499918,0.907133 
	C502.499817,1.004945 999.499695,1.004939 1496.499634,0.907218 
	C1500.247803,0.906481 1501.093628,1.749690 1501.092896,5.499650 
	C1500.995117,502.499542 1500.995117,999.499451 1501.092773,1496.499390 
	C1501.093506,1500.246948 1500.251099,1501.093628 1496.500610,1501.092896 
	C999.500732,1500.994995 502.500793,1500.994995 5.500922,1501.092651 
	C1.754017,1501.093384 0.905476,1500.252197 0.906689,1496.500854 
	C1.007867,1183.500610 1.000000,870.500305 1.000000,557.000000 
z"/>
<path fill="#FFFEFE" opacity="1.000000" stroke="none" 
	d="
M247.378998,135.330688 
	C272.507294,122.856842 298.202820,122.240654 323.735291,131.495941 
	C347.208588,140.004791 358.412140,159.361572 363.855652,182.601349 
	C365.760406,190.733276 366.486481,199.041077 366.492523,207.385422 
	C366.524719,251.873154 366.557129,296.361023 366.479584,340.848633 
	C366.454041,355.489594 363.961548,369.694580 357.359039,382.912628 
	C344.222717,409.211365 322.039276,420.695770 293.479279,421.493225 
	C279.699951,421.877991 266.140869,420.500122 253.506363,414.565826 
	C231.117355,404.049927 219.919922,385.178253 215.068848,361.832031 
	C213.508118,354.320953 212.960205,346.687256 212.970047,338.993073 
	C213.026245,295.005249 212.951385,251.017227 213.024506,207.029449 
	C213.047363,193.269531 215.211731,179.849594 220.556290,167.068832 
	C226.105057,153.799774 234.526550,142.927460 247.378998,135.330688 
z"/>
<path fill="#FFFEFF" opacity="1.000000" stroke="none" 
	d="
M868.999878,1076.167847 
	C785.202759,1076.167847 701.905701,1076.168091 618.608582,1076.167603 
	C610.501709,1076.167603 610.497192,1076.165771 610.496521,1068.302124 
	C610.494324,1042.979736 610.487915,1017.657471 610.501526,992.335144 
	C610.504883,986.118713 610.781006,985.838013 616.978943,985.837524 
	C707.106384,985.829651 797.233887,985.829651 887.361328,985.837769 
	C893.406189,985.838318 893.828552,986.274292 893.831787,992.451355 
	C893.845093,1018.273499 893.751709,1044.096069 893.913757,1069.917236 
	C893.943909,1074.725708 892.271057,1076.484497 887.488342,1076.240967 
	C881.506470,1075.936279 875.497253,1076.167725 868.999878,1076.167847 
z"/>
<path fill="#FFFEFF" opacity="1.000000" stroke="none" 
	d="
M610.495728,821.063843 
	C610.616150,806.757019 609.081543,808.869751 622.091187,808.861450 
	C710.053528,808.804993 798.015808,808.831787 885.978149,808.832397 
	C893.832153,808.832458 893.836243,808.834900 893.836792,816.454407 
	C893.838684,841.776917 893.844299,867.099365 893.832458,892.421875 
	C893.829590,898.645935 893.479492,898.996826 887.352722,898.997192 
	C797.224670,899.002502 707.096619,899.002136 616.968567,898.998047 
	C610.733154,898.997803 610.503784,898.776611 610.500610,892.522461 
	C610.488708,868.865967 610.495728,845.209473 610.495728,821.063843 
z"/>
<path fill="#FFFDFE" opacity="1.000000" stroke="none" 
	d="
M1007.488647,871.999512 
	C1007.488831,851.843079 1007.471008,832.186646 1007.517761,812.530334 
	C1007.522278,810.647583 1006.722351,808.187622 1009.163757,807.255981 
	C1011.521545,806.356201 1012.717224,808.589417 1014.062927,809.933777 
	C1056.723755,852.552673 1099.334229,895.222046 1142.048462,937.787170 
	C1145.395874,941.122864 1145.528320,943.441895 1142.111938,946.845764 
	C1099.394287,989.407532 1056.787109,1032.080200 1014.120544,1074.693359 
	C1012.786804,1076.025513 1011.666199,1078.404907 1009.320129,1077.577759 
	C1006.609314,1076.622070 1007.520142,1073.929932 1007.519043,1071.896484 
	C1007.482300,1005.430847 1007.488708,938.965210 1007.488647,871.999512 
z"/>
<path fill="#FFFEFE" opacity="1.000000" stroke="none" 
	d="
M478.574158,821.574036 
	C483.067047,817.084595 487.310883,812.846130 491.552032,808.604919 
	C492.506134,807.650879 493.468475,806.586304 494.990997,807.232239 
	C496.379578,807.821289 496.793701,809.090820 496.820190,810.502136 
	C496.842102,811.668030 496.837860,812.834534 496.837860,814.000732 
	C496.838562,899.638611 496.838501,985.276550 496.837982,1070.914429 
	C496.837982,1072.080688 496.824707,1073.246948 496.828522,1074.413208 
	C496.833252,1075.860596 496.365112,1077.062256 494.930420,1077.605835 
	C493.626434,1078.099731 492.715759,1077.273560 491.858948,1076.458862 
	C491.134766,1075.770264 490.439819,1075.050903 489.733032,1074.344116 
	C447.438782,1032.049561 405.144043,989.755676 362.851471,947.459534 
	C358.193451,942.801270 358.181854,941.970642 362.754150,937.397766 
	C401.275330,898.871033 439.800293,860.348083 478.574158,821.574036 
z"/>
<path fill="#FFFEFF" opacity="1.000000" stroke="none" 
	d="
M780.000000,687.000854 
	C727.679932,687.000854 675.859924,687.000854 624.039856,687.000732 
	C622.873474,687.000732 621.706848,686.983948 620.540771,687.002014 
	C619.179260,687.023071 617.701233,687.058594 617.085449,685.602539 
	C616.407715,684.000122 617.288757,682.736267 618.484253,681.667114 
	C619.104004,681.112915 619.659241,680.486877 620.248169,679.897888 
	C662.427856,637.717896 704.606934,595.537170 746.789490,553.360046 
	C751.801025,548.349121 752.523071,548.363525 757.598694,553.439514 
	C799.659851,595.502441 841.721069,637.565247 883.781738,679.628662 
	C884.723938,680.570862 885.893555,681.382324 886.548218,682.495300 
	C887.901550,684.796021 887.782837,686.722473 884.476990,686.974304 
	C883.317078,687.062622 882.145386,687.000244 880.979065,687.000244 
	C847.486023,687.000977 813.993042,687.000854 780.000000,687.000854 
z"/>
<path fill="#FFFFFF" opacity="1.000000" stroke="none" 
	d="
M797.924072,1290.924072 
	C784.130432,1304.718628 770.590515,1318.266968 757.040955,1331.805542 
	C752.474976,1336.367798 751.792297,1336.383789 747.395630,1331.987793 
	C704.876648,1289.473877 662.359253,1246.958252 619.863647,1204.421021 
	C618.419434,1202.975342 615.911621,1201.715698 617.211243,1199.128418 
	C618.332947,1196.895264 620.795593,1197.873535 622.660889,1197.872559 
	C708.938354,1197.827637 795.215881,1197.825439 881.493286,1197.884277 
	C883.441711,1197.885498 886.174500,1196.690918 887.121033,1199.576538 
	C887.980469,1202.196411 885.442139,1203.345703 884.004639,1204.786865 
	C855.420349,1233.441772 826.792786,1262.053467 797.924072,1290.924072 
z"/>
<path fill="#FFFEFE" opacity="1.000000" stroke="none" 
	d="
M170.986694,416.505768 
	C158.830124,416.505737 147.165039,416.296692 135.514038,416.610962 
	C130.998566,416.732758 129.711456,415.544556 129.721481,410.894287 
	C129.877853,338.439392 129.830887,265.984039 129.830887,193.528809 
	C129.830887,191.535751 129.830887,189.542694 129.830887,187.049103 
	C115.872520,192.053864 102.239555,196.941956 88.163544,201.988907 
	C88.163544,188.842499 88.263206,176.363434 88.091011,163.888107 
	C88.049767,160.900040 89.911743,160.457764 91.897247,159.566330 
	C107.542564,152.542114 123.089035,145.228073 136.399948,134.231003 
	C140.694504,130.682968 144.823776,129.196945 150.271851,129.393890 
	C160.086288,129.748688 169.927368,129.668549 179.747742,129.408569 
	C183.676956,129.304550 185.118530,130.053543 185.111588,134.471466 
	C184.966003,226.914124 184.980301,319.357117 185.081223,411.799866 
	C185.085175,415.422455 184.357361,416.996674 180.471039,416.569855 
	C177.508698,416.244476 174.481918,416.505585 170.986694,416.505768 
z"/>
<path fill="#FEFCFD" opacity="1.000000" stroke="none" 
	d="
M690.091431,439.867798 
	C681.999817,435.792480 676.572449,429.262634 671.365356,422.533691 
	C670.205688,421.035004 669.285339,419.820831 667.067261,419.796356 
	C648.861084,419.595581 636.702515,412.754639 635.713257,387.447601 
	C635.050415,370.491608 635.184875,353.457916 635.951599,336.503723 
	C637.024048,312.789612 651.325989,305.891205 671.370178,307.381958 
	C688.572144,308.661285 696.853149,316.691345 698.362915,335.478424 
	C699.907410,354.697693 699.857849,374.085541 698.151428,393.356171 
	C697.289978,403.083862 693.201050,411.263885 684.208923,416.384277 
	C686.224060,419.204559 688.259277,421.876862 690.995728,423.745300 
	C693.989685,425.789551 694.541748,428.065918 693.164124,431.336334 
	C692.013550,434.067749 691.349915,437.004242 690.091431,439.867798 
z"/>
<path fill="#FEF9FB" opacity="1.000000" stroke="none" 
	d="
M517.944458,226.231827 
	C514.978149,214.910339 511.770782,204.059174 509.336273,193.037292 
	C508.256714,188.149704 505.177155,189.215302 502.215851,189.233826 
	C498.428345,189.257523 499.937622,192.301544 499.921509,194.051849 
	C499.795837,207.701904 499.762085,221.354675 499.918610,235.004105 
	C499.954773,238.157394 499.220062,239.475128 495.835785,239.247940 
	C491.692505,238.969803 487.506470,239.006012 483.357697,239.239792 
	C480.311920,239.411438 479.331482,238.448761 479.404724,235.334061 
	C479.608124,226.681976 479.474091,218.021988 479.474030,209.365112 
	C479.473877,184.726334 479.461853,160.087540 479.481445,135.448776 
	C479.487396,127.979538 479.134796,129.136475 485.994720,129.178635 
	C495.305206,129.235825 504.616821,128.820572 513.923950,129.819962 
	C531.753052,131.734421 540.577576,141.523666 539.755981,159.405533 
	C539.307861,169.156738 538.264099,178.889236 528.225647,184.338821 
	C525.842468,185.632568 527.203064,187.487671 527.664185,189.140289 
	C531.905212,204.340851 536.063660,219.565979 540.503784,234.708374 
	C541.554443,238.291306 540.991455,239.679977 537.167603,239.197327 
	C536.348267,239.093903 535.504578,239.194641 534.672424,239.180847 
	C530.351074,239.109222 525.106445,240.507919 521.965759,238.544037 
	C518.757812,236.538101 519.403870,230.693481 517.944458,226.231827 
z"/>
<path fill="#FEFBFC" opacity="1.000000" stroke="none" 
	d="
M605.178162,131.429291 
	C605.383423,129.051086 606.830994,129.148926 608.160339,129.167267 
	C619.476257,129.323273 630.818298,128.562241 642.096863,130.063431 
	C655.643921,131.866562 663.857300,139.908401 664.978394,153.667633 
	C666.589050,173.435379 666.573364,193.275635 665.011597,213.043304 
	C663.736633,229.181381 654.332947,238.073181 638.100891,238.899216 
	C628.294983,239.398239 618.444519,238.959625 608.622986,239.245636 
	C604.465820,239.366684 605.154602,236.788849 605.154663,234.357971 
	C605.155273,200.202667 605.158325,166.047348 605.178162,131.429291 
z"/>
<path fill="#FFFDFD" opacity="1.000000" stroke="none" 
	d="
M890.994202,129.157394 
	C898.161987,128.990784 904.838379,129.142593 911.397461,130.356506 
	C923.924988,132.675018 931.209717,139.243866 932.465515,152.259399 
	C934.495544,173.300583 934.819885,194.547363 932.269165,215.555115 
	C930.461914,230.440613 921.739380,237.798615 906.757385,238.790237 
	C896.473938,239.470856 886.117676,238.991089 875.798157,239.219620 
	C872.518738,239.292236 872.994324,237.270782 872.994507,235.299179 
	C872.996216,217.978119 872.995239,200.657074 872.995239,183.336014 
	C872.995239,166.681152 873.069214,150.025665 872.929993,133.371964 
	C872.903687,130.231323 873.566895,128.864243 877.010315,129.087097 
	C881.488403,129.376923 885.999390,129.157593 890.994202,129.157394 
z"/>
<path fill="#FEFBFC" opacity="1.000000" stroke="none" 
	d="
M552.190186,366.547485 
	C555.394592,366.878967 553.713806,364.523743 553.722107,363.525116 
	C553.860901,346.874237 553.961975,330.219879 553.723145,313.571259 
	C553.662781,309.358917 554.912720,308.293152 559.029541,308.376404 
	C570.516846,308.608612 570.520813,308.415344 570.520752,319.822083 
	C570.520752,350.961365 570.458618,382.100922 570.600220,413.239563 
	C570.617615,417.071808 569.701599,418.405640 565.660645,418.280212 
	C557.075623,418.013855 557.075989,418.241638 553.711243,410.159119 
	C546.879517,393.748474 540.052368,377.335938 533.178284,360.943024 
	C532.571716,359.496399 532.455505,357.718536 530.178955,356.296844 
	C530.178955,358.150146 530.179016,359.528168 530.179016,360.906189 
	C530.178833,378.557343 530.079102,396.209503 530.261719,413.858765 
	C530.298523,417.420929 529.225464,418.275574 525.780823,418.263458 
	C512.991394,418.218475 512.990967,418.346741 512.990967,405.808533 
	C512.990967,375.002289 513.061340,344.195679 512.902405,313.390259 
	C512.882446,309.515381 513.837891,308.284973 517.815735,308.382294 
	C527.017578,308.607422 527.044189,308.389435 530.690125,316.811737 
	C537.817261,333.275635 544.917908,349.751068 552.190186,366.547485 
z"/>
<path fill="#FEF9FB" opacity="1.000000" stroke="none" 
	d="
M770.853516,316.131836 
	C770.853516,338.773834 770.906982,360.935333 770.807312,383.096161 
	C770.787964,387.409668 770.470093,391.768616 769.780823,396.024139 
	C767.075317,412.729095 755.875854,421.016327 737.942200,419.826355 
	C718.090820,418.509216 709.310913,408.654419 709.038940,386.727173 
	C708.805359,367.901306 708.988220,349.070282 708.987183,330.241516 
	C708.986816,324.576233 709.283630,318.890198 708.888977,313.252533 
	C708.596863,309.078827 710.216370,308.055817 713.961365,308.421753 
	C716.602173,308.679810 719.288513,308.470276 721.954529,308.471619 
	C728.522644,308.474976 728.527100,308.475464 728.527710,314.815979 
	C728.529846,337.477142 728.500366,360.138367 728.552917,382.799408 
	C728.563293,387.285736 728.610840,391.797699 729.825073,396.183350 
	C731.356018,401.713135 734.892456,404.535156 740.172485,404.438873 
	C745.205261,404.347107 748.559448,401.479034 749.999512,396.129425 
	C751.140259,391.891602 751.136780,387.560730 751.139465,383.232635 
	C751.154297,359.904968 751.224243,336.576782 751.065430,313.250183 
	C751.040833,309.627960 751.826599,307.991943 755.708374,308.417023 
	C758.342773,308.705475 761.034363,308.470917 763.700378,308.471497 
	C770.850037,308.473083 770.850037,308.473389 770.853516,316.131836 
z"/>
<path fill="#FEFAFC" opacity="1.000000" stroke="none" 
	d="
M695.521851,157.000336 
	C695.521851,173.831802 695.516724,190.163254 695.525940,206.494705 
	C695.528015,210.162506 695.663574,213.819672 696.739563,217.371719 
	C698.397095,222.843491 701.433777,225.179367 706.870728,225.147354 
	C712.147583,225.116287 715.380554,222.564362 716.793640,217.095627 
	C717.755310,213.373917 718.020813,209.564636 718.013428,205.708649 
	C717.967529,181.711502 718.082825,157.713516 717.896118,133.717728 
	C717.866272,129.883606 718.981018,128.688065 722.660461,129.111252 
	C727.560303,129.674774 733.943726,127.017052 737.031372,130.255417 
	C739.860474,133.222565 737.852966,139.480026 737.806641,144.276016 
	C737.587891,166.926819 738.742004,189.602707 737.107178,212.225204 
	C735.292419,237.337067 708.268433,250.057373 687.359985,235.711411 
	C678.468201,229.610489 676.309570,219.995987 676.119019,210.199188 
	C675.675293,187.378387 675.868164,164.545044 675.824646,141.716736 
	C675.800659,129.149246 675.820618,129.100388 688.541992,129.169357 
	C696.130066,129.210510 695.466980,127.869370 695.513733,136.002930 
	C695.553040,142.835190 695.521851,149.667847 695.521851,157.000336 
z"/>
<path fill="#FEFAFC" opacity="1.000000" stroke="none" 
	d="
M747.478149,177.011383 
	C747.597839,170.687073 747.548523,164.850967 747.867004,159.034988 
	C749.111145,136.313980 760.359497,125.683258 785.338013,128.494720 
	C799.604858,130.100510 806.392151,137.712509 808.183350,151.964310 
	C808.746582,156.445328 808.653992,160.939743 808.931824,165.419266 
	C809.149109,168.923325 807.709290,169.713562 804.612671,169.564484 
	C800.788696,169.380371 796.942078,169.377274 793.118591,169.566010 
	C790.162537,169.711945 788.911987,168.825974 789.086182,165.651505 
	C789.304688,161.668625 789.141296,157.655106 788.966980,153.662491 
	C788.655945,146.537643 785.771545,143.310745 779.669922,143.025650 
	C773.300598,142.728043 769.790588,145.723145 768.656494,152.688828 
	C768.230530,155.305450 768.047546,157.988129 768.037964,160.641708 
	C767.981995,176.139465 767.954834,191.637878 768.054688,207.135193 
	C768.075989,210.445816 768.420837,213.798645 769.039734,217.051529 
	C770.184021,223.066208 773.708984,225.725647 779.553772,225.416443 
	C784.944702,225.131241 788.314514,222.039536 788.809814,216.196899 
	C789.230957,211.228653 789.195190,206.207809 789.099365,201.215256 
	C789.048950,198.588989 789.958862,197.689423 792.548035,197.781540 
	C796.875366,197.935486 801.213440,197.887817 805.544312,197.797546 
	C807.724609,197.752106 808.905701,198.227463 808.896057,200.805328 
	C808.869202,207.980408 808.856201,215.160934 806.906738,222.120331 
	C803.939209,232.713745 796.801147,238.611160 785.936768,240.034698 
	C784.123535,240.272263 782.293518,240.447250 780.466675,240.504272 
	C760.158081,241.138214 748.795227,230.796631 747.942627,210.483582 
	C747.481750,199.504852 747.613708,188.501221 747.478149,177.011383 
z"/>
<path fill="#FEFCFD" opacity="1.000000" stroke="none" 
	d="
M796.908142,319.787506 
	C799.039429,308.483307 799.039429,308.483307 810.039734,308.483307 
	C820.148621,308.483307 820.172668,308.478394 822.244141,318.625092 
	C828.731445,350.401733 835.163879,382.189606 841.726624,413.950623 
	C842.405334,417.235046 841.757996,418.224854 838.247925,418.258301 
	C823.393555,418.399933 823.394592,418.512360 821.082703,404.041809 
	C819.319641,393.006927 819.319641,393.006927 808.395020,393.007050 
	C800.323425,393.007141 800.328918,393.008026 799.043335,400.948364 
	C798.804016,402.426056 798.537415,403.901337 798.219604,405.363922 
	C797.313171,409.536224 798.353699,416.045319 795.235779,417.375824 
	C790.563965,419.369324 784.483643,418.136078 779.002441,418.130493 
	C775.824951,418.127289 777.399536,415.925751 777.669312,414.582489 
	C781.927246,393.381683 786.230164,372.189880 790.538086,350.999115 
	C792.625549,340.731415 794.744751,330.470184 796.908142,319.787506 
z"/>
<path fill="#FEFBFC" opacity="1.000000" stroke="none" 
	d="
M1097.267334,418.932922 
	C1083.062988,414.648193 1074.463623,402.503479 1075.110229,388.404755 
	C1075.199219,386.465454 1076.052246,385.753265 1077.673584,385.417572 
	C1081.580811,384.608490 1085.510010,383.891815 1089.388550,382.962738 
	C1091.976807,382.342773 1093.079102,383.050293 1093.036743,385.810028 
	C1092.982422,389.336029 1093.799561,392.763550 1095.032227,396.045593 
	C1097.371948,402.274872 1102.324829,405.222961 1107.758301,403.778290 
	C1112.365112,402.553436 1114.787842,397.484344 1113.775635,391.037750 
	C1112.916382,385.566254 1110.329102,380.982758 1106.231201,377.311310 
	C1100.030640,371.756195 1093.783325,366.251923 1087.484619,360.808411 
	C1078.079102,352.679626 1074.033325,342.549683 1075.449463,330.139526 
	C1077.537964,311.837830 1092.871704,305.935822 1107.725586,307.378418 
	C1122.583374,308.821350 1129.368408,318.162415 1131.084595,334.438995 
	C1131.318604,336.657410 1130.302734,337.467865 1128.414551,337.773895 
	C1127.592529,337.907135 1126.761475,337.987457 1125.942383,338.135651 
	C1122.344604,338.786682 1118.251221,340.820496 1115.290283,339.740570 
	C1112.166382,338.601196 1113.821045,333.597229 1112.802002,330.394379 
	C1110.888062,324.379028 1107.410400,321.799042 1101.824219,322.759521 
	C1096.671265,323.645508 1094.083008,327.301575 1094.163208,333.312592 
	C1094.238037,338.928558 1097.053467,343.123535 1100.995728,346.681915 
	C1106.311768,351.480194 1111.804932,356.082062 1117.126343,360.874573 
	C1126.459717,369.280426 1133.253662,378.957825 1133.209229,392.264465 
	C1133.150391,409.847961 1120.117676,421.622009 1102.636841,419.632233 
	C1100.981934,419.443817 1099.332764,419.205505 1097.267334,418.932922 
z"/>
<path fill="#FEFBFC" opacity="1.000000" stroke="none" 
	d="
M582.991943,374.000000 
	C582.991943,353.506195 583.135803,333.510559 582.878601,313.520081 
	C582.822815,309.182495 584.173218,308.306091 588.194458,308.389069 
	C600.518738,308.643341 612.852234,308.552917 625.180603,308.430511 
	C628.085693,308.401703 629.220215,309.090729 629.261658,312.285187 
	C629.398926,322.848846 629.539612,322.846985 618.956238,322.847046 
	C615.124084,322.847076 611.283447,323.004974 607.462524,322.797913 
	C604.390259,322.631409 602.978455,323.331451 603.096619,326.851807 
	C603.359192,334.673889 603.283325,342.513000 603.122925,350.340607 
	C603.065735,353.131073 603.860291,354.181000 606.758057,354.048584 
	C611.413513,353.835876 616.088928,354.094391 620.749817,353.953064 
	C623.157288,353.880066 623.779358,354.785492 623.905273,357.121033 
	C624.520020,368.522858 624.594727,368.518829 613.417297,368.518860 
	C603.177612,368.518890 603.177612,368.518890 603.177612,378.667267 
	C603.177673,385.498474 603.379333,392.337982 603.098389,399.157623 
	C602.942139,402.947296 603.833130,404.504181 607.975159,404.247559 
	C613.950378,403.877350 619.967651,404.246185 625.962769,404.110138 
	C628.455933,404.053528 629.422852,404.751648 629.579773,407.423553 
	C630.211365,418.183350 630.308044,418.177704 619.471497,418.177673 
	C608.974731,418.177643 598.470459,417.946289 587.984924,418.288849 
	C583.655090,418.430298 582.811707,417.009033 582.894348,412.986023 
	C583.157715,400.162109 582.991943,387.329346 582.991943,374.000000 
z"/>
<path fill="#FEFBFC" opacity="1.000000" stroke="none" 
	d="
M1055.013916,404.152985 
	C1057.842529,404.152985 1060.174561,404.152863 1062.506592,404.152985 
	C1070.180176,404.153320 1069.853760,404.172211 1070.291382,411.756165 
	C1070.586426,416.868866 1069.208984,418.511536 1063.871826,418.315460 
	C1051.894653,417.875427 1039.888428,418.061401 1027.898193,418.251923 
	C1024.572388,418.304779 1023.747742,417.241180 1023.757751,414.032318 
	C1023.863281,380.218231 1023.872925,346.403534 1023.746155,312.589569 
	C1023.733459,309.193695 1024.854980,308.387909 1028.015625,308.423950 
	C1040.507080,308.566406 1053.002808,308.601135 1065.492798,308.406891 
	C1069.045776,308.351654 1069.960205,309.519379 1069.928223,312.954834 
	C1069.835815,322.845612 1069.984741,322.846771 1059.930786,322.847076 
	C1055.766479,322.847198 1051.597778,322.962860 1047.439331,322.806183 
	C1044.953857,322.712555 1043.895142,323.344849 1043.950806,326.094788 
	C1044.115967,334.253571 1044.144897,342.421204 1043.939453,350.578125 
	C1043.862549,353.636810 1045.109619,354.145355 1047.736694,354.039032 
	C1052.060547,353.864075 1056.410156,354.203247 1060.722900,353.923157 
	C1063.960815,353.712921 1064.548828,355.023376 1064.584473,357.935791 
	C1064.714355,368.520111 1064.817017,368.518860 1054.258545,368.518860 
	C1044.008057,368.518860 1044.007935,368.518860 1044.008057,379.002167 
	C1044.008057,385.998260 1044.155151,392.998810 1043.942139,399.988403 
	C1043.845947,403.146973 1044.624390,404.605194 1048.026611,404.199677 
	C1050.161743,403.945221 1052.351929,404.152771 1055.013916,404.152985 
z"/>
<path fill="#FFFDFD" opacity="1.000000" stroke="none" 
	d="
M550.995239,180.000000 
	C550.995239,164.179977 551.098694,148.858749 550.916748,133.540878 
	C550.875549,130.070648 551.802185,129.015610 555.336975,129.075455 
	C567.822510,129.286911 580.315918,129.282150 592.801758,129.078476 
	C596.331604,129.020889 597.277039,130.111160 597.255432,133.567276 
	C597.191101,143.841675 597.339172,143.842407 587.179504,143.842697 
	C583.016479,143.842804 578.845215,144.003403 574.693115,143.791000 
	C571.707764,143.638275 571.079468,144.919571 571.125610,147.606659 
	C571.262634,155.597366 571.260803,163.593369 571.126038,171.584137 
	C571.082764,174.147293 571.807312,175.149384 574.489075,175.044281 
	C579.144470,174.861877 583.816772,175.117996 588.473145,174.948837 
	C591.078857,174.854187 591.821411,175.737473 591.910156,178.348358 
	C592.278259,189.176575 592.374878,189.173294 581.397034,189.173279 
	C571.173218,189.173264 571.173157,189.173264 571.173279,199.253738 
	C571.173401,206.580704 571.305298,213.911163 571.110962,221.232956 
	C571.030396,224.267548 571.937134,225.319809 575.032410,225.218445 
	C581.353455,225.011429 587.688232,225.253983 594.012878,225.111786 
	C596.563965,225.054428 597.425781,225.865982 597.570435,228.479050 
	C598.162476,239.178284 598.253296,239.173264 587.420044,239.173264 
	C577.095703,239.173264 566.759155,238.878464 556.452271,239.302734 
	C551.601624,239.502411 550.847961,237.747467 550.902161,233.452835 
	C551.124878,215.804306 550.995239,198.151337 550.995239,180.000000 
z"/>
<path fill="#FFFDFE" opacity="1.000000" stroke="none" 
	d="
M818.827332,221.998779 
	C818.827393,192.332352 818.909058,163.165314 818.732971,133.999817 
	C818.708557,129.972687 819.909241,128.993790 823.774902,129.069870 
	C835.936829,129.309219 848.108582,129.284531 860.271729,129.079346 
	C863.825623,129.019394 865.193176,129.704468 865.112488,133.657303 
	C864.904541,143.837677 865.119446,143.842087 854.962891,143.842117 
	C851.296265,143.842117 847.611938,144.066483 843.967834,143.779800 
	C840.248291,143.487183 838.676697,144.387589 838.899414,148.567505 
	C839.280090,155.713867 839.191772,162.902115 838.927246,170.058975 
	C838.790161,173.766281 839.536316,175.508621 843.720581,175.082214 
	C847.679443,174.678757 851.726807,175.209946 855.706909,174.928833 
	C858.935791,174.700775 859.545288,176.004868 859.578125,178.931717 
	C859.693420,189.173965 859.801208,189.172760 849.451843,189.172760 
	C839.004395,189.172760 839.004395,189.172760 839.004395,199.454361 
	C839.004395,206.287674 839.246887,213.132858 838.912537,219.949783 
	C838.715637,223.963974 839.618286,225.567947 843.986267,225.259140 
	C849.790527,224.848831 855.649475,225.281693 861.477478,225.106140 
	C864.265198,225.022141 865.168945,225.876282 865.245422,228.748810 
	C865.523132,239.175781 865.637024,239.172775 855.374634,239.172729 
	C844.708008,239.172668 834.036499,238.987991 823.377319,239.269943 
	C819.515625,239.372116 818.472534,238.150208 818.757263,234.493271 
	C819.066833,230.517349 818.827393,226.498688 818.827332,221.998779 
z"/>
<path fill="#FEFBFC" opacity="1.000000" stroke="none" 
	d="
M967.177246,351.000122 
	C967.177246,371.810333 966.985840,392.123657 967.312866,412.428589 
	C967.393738,417.450134 965.864258,418.785919 961.204224,418.250305 
	C957.918152,417.872559 954.528564,417.922119 951.230652,418.244781 
	C947.549133,418.605011 946.903870,417.091705 946.918945,413.736145 
	C947.047180,385.269135 946.904602,356.800690 947.091064,328.334320 
	C947.117554,324.291473 945.861084,322.963867 942.070312,323.498108 
	C941.090942,323.636108 940.070129,323.585602 939.077637,323.506012 
	C935.795837,323.242767 931.089722,325.055267 929.548950,322.702850 
	C927.408813,319.435303 928.985168,314.635406 928.865112,310.494598 
	C928.808472,308.542267 930.229004,308.500427 931.609802,308.499786 
	C948.423950,308.491882 965.238098,308.482880 982.052185,308.509277 
	C983.124939,308.510956 984.778992,308.156311 984.846375,309.773804 
	C985.019287,313.922058 985.020142,318.087433 984.842773,322.235352 
	C984.773804,323.850433 983.116150,323.472443 982.042297,323.489349 
	C978.214233,323.549622 974.381470,323.620148 970.556946,323.492126 
	C967.939392,323.404480 967.099670,324.472687 967.137756,327.027496 
	C967.254333,334.850128 967.178284,342.675690 967.177246,351.000122 
z"/>
<path fill="#FEF7FA" opacity="1.000000" stroke="none" 
	d="
M877.057312,404.140869 
	C882.717834,404.142303 887.885010,404.204712 893.049561,404.115173 
	C895.103455,404.079590 896.277344,404.643402 896.015259,406.908783 
	C895.996216,407.073151 896.006897,407.242157 896.016174,407.408356 
	C896.617676,418.190277 896.617676,418.190460 885.655640,418.190216 
	C874.823425,418.189941 863.990479,418.120300 853.159546,418.237122 
	C850.453003,418.266357 849.398682,417.581146 849.406555,414.645508 
	C849.498230,380.482605 849.490051,346.319336 849.419922,312.156342 
	C849.414124,309.319916 850.382019,308.255402 853.192139,308.436768 
	C858.488892,308.778595 865.174866,306.350372 868.720703,309.360748 
	C872.137024,312.261261 869.776978,319.061584 869.802856,324.130646 
	C869.927856,348.627502 869.826416,373.125366 869.878662,397.622742 
	C869.894836,405.200287 868.837891,403.997803 877.057312,404.140869 
z"/>
<path fill="#FEF8FB" opacity="1.000000" stroke="none" 
	d="
M990.813782,389.998993 
	C990.813843,364.023804 990.892822,338.548157 990.727234,313.074066 
	C990.702942,309.334625 991.679260,308.038696 995.445862,308.398834 
	C998.910767,308.730103 1002.454956,308.718292 1005.922913,308.403320 
	C1009.830261,308.048370 1010.635437,309.683044 1010.604736,313.280609 
	C1010.445801,331.927704 1010.531128,350.576935 1010.531128,369.225403 
	C1010.531128,384.044281 1010.441223,398.864105 1010.599854,413.681305 
	C1010.635193,416.984436 1010.003296,418.583649 1006.299805,418.241913 
	C1001.359741,417.786102 994.906067,420.222076 991.818848,417.356354 
	C988.676331,414.439240 991.047363,407.920685 990.848267,402.985443 
	C990.680664,398.829620 990.813782,394.661621 990.813782,389.998993 
z"/>
<path fill="#FEFBFC" opacity="1.000000" stroke="none" 
	d="
M923.177246,360.000122 
	C923.177185,378.152252 923.084473,395.805267 923.254883,413.455750 
	C923.289124,417.007080 922.635071,418.640045 918.673767,418.256195 
	C914.879211,417.888489 910.997314,417.909973 907.197388,418.249084 
	C903.160889,418.609283 903.103821,416.436371 903.110901,413.432007 
	C903.181335,383.623383 903.153320,353.814545 903.153320,324.005768 
	C903.153320,320.009064 903.329590,316.002167 903.097839,312.018951 
	C902.920532,308.971222 904.330505,308.367188 906.946899,308.449280 
	C911.106018,308.579742 915.284607,308.681793 919.431580,308.422150 
	C922.722961,308.216003 923.251709,309.664642 923.230774,312.539154 
	C923.117065,328.192108 923.177063,343.846313 923.177246,360.000122 
z"/>
<path fill="#FFFEFE" opacity="1.000000" stroke="none" 
	d="
M500.001678,326.001648 
	C500.001678,355.448090 499.921417,384.395538 500.095978,413.341400 
	C500.119690,417.278198 499.088959,418.660828 495.161438,418.217499 
	C490.265350,417.664856 483.870087,420.272217 480.803192,417.173126 
	C477.979065,414.319427 480.040802,407.999756 480.030579,403.213226 
	C479.966736,373.268250 480.073273,343.322632 479.907043,313.378479 
	C479.885376,309.471283 480.890259,308.025635 484.837860,308.446136 
	C489.760193,308.970459 496.365784,306.382477 499.195160,309.519043 
	C501.634583,312.223328 499.895905,318.698029 499.999695,323.505859 
	C500.014069,324.170990 500.001678,324.836731 500.001678,326.001648 
z"/>
<path fill="#DD1568" opacity="1.000000" stroke="none" 
	d="
M295.819000,372.214111 
	C284.006317,374.751465 276.206055,370.638611 272.066467,359.853424 
	C269.649689,353.556671 268.874878,346.924774 268.875763,340.237244 
	C268.881714,294.907928 268.919067,249.578537 269.043762,204.249435 
	C269.060760,198.070786 270.208679,191.978455 272.124298,186.093887 
	C274.792786,177.896683 280.420288,174.072815 289.552307,174.000748 
	C298.668457,173.928818 304.150482,177.639496 307.073792,185.935165 
	C309.933105,194.049179 310.776428,202.509155 310.793884,211.013687 
	C310.880432,253.178574 310.887115,295.343842 310.785004,337.508636 
	C310.766052,345.328491 310.159515,353.140045 307.194153,360.562775 
	C305.059601,365.905853 301.805725,370.091248 295.819000,372.214111 
z"/>
<path fill="#DE186A" opacity="1.000000" stroke="none" 
	d="
M678.027588,332.325012 
	C678.811157,352.903900 678.849670,373.061066 678.062561,393.206940 
	C677.730408,401.707092 672.866333,405.571289 665.066589,404.423004 
	C660.778320,403.791687 658.131165,401.469330 657.031616,397.328461 
	C656.301208,394.577759 655.979614,391.781097 655.984192,388.925171 
	C656.011353,371.925598 655.992798,354.925964 656.005737,337.926331 
	C656.006836,336.428589 656.036255,334.921204 656.201721,333.434875 
	C657.046021,325.848480 660.062317,322.554779 666.432678,322.174438 
	C672.960754,321.784668 676.056641,324.389160 678.027588,332.325012 
z"/>
<path fill="#DE186A" opacity="1.000000" stroke="none" 
	d="
M506.553894,143.235291 
	C512.242249,143.874893 517.502563,144.681961 519.193359,150.804764 
	C521.183228,158.010635 521.977661,165.447495 517.115601,171.769043 
	C513.240173,176.807831 507.059357,176.097488 501.421570,176.079376 
	C499.729095,176.073944 499.859344,174.672592 499.857300,173.536285 
	C499.840698,164.401703 499.806854,155.266846 499.860352,146.132553 
	C499.890808,140.936874 503.948914,144.001678 506.553894,143.235291 
z"/>
<path fill="#DE1A6C" opacity="1.000000" stroke="none" 
	d="
M645.172607,191.000092 
	C645.097290,198.328491 645.207947,205.165207 644.902771,211.983307 
	C644.453552,222.019089 637.268738,227.181839 627.396179,225.024979 
	C624.434021,224.377853 625.547913,222.219955 625.540344,220.693756 
	C625.452820,203.032959 625.483459,185.371567 625.483948,167.710342 
	C625.484131,160.879120 625.571533,154.046341 625.446289,147.217453 
	C625.398743,144.626312 626.293823,143.851074 628.895264,143.764404 
	C640.896606,143.364578 644.743652,146.680908 644.982605,158.515930 
	C645.197815,169.174240 645.120728,179.838470 645.172607,191.000092 
z"/>
<path fill="#DE186A" opacity="1.000000" stroke="none" 
	d="
M913.005005,186.000000 
	C912.871521,195.636002 913.506958,204.803543 912.368042,213.898621 
	C911.280457,222.583359 903.065491,227.565796 894.736389,225.005295 
	C892.838379,224.421768 893.181213,223.108337 893.180115,221.875122 
	C893.157898,196.930389 893.184509,171.985580 893.128662,147.040955 
	C893.123535,144.742279 893.776550,143.616592 896.225891,143.814590 
	C898.377258,143.988464 900.556946,143.851913 902.700073,144.079453 
	C908.445068,144.689499 911.425964,147.283524 912.243103,153.129868 
	C913.744568,163.872009 912.758423,174.707626 913.005005,186.000000 
z"/>
<path fill="#DE1A6C" opacity="1.000000" stroke="none" 
	d="
M805.090881,364.083618 
	C806.546326,355.319519 807.945129,346.990479 809.432251,338.135590 
	C811.495239,340.950134 811.102600,344.011566 811.593994,346.720367 
	C813.397034,356.658386 814.829285,366.663116 816.552673,376.616486 
	C816.958496,378.960358 816.582275,379.753845 814.003174,379.907898 
	C802.263184,380.609161 802.269958,380.696259 804.222168,369.419678 
	C804.504578,367.788025 804.764038,366.152435 805.090881,364.083618 
z"/>
</svg>