<svg width="49" height="49" viewBox="0 0 49 49" fill="none" xmlns="http://www.w3.org/2000/svg">
  <circle cx="24.5" cy="24.5" r="23.5" stroke="white" stroke-width="2"/>
  <svg x="9.5" y="9.5" width="30" height="30" viewBox="0 0 30 30" fill="none">
    <g clip-path="url(#clip0_702_6856)">
      <path d="M15.9864 21.8215C15.518 21.8348 15.0435 21.8427 14.5618 21.8427C6.31737 21.8427 1.82022 19.8386 1.82022 18.809C1.82022 18.198 3.41655 17.2454 6.42841 16.5707C5.3472 16.2668 4.38188 15.9033 3.56278 15.4932C1.15159 16.416 0 17.635 0 18.809C0 21.1474 4.55722 23.6629 14.5618 23.6629C15.0611 23.6629 15.555 23.655 16.0404 23.6405C16.5428 23.6259 16.9384 23.206 16.9226 22.7037C16.908 22.2013 16.4894 21.7966 15.9864 21.8215Z" fill="white"/>
      <path d="M25.5608 15.4937C24.7417 15.9038 23.7769 16.2666 22.6951 16.5712C25.707 17.2453 27.3033 18.1979 27.3033 18.8089C27.3033 19.3264 25.5953 20.7074 20.5188 21.4391C20.0212 21.5107 19.676 21.9724 19.7476 22.4693C19.8192 22.9663 20.2815 23.3151 20.7778 23.2405C23.8953 22.7909 29.1235 21.6181 29.1235 18.8089C29.1235 17.6348 27.9719 16.4159 25.5608 15.4937Z" fill="white"/>
      <path d="M7.36158 14.5454C5.55167 14.5454 4.57421 13.4739 4.46864 13.3519C4.13979 12.9715 4.18226 12.3969 4.56268 12.0681C4.9425 11.7398 5.51709 11.7817 5.84655 12.1621C5.85868 12.1749 6.37926 12.7252 7.36218 12.7252C7.78508 12.7252 8.49497 12.6263 8.49497 11.9667C8.49497 11.3679 7.54178 11.2083 6.97812 11.2083C6.47513 11.2083 6.06801 10.8012 6.06801 10.2982C6.06801 9.79522 6.47513 9.38809 6.97812 9.38809H7.29423C7.52722 9.38809 8.1916 9.24915 8.1916 8.62967C8.1916 8.12608 7.85971 7.87124 7.20504 7.87124C6.37016 7.87124 5.8605 8.41974 5.83926 8.44279C5.50313 8.81048 4.93037 8.84506 4.55844 8.515C4.18651 8.18493 4.14403 7.62127 4.46985 7.24448C4.57543 7.12253 5.54864 6.05103 7.20564 6.05103C8.8584 6.05103 10.0124 7.11161 10.0124 8.62967C10.0124 9.2449 9.81159 9.76609 9.48941 10.1744C10.0148 10.6216 10.3146 11.238 10.3146 11.9667C10.3146 13.5091 9.1278 14.5454 7.36158 14.5454Z" fill="white"/>
      <path d="M14.5618 14.5454C12.889 14.5454 11.5281 13.1845 11.5281 11.5117C11.5281 9.83894 12.889 8.47803 14.5618 8.47803C16.2346 8.47803 17.5955 9.83894 17.5955 11.5117C17.5955 13.1845 16.2346 14.5454 14.5618 14.5454ZM14.5618 10.2982C13.8925 10.2982 13.3483 10.8425 13.3483 11.5117C13.3483 12.181 13.8925 12.7252 14.5618 12.7252C15.231 12.7252 15.7753 12.181 15.7753 11.5117C15.7753 10.8425 15.231 10.2982 14.5618 10.2982Z" fill="white"/>
      <path d="M12.4382 12.2621C11.9352 12.2621 11.5281 11.855 11.5281 11.352C11.5281 7.31115 14.279 6.1183 15.734 6.05216C16.2388 6.0376 16.6617 6.41803 16.6842 6.9198C16.7066 7.41975 16.3225 7.84326 15.8244 7.86995C15.5653 7.88755 13.3483 8.13146 13.3483 11.352C13.3483 11.855 12.9412 12.2621 12.4382 12.2621Z" fill="white"/>
      <path d="M21.8427 14.5454C20.1699 14.5454 18.809 13.1845 18.809 11.5117V9.08472C18.809 7.41194 20.1699 6.05103 21.8427 6.05103C23.5154 6.05103 24.8764 7.41194 24.8764 9.08472V11.5117C24.8764 13.1845 23.5154 14.5454 21.8427 14.5454ZM21.8427 7.87124C21.1734 7.87124 20.6292 8.41549 20.6292 9.08472V11.5117C20.6292 12.1809 21.1734 12.7252 21.8427 12.7252C22.5119 12.7252 23.0561 12.1809 23.0561 11.5117V9.08472C23.0561 8.41549 22.5119 7.87124 21.8427 7.87124Z" fill="white"/>
      <path d="M13.6517 20.0225L16.382 22.7528L13.6517 25.4831" stroke="white" stroke-width="1.82022" stroke-miterlimit="10" stroke-linecap="round" stroke-linejoin="round"/>
    </g>
    <defs>
      <clipPath id="clip0_702_6856">
        <rect width="29.1235" height="29.1235" fill="white"/>
      </clipPath>
    </defs>
  </svg>
</svg>
