<svg width="202" height="94" viewBox="0 0 202 94" fill="none" xmlns="http://www.w3.org/2000/svg">
<circle opacity="0.15" cx="88.131" cy="47" r="46.631" fill="#A3D24F"/>
<circle cx="158.719" cy="47.4271" r="42.7808" fill="white"/>
<path d="M183.548 41.6267C183.548 36.9038 180.648 32.8738 176.532 31.1968C176.652 30.7091 176.72 30.2043 176.72 29.6824C176.72 26.1316 173.846 23.2567 170.295 23.2567C168.986 23.2567 167.762 23.6503 166.753 24.3262C165.033 20.3048 161.037 17.4813 156.391 17.4813C150.71 17.4813 146.012 21.6995 145.242 27.1669C139.21 27.3808 134.385 32.3262 134.385 38.4182C134.385 40.2321 134.83 41.9433 135.591 43.4663C133.606 44.5615 132.263 46.6663 132.263 49.0963C132.263 52.2706 134.573 54.9059 137.593 55.4193C138.286 61.6054 143.531 66.4139 149.897 66.4139C153.174 66.4139 156.151 65.1305 158.368 63.0514C160.584 65.1305 163.561 66.4139 166.838 66.4139C173.683 66.4139 179.227 60.8695 179.227 54.0246C179.227 52.9123 179.065 51.8428 178.791 50.816C181.666 48.7711 183.548 45.4257 183.548 41.6353V41.6267Z" fill="#E7F2D5"/>
<path d="M115.993 48.8704C115.993 45.3219 113.143 42.4422 109.631 42.4422C108.822 42.4422 108.049 42.6041 107.338 42.8787C106.355 38.9288 102.829 35.9998 98.6202 35.9998C93.7909 35.9998 89.8606 39.8441 89.6446 44.6741C86.4669 45.0332 84 47.7509 84 51.0601C84 52.8625 84.7387 54.489 85.9234 55.6577C84.8781 57.1434 84.2578 58.9528 84.2578 60.9102C84.2578 65.9303 88.2857 69.9998 93.2543 69.9998C95.8397 69.9998 98.1673 68.8874 99.8119 67.1202C101.456 68.8874 103.777 69.9998 106.369 69.9998C111.338 69.9998 115.366 65.9303 115.366 60.9102C115.366 58.4037 114.362 56.1295 112.732 54.4819C114.683 53.3836 116 51.2854 116 48.8704H115.993Z" fill="#E7F2D5"/>
<path d="M183.548 41.6267C183.548 36.9038 180.648 32.8738 176.532 31.1968C176.652 30.7091 176.72 30.2043 176.72 29.6824C176.72 26.1316 173.846 23.2567 170.295 23.2567C168.986 23.2567 167.762 23.6503 166.753 24.3262C165.033 20.3048 161.037 17.4813 156.391 17.4813C150.71 17.4813 146.012 21.6995 145.242 27.1669C139.21 27.3808 134.385 32.3262 134.385 38.4182C134.385 40.2321 134.83 41.9433 135.591 43.4663C133.606 44.5615 132.263 46.6663 132.263 49.0963C132.263 52.2706 134.573 54.9059 137.593 55.4193C138.286 61.6054 143.531 66.4139 149.897 66.4139C153.174 66.4139 156.151 65.1305 158.368 63.0514C160.584 65.1305 163.561 66.4139 166.838 66.4139C173.683 66.4139 179.227 60.8695 179.227 54.0246C179.227 52.9123 179.065 51.8428 178.791 50.816C181.666 48.7711 183.548 45.4257 183.548 41.6353V41.6267Z" stroke="#A3D24F" stroke-width="2" stroke-miterlimit="10" stroke-linecap="round"/>
<path d="M115.993 48.8704C115.993 45.3219 113.143 42.4422 109.631 42.4422C108.822 42.4422 108.049 42.6041 107.338 42.8787C106.355 38.9288 102.829 35.9998 98.6202 35.9998C93.7909 35.9998 89.8606 39.8441 89.6446 44.6741C86.4669 45.0332 84 47.7509 84 51.0601C84 52.8625 84.7387 54.489 85.9234 55.6577C84.8781 57.1434 84.2578 58.9528 84.2578 60.9102C84.2578 65.9303 88.2857 69.9998 93.2543 69.9998C95.8397 69.9998 98.1673 68.8874 99.8119 67.1202C101.456 68.8874 103.777 69.9998 106.369 69.9998C111.338 69.9998 115.366 65.9303 115.366 60.9102C115.366 58.4037 114.362 56.1295 112.732 54.4819C114.683 53.3836 116 51.2854 116 48.8704H115.993Z" stroke="#A3D24F" stroke-width="2" stroke-miterlimit="10" stroke-linecap="round"/>
<path d="M158.514 78.6242V44.3397" stroke="#9A9172" stroke-width="2" stroke-miterlimit="10" stroke-linecap="round"/>
<path d="M158.514 57.5085L165.042 52.7342" stroke="#9A9172" stroke-width="2" stroke-miterlimit="10" stroke-linecap="round"/>
<path d="M158.514 53.0238L154.732 49.6356" stroke="#9A9172" stroke-width="2" stroke-miterlimit="10" stroke-linecap="round"/>
<path d="M99.7754 66.1865L103.745 63.286" stroke="#9A9172" stroke-width="2" stroke-miterlimit="10" stroke-linecap="round"/>
<path d="M99.775 60.9934L97.4648 58.9998" stroke="#9A9172" stroke-width="2" stroke-miterlimit="10" stroke-linecap="round"/>
<path d="M51.9995 78.869C51.9995 78.869 51.5 71.869 51.9996 65.369" stroke="#9A9172" stroke-width="2" stroke-miterlimit="10" stroke-linecap="round"/>
<path d="M52 72.869L55 70.369" stroke="#9A9172" stroke-width="2" stroke-miterlimit="10" stroke-linecap="round"/>
<path d="M51.5 69.869L48 67.369" stroke="#9A9172" stroke-width="2" stroke-miterlimit="10" stroke-linecap="round"/>
<circle cx="158.719" cy="47.4271" r="41.7808" stroke="#EF7047" stroke-width="2"/>
<path d="M41.5 79.0858L192.088 79.0858" stroke="#9A9172" stroke-width="2" stroke-linecap="round"/>
<path d="M99.7754 78.7099V56.4998" stroke="#9A9172" stroke-width="2" stroke-miterlimit="10" stroke-linecap="round"/>
<path d="M72.0045 50.8998L78.1327 44.7724L72.0046 38.6442" stroke="#EF7047" stroke-width="2" stroke-linecap="round"/>
<path d="M76.9111 44.7176L1 44.7176" stroke="#EF7047" stroke-width="2" stroke-linecap="round"/>
<path d="M52 64.3683C52 64.3683 52.1015 60.9996 54.1881 59.3929C56.2746 57.7862 59.5576 58.5508 59.5576 58.5508C59.5576 58.5508 59.4561 61.9195 57.3696 63.5261C55.2831 65.1328 52 64.3683 52 64.3683Z" fill="#E7F2D5"/>
<path d="M52 64.3683C52 64.3683 52.1015 60.9996 54.1881 59.3929C56.2746 57.7862 59.5576 58.5508 59.5576 58.5508C59.5576 58.5508 59.4561 61.9195 57.3696 63.5261C55.2831 65.1328 52 64.3683 52 64.3683Z" stroke="#A3D24F" stroke-width="2" stroke-miterlimit="10" stroke-linecap="round"/>
<path d="M55.2317 70.1495C55.2317 70.1495 56.623 68.4007 58.3664 68.3789C60.1098 68.3571 61.5459 70.07 61.5459 70.07C61.5459 70.07 60.1546 71.8187 58.4112 71.8406C56.6677 71.8624 55.2317 70.1495 55.2317 70.1495Z" fill="#E7F2D5"/>
<path d="M55.2317 70.1495C55.2317 70.1495 56.623 68.4007 58.3664 68.3789C60.1098 68.3571 61.5459 70.07 61.5459 70.07C61.5459 70.07 60.1546 71.8187 58.4112 71.8406C56.6677 71.8624 55.2317 70.1495 55.2317 70.1495Z" stroke="#A3D24F" stroke-width="2" stroke-miterlimit="10" stroke-linecap="round"/>
<path d="M48.2326 67.2755C48.2326 67.2755 46.926 69.0227 45.2242 69.0975C43.5224 69.1723 42.0679 67.5458 42.0679 67.5458C42.0679 67.5458 43.3744 65.7985 45.0763 65.7237C46.7789 65.6494 48.2332 67.2747 48.2332 67.2747L48.2326 67.2755Z" fill="#E7F2D5"/>
<path d="M48.2326 67.2755C48.2326 67.2755 46.926 69.0227 45.2242 69.0975C43.5224 69.1723 42.0679 67.5458 42.0679 67.5458C42.0679 67.5458 43.3744 65.7985 45.0763 65.7237C46.7789 65.6494 48.2332 67.2747 48.2332 67.2747L48.2326 67.2755Z" stroke="#A3D24F" stroke-width="2" stroke-miterlimit="10" stroke-linecap="round"/>
</svg>
