<svg width="100" height="100" viewBox="0 0 100 100" fill="none" xmlns="http://www.w3.org/2000/svg">
<rect width="100" height="100" fill="url(#paint0_linear_768_56946)"/>
<path d="M88.1701 57.8189C79.854 52.5514 70.3738 48.93 60.2283 47.4486V37.7366C60.2283 35.1029 59.7293 32.963 58.5651 31.8107C57.7335 30.6584 56.0703 30 54.0744 30H48.4195V33.4568H53.0765C55.405 33.4568 56.2366 35.1029 56.2366 37.9012V46.9547C54.2407 46.7901 52.0786 46.6255 50.0827 46.6255C48.4196 46.6255 46.9226 46.6255 45.2595 46.7901V30L41.1014 31.1523V47.1193C30.457 48.4362 20.4777 52.2222 11.8291 57.8189C20.8104 53.3745 30.6233 50.4115 41.1014 49.2593V62.2634C41.1014 64.8971 41.6004 67.037 42.7647 68.1893C43.7626 69.3416 45.2594 70 47.2553 70H53.0765V66.5432H48.4195C46.0911 66.5432 45.2595 64.8971 45.2595 62.0988V48.93C46.9227 48.7654 48.4195 48.7654 50.0827 48.7654C51.1854 48.7654 52.2448 48.8082 53.283 48.8502C54.2805 48.8905 55.2586 48.93 56.2366 48.93V70L60.3946 68.8477V49.4239C70.2075 50.5761 79.6877 53.5391 88.1701 57.8189Z" fill="white"/>
<defs>
<linearGradient id="paint0_linear_768_56946" x1="50" y1="0" x2="50" y2="100" gradientUnits="userSpaceOnUse">
<stop stop-color="#2C8658"/>
<stop offset="1" stop-color="#103522"/>
</linearGradient>
</defs>
</svg>
