<svg width="80" height="80" viewBox="0 0 80 80" fill="none" xmlns="http://www.w3.org/2000/svg">
<g clip-path="url(#clip0_787_32177)">
<path d="M80 0H0V80H80V0Z" fill="white"/>
<mask id="mask0_787_32177" style="mask-type:luminance" maskUnits="userSpaceOnUse" x="4" y="4" width="72" height="72">
<path d="M5.27906 28.8404C5.9639 28.8404 6.51906 28.2852 6.51906 27.6004C6.51906 26.9155 5.9639 26.3604 5.27906 26.3604C4.59423 26.3604 4.03906 26.9155 4.03906 27.6004C4.03906 28.2852 4.59423 28.8404 5.27906 28.8404Z" fill="white"/>
<path d="M5.27906 31.3201C5.9639 31.3201 6.51906 30.7649 6.51906 30.0801C6.51906 29.3953 5.9639 28.8401 5.27906 28.8401C4.59423 28.8401 4.03906 29.3953 4.03906 30.0801C4.03906 30.7649 4.59423 31.3201 5.27906 31.3201Z" fill="white"/>
<path d="M5.27906 33.8003C5.9639 33.8003 6.51906 33.2451 6.51906 32.5603C6.51906 31.8755 5.9639 31.3203 5.27906 31.3203C4.59423 31.3203 4.03906 31.8755 4.03906 32.5603C4.03906 33.2451 4.59423 33.8003 5.27906 33.8003Z" fill="white"/>
<path d="M5.27906 38.76C5.9639 38.76 6.51906 38.2049 6.51906 37.52C6.51906 36.8352 5.9639 36.28 5.27906 36.28C4.59423 36.28 4.03906 36.8352 4.03906 37.52C4.03906 38.2049 4.59423 38.76 5.27906 38.76Z" fill="white"/>
<path d="M5.27906 46.1997C5.9639 46.1997 6.51906 45.6446 6.51906 44.9597C6.51906 44.2749 5.9639 43.7197 5.27906 43.7197C4.59423 43.7197 4.03906 44.2749 4.03906 44.9597C4.03906 45.6446 4.59423 46.1997 5.27906 46.1997Z" fill="white"/>
<path d="M5.27906 51.1597C5.9639 51.1597 6.51906 50.6045 6.51906 49.9197C6.51906 49.2349 5.9639 48.6797 5.27906 48.6797C4.59423 48.6797 4.03906 49.2349 4.03906 49.9197C4.03906 50.6045 4.59423 51.1597 5.27906 51.1597Z" fill="white"/>
<path d="M5.27906 53.6402C5.9639 53.6402 6.51906 53.085 6.51906 52.4002C6.51906 51.7153 5.9639 51.1602 5.27906 51.1602C4.59423 51.1602 4.03906 51.7153 4.03906 52.4002C4.03906 53.085 4.59423 53.6402 5.27906 53.6402Z" fill="white"/>
<path d="M7.75953 33.8003C8.44436 33.8003 8.99953 33.2451 8.99953 32.5603C8.99953 31.8755 8.44436 31.3203 7.75953 31.3203C7.0747 31.3203 6.51953 31.8755 6.51953 32.5603C6.51953 33.2451 7.0747 33.8003 7.75953 33.8003Z" fill="white"/>
<path d="M7.75953 38.76C8.44436 38.76 8.99953 38.2049 8.99953 37.52C8.99953 36.8352 8.44436 36.28 7.75953 36.28C7.0747 36.28 6.51953 36.8352 6.51953 37.52C6.51953 38.2049 7.0747 38.76 7.75953 38.76Z" fill="white"/>
<path d="M7.75953 46.1997C8.44436 46.1997 8.99953 45.6446 8.99953 44.9597C8.99953 44.2749 8.44436 43.7197 7.75953 43.7197C7.0747 43.7197 6.51953 44.2749 6.51953 44.9597C6.51953 45.6446 7.0747 46.1997 7.75953 46.1997Z" fill="white"/>
<path d="M7.75953 48.68C8.44436 48.68 8.99953 48.1248 8.99953 47.44C8.99953 46.7551 8.44436 46.2 7.75953 46.2C7.0747 46.2 6.51953 46.7551 6.51953 47.44C6.51953 48.1248 7.0747 48.68 7.75953 48.68Z" fill="white"/>
<path d="M7.75953 56.1196C8.44436 56.1196 8.99953 55.5645 8.99953 54.8796C8.99953 54.1948 8.44436 53.6396 7.75953 53.6396C7.0747 53.6396 6.51953 54.1948 6.51953 54.8796C6.51953 55.5645 7.0747 56.1196 7.75953 56.1196Z" fill="white"/>
<path d="M10.24 26.3601C10.9248 26.3601 11.48 25.805 11.48 25.1201C11.48 24.4353 10.9248 23.8801 10.24 23.8801C9.55517 23.8801 9 24.4353 9 25.1201C9 25.805 9.55517 26.3601 10.24 26.3601Z" fill="white"/>
<path d="M10.24 33.8003C10.9248 33.8003 11.48 33.2451 11.48 32.5603C11.48 31.8755 10.9248 31.3203 10.24 31.3203C9.55517 31.3203 9 31.8755 9 32.5603C9 33.2451 9.55517 33.8003 10.24 33.8003Z" fill="white"/>
<path d="M10.24 38.76C10.9248 38.76 11.48 38.2049 11.48 37.52C11.48 36.8352 10.9248 36.28 10.24 36.28C9.55517 36.28 9 36.8352 9 37.52C9 38.2049 9.55517 38.76 10.24 38.76Z" fill="white"/>
<path d="M10.24 41.2398C10.9248 41.2398 11.48 40.6846 11.48 39.9998C11.48 39.3149 10.9248 38.7598 10.24 38.7598C9.55517 38.7598 9 39.3149 9 39.9998C9 40.6846 9.55517 41.2398 10.24 41.2398Z" fill="white"/>
<path d="M10.24 43.72C10.9248 43.72 11.48 43.1648 11.48 42.48C11.48 41.7952 10.9248 41.24 10.24 41.24C9.55517 41.24 9 41.7952 9 42.48C9 43.1648 9.55517 43.72 10.24 43.72Z" fill="white"/>
<path d="M10.24 48.68C10.9248 48.68 11.48 48.1248 11.48 47.44C11.48 46.7551 10.9248 46.2 10.24 46.2C9.55517 46.2 9 46.7551 9 47.44C9 48.1248 9.55517 48.68 10.24 48.68Z" fill="white"/>
<path d="M10.24 53.6402C10.9248 53.6402 11.48 53.085 11.48 52.4002C11.48 51.7153 10.9248 51.1602 10.24 51.1602C9.55517 51.1602 9 51.7153 9 52.4002C9 53.085 9.55517 53.6402 10.24 53.6402Z" fill="white"/>
<path d="M10.24 56.1196C10.9248 56.1196 11.48 55.5645 11.48 54.8796C11.48 54.1948 10.9248 53.6396 10.24 53.6396C9.55517 53.6396 9 54.1948 9 54.8796C9 55.5645 9.55517 56.1196 10.24 56.1196Z" fill="white"/>
<path d="M12.7185 36.28C13.4033 36.28 13.9585 35.7249 13.9585 35.04C13.9585 34.3552 13.4033 33.8 12.7185 33.8C12.0337 33.8 11.4785 34.3552 11.4785 35.04C11.4785 35.7249 12.0337 36.28 12.7185 36.28Z" fill="white"/>
<path d="M12.7185 41.2398C13.4033 41.2398 13.9585 40.6846 13.9585 39.9998C13.9585 39.3149 13.4033 38.7598 12.7185 38.7598C12.0337 38.7598 11.4785 39.3149 11.4785 39.9998C11.4785 40.6846 12.0337 41.2398 12.7185 41.2398Z" fill="white"/>
<path d="M12.7185 46.1997C13.4033 46.1997 13.9585 45.6446 13.9585 44.9597C13.9585 44.2749 13.4033 43.7197 12.7185 43.7197C12.0337 43.7197 11.4785 44.2749 11.4785 44.9597C11.4785 45.6446 12.0337 46.1997 12.7185 46.1997Z" fill="white"/>
<path d="M12.7185 51.1597C13.4033 51.1597 13.9585 50.6045 13.9585 49.9197C13.9585 49.2349 13.4033 48.6797 12.7185 48.6797C12.0337 48.6797 11.4785 49.2349 11.4785 49.9197C11.4785 50.6045 12.0337 51.1597 12.7185 51.1597Z" fill="white"/>
<path d="M12.7185 53.6402C13.4033 53.6402 13.9585 53.085 13.9585 52.4002C13.9585 51.7153 13.4033 51.1602 12.7185 51.1602C12.0337 51.1602 11.4785 51.7153 11.4785 52.4002C11.4785 53.085 12.0337 53.6402 12.7185 53.6402Z" fill="white"/>
<path d="M15.199 26.3601C15.8838 26.3601 16.439 25.805 16.439 25.1201C16.439 24.4353 15.8838 23.8801 15.199 23.8801C14.5142 23.8801 13.959 24.4353 13.959 25.1201C13.959 25.805 14.5142 26.3601 15.199 26.3601Z" fill="white"/>
<path d="M15.199 31.3201C15.8838 31.3201 16.439 30.7649 16.439 30.0801C16.439 29.3953 15.8838 28.8401 15.199 28.8401C14.5142 28.8401 13.959 29.3953 13.959 30.0801C13.959 30.7649 14.5142 31.3201 15.199 31.3201Z" fill="white"/>
<path d="M15.199 33.8003C15.8838 33.8003 16.439 33.2451 16.439 32.5603C16.439 31.8755 15.8838 31.3203 15.199 31.3203C14.5142 31.3203 13.959 31.8755 13.959 32.5603C13.959 33.2451 14.5142 33.8003 15.199 33.8003Z" fill="white"/>
<path d="M15.199 41.2398C15.8838 41.2398 16.439 40.6846 16.439 39.9998C16.439 39.3149 15.8838 38.7598 15.199 38.7598C14.5142 38.7598 13.959 39.3149 13.959 39.9998C13.959 40.6846 14.5142 41.2398 15.199 41.2398Z" fill="white"/>
<path d="M17.6795 26.3601C18.3643 26.3601 18.9195 25.805 18.9195 25.1201C18.9195 24.4353 18.3643 23.8801 17.6795 23.8801C16.9946 23.8801 16.4395 24.4353 16.4395 25.1201C16.4395 25.805 16.9946 26.3601 17.6795 26.3601Z" fill="white"/>
<path d="M17.6795 28.8404C18.3643 28.8404 18.9195 28.2852 18.9195 27.6004C18.9195 26.9155 18.3643 26.3604 17.6795 26.3604C16.9946 26.3604 16.4395 26.9155 16.4395 27.6004C16.4395 28.2852 16.9946 28.8404 17.6795 28.8404Z" fill="white"/>
<path d="M17.6795 33.8003C18.3643 33.8003 18.9195 33.2451 18.9195 32.5603C18.9195 31.8755 18.3643 31.3203 17.6795 31.3203C16.9946 31.3203 16.4395 31.8755 16.4395 32.5603C16.4395 33.2451 16.9946 33.8003 17.6795 33.8003Z" fill="white"/>
<path d="M17.6795 36.28C18.3643 36.28 18.9195 35.7249 18.9195 35.04C18.9195 34.3552 18.3643 33.8 17.6795 33.8C16.9946 33.8 16.4395 34.3552 16.4395 35.04C16.4395 35.7249 16.9946 36.28 17.6795 36.28Z" fill="white"/>
<path d="M17.6795 51.1597C18.3643 51.1597 18.9195 50.6045 18.9195 49.9197C18.9195 49.2349 18.3643 48.6797 17.6795 48.6797C16.9946 48.6797 16.4395 49.2349 16.4395 49.9197C16.4395 50.6045 16.9946 51.1597 17.6795 51.1597Z" fill="white"/>
<path d="M17.6795 53.6402C18.3643 53.6402 18.9195 53.085 18.9195 52.4002C18.9195 51.7153 18.3643 51.1602 17.6795 51.1602C16.9946 51.1602 16.4395 51.7153 16.4395 52.4002C16.4395 53.085 16.9946 53.6402 17.6795 53.6402Z" fill="white"/>
<path d="M17.6795 56.1196C18.3643 56.1196 18.9195 55.5645 18.9195 54.8796C18.9195 54.1948 18.3643 53.6396 17.6795 53.6396C16.9946 53.6396 16.4395 54.1948 16.4395 54.8796C16.4395 55.5645 16.9946 56.1196 17.6795 56.1196Z" fill="white"/>
<path d="M20.1599 26.3601C20.8448 26.3601 21.3999 25.805 21.3999 25.1201C21.3999 24.4353 20.8448 23.8801 20.1599 23.8801C19.4751 23.8801 18.9199 24.4353 18.9199 25.1201C18.9199 25.805 19.4751 26.3601 20.1599 26.3601Z" fill="white"/>
<path d="M20.1599 31.3201C20.8448 31.3201 21.3999 30.7649 21.3999 30.0801C21.3999 29.3953 20.8448 28.8401 20.1599 28.8401C19.4751 28.8401 18.9199 29.3953 18.9199 30.0801C18.9199 30.7649 19.4751 31.3201 20.1599 31.3201Z" fill="white"/>
<path d="M20.1599 36.28C20.8448 36.28 21.3999 35.7249 21.3999 35.04C21.3999 34.3552 20.8448 33.8 20.1599 33.8C19.4751 33.8 18.9199 34.3552 18.9199 35.04C18.9199 35.7249 19.4751 36.28 20.1599 36.28Z" fill="white"/>
<path d="M20.158 41.2398C20.8428 41.2398 21.398 40.6846 21.398 39.9998C21.398 39.3149 20.8428 38.7598 20.158 38.7598C19.4731 38.7598 18.918 39.3149 18.918 39.9998C18.918 40.6846 19.4731 41.2398 20.158 41.2398Z" fill="white"/>
<path d="M20.158 46.1997C20.8428 46.1997 21.398 45.6446 21.398 44.9597C21.398 44.2749 20.8428 43.7197 20.158 43.7197C19.4731 43.7197 18.918 44.2749 18.918 44.9597C18.918 45.6446 19.4731 46.1997 20.158 46.1997Z" fill="white"/>
<path d="M20.158 51.1597C20.8428 51.1597 21.398 50.6045 21.398 49.9197C21.398 49.2349 20.8428 48.6797 20.158 48.6797C19.4731 48.6797 18.918 49.2349 18.918 49.9197C18.918 50.6045 19.4731 51.1597 20.158 51.1597Z" fill="white"/>
<path d="M20.158 56.1196C20.8428 56.1196 21.398 55.5645 21.398 54.8796C21.398 54.1948 20.8428 53.6396 20.158 53.6396C19.4731 53.6396 18.918 54.1948 18.918 54.8796C18.918 55.5645 19.4731 56.1196 20.158 56.1196Z" fill="white"/>
<path d="M22.6384 31.3201C23.3233 31.3201 23.8784 30.7649 23.8784 30.0801C23.8784 29.3953 23.3233 28.8401 22.6384 28.8401C21.9536 28.8401 21.3984 29.3953 21.3984 30.0801C21.3984 30.7649 21.9536 31.3201 22.6384 31.3201Z" fill="white"/>
<path d="M22.6384 33.8003C23.3233 33.8003 23.8784 33.2451 23.8784 32.5603C23.8784 31.8755 23.3233 31.3203 22.6384 31.3203C21.9536 31.3203 21.3984 31.8755 21.3984 32.5603C21.3984 33.2451 21.9536 33.8003 22.6384 33.8003Z" fill="white"/>
<path d="M22.6384 41.2398C23.3233 41.2398 23.8784 40.6846 23.8784 39.9998C23.8784 39.3149 23.3233 38.7598 22.6384 38.7598C21.9536 38.7598 21.3984 39.3149 21.3984 39.9998C21.3984 40.6846 21.9536 41.2398 22.6384 41.2398Z" fill="white"/>
<path d="M22.6384 48.68C23.3233 48.68 23.8784 48.1248 23.8784 47.44C23.8784 46.7551 23.3233 46.2 22.6384 46.2C21.9536 46.2 21.3984 46.7551 21.3984 47.44C21.3984 48.1248 21.9536 48.68 22.6384 48.68Z" fill="white"/>
<path d="M22.6384 51.1597C23.3233 51.1597 23.8784 50.6045 23.8784 49.9197C23.8784 49.2349 23.3233 48.6797 22.6384 48.6797C21.9536 48.6797 21.3984 49.2349 21.3984 49.9197C21.3984 50.6045 21.9536 51.1597 22.6384 51.1597Z" fill="white"/>
<path d="M22.6384 53.6402C23.3233 53.6402 23.8784 53.085 23.8784 52.4002C23.8784 51.7153 23.3233 51.1602 22.6384 51.1602C21.9536 51.1602 21.3984 51.7153 21.3984 52.4002C21.3984 53.085 21.9536 53.6402 22.6384 53.6402Z" fill="white"/>
<path d="M25.1189 9.00051C25.8037 9.00051 26.3589 8.44534 26.3589 7.76051C26.3589 7.07567 25.8037 6.52051 25.1189 6.52051C24.4341 6.52051 23.8789 7.07567 23.8789 7.76051C23.8789 8.44534 24.4341 9.00051 25.1189 9.00051Z" fill="white"/>
<path d="M25.1189 16.44C25.8037 16.44 26.3589 15.8848 26.3589 15.2C26.3589 14.5151 25.8037 13.96 25.1189 13.96C24.4341 13.96 23.8789 14.5151 23.8789 15.2C23.8789 15.8848 24.4341 16.44 25.1189 16.44Z" fill="white"/>
<path d="M25.1189 21.3999C25.8037 21.3999 26.3589 20.8448 26.3589 20.1599C26.3589 19.4751 25.8037 18.9199 25.1189 18.9199C24.4341 18.9199 23.8789 19.4751 23.8789 20.1599C23.8789 20.8448 24.4341 21.3999 25.1189 21.3999Z" fill="white"/>
<path d="M25.1189 26.3601C25.8037 26.3601 26.3589 25.805 26.3589 25.1201C26.3589 24.4353 25.8037 23.8801 25.1189 23.8801C24.4341 23.8801 23.8789 24.4353 23.8789 25.1201C23.8789 25.805 24.4341 26.3601 25.1189 26.3601Z" fill="white"/>
<path d="M25.1189 28.8404C25.8037 28.8404 26.3589 28.2852 26.3589 27.6004C26.3589 26.9155 25.8037 26.3604 25.1189 26.3604C24.4341 26.3604 23.8789 26.9155 23.8789 27.6004C23.8789 28.2852 24.4341 28.8404 25.1189 28.8404Z" fill="white"/>
<path d="M25.1189 31.3201C25.8037 31.3201 26.3589 30.7649 26.3589 30.0801C26.3589 29.3953 25.8037 28.8401 25.1189 28.8401C24.4341 28.8401 23.8789 29.3953 23.8789 30.0801C23.8789 30.7649 24.4341 31.3201 25.1189 31.3201Z" fill="white"/>
<path d="M25.1189 33.8003C25.8037 33.8003 26.3589 33.2451 26.3589 32.5603C26.3589 31.8755 25.8037 31.3203 25.1189 31.3203C24.4341 31.3203 23.8789 31.8755 23.8789 32.5603C23.8789 33.2451 24.4341 33.8003 25.1189 33.8003Z" fill="white"/>
<path d="M25.1189 36.28C25.8037 36.28 26.3589 35.7249 26.3589 35.04C26.3589 34.3552 25.8037 33.8 25.1189 33.8C24.4341 33.8 23.8789 34.3552 23.8789 35.04C23.8789 35.7249 24.4341 36.28 25.1189 36.28Z" fill="white"/>
<path d="M25.1189 38.76C25.8037 38.76 26.3589 38.2049 26.3589 37.52C26.3589 36.8352 25.8037 36.28 25.1189 36.28C24.4341 36.28 23.8789 36.8352 23.8789 37.52C23.8789 38.2049 24.4341 38.76 25.1189 38.76Z" fill="white"/>
<path d="M25.1189 43.72C25.8037 43.72 26.3589 43.1648 26.3589 42.48C26.3589 41.7952 25.8037 41.24 25.1189 41.24C24.4341 41.24 23.8789 41.7952 23.8789 42.48C23.8789 43.1648 24.4341 43.72 25.1189 43.72Z" fill="white"/>
<path d="M25.1189 51.1597C25.8037 51.1597 26.3589 50.6045 26.3589 49.9197C26.3589 49.2349 25.8037 48.6797 25.1189 48.6797C24.4341 48.6797 23.8789 49.2349 23.8789 49.9197C23.8789 50.6045 24.4341 51.1597 25.1189 51.1597Z" fill="white"/>
<path d="M25.1189 53.6402C25.8037 53.6402 26.3589 53.085 26.3589 52.4002C26.3589 51.7153 25.8037 51.1602 25.1189 51.1602C24.4341 51.1602 23.8789 51.7153 23.8789 52.4002C23.8789 53.085 24.4341 53.6402 25.1189 53.6402Z" fill="white"/>
<path d="M25.1189 56.1196C25.8037 56.1196 26.3589 55.5645 26.3589 54.8796C26.3589 54.1948 25.8037 53.6396 25.1189 53.6396C24.4341 53.6396 23.8789 54.1948 23.8789 54.8796C23.8789 55.5645 24.4341 56.1196 25.1189 56.1196Z" fill="white"/>
<path d="M25.1189 58.6001C25.8037 58.6001 26.3589 58.045 26.3589 57.3601C26.3589 56.6753 25.8037 56.1201 25.1189 56.1201C24.4341 56.1201 23.8789 56.6753 23.8789 57.3601C23.8789 58.045 24.4341 58.6001 25.1189 58.6001Z" fill="white"/>
<path d="M25.1189 63.5601C25.8037 63.5601 26.3589 63.0049 26.3589 62.3201C26.3589 61.6352 25.8037 61.0801 25.1189 61.0801C24.4341 61.0801 23.8789 61.6352 23.8789 62.3201C23.8789 63.0049 24.4341 63.5601 25.1189 63.5601Z" fill="white"/>
<path d="M25.1189 66.0396C25.8037 66.0396 26.3589 65.4844 26.3589 64.7996C26.3589 64.1147 25.8037 63.5596 25.1189 63.5596C24.4341 63.5596 23.8789 64.1147 23.8789 64.7996C23.8789 65.4844 24.4341 66.0396 25.1189 66.0396Z" fill="white"/>
<path d="M25.1189 71.0005C25.8037 71.0005 26.3589 70.4453 26.3589 69.7605C26.3589 69.0757 25.8037 68.5205 25.1189 68.5205C24.4341 68.5205 23.8789 69.0757 23.8789 69.7605C23.8789 70.4453 24.4341 71.0005 25.1189 71.0005Z" fill="white"/>
<path d="M27.5994 13.9605C28.2842 13.9605 28.8394 13.4053 28.8394 12.7205C28.8394 12.0356 28.2842 11.4805 27.5994 11.4805C26.9145 11.4805 26.3594 12.0356 26.3594 12.7205C26.3594 13.4053 26.9145 13.9605 27.5994 13.9605Z" fill="white"/>
<path d="M27.5994 16.44C28.2842 16.44 28.8394 15.8848 28.8394 15.2C28.8394 14.5151 28.2842 13.96 27.5994 13.96C26.9145 13.96 26.3594 14.5151 26.3594 15.2C26.3594 15.8848 26.9145 16.44 27.5994 16.44Z" fill="white"/>
<path d="M27.5994 18.9204C28.2842 18.9204 28.8394 18.3653 28.8394 17.6804C28.8394 16.9956 28.2842 16.4404 27.5994 16.4404C26.9145 16.4404 26.3594 16.9956 26.3594 17.6804C26.3594 18.3653 26.9145 18.9204 27.5994 18.9204Z" fill="white"/>
<path d="M27.5994 28.8404C28.2842 28.8404 28.8394 28.2852 28.8394 27.6004C28.8394 26.9155 28.2842 26.3604 27.5994 26.3604C26.9145 26.3604 26.3594 26.9155 26.3594 27.6004C26.3594 28.2852 26.9145 28.8404 27.5994 28.8404Z" fill="white"/>
<path d="M27.5994 31.3201C28.2842 31.3201 28.8394 30.7649 28.8394 30.0801C28.8394 29.3953 28.2842 28.8401 27.5994 28.8401C26.9145 28.8401 26.3594 29.3953 26.3594 30.0801C26.3594 30.7649 26.9145 31.3201 27.5994 31.3201Z" fill="white"/>
<path d="M27.5994 33.8003C28.2842 33.8003 28.8394 33.2451 28.8394 32.5603C28.8394 31.8755 28.2842 31.3203 27.5994 31.3203C26.9145 31.3203 26.3594 31.8755 26.3594 32.5603C26.3594 33.2451 26.9145 33.8003 27.5994 33.8003Z" fill="white"/>
<path d="M27.5994 41.2398C28.2842 41.2398 28.8394 40.6846 28.8394 39.9998C28.8394 39.3149 28.2842 38.7598 27.5994 38.7598C26.9145 38.7598 26.3594 39.3149 26.3594 39.9998C26.3594 40.6846 26.9145 41.2398 27.5994 41.2398Z" fill="white"/>
<path d="M27.5994 46.1997C28.2842 46.1997 28.8394 45.6446 28.8394 44.9597C28.8394 44.2749 28.2842 43.7197 27.5994 43.7197C26.9145 43.7197 26.3594 44.2749 26.3594 44.9597C26.3594 45.6446 26.9145 46.1997 27.5994 46.1997Z" fill="white"/>
<path d="M27.5994 48.68C28.2842 48.68 28.8394 48.1248 28.8394 47.44C28.8394 46.7551 28.2842 46.2 27.5994 46.2C26.9145 46.2 26.3594 46.7551 26.3594 47.44C26.3594 48.1248 26.9145 48.68 27.5994 48.68Z" fill="white"/>
<path d="M27.5994 53.6402C28.2842 53.6402 28.8394 53.085 28.8394 52.4002C28.8394 51.7153 28.2842 51.1602 27.5994 51.1602C26.9145 51.1602 26.3594 51.7153 26.3594 52.4002C26.3594 53.085 26.9145 53.6402 27.5994 53.6402Z" fill="white"/>
<path d="M27.5994 56.1196C28.2842 56.1196 28.8394 55.5645 28.8394 54.8796C28.8394 54.1948 28.2842 53.6396 27.5994 53.6396C26.9145 53.6396 26.3594 54.1948 26.3594 54.8796C26.3594 55.5645 26.9145 56.1196 27.5994 56.1196Z" fill="white"/>
<path d="M27.5994 61.0796C28.2842 61.0796 28.8394 60.5244 28.8394 59.8396C28.8394 59.1548 28.2842 58.5996 27.5994 58.5996C26.9145 58.5996 26.3594 59.1548 26.3594 59.8396C26.3594 60.5244 26.9145 61.0796 27.5994 61.0796Z" fill="white"/>
<path d="M27.5994 63.5601C28.2842 63.5601 28.8394 63.0049 28.8394 62.3201C28.8394 61.6352 28.2842 61.0801 27.5994 61.0801C26.9145 61.0801 26.3594 61.6352 26.3594 62.3201C26.3594 63.0049 26.9145 63.5601 27.5994 63.5601Z" fill="white"/>
<path d="M27.5994 66.0396C28.2842 66.0396 28.8394 65.4844 28.8394 64.7996C28.8394 64.1147 28.2842 63.5596 27.5994 63.5596C26.9145 63.5596 26.3594 64.1147 26.3594 64.7996C26.3594 65.4844 26.9145 66.0396 27.5994 66.0396Z" fill="white"/>
<path d="M27.5994 73.48C28.2842 73.48 28.8394 72.9248 28.8394 72.24C28.8394 71.5552 28.2842 71 27.5994 71C26.9145 71 26.3594 71.5552 26.3594 72.24C26.3594 72.9248 26.9145 73.48 27.5994 73.48Z" fill="white"/>
<path d="M27.5994 75.9605C28.2842 75.9605 28.8394 75.4053 28.8394 74.7205C28.8394 74.0356 28.2842 73.4805 27.5994 73.4805C26.9145 73.4805 26.3594 74.0356 26.3594 74.7205C26.3594 75.4053 26.9145 75.9605 27.5994 75.9605Z" fill="white"/>
<path d="M30.0798 6.52004C30.7647 6.52004 31.3198 5.96487 31.3198 5.28004C31.3198 4.59521 30.7647 4.04004 30.0798 4.04004C29.395 4.04004 28.8398 4.59521 28.8398 5.28004C28.8398 5.96487 29.395 6.52004 30.0798 6.52004Z" fill="white"/>
<path d="M30.0798 11.48C30.7647 11.48 31.3198 10.9248 31.3198 10.24C31.3198 9.55517 30.7647 9 30.0798 9C29.395 9 28.8398 9.55517 28.8398 10.24C28.8398 10.9248 29.395 11.48 30.0798 11.48Z" fill="white"/>
<path d="M30.0798 13.9605C30.7647 13.9605 31.3198 13.4053 31.3198 12.7205C31.3198 12.0356 30.7647 11.4805 30.0798 11.4805C29.395 11.4805 28.8398 12.0356 28.8398 12.7205C28.8398 13.4053 29.395 13.9605 30.0798 13.9605Z" fill="white"/>
<path d="M30.0798 21.3999C30.7647 21.3999 31.3198 20.8448 31.3198 20.1599C31.3198 19.4751 30.7647 18.9199 30.0798 18.9199C29.395 18.9199 28.8398 19.4751 28.8398 20.1599C28.8398 20.8448 29.395 21.3999 30.0798 21.3999Z" fill="white"/>
<path d="M30.0798 26.3601C30.7647 26.3601 31.3198 25.805 31.3198 25.1201C31.3198 24.4353 30.7647 23.8801 30.0798 23.8801C29.395 23.8801 28.8398 24.4353 28.8398 25.1201C28.8398 25.805 29.395 26.3601 30.0798 26.3601Z" fill="white"/>
<path d="M30.0798 33.8003C30.7647 33.8003 31.3198 33.2451 31.3198 32.5603C31.3198 31.8755 30.7647 31.3203 30.0798 31.3203C29.395 31.3203 28.8398 31.8755 28.8398 32.5603C28.8398 33.2451 29.395 33.8003 30.0798 33.8003Z" fill="white"/>
<path d="M30.0798 36.28C30.7647 36.28 31.3198 35.7249 31.3198 35.04C31.3198 34.3552 30.7647 33.8 30.0798 33.8C29.395 33.8 28.8398 34.3552 28.8398 35.04C28.8398 35.7249 29.395 36.28 30.0798 36.28Z" fill="white"/>
<path d="M30.0798 38.76C30.7647 38.76 31.3198 38.2049 31.3198 37.52C31.3198 36.8352 30.7647 36.28 30.0798 36.28C29.395 36.28 28.8398 36.8352 28.8398 37.52C28.8398 38.2049 29.395 38.76 30.0798 38.76Z" fill="white"/>
<path d="M30.0798 41.2398C30.7647 41.2398 31.3198 40.6846 31.3198 39.9998C31.3198 39.3149 30.7647 38.7598 30.0798 38.7598C29.395 38.7598 28.8398 39.3149 28.8398 39.9998C28.8398 40.6846 29.395 41.2398 30.0798 41.2398Z" fill="white"/>
<path d="M30.0798 43.72C30.7647 43.72 31.3198 43.1648 31.3198 42.48C31.3198 41.7952 30.7647 41.24 30.0798 41.24C29.395 41.24 28.8398 41.7952 28.8398 42.48C28.8398 43.1648 29.395 43.72 30.0798 43.72Z" fill="white"/>
<path d="M30.0798 46.1997C30.7647 46.1997 31.3198 45.6446 31.3198 44.9597C31.3198 44.2749 30.7647 43.7197 30.0798 43.7197C29.395 43.7197 28.8398 44.2749 28.8398 44.9597C28.8398 45.6446 29.395 46.1997 30.0798 46.1997Z" fill="white"/>
<path d="M30.0798 48.68C30.7647 48.68 31.3198 48.1248 31.3198 47.44C31.3198 46.7551 30.7647 46.2 30.0798 46.2C29.395 46.2 28.8398 46.7551 28.8398 47.44C28.8398 48.1248 29.395 48.68 30.0798 48.68Z" fill="white"/>
<path d="M30.0798 56.1196C30.7647 56.1196 31.3198 55.5645 31.3198 54.8796C31.3198 54.1948 30.7647 53.6396 30.0798 53.6396C29.395 53.6396 28.8398 54.1948 28.8398 54.8796C28.8398 55.5645 29.395 56.1196 30.0798 56.1196Z" fill="white"/>
<path d="M30.0798 58.6001C30.7647 58.6001 31.3198 58.045 31.3198 57.3601C31.3198 56.6753 30.7647 56.1201 30.0798 56.1201C29.395 56.1201 28.8398 56.6753 28.8398 57.3601C28.8398 58.045 29.395 58.6001 30.0798 58.6001Z" fill="white"/>
<path d="M30.0798 63.5601C30.7647 63.5601 31.3198 63.0049 31.3198 62.3201C31.3198 61.6352 30.7647 61.0801 30.0798 61.0801C29.395 61.0801 28.8398 61.6352 28.8398 62.3201C28.8398 63.0049 29.395 63.5601 30.0798 63.5601Z" fill="white"/>
<path d="M30.0798 68.52C30.7647 68.52 31.3198 67.9649 31.3198 67.28C31.3198 66.5952 30.7647 66.04 30.0798 66.04C29.395 66.04 28.8398 66.5952 28.8398 67.28C28.8398 67.9649 29.395 68.52 30.0798 68.52Z" fill="white"/>
<path d="M30.0798 71.0005C30.7647 71.0005 31.3198 70.4453 31.3198 69.7605C31.3198 69.0757 30.7647 68.5205 30.0798 68.5205C29.395 68.5205 28.8398 69.0757 28.8398 69.7605C28.8398 70.4453 29.395 71.0005 30.0798 71.0005Z" fill="white"/>
<path d="M30.0798 75.9605C30.7647 75.9605 31.3198 75.4053 31.3198 74.7205C31.3198 74.0356 30.7647 73.4805 30.0798 73.4805C29.395 73.4805 28.8398 74.0356 28.8398 74.7205C28.8398 75.4053 29.395 75.9605 30.0798 75.9605Z" fill="white"/>
<path d="M32.5584 6.52004C33.2432 6.52004 33.7984 5.96487 33.7984 5.28004C33.7984 4.59521 33.2432 4.04004 32.5584 4.04004C31.8735 4.04004 31.3184 4.59521 31.3184 5.28004C31.3184 5.96487 31.8735 6.52004 32.5584 6.52004Z" fill="white"/>
<path d="M32.5584 9.00051C33.2432 9.00051 33.7984 8.44534 33.7984 7.76051C33.7984 7.07567 33.2432 6.52051 32.5584 6.52051C31.8735 6.52051 31.3184 7.07567 31.3184 7.76051C31.3184 8.44534 31.8735 9.00051 32.5584 9.00051Z" fill="white"/>
<path d="M32.5584 23.8804C33.2432 23.8804 33.7984 23.3252 33.7984 22.6404C33.7984 21.9556 33.2432 21.4004 32.5584 21.4004C31.8735 21.4004 31.3184 21.9556 31.3184 22.6404C31.3184 23.3252 31.8735 23.8804 32.5584 23.8804Z" fill="white"/>
<path d="M32.5584 26.3601C33.2432 26.3601 33.7984 25.805 33.7984 25.1201C33.7984 24.4353 33.2432 23.8801 32.5584 23.8801C31.8735 23.8801 31.3184 24.4353 31.3184 25.1201C31.3184 25.805 31.8735 26.3601 32.5584 26.3601Z" fill="white"/>
<path d="M32.5584 28.8404C33.2432 28.8404 33.7984 28.2852 33.7984 27.6004C33.7984 26.9155 33.2432 26.3604 32.5584 26.3604C31.8735 26.3604 31.3184 26.9155 31.3184 27.6004C31.3184 28.2852 31.8735 28.8404 32.5584 28.8404Z" fill="white"/>
<path d="M32.5584 31.3201C33.2432 31.3201 33.7984 30.7649 33.7984 30.0801C33.7984 29.3953 33.2432 28.8401 32.5584 28.8401C31.8735 28.8401 31.3184 29.3953 31.3184 30.0801C31.3184 30.7649 31.8735 31.3201 32.5584 31.3201Z" fill="white"/>
<path d="M32.5584 38.76C33.2432 38.76 33.7984 38.2049 33.7984 37.52C33.7984 36.8352 33.2432 36.28 32.5584 36.28C31.8735 36.28 31.3184 36.8352 31.3184 37.52C31.3184 38.2049 31.8735 38.76 32.5584 38.76Z" fill="white"/>
<path d="M32.5584 46.1997C33.2432 46.1997 33.7984 45.6446 33.7984 44.9597C33.7984 44.2749 33.2432 43.7197 32.5584 43.7197C31.8735 43.7197 31.3184 44.2749 31.3184 44.9597C31.3184 45.6446 31.8735 46.1997 32.5584 46.1997Z" fill="white"/>
<path d="M32.5584 48.68C33.2432 48.68 33.7984 48.1248 33.7984 47.44C33.7984 46.7551 33.2432 46.2 32.5584 46.2C31.8735 46.2 31.3184 46.7551 31.3184 47.44C31.3184 48.1248 31.8735 48.68 32.5584 48.68Z" fill="white"/>
<path d="M32.5584 51.1597C33.2432 51.1597 33.7984 50.6045 33.7984 49.9197C33.7984 49.2349 33.2432 48.6797 32.5584 48.6797C31.8735 48.6797 31.3184 49.2349 31.3184 49.9197C31.3184 50.6045 31.8735 51.1597 32.5584 51.1597Z" fill="white"/>
<path d="M32.5584 53.6402C33.2432 53.6402 33.7984 53.085 33.7984 52.4002C33.7984 51.7153 33.2432 51.1602 32.5584 51.1602C31.8735 51.1602 31.3184 51.7153 31.3184 52.4002C31.3184 53.085 31.8735 53.6402 32.5584 53.6402Z" fill="white"/>
<path d="M32.5584 58.6001C33.2432 58.6001 33.7984 58.045 33.7984 57.3601C33.7984 56.6753 33.2432 56.1201 32.5584 56.1201C31.8735 56.1201 31.3184 56.6753 31.3184 57.3601C31.3184 58.045 31.8735 58.6001 32.5584 58.6001Z" fill="white"/>
<path d="M32.5584 63.5601C33.2432 63.5601 33.7984 63.0049 33.7984 62.3201C33.7984 61.6352 33.2432 61.0801 32.5584 61.0801C31.8735 61.0801 31.3184 61.6352 31.3184 62.3201C31.3184 63.0049 31.8735 63.5601 32.5584 63.5601Z" fill="white"/>
<path d="M32.5584 73.48C33.2432 73.48 33.7984 72.9248 33.7984 72.24C33.7984 71.5552 33.2432 71 32.5584 71C31.8735 71 31.3184 71.5552 31.3184 72.24C31.3184 72.9248 31.8735 73.48 32.5584 73.48Z" fill="white"/>
<path d="M32.5584 75.9605C33.2432 75.9605 33.7984 75.4053 33.7984 74.7205C33.7984 74.0356 33.2432 73.4805 32.5584 73.4805C31.8735 73.4805 31.3184 74.0356 31.3184 74.7205C31.3184 75.4053 31.8735 75.9605 32.5584 75.9605Z" fill="white"/>
<path d="M35.0388 9.00051C35.7237 9.00051 36.2788 8.44534 36.2788 7.76051C36.2788 7.07567 35.7237 6.52051 35.0388 6.52051C34.354 6.52051 33.7988 7.07567 33.7988 7.76051C33.7988 8.44534 34.354 9.00051 35.0388 9.00051Z" fill="white"/>
<path d="M35.0388 11.48C35.7237 11.48 36.2788 10.9248 36.2788 10.24C36.2788 9.55517 35.7237 9 35.0388 9C34.354 9 33.7988 9.55517 33.7988 10.24C33.7988 10.9248 34.354 11.48 35.0388 11.48Z" fill="white"/>
<path d="M35.0388 16.44C35.7237 16.44 36.2788 15.8848 36.2788 15.2C36.2788 14.5151 35.7237 13.96 35.0388 13.96C34.354 13.96 33.7988 14.5151 33.7988 15.2C33.7988 15.8848 34.354 16.44 35.0388 16.44Z" fill="white"/>
<path d="M35.0388 21.3999C35.7237 21.3999 36.2788 20.8448 36.2788 20.1599C36.2788 19.4751 35.7237 18.9199 35.0388 18.9199C34.354 18.9199 33.7988 19.4751 33.7988 20.1599C33.7988 20.8448 34.354 21.3999 35.0388 21.3999Z" fill="white"/>
<path d="M35.0388 26.3601C35.7237 26.3601 36.2788 25.805 36.2788 25.1201C36.2788 24.4353 35.7237 23.8801 35.0388 23.8801C34.354 23.8801 33.7988 24.4353 33.7988 25.1201C33.7988 25.805 34.354 26.3601 35.0388 26.3601Z" fill="white"/>
<path d="M35.0388 38.76C35.7237 38.76 36.2788 38.2049 36.2788 37.52C36.2788 36.8352 35.7237 36.28 35.0388 36.28C34.354 36.28 33.7988 36.8352 33.7988 37.52C33.7988 38.2049 34.354 38.76 35.0388 38.76Z" fill="white"/>
<path d="M35.0388 46.1997C35.7237 46.1997 36.2788 45.6446 36.2788 44.9597C36.2788 44.2749 35.7237 43.7197 35.0388 43.7197C34.354 43.7197 33.7988 44.2749 33.7988 44.9597C33.7988 45.6446 34.354 46.1997 35.0388 46.1997Z" fill="white"/>
<path d="M35.0388 48.68C35.7237 48.68 36.2788 48.1248 36.2788 47.44C36.2788 46.7551 35.7237 46.2 35.0388 46.2C34.354 46.2 33.7988 46.7551 33.7988 47.44C33.7988 48.1248 34.354 48.68 35.0388 48.68Z" fill="white"/>
<path d="M35.0388 51.1597C35.7237 51.1597 36.2788 50.6045 36.2788 49.9197C36.2788 49.2349 35.7237 48.6797 35.0388 48.6797C34.354 48.6797 33.7988 49.2349 33.7988 49.9197C33.7988 50.6045 34.354 51.1597 35.0388 51.1597Z" fill="white"/>
<path d="M35.0388 53.6402C35.7237 53.6402 36.2788 53.085 36.2788 52.4002C36.2788 51.7153 35.7237 51.1602 35.0388 51.1602C34.354 51.1602 33.7988 51.7153 33.7988 52.4002C33.7988 53.085 34.354 53.6402 35.0388 53.6402Z" fill="white"/>
<path d="M35.0388 63.5601C35.7237 63.5601 36.2788 63.0049 36.2788 62.3201C36.2788 61.6352 35.7237 61.0801 35.0388 61.0801C34.354 61.0801 33.7988 61.6352 33.7988 62.3201C33.7988 63.0049 34.354 63.5601 35.0388 63.5601Z" fill="white"/>
<path d="M35.0388 75.9605C35.7237 75.9605 36.2788 75.4053 36.2788 74.7205C36.2788 74.0356 35.7237 73.4805 35.0388 73.4805C34.354 73.4805 33.7988 74.0356 33.7988 74.7205C33.7988 75.4053 34.354 75.9605 35.0388 75.9605Z" fill="white"/>
<path d="M37.5193 6.52004C38.2041 6.52004 38.7593 5.96487 38.7593 5.28004C38.7593 4.59521 38.2041 4.04004 37.5193 4.04004C36.8345 4.04004 36.2793 4.59521 36.2793 5.28004C36.2793 5.96487 36.8345 6.52004 37.5193 6.52004Z" fill="white"/>
<path d="M37.5193 11.48C38.2041 11.48 38.7593 10.9248 38.7593 10.24C38.7593 9.55517 38.2041 9 37.5193 9C36.8345 9 36.2793 9.55517 36.2793 10.24C36.2793 10.9248 36.8345 11.48 37.5193 11.48Z" fill="white"/>
<path d="M37.5193 18.9204C38.2041 18.9204 38.7593 18.3653 38.7593 17.6804C38.7593 16.9956 38.2041 16.4404 37.5193 16.4404C36.8345 16.4404 36.2793 16.9956 36.2793 17.6804C36.2793 18.3653 36.8345 18.9204 37.5193 18.9204Z" fill="white"/>
<path d="M37.5193 23.8804C38.2041 23.8804 38.7593 23.3252 38.7593 22.6404C38.7593 21.9556 38.2041 21.4004 37.5193 21.4004C36.8345 21.4004 36.2793 21.9556 36.2793 22.6404C36.2793 23.3252 36.8345 23.8804 37.5193 23.8804Z" fill="white"/>
<path d="M37.5193 26.3601C38.2041 26.3601 38.7593 25.805 38.7593 25.1201C38.7593 24.4353 38.2041 23.8801 37.5193 23.8801C36.8345 23.8801 36.2793 24.4353 36.2793 25.1201C36.2793 25.805 36.8345 26.3601 37.5193 26.3601Z" fill="white"/>
<path d="M37.5193 28.8404C38.2041 28.8404 38.7593 28.2852 38.7593 27.6004C38.7593 26.9155 38.2041 26.3604 37.5193 26.3604C36.8345 26.3604 36.2793 26.9155 36.2793 27.6004C36.2793 28.2852 36.8345 28.8404 37.5193 28.8404Z" fill="white"/>
<path d="M37.5193 33.8003C38.2041 33.8003 38.7593 33.2451 38.7593 32.5603C38.7593 31.8755 38.2041 31.3203 37.5193 31.3203C36.8345 31.3203 36.2793 31.8755 36.2793 32.5603C36.2793 33.2451 36.8345 33.8003 37.5193 33.8003Z" fill="white"/>
<path d="M37.5193 38.76C38.2041 38.76 38.7593 38.2049 38.7593 37.52C38.7593 36.8352 38.2041 36.28 37.5193 36.28C36.8345 36.28 36.2793 36.8352 36.2793 37.52C36.2793 38.2049 36.8345 38.76 37.5193 38.76Z" fill="white"/>
<path d="M37.5193 43.72C38.2041 43.72 38.7593 43.1648 38.7593 42.48C38.7593 41.7952 38.2041 41.24 37.5193 41.24C36.8345 41.24 36.2793 41.7952 36.2793 42.48C36.2793 43.1648 36.8345 43.72 37.5193 43.72Z" fill="white"/>
<path d="M37.5193 48.68C38.2041 48.68 38.7593 48.1248 38.7593 47.44C38.7593 46.7551 38.2041 46.2 37.5193 46.2C36.8345 46.2 36.2793 46.7551 36.2793 47.44C36.2793 48.1248 36.8345 48.68 37.5193 48.68Z" fill="white"/>
<path d="M37.5193 51.1597C38.2041 51.1597 38.7593 50.6045 38.7593 49.9197C38.7593 49.2349 38.2041 48.6797 37.5193 48.6797C36.8345 48.6797 36.2793 49.2349 36.2793 49.9197C36.2793 50.6045 36.8345 51.1597 37.5193 51.1597Z" fill="white"/>
<path d="M37.5193 61.0796C38.2041 61.0796 38.7593 60.5244 38.7593 59.8396C38.7593 59.1548 38.2041 58.5996 37.5193 58.5996C36.8345 58.5996 36.2793 59.1548 36.2793 59.8396C36.2793 60.5244 36.8345 61.0796 37.5193 61.0796Z" fill="white"/>
<path d="M37.5193 66.0396C38.2041 66.0396 38.7593 65.4844 38.7593 64.7996C38.7593 64.1147 38.2041 63.5596 37.5193 63.5596C36.8345 63.5596 36.2793 64.1147 36.2793 64.7996C36.2793 65.4844 36.8345 66.0396 37.5193 66.0396Z" fill="white"/>
<path d="M37.5193 71.0005C38.2041 71.0005 38.7593 70.4453 38.7593 69.7605C38.7593 69.0757 38.2041 68.5205 37.5193 68.5205C36.8345 68.5205 36.2793 69.0757 36.2793 69.7605C36.2793 70.4453 36.8345 71.0005 37.5193 71.0005Z" fill="white"/>
<path d="M39.9998 6.52004C40.6846 6.52004 41.2398 5.96487 41.2398 5.28004C41.2398 4.59521 40.6846 4.04004 39.9998 4.04004C39.3149 4.04004 38.7598 4.59521 38.7598 5.28004C38.7598 5.96487 39.3149 6.52004 39.9998 6.52004Z" fill="white"/>
<path d="M39.9998 9.00051C40.6846 9.00051 41.2398 8.44534 41.2398 7.76051C41.2398 7.07567 40.6846 6.52051 39.9998 6.52051C39.3149 6.52051 38.7598 7.07567 38.7598 7.76051C38.7598 8.44534 39.3149 9.00051 39.9998 9.00051Z" fill="white"/>
<path d="M39.9998 13.9605C40.6846 13.9605 41.2398 13.4053 41.2398 12.7205C41.2398 12.0356 40.6846 11.4805 39.9998 11.4805C39.3149 11.4805 38.7598 12.0356 38.7598 12.7205C38.7598 13.4053 39.3149 13.9605 39.9998 13.9605Z" fill="white"/>
<path d="M39.9998 18.9204C40.6846 18.9204 41.2398 18.3653 41.2398 17.6804C41.2398 16.9956 40.6846 16.4404 39.9998 16.4404C39.3149 16.4404 38.7598 16.9956 38.7598 17.6804C38.7598 18.3653 39.3149 18.9204 39.9998 18.9204Z" fill="white"/>
<path d="M39.9998 21.3999C40.6846 21.3999 41.2398 20.8448 41.2398 20.1599C41.2398 19.4751 40.6846 18.9199 39.9998 18.9199C39.3149 18.9199 38.7598 19.4751 38.7598 20.1599C38.7598 20.8448 39.3149 21.3999 39.9998 21.3999Z" fill="white"/>
<path d="M39.9998 23.8804C40.6846 23.8804 41.2398 23.3252 41.2398 22.6404C41.2398 21.9556 40.6846 21.4004 39.9998 21.4004C39.3149 21.4004 38.7598 21.9556 38.7598 22.6404C38.7598 23.3252 39.3149 23.8804 39.9998 23.8804Z" fill="white"/>
<path d="M39.9998 31.3201C40.6846 31.3201 41.2398 30.7649 41.2398 30.0801C41.2398 29.3953 40.6846 28.8401 39.9998 28.8401C39.3149 28.8401 38.7598 29.3953 38.7598 30.0801C38.7598 30.7649 39.3149 31.3201 39.9998 31.3201Z" fill="white"/>
<path d="M39.9998 33.8003C40.6846 33.8003 41.2398 33.2451 41.2398 32.5603C41.2398 31.8755 40.6846 31.3203 39.9998 31.3203C39.3149 31.3203 38.7598 31.8755 38.7598 32.5603C38.7598 33.2451 39.3149 33.8003 39.9998 33.8003Z" fill="white"/>
<path d="M39.9998 38.76C40.6846 38.76 41.2398 38.2049 41.2398 37.52C41.2398 36.8352 40.6846 36.28 39.9998 36.28C39.3149 36.28 38.7598 36.8352 38.7598 37.52C38.7598 38.2049 39.3149 38.76 39.9998 38.76Z" fill="white"/>
<path d="M39.9998 46.1997C40.6846 46.1997 41.2398 45.6446 41.2398 44.9597C41.2398 44.2749 40.6846 43.7197 39.9998 43.7197C39.3149 43.7197 38.7598 44.2749 38.7598 44.9597C38.7598 45.6446 39.3149 46.1997 39.9998 46.1997Z" fill="white"/>
<path d="M39.9998 51.1597C40.6846 51.1597 41.2398 50.6045 41.2398 49.9197C41.2398 49.2349 40.6846 48.6797 39.9998 48.6797C39.3149 48.6797 38.7598 49.2349 38.7598 49.9197C38.7598 50.6045 39.3149 51.1597 39.9998 51.1597Z" fill="white"/>
<path d="M39.9998 56.1196C40.6846 56.1196 41.2398 55.5645 41.2398 54.8796C41.2398 54.1948 40.6846 53.6396 39.9998 53.6396C39.3149 53.6396 38.7598 54.1948 38.7598 54.8796C38.7598 55.5645 39.3149 56.1196 39.9998 56.1196Z" fill="white"/>
<path d="M39.9998 58.6001C40.6846 58.6001 41.2398 58.045 41.2398 57.3601C41.2398 56.6753 40.6846 56.1201 39.9998 56.1201C39.3149 56.1201 38.7598 56.6753 38.7598 57.3601C38.7598 58.045 39.3149 58.6001 39.9998 58.6001Z" fill="white"/>
<path d="M39.9998 66.0396C40.6846 66.0396 41.2398 65.4844 41.2398 64.7996C41.2398 64.1147 40.6846 63.5596 39.9998 63.5596C39.3149 63.5596 38.7598 64.1147 38.7598 64.7996C38.7598 65.4844 39.3149 66.0396 39.9998 66.0396Z" fill="white"/>
<path d="M39.9998 75.9605C40.6846 75.9605 41.2398 75.4053 41.2398 74.7205C41.2398 74.0356 40.6846 73.4805 39.9998 73.4805C39.3149 73.4805 38.7598 74.0356 38.7598 74.7205C38.7598 75.4053 39.3149 75.9605 39.9998 75.9605Z" fill="white"/>
<path d="M42.4783 16.44C43.1631 16.44 43.7183 15.8848 43.7183 15.2C43.7183 14.5151 43.1631 13.96 42.4783 13.96C41.7934 13.96 41.2383 14.5151 41.2383 15.2C41.2383 15.8848 41.7934 16.44 42.4783 16.44Z" fill="white"/>
<path d="M42.4783 18.9204C43.1631 18.9204 43.7183 18.3653 43.7183 17.6804C43.7183 16.9956 43.1631 16.4404 42.4783 16.4404C41.7934 16.4404 41.2383 16.9956 41.2383 17.6804C41.2383 18.3653 41.7934 18.9204 42.4783 18.9204Z" fill="white"/>
<path d="M42.4783 23.8804C43.1631 23.8804 43.7183 23.3252 43.7183 22.6404C43.7183 21.9556 43.1631 21.4004 42.4783 21.4004C41.7934 21.4004 41.2383 21.9556 41.2383 22.6404C41.2383 23.3252 41.7934 23.8804 42.4783 23.8804Z" fill="white"/>
<path d="M42.4783 31.3201C43.1631 31.3201 43.7183 30.7649 43.7183 30.0801C43.7183 29.3953 43.1631 28.8401 42.4783 28.8401C41.7934 28.8401 41.2383 29.3953 41.2383 30.0801C41.2383 30.7649 41.7934 31.3201 42.4783 31.3201Z" fill="white"/>
<path d="M42.4783 33.8003C43.1631 33.8003 43.7183 33.2451 43.7183 32.5603C43.7183 31.8755 43.1631 31.3203 42.4783 31.3203C41.7934 31.3203 41.2383 31.8755 41.2383 32.5603C41.2383 33.2451 41.7934 33.8003 42.4783 33.8003Z" fill="white"/>
<path d="M42.4783 36.28C43.1631 36.28 43.7183 35.7249 43.7183 35.04C43.7183 34.3552 43.1631 33.8 42.4783 33.8C41.7934 33.8 41.2383 34.3552 41.2383 35.04C41.2383 35.7249 41.7934 36.28 42.4783 36.28Z" fill="white"/>
<path d="M42.4783 41.2398C43.1631 41.2398 43.7183 40.6846 43.7183 39.9998C43.7183 39.3149 43.1631 38.7598 42.4783 38.7598C41.7934 38.7598 41.2383 39.3149 41.2383 39.9998C41.2383 40.6846 41.7934 41.2398 42.4783 41.2398Z" fill="white"/>
<path d="M42.4783 58.6001C43.1631 58.6001 43.7183 58.045 43.7183 57.3601C43.7183 56.6753 43.1631 56.1201 42.4783 56.1201C41.7934 56.1201 41.2383 56.6753 41.2383 57.3601C41.2383 58.045 41.7934 58.6001 42.4783 58.6001Z" fill="white"/>
<path d="M42.4783 63.5601C43.1631 63.5601 43.7183 63.0049 43.7183 62.3201C43.7183 61.6352 43.1631 61.0801 42.4783 61.0801C41.7934 61.0801 41.2383 61.6352 41.2383 62.3201C41.2383 63.0049 41.7934 63.5601 42.4783 63.5601Z" fill="white"/>
<path d="M42.4783 68.52C43.1631 68.52 43.7183 67.9649 43.7183 67.28C43.7183 66.5952 43.1631 66.04 42.4783 66.04C41.7934 66.04 41.2383 66.5952 41.2383 67.28C41.2383 67.9649 41.7934 68.52 42.4783 68.52Z" fill="white"/>
<path d="M42.4783 75.9605C43.1631 75.9605 43.7183 75.4053 43.7183 74.7205C43.7183 74.0356 43.1631 73.4805 42.4783 73.4805C41.7934 73.4805 41.2383 74.0356 41.2383 74.7205C41.2383 75.4053 41.7934 75.9605 42.4783 75.9605Z" fill="white"/>
<path d="M44.9588 6.52004C45.6436 6.52004 46.1988 5.96487 46.1988 5.28004C46.1988 4.59521 45.6436 4.04004 44.9588 4.04004C44.2739 4.04004 43.7188 4.59521 43.7188 5.28004C43.7188 5.96487 44.2739 6.52004 44.9588 6.52004Z" fill="white"/>
<path d="M44.9588 11.48C45.6436 11.48 46.1988 10.9248 46.1988 10.24C46.1988 9.55517 45.6436 9 44.9588 9C44.2739 9 43.7188 9.55517 43.7188 10.24C43.7188 10.9248 44.2739 11.48 44.9588 11.48Z" fill="white"/>
<path d="M44.9588 13.9605C45.6436 13.9605 46.1988 13.4053 46.1988 12.7205C46.1988 12.0356 45.6436 11.4805 44.9588 11.4805C44.2739 11.4805 43.7188 12.0356 43.7188 12.7205C43.7188 13.4053 44.2739 13.9605 44.9588 13.9605Z" fill="white"/>
<path d="M44.9588 16.44C45.6436 16.44 46.1988 15.8848 46.1988 15.2C46.1988 14.5151 45.6436 13.96 44.9588 13.96C44.2739 13.96 43.7188 14.5151 43.7188 15.2C43.7188 15.8848 44.2739 16.44 44.9588 16.44Z" fill="white"/>
<path d="M44.9588 21.3999C45.6436 21.3999 46.1988 20.8448 46.1988 20.1599C46.1988 19.4751 45.6436 18.9199 44.9588 18.9199C44.2739 18.9199 43.7188 19.4751 43.7188 20.1599C43.7188 20.8448 44.2739 21.3999 44.9588 21.3999Z" fill="white"/>
<path d="M44.9588 23.8804C45.6436 23.8804 46.1988 23.3252 46.1988 22.6404C46.1988 21.9556 45.6436 21.4004 44.9588 21.4004C44.2739 21.4004 43.7188 21.9556 43.7188 22.6404C43.7188 23.3252 44.2739 23.8804 44.9588 23.8804Z" fill="white"/>
<path d="M44.9588 26.3601C45.6436 26.3601 46.1988 25.805 46.1988 25.1201C46.1988 24.4353 45.6436 23.8801 44.9588 23.8801C44.2739 23.8801 43.7188 24.4353 43.7188 25.1201C43.7188 25.805 44.2739 26.3601 44.9588 26.3601Z" fill="white"/>
<path d="M44.9588 28.8404C45.6436 28.8404 46.1988 28.2852 46.1988 27.6004C46.1988 26.9155 45.6436 26.3604 44.9588 26.3604C44.2739 26.3604 43.7188 26.9155 43.7188 27.6004C43.7188 28.2852 44.2739 28.8404 44.9588 28.8404Z" fill="white"/>
<path d="M44.9588 31.3201C45.6436 31.3201 46.1988 30.7649 46.1988 30.0801C46.1988 29.3953 45.6436 28.8401 44.9588 28.8401C44.2739 28.8401 43.7188 29.3953 43.7188 30.0801C43.7188 30.7649 44.2739 31.3201 44.9588 31.3201Z" fill="white"/>
<path d="M44.9588 33.8003C45.6436 33.8003 46.1988 33.2451 46.1988 32.5603C46.1988 31.8755 45.6436 31.3203 44.9588 31.3203C44.2739 31.3203 43.7188 31.8755 43.7188 32.5603C43.7188 33.2451 44.2739 33.8003 44.9588 33.8003Z" fill="white"/>
<path d="M44.9588 41.2398C45.6436 41.2398 46.1988 40.6846 46.1988 39.9998C46.1988 39.3149 45.6436 38.7598 44.9588 38.7598C44.2739 38.7598 43.7188 39.3149 43.7188 39.9998C43.7188 40.6846 44.2739 41.2398 44.9588 41.2398Z" fill="white"/>
<path d="M44.9588 46.1997C45.6436 46.1997 46.1988 45.6446 46.1988 44.9597C46.1988 44.2749 45.6436 43.7197 44.9588 43.7197C44.2739 43.7197 43.7188 44.2749 43.7188 44.9597C43.7188 45.6446 44.2739 46.1997 44.9588 46.1997Z" fill="white"/>
<path d="M44.9588 53.6402C45.6436 53.6402 46.1988 53.085 46.1988 52.4002C46.1988 51.7153 45.6436 51.1602 44.9588 51.1602C44.2739 51.1602 43.7188 51.7153 43.7188 52.4002C43.7188 53.085 44.2739 53.6402 44.9588 53.6402Z" fill="white"/>
<path d="M44.9588 56.1196C45.6436 56.1196 46.1988 55.5645 46.1988 54.8796C46.1988 54.1948 45.6436 53.6396 44.9588 53.6396C44.2739 53.6396 43.7188 54.1948 43.7188 54.8796C43.7188 55.5645 44.2739 56.1196 44.9588 56.1196Z" fill="white"/>
<path d="M44.9588 58.6001C45.6436 58.6001 46.1988 58.045 46.1988 57.3601C46.1988 56.6753 45.6436 56.1201 44.9588 56.1201C44.2739 56.1201 43.7188 56.6753 43.7188 57.3601C43.7188 58.045 44.2739 58.6001 44.9588 58.6001Z" fill="white"/>
<path d="M44.9588 63.5601C45.6436 63.5601 46.1988 63.0049 46.1988 62.3201C46.1988 61.6352 45.6436 61.0801 44.9588 61.0801C44.2739 61.0801 43.7188 61.6352 43.7188 62.3201C43.7188 63.0049 44.2739 63.5601 44.9588 63.5601Z" fill="white"/>
<path d="M44.9588 66.0396C45.6436 66.0396 46.1988 65.4844 46.1988 64.7996C46.1988 64.1147 45.6436 63.5596 44.9588 63.5596C44.2739 63.5596 43.7188 64.1147 43.7188 64.7996C43.7188 65.4844 44.2739 66.0396 44.9588 66.0396Z" fill="white"/>
<path d="M44.9588 75.9605C45.6436 75.9605 46.1988 75.4053 46.1988 74.7205C46.1988 74.0356 45.6436 73.4805 44.9588 73.4805C44.2739 73.4805 43.7188 74.0356 43.7188 74.7205C43.7188 75.4053 44.2739 75.9605 44.9588 75.9605Z" fill="white"/>
<path d="M47.4392 6.52004C48.1241 6.52004 48.6792 5.96487 48.6792 5.28004C48.6792 4.59521 48.1241 4.04004 47.4392 4.04004C46.7544 4.04004 46.1992 4.59521 46.1992 5.28004C46.1992 5.96487 46.7544 6.52004 47.4392 6.52004Z" fill="white"/>
<path d="M47.4392 11.48C48.1241 11.48 48.6792 10.9248 48.6792 10.24C48.6792 9.55517 48.1241 9 47.4392 9C46.7544 9 46.1992 9.55517 46.1992 10.24C46.1992 10.9248 46.7544 11.48 47.4392 11.48Z" fill="white"/>
<path d="M47.4392 13.9605C48.1241 13.9605 48.6792 13.4053 48.6792 12.7205C48.6792 12.0356 48.1241 11.4805 47.4392 11.4805C46.7544 11.4805 46.1992 12.0356 46.1992 12.7205C46.1992 13.4053 46.7544 13.9605 47.4392 13.9605Z" fill="white"/>
<path d="M47.4392 18.9204C48.1241 18.9204 48.6792 18.3653 48.6792 17.6804C48.6792 16.9956 48.1241 16.4404 47.4392 16.4404C46.7544 16.4404 46.1992 16.9956 46.1992 17.6804C46.1992 18.3653 46.7544 18.9204 47.4392 18.9204Z" fill="white"/>
<path d="M47.4392 23.8804C48.1241 23.8804 48.6792 23.3252 48.6792 22.6404C48.6792 21.9556 48.1241 21.4004 47.4392 21.4004C46.7544 21.4004 46.1992 21.9556 46.1992 22.6404C46.1992 23.3252 46.7544 23.8804 47.4392 23.8804Z" fill="white"/>
<path d="M47.4392 26.3601C48.1241 26.3601 48.6792 25.805 48.6792 25.1201C48.6792 24.4353 48.1241 23.8801 47.4392 23.8801C46.7544 23.8801 46.1992 24.4353 46.1992 25.1201C46.1992 25.805 46.7544 26.3601 47.4392 26.3601Z" fill="white"/>
<path d="M47.4392 33.8003C48.1241 33.8003 48.6792 33.2451 48.6792 32.5603C48.6792 31.8755 48.1241 31.3203 47.4392 31.3203C46.7544 31.3203 46.1992 31.8755 46.1992 32.5603C46.1992 33.2451 46.7544 33.8003 47.4392 33.8003Z" fill="white"/>
<path d="M47.4392 41.2398C48.1241 41.2398 48.6792 40.6846 48.6792 39.9998C48.6792 39.3149 48.1241 38.7598 47.4392 38.7598C46.7544 38.7598 46.1992 39.3149 46.1992 39.9998C46.1992 40.6846 46.7544 41.2398 47.4392 41.2398Z" fill="white"/>
<path d="M47.4392 48.68C48.1241 48.68 48.6792 48.1248 48.6792 47.44C48.6792 46.7551 48.1241 46.2 47.4392 46.2C46.7544 46.2 46.1992 46.7551 46.1992 47.44C46.1992 48.1248 46.7544 48.68 47.4392 48.68Z" fill="white"/>
<path d="M47.4392 51.1597C48.1241 51.1597 48.6792 50.6045 48.6792 49.9197C48.6792 49.2349 48.1241 48.6797 47.4392 48.6797C46.7544 48.6797 46.1992 49.2349 46.1992 49.9197C46.1992 50.6045 46.7544 51.1597 47.4392 51.1597Z" fill="white"/>
<path d="M47.4392 63.5601C48.1241 63.5601 48.6792 63.0049 48.6792 62.3201C48.6792 61.6352 48.1241 61.0801 47.4392 61.0801C46.7544 61.0801 46.1992 61.6352 46.1992 62.3201C46.1992 63.0049 46.7544 63.5601 47.4392 63.5601Z" fill="white"/>
<path d="M47.4392 66.0396C48.1241 66.0396 48.6792 65.4844 48.6792 64.7996C48.6792 64.1147 48.1241 63.5596 47.4392 63.5596C46.7544 63.5596 46.1992 64.1147 46.1992 64.7996C46.1992 65.4844 46.7544 66.0396 47.4392 66.0396Z" fill="white"/>
<path d="M47.4392 71.0005C48.1241 71.0005 48.6792 70.4453 48.6792 69.7605C48.6792 69.0757 48.1241 68.5205 47.4392 68.5205C46.7544 68.5205 46.1992 69.0757 46.1992 69.7605C46.1992 70.4453 46.7544 71.0005 47.4392 71.0005Z" fill="white"/>
<path d="M47.4392 75.9605C48.1241 75.9605 48.6792 75.4053 48.6792 74.7205C48.6792 74.0356 48.1241 73.4805 47.4392 73.4805C46.7544 73.4805 46.1992 74.0356 46.1992 74.7205C46.1992 75.4053 46.7544 75.9605 47.4392 75.9605Z" fill="white"/>
<path d="M49.9197 16.44C50.6045 16.44 51.1597 15.8848 51.1597 15.2C51.1597 14.5151 50.6045 13.96 49.9197 13.96C49.2349 13.96 48.6797 14.5151 48.6797 15.2C48.6797 15.8848 49.2349 16.44 49.9197 16.44Z" fill="white"/>
<path d="M49.9197 18.9204C50.6045 18.9204 51.1597 18.3653 51.1597 17.6804C51.1597 16.9956 50.6045 16.4404 49.9197 16.4404C49.2349 16.4404 48.6797 16.9956 48.6797 17.6804C48.6797 18.3653 49.2349 18.9204 49.9197 18.9204Z" fill="white"/>
<path d="M49.9197 21.3999C50.6045 21.3999 51.1597 20.8448 51.1597 20.1599C51.1597 19.4751 50.6045 18.9199 49.9197 18.9199C49.2349 18.9199 48.6797 19.4751 48.6797 20.1599C48.6797 20.8448 49.2349 21.3999 49.9197 21.3999Z" fill="white"/>
<path d="M49.9197 28.8404C50.6045 28.8404 51.1597 28.2852 51.1597 27.6004C51.1597 26.9155 50.6045 26.3604 49.9197 26.3604C49.2349 26.3604 48.6797 26.9155 48.6797 27.6004C48.6797 28.2852 49.2349 28.8404 49.9197 28.8404Z" fill="white"/>
<path d="M49.9197 36.28C50.6045 36.28 51.1597 35.7249 51.1597 35.04C51.1597 34.3552 50.6045 33.8 49.9197 33.8C49.2349 33.8 48.6797 34.3552 48.6797 35.04C48.6797 35.7249 49.2349 36.28 49.9197 36.28Z" fill="white"/>
<path d="M49.9197 38.76C50.6045 38.76 51.1597 38.2049 51.1597 37.52C51.1597 36.8352 50.6045 36.28 49.9197 36.28C49.2349 36.28 48.6797 36.8352 48.6797 37.52C48.6797 38.2049 49.2349 38.76 49.9197 38.76Z" fill="white"/>
<path d="M49.9197 41.2398C50.6045 41.2398 51.1597 40.6846 51.1597 39.9998C51.1597 39.3149 50.6045 38.7598 49.9197 38.7598C49.2349 38.7598 48.6797 39.3149 48.6797 39.9998C48.6797 40.6846 49.2349 41.2398 49.9197 41.2398Z" fill="white"/>
<path d="M49.9197 43.72C50.6045 43.72 51.1597 43.1648 51.1597 42.48C51.1597 41.7952 50.6045 41.24 49.9197 41.24C49.2349 41.24 48.6797 41.7952 48.6797 42.48C48.6797 43.1648 49.2349 43.72 49.9197 43.72Z" fill="white"/>
<path d="M49.9197 51.1597C50.6045 51.1597 51.1597 50.6045 51.1597 49.9197C51.1597 49.2349 50.6045 48.6797 49.9197 48.6797C49.2349 48.6797 48.6797 49.2349 48.6797 49.9197C48.6797 50.6045 49.2349 51.1597 49.9197 51.1597Z" fill="white"/>
<path d="M49.9197 63.5601C50.6045 63.5601 51.1597 63.0049 51.1597 62.3201C51.1597 61.6352 50.6045 61.0801 49.9197 61.0801C49.2349 61.0801 48.6797 61.6352 48.6797 62.3201C48.6797 63.0049 49.2349 63.5601 49.9197 63.5601Z" fill="white"/>
<path d="M49.9197 68.52C50.6045 68.52 51.1597 67.9649 51.1597 67.28C51.1597 66.5952 50.6045 66.04 49.9197 66.04C49.2349 66.04 48.6797 66.5952 48.6797 67.28C48.6797 67.9649 49.2349 68.52 49.9197 68.52Z" fill="white"/>
<path d="M49.9197 75.9605C50.6045 75.9605 51.1597 75.4053 51.1597 74.7205C51.1597 74.0356 50.6045 73.4805 49.9197 73.4805C49.2349 73.4805 48.6797 74.0356 48.6797 74.7205C48.6797 75.4053 49.2349 75.9605 49.9197 75.9605Z" fill="white"/>
<path d="M52.3982 11.48C53.083 11.48 53.6382 10.9248 53.6382 10.24C53.6382 9.55517 53.083 9 52.3982 9C51.7134 9 51.1582 9.55517 51.1582 10.24C51.1582 10.9248 51.7134 11.48 52.3982 11.48Z" fill="white"/>
<path d="M52.4002 13.9605C53.085 13.9605 53.6402 13.4053 53.6402 12.7205C53.6402 12.0356 53.085 11.4805 52.4002 11.4805C51.7153 11.4805 51.1602 12.0356 51.1602 12.7205C51.1602 13.4053 51.7153 13.9605 52.4002 13.9605Z" fill="white"/>
<path d="M52.3982 16.44C53.083 16.44 53.6382 15.8848 53.6382 15.2C53.6382 14.5151 53.083 13.96 52.3982 13.96C51.7134 13.96 51.1582 14.5151 51.1582 15.2C51.1582 15.8848 51.7134 16.44 52.3982 16.44Z" fill="white"/>
<path d="M52.4002 23.8804C53.085 23.8804 53.6402 23.3252 53.6402 22.6404C53.6402 21.9556 53.085 21.4004 52.4002 21.4004C51.7153 21.4004 51.1602 21.9556 51.1602 22.6404C51.1602 23.3252 51.7153 23.8804 52.4002 23.8804Z" fill="white"/>
<path d="M52.3982 31.3201C53.083 31.3201 53.6382 30.7649 53.6382 30.0801C53.6382 29.3953 53.083 28.8401 52.3982 28.8401C51.7134 28.8401 51.1582 29.3953 51.1582 30.0801C51.1582 30.7649 51.7134 31.3201 52.3982 31.3201Z" fill="white"/>
<path d="M52.4002 33.8003C53.085 33.8003 53.6402 33.2451 53.6402 32.5603C53.6402 31.8755 53.085 31.3203 52.4002 31.3203C51.7153 31.3203 51.1602 31.8755 51.1602 32.5603C51.1602 33.2451 51.7153 33.8003 52.4002 33.8003Z" fill="white"/>
<path d="M52.3982 36.28C53.083 36.28 53.6382 35.7249 53.6382 35.04C53.6382 34.3552 53.083 33.8 52.3982 33.8C51.7134 33.8 51.1582 34.3552 51.1582 35.04C51.1582 35.7249 51.7134 36.28 52.3982 36.28Z" fill="white"/>
<path d="M52.3982 38.76C53.083 38.76 53.6382 38.2049 53.6382 37.52C53.6382 36.8352 53.083 36.28 52.3982 36.28C51.7134 36.28 51.1582 36.8352 51.1582 37.52C51.1582 38.2049 51.7134 38.76 52.3982 38.76Z" fill="white"/>
<path d="M52.4002 41.2398C53.085 41.2398 53.6402 40.6846 53.6402 39.9998C53.6402 39.3149 53.085 38.7598 52.4002 38.7598C51.7153 38.7598 51.1602 39.3149 51.1602 39.9998C51.1602 40.6846 51.7153 41.2398 52.4002 41.2398Z" fill="white"/>
<path d="M52.3982 43.72C53.083 43.72 53.6382 43.1648 53.6382 42.48C53.6382 41.7952 53.083 41.24 52.3982 41.24C51.7134 41.24 51.1582 41.7952 51.1582 42.48C51.1582 43.1648 51.7134 43.72 52.3982 43.72Z" fill="white"/>
<path d="M52.4002 46.1997C53.085 46.1997 53.6402 45.6446 53.6402 44.9597C53.6402 44.2749 53.085 43.7197 52.4002 43.7197C51.7153 43.7197 51.1602 44.2749 51.1602 44.9597C51.1602 45.6446 51.7153 46.1997 52.4002 46.1997Z" fill="white"/>
<path d="M52.3982 48.68C53.083 48.68 53.6382 48.1248 53.6382 47.44C53.6382 46.7551 53.083 46.2 52.3982 46.2C51.7134 46.2 51.1582 46.7551 51.1582 47.44C51.1582 48.1248 51.7134 48.68 52.3982 48.68Z" fill="white"/>
<path d="M52.3982 53.6402C53.083 53.6402 53.6382 53.085 53.6382 52.4002C53.6382 51.7153 53.083 51.1602 52.3982 51.1602C51.7134 51.1602 51.1582 51.7153 51.1582 52.4002C51.1582 53.085 51.7134 53.6402 52.3982 53.6402Z" fill="white"/>
<path d="M52.3982 73.48C53.083 73.48 53.6382 72.9248 53.6382 72.24C53.6382 71.5552 53.083 71 52.3982 71C51.7134 71 51.1582 71.5552 51.1582 72.24C51.1582 72.9248 51.7134 73.48 52.3982 73.48Z" fill="white"/>
<path d="M54.8787 6.52004C55.5635 6.52004 56.1187 5.96487 56.1187 5.28004C56.1187 4.59521 55.5635 4.04004 54.8787 4.04004C54.1938 4.04004 53.6387 4.59521 53.6387 5.28004C53.6387 5.96487 54.1938 6.52004 54.8787 6.52004Z" fill="white"/>
<path d="M54.8787 9.00051C55.5635 9.00051 56.1187 8.44534 56.1187 7.76051C56.1187 7.07567 55.5635 6.52051 54.8787 6.52051C54.1938 6.52051 53.6387 7.07567 53.6387 7.76051C53.6387 8.44534 54.1938 9.00051 54.8787 9.00051Z" fill="white"/>
<path d="M54.8787 11.48C55.5635 11.48 56.1187 10.9248 56.1187 10.24C56.1187 9.55517 55.5635 9 54.8787 9C54.1938 9 53.6387 9.55517 53.6387 10.24C53.6387 10.9248 54.1938 11.48 54.8787 11.48Z" fill="white"/>
<path d="M54.8787 16.44C55.5635 16.44 56.1187 15.8848 56.1187 15.2C56.1187 14.5151 55.5635 13.96 54.8787 13.96C54.1938 13.96 53.6387 14.5151 53.6387 15.2C53.6387 15.8848 54.1938 16.44 54.8787 16.44Z" fill="white"/>
<path d="M54.8787 21.3999C55.5635 21.3999 56.1187 20.8448 56.1187 20.1599C56.1187 19.4751 55.5635 18.9199 54.8787 18.9199C54.1938 18.9199 53.6387 19.4751 53.6387 20.1599C53.6387 20.8448 54.1938 21.3999 54.8787 21.3999Z" fill="white"/>
<path d="M54.8787 26.3601C55.5635 26.3601 56.1187 25.805 56.1187 25.1201C56.1187 24.4353 55.5635 23.8801 54.8787 23.8801C54.1938 23.8801 53.6387 24.4353 53.6387 25.1201C53.6387 25.805 54.1938 26.3601 54.8787 26.3601Z" fill="white"/>
<path d="M54.8787 36.28C55.5635 36.28 56.1187 35.7249 56.1187 35.04C56.1187 34.3552 55.5635 33.8 54.8787 33.8C54.1938 33.8 53.6387 34.3552 53.6387 35.04C53.6387 35.7249 54.1938 36.28 54.8787 36.28Z" fill="white"/>
<path d="M54.8787 38.76C55.5635 38.76 56.1187 38.2049 56.1187 37.52C56.1187 36.8352 55.5635 36.28 54.8787 36.28C54.1938 36.28 53.6387 36.8352 53.6387 37.52C53.6387 38.2049 54.1938 38.76 54.8787 38.76Z" fill="white"/>
<path d="M54.8787 48.68C55.5635 48.68 56.1187 48.1248 56.1187 47.44C56.1187 46.7551 55.5635 46.2 54.8787 46.2C54.1938 46.2 53.6387 46.7551 53.6387 47.44C53.6387 48.1248 54.1938 48.68 54.8787 48.68Z" fill="white"/>
<path d="M54.8787 53.6402C55.5635 53.6402 56.1187 53.085 56.1187 52.4002C56.1187 51.7153 55.5635 51.1602 54.8787 51.1602C54.1938 51.1602 53.6387 51.7153 53.6387 52.4002C53.6387 53.085 54.1938 53.6402 54.8787 53.6402Z" fill="white"/>
<path d="M54.8787 56.1196C55.5635 56.1196 56.1187 55.5645 56.1187 54.8796C56.1187 54.1948 55.5635 53.6396 54.8787 53.6396C54.1938 53.6396 53.6387 54.1948 53.6387 54.8796C53.6387 55.5645 54.1938 56.1196 54.8787 56.1196Z" fill="white"/>
<path d="M54.8787 58.6001C55.5635 58.6001 56.1187 58.045 56.1187 57.3601C56.1187 56.6753 55.5635 56.1201 54.8787 56.1201C54.1938 56.1201 53.6387 56.6753 53.6387 57.3601C53.6387 58.045 54.1938 58.6001 54.8787 58.6001Z" fill="white"/>
<path d="M54.8787 61.0796C55.5635 61.0796 56.1187 60.5244 56.1187 59.8396C56.1187 59.1548 55.5635 58.5996 54.8787 58.5996C54.1938 58.5996 53.6387 59.1548 53.6387 59.8396C53.6387 60.5244 54.1938 61.0796 54.8787 61.0796Z" fill="white"/>
<path d="M54.8787 63.5601C55.5635 63.5601 56.1187 63.0049 56.1187 62.3201C56.1187 61.6352 55.5635 61.0801 54.8787 61.0801C54.1938 61.0801 53.6387 61.6352 53.6387 62.3201C53.6387 63.0049 54.1938 63.5601 54.8787 63.5601Z" fill="white"/>
<path d="M54.8787 66.0396C55.5635 66.0396 56.1187 65.4844 56.1187 64.7996C56.1187 64.1147 55.5635 63.5596 54.8787 63.5596C54.1938 63.5596 53.6387 64.1147 53.6387 64.7996C53.6387 65.4844 54.1938 66.0396 54.8787 66.0396Z" fill="white"/>
<path d="M54.8787 75.9605C55.5635 75.9605 56.1187 75.4053 56.1187 74.7205C56.1187 74.0356 55.5635 73.4805 54.8787 73.4805C54.1938 73.4805 53.6387 74.0356 53.6387 74.7205C53.6387 75.4053 54.1938 75.9605 54.8787 75.9605Z" fill="white"/>
<path d="M57.3591 26.3601C58.044 26.3601 58.5991 25.805 58.5991 25.1201C58.5991 24.4353 58.044 23.8801 57.3591 23.8801C56.6743 23.8801 56.1191 24.4353 56.1191 25.1201C56.1191 25.805 56.6743 26.3601 57.3591 26.3601Z" fill="white"/>
<path d="M57.3591 28.8404C58.044 28.8404 58.5991 28.2852 58.5991 27.6004C58.5991 26.9155 58.044 26.3604 57.3591 26.3604C56.6743 26.3604 56.1191 26.9155 56.1191 27.6004C56.1191 28.2852 56.6743 28.8404 57.3591 28.8404Z" fill="white"/>
<path d="M57.3591 33.8003C58.044 33.8003 58.5991 33.2451 58.5991 32.5603C58.5991 31.8755 58.044 31.3203 57.3591 31.3203C56.6743 31.3203 56.1191 31.8755 56.1191 32.5603C56.1191 33.2451 56.6743 33.8003 57.3591 33.8003Z" fill="white"/>
<path d="M57.3591 38.76C58.044 38.76 58.5991 38.2049 58.5991 37.52C58.5991 36.8352 58.044 36.28 57.3591 36.28C56.6743 36.28 56.1191 36.8352 56.1191 37.52C56.1191 38.2049 56.6743 38.76 57.3591 38.76Z" fill="white"/>
<path d="M57.3591 43.72C58.044 43.72 58.5991 43.1648 58.5991 42.48C58.5991 41.7952 58.044 41.24 57.3591 41.24C56.6743 41.24 56.1191 41.7952 56.1191 42.48C56.1191 43.1648 56.6743 43.72 57.3591 43.72Z" fill="white"/>
<path d="M57.3591 51.1597C58.044 51.1597 58.5991 50.6045 58.5991 49.9197C58.5991 49.2349 58.044 48.6797 57.3591 48.6797C56.6743 48.6797 56.1191 49.2349 56.1191 49.9197C56.1191 50.6045 56.6743 51.1597 57.3591 51.1597Z" fill="white"/>
<path d="M57.3591 56.1196C58.044 56.1196 58.5991 55.5645 58.5991 54.8796C58.5991 54.1948 58.044 53.6396 57.3591 53.6396C56.6743 53.6396 56.1191 54.1948 56.1191 54.8796C56.1191 55.5645 56.6743 56.1196 57.3591 56.1196Z" fill="white"/>
<path d="M57.3591 66.0396C58.044 66.0396 58.5991 65.4844 58.5991 64.7996C58.5991 64.1147 58.044 63.5596 57.3591 63.5596C56.6743 63.5596 56.1191 64.1147 56.1191 64.7996C56.1191 65.4844 56.6743 66.0396 57.3591 66.0396Z" fill="white"/>
<path d="M57.3591 71.0005C58.044 71.0005 58.5991 70.4453 58.5991 69.7605C58.5991 69.0757 58.044 68.5205 57.3591 68.5205C56.6743 68.5205 56.1191 69.0757 56.1191 69.7605C56.1191 70.4453 56.6743 71.0005 57.3591 71.0005Z" fill="white"/>
<path d="M57.3591 73.48C58.044 73.48 58.5991 72.9248 58.5991 72.24C58.5991 71.5552 58.044 71 57.3591 71C56.6743 71 56.1191 71.5552 56.1191 72.24C56.1191 72.9248 56.6743 73.48 57.3591 73.48Z" fill="white"/>
<path d="M59.8396 31.3201C60.5244 31.3201 61.0796 30.7649 61.0796 30.0801C61.0796 29.3953 60.5244 28.8401 59.8396 28.8401C59.1548 28.8401 58.5996 29.3953 58.5996 30.0801C58.5996 30.7649 59.1548 31.3201 59.8396 31.3201Z" fill="white"/>
<path d="M59.8396 33.8003C60.5244 33.8003 61.0796 33.2451 61.0796 32.5603C61.0796 31.8755 60.5244 31.3203 59.8396 31.3203C59.1548 31.3203 58.5996 31.8755 58.5996 32.5603C58.5996 33.2451 59.1548 33.8003 59.8396 33.8003Z" fill="white"/>
<path d="M59.8396 36.28C60.5244 36.28 61.0796 35.7249 61.0796 35.04C61.0796 34.3552 60.5244 33.8 59.8396 33.8C59.1548 33.8 58.5996 34.3552 58.5996 35.04C58.5996 35.7249 59.1548 36.28 59.8396 36.28Z" fill="white"/>
<path d="M59.8396 38.76C60.5244 38.76 61.0796 38.2049 61.0796 37.52C61.0796 36.8352 60.5244 36.28 59.8396 36.28C59.1548 36.28 58.5996 36.8352 58.5996 37.52C58.5996 38.2049 59.1548 38.76 59.8396 38.76Z" fill="white"/>
<path d="M59.8396 43.72C60.5244 43.72 61.0796 43.1648 61.0796 42.48C61.0796 41.7952 60.5244 41.24 59.8396 41.24C59.1548 41.24 58.5996 41.7952 58.5996 42.48C58.5996 43.1648 59.1548 43.72 59.8396 43.72Z" fill="white"/>
<path d="M59.8396 48.68C60.5244 48.68 61.0796 48.1248 61.0796 47.44C61.0796 46.7551 60.5244 46.2 59.8396 46.2C59.1548 46.2 58.5996 46.7551 58.5996 47.44C58.5996 48.1248 59.1548 48.68 59.8396 48.68Z" fill="white"/>
<path d="M59.8396 53.6402C60.5244 53.6402 61.0796 53.085 61.0796 52.4002C61.0796 51.7153 60.5244 51.1602 59.8396 51.1602C59.1548 51.1602 58.5996 51.7153 58.5996 52.4002C58.5996 53.085 59.1548 53.6402 59.8396 53.6402Z" fill="white"/>
<path d="M59.8396 56.1196C60.5244 56.1196 61.0796 55.5645 61.0796 54.8796C61.0796 54.1948 60.5244 53.6396 59.8396 53.6396C59.1548 53.6396 58.5996 54.1948 58.5996 54.8796C58.5996 55.5645 59.1548 56.1196 59.8396 56.1196Z" fill="white"/>
<path d="M59.8396 61.0796C60.5244 61.0796 61.0796 60.5244 61.0796 59.8396C61.0796 59.1548 60.5244 58.5996 59.8396 58.5996C59.1548 58.5996 58.5996 59.1548 58.5996 59.8396C58.5996 60.5244 59.1548 61.0796 59.8396 61.0796Z" fill="white"/>
<path d="M59.8396 66.0396C60.5244 66.0396 61.0796 65.4844 61.0796 64.7996C61.0796 64.1147 60.5244 63.5596 59.8396 63.5596C59.1548 63.5596 58.5996 64.1147 58.5996 64.7996C58.5996 65.4844 59.1548 66.0396 59.8396 66.0396Z" fill="white"/>
<path d="M59.8396 75.9605C60.5244 75.9605 61.0796 75.4053 61.0796 74.7205C61.0796 74.0356 60.5244 73.4805 59.8396 73.4805C59.1548 73.4805 58.5996 74.0356 58.5996 74.7205C58.5996 75.4053 59.1548 75.9605 59.8396 75.9605Z" fill="white"/>
<path d="M62.3181 28.8404C63.003 28.8404 63.5581 28.2852 63.5581 27.6004C63.5581 26.9155 63.003 26.3604 62.3181 26.3604C61.6333 26.3604 61.0781 26.9155 61.0781 27.6004C61.0781 28.2852 61.6333 28.8404 62.3181 28.8404Z" fill="white"/>
<path d="M62.3181 38.76C63.003 38.76 63.5581 38.2049 63.5581 37.52C63.5581 36.8352 63.003 36.28 62.3181 36.28C61.6333 36.28 61.0781 36.8352 61.0781 37.52C61.0781 38.2049 61.6333 38.76 62.3181 38.76Z" fill="white"/>
<path d="M62.3181 48.68C63.003 48.68 63.5581 48.1248 63.5581 47.44C63.5581 46.7551 63.003 46.2 62.3181 46.2C61.6333 46.2 61.0781 46.7551 61.0781 47.44C61.0781 48.1248 61.6333 48.68 62.3181 48.68Z" fill="white"/>
<path d="M62.3181 51.1597C63.003 51.1597 63.5581 50.6045 63.5581 49.9197C63.5581 49.2349 63.003 48.6797 62.3181 48.6797C61.6333 48.6797 61.0781 49.2349 61.0781 49.9197C61.0781 50.6045 61.6333 51.1597 62.3181 51.1597Z" fill="white"/>
<path d="M62.3181 53.6402C63.003 53.6402 63.5581 53.085 63.5581 52.4002C63.5581 51.7153 63.003 51.1602 62.3181 51.1602C61.6333 51.1602 61.0781 51.7153 61.0781 52.4002C61.0781 53.085 61.6333 53.6402 62.3181 53.6402Z" fill="white"/>
<path d="M62.3181 56.1196C63.003 56.1196 63.5581 55.5645 63.5581 54.8796C63.5581 54.1948 63.003 53.6396 62.3181 53.6396C61.6333 53.6396 61.0781 54.1948 61.0781 54.8796C61.0781 55.5645 61.6333 56.1196 62.3181 56.1196Z" fill="white"/>
<path d="M62.3181 66.0396C63.003 66.0396 63.5581 65.4844 63.5581 64.7996C63.5581 64.1147 63.003 63.5596 62.3181 63.5596C61.6333 63.5596 61.0781 64.1147 61.0781 64.7996C61.0781 65.4844 61.6333 66.0396 62.3181 66.0396Z" fill="white"/>
<path d="M62.3181 68.52C63.003 68.52 63.5581 67.9649 63.5581 67.28C63.5581 66.5952 63.003 66.04 62.3181 66.04C61.6333 66.04 61.0781 66.5952 61.0781 67.28C61.0781 67.9649 61.6333 68.52 62.3181 68.52Z" fill="white"/>
<path d="M64.7986 26.3601C65.4834 26.3601 66.0386 25.805 66.0386 25.1201C66.0386 24.4353 65.4834 23.8801 64.7986 23.8801C64.1138 23.8801 63.5586 24.4353 63.5586 25.1201C63.5586 25.805 64.1138 26.3601 64.7986 26.3601Z" fill="white"/>
<path d="M64.7986 28.8404C65.4834 28.8404 66.0386 28.2852 66.0386 27.6004C66.0386 26.9155 65.4834 26.3604 64.7986 26.3604C64.1138 26.3604 63.5586 26.9155 63.5586 27.6004C63.5586 28.2852 64.1138 28.8404 64.7986 28.8404Z" fill="white"/>
<path d="M64.7986 33.8003C65.4834 33.8003 66.0386 33.2451 66.0386 32.5603C66.0386 31.8755 65.4834 31.3203 64.7986 31.3203C64.1138 31.3203 63.5586 31.8755 63.5586 32.5603C63.5586 33.2451 64.1138 33.8003 64.7986 33.8003Z" fill="white"/>
<path d="M64.7986 38.76C65.4834 38.76 66.0386 38.2049 66.0386 37.52C66.0386 36.8352 65.4834 36.28 64.7986 36.28C64.1138 36.28 63.5586 36.8352 63.5586 37.52C63.5586 38.2049 64.1138 38.76 64.7986 38.76Z" fill="white"/>
<path d="M64.7986 41.2398C65.4834 41.2398 66.0386 40.6846 66.0386 39.9998C66.0386 39.3149 65.4834 38.7598 64.7986 38.7598C64.1138 38.7598 63.5586 39.3149 63.5586 39.9998C63.5586 40.6846 64.1138 41.2398 64.7986 41.2398Z" fill="white"/>
<path d="M64.7986 43.72C65.4834 43.72 66.0386 43.1648 66.0386 42.48C66.0386 41.7952 65.4834 41.24 64.7986 41.24C64.1138 41.24 63.5586 41.7952 63.5586 42.48C63.5586 43.1648 64.1138 43.72 64.7986 43.72Z" fill="white"/>
<path d="M64.7986 51.1597C65.4834 51.1597 66.0386 50.6045 66.0386 49.9197C66.0386 49.2349 65.4834 48.6797 64.7986 48.6797C64.1138 48.6797 63.5586 49.2349 63.5586 49.9197C63.5586 50.6045 64.1138 51.1597 64.7986 51.1597Z" fill="white"/>
<path d="M64.7986 53.6402C65.4834 53.6402 66.0386 53.085 66.0386 52.4002C66.0386 51.7153 65.4834 51.1602 64.7986 51.1602C64.1138 51.1602 63.5586 51.7153 63.5586 52.4002C63.5586 53.085 64.1138 53.6402 64.7986 53.6402Z" fill="white"/>
<path d="M64.7986 56.1196C65.4834 56.1196 66.0386 55.5645 66.0386 54.8796C66.0386 54.1948 65.4834 53.6396 64.7986 53.6396C64.1138 53.6396 63.5586 54.1948 63.5586 54.8796C63.5586 55.5645 64.1138 56.1196 64.7986 56.1196Z" fill="white"/>
<path d="M64.7986 58.6001C65.4834 58.6001 66.0386 58.045 66.0386 57.3601C66.0386 56.6753 65.4834 56.1201 64.7986 56.1201C64.1138 56.1201 63.5586 56.6753 63.5586 57.3601C63.5586 58.045 64.1138 58.6001 64.7986 58.6001Z" fill="white"/>
<path d="M64.7986 61.0796C65.4834 61.0796 66.0386 60.5244 66.0386 59.8396C66.0386 59.1548 65.4834 58.5996 64.7986 58.5996C64.1138 58.5996 63.5586 59.1548 63.5586 59.8396C63.5586 60.5244 64.1138 61.0796 64.7986 61.0796Z" fill="white"/>
<path d="M64.7986 63.5601C65.4834 63.5601 66.0386 63.0049 66.0386 62.3201C66.0386 61.6352 65.4834 61.0801 64.7986 61.0801C64.1138 61.0801 63.5586 61.6352 63.5586 62.3201C63.5586 63.0049 64.1138 63.5601 64.7986 63.5601Z" fill="white"/>
<path d="M64.7986 66.0396C65.4834 66.0396 66.0386 65.4844 66.0386 64.7996C66.0386 64.1147 65.4834 63.5596 64.7986 63.5596C64.1138 63.5596 63.5586 64.1147 63.5586 64.7996C63.5586 65.4844 64.1138 66.0396 64.7986 66.0396Z" fill="white"/>
<path d="M64.7986 73.48C65.4834 73.48 66.0386 72.9248 66.0386 72.24C66.0386 71.5552 65.4834 71 64.7986 71C64.1138 71 63.5586 71.5552 63.5586 72.24C63.5586 72.9248 64.1138 73.48 64.7986 73.48Z" fill="white"/>
<path d="M64.7986 75.9605C65.4834 75.9605 66.0386 75.4053 66.0386 74.7205C66.0386 74.0356 65.4834 73.4805 64.7986 73.4805C64.1138 73.4805 63.5586 74.0356 63.5586 74.7205C63.5586 75.4053 64.1138 75.9605 64.7986 75.9605Z" fill="white"/>
<path d="M67.2791 31.3201C67.9639 31.3201 68.5191 30.7649 68.5191 30.0801C68.5191 29.3953 67.9639 28.8401 67.2791 28.8401C66.5942 28.8401 66.0391 29.3953 66.0391 30.0801C66.0391 30.7649 66.5942 31.3201 67.2791 31.3201Z" fill="white"/>
<path d="M67.2791 33.8003C67.9639 33.8003 68.5191 33.2451 68.5191 32.5603C68.5191 31.8755 67.9639 31.3203 67.2791 31.3203C66.5942 31.3203 66.0391 31.8755 66.0391 32.5603C66.0391 33.2451 66.5942 33.8003 67.2791 33.8003Z" fill="white"/>
<path d="M67.2791 46.1997C67.9639 46.1997 68.5191 45.6446 68.5191 44.9597C68.5191 44.2749 67.9639 43.7197 67.2791 43.7197C66.5942 43.7197 66.0391 44.2749 66.0391 44.9597C66.0391 45.6446 66.5942 46.1997 67.2791 46.1997Z" fill="white"/>
<path d="M67.2791 48.68C67.9639 48.68 68.5191 48.1248 68.5191 47.44C68.5191 46.7551 67.9639 46.2 67.2791 46.2C66.5942 46.2 66.0391 46.7551 66.0391 47.44C66.0391 48.1248 66.5942 48.68 67.2791 48.68Z" fill="white"/>
<path d="M67.2791 63.5601C67.9639 63.5601 68.5191 63.0049 68.5191 62.3201C68.5191 61.6352 67.9639 61.0801 67.2791 61.0801C66.5942 61.0801 66.0391 61.6352 66.0391 62.3201C66.0391 63.0049 66.5942 63.5601 67.2791 63.5601Z" fill="white"/>
<path d="M67.2791 68.52C67.9639 68.52 68.5191 67.9649 68.5191 67.28C68.5191 66.5952 67.9639 66.04 67.2791 66.04C66.5942 66.04 66.0391 66.5952 66.0391 67.28C66.0391 67.9649 66.5942 68.52 67.2791 68.52Z" fill="white"/>
<path d="M67.2791 71.0005C67.9639 71.0005 68.5191 70.4453 68.5191 69.7605C68.5191 69.0757 67.9639 68.5205 67.2791 68.5205C66.5942 68.5205 66.0391 69.0757 66.0391 69.7605C66.0391 70.4453 66.5942 71.0005 67.2791 71.0005Z" fill="white"/>
<path d="M67.2791 73.48C67.9639 73.48 68.5191 72.9248 68.5191 72.24C68.5191 71.5552 67.9639 71 67.2791 71C66.5942 71 66.0391 71.5552 66.0391 72.24C66.0391 72.9248 66.5942 73.48 67.2791 73.48Z" fill="white"/>
<path d="M69.7595 36.28C70.4444 36.28 70.9995 35.7249 70.9995 35.04C70.9995 34.3552 70.4444 33.8 69.7595 33.8C69.0747 33.8 68.5195 34.3552 68.5195 35.04C68.5195 35.7249 69.0747 36.28 69.7595 36.28Z" fill="white"/>
<path d="M69.7595 38.76C70.4444 38.76 70.9995 38.2049 70.9995 37.52C70.9995 36.8352 70.4444 36.28 69.7595 36.28C69.0747 36.28 68.5195 36.8352 68.5195 37.52C68.5195 38.2049 69.0747 38.76 69.7595 38.76Z" fill="white"/>
<path d="M69.7595 41.2398C70.4444 41.2398 70.9995 40.6846 70.9995 39.9998C70.9995 39.3149 70.4444 38.7598 69.7595 38.7598C69.0747 38.7598 68.5195 39.3149 68.5195 39.9998C68.5195 40.6846 69.0747 41.2398 69.7595 41.2398Z" fill="white"/>
<path d="M69.7595 46.1997C70.4444 46.1997 70.9995 45.6446 70.9995 44.9597C70.9995 44.2749 70.4444 43.7197 69.7595 43.7197C69.0747 43.7197 68.5195 44.2749 68.5195 44.9597C68.5195 45.6446 69.0747 46.1997 69.7595 46.1997Z" fill="white"/>
<path d="M69.7595 48.68C70.4444 48.68 70.9995 48.1248 70.9995 47.44C70.9995 46.7551 70.4444 46.2 69.7595 46.2C69.0747 46.2 68.5195 46.7551 68.5195 47.44C68.5195 48.1248 69.0747 48.68 69.7595 48.68Z" fill="white"/>
<path d="M69.7595 53.6402C70.4444 53.6402 70.9995 53.085 70.9995 52.4002C70.9995 51.7153 70.4444 51.1602 69.7595 51.1602C69.0747 51.1602 68.5195 51.7153 68.5195 52.4002C68.5195 53.085 69.0747 53.6402 69.7595 53.6402Z" fill="white"/>
<path d="M69.7595 56.1196C70.4444 56.1196 70.9995 55.5645 70.9995 54.8796C70.9995 54.1948 70.4444 53.6396 69.7595 53.6396C69.0747 53.6396 68.5195 54.1948 68.5195 54.8796C68.5195 55.5645 69.0747 56.1196 69.7595 56.1196Z" fill="white"/>
<path d="M69.7595 58.6001C70.4444 58.6001 70.9995 58.045 70.9995 57.3601C70.9995 56.6753 70.4444 56.1201 69.7595 56.1201C69.0747 56.1201 68.5195 56.6753 68.5195 57.3601C68.5195 58.045 69.0747 58.6001 69.7595 58.6001Z" fill="white"/>
<path d="M69.7595 68.52C70.4444 68.52 70.9995 67.9649 70.9995 67.28C70.9995 66.5952 70.4444 66.04 69.7595 66.04C69.0747 66.04 68.5195 66.5952 68.5195 67.28C68.5195 67.9649 69.0747 68.52 69.7595 68.52Z" fill="white"/>
<path d="M69.7595 71.0005C70.4444 71.0005 70.9995 70.4453 70.9995 69.7605C70.9995 69.0757 70.4444 68.5205 69.7595 68.5205C69.0747 68.5205 68.5195 69.0757 68.5195 69.7605C68.5195 70.4453 69.0747 71.0005 69.7595 71.0005Z" fill="white"/>
<path d="M69.7595 73.48C70.4444 73.48 70.9995 72.9248 70.9995 72.24C70.9995 71.5552 70.4444 71 69.7595 71C69.0747 71 68.5195 71.5552 68.5195 72.24C68.5195 72.9248 69.0747 73.48 69.7595 73.48Z" fill="white"/>
<path d="M69.7595 75.9605C70.4444 75.9605 70.9995 75.4053 70.9995 74.7205C70.9995 74.0356 70.4444 73.4805 69.7595 73.4805C69.0747 73.4805 68.5195 74.0356 68.5195 74.7205C68.5195 75.4053 69.0747 75.9605 69.7595 75.9605Z" fill="white"/>
<path d="M72.24 26.3601C72.9248 26.3601 73.48 25.805 73.48 25.1201C73.48 24.4353 72.9248 23.8801 72.24 23.8801C71.5552 23.8801 71 24.4353 71 25.1201C71 25.805 71.5552 26.3601 72.24 26.3601Z" fill="white"/>
<path d="M72.24 28.8404C72.9248 28.8404 73.48 28.2852 73.48 27.6004C73.48 26.9155 72.9248 26.3604 72.24 26.3604C71.5552 26.3604 71 26.9155 71 27.6004C71 28.2852 71.5552 28.8404 72.24 28.8404Z" fill="white"/>
<path d="M72.24 33.8003C72.9248 33.8003 73.48 33.2451 73.48 32.5603C73.48 31.8755 72.9248 31.3203 72.24 31.3203C71.5552 31.3203 71 31.8755 71 32.5603C71 33.2451 71.5552 33.8003 72.24 33.8003Z" fill="white"/>
<path d="M72.24 36.28C72.9248 36.28 73.48 35.7249 73.48 35.04C73.48 34.3552 72.9248 33.8 72.24 33.8C71.5552 33.8 71 34.3552 71 35.04C71 35.7249 71.5552 36.28 72.24 36.28Z" fill="white"/>
<path d="M72.24 41.2398C72.9248 41.2398 73.48 40.6846 73.48 39.9998C73.48 39.3149 72.9248 38.7598 72.24 38.7598C71.5552 38.7598 71 39.3149 71 39.9998C71 40.6846 71.5552 41.2398 72.24 41.2398Z" fill="white"/>
<path d="M72.24 48.68C72.9248 48.68 73.48 48.1248 73.48 47.44C73.48 46.7551 72.9248 46.2 72.24 46.2C71.5552 46.2 71 46.7551 71 47.44C71 48.1248 71.5552 48.68 72.24 48.68Z" fill="white"/>
<path d="M72.24 51.1597C72.9248 51.1597 73.48 50.6045 73.48 49.9197C73.48 49.2349 72.9248 48.6797 72.24 48.6797C71.5552 48.6797 71 49.2349 71 49.9197C71 50.6045 71.5552 51.1597 72.24 51.1597Z" fill="white"/>
<path d="M72.24 53.6402C72.9248 53.6402 73.48 53.085 73.48 52.4002C73.48 51.7153 72.9248 51.1602 72.24 51.1602C71.5552 51.1602 71 51.7153 71 52.4002C71 53.085 71.5552 53.6402 72.24 53.6402Z" fill="white"/>
<path d="M72.24 56.1196C72.9248 56.1196 73.48 55.5645 73.48 54.8796C73.48 54.1948 72.9248 53.6396 72.24 53.6396C71.5552 53.6396 71 54.1948 71 54.8796C71 55.5645 71.5552 56.1196 72.24 56.1196Z" fill="white"/>
<path d="M72.24 58.6001C72.9248 58.6001 73.48 58.045 73.48 57.3601C73.48 56.6753 72.9248 56.1201 72.24 56.1201C71.5552 56.1201 71 56.6753 71 57.3601C71 58.045 71.5552 58.6001 72.24 58.6001Z" fill="white"/>
<path d="M72.24 61.0796C72.9248 61.0796 73.48 60.5244 73.48 59.8396C73.48 59.1548 72.9248 58.5996 72.24 58.5996C71.5552 58.5996 71 59.1548 71 59.8396C71 60.5244 71.5552 61.0796 72.24 61.0796Z" fill="white"/>
<path d="M72.24 63.5601C72.9248 63.5601 73.48 63.0049 73.48 62.3201C73.48 61.6352 72.9248 61.0801 72.24 61.0801C71.5552 61.0801 71 61.6352 71 62.3201C71 63.0049 71.5552 63.5601 72.24 63.5601Z" fill="white"/>
<path d="M72.24 68.52C72.9248 68.52 73.48 67.9649 73.48 67.28C73.48 66.5952 72.9248 66.04 72.24 66.04C71.5552 66.04 71 66.5952 71 67.28C71 67.9649 71.5552 68.52 72.24 68.52Z" fill="white"/>
<path d="M72.24 73.48C72.9248 73.48 73.48 72.9248 73.48 72.24C73.48 71.5552 72.9248 71 72.24 71C71.5552 71 71 71.5552 71 72.24C71 72.9248 71.5552 73.48 72.24 73.48Z" fill="white"/>
<path d="M72.24 75.9605C72.9248 75.9605 73.48 75.4053 73.48 74.7205C73.48 74.0356 72.9248 73.4805 72.24 73.4805C71.5552 73.4805 71 74.0356 71 74.7205C71 75.4053 71.5552 75.9605 72.24 75.9605Z" fill="white"/>
<path d="M74.7185 28.8404C75.4033 28.8404 75.9585 28.2852 75.9585 27.6004C75.9585 26.9155 75.4033 26.3604 74.7185 26.3604C74.0337 26.3604 73.4785 26.9155 73.4785 27.6004C73.4785 28.2852 74.0337 28.8404 74.7185 28.8404Z" fill="white"/>
<path d="M74.7185 41.2398C75.4033 41.2398 75.9585 40.6846 75.9585 39.9998C75.9585 39.3149 75.4033 38.7598 74.7185 38.7598C74.0337 38.7598 73.4785 39.3149 73.4785 39.9998C73.4785 40.6846 74.0337 41.2398 74.7185 41.2398Z" fill="white"/>
<path d="M74.7185 43.72C75.4033 43.72 75.9585 43.1648 75.9585 42.48C75.9585 41.7952 75.4033 41.24 74.7185 41.24C74.0337 41.24 73.4785 41.7952 73.4785 42.48C73.4785 43.1648 74.0337 43.72 74.7185 43.72Z" fill="white"/>
<path d="M74.7185 48.68C75.4033 48.68 75.9585 48.1248 75.9585 47.44C75.9585 46.7551 75.4033 46.2 74.7185 46.2C74.0337 46.2 73.4785 46.7551 73.4785 47.44C73.4785 48.1248 74.0337 48.68 74.7185 48.68Z" fill="white"/>
<path d="M74.7185 56.1196C75.4033 56.1196 75.9585 55.5645 75.9585 54.8796C75.9585 54.1948 75.4033 53.6396 74.7185 53.6396C74.0337 53.6396 73.4785 54.1948 73.4785 54.8796C73.4785 55.5645 74.0337 56.1196 74.7185 56.1196Z" fill="white"/>
<path d="M74.7185 58.6001C75.4033 58.6001 75.9585 58.045 75.9585 57.3601C75.9585 56.6753 75.4033 56.1201 74.7185 56.1201C74.0337 56.1201 73.4785 56.6753 73.4785 57.3601C73.4785 58.045 74.0337 58.6001 74.7185 58.6001Z" fill="white"/>
<path d="M74.7185 66.0396C75.4033 66.0396 75.9585 65.4844 75.9585 64.7996C75.9585 64.1147 75.4033 63.5596 74.7185 63.5596C74.0337 63.5596 73.4785 64.1147 73.4785 64.7996C73.4785 65.4844 74.0337 66.0396 74.7185 66.0396Z" fill="white"/>
<path d="M74.7185 68.52C75.4033 68.52 75.9585 67.9649 75.9585 67.28C75.9585 66.5952 75.4033 66.04 74.7185 66.04C74.0337 66.04 73.4785 66.5952 73.4785 67.28C73.4785 67.9649 74.0337 68.52 74.7185 68.52Z" fill="white"/>
<path d="M74.7185 71.0005C75.4033 71.0005 75.9585 70.4453 75.9585 69.7605C75.9585 69.0757 75.4033 68.5205 74.7185 68.5205C74.0337 68.5205 73.4785 69.0757 73.4785 69.7605C73.4785 70.4453 74.0337 71.0005 74.7185 71.0005Z" fill="white"/>
<path d="M74.7185 73.48C75.4033 73.48 75.9585 72.9248 75.9585 72.24C75.9585 71.5552 75.4033 71 74.7185 71C74.0337 71 73.4785 71.5552 73.4785 72.24C73.4785 72.9248 74.0337 73.48 74.7185 73.48Z" fill="white"/>
</mask>
<g mask="url(#mask0_787_32177)">
<path d="M75.9591 4.04004H4.03906V75.96H75.9591V4.04004Z" fill="#7F775B"/>
</g>
<mask id="mask1_787_32177" style="mask-type:luminance" maskUnits="userSpaceOnUse" x="4" y="4" width="18" height="18">
<path d="M5.27906 6.52004C5.9639 6.52004 6.51906 5.96487 6.51906 5.28004C6.51906 4.59521 5.9639 4.04004 5.27906 4.04004C4.59423 4.04004 4.03906 4.59521 4.03906 5.28004C4.03906 5.96487 4.59423 6.52004 5.27906 6.52004Z" fill="white"/>
<path d="M5.27906 9.00051C5.9639 9.00051 6.51906 8.44534 6.51906 7.76051C6.51906 7.07567 5.9639 6.52051 5.27906 6.52051C4.59423 6.52051 4.03906 7.07567 4.03906 7.76051C4.03906 8.44534 4.59423 9.00051 5.27906 9.00051Z" fill="white"/>
<path d="M5.27906 11.48C5.9639 11.48 6.51906 10.9248 6.51906 10.24C6.51906 9.55517 5.9639 9 5.27906 9C4.59423 9 4.03906 9.55517 4.03906 10.24C4.03906 10.9248 4.59423 11.48 5.27906 11.48Z" fill="white"/>
<path d="M5.27906 13.9605C5.9639 13.9605 6.51906 13.4053 6.51906 12.7205C6.51906 12.0356 5.9639 11.4805 5.27906 11.4805C4.59423 11.4805 4.03906 12.0356 4.03906 12.7205C4.03906 13.4053 4.59423 13.9605 5.27906 13.9605Z" fill="white"/>
<path d="M5.27906 16.44C5.9639 16.44 6.51906 15.8848 6.51906 15.2C6.51906 14.5151 5.9639 13.96 5.27906 13.96C4.59423 13.96 4.03906 14.5151 4.03906 15.2C4.03906 15.8848 4.59423 16.44 5.27906 16.44Z" fill="white"/>
<path d="M5.27906 18.9204C5.9639 18.9204 6.51906 18.3653 6.51906 17.6804C6.51906 16.9956 5.9639 16.4404 5.27906 16.4404C4.59423 16.4404 4.03906 16.9956 4.03906 17.6804C4.03906 18.3653 4.59423 18.9204 5.27906 18.9204Z" fill="white"/>
<path d="M5.27906 21.3999C5.9639 21.3999 6.51906 20.8448 6.51906 20.1599C6.51906 19.4751 5.9639 18.9199 5.27906 18.9199C4.59423 18.9199 4.03906 19.4751 4.03906 20.1599C4.03906 20.8448 4.59423 21.3999 5.27906 21.3999Z" fill="white"/>
<path d="M7.75953 6.52004C8.44436 6.52004 8.99953 5.96487 8.99953 5.28004C8.99953 4.59521 8.44436 4.04004 7.75953 4.04004C7.0747 4.04004 6.51953 4.59521 6.51953 5.28004C6.51953 5.96487 7.0747 6.52004 7.75953 6.52004Z" fill="white"/>
<path d="M7.75953 21.3999C8.44436 21.3999 8.99953 20.8448 8.99953 20.1599C8.99953 19.4751 8.44436 18.9199 7.75953 18.9199C7.0747 18.9199 6.51953 19.4751 6.51953 20.1599C6.51953 20.8448 7.0747 21.3999 7.75953 21.3999Z" fill="white"/>
<path d="M10.24 6.52004C10.9248 6.52004 11.48 5.96487 11.48 5.28004C11.48 4.59521 10.9248 4.04004 10.24 4.04004C9.55517 4.04004 9 4.59521 9 5.28004C9 5.96487 9.55517 6.52004 10.24 6.52004Z" fill="white"/>
<path d="M10.24 21.3999C10.9248 21.3999 11.48 20.8448 11.48 20.1599C11.48 19.4751 10.9248 18.9199 10.24 18.9199C9.55517 18.9199 9 19.4751 9 20.1599C9 20.8448 9.55517 21.3999 10.24 21.3999Z" fill="white"/>
<path d="M12.7185 6.52004C13.4033 6.52004 13.9585 5.96487 13.9585 5.28004C13.9585 4.59521 13.4033 4.04004 12.7185 4.04004C12.0337 4.04004 11.4785 4.59521 11.4785 5.28004C11.4785 5.96487 12.0337 6.52004 12.7185 6.52004Z" fill="white"/>
<path d="M12.7185 21.3999C13.4033 21.3999 13.9585 20.8448 13.9585 20.1599C13.9585 19.4751 13.4033 18.9199 12.7185 18.9199C12.0337 18.9199 11.4785 19.4751 11.4785 20.1599C11.4785 20.8448 12.0337 21.3999 12.7185 21.3999Z" fill="white"/>
<path d="M15.199 6.52004C15.8838 6.52004 16.439 5.96487 16.439 5.28004C16.439 4.59521 15.8838 4.04004 15.199 4.04004C14.5142 4.04004 13.959 4.59521 13.959 5.28004C13.959 5.96487 14.5142 6.52004 15.199 6.52004Z" fill="white"/>
<path d="M15.199 21.3999C15.8838 21.3999 16.439 20.8448 16.439 20.1599C16.439 19.4751 15.8838 18.9199 15.199 18.9199C14.5142 18.9199 13.959 19.4751 13.959 20.1599C13.959 20.8448 14.5142 21.3999 15.199 21.3999Z" fill="white"/>
<path d="M17.6795 6.52004C18.3643 6.52004 18.9195 5.96487 18.9195 5.28004C18.9195 4.59521 18.3643 4.04004 17.6795 4.04004C16.9946 4.04004 16.4395 4.59521 16.4395 5.28004C16.4395 5.96487 16.9946 6.52004 17.6795 6.52004Z" fill="white"/>
<path d="M17.6795 21.3999C18.3643 21.3999 18.9195 20.8448 18.9195 20.1599C18.9195 19.4751 18.3643 18.9199 17.6795 18.9199C16.9946 18.9199 16.4395 19.4751 16.4395 20.1599C16.4395 20.8448 16.9946 21.3999 17.6795 21.3999Z" fill="white"/>
<path d="M20.1599 6.52004C20.8448 6.52004 21.3999 5.96487 21.3999 5.28004C21.3999 4.59521 20.8448 4.04004 20.1599 4.04004C19.4751 4.04004 18.9199 4.59521 18.9199 5.28004C18.9199 5.96487 19.4751 6.52004 20.1599 6.52004Z" fill="white"/>
<path d="M20.158 9.00051C20.8428 9.00051 21.398 8.44534 21.398 7.76051C21.398 7.07567 20.8428 6.52051 20.158 6.52051C19.4731 6.52051 18.918 7.07567 18.918 7.76051C18.918 8.44534 19.4731 9.00051 20.158 9.00051Z" fill="white"/>
<path d="M20.1599 11.48C20.8448 11.48 21.3999 10.9248 21.3999 10.24C21.3999 9.55517 20.8448 9 20.1599 9C19.4751 9 18.9199 9.55517 18.9199 10.24C18.9199 10.9248 19.4751 11.48 20.1599 11.48Z" fill="white"/>
<path d="M20.158 13.9605C20.8428 13.9605 21.398 13.4053 21.398 12.7205C21.398 12.0356 20.8428 11.4805 20.158 11.4805C19.4731 11.4805 18.918 12.0356 18.918 12.7205C18.918 13.4053 19.4731 13.9605 20.158 13.9605Z" fill="white"/>
<path d="M20.1599 16.44C20.8448 16.44 21.3999 15.8848 21.3999 15.2C21.3999 14.5151 20.8448 13.96 20.1599 13.96C19.4751 13.96 18.9199 14.5151 18.9199 15.2C18.9199 15.8848 19.4751 16.44 20.1599 16.44Z" fill="white"/>
<path d="M20.158 18.9204C20.8428 18.9204 21.398 18.3653 21.398 17.6804C21.398 16.9956 20.8428 16.4404 20.158 16.4404C19.4731 16.4404 18.918 16.9956 18.918 17.6804C18.918 18.3653 19.4731 18.9204 20.158 18.9204Z" fill="white"/>
<path d="M20.1599 21.3999C20.8448 21.3999 21.3999 20.8448 21.3999 20.1599C21.3999 19.4751 20.8448 18.9199 20.1599 18.9199C19.4751 18.9199 18.9199 19.4751 18.9199 20.1599C18.9199 20.8448 19.4751 21.3999 20.1599 21.3999Z" fill="white"/>
</mask>
<g mask="url(#mask1_787_32177)">
<path d="M21.3991 4.04004H4.03906V21.4H21.3991V4.04004Z" fill="black"/>
</g>
<mask id="mask2_787_32177" style="mask-type:luminance" maskUnits="userSpaceOnUse" x="9" y="9" width="8" height="8">
<path d="M10.24 11.48C10.9248 11.48 11.48 10.9248 11.48 10.24C11.48 9.55517 10.9248 9 10.24 9C9.55517 9 9 9.55517 9 10.24C9 10.9248 9.55517 11.48 10.24 11.48Z" fill="white"/>
<path d="M10.24 13.9605C10.9248 13.9605 11.48 13.4053 11.48 12.7205C11.48 12.0356 10.9248 11.4805 10.24 11.4805C9.55517 11.4805 9 12.0356 9 12.7205C9 13.4053 9.55517 13.9605 10.24 13.9605Z" fill="white"/>
<path d="M10.24 16.44C10.9248 16.44 11.48 15.8848 11.48 15.2C11.48 14.5151 10.9248 13.96 10.24 13.96C9.55517 13.96 9 14.5151 9 15.2C9 15.8848 9.55517 16.44 10.24 16.44Z" fill="white"/>
<path d="M12.7205 11.48C13.4053 11.48 13.9605 10.9248 13.9605 10.24C13.9605 9.55517 13.4053 9 12.7205 9C12.0356 9 11.4805 9.55517 11.4805 10.24C11.4805 10.9248 12.0356 11.48 12.7205 11.48Z" fill="white"/>
<path d="M12.7205 13.9605C13.4053 13.9605 13.9605 13.4053 13.9605 12.7205C13.9605 12.0356 13.4053 11.4805 12.7205 11.4805C12.0356 11.4805 11.4805 12.0356 11.4805 12.7205C11.4805 13.4053 12.0356 13.9605 12.7205 13.9605Z" fill="white"/>
<path d="M12.7205 16.44C13.4053 16.44 13.9605 15.8848 13.9605 15.2C13.9605 14.5151 13.4053 13.96 12.7205 13.96C12.0356 13.96 11.4805 14.5151 11.4805 15.2C11.4805 15.8848 12.0356 16.44 12.7205 16.44Z" fill="white"/>
<path d="M15.2009 11.48C15.8858 11.48 16.4409 10.9248 16.4409 10.24C16.4409 9.55517 15.8858 9 15.2009 9C14.5161 9 13.9609 9.55517 13.9609 10.24C13.9609 10.9248 14.5161 11.48 15.2009 11.48Z" fill="white"/>
<path d="M15.2009 13.9605C15.8858 13.9605 16.4409 13.4053 16.4409 12.7205C16.4409 12.0356 15.8858 11.4805 15.2009 11.4805C14.5161 11.4805 13.9609 12.0356 13.9609 12.7205C13.9609 13.4053 14.5161 13.9605 15.2009 13.9605Z" fill="white"/>
<path d="M15.2009 16.44C15.8858 16.44 16.4409 15.8848 16.4409 15.2C16.4409 14.5151 15.8858 13.96 15.2009 13.96C14.5161 13.96 13.9609 14.5151 13.9609 15.2C13.9609 15.8848 14.5161 16.44 15.2009 16.44Z" fill="white"/>
</mask>
<g mask="url(#mask2_787_32177)">
<path d="M16.44 9H9V16.44H16.44V9Z" fill="black"/>
</g>
<mask id="mask3_787_32177" style="mask-type:luminance" maskUnits="userSpaceOnUse" x="58" y="4" width="18" height="18">
<path d="M59.8396 6.52004C60.5244 6.52004 61.0796 5.96487 61.0796 5.28004C61.0796 4.59521 60.5244 4.04004 59.8396 4.04004C59.1548 4.04004 58.5996 4.59521 58.5996 5.28004C58.5996 5.96487 59.1548 6.52004 59.8396 6.52004Z" fill="white"/>
<path d="M59.8396 9.00051C60.5244 9.00051 61.0796 8.44534 61.0796 7.76051C61.0796 7.07567 60.5244 6.52051 59.8396 6.52051C59.1548 6.52051 58.5996 7.07567 58.5996 7.76051C58.5996 8.44534 59.1548 9.00051 59.8396 9.00051Z" fill="white"/>
<path d="M59.8396 11.48C60.5244 11.48 61.0796 10.9248 61.0796 10.24C61.0796 9.55517 60.5244 9 59.8396 9C59.1548 9 58.5996 9.55517 58.5996 10.24C58.5996 10.9248 59.1548 11.48 59.8396 11.48Z" fill="white"/>
<path d="M59.8396 13.9605C60.5244 13.9605 61.0796 13.4053 61.0796 12.7205C61.0796 12.0356 60.5244 11.4805 59.8396 11.4805C59.1548 11.4805 58.5996 12.0356 58.5996 12.7205C58.5996 13.4053 59.1548 13.9605 59.8396 13.9605Z" fill="white"/>
<path d="M59.8396 16.44C60.5244 16.44 61.0796 15.8848 61.0796 15.2C61.0796 14.5151 60.5244 13.96 59.8396 13.96C59.1548 13.96 58.5996 14.5151 58.5996 15.2C58.5996 15.8848 59.1548 16.44 59.8396 16.44Z" fill="white"/>
<path d="M59.8396 18.9204C60.5244 18.9204 61.0796 18.3653 61.0796 17.6804C61.0796 16.9956 60.5244 16.4404 59.8396 16.4404C59.1548 16.4404 58.5996 16.9956 58.5996 17.6804C58.5996 18.3653 59.1548 18.9204 59.8396 18.9204Z" fill="white"/>
<path d="M59.8396 21.3999C60.5244 21.3999 61.0796 20.8448 61.0796 20.1599C61.0796 19.4751 60.5244 18.9199 59.8396 18.9199C59.1548 18.9199 58.5996 19.4751 58.5996 20.1599C58.5996 20.8448 59.1548 21.3999 59.8396 21.3999Z" fill="white"/>
<path d="M62.3201 6.52004C63.0049 6.52004 63.5601 5.96487 63.5601 5.28004C63.5601 4.59521 63.0049 4.04004 62.3201 4.04004C61.6352 4.04004 61.0801 4.59521 61.0801 5.28004C61.0801 5.96487 61.6352 6.52004 62.3201 6.52004Z" fill="white"/>
<path d="M62.3201 21.3999C63.0049 21.3999 63.5601 20.8448 63.5601 20.1599C63.5601 19.4751 63.0049 18.9199 62.3201 18.9199C61.6352 18.9199 61.0801 19.4751 61.0801 20.1599C61.0801 20.8448 61.6352 21.3999 62.3201 21.3999Z" fill="white"/>
<path d="M64.8005 6.52004C65.4854 6.52004 66.0405 5.96487 66.0405 5.28004C66.0405 4.59521 65.4854 4.04004 64.8005 4.04004C64.1157 4.04004 63.5605 4.59521 63.5605 5.28004C63.5605 5.96487 64.1157 6.52004 64.8005 6.52004Z" fill="white"/>
<path d="M64.8005 21.3999C65.4854 21.3999 66.0405 20.8448 66.0405 20.1599C66.0405 19.4751 65.4854 18.9199 64.8005 18.9199C64.1157 18.9199 63.5605 19.4751 63.5605 20.1599C63.5605 20.8448 64.1157 21.3999 64.8005 21.3999Z" fill="white"/>
<path d="M67.2791 6.52004C67.9639 6.52004 68.5191 5.96487 68.5191 5.28004C68.5191 4.59521 67.9639 4.04004 67.2791 4.04004C66.5942 4.04004 66.0391 4.59521 66.0391 5.28004C66.0391 5.96487 66.5942 6.52004 67.2791 6.52004Z" fill="white"/>
<path d="M67.2791 21.3999C67.9639 21.3999 68.5191 20.8448 68.5191 20.1599C68.5191 19.4751 67.9639 18.9199 67.2791 18.9199C66.5942 18.9199 66.0391 19.4751 66.0391 20.1599C66.0391 20.8448 66.5942 21.3999 67.2791 21.3999Z" fill="white"/>
<path d="M69.7595 6.52004C70.4444 6.52004 70.9995 5.96487 70.9995 5.28004C70.9995 4.59521 70.4444 4.04004 69.7595 4.04004C69.0747 4.04004 68.5195 4.59521 68.5195 5.28004C68.5195 5.96487 69.0747 6.52004 69.7595 6.52004Z" fill="white"/>
<path d="M69.7595 21.3999C70.4444 21.3999 70.9995 20.8448 70.9995 20.1599C70.9995 19.4751 70.4444 18.9199 69.7595 18.9199C69.0747 18.9199 68.5195 19.4751 68.5195 20.1599C68.5195 20.8448 69.0747 21.3999 69.7595 21.3999Z" fill="white"/>
<path d="M72.24 6.52004C72.9248 6.52004 73.48 5.96487 73.48 5.28004C73.48 4.59521 72.9248 4.04004 72.24 4.04004C71.5552 4.04004 71 4.59521 71 5.28004C71 5.96487 71.5552 6.52004 72.24 6.52004Z" fill="white"/>
<path d="M72.24 21.3999C72.9248 21.3999 73.48 20.8448 73.48 20.1599C73.48 19.4751 72.9248 18.9199 72.24 18.9199C71.5552 18.9199 71 19.4751 71 20.1599C71 20.8448 71.5552 21.3999 72.24 21.3999Z" fill="white"/>
<path d="M74.7205 6.52004C75.4053 6.52004 75.9605 5.96487 75.9605 5.28004C75.9605 4.59521 75.4053 4.04004 74.7205 4.04004C74.0356 4.04004 73.4805 4.59521 73.4805 5.28004C73.4805 5.96487 74.0356 6.52004 74.7205 6.52004Z" fill="white"/>
<path d="M74.7205 9.00051C75.4053 9.00051 75.9605 8.44534 75.9605 7.76051C75.9605 7.07567 75.4053 6.52051 74.7205 6.52051C74.0356 6.52051 73.4805 7.07567 73.4805 7.76051C73.4805 8.44534 74.0356 9.00051 74.7205 9.00051Z" fill="white"/>
<path d="M74.7205 11.48C75.4053 11.48 75.9605 10.9248 75.9605 10.24C75.9605 9.55517 75.4053 9 74.7205 9C74.0356 9 73.4805 9.55517 73.4805 10.24C73.4805 10.9248 74.0356 11.48 74.7205 11.48Z" fill="white"/>
<path d="M74.7205 13.9605C75.4053 13.9605 75.9605 13.4053 75.9605 12.7205C75.9605 12.0356 75.4053 11.4805 74.7205 11.4805C74.0356 11.4805 73.4805 12.0356 73.4805 12.7205C73.4805 13.4053 74.0356 13.9605 74.7205 13.9605Z" fill="white"/>
<path d="M74.7205 16.44C75.4053 16.44 75.9605 15.8848 75.9605 15.2C75.9605 14.5151 75.4053 13.96 74.7205 13.96C74.0356 13.96 73.4805 14.5151 73.4805 15.2C73.4805 15.8848 74.0356 16.44 74.7205 16.44Z" fill="white"/>
<path d="M74.7205 18.9204C75.4053 18.9204 75.9605 18.3653 75.9605 17.6804C75.9605 16.9956 75.4053 16.4404 74.7205 16.4404C74.0356 16.4404 73.4805 16.9956 73.4805 17.6804C73.4805 18.3653 74.0356 18.9204 74.7205 18.9204Z" fill="white"/>
<path d="M74.7205 21.3999C75.4053 21.3999 75.9605 20.8448 75.9605 20.1599C75.9605 19.4751 75.4053 18.9199 74.7205 18.9199C74.0356 18.9199 73.4805 19.4751 73.4805 20.1599C73.4805 20.8448 74.0356 21.3999 74.7205 21.3999Z" fill="white"/>
</mask>
<g mask="url(#mask3_787_32177)">
<path d="M75.9596 4.04004H58.5996V21.4H75.9596V4.04004Z" fill="black"/>
</g>
<mask id="mask4_787_32177" style="mask-type:luminance" maskUnits="userSpaceOnUse" x="63" y="9" width="9" height="8">
<path d="M64.8005 11.48C65.4854 11.48 66.0405 10.9248 66.0405 10.24C66.0405 9.55517 65.4854 9 64.8005 9C64.1157 9 63.5605 9.55517 63.5605 10.24C63.5605 10.9248 64.1157 11.48 64.8005 11.48Z" fill="white"/>
<path d="M64.8005 13.9605C65.4854 13.9605 66.0405 13.4053 66.0405 12.7205C66.0405 12.0356 65.4854 11.4805 64.8005 11.4805C64.1157 11.4805 63.5605 12.0356 63.5605 12.7205C63.5605 13.4053 64.1157 13.9605 64.8005 13.9605Z" fill="white"/>
<path d="M64.8005 16.44C65.4854 16.44 66.0405 15.8848 66.0405 15.2C66.0405 14.5151 65.4854 13.96 64.8005 13.96C64.1157 13.96 63.5605 14.5151 63.5605 15.2C63.5605 15.8848 64.1157 16.44 64.8005 16.44Z" fill="white"/>
<path d="M67.281 11.48C67.9658 11.48 68.521 10.9248 68.521 10.24C68.521 9.55517 67.9658 9 67.281 9C66.5962 9 66.041 9.55517 66.041 10.24C66.041 10.9248 66.5962 11.48 67.281 11.48Z" fill="white"/>
<path d="M67.281 13.9605C67.9658 13.9605 68.521 13.4053 68.521 12.7205C68.521 12.0356 67.9658 11.4805 67.281 11.4805C66.5962 11.4805 66.041 12.0356 66.041 12.7205C66.041 13.4053 66.5962 13.9605 67.281 13.9605Z" fill="white"/>
<path d="M67.281 16.44C67.9658 16.44 68.521 15.8848 68.521 15.2C68.521 14.5151 67.9658 13.96 67.281 13.96C66.5962 13.96 66.041 14.5151 66.041 15.2C66.041 15.8848 66.5962 16.44 67.281 16.44Z" fill="white"/>
<path d="M69.7615 11.48C70.4463 11.48 71.0015 10.9248 71.0015 10.24C71.0015 9.55517 70.4463 9 69.7615 9C69.0767 9 68.5215 9.55517 68.5215 10.24C68.5215 10.9248 69.0767 11.48 69.7615 11.48Z" fill="white"/>
<path d="M69.7595 13.9605C70.4444 13.9605 70.9995 13.4053 70.9995 12.7205C70.9995 12.0356 70.4444 11.4805 69.7595 11.4805C69.0747 11.4805 68.5195 12.0356 68.5195 12.7205C68.5195 13.4053 69.0747 13.9605 69.7595 13.9605Z" fill="white"/>
<path d="M69.7615 16.44C70.4463 16.44 71.0015 15.8848 71.0015 15.2C71.0015 14.5151 70.4463 13.96 69.7615 13.96C69.0767 13.96 68.5215 14.5151 68.5215 15.2C68.5215 15.8848 69.0767 16.44 69.7615 16.44Z" fill="white"/>
</mask>
<g mask="url(#mask4_787_32177)">
<path d="M71.0005 9H63.5605V16.44H71.0005V9Z" fill="black"/>
</g>
<mask id="mask5_787_32177" style="mask-type:luminance" maskUnits="userSpaceOnUse" x="4" y="58" width="18" height="18">
<path d="M5.27906 61.0796C5.9639 61.0796 6.51906 60.5244 6.51906 59.8396C6.51906 59.1548 5.9639 58.5996 5.27906 58.5996C4.59423 58.5996 4.03906 59.1548 4.03906 59.8396C4.03906 60.5244 4.59423 61.0796 5.27906 61.0796Z" fill="white"/>
<path d="M5.27906 63.5601C5.9639 63.5601 6.51906 63.0049 6.51906 62.3201C6.51906 61.6352 5.9639 61.0801 5.27906 61.0801C4.59423 61.0801 4.03906 61.6352 4.03906 62.3201C4.03906 63.0049 4.59423 63.5601 5.27906 63.5601Z" fill="white"/>
<path d="M5.27906 66.0396C5.9639 66.0396 6.51906 65.4844 6.51906 64.7996C6.51906 64.1147 5.9639 63.5596 5.27906 63.5596C4.59423 63.5596 4.03906 64.1147 4.03906 64.7996C4.03906 65.4844 4.59423 66.0396 5.27906 66.0396Z" fill="white"/>
<path d="M5.27906 68.52C5.9639 68.52 6.51906 67.9649 6.51906 67.28C6.51906 66.5952 5.9639 66.04 5.27906 66.04C4.59423 66.04 4.03906 66.5952 4.03906 67.28C4.03906 67.9649 4.59423 68.52 5.27906 68.52Z" fill="white"/>
<path d="M5.27906 70.9995C5.9639 70.9995 6.51906 70.4444 6.51906 69.7595C6.51906 69.0747 5.9639 68.5195 5.27906 68.5195C4.59423 68.5195 4.03906 69.0747 4.03906 69.7595C4.03906 70.4444 4.59423 70.9995 5.27906 70.9995Z" fill="white"/>
<path d="M5.27906 73.48C5.9639 73.48 6.51906 72.9248 6.51906 72.24C6.51906 71.5552 5.9639 71 5.27906 71C4.59423 71 4.03906 71.5552 4.03906 72.24C4.03906 72.9248 4.59423 73.48 5.27906 73.48Z" fill="white"/>
<path d="M5.27906 75.9595C5.9639 75.9595 6.51906 75.4043 6.51906 74.7195C6.51906 74.0347 5.9639 73.4795 5.27906 73.4795C4.59423 73.4795 4.03906 74.0347 4.03906 74.7195C4.03906 75.4043 4.59423 75.9595 5.27906 75.9595Z" fill="white"/>
<path d="M7.75953 61.0796C8.44436 61.0796 8.99953 60.5244 8.99953 59.8396C8.99953 59.1548 8.44436 58.5996 7.75953 58.5996C7.0747 58.5996 6.51953 59.1548 6.51953 59.8396C6.51953 60.5244 7.0747 61.0796 7.75953 61.0796Z" fill="white"/>
<path d="M7.75953 75.9595C8.44436 75.9595 8.99953 75.4043 8.99953 74.7195C8.99953 74.0347 8.44436 73.4795 7.75953 73.4795C7.0747 73.4795 6.51953 74.0347 6.51953 74.7195C6.51953 75.4043 7.0747 75.9595 7.75953 75.9595Z" fill="white"/>
<path d="M10.24 61.0796C10.9248 61.0796 11.48 60.5244 11.48 59.8396C11.48 59.1548 10.9248 58.5996 10.24 58.5996C9.55517 58.5996 9 59.1548 9 59.8396C9 60.5244 9.55517 61.0796 10.24 61.0796Z" fill="white"/>
<path d="M10.24 75.9595C10.9248 75.9595 11.48 75.4043 11.48 74.7195C11.48 74.0347 10.9248 73.4795 10.24 73.4795C9.55517 73.4795 9 74.0347 9 74.7195C9 75.4043 9.55517 75.9595 10.24 75.9595Z" fill="white"/>
<path d="M12.7185 61.0796C13.4033 61.0796 13.9585 60.5244 13.9585 59.8396C13.9585 59.1548 13.4033 58.5996 12.7185 58.5996C12.0337 58.5996 11.4785 59.1548 11.4785 59.8396C11.4785 60.5244 12.0337 61.0796 12.7185 61.0796Z" fill="white"/>
<path d="M12.7185 75.9595C13.4033 75.9595 13.9585 75.4043 13.9585 74.7195C13.9585 74.0347 13.4033 73.4795 12.7185 73.4795C12.0337 73.4795 11.4785 74.0347 11.4785 74.7195C11.4785 75.4043 12.0337 75.9595 12.7185 75.9595Z" fill="white"/>
<path d="M15.199 61.0796C15.8838 61.0796 16.439 60.5244 16.439 59.8396C16.439 59.1548 15.8838 58.5996 15.199 58.5996C14.5142 58.5996 13.959 59.1548 13.959 59.8396C13.959 60.5244 14.5142 61.0796 15.199 61.0796Z" fill="white"/>
<path d="M15.199 75.9595C15.8838 75.9595 16.439 75.4043 16.439 74.7195C16.439 74.0347 15.8838 73.4795 15.199 73.4795C14.5142 73.4795 13.959 74.0347 13.959 74.7195C13.959 75.4043 14.5142 75.9595 15.199 75.9595Z" fill="white"/>
<path d="M17.6795 61.0796C18.3643 61.0796 18.9195 60.5244 18.9195 59.8396C18.9195 59.1548 18.3643 58.5996 17.6795 58.5996C16.9946 58.5996 16.4395 59.1548 16.4395 59.8396C16.4395 60.5244 16.9946 61.0796 17.6795 61.0796Z" fill="white"/>
<path d="M17.6795 75.9595C18.3643 75.9595 18.9195 75.4043 18.9195 74.7195C18.9195 74.0347 18.3643 73.4795 17.6795 73.4795C16.9946 73.4795 16.4395 74.0347 16.4395 74.7195C16.4395 75.4043 16.9946 75.9595 17.6795 75.9595Z" fill="white"/>
<path d="M20.1599 61.0796C20.8448 61.0796 21.3999 60.5244 21.3999 59.8396C21.3999 59.1548 20.8448 58.5996 20.1599 58.5996C19.4751 58.5996 18.9199 59.1548 18.9199 59.8396C18.9199 60.5244 19.4751 61.0796 20.1599 61.0796Z" fill="white"/>
<path d="M20.158 63.5601C20.8428 63.5601 21.398 63.0049 21.398 62.3201C21.398 61.6352 20.8428 61.0801 20.158 61.0801C19.4731 61.0801 18.918 61.6352 18.918 62.3201C18.918 63.0049 19.4731 63.5601 20.158 63.5601Z" fill="white"/>
<path d="M20.1599 66.0396C20.8448 66.0396 21.3999 65.4844 21.3999 64.7996C21.3999 64.1147 20.8448 63.5596 20.1599 63.5596C19.4751 63.5596 18.9199 64.1147 18.9199 64.7996C18.9199 65.4844 19.4751 66.0396 20.1599 66.0396Z" fill="white"/>
<path d="M20.158 68.52C20.8428 68.52 21.398 67.9649 21.398 67.28C21.398 66.5952 20.8428 66.04 20.158 66.04C19.4731 66.04 18.918 66.5952 18.918 67.28C18.918 67.9649 19.4731 68.52 20.158 68.52Z" fill="white"/>
<path d="M20.1599 70.9995C20.8448 70.9995 21.3999 70.4444 21.3999 69.7595C21.3999 69.0747 20.8448 68.5195 20.1599 68.5195C19.4751 68.5195 18.9199 69.0747 18.9199 69.7595C18.9199 70.4444 19.4751 70.9995 20.1599 70.9995Z" fill="white"/>
<path d="M20.158 73.48C20.8428 73.48 21.398 72.9248 21.398 72.24C21.398 71.5552 20.8428 71 20.158 71C19.4731 71 18.918 71.5552 18.918 72.24C18.918 72.9248 19.4731 73.48 20.158 73.48Z" fill="white"/>
<path d="M20.1599 75.9595C20.8448 75.9595 21.3999 75.4043 21.3999 74.7195C21.3999 74.0347 20.8448 73.4795 20.1599 73.4795C19.4751 73.4795 18.9199 74.0347 18.9199 74.7195C18.9199 75.4043 19.4751 75.9595 20.1599 75.9595Z" fill="white"/>
</mask>
<g mask="url(#mask5_787_32177)">
<path d="M21.3991 58.5996H4.03906V75.9596H21.3991V58.5996Z" fill="black"/>
</g>
<mask id="mask6_787_32177" style="mask-type:luminance" maskUnits="userSpaceOnUse" x="9" y="63" width="8" height="8">
<path d="M10.24 66.0396C10.9248 66.0396 11.48 65.4844 11.48 64.7996C11.48 64.1147 10.9248 63.5596 10.24 63.5596C9.55517 63.5596 9 64.1147 9 64.7996C9 65.4844 9.55517 66.0396 10.24 66.0396Z" fill="white"/>
<path d="M10.24 68.52C10.9248 68.52 11.48 67.9649 11.48 67.28C11.48 66.5952 10.9248 66.04 10.24 66.04C9.55517 66.04 9 66.5952 9 67.28C9 67.9649 9.55517 68.52 10.24 68.52Z" fill="white"/>
<path d="M10.24 70.9995C10.9248 70.9995 11.48 70.4444 11.48 69.7595C11.48 69.0747 10.9248 68.5195 10.24 68.5195C9.55517 68.5195 9 69.0747 9 69.7595C9 70.4444 9.55517 70.9995 10.24 70.9995Z" fill="white"/>
<path d="M12.7205 66.0396C13.4053 66.0396 13.9605 65.4844 13.9605 64.7996C13.9605 64.1147 13.4053 63.5596 12.7205 63.5596C12.0356 63.5596 11.4805 64.1147 11.4805 64.7996C11.4805 65.4844 12.0356 66.0396 12.7205 66.0396Z" fill="white"/>
<path d="M12.7205 68.52C13.4053 68.52 13.9605 67.9649 13.9605 67.28C13.9605 66.5952 13.4053 66.04 12.7205 66.04C12.0356 66.04 11.4805 66.5952 11.4805 67.28C11.4805 67.9649 12.0356 68.52 12.7205 68.52Z" fill="white"/>
<path d="M12.7205 70.9995C13.4053 70.9995 13.9605 70.4444 13.9605 69.7595C13.9605 69.0747 13.4053 68.5195 12.7205 68.5195C12.0356 68.5195 11.4805 69.0747 11.4805 69.7595C11.4805 70.4444 12.0356 70.9995 12.7205 70.9995Z" fill="white"/>
<path d="M15.2009 66.0396C15.8858 66.0396 16.4409 65.4844 16.4409 64.7996C16.4409 64.1147 15.8858 63.5596 15.2009 63.5596C14.5161 63.5596 13.9609 64.1147 13.9609 64.7996C13.9609 65.4844 14.5161 66.0396 15.2009 66.0396Z" fill="white"/>
<path d="M15.2009 68.52C15.8858 68.52 16.4409 67.9649 16.4409 67.28C16.4409 66.5952 15.8858 66.04 15.2009 66.04C14.5161 66.04 13.9609 66.5952 13.9609 67.28C13.9609 67.9649 14.5161 68.52 15.2009 68.52Z" fill="white"/>
<path d="M15.2009 70.9995C15.8858 70.9995 16.4409 70.4444 16.4409 69.7595C16.4409 69.0747 15.8858 68.5195 15.2009 68.5195C14.5161 68.5195 13.9609 69.0747 13.9609 69.7595C13.9609 70.4444 14.5161 70.9995 15.2009 70.9995Z" fill="white"/>
</mask>
<g mask="url(#mask6_787_32177)">
<path d="M16.44 63.5596H9V70.9996H16.44V63.5596Z" fill="black"/>
</g>
</g>
<defs>
<clipPath id="clip0_787_32177">
<rect width="80" height="80" fill="white"/>
</clipPath>
</defs>
</svg>
