<svg width="280" height="200" viewBox="0 0 280 200" fill="none" xmlns="http://www.w3.org/2000/svg">
<circle opacity="0.15" cx="196.875" cy="153" r="47" fill="#A3D24F"/>
<circle opacity="0.15" cx="259.875" cy="20" r="20" fill="#A3D24F"/>
<path d="M234.375 114H31.375C26.9567 114 23.375 117.582 23.375 122V152" stroke="#A3D24F" stroke-width="2"/>
<circle cx="24.125" cy="153.5" r="23" stroke="#EF7047" stroke-width="2"/>
<path d="M22.8074 152.148L23.2201 152.122L23.4937 151.812C25.7005 149.311 28.566 150.348 29.2233 151.726C29.5264 152.362 29.4567 153.258 28.815 154.287C28.1805 155.305 27.0512 156.322 25.5519 157.037C24.0525 157.752 22.5516 157.99 21.3617 157.842C20.1582 157.694 19.4176 157.184 19.1144 156.548C18.8196 155.93 18.9186 154.918 19.6095 153.936C20.2754 152.99 21.3939 152.238 22.8074 152.148Z" fill="#E7F2D5" stroke="#A3D24F" stroke-width="2"/>
<path d="M21.6731 152.058C21.6906 152.158 21.7217 152.258 21.7674 152.353C22.0663 152.98 22.8743 153.218 23.5722 152.885C24.2701 152.552 24.5935 151.774 24.2946 151.148C24.2208 150.993 24.1042 150.922 24.0459 150.886" stroke="#A3D24F" stroke-width="2"/>
<path d="M235.501 103.037C235.501 101.348 229.795 99.981 222.763 99.981C215.732 99.981 210.025 101.348 210.025 103.037C210.025 103.037 210.042 103.17 210.067 103.401C210.439 106.623 213.222 130.12 213.222 130.12C213.222 131.528 217.496 132.671 222.763 132.671C228.031 132.671 232.304 131.528 232.304 130.12C232.304 130.12 235.501 103.112 235.501 103.037Z" fill="#EBEAE4"/>
<path d="M233.308 104.702C233.308 103.633 228.587 102.772 222.757 102.772C216.926 102.772 212.205 103.633 212.205 104.702C212.205 104.702 213.406 106.093 222.757 106.093C232.107 106.093 233.308 104.702 233.308 104.702Z" fill="#B2AB93"/>
<path d="M235.436 43.8116C235.436 43.8116 235.858 29.7982 244.538 23.1145C253.217 16.4308 266.875 19.6112 266.875 19.6112C266.875 19.6112 266.452 33.6246 257.773 40.3083C249.093 46.992 235.436 43.8116 235.436 43.8116Z" fill="#E7F2D5"/>
<path d="M221.762 57.4356C221.762 57.4356 203.285 56.8807 194.481 45.4431C185.677 34.0054 189.876 16 189.876 16C189.876 16 208.353 16.5549 217.157 27.9926C225.961 39.4385 221.77 57.4356 221.77 57.4356H221.762Z" fill="#E7F2D5"/>
<path d="M227.898 75.7061C227.898 75.7061 230.706 66.8442 237.448 64.169C244.189 61.4939 252.314 66.016 252.314 66.016C252.314 66.016 249.507 74.8779 242.765 77.553C236.023 80.2281 227.898 75.7061 227.898 75.7061Z" fill="#E7F2D5"/>
<path d="M257.168 24.4561C238.533 35.637 215.335 60.0187 222.374 103.5" stroke="#A3D24F" stroke-width="2" stroke-miterlimit="10" stroke-linecap="round"/>
<path d="M235.436 43.8116C235.436 43.8116 235.858 29.7982 244.538 23.1145C253.217 16.4308 266.875 19.6112 266.875 19.6112C266.875 19.6112 266.452 33.6246 257.773 40.3083C249.093 46.992 235.436 43.8116 235.436 43.8116Z" stroke="#A3D24F" stroke-width="2" stroke-miterlimit="10" stroke-linecap="round"/>
<path d="M221.762 57.4356C221.762 57.4356 203.285 56.8807 194.481 45.4431C185.677 34.0054 189.876 16 189.876 16C189.876 16 208.353 16.5549 217.157 27.9926C225.961 39.4385 221.77 57.4356 221.77 57.4356H221.762Z" stroke="#A3D24F" stroke-width="2" stroke-miterlimit="10" stroke-linecap="round"/>
<path d="M197.148 23.835C207.915 31.2889 224.397 56.8228 223.569 68.4178" stroke="#A3D24F" stroke-width="2" stroke-miterlimit="10" stroke-linecap="round"/>
<path d="M227.898 75.7061C227.898 75.7061 230.706 66.8442 237.448 64.169C244.189 61.4939 252.314 66.016 252.314 66.016C252.314 66.016 249.507 74.8779 242.765 77.553C236.023 80.2281 227.898 75.7061 227.898 75.7061Z" stroke="#A3D24F" stroke-width="2" stroke-miterlimit="10" stroke-linecap="round"/>
<path d="M245.872 68.418C241.044 68.7161 221.647 75.4661 221.398 82.9946" stroke="#A3D24F" stroke-width="2" stroke-miterlimit="10" stroke-linecap="round"/>
<path d="M222.763 106.093C229.798 106.093 235.501 104.725 235.501 103.037C235.501 101.349 229.798 99.981 222.763 99.981C215.728 99.981 210.025 101.349 210.025 103.037C210.025 104.725 215.728 106.093 222.763 106.093Z" stroke="#A3D24F" stroke-width="2" stroke-miterlimit="10"/>
<path d="M210.018 103.261L213.214 130.12C213.214 131.528 217.488 132.671 222.756 132.671C228.023 132.671 232.297 131.528 232.297 130.12L235.493 103.261" stroke="#A3D24F" stroke-width="2" stroke-miterlimit="10"/>
<path d="M212.213 104.702C212.213 103.633 216.934 102.772 222.764 102.772C228.595 102.772 233.316 103.633 233.316 104.702" stroke="#A3D24F" stroke-miterlimit="10"/>
<rect x="193.875" y="89.0005" width="59" height="59" rx="7" stroke="#EF7047" stroke-width="2"/>
</svg>
