<svg width="88" height="105" viewBox="0 0 88 105" fill="none" xmlns="http://www.w3.org/2000/svg">
<circle opacity="0.15" cx="33.5" cy="71.125" r="33.5" fill="#A3D24F"/>
<path d="M73.6282 70.4116C73.6282 68.722 67.9218 67.3555 60.8903 67.3555C53.8587 67.3555 48.1523 68.722 48.1523 70.4116C48.1523 70.4116 48.1689 70.5441 48.1938 70.776C48.5665 73.9978 51.3493 97.4942 51.3493 97.4942C51.3493 98.9022 55.6228 100.045 60.8903 100.045C66.1577 100.045 70.4313 98.9022 70.4313 97.4942C70.4313 97.4942 73.6282 70.4861 73.6282 70.4116Z" fill="#EBEAE4"/>
<path d="M71.433 72.0772C71.433 71.0088 66.7122 70.1475 60.8815 70.1475C55.0509 70.1475 50.3301 71.0088 50.3301 72.0772C50.3301 72.0772 51.531 73.4686 60.8815 73.4686C70.2321 73.4686 71.433 72.0772 71.433 72.0772Z" fill="#B2AB93"/>
<path d="M74 12.0515C74 12.0515 74.1612 6.05654 77.4742 3.19724C80.7871 0.337945 86 1.6985 86 1.6985C86 1.6985 85.8388 7.69346 82.5258 10.5528C79.2129 13.4121 74 12.0515 74 12.0515Z" fill="#E7F2D5"/>
<path d="M59.7924 28.375C59.7924 28.375 55.9761 28.2679 54.1578 26.0596C52.3394 23.8513 53.2067 20.375 53.2067 20.375C53.2067 20.375 57.023 20.4821 58.8413 22.6904C60.6597 24.9003 59.7941 28.375 59.7941 28.375H59.7924Z" fill="#E7F2D5"/>
<path d="M66 42.6605C66 42.6605 66.805 40.3093 68.7378 39.5995C70.6706 38.8898 73 40.0895 73 40.0895C73 40.0895 72.195 42.4407 70.2622 43.1505C68.3294 43.8602 66 42.6605 66 42.6605Z" fill="#E7F2D5"/>
<path d="M60.4995 70.8755C56.1035 43.7237 63.4984 25.1893 74.2102 12.375" stroke="#A3D24F" stroke-width="2" stroke-miterlimit="10" stroke-linecap="round"/>
<path d="M74 12.0515C74 12.0515 74.1612 6.05654 77.4742 3.19724C80.7871 0.337945 86 1.6985 86 1.6985C86 1.6985 85.8388 7.69346 82.5258 10.5528C79.2129 13.4121 74 12.0515 74 12.0515Z" stroke="#A3D24F" stroke-width="2" stroke-miterlimit="10" stroke-linecap="round"/>
<path d="M59.7924 28.375C59.7924 28.375 55.9761 28.2679 54.1578 26.0596C52.3394 23.8513 53.2067 20.375 53.2067 20.375C53.2067 20.375 57.023 20.4821 58.8413 22.6904C60.6597 24.9003 59.7941 28.375 59.7941 28.375H59.7924Z" stroke="#A3D24F" stroke-width="2" stroke-miterlimit="10" stroke-linecap="round"/>
<path d="M60.5 28.875C61 29.375 62 31.375 62.5 32.875" stroke="#A3D24F" stroke-width="2" stroke-miterlimit="10" stroke-linecap="round"/>
<path d="M66 42.6605C66 42.6605 66.805 40.3093 68.7378 39.5995C70.6706 38.8898 73 40.0895 73 40.0895C73 40.0895 72.195 42.4407 70.2622 43.1505C68.3294 43.8602 66 42.6605 66 42.6605Z" stroke="#A3D24F" stroke-width="2" stroke-miterlimit="10" stroke-linecap="round"/>
<path d="M59.5234 50.3696C59.6187 47.4838 62.5273 44.7125 66.3505 42.375" stroke="#A3D24F" stroke-width="2" stroke-miterlimit="10" stroke-linecap="round"/>
<path d="M60.8903 73.4677C67.9253 73.4677 73.6282 72.0994 73.6282 70.4116C73.6282 68.7237 67.9253 67.3555 60.8903 67.3555C53.8553 67.3555 48.1523 68.7237 48.1523 70.4116C48.1523 72.0994 53.8553 73.4677 60.8903 73.4677Z" stroke="#A3D24F" stroke-width="2" stroke-miterlimit="10"/>
<path d="M48.1426 70.6357L51.3395 97.4948C51.3395 98.9027 55.6131 100.046 60.8805 100.046C66.148 100.046 70.4216 98.9027 70.4216 97.4948L73.6185 70.6357" stroke="#A3D24F" stroke-width="2" stroke-miterlimit="10"/>
<path d="M50.3379 72.0772C50.3379 71.0088 55.0587 70.1475 60.8894 70.1475C66.72 70.1475 71.4408 71.0088 71.4408 72.0772" stroke="#A3D24F" stroke-miterlimit="10"/>
<path d="M11.1339 91.5887L11.5044 91.7723L11.8964 91.6406C15.0578 90.5785 17.0208 92.9095 16.901 94.4314C16.8458 95.1334 16.3371 95.8749 15.2669 96.4451C14.2088 97.0088 12.7224 97.3249 11.0663 97.1946C9.41025 97.0643 7.99153 96.5197 7.03458 95.7973C6.06672 95.0668 5.6803 94.2549 5.73553 93.5529C5.78926 92.8701 6.38133 92.0427 7.47042 91.5382C8.52013 91.0518 9.86476 90.9598 11.1339 91.5887Z" fill="#E7F2D5" stroke="#A3D24F" stroke-width="2"/>
<path d="M10.1959 90.9429C10.1608 91.0387 10.1382 91.1401 10.1299 91.2458C10.0754 91.9379 10.6561 92.5482 11.4269 92.6088C12.1978 92.6695 12.8668 92.1575 12.9212 91.4654C12.9347 91.2945 12.8692 91.1747 12.8365 91.1148" stroke="#A3D24F" stroke-width="2"/>
</svg>
