<svg width="145" height="24" viewBox="0 0 145 24" fill="none" xmlns="http://www.w3.org/2000/svg">
<path d="M34 14.7366C31.1678 12.893 27.939 11.6255 24.4837 11.107V7.70782C24.4837 6.78601 24.3137 6.03704 23.9172 5.63374C23.634 5.23045 23.0675 5 22.3878 5H20.4619V6.20988H22.0479C22.841 6.20988 23.1242 6.78601 23.1242 7.76543V10.9342C22.4444 10.8765 21.7081 10.8189 21.0283 10.8189C20.4619 10.8189 19.9521 10.8189 19.3856 10.8765V5L17.9695 5.40329V10.9918C14.3442 11.4527 10.9455 12.7778 8 14.7366C11.0588 13.1811 14.4009 12.144 17.9695 11.7407V16.2922C17.9695 17.214 18.1394 17.963 18.5359 18.3663C18.8758 18.7695 19.3856 19 20.0654 19H22.0479V17.7901H20.4619C19.6688 17.7901 19.3856 17.214 19.3856 16.2346V11.6255C19.9521 11.5679 20.4619 11.5679 21.0283 11.5679C21.4039 11.5679 21.7647 11.5829 22.1183 11.5976C22.458 11.6117 22.7911 11.6255 23.1242 11.6255V19L24.5403 18.5967V11.7984C27.8824 12.2016 31.1111 13.2387 34 14.7366Z" fill="#7473BA"/>
<path d="M39.4759 18V6.36364H46.9304V8.13068H41.5838V11.2898H46.419V13.0568H41.5838V18H39.4759ZM53.2756 14.3295V9.27273H55.3324V18H53.3381V16.4489H53.2472C53.0502 16.9375 52.7263 17.3371 52.2756 17.6477C51.8286 17.9583 51.2775 18.1136 50.6222 18.1136C50.0502 18.1136 49.5445 17.9867 49.1051 17.733C48.6695 17.4754 48.3286 17.1023 48.0824 16.6136C47.8362 16.1212 47.7131 15.5265 47.7131 14.8295V9.27273H49.7699V14.5114C49.7699 15.0644 49.9214 15.5038 50.2244 15.8295C50.5275 16.1553 50.9252 16.3182 51.4176 16.3182C51.7206 16.3182 52.0142 16.2443 52.2983 16.0966C52.5824 15.9489 52.8153 15.7292 52.9972 15.4375C53.1828 15.142 53.2756 14.7727 53.2756 14.3295ZM59.0043 12.8864V18H56.9474V9.27273H58.9134V10.7557H59.0156C59.2164 10.267 59.5365 9.87879 59.9759 9.59091C60.419 9.30303 60.9664 9.15909 61.6179 9.15909C62.2202 9.15909 62.7448 9.28788 63.1918 9.54545C63.6425 9.80303 63.991 10.1761 64.2372 10.6648C64.4872 11.1534 64.6103 11.7462 64.6065 12.4432V18H62.5497V12.7614C62.5497 12.178 62.3982 11.7216 62.0952 11.392C61.7959 11.0625 61.3812 10.8977 60.8509 10.8977C60.491 10.8977 60.1709 10.9773 59.8906 11.1364C59.6141 11.2917 59.3963 11.517 59.2372 11.8125C59.0819 12.108 59.0043 12.4659 59.0043 12.8864ZM69.4361 18.1534C68.7505 18.1534 68.1368 17.9773 67.5952 17.625C67.0535 17.2727 66.6255 16.7614 66.3111 16.0909C65.9967 15.4205 65.8395 14.6061 65.8395 13.6477C65.8395 12.678 65.9986 11.8598 66.3168 11.1932C66.6387 10.5227 67.0724 10.017 67.6179 9.67614C68.1634 9.33144 68.7713 9.15909 69.4418 9.15909C69.9531 9.15909 70.3736 9.24621 70.7031 9.42045C71.0327 9.59091 71.294 9.79735 71.4872 10.0398C71.6804 10.2784 71.83 10.5038 71.9361 10.7159H72.0213V6.36364H74.0838V18H72.0611V16.625H71.9361C71.83 16.8371 71.6766 17.0625 71.4759 17.3011C71.2751 17.536 71.0099 17.7367 70.6804 17.9034C70.3509 18.0701 69.9361 18.1534 69.4361 18.1534ZM70.0099 16.4659C70.4455 16.4659 70.8168 16.3485 71.1236 16.1136C71.4304 15.875 71.6634 15.5436 71.8224 15.1193C71.9815 14.6951 72.0611 14.2008 72.0611 13.6364C72.0611 13.072 71.9815 12.5814 71.8224 12.1648C71.6671 11.7481 71.4361 11.4242 71.1293 11.1932C70.8262 10.9621 70.4531 10.8466 70.0099 10.8466C69.5516 10.8466 69.169 10.9659 68.8622 11.2045C68.5554 11.4432 68.3243 11.7727 68.169 12.1932C68.0137 12.6136 67.9361 13.0947 67.9361 13.6364C67.9361 14.1818 68.0137 14.6686 68.169 15.0966C68.3281 15.5208 68.5611 15.8561 68.8679 16.1023C69.1785 16.3447 69.5592 16.4659 70.0099 16.4659ZM79.6392 18.1705C78.7642 18.1705 78.0085 17.9886 77.3722 17.625C76.7396 17.2576 76.2528 16.7386 75.9119 16.0682C75.571 15.3939 75.4006 14.6004 75.4006 13.6875C75.4006 12.7898 75.571 12.0019 75.9119 11.3239C76.2566 10.642 76.7377 10.1117 77.3551 9.73295C77.9725 9.35038 78.6979 9.15909 79.5312 9.15909C80.0691 9.15909 80.5767 9.24621 81.054 9.42045C81.535 9.59091 81.9593 9.85606 82.3267 10.2159C82.6979 10.5758 82.9896 11.0341 83.2017 11.5909C83.4138 12.1439 83.5199 12.803 83.5199 13.5682V14.1989H76.3665V12.8125H81.5483C81.5445 12.4186 81.4593 12.0682 81.2926 11.7614C81.1259 11.4508 80.893 11.2064 80.5938 11.0284C80.2983 10.8504 79.9536 10.7614 79.5597 10.7614C79.1392 10.7614 78.7699 10.8636 78.4517 11.0682C78.1335 11.2689 77.8854 11.5341 77.7074 11.8636C77.5331 12.1894 77.4441 12.5473 77.4403 12.9375V14.1477C77.4403 14.6553 77.5331 15.0909 77.7188 15.4545C77.9044 15.8144 78.1638 16.0909 78.4972 16.2841C78.8305 16.4735 79.2206 16.5682 79.6676 16.5682C79.9669 16.5682 80.2377 16.5265 80.4801 16.4432C80.7225 16.3561 80.9328 16.2292 81.1108 16.0625C81.2888 15.8958 81.4233 15.6894 81.5142 15.4432L83.4347 15.6591C83.3134 16.1667 83.0824 16.6098 82.7415 16.9886C82.4044 17.3636 81.9725 17.6553 81.446 17.8636C80.9195 18.0682 80.3172 18.1705 79.6392 18.1705ZM84.7599 18V9.27273H86.7543V10.7273H86.8452C87.0043 10.2235 87.277 9.83523 87.6634 9.5625C88.0535 9.28598 88.4986 9.14773 88.9986 9.14773C89.1122 9.14773 89.2391 9.15341 89.3793 9.16477C89.5232 9.17235 89.6425 9.18561 89.7372 9.20455V11.0966C89.6501 11.0663 89.5118 11.0398 89.3224 11.017C89.1368 10.9905 88.9569 10.9773 88.7827 10.9773C88.4077 10.9773 88.0705 11.0587 87.7713 11.2216C87.4759 11.3807 87.2429 11.6023 87.0724 11.8864C86.902 12.1705 86.8168 12.4981 86.8168 12.8693V18H84.7599ZM94.1634 18V6.36364H98.527C99.4209 6.36364 100.171 6.5303 100.777 6.86364C101.387 7.19697 101.847 7.6553 102.158 8.23864C102.472 8.81818 102.629 9.47727 102.629 10.2159C102.629 10.9621 102.472 11.625 102.158 12.2045C101.843 12.7841 101.379 13.2405 100.766 13.5739C100.152 13.9034 99.3963 14.0682 98.4986 14.0682H95.6065V12.3352H98.2145C98.7372 12.3352 99.1652 12.2443 99.4986 12.0625C99.8319 11.8807 100.078 11.6307 100.237 11.3125C100.4 10.9943 100.482 10.6288 100.482 10.2159C100.482 9.80303 100.4 9.43939 100.237 9.125C100.078 8.81061 99.83 8.56629 99.4929 8.39205C99.1596 8.21402 98.7296 8.125 98.2031 8.125H96.2713V18H94.1634ZM107.551 18.1705C106.699 18.1705 105.96 17.983 105.335 17.608C104.71 17.233 104.225 16.7083 103.881 16.0341C103.54 15.3598 103.369 14.572 103.369 13.6705C103.369 12.7689 103.54 11.9792 103.881 11.3011C104.225 10.6231 104.71 10.0966 105.335 9.72159C105.96 9.34659 106.699 9.15909 107.551 9.15909C108.403 9.15909 109.142 9.34659 109.767 9.72159C110.392 10.0966 110.875 10.6231 111.216 11.3011C111.561 11.9792 111.733 12.7689 111.733 13.6705C111.733 14.572 111.561 15.3598 111.216 16.0341C110.875 16.7083 110.392 17.233 109.767 17.608C109.142 17.983 108.403 18.1705 107.551 18.1705ZM107.562 16.5227C108.025 16.5227 108.411 16.3958 108.722 16.142C109.032 15.8845 109.263 15.5398 109.415 15.108C109.57 14.6761 109.648 14.1951 109.648 13.6648C109.648 13.1307 109.57 12.6477 109.415 12.2159C109.263 11.7803 109.032 11.4337 108.722 11.1761C108.411 10.9186 108.025 10.7898 107.562 10.7898C107.089 10.7898 106.695 10.9186 106.381 11.1761C106.07 11.4337 105.837 11.7803 105.682 12.2159C105.53 12.6477 105.455 13.1307 105.455 13.6648C105.455 14.1951 105.53 14.6761 105.682 15.108C105.837 15.5398 106.07 15.8845 106.381 16.142C106.695 16.3958 107.089 16.5227 107.562 16.5227ZM112.979 18V9.27273H114.973V10.7273H115.064C115.223 10.2235 115.496 9.83523 115.882 9.5625C116.272 9.28598 116.717 9.14773 117.217 9.14773C117.331 9.14773 117.458 9.15341 117.598 9.16477C117.742 9.17235 117.861 9.18561 117.956 9.20455V11.0966C117.869 11.0663 117.731 11.0398 117.541 11.017C117.356 10.9905 117.176 10.9773 117.001 10.9773C116.626 10.9773 116.289 11.0587 115.99 11.2216C115.695 11.3807 115.462 11.6023 115.291 11.8864C115.121 12.1705 115.036 12.4981 115.036 12.8693V18H112.979ZM123.649 9.27273V10.8636H118.632V9.27273H123.649ZM119.871 7.18182H121.928V15.375C121.928 15.6515 121.969 15.8636 122.053 16.0114C122.14 16.1553 122.253 16.2538 122.393 16.3068C122.534 16.3598 122.689 16.3864 122.859 16.3864C122.988 16.3864 123.106 16.3769 123.212 16.358C123.321 16.339 123.405 16.322 123.462 16.3068L123.808 17.9148C123.698 17.9527 123.541 17.9943 123.337 18.0398C123.136 18.0852 122.89 18.1117 122.598 18.1193C122.083 18.1345 121.619 18.0568 121.206 17.8864C120.793 17.7121 120.465 17.4432 120.223 17.0795C119.984 16.7159 119.867 16.2614 119.871 15.7159V7.18182ZM127.381 18.1761C126.828 18.1761 126.33 18.0777 125.886 17.8807C125.447 17.6799 125.098 17.3845 124.841 16.9943C124.587 16.6042 124.46 16.1231 124.46 15.5511C124.46 15.0587 124.551 14.6515 124.733 14.3295C124.915 14.0076 125.163 13.75 125.477 13.5568C125.792 13.3636 126.146 13.2178 126.54 13.1193C126.938 13.017 127.348 12.9432 127.773 12.8977C128.284 12.8447 128.699 12.7973 129.017 12.7557C129.335 12.7102 129.566 12.642 129.71 12.5511C129.858 12.4564 129.932 12.3106 129.932 12.1136V12.0795C129.932 11.6515 129.805 11.3201 129.551 11.0852C129.297 10.8504 128.932 10.733 128.455 10.733C127.951 10.733 127.551 10.8428 127.256 11.0625C126.964 11.2822 126.767 11.5417 126.665 11.8409L124.744 11.5682C124.896 11.0379 125.146 10.5947 125.494 10.2386C125.843 9.87879 126.269 9.60985 126.773 9.43182C127.277 9.25 127.833 9.15909 128.443 9.15909C128.864 9.15909 129.282 9.20833 129.699 9.30682C130.116 9.4053 130.496 9.56818 130.841 9.79545C131.186 10.0189 131.462 10.3239 131.67 10.7102C131.883 11.0966 131.989 11.5795 131.989 12.1591V18H130.011V16.8011H129.943C129.818 17.0436 129.642 17.2708 129.415 17.483C129.191 17.6913 128.909 17.8598 128.568 17.9886C128.231 18.1136 127.835 18.1761 127.381 18.1761ZM127.915 16.6648C128.328 16.6648 128.686 16.5833 128.989 16.4205C129.292 16.2538 129.525 16.0341 129.688 15.7614C129.854 15.4886 129.938 15.1913 129.938 14.8693V13.8409C129.873 13.8939 129.763 13.9432 129.608 13.9886C129.456 14.0341 129.286 14.0739 129.097 14.108C128.907 14.142 128.72 14.1723 128.534 14.1989C128.348 14.2254 128.188 14.2481 128.051 14.267C127.744 14.3087 127.47 14.3769 127.227 14.4716C126.985 14.5663 126.794 14.6989 126.653 14.8693C126.513 15.036 126.443 15.2519 126.443 15.517C126.443 15.8958 126.581 16.1818 126.858 16.375C127.134 16.5682 127.487 16.6648 127.915 16.6648ZM135.614 6.36364V18H133.557V6.36364H135.614Z" fill="#7473BA"/>
</svg>
