<svg width="533" height="274" viewBox="0 0 533 274" fill="none" xmlns="http://www.w3.org/2000/svg">
<g clip-path="url(#clip0_1518_281115)">
<path fill-rule="evenodd" clip-rule="evenodd" d="M533.125 283.305C533.125 283.305 467.68 210.996 423.763 202.653C379.847 194.31 295.458 166.499 275.652 133.126C255.847 99.7524 209.248 102.707 163.708 95.1172C55 77.0009 -3.5 49.5009 -66 -60.499C-170.194 -129.1 -536.375 -123.663 -583.737 11.6843C-631.098 147.031 -577.709 283.305 -577.709 283.305L23.3468 365.964H176.625L533.125 283.305Z" fill="url(#paint0_linear_1518_281115)"/>
<path fill-rule="evenodd" clip-rule="evenodd" d="M423.946 178.703L416.013 208.368H432.374L423.946 178.703Z" fill="url(#paint1_linear_1518_281115)"/>
<path fill-rule="evenodd" clip-rule="evenodd" d="M384.126 160.162L369.514 226.909H399.652L384.126 160.162Z" fill="url(#paint2_linear_1518_281115)"/>
<path fill-rule="evenodd" clip-rule="evenodd" d="M269.703 132.352L258.43 169.433H281.68L269.703 132.352Z" fill="url(#paint3_linear_1518_281115)"/>
</g>
<defs>
<linearGradient id="paint0_linear_1518_281115" x1="677.481" y1="-128.265" x2="698.666" y2="885.264" gradientUnits="userSpaceOnUse">
<stop stop-color="#8CBA44"/>
<stop offset="1" stop-color="#00311F"/>
</linearGradient>
<linearGradient id="paint1_linear_1518_281115" x1="438.07" y1="192.92" x2="415.089" y2="206.842" gradientUnits="userSpaceOnUse">
<stop stop-color="#354C42"/>
<stop offset="1" stop-color="#18251F"/>
</linearGradient>
<linearGradient id="paint2_linear_1518_281115" x1="410.146" y1="192.15" x2="363.7" y2="215.186" gradientUnits="userSpaceOnUse">
<stop stop-color="#354C42"/>
<stop offset="1" stop-color="#18251F"/>
</linearGradient>
<linearGradient id="paint3_linear_1518_281115" x1="289.775" y1="150.123" x2="259.494" y2="170.977" gradientUnits="userSpaceOnUse">
<stop stop-color="#354C42"/>
<stop offset="1" stop-color="#18251F"/>
</linearGradient>
<clipPath id="clip0_1518_281115">
<rect width="533" height="274" fill="white"/>
</clipPath>
</defs>
</svg>
