<svg width="1440" height="165" viewBox="0 0 1440 165" fill="none" xmlns="http://www.w3.org/2000/svg">
<g clip-path="url(#clip0_1594_281269)">
<path opacity="0.5" fill-rule="evenodd" clip-rule="evenodd" d="M1440 165H0V0H1440V165Z" fill="url(#paint0_linear_1594_281269)"/>
<g filter="url(#filter0_f_1594_281269)">
<ellipse rx="472" ry="123.5" transform="matrix(-1 0 0 1 1377 -48.459)" fill="#8CBA44" fill-opacity="0.1"/>
</g>
<g filter="url(#filter1_f_1594_281269)">
<ellipse rx="258.387" ry="63.871" transform="matrix(-1 0 0 1 246.774 14.16)" fill="#8CBA44" fill-opacity="0.1"/>
</g>
<g opacity="0.7" filter="url(#filter2_f_1594_281269)">
<path fill-rule="evenodd" clip-rule="evenodd" d="M423.728 6.57271C404.407 13.7797 318.62 29.8984 230.953 17.0243C164.736 7.30014 252.033 -41.774 297.38 -44.8428C307.644 -45.5374 339.871 -33.1948 347.65 -33.1948C389.804 -33.1948 443.048 -0.634301 423.728 6.57271Z" fill="url(#paint1_linear_1594_281269)"/>
</g>
</g>
<defs>
<filter id="filter0_f_1594_281269" x="857.001" y="-219.959" width="1040" height="343" filterUnits="userSpaceOnUse" color-interpolation-filters="sRGB">
<feFlood flood-opacity="0" result="BackgroundImageFix"/>
<feBlend mode="normal" in="SourceGraphic" in2="BackgroundImageFix" result="shape"/>
<feGaussianBlur stdDeviation="24" result="effect1_foregroundBlur_1594_281269"/>
</filter>
<filter id="filter1_f_1594_281269" x="-59.613" y="-97.7109" width="612.774" height="223.742" filterUnits="userSpaceOnUse" color-interpolation-filters="sRGB">
<feFlood flood-opacity="0" result="BackgroundImageFix"/>
<feBlend mode="normal" in="SourceGraphic" in2="BackgroundImageFix" result="shape"/>
<feGaussianBlur stdDeviation="24" result="effect1_foregroundBlur_1594_281269"/>
</filter>
<filter id="filter2_f_1594_281269" x="159" y="-92.8711" width="316.81" height="162.729" filterUnits="userSpaceOnUse" color-interpolation-filters="sRGB">
<feFlood flood-opacity="0" result="BackgroundImageFix"/>
<feBlend mode="normal" in="SourceGraphic" in2="BackgroundImageFix" result="shape"/>
<feGaussianBlur stdDeviation="24" result="effect1_foregroundBlur_1594_281269"/>
</filter>
<linearGradient id="paint0_linear_1594_281269" x1="1440" y1="165" x2="1440" y2="0" gradientUnits="userSpaceOnUse">
<stop stop-color="#8CC2D9"/>
<stop offset="1" stop-color="#C0EEEE"/>
</linearGradient>
<linearGradient id="paint1_linear_1594_281269" x1="458.994" y1="-10.9805" x2="455.847" y2="41.8625" gradientUnits="userSpaceOnUse">
<stop stop-color="#167D4E"/>
<stop offset="1" stop-color="#003309"/>
</linearGradient>
<clipPath id="clip0_1594_281269">
<rect width="1440" height="165" fill="white"/>
</clipPath>
</defs>
</svg>
