<svg width="585" height="258" viewBox="0 0 585 258" fill="none" xmlns="http://www.w3.org/2000/svg">
<g clip-path="url(#clip0_1518_281126)">
<path fill-rule="evenodd" clip-rule="evenodd" d="M-27.9999 315.871C-16.9999 245.871 79.1454 184.706 130.145 175.706C181.145 166.706 279.145 136.706 302.145 100.706C325.145 64.7062 405.145 59.7062 432.145 59.7062C459.145 59.7062 518.145 55.7062 567.145 17.7062C616.145 -20.2938 608.145 -74.2938 729.145 -148.294C850.145 -222.294 1245.15 -176.294 1300.15 -30.2938C1355.15 115.706 683 415.871 683 415.871H104C104 415.871 -38.9999 385.871 -27.9999 315.871Z" fill="url(#paint0_linear_1518_281126)"/>
<path fill-rule="evenodd" clip-rule="evenodd" d="M345.638 39.7051L334.001 95.7051H358.001L345.638 39.7051Z" fill="url(#paint1_linear_1518_281126)"/>
<path fill-rule="evenodd" clip-rule="evenodd" d="M190.637 145.871L179.001 201.871H203.001L190.637 145.871Z" fill="url(#paint2_linear_1518_281126)"/>
<path fill-rule="evenodd" clip-rule="evenodd" d="M292.635 118.871L280.999 174.871H304.999L292.635 118.871Z" fill="url(#paint3_linear_1518_281126)"/>
<path fill-rule="evenodd" clip-rule="evenodd" d="M321.25 146.484L309.614 186.484H333.614L321.25 146.484Z" fill="url(#paint4_linear_1518_281126)"/>
<path fill-rule="evenodd" clip-rule="evenodd" d="M270.454 78.707L253 174.707H289L270.454 78.707Z" fill="url(#paint5_linear_1518_281126)"/>
</g>
<defs>
<linearGradient id="paint0_linear_1518_281126" x1="-197.709" y1="-181.034" x2="-224.114" y2="1043.02" gradientUnits="userSpaceOnUse">
<stop stop-color="#8CBA44"/>
<stop offset="1" stop-color="#00311F"/>
</linearGradient>
<linearGradient id="paint1_linear_1518_281126" x1="347.882" y1="16.6598" x2="386.115" y2="34.1106" gradientUnits="userSpaceOnUse">
<stop stop-color="#354C42"/>
<stop offset="1" stop-color="#18251F"/>
</linearGradient>
<linearGradient id="paint2_linear_1518_281126" x1="192.881" y1="122.826" x2="231.114" y2="140.277" gradientUnits="userSpaceOnUse">
<stop stop-color="#354C42"/>
<stop offset="1" stop-color="#18251F"/>
</linearGradient>
<linearGradient id="paint3_linear_1518_281126" x1="294.879" y1="95.8258" x2="333.113" y2="113.277" gradientUnits="userSpaceOnUse">
<stop stop-color="#354C42"/>
<stop offset="1" stop-color="#18251F"/>
</linearGradient>
<linearGradient id="paint4_linear_1518_281126" x1="323.494" y1="130.023" x2="356.298" y2="150.985" gradientUnits="userSpaceOnUse">
<stop stop-color="#354C42"/>
<stop offset="1" stop-color="#18251F"/>
</linearGradient>
<linearGradient id="paint5_linear_1518_281126" x1="273.82" y1="39.2008" x2="333.585" y2="63.0695" gradientUnits="userSpaceOnUse">
<stop stop-color="#354C42"/>
<stop offset="1" stop-color="#18251F"/>
</linearGradient>
<clipPath id="clip0_1518_281126">
<rect width="585" height="258" fill="white"/>
</clipPath>
</defs>
</svg>
