<svg width="24" height="24" viewBox="0 0 24 24" xmlns="http://www.w3.org/2000/svg">
<path d="M16.6455 1.50391C15.6246 1.50535 14.6361 1.89868 13.7607 2.51661C13.6482 2.52708 13.5396 2.56282 13.4429 2.62116C13.3461 2.6795 13.2638 2.75893 13.2021 2.85352C13.1781 2.87198 13.1553 2.89187 13.1338 2.91309L5.22946 10.8174C4.83087 11.216 4.59818 11.7516 4.58005 12.3154L4.53903 13.5869L2.21969 15.9063C2.13235 15.9936 2.06792 16.1012 2.03215 16.2194C1.99637 16.3376 1.99035 16.4629 2.01462 16.584L3.05368 21.7813C3.08029 21.9145 3.14258 22.038 3.23391 22.1386C3.32524 22.2392 3.44217 22.313 3.57222 22.3524C3.70227 22.3917 3.84056 22.3949 3.97231 22.3617C4.10406 22.3286 4.22433 22.2603 4.32028 22.1641L8.71872 17.7656L9.98825 17.7246C10.5517 17.7065 11.0886 17.4746 11.4873 17.0752L17.2295 11.333C18.2369 11.1629 19.2178 10.7304 19.998 9.9502C20.0315 9.91671 20.0418 9.87111 20.0742 9.83692C20.1888 9.7787 20.2866 9.69199 20.3581 9.58511C20.4296 9.47823 20.4724 9.35476 20.4824 9.22657C21.851 7.27758 21.7953 4.62441 20.084 2.91309C19.1404 1.9693 17.8972 1.50215 16.6455 1.50391ZM16.6386 2.9961C17.5102 2.99336 18.37 3.31983 19.0234 3.97364C20.0862 5.03645 20.2466 6.62921 19.5742 7.94532L15.0595 3.43067C15.5645 3.17295 16.0953 2.99781 16.6386 2.9961ZM13.8379 4.33106L18.6201 9.11329C18.058 9.56551 17.419 9.86594 16.749 9.93262C16.5766 9.94974 16.4155 10.026 16.2929 10.1484L10.4257 16.0147C10.4257 16.015 10.4257 16.0153 10.4257 16.0156C10.2964 16.1452 10.124 16.2197 9.9404 16.2256L6.71774 16.3291C6.2917 16.3429 5.96175 16.013 5.97555 15.5869L6.07907 12.3643C6.08493 12.1821 6.1606 12.0073 6.29001 11.8779L13.8379 4.33106ZM13.2978 7.97754C13.0384 7.98554 12.7922 8.0941 12.6113 8.28028L8.45309 12.4375C8.36016 12.5303 8.28642 12.6406 8.23609 12.7619C8.18576 12.8833 8.15983 13.0133 8.15977 13.1447C8.15972 13.2761 8.18554 13.4062 8.23576 13.5276C8.28599 13.6489 8.35963 13.7592 8.45249 13.8522C8.54535 13.9451 8.6556 14.0188 8.77695 14.0691C8.8983 14.1194 9.02838 14.1453 9.15974 14.1454C9.29111 14.1454 9.4212 14.1196 9.54258 14.0693C9.66395 14.0191 9.77425 13.9454 9.86715 13.8525L14.0254 9.69434C14.1699 9.55382 14.2687 9.37289 14.3086 9.17527C14.3485 8.97766 14.3278 8.77258 14.2491 8.58695C14.1705 8.40132 14.0375 8.2438 13.8678 8.13505C13.698 8.0263 13.4993 7.9714 13.2978 7.97754ZM4.48044 15.7666C4.55894 16.8583 5.44714 17.7453 6.53903 17.8232L4.24997 20.1123L3.56442 16.6826L4.48044 15.7666Z" />
</svg>
