<svg width="81" height="80" viewBox="0 0 81 80" fill="none" xmlns="http://www.w3.org/2000/svg">
<g clip-path="url(#clip0_787_32631)">
<path d="M80.5 0H0.5V80H80.5V0Z" fill="white"/>
<mask id="mask0_787_32631" style="mask-type:luminance" maskUnits="userSpaceOnUse" x="4" y="4" width="73" height="72">
<path d="M5.77906 28.8404C6.4639 28.8404 7.01906 28.2852 7.01906 27.6004C7.01906 26.9155 6.4639 26.3604 5.77906 26.3604C5.09423 26.3604 4.53906 26.9155 4.53906 27.6004C4.53906 28.2852 5.09423 28.8404 5.77906 28.8404Z" fill="white"/>
<path d="M5.77906 31.3201C6.4639 31.3201 7.01906 30.7649 7.01906 30.0801C7.01906 29.3953 6.4639 28.8401 5.77906 28.8401C5.09423 28.8401 4.53906 29.3953 4.53906 30.0801C4.53906 30.7649 5.09423 31.3201 5.77906 31.3201Z" fill="white"/>
<path d="M5.77906 38.76C6.4639 38.76 7.01906 38.2049 7.01906 37.52C7.01906 36.8352 6.4639 36.28 5.77906 36.28C5.09423 36.28 4.53906 36.8352 4.53906 37.52C4.53906 38.2049 5.09423 38.76 5.77906 38.76Z" fill="white"/>
<path d="M5.77906 43.72C6.4639 43.72 7.01906 43.1648 7.01906 42.48C7.01906 41.7952 6.4639 41.24 5.77906 41.24C5.09423 41.24 4.53906 41.7952 4.53906 42.48C4.53906 43.1648 5.09423 43.72 5.77906 43.72Z" fill="white"/>
<path d="M5.77906 46.1997C6.4639 46.1997 7.01906 45.6446 7.01906 44.9597C7.01906 44.2749 6.4639 43.7197 5.77906 43.7197C5.09423 43.7197 4.53906 44.2749 4.53906 44.9597C4.53906 45.6446 5.09423 46.1997 5.77906 46.1997Z" fill="white"/>
<path d="M5.77906 51.1597C6.4639 51.1597 7.01906 50.6045 7.01906 49.9197C7.01906 49.2349 6.4639 48.6797 5.77906 48.6797C5.09423 48.6797 4.53906 49.2349 4.53906 49.9197C4.53906 50.6045 5.09423 51.1597 5.77906 51.1597Z" fill="white"/>
<path d="M5.77906 53.6402C6.4639 53.6402 7.01906 53.085 7.01906 52.4002C7.01906 51.7153 6.4639 51.1602 5.77906 51.1602C5.09423 51.1602 4.53906 51.7153 4.53906 52.4002C4.53906 53.085 5.09423 53.6402 5.77906 53.6402Z" fill="white"/>
<path d="M8.25953 38.76C8.94436 38.76 9.49953 38.2049 9.49953 37.52C9.49953 36.8352 8.94436 36.28 8.25953 36.28C7.5747 36.28 7.01953 36.8352 7.01953 37.52C7.01953 38.2049 7.5747 38.76 8.25953 38.76Z" fill="white"/>
<path d="M8.25953 46.1997C8.94436 46.1997 9.49953 45.6446 9.49953 44.9597C9.49953 44.2749 8.94436 43.7197 8.25953 43.7197C7.5747 43.7197 7.01953 44.2749 7.01953 44.9597C7.01953 45.6446 7.5747 46.1997 8.25953 46.1997Z" fill="white"/>
<path d="M8.25953 48.68C8.94436 48.68 9.49953 48.1248 9.49953 47.44C9.49953 46.7551 8.94436 46.2 8.25953 46.2C7.5747 46.2 7.01953 46.7551 7.01953 47.44C7.01953 48.1248 7.5747 48.68 8.25953 48.68Z" fill="white"/>
<path d="M8.25953 56.1196C8.94436 56.1196 9.49953 55.5645 9.49953 54.8796C9.49953 54.1948 8.94436 53.6396 8.25953 53.6396C7.5747 53.6396 7.01953 54.1948 7.01953 54.8796C7.01953 55.5645 7.5747 56.1196 8.25953 56.1196Z" fill="white"/>
<path d="M10.74 26.3601C11.4248 26.3601 11.98 25.805 11.98 25.1201C11.98 24.4353 11.4248 23.8801 10.74 23.8801C10.0552 23.8801 9.5 24.4353 9.5 25.1201C9.5 25.805 10.0552 26.3601 10.74 26.3601Z" fill="white"/>
<path d="M10.74 38.76C11.4248 38.76 11.98 38.2049 11.98 37.52C11.98 36.8352 11.4248 36.28 10.74 36.28C10.0552 36.28 9.5 36.8352 9.5 37.52C9.5 38.2049 10.0552 38.76 10.74 38.76Z" fill="white"/>
<path d="M10.74 41.2398C11.4248 41.2398 11.98 40.6846 11.98 39.9998C11.98 39.3149 11.4248 38.7598 10.74 38.7598C10.0552 38.7598 9.5 39.3149 9.5 39.9998C9.5 40.6846 10.0552 41.2398 10.74 41.2398Z" fill="white"/>
<path d="M10.74 48.68C11.4248 48.68 11.98 48.1248 11.98 47.44C11.98 46.7551 11.4248 46.2 10.74 46.2C10.0552 46.2 9.5 46.7551 9.5 47.44C9.5 48.1248 10.0552 48.68 10.74 48.68Z" fill="white"/>
<path d="M10.74 53.6402C11.4248 53.6402 11.98 53.085 11.98 52.4002C11.98 51.7153 11.4248 51.1602 10.74 51.1602C10.0552 51.1602 9.5 51.7153 9.5 52.4002C9.5 53.085 10.0552 53.6402 10.74 53.6402Z" fill="white"/>
<path d="M10.74 56.1196C11.4248 56.1196 11.98 55.5645 11.98 54.8796C11.98 54.1948 11.4248 53.6396 10.74 53.6396C10.0552 53.6396 9.5 54.1948 9.5 54.8796C9.5 55.5645 10.0552 56.1196 10.74 56.1196Z" fill="white"/>
<path d="M13.2185 33.8003C13.9033 33.8003 14.4585 33.2451 14.4585 32.5603C14.4585 31.8755 13.9033 31.3203 13.2185 31.3203C12.5337 31.3203 11.9785 31.8755 11.9785 32.5603C11.9785 33.2451 12.5337 33.8003 13.2185 33.8003Z" fill="white"/>
<path d="M13.2185 36.28C13.9033 36.28 14.4585 35.7249 14.4585 35.04C14.4585 34.3552 13.9033 33.8 13.2185 33.8C12.5337 33.8 11.9785 34.3552 11.9785 35.04C11.9785 35.7249 12.5337 36.28 13.2185 36.28Z" fill="white"/>
<path d="M13.2185 41.2398C13.9033 41.2398 14.4585 40.6846 14.4585 39.9998C14.4585 39.3149 13.9033 38.7598 13.2185 38.7598C12.5337 38.7598 11.9785 39.3149 11.9785 39.9998C11.9785 40.6846 12.5337 41.2398 13.2185 41.2398Z" fill="white"/>
<path d="M13.2185 46.1997C13.9033 46.1997 14.4585 45.6446 14.4585 44.9597C14.4585 44.2749 13.9033 43.7197 13.2185 43.7197C12.5337 43.7197 11.9785 44.2749 11.9785 44.9597C11.9785 45.6446 12.5337 46.1997 13.2185 46.1997Z" fill="white"/>
<path d="M13.2185 51.1597C13.9033 51.1597 14.4585 50.6045 14.4585 49.9197C14.4585 49.2349 13.9033 48.6797 13.2185 48.6797C12.5337 48.6797 11.9785 49.2349 11.9785 49.9197C11.9785 50.6045 12.5337 51.1597 13.2185 51.1597Z" fill="white"/>
<path d="M13.2185 53.6402C13.9033 53.6402 14.4585 53.085 14.4585 52.4002C14.4585 51.7153 13.9033 51.1602 13.2185 51.1602C12.5337 51.1602 11.9785 51.7153 11.9785 52.4002C11.9785 53.085 12.5337 53.6402 13.2185 53.6402Z" fill="white"/>
<path d="M15.699 26.3601C16.3838 26.3601 16.939 25.805 16.939 25.1201C16.939 24.4353 16.3838 23.8801 15.699 23.8801C15.0142 23.8801 14.459 24.4353 14.459 25.1201C14.459 25.805 15.0142 26.3601 15.699 26.3601Z" fill="white"/>
<path d="M15.699 31.3201C16.3838 31.3201 16.939 30.7649 16.939 30.0801C16.939 29.3953 16.3838 28.8401 15.699 28.8401C15.0142 28.8401 14.459 29.3953 14.459 30.0801C14.459 30.7649 15.0142 31.3201 15.699 31.3201Z" fill="white"/>
<path d="M15.699 33.8003C16.3838 33.8003 16.939 33.2451 16.939 32.5603C16.939 31.8755 16.3838 31.3203 15.699 31.3203C15.0142 31.3203 14.459 31.8755 14.459 32.5603C14.459 33.2451 15.0142 33.8003 15.699 33.8003Z" fill="white"/>
<path d="M15.699 38.76C16.3838 38.76 16.939 38.2049 16.939 37.52C16.939 36.8352 16.3838 36.28 15.699 36.28C15.0142 36.28 14.459 36.8352 14.459 37.52C14.459 38.2049 15.0142 38.76 15.699 38.76Z" fill="white"/>
<path d="M15.699 41.2398C16.3838 41.2398 16.939 40.6846 16.939 39.9998C16.939 39.3149 16.3838 38.7598 15.699 38.7598C15.0142 38.7598 14.459 39.3149 14.459 39.9998C14.459 40.6846 15.0142 41.2398 15.699 41.2398Z" fill="white"/>
<path d="M18.1795 26.3601C18.8643 26.3601 19.4195 25.805 19.4195 25.1201C19.4195 24.4353 18.8643 23.8801 18.1795 23.8801C17.4946 23.8801 16.9395 24.4353 16.9395 25.1201C16.9395 25.805 17.4946 26.3601 18.1795 26.3601Z" fill="white"/>
<path d="M18.1795 28.8404C18.8643 28.8404 19.4195 28.2852 19.4195 27.6004C19.4195 26.9155 18.8643 26.3604 18.1795 26.3604C17.4946 26.3604 16.9395 26.9155 16.9395 27.6004C16.9395 28.2852 17.4946 28.8404 18.1795 28.8404Z" fill="white"/>
<path d="M18.1795 33.8003C18.8643 33.8003 19.4195 33.2451 19.4195 32.5603C19.4195 31.8755 18.8643 31.3203 18.1795 31.3203C17.4946 31.3203 16.9395 31.8755 16.9395 32.5603C16.9395 33.2451 17.4946 33.8003 18.1795 33.8003Z" fill="white"/>
<path d="M18.1795 36.28C18.8643 36.28 19.4195 35.7249 19.4195 35.04C19.4195 34.3552 18.8643 33.8 18.1795 33.8C17.4946 33.8 16.9395 34.3552 16.9395 35.04C16.9395 35.7249 17.4946 36.28 18.1795 36.28Z" fill="white"/>
<path d="M18.1795 51.1597C18.8643 51.1597 19.4195 50.6045 19.4195 49.9197C19.4195 49.2349 18.8643 48.6797 18.1795 48.6797C17.4946 48.6797 16.9395 49.2349 16.9395 49.9197C16.9395 50.6045 17.4946 51.1597 18.1795 51.1597Z" fill="white"/>
<path d="M18.1795 53.6402C18.8643 53.6402 19.4195 53.085 19.4195 52.4002C19.4195 51.7153 18.8643 51.1602 18.1795 51.1602C17.4946 51.1602 16.9395 51.7153 16.9395 52.4002C16.9395 53.085 17.4946 53.6402 18.1795 53.6402Z" fill="white"/>
<path d="M18.1795 56.1196C18.8643 56.1196 19.4195 55.5645 19.4195 54.8796C19.4195 54.1948 18.8643 53.6396 18.1795 53.6396C17.4946 53.6396 16.9395 54.1948 16.9395 54.8796C16.9395 55.5645 17.4946 56.1196 18.1795 56.1196Z" fill="white"/>
<path d="M20.6599 26.3601C21.3448 26.3601 21.8999 25.805 21.8999 25.1201C21.8999 24.4353 21.3448 23.8801 20.6599 23.8801C19.9751 23.8801 19.4199 24.4353 19.4199 25.1201C19.4199 25.805 19.9751 26.3601 20.6599 26.3601Z" fill="white"/>
<path d="M20.6599 31.3201C21.3448 31.3201 21.8999 30.7649 21.8999 30.0801C21.8999 29.3953 21.3448 28.8401 20.6599 28.8401C19.9751 28.8401 19.4199 29.3953 19.4199 30.0801C19.4199 30.7649 19.9751 31.3201 20.6599 31.3201Z" fill="white"/>
<path d="M20.6599 36.28C21.3448 36.28 21.8999 35.7249 21.8999 35.04C21.8999 34.3552 21.3448 33.8 20.6599 33.8C19.9751 33.8 19.4199 34.3552 19.4199 35.04C19.4199 35.7249 19.9751 36.28 20.6599 36.28Z" fill="white"/>
<path d="M20.658 41.2398C21.3428 41.2398 21.898 40.6846 21.898 39.9998C21.898 39.3149 21.3428 38.7598 20.658 38.7598C19.9731 38.7598 19.418 39.3149 19.418 39.9998C19.418 40.6846 19.9731 41.2398 20.658 41.2398Z" fill="white"/>
<path d="M20.658 46.1997C21.3428 46.1997 21.898 45.6446 21.898 44.9597C21.898 44.2749 21.3428 43.7197 20.658 43.7197C19.9731 43.7197 19.418 44.2749 19.418 44.9597C19.418 45.6446 19.9731 46.1997 20.658 46.1997Z" fill="white"/>
<path d="M20.658 51.1597C21.3428 51.1597 21.898 50.6045 21.898 49.9197C21.898 49.2349 21.3428 48.6797 20.658 48.6797C19.9731 48.6797 19.418 49.2349 19.418 49.9197C19.418 50.6045 19.9731 51.1597 20.658 51.1597Z" fill="white"/>
<path d="M20.658 56.1196C21.3428 56.1196 21.898 55.5645 21.898 54.8796C21.898 54.1948 21.3428 53.6396 20.658 53.6396C19.9731 53.6396 19.418 54.1948 19.418 54.8796C19.418 55.5645 19.9731 56.1196 20.658 56.1196Z" fill="white"/>
<path d="M23.1384 31.3201C23.8233 31.3201 24.3784 30.7649 24.3784 30.0801C24.3784 29.3953 23.8233 28.8401 23.1384 28.8401C22.4536 28.8401 21.8984 29.3953 21.8984 30.0801C21.8984 30.7649 22.4536 31.3201 23.1384 31.3201Z" fill="white"/>
<path d="M23.1384 33.8003C23.8233 33.8003 24.3784 33.2451 24.3784 32.5603C24.3784 31.8755 23.8233 31.3203 23.1384 31.3203C22.4536 31.3203 21.8984 31.8755 21.8984 32.5603C21.8984 33.2451 22.4536 33.8003 23.1384 33.8003Z" fill="white"/>
<path d="M23.1384 41.2398C23.8233 41.2398 24.3784 40.6846 24.3784 39.9998C24.3784 39.3149 23.8233 38.7598 23.1384 38.7598C22.4536 38.7598 21.8984 39.3149 21.8984 39.9998C21.8984 40.6846 22.4536 41.2398 23.1384 41.2398Z" fill="white"/>
<path d="M23.1384 48.68C23.8233 48.68 24.3784 48.1248 24.3784 47.44C24.3784 46.7551 23.8233 46.2 23.1384 46.2C22.4536 46.2 21.8984 46.7551 21.8984 47.44C21.8984 48.1248 22.4536 48.68 23.1384 48.68Z" fill="white"/>
<path d="M23.1384 51.1597C23.8233 51.1597 24.3784 50.6045 24.3784 49.9197C24.3784 49.2349 23.8233 48.6797 23.1384 48.6797C22.4536 48.6797 21.8984 49.2349 21.8984 49.9197C21.8984 50.6045 22.4536 51.1597 23.1384 51.1597Z" fill="white"/>
<path d="M23.1384 53.6402C23.8233 53.6402 24.3784 53.085 24.3784 52.4002C24.3784 51.7153 23.8233 51.1602 23.1384 51.1602C22.4536 51.1602 21.8984 51.7153 21.8984 52.4002C21.8984 53.085 22.4536 53.6402 23.1384 53.6402Z" fill="white"/>
<path d="M25.6189 9.00051C26.3037 9.00051 26.8589 8.44534 26.8589 7.76051C26.8589 7.07567 26.3037 6.52051 25.6189 6.52051C24.9341 6.52051 24.3789 7.07567 24.3789 7.76051C24.3789 8.44534 24.9341 9.00051 25.6189 9.00051Z" fill="white"/>
<path d="M25.6189 16.44C26.3037 16.44 26.8589 15.8848 26.8589 15.2C26.8589 14.5151 26.3037 13.96 25.6189 13.96C24.9341 13.96 24.3789 14.5151 24.3789 15.2C24.3789 15.8848 24.9341 16.44 25.6189 16.44Z" fill="white"/>
<path d="M25.6189 21.3999C26.3037 21.3999 26.8589 20.8448 26.8589 20.1599C26.8589 19.4751 26.3037 18.9199 25.6189 18.9199C24.9341 18.9199 24.3789 19.4751 24.3789 20.1599C24.3789 20.8448 24.9341 21.3999 25.6189 21.3999Z" fill="white"/>
<path d="M25.6189 26.3601C26.3037 26.3601 26.8589 25.805 26.8589 25.1201C26.8589 24.4353 26.3037 23.8801 25.6189 23.8801C24.9341 23.8801 24.3789 24.4353 24.3789 25.1201C24.3789 25.805 24.9341 26.3601 25.6189 26.3601Z" fill="white"/>
<path d="M25.6189 28.8404C26.3037 28.8404 26.8589 28.2852 26.8589 27.6004C26.8589 26.9155 26.3037 26.3604 25.6189 26.3604C24.9341 26.3604 24.3789 26.9155 24.3789 27.6004C24.3789 28.2852 24.9341 28.8404 25.6189 28.8404Z" fill="white"/>
<path d="M25.6189 33.8003C26.3037 33.8003 26.8589 33.2451 26.8589 32.5603C26.8589 31.8755 26.3037 31.3203 25.6189 31.3203C24.9341 31.3203 24.3789 31.8755 24.3789 32.5603C24.3789 33.2451 24.9341 33.8003 25.6189 33.8003Z" fill="white"/>
<path d="M25.6189 41.2398C26.3037 41.2398 26.8589 40.6846 26.8589 39.9998C26.8589 39.3149 26.3037 38.7598 25.6189 38.7598C24.9341 38.7598 24.3789 39.3149 24.3789 39.9998C24.3789 40.6846 24.9341 41.2398 25.6189 41.2398Z" fill="white"/>
<path d="M25.6189 43.72C26.3037 43.72 26.8589 43.1648 26.8589 42.48C26.8589 41.7952 26.3037 41.24 25.6189 41.24C24.9341 41.24 24.3789 41.7952 24.3789 42.48C24.3789 43.1648 24.9341 43.72 25.6189 43.72Z" fill="white"/>
<path d="M25.6189 51.1597C26.3037 51.1597 26.8589 50.6045 26.8589 49.9197C26.8589 49.2349 26.3037 48.6797 25.6189 48.6797C24.9341 48.6797 24.3789 49.2349 24.3789 49.9197C24.3789 50.6045 24.9341 51.1597 25.6189 51.1597Z" fill="white"/>
<path d="M25.6189 53.6402C26.3037 53.6402 26.8589 53.085 26.8589 52.4002C26.8589 51.7153 26.3037 51.1602 25.6189 51.1602C24.9341 51.1602 24.3789 51.7153 24.3789 52.4002C24.3789 53.085 24.9341 53.6402 25.6189 53.6402Z" fill="white"/>
<path d="M25.6189 56.1196C26.3037 56.1196 26.8589 55.5645 26.8589 54.8796C26.8589 54.1948 26.3037 53.6396 25.6189 53.6396C24.9341 53.6396 24.3789 54.1948 24.3789 54.8796C24.3789 55.5645 24.9341 56.1196 25.6189 56.1196Z" fill="white"/>
<path d="M25.6189 58.6001C26.3037 58.6001 26.8589 58.045 26.8589 57.3601C26.8589 56.6753 26.3037 56.1201 25.6189 56.1201C24.9341 56.1201 24.3789 56.6753 24.3789 57.3601C24.3789 58.045 24.9341 58.6001 25.6189 58.6001Z" fill="white"/>
<path d="M25.6189 63.5601C26.3037 63.5601 26.8589 63.0049 26.8589 62.3201C26.8589 61.6352 26.3037 61.0801 25.6189 61.0801C24.9341 61.0801 24.3789 61.6352 24.3789 62.3201C24.3789 63.0049 24.9341 63.5601 25.6189 63.5601Z" fill="white"/>
<path d="M25.6189 66.0396C26.3037 66.0396 26.8589 65.4844 26.8589 64.7996C26.8589 64.1147 26.3037 63.5596 25.6189 63.5596C24.9341 63.5596 24.3789 64.1147 24.3789 64.7996C24.3789 65.4844 24.9341 66.0396 25.6189 66.0396Z" fill="white"/>
<path d="M25.6189 71.0005C26.3037 71.0005 26.8589 70.4453 26.8589 69.7605C26.8589 69.0757 26.3037 68.5205 25.6189 68.5205C24.9341 68.5205 24.3789 69.0757 24.3789 69.7605C24.3789 70.4453 24.9341 71.0005 25.6189 71.0005Z" fill="white"/>
<path d="M28.0994 9.00051C28.7842 9.00051 29.3394 8.44534 29.3394 7.76051C29.3394 7.07567 28.7842 6.52051 28.0994 6.52051C27.4145 6.52051 26.8594 7.07567 26.8594 7.76051C26.8594 8.44534 27.4145 9.00051 28.0994 9.00051Z" fill="white"/>
<path d="M28.0994 16.44C28.7842 16.44 29.3394 15.8848 29.3394 15.2C29.3394 14.5151 28.7842 13.96 28.0994 13.96C27.4145 13.96 26.8594 14.5151 26.8594 15.2C26.8594 15.8848 27.4145 16.44 28.0994 16.44Z" fill="white"/>
<path d="M28.0994 18.9204C28.7842 18.9204 29.3394 18.3653 29.3394 17.6804C29.3394 16.9956 28.7842 16.4404 28.0994 16.4404C27.4145 16.4404 26.8594 16.9956 26.8594 17.6804C26.8594 18.3653 27.4145 18.9204 28.0994 18.9204Z" fill="white"/>
<path d="M28.0994 23.8804C28.7842 23.8804 29.3394 23.3252 29.3394 22.6404C29.3394 21.9556 28.7842 21.4004 28.0994 21.4004C27.4145 21.4004 26.8594 21.9556 26.8594 22.6404C26.8594 23.3252 27.4145 23.8804 28.0994 23.8804Z" fill="white"/>
<path d="M28.0994 28.8404C28.7842 28.8404 29.3394 28.2852 29.3394 27.6004C29.3394 26.9155 28.7842 26.3604 28.0994 26.3604C27.4145 26.3604 26.8594 26.9155 26.8594 27.6004C26.8594 28.2852 27.4145 28.8404 28.0994 28.8404Z" fill="white"/>
<path d="M28.0994 33.8003C28.7842 33.8003 29.3394 33.2451 29.3394 32.5603C29.3394 31.8755 28.7842 31.3203 28.0994 31.3203C27.4145 31.3203 26.8594 31.8755 26.8594 32.5603C26.8594 33.2451 27.4145 33.8003 28.0994 33.8003Z" fill="white"/>
<path d="M28.0994 36.28C28.7842 36.28 29.3394 35.7249 29.3394 35.04C29.3394 34.3552 28.7842 33.8 28.0994 33.8C27.4145 33.8 26.8594 34.3552 26.8594 35.04C26.8594 35.7249 27.4145 36.28 28.0994 36.28Z" fill="white"/>
<path d="M28.0994 41.2398C28.7842 41.2398 29.3394 40.6846 29.3394 39.9998C29.3394 39.3149 28.7842 38.7598 28.0994 38.7598C27.4145 38.7598 26.8594 39.3149 26.8594 39.9998C26.8594 40.6846 27.4145 41.2398 28.0994 41.2398Z" fill="white"/>
<path d="M28.0994 48.68C28.7842 48.68 29.3394 48.1248 29.3394 47.44C29.3394 46.7551 28.7842 46.2 28.0994 46.2C27.4145 46.2 26.8594 46.7551 26.8594 47.44C26.8594 48.1248 27.4145 48.68 28.0994 48.68Z" fill="white"/>
<path d="M28.0994 53.6402C28.7842 53.6402 29.3394 53.085 29.3394 52.4002C29.3394 51.7153 28.7842 51.1602 28.0994 51.1602C27.4145 51.1602 26.8594 51.7153 26.8594 52.4002C26.8594 53.085 27.4145 53.6402 28.0994 53.6402Z" fill="white"/>
<path d="M28.0994 56.1196C28.7842 56.1196 29.3394 55.5645 29.3394 54.8796C29.3394 54.1948 28.7842 53.6396 28.0994 53.6396C27.4145 53.6396 26.8594 54.1948 26.8594 54.8796C26.8594 55.5645 27.4145 56.1196 28.0994 56.1196Z" fill="white"/>
<path d="M28.0994 63.5601C28.7842 63.5601 29.3394 63.0049 29.3394 62.3201C29.3394 61.6352 28.7842 61.0801 28.0994 61.0801C27.4145 61.0801 26.8594 61.6352 26.8594 62.3201C26.8594 63.0049 27.4145 63.5601 28.0994 63.5601Z" fill="white"/>
<path d="M28.0994 66.0396C28.7842 66.0396 29.3394 65.4844 29.3394 64.7996C29.3394 64.1147 28.7842 63.5596 28.0994 63.5596C27.4145 63.5596 26.8594 64.1147 26.8594 64.7996C26.8594 65.4844 27.4145 66.0396 28.0994 66.0396Z" fill="white"/>
<path d="M28.0994 71.0005C28.7842 71.0005 29.3394 70.4453 29.3394 69.7605C29.3394 69.0757 28.7842 68.5205 28.0994 68.5205C27.4145 68.5205 26.8594 69.0757 26.8594 69.7605C26.8594 70.4453 27.4145 71.0005 28.0994 71.0005Z" fill="white"/>
<path d="M28.0994 73.48C28.7842 73.48 29.3394 72.9248 29.3394 72.24C29.3394 71.5552 28.7842 71 28.0994 71C27.4145 71 26.8594 71.5552 26.8594 72.24C26.8594 72.9248 27.4145 73.48 28.0994 73.48Z" fill="white"/>
<path d="M28.0994 75.9605C28.7842 75.9605 29.3394 75.4053 29.3394 74.7205C29.3394 74.0356 28.7842 73.4805 28.0994 73.4805C27.4145 73.4805 26.8594 74.0356 26.8594 74.7205C26.8594 75.4053 27.4145 75.9605 28.0994 75.9605Z" fill="white"/>
<path d="M30.5798 6.52004C31.2647 6.52004 31.8198 5.96487 31.8198 5.28004C31.8198 4.59521 31.2647 4.04004 30.5798 4.04004C29.895 4.04004 29.3398 4.59521 29.3398 5.28004C29.3398 5.96487 29.895 6.52004 30.5798 6.52004Z" fill="white"/>
<path d="M30.5798 21.3999C31.2647 21.3999 31.8198 20.8448 31.8198 20.1599C31.8198 19.4751 31.2647 18.9199 30.5798 18.9199C29.895 18.9199 29.3398 19.4751 29.3398 20.1599C29.3398 20.8448 29.895 21.3999 30.5798 21.3999Z" fill="white"/>
<path d="M30.5798 38.76C31.2647 38.76 31.8198 38.2049 31.8198 37.52C31.8198 36.8352 31.2647 36.28 30.5798 36.28C29.895 36.28 29.3398 36.8352 29.3398 37.52C29.3398 38.2049 29.895 38.76 30.5798 38.76Z" fill="white"/>
<path d="M30.5798 41.2398C31.2647 41.2398 31.8198 40.6846 31.8198 39.9998C31.8198 39.3149 31.2647 38.7598 30.5798 38.7598C29.895 38.7598 29.3398 39.3149 29.3398 39.9998C29.3398 40.6846 29.895 41.2398 30.5798 41.2398Z" fill="white"/>
<path d="M30.5798 43.72C31.2647 43.72 31.8198 43.1648 31.8198 42.48C31.8198 41.7952 31.2647 41.24 30.5798 41.24C29.895 41.24 29.3398 41.7952 29.3398 42.48C29.3398 43.1648 29.895 43.72 30.5798 43.72Z" fill="white"/>
<path d="M30.5798 48.68C31.2647 48.68 31.8198 48.1248 31.8198 47.44C31.8198 46.7551 31.2647 46.2 30.5798 46.2C29.895 46.2 29.3398 46.7551 29.3398 47.44C29.3398 48.1248 29.895 48.68 30.5798 48.68Z" fill="white"/>
<path d="M30.5798 58.6001C31.2647 58.6001 31.8198 58.045 31.8198 57.3601C31.8198 56.6753 31.2647 56.1201 30.5798 56.1201C29.895 56.1201 29.3398 56.6753 29.3398 57.3601C29.3398 58.045 29.895 58.6001 30.5798 58.6001Z" fill="white"/>
<path d="M30.5798 63.5601C31.2647 63.5601 31.8198 63.0049 31.8198 62.3201C31.8198 61.6352 31.2647 61.0801 30.5798 61.0801C29.895 61.0801 29.3398 61.6352 29.3398 62.3201C29.3398 63.0049 29.895 63.5601 30.5798 63.5601Z" fill="white"/>
<path d="M30.5798 66.0396C31.2647 66.0396 31.8198 65.4844 31.8198 64.7996C31.8198 64.1147 31.2647 63.5596 30.5798 63.5596C29.895 63.5596 29.3398 64.1147 29.3398 64.7996C29.3398 65.4844 29.895 66.0396 30.5798 66.0396Z" fill="white"/>
<path d="M30.5798 68.52C31.2647 68.52 31.8198 67.9649 31.8198 67.28C31.8198 66.5952 31.2647 66.04 30.5798 66.04C29.895 66.04 29.3398 66.5952 29.3398 67.28C29.3398 67.9649 29.895 68.52 30.5798 68.52Z" fill="white"/>
<path d="M30.5798 71.0005C31.2647 71.0005 31.8198 70.4453 31.8198 69.7605C31.8198 69.0757 31.2647 68.5205 30.5798 68.5205C29.895 68.5205 29.3398 69.0757 29.3398 69.7605C29.3398 70.4453 29.895 71.0005 30.5798 71.0005Z" fill="white"/>
<path d="M30.5798 75.9605C31.2647 75.9605 31.8198 75.4053 31.8198 74.7205C31.8198 74.0356 31.2647 73.4805 30.5798 73.4805C29.895 73.4805 29.3398 74.0356 29.3398 74.7205C29.3398 75.4053 29.895 75.9605 30.5798 75.9605Z" fill="white"/>
<path d="M33.0584 6.52004C33.7432 6.52004 34.2984 5.96487 34.2984 5.28004C34.2984 4.59521 33.7432 4.04004 33.0584 4.04004C32.3735 4.04004 31.8184 4.59521 31.8184 5.28004C31.8184 5.96487 32.3735 6.52004 33.0584 6.52004Z" fill="white"/>
<path d="M33.0584 9.00051C33.7432 9.00051 34.2984 8.44534 34.2984 7.76051C34.2984 7.07567 33.7432 6.52051 33.0584 6.52051C32.3735 6.52051 31.8184 7.07567 31.8184 7.76051C31.8184 8.44534 32.3735 9.00051 33.0584 9.00051Z" fill="white"/>
<path d="M33.0584 11.48C33.7432 11.48 34.2984 10.9248 34.2984 10.24C34.2984 9.55517 33.7432 9 33.0584 9C32.3735 9 31.8184 9.55517 31.8184 10.24C31.8184 10.9248 32.3735 11.48 33.0584 11.48Z" fill="white"/>
<path d="M33.0584 26.3601C33.7432 26.3601 34.2984 25.805 34.2984 25.1201C34.2984 24.4353 33.7432 23.8801 33.0584 23.8801C32.3735 23.8801 31.8184 24.4353 31.8184 25.1201C31.8184 25.805 32.3735 26.3601 33.0584 26.3601Z" fill="white"/>
<path d="M33.0584 28.8404C33.7432 28.8404 34.2984 28.2852 34.2984 27.6004C34.2984 26.9155 33.7432 26.3604 33.0584 26.3604C32.3735 26.3604 31.8184 26.9155 31.8184 27.6004C31.8184 28.2852 32.3735 28.8404 33.0584 28.8404Z" fill="white"/>
<path d="M33.0584 31.3201C33.7432 31.3201 34.2984 30.7649 34.2984 30.0801C34.2984 29.3953 33.7432 28.8401 33.0584 28.8401C32.3735 28.8401 31.8184 29.3953 31.8184 30.0801C31.8184 30.7649 32.3735 31.3201 33.0584 31.3201Z" fill="white"/>
<path d="M33.0584 36.28C33.7432 36.28 34.2984 35.7249 34.2984 35.04C34.2984 34.3552 33.7432 33.8 33.0584 33.8C32.3735 33.8 31.8184 34.3552 31.8184 35.04C31.8184 35.7249 32.3735 36.28 33.0584 36.28Z" fill="white"/>
<path d="M33.0584 38.76C33.7432 38.76 34.2984 38.2049 34.2984 37.52C34.2984 36.8352 33.7432 36.28 33.0584 36.28C32.3735 36.28 31.8184 36.8352 31.8184 37.52C31.8184 38.2049 32.3735 38.76 33.0584 38.76Z" fill="white"/>
<path d="M33.0584 46.1997C33.7432 46.1997 34.2984 45.6446 34.2984 44.9597C34.2984 44.2749 33.7432 43.7197 33.0584 43.7197C32.3735 43.7197 31.8184 44.2749 31.8184 44.9597C31.8184 45.6446 32.3735 46.1997 33.0584 46.1997Z" fill="white"/>
<path d="M33.0584 48.68C33.7432 48.68 34.2984 48.1248 34.2984 47.44C34.2984 46.7551 33.7432 46.2 33.0584 46.2C32.3735 46.2 31.8184 46.7551 31.8184 47.44C31.8184 48.1248 32.3735 48.68 33.0584 48.68Z" fill="white"/>
<path d="M33.0584 51.1597C33.7432 51.1597 34.2984 50.6045 34.2984 49.9197C34.2984 49.2349 33.7432 48.6797 33.0584 48.6797C32.3735 48.6797 31.8184 49.2349 31.8184 49.9197C31.8184 50.6045 32.3735 51.1597 33.0584 51.1597Z" fill="white"/>
<path d="M33.0584 53.6402C33.7432 53.6402 34.2984 53.085 34.2984 52.4002C34.2984 51.7153 33.7432 51.1602 33.0584 51.1602C32.3735 51.1602 31.8184 51.7153 31.8184 52.4002C31.8184 53.085 32.3735 53.6402 33.0584 53.6402Z" fill="white"/>
<path d="M33.0584 58.6001C33.7432 58.6001 34.2984 58.045 34.2984 57.3601C34.2984 56.6753 33.7432 56.1201 33.0584 56.1201C32.3735 56.1201 31.8184 56.6753 31.8184 57.3601C31.8184 58.045 32.3735 58.6001 33.0584 58.6001Z" fill="white"/>
<path d="M33.0584 68.52C33.7432 68.52 34.2984 67.9649 34.2984 67.28C34.2984 66.5952 33.7432 66.04 33.0584 66.04C32.3735 66.04 31.8184 66.5952 31.8184 67.28C31.8184 67.9649 32.3735 68.52 33.0584 68.52Z" fill="white"/>
<path d="M33.0584 73.48C33.7432 73.48 34.2984 72.9248 34.2984 72.24C34.2984 71.5552 33.7432 71 33.0584 71C32.3735 71 31.8184 71.5552 31.8184 72.24C31.8184 72.9248 32.3735 73.48 33.0584 73.48Z" fill="white"/>
<path d="M33.0584 75.9605C33.7432 75.9605 34.2984 75.4053 34.2984 74.7205C34.2984 74.0356 33.7432 73.4805 33.0584 73.4805C32.3735 73.4805 31.8184 74.0356 31.8184 74.7205C31.8184 75.4053 32.3735 75.9605 33.0584 75.9605Z" fill="white"/>
<path d="M35.5388 9.00051C36.2237 9.00051 36.7788 8.44534 36.7788 7.76051C36.7788 7.07567 36.2237 6.52051 35.5388 6.52051C34.854 6.52051 34.2988 7.07567 34.2988 7.76051C34.2988 8.44534 34.854 9.00051 35.5388 9.00051Z" fill="white"/>
<path d="M35.5388 16.44C36.2237 16.44 36.7788 15.8848 36.7788 15.2C36.7788 14.5151 36.2237 13.96 35.5388 13.96C34.854 13.96 34.2988 14.5151 34.2988 15.2C34.2988 15.8848 34.854 16.44 35.5388 16.44Z" fill="white"/>
<path d="M35.5388 21.3999C36.2237 21.3999 36.7788 20.8448 36.7788 20.1599C36.7788 19.4751 36.2237 18.9199 35.5388 18.9199C34.854 18.9199 34.2988 19.4751 34.2988 20.1599C34.2988 20.8448 34.854 21.3999 35.5388 21.3999Z" fill="white"/>
<path d="M35.5388 23.8804C36.2237 23.8804 36.7788 23.3252 36.7788 22.6404C36.7788 21.9556 36.2237 21.4004 35.5388 21.4004C34.854 21.4004 34.2988 21.9556 34.2988 22.6404C34.2988 23.3252 34.854 23.8804 35.5388 23.8804Z" fill="white"/>
<path d="M35.5388 26.3601C36.2237 26.3601 36.7788 25.805 36.7788 25.1201C36.7788 24.4353 36.2237 23.8801 35.5388 23.8801C34.854 23.8801 34.2988 24.4353 34.2988 25.1201C34.2988 25.805 34.854 26.3601 35.5388 26.3601Z" fill="white"/>
<path d="M35.5388 33.8003C36.2237 33.8003 36.7788 33.2451 36.7788 32.5603C36.7788 31.8755 36.2237 31.3203 35.5388 31.3203C34.854 31.3203 34.2988 31.8755 34.2988 32.5603C34.2988 33.2451 34.854 33.8003 35.5388 33.8003Z" fill="white"/>
<path d="M35.5388 38.76C36.2237 38.76 36.7788 38.2049 36.7788 37.52C36.7788 36.8352 36.2237 36.28 35.5388 36.28C34.854 36.28 34.2988 36.8352 34.2988 37.52C34.2988 38.2049 34.854 38.76 35.5388 38.76Z" fill="white"/>
<path d="M35.5388 46.1997C36.2237 46.1997 36.7788 45.6446 36.7788 44.9597C36.7788 44.2749 36.2237 43.7197 35.5388 43.7197C34.854 43.7197 34.2988 44.2749 34.2988 44.9597C34.2988 45.6446 34.854 46.1997 35.5388 46.1997Z" fill="white"/>
<path d="M35.5388 48.68C36.2237 48.68 36.7788 48.1248 36.7788 47.44C36.7788 46.7551 36.2237 46.2 35.5388 46.2C34.854 46.2 34.2988 46.7551 34.2988 47.44C34.2988 48.1248 34.854 48.68 35.5388 48.68Z" fill="white"/>
<path d="M35.5388 51.1597C36.2237 51.1597 36.7788 50.6045 36.7788 49.9197C36.7788 49.2349 36.2237 48.6797 35.5388 48.6797C34.854 48.6797 34.2988 49.2349 34.2988 49.9197C34.2988 50.6045 34.854 51.1597 35.5388 51.1597Z" fill="white"/>
<path d="M35.5388 53.6402C36.2237 53.6402 36.7788 53.085 36.7788 52.4002C36.7788 51.7153 36.2237 51.1602 35.5388 51.1602C34.854 51.1602 34.2988 51.7153 34.2988 52.4002C34.2988 53.085 34.854 53.6402 35.5388 53.6402Z" fill="white"/>
<path d="M35.5388 63.5601C36.2237 63.5601 36.7788 63.0049 36.7788 62.3201C36.7788 61.6352 36.2237 61.0801 35.5388 61.0801C34.854 61.0801 34.2988 61.6352 34.2988 62.3201C34.2988 63.0049 34.854 63.5601 35.5388 63.5601Z" fill="white"/>
<path d="M35.5388 68.52C36.2237 68.52 36.7788 67.9649 36.7788 67.28C36.7788 66.5952 36.2237 66.04 35.5388 66.04C34.854 66.04 34.2988 66.5952 34.2988 67.28C34.2988 67.9649 34.854 68.52 35.5388 68.52Z" fill="white"/>
<path d="M35.5388 75.9605C36.2237 75.9605 36.7788 75.4053 36.7788 74.7205C36.7788 74.0356 36.2237 73.4805 35.5388 73.4805C34.854 73.4805 34.2988 74.0356 34.2988 74.7205C34.2988 75.4053 34.854 75.9605 35.5388 75.9605Z" fill="white"/>
<path d="M38.0193 6.52004C38.7041 6.52004 39.2593 5.96487 39.2593 5.28004C39.2593 4.59521 38.7041 4.04004 38.0193 4.04004C37.3345 4.04004 36.7793 4.59521 36.7793 5.28004C36.7793 5.96487 37.3345 6.52004 38.0193 6.52004Z" fill="white"/>
<path d="M38.0193 11.48C38.7041 11.48 39.2593 10.9248 39.2593 10.24C39.2593 9.55517 38.7041 9 38.0193 9C37.3345 9 36.7793 9.55517 36.7793 10.24C36.7793 10.9248 37.3345 11.48 38.0193 11.48Z" fill="white"/>
<path d="M38.0193 18.9204C38.7041 18.9204 39.2593 18.3653 39.2593 17.6804C39.2593 16.9956 38.7041 16.4404 38.0193 16.4404C37.3345 16.4404 36.7793 16.9956 36.7793 17.6804C36.7793 18.3653 37.3345 18.9204 38.0193 18.9204Z" fill="white"/>
<path d="M38.0193 23.8804C38.7041 23.8804 39.2593 23.3252 39.2593 22.6404C39.2593 21.9556 38.7041 21.4004 38.0193 21.4004C37.3345 21.4004 36.7793 21.9556 36.7793 22.6404C36.7793 23.3252 37.3345 23.8804 38.0193 23.8804Z" fill="white"/>
<path d="M38.0193 26.3601C38.7041 26.3601 39.2593 25.805 39.2593 25.1201C39.2593 24.4353 38.7041 23.8801 38.0193 23.8801C37.3345 23.8801 36.7793 24.4353 36.7793 25.1201C36.7793 25.805 37.3345 26.3601 38.0193 26.3601Z" fill="white"/>
<path d="M38.0193 28.8404C38.7041 28.8404 39.2593 28.2852 39.2593 27.6004C39.2593 26.9155 38.7041 26.3604 38.0193 26.3604C37.3345 26.3604 36.7793 26.9155 36.7793 27.6004C36.7793 28.2852 37.3345 28.8404 38.0193 28.8404Z" fill="white"/>
<path d="M38.0193 33.8003C38.7041 33.8003 39.2593 33.2451 39.2593 32.5603C39.2593 31.8755 38.7041 31.3203 38.0193 31.3203C37.3345 31.3203 36.7793 31.8755 36.7793 32.5603C36.7793 33.2451 37.3345 33.8003 38.0193 33.8003Z" fill="white"/>
<path d="M38.0193 38.76C38.7041 38.76 39.2593 38.2049 39.2593 37.52C39.2593 36.8352 38.7041 36.28 38.0193 36.28C37.3345 36.28 36.7793 36.8352 36.7793 37.52C36.7793 38.2049 37.3345 38.76 38.0193 38.76Z" fill="white"/>
<path d="M38.0193 43.72C38.7041 43.72 39.2593 43.1648 39.2593 42.48C39.2593 41.7952 38.7041 41.24 38.0193 41.24C37.3345 41.24 36.7793 41.7952 36.7793 42.48C36.7793 43.1648 37.3345 43.72 38.0193 43.72Z" fill="white"/>
<path d="M38.0193 48.68C38.7041 48.68 39.2593 48.1248 39.2593 47.44C39.2593 46.7551 38.7041 46.2 38.0193 46.2C37.3345 46.2 36.7793 46.7551 36.7793 47.44C36.7793 48.1248 37.3345 48.68 38.0193 48.68Z" fill="white"/>
<path d="M38.0193 51.1597C38.7041 51.1597 39.2593 50.6045 39.2593 49.9197C39.2593 49.2349 38.7041 48.6797 38.0193 48.6797C37.3345 48.6797 36.7793 49.2349 36.7793 49.9197C36.7793 50.6045 37.3345 51.1597 38.0193 51.1597Z" fill="white"/>
<path d="M38.0193 61.0796C38.7041 61.0796 39.2593 60.5244 39.2593 59.8396C39.2593 59.1548 38.7041 58.5996 38.0193 58.5996C37.3345 58.5996 36.7793 59.1548 36.7793 59.8396C36.7793 60.5244 37.3345 61.0796 38.0193 61.0796Z" fill="white"/>
<path d="M38.0193 66.0396C38.7041 66.0396 39.2593 65.4844 39.2593 64.7996C39.2593 64.1147 38.7041 63.5596 38.0193 63.5596C37.3345 63.5596 36.7793 64.1147 36.7793 64.7996C36.7793 65.4844 37.3345 66.0396 38.0193 66.0396Z" fill="white"/>
<path d="M38.0193 71.0005C38.7041 71.0005 39.2593 70.4453 39.2593 69.7605C39.2593 69.0757 38.7041 68.5205 38.0193 68.5205C37.3345 68.5205 36.7793 69.0757 36.7793 69.7605C36.7793 70.4453 37.3345 71.0005 38.0193 71.0005Z" fill="white"/>
<path d="M38.0193 73.48C38.7041 73.48 39.2593 72.9248 39.2593 72.24C39.2593 71.5552 38.7041 71 38.0193 71C37.3345 71 36.7793 71.5552 36.7793 72.24C36.7793 72.9248 37.3345 73.48 38.0193 73.48Z" fill="white"/>
<path d="M40.4998 6.52004C41.1846 6.52004 41.7398 5.96487 41.7398 5.28004C41.7398 4.59521 41.1846 4.04004 40.4998 4.04004C39.8149 4.04004 39.2598 4.59521 39.2598 5.28004C39.2598 5.96487 39.8149 6.52004 40.4998 6.52004Z" fill="white"/>
<path d="M40.4998 13.9605C41.1846 13.9605 41.7398 13.4053 41.7398 12.7205C41.7398 12.0356 41.1846 11.4805 40.4998 11.4805C39.8149 11.4805 39.2598 12.0356 39.2598 12.7205C39.2598 13.4053 39.8149 13.9605 40.4998 13.9605Z" fill="white"/>
<path d="M40.4998 18.9204C41.1846 18.9204 41.7398 18.3653 41.7398 17.6804C41.7398 16.9956 41.1846 16.4404 40.4998 16.4404C39.8149 16.4404 39.2598 16.9956 39.2598 17.6804C39.2598 18.3653 39.8149 18.9204 40.4998 18.9204Z" fill="white"/>
<path d="M40.4998 21.3999C41.1846 21.3999 41.7398 20.8448 41.7398 20.1599C41.7398 19.4751 41.1846 18.9199 40.4998 18.9199C39.8149 18.9199 39.2598 19.4751 39.2598 20.1599C39.2598 20.8448 39.8149 21.3999 40.4998 21.3999Z" fill="white"/>
<path d="M40.4998 23.8804C41.1846 23.8804 41.7398 23.3252 41.7398 22.6404C41.7398 21.9556 41.1846 21.4004 40.4998 21.4004C39.8149 21.4004 39.2598 21.9556 39.2598 22.6404C39.2598 23.3252 39.8149 23.8804 40.4998 23.8804Z" fill="white"/>
<path d="M40.4998 31.3201C41.1846 31.3201 41.7398 30.7649 41.7398 30.0801C41.7398 29.3953 41.1846 28.8401 40.4998 28.8401C39.8149 28.8401 39.2598 29.3953 39.2598 30.0801C39.2598 30.7649 39.8149 31.3201 40.4998 31.3201Z" fill="white"/>
<path d="M40.4998 33.8003C41.1846 33.8003 41.7398 33.2451 41.7398 32.5603C41.7398 31.8755 41.1846 31.3203 40.4998 31.3203C39.8149 31.3203 39.2598 31.8755 39.2598 32.5603C39.2598 33.2451 39.8149 33.8003 40.4998 33.8003Z" fill="white"/>
<path d="M40.4998 38.76C41.1846 38.76 41.7398 38.2049 41.7398 37.52C41.7398 36.8352 41.1846 36.28 40.4998 36.28C39.8149 36.28 39.2598 36.8352 39.2598 37.52C39.2598 38.2049 39.8149 38.76 40.4998 38.76Z" fill="white"/>
<path d="M40.4998 46.1997C41.1846 46.1997 41.7398 45.6446 41.7398 44.9597C41.7398 44.2749 41.1846 43.7197 40.4998 43.7197C39.8149 43.7197 39.2598 44.2749 39.2598 44.9597C39.2598 45.6446 39.8149 46.1997 40.4998 46.1997Z" fill="white"/>
<path d="M40.4998 51.1597C41.1846 51.1597 41.7398 50.6045 41.7398 49.9197C41.7398 49.2349 41.1846 48.6797 40.4998 48.6797C39.8149 48.6797 39.2598 49.2349 39.2598 49.9197C39.2598 50.6045 39.8149 51.1597 40.4998 51.1597Z" fill="white"/>
<path d="M40.4998 56.1196C41.1846 56.1196 41.7398 55.5645 41.7398 54.8796C41.7398 54.1948 41.1846 53.6396 40.4998 53.6396C39.8149 53.6396 39.2598 54.1948 39.2598 54.8796C39.2598 55.5645 39.8149 56.1196 40.4998 56.1196Z" fill="white"/>
<path d="M40.4998 61.0796C41.1846 61.0796 41.7398 60.5244 41.7398 59.8396C41.7398 59.1548 41.1846 58.5996 40.4998 58.5996C39.8149 58.5996 39.2598 59.1548 39.2598 59.8396C39.2598 60.5244 39.8149 61.0796 40.4998 61.0796Z" fill="white"/>
<path d="M40.4998 66.0396C41.1846 66.0396 41.7398 65.4844 41.7398 64.7996C41.7398 64.1147 41.1846 63.5596 40.4998 63.5596C39.8149 63.5596 39.2598 64.1147 39.2598 64.7996C39.2598 65.4844 39.8149 66.0396 40.4998 66.0396Z" fill="white"/>
<path d="M40.4998 75.9605C41.1846 75.9605 41.7398 75.4053 41.7398 74.7205C41.7398 74.0356 41.1846 73.4805 40.4998 73.4805C39.8149 73.4805 39.2598 74.0356 39.2598 74.7205C39.2598 75.4053 39.8149 75.9605 40.4998 75.9605Z" fill="white"/>
<path d="M42.9783 6.52004C43.6631 6.52004 44.2183 5.96487 44.2183 5.28004C44.2183 4.59521 43.6631 4.04004 42.9783 4.04004C42.2934 4.04004 41.7383 4.59521 41.7383 5.28004C41.7383 5.96487 42.2934 6.52004 42.9783 6.52004Z" fill="white"/>
<path d="M42.9783 18.9204C43.6631 18.9204 44.2183 18.3653 44.2183 17.6804C44.2183 16.9956 43.6631 16.4404 42.9783 16.4404C42.2934 16.4404 41.7383 16.9956 41.7383 17.6804C41.7383 18.3653 42.2934 18.9204 42.9783 18.9204Z" fill="white"/>
<path d="M42.9783 23.8804C43.6631 23.8804 44.2183 23.3252 44.2183 22.6404C44.2183 21.9556 43.6631 21.4004 42.9783 21.4004C42.2934 21.4004 41.7383 21.9556 41.7383 22.6404C41.7383 23.3252 42.2934 23.8804 42.9783 23.8804Z" fill="white"/>
<path d="M42.9783 28.8404C43.6631 28.8404 44.2183 28.2852 44.2183 27.6004C44.2183 26.9155 43.6631 26.3604 42.9783 26.3604C42.2934 26.3604 41.7383 26.9155 41.7383 27.6004C41.7383 28.2852 42.2934 28.8404 42.9783 28.8404Z" fill="white"/>
<path d="M42.9783 31.3201C43.6631 31.3201 44.2183 30.7649 44.2183 30.0801C44.2183 29.3953 43.6631 28.8401 42.9783 28.8401C42.2934 28.8401 41.7383 29.3953 41.7383 30.0801C41.7383 30.7649 42.2934 31.3201 42.9783 31.3201Z" fill="white"/>
<path d="M42.9783 33.8003C43.6631 33.8003 44.2183 33.2451 44.2183 32.5603C44.2183 31.8755 43.6631 31.3203 42.9783 31.3203C42.2934 31.3203 41.7383 31.8755 41.7383 32.5603C41.7383 33.2451 42.2934 33.8003 42.9783 33.8003Z" fill="white"/>
<path d="M42.9783 36.28C43.6631 36.28 44.2183 35.7249 44.2183 35.04C44.2183 34.3552 43.6631 33.8 42.9783 33.8C42.2934 33.8 41.7383 34.3552 41.7383 35.04C41.7383 35.7249 42.2934 36.28 42.9783 36.28Z" fill="white"/>
<path d="M42.9783 38.76C43.6631 38.76 44.2183 38.2049 44.2183 37.52C44.2183 36.8352 43.6631 36.28 42.9783 36.28C42.2934 36.28 41.7383 36.8352 41.7383 37.52C41.7383 38.2049 42.2934 38.76 42.9783 38.76Z" fill="white"/>
<path d="M42.9783 41.2398C43.6631 41.2398 44.2183 40.6846 44.2183 39.9998C44.2183 39.3149 43.6631 38.7598 42.9783 38.7598C42.2934 38.7598 41.7383 39.3149 41.7383 39.9998C41.7383 40.6846 42.2934 41.2398 42.9783 41.2398Z" fill="white"/>
<path d="M42.9783 58.6001C43.6631 58.6001 44.2183 58.045 44.2183 57.3601C44.2183 56.6753 43.6631 56.1201 42.9783 56.1201C42.2934 56.1201 41.7383 56.6753 41.7383 57.3601C41.7383 58.045 42.2934 58.6001 42.9783 58.6001Z" fill="white"/>
<path d="M42.9783 63.5601C43.6631 63.5601 44.2183 63.0049 44.2183 62.3201C44.2183 61.6352 43.6631 61.0801 42.9783 61.0801C42.2934 61.0801 41.7383 61.6352 41.7383 62.3201C41.7383 63.0049 42.2934 63.5601 42.9783 63.5601Z" fill="white"/>
<path d="M42.9783 68.52C43.6631 68.52 44.2183 67.9649 44.2183 67.28C44.2183 66.5952 43.6631 66.04 42.9783 66.04C42.2934 66.04 41.7383 66.5952 41.7383 67.28C41.7383 67.9649 42.2934 68.52 42.9783 68.52Z" fill="white"/>
<path d="M45.4588 6.52004C46.1436 6.52004 46.6988 5.96487 46.6988 5.28004C46.6988 4.59521 46.1436 4.04004 45.4588 4.04004C44.7739 4.04004 44.2188 4.59521 44.2188 5.28004C44.2188 5.96487 44.7739 6.52004 45.4588 6.52004Z" fill="white"/>
<path d="M45.4588 11.48C46.1436 11.48 46.6988 10.9248 46.6988 10.24C46.6988 9.55517 46.1436 9 45.4588 9C44.7739 9 44.2188 9.55517 44.2188 10.24C44.2188 10.9248 44.7739 11.48 45.4588 11.48Z" fill="white"/>
<path d="M45.4588 21.3999C46.1436 21.3999 46.6988 20.8448 46.6988 20.1599C46.6988 19.4751 46.1436 18.9199 45.4588 18.9199C44.7739 18.9199 44.2188 19.4751 44.2188 20.1599C44.2188 20.8448 44.7739 21.3999 45.4588 21.3999Z" fill="white"/>
<path d="M45.4588 23.8804C46.1436 23.8804 46.6988 23.3252 46.6988 22.6404C46.6988 21.9556 46.1436 21.4004 45.4588 21.4004C44.7739 21.4004 44.2188 21.9556 44.2188 22.6404C44.2188 23.3252 44.7739 23.8804 45.4588 23.8804Z" fill="white"/>
<path d="M45.4588 33.8003C46.1436 33.8003 46.6988 33.2451 46.6988 32.5603C46.6988 31.8755 46.1436 31.3203 45.4588 31.3203C44.7739 31.3203 44.2188 31.8755 44.2188 32.5603C44.2188 33.2451 44.7739 33.8003 45.4588 33.8003Z" fill="white"/>
<path d="M45.4588 38.76C46.1436 38.76 46.6988 38.2049 46.6988 37.52C46.6988 36.8352 46.1436 36.28 45.4588 36.28C44.7739 36.28 44.2188 36.8352 44.2188 37.52C44.2188 38.2049 44.7739 38.76 45.4588 38.76Z" fill="white"/>
<path d="M45.4588 46.1997C46.1436 46.1997 46.6988 45.6446 46.6988 44.9597C46.6988 44.2749 46.1436 43.7197 45.4588 43.7197C44.7739 43.7197 44.2188 44.2749 44.2188 44.9597C44.2188 45.6446 44.7739 46.1997 45.4588 46.1997Z" fill="white"/>
<path d="M45.4588 53.6402C46.1436 53.6402 46.6988 53.085 46.6988 52.4002C46.6988 51.7153 46.1436 51.1602 45.4588 51.1602C44.7739 51.1602 44.2188 51.7153 44.2188 52.4002C44.2188 53.085 44.7739 53.6402 45.4588 53.6402Z" fill="white"/>
<path d="M45.4588 63.5601C46.1436 63.5601 46.6988 63.0049 46.6988 62.3201C46.6988 61.6352 46.1436 61.0801 45.4588 61.0801C44.7739 61.0801 44.2188 61.6352 44.2188 62.3201C44.2188 63.0049 44.7739 63.5601 45.4588 63.5601Z" fill="white"/>
<path d="M47.9392 6.52004C48.6241 6.52004 49.1792 5.96487 49.1792 5.28004C49.1792 4.59521 48.6241 4.04004 47.9392 4.04004C47.2544 4.04004 46.6992 4.59521 46.6992 5.28004C46.6992 5.96487 47.2544 6.52004 47.9392 6.52004Z" fill="white"/>
<path d="M47.9392 9.00051C48.6241 9.00051 49.1792 8.44534 49.1792 7.76051C49.1792 7.07567 48.6241 6.52051 47.9392 6.52051C47.2544 6.52051 46.6992 7.07567 46.6992 7.76051C46.6992 8.44534 47.2544 9.00051 47.9392 9.00051Z" fill="white"/>
<path d="M47.9392 11.48C48.6241 11.48 49.1792 10.9248 49.1792 10.24C49.1792 9.55517 48.6241 9 47.9392 9C47.2544 9 46.6992 9.55517 46.6992 10.24C46.6992 10.9248 47.2544 11.48 47.9392 11.48Z" fill="white"/>
<path d="M47.9392 18.9204C48.6241 18.9204 49.1792 18.3653 49.1792 17.6804C49.1792 16.9956 48.6241 16.4404 47.9392 16.4404C47.2544 16.4404 46.6992 16.9956 46.6992 17.6804C46.6992 18.3653 47.2544 18.9204 47.9392 18.9204Z" fill="white"/>
<path d="M47.9392 31.3201C48.6241 31.3201 49.1792 30.7649 49.1792 30.0801C49.1792 29.3953 48.6241 28.8401 47.9392 28.8401C47.2544 28.8401 46.6992 29.3953 46.6992 30.0801C46.6992 30.7649 47.2544 31.3201 47.9392 31.3201Z" fill="white"/>
<path d="M47.9392 48.68C48.6241 48.68 49.1792 48.1248 49.1792 47.44C49.1792 46.7551 48.6241 46.2 47.9392 46.2C47.2544 46.2 46.6992 46.7551 46.6992 47.44C46.6992 48.1248 47.2544 48.68 47.9392 48.68Z" fill="white"/>
<path d="M47.9392 51.1597C48.6241 51.1597 49.1792 50.6045 49.1792 49.9197C49.1792 49.2349 48.6241 48.6797 47.9392 48.6797C47.2544 48.6797 46.6992 49.2349 46.6992 49.9197C46.6992 50.6045 47.2544 51.1597 47.9392 51.1597Z" fill="white"/>
<path d="M47.9392 53.6402C48.6241 53.6402 49.1792 53.085 49.1792 52.4002C49.1792 51.7153 48.6241 51.1602 47.9392 51.1602C47.2544 51.1602 46.6992 51.7153 46.6992 52.4002C46.6992 53.085 47.2544 53.6402 47.9392 53.6402Z" fill="white"/>
<path d="M47.9392 58.6001C48.6241 58.6001 49.1792 58.045 49.1792 57.3601C49.1792 56.6753 48.6241 56.1201 47.9392 56.1201C47.2544 56.1201 46.6992 56.6753 46.6992 57.3601C46.6992 58.045 47.2544 58.6001 47.9392 58.6001Z" fill="white"/>
<path d="M47.9392 61.0796C48.6241 61.0796 49.1792 60.5244 49.1792 59.8396C49.1792 59.1548 48.6241 58.5996 47.9392 58.5996C47.2544 58.5996 46.6992 59.1548 46.6992 59.8396C46.6992 60.5244 47.2544 61.0796 47.9392 61.0796Z" fill="white"/>
<path d="M47.9392 63.5601C48.6241 63.5601 49.1792 63.0049 49.1792 62.3201C49.1792 61.6352 48.6241 61.0801 47.9392 61.0801C47.2544 61.0801 46.6992 61.6352 46.6992 62.3201C46.6992 63.0049 47.2544 63.5601 47.9392 63.5601Z" fill="white"/>
<path d="M47.9392 66.0396C48.6241 66.0396 49.1792 65.4844 49.1792 64.7996C49.1792 64.1147 48.6241 63.5596 47.9392 63.5596C47.2544 63.5596 46.6992 64.1147 46.6992 64.7996C46.6992 65.4844 47.2544 66.0396 47.9392 66.0396Z" fill="white"/>
<path d="M47.9392 75.9605C48.6241 75.9605 49.1792 75.4053 49.1792 74.7205C49.1792 74.0356 48.6241 73.4805 47.9392 73.4805C47.2544 73.4805 46.6992 74.0356 46.6992 74.7205C46.6992 75.4053 47.2544 75.9605 47.9392 75.9605Z" fill="white"/>
<path d="M50.4197 16.44C51.1045 16.44 51.6597 15.8848 51.6597 15.2C51.6597 14.5151 51.1045 13.96 50.4197 13.96C49.7349 13.96 49.1797 14.5151 49.1797 15.2C49.1797 15.8848 49.7349 16.44 50.4197 16.44Z" fill="white"/>
<path d="M50.4197 18.9204C51.1045 18.9204 51.6597 18.3653 51.6597 17.6804C51.6597 16.9956 51.1045 16.4404 50.4197 16.4404C49.7349 16.4404 49.1797 16.9956 49.1797 17.6804C49.1797 18.3653 49.7349 18.9204 50.4197 18.9204Z" fill="white"/>
<path d="M50.4197 21.3999C51.1045 21.3999 51.6597 20.8448 51.6597 20.1599C51.6597 19.4751 51.1045 18.9199 50.4197 18.9199C49.7349 18.9199 49.1797 19.4751 49.1797 20.1599C49.1797 20.8448 49.7349 21.3999 50.4197 21.3999Z" fill="white"/>
<path d="M50.4197 23.8804C51.1045 23.8804 51.6597 23.3252 51.6597 22.6404C51.6597 21.9556 51.1045 21.4004 50.4197 21.4004C49.7349 21.4004 49.1797 21.9556 49.1797 22.6404C49.1797 23.3252 49.7349 23.8804 50.4197 23.8804Z" fill="white"/>
<path d="M50.4197 28.8404C51.1045 28.8404 51.6597 28.2852 51.6597 27.6004C51.6597 26.9155 51.1045 26.3604 50.4197 26.3604C49.7349 26.3604 49.1797 26.9155 49.1797 27.6004C49.1797 28.2852 49.7349 28.8404 50.4197 28.8404Z" fill="white"/>
<path d="M50.4197 38.76C51.1045 38.76 51.6597 38.2049 51.6597 37.52C51.6597 36.8352 51.1045 36.28 50.4197 36.28C49.7349 36.28 49.1797 36.8352 49.1797 37.52C49.1797 38.2049 49.7349 38.76 50.4197 38.76Z" fill="white"/>
<path d="M50.4197 41.2398C51.1045 41.2398 51.6597 40.6846 51.6597 39.9998C51.6597 39.3149 51.1045 38.7598 50.4197 38.7598C49.7349 38.7598 49.1797 39.3149 49.1797 39.9998C49.1797 40.6846 49.7349 41.2398 50.4197 41.2398Z" fill="white"/>
<path d="M50.4197 43.72C51.1045 43.72 51.6597 43.1648 51.6597 42.48C51.6597 41.7952 51.1045 41.24 50.4197 41.24C49.7349 41.24 49.1797 41.7952 49.1797 42.48C49.1797 43.1648 49.7349 43.72 50.4197 43.72Z" fill="white"/>
<path d="M50.4197 51.1597C51.1045 51.1597 51.6597 50.6045 51.6597 49.9197C51.6597 49.2349 51.1045 48.6797 50.4197 48.6797C49.7349 48.6797 49.1797 49.2349 49.1797 49.9197C49.1797 50.6045 49.7349 51.1597 50.4197 51.1597Z" fill="white"/>
<path d="M50.4197 56.1196C51.1045 56.1196 51.6597 55.5645 51.6597 54.8796C51.6597 54.1948 51.1045 53.6396 50.4197 53.6396C49.7349 53.6396 49.1797 54.1948 49.1797 54.8796C49.1797 55.5645 49.7349 56.1196 50.4197 56.1196Z" fill="white"/>
<path d="M50.4197 63.5601C51.1045 63.5601 51.6597 63.0049 51.6597 62.3201C51.6597 61.6352 51.1045 61.0801 50.4197 61.0801C49.7349 61.0801 49.1797 61.6352 49.1797 62.3201C49.1797 63.0049 49.7349 63.5601 50.4197 63.5601Z" fill="white"/>
<path d="M50.4197 68.52C51.1045 68.52 51.6597 67.9649 51.6597 67.28C51.6597 66.5952 51.1045 66.04 50.4197 66.04C49.7349 66.04 49.1797 66.5952 49.1797 67.28C49.1797 67.9649 49.7349 68.52 50.4197 68.52Z" fill="white"/>
<path d="M50.4197 71.0005C51.1045 71.0005 51.6597 70.4453 51.6597 69.7605C51.6597 69.0757 51.1045 68.5205 50.4197 68.5205C49.7349 68.5205 49.1797 69.0757 49.1797 69.7605C49.1797 70.4453 49.7349 71.0005 50.4197 71.0005Z" fill="white"/>
<path d="M50.4197 75.9605C51.1045 75.9605 51.6597 75.4053 51.6597 74.7205C51.6597 74.0356 51.1045 73.4805 50.4197 73.4805C49.7349 73.4805 49.1797 74.0356 49.1797 74.7205C49.1797 75.4053 49.7349 75.9605 50.4197 75.9605Z" fill="white"/>
<path d="M52.8982 11.48C53.583 11.48 54.1382 10.9248 54.1382 10.24C54.1382 9.55517 53.583 9 52.8982 9C52.2134 9 51.6582 9.55517 51.6582 10.24C51.6582 10.9248 52.2134 11.48 52.8982 11.48Z" fill="white"/>
<path d="M52.8982 16.44C53.583 16.44 54.1382 15.8848 54.1382 15.2C54.1382 14.5151 53.583 13.96 52.8982 13.96C52.2134 13.96 51.6582 14.5151 51.6582 15.2C51.6582 15.8848 52.2134 16.44 52.8982 16.44Z" fill="white"/>
<path d="M52.9002 23.8804C53.585 23.8804 54.1402 23.3252 54.1402 22.6404C54.1402 21.9556 53.585 21.4004 52.9002 21.4004C52.2153 21.4004 51.6602 21.9556 51.6602 22.6404C51.6602 23.3252 52.2153 23.8804 52.9002 23.8804Z" fill="white"/>
<path d="M52.8982 26.3601C53.583 26.3601 54.1382 25.805 54.1382 25.1201C54.1382 24.4353 53.583 23.8801 52.8982 23.8801C52.2134 23.8801 51.6582 24.4353 51.6582 25.1201C51.6582 25.805 52.2134 26.3601 52.8982 26.3601Z" fill="white"/>
<path d="M52.8982 31.3201C53.583 31.3201 54.1382 30.7649 54.1382 30.0801C54.1382 29.3953 53.583 28.8401 52.8982 28.8401C52.2134 28.8401 51.6582 29.3953 51.6582 30.0801C51.6582 30.7649 52.2134 31.3201 52.8982 31.3201Z" fill="white"/>
<path d="M52.9002 33.8003C53.585 33.8003 54.1402 33.2451 54.1402 32.5603C54.1402 31.8755 53.585 31.3203 52.9002 31.3203C52.2153 31.3203 51.6602 31.8755 51.6602 32.5603C51.6602 33.2451 52.2153 33.8003 52.9002 33.8003Z" fill="white"/>
<path d="M52.8982 36.28C53.583 36.28 54.1382 35.7249 54.1382 35.04C54.1382 34.3552 53.583 33.8 52.8982 33.8C52.2134 33.8 51.6582 34.3552 51.6582 35.04C51.6582 35.7249 52.2134 36.28 52.8982 36.28Z" fill="white"/>
<path d="M52.8982 38.76C53.583 38.76 54.1382 38.2049 54.1382 37.52C54.1382 36.8352 53.583 36.28 52.8982 36.28C52.2134 36.28 51.6582 36.8352 51.6582 37.52C51.6582 38.2049 52.2134 38.76 52.8982 38.76Z" fill="white"/>
<path d="M52.9002 41.2398C53.585 41.2398 54.1402 40.6846 54.1402 39.9998C54.1402 39.3149 53.585 38.7598 52.9002 38.7598C52.2153 38.7598 51.6602 39.3149 51.6602 39.9998C51.6602 40.6846 52.2153 41.2398 52.9002 41.2398Z" fill="white"/>
<path d="M52.8982 43.72C53.583 43.72 54.1382 43.1648 54.1382 42.48C54.1382 41.7952 53.583 41.24 52.8982 41.24C52.2134 41.24 51.6582 41.7952 51.6582 42.48C51.6582 43.1648 52.2134 43.72 52.8982 43.72Z" fill="white"/>
<path d="M52.9002 46.1997C53.585 46.1997 54.1402 45.6446 54.1402 44.9597C54.1402 44.2749 53.585 43.7197 52.9002 43.7197C52.2153 43.7197 51.6602 44.2749 51.6602 44.9597C51.6602 45.6446 52.2153 46.1997 52.9002 46.1997Z" fill="white"/>
<path d="M52.8982 48.68C53.583 48.68 54.1382 48.1248 54.1382 47.44C54.1382 46.7551 53.583 46.2 52.8982 46.2C52.2134 46.2 51.6582 46.7551 51.6582 47.44C51.6582 48.1248 52.2134 48.68 52.8982 48.68Z" fill="white"/>
<path d="M52.8982 53.6402C53.583 53.6402 54.1382 53.085 54.1382 52.4002C54.1382 51.7153 53.583 51.1602 52.8982 51.1602C52.2134 51.1602 51.6582 51.7153 51.6582 52.4002C51.6582 53.085 52.2134 53.6402 52.8982 53.6402Z" fill="white"/>
<path d="M52.9002 56.1196C53.585 56.1196 54.1402 55.5645 54.1402 54.8796C54.1402 54.1948 53.585 53.6396 52.9002 53.6396C52.2153 53.6396 51.6602 54.1948 51.6602 54.8796C51.6602 55.5645 52.2153 56.1196 52.9002 56.1196Z" fill="white"/>
<path d="M52.8982 68.52C53.583 68.52 54.1382 67.9649 54.1382 67.28C54.1382 66.5952 53.583 66.04 52.8982 66.04C52.2134 66.04 51.6582 66.5952 51.6582 67.28C51.6582 67.9649 52.2134 68.52 52.8982 68.52Z" fill="white"/>
<path d="M52.8982 73.48C53.583 73.48 54.1382 72.9248 54.1382 72.24C54.1382 71.5552 53.583 71 52.8982 71C52.2134 71 51.6582 71.5552 51.6582 72.24C51.6582 72.9248 52.2134 73.48 52.8982 73.48Z" fill="white"/>
<path d="M55.3787 6.52004C56.0635 6.52004 56.6187 5.96487 56.6187 5.28004C56.6187 4.59521 56.0635 4.04004 55.3787 4.04004C54.6938 4.04004 54.1387 4.59521 54.1387 5.28004C54.1387 5.96487 54.6938 6.52004 55.3787 6.52004Z" fill="white"/>
<path d="M55.3787 9.00051C56.0635 9.00051 56.6187 8.44534 56.6187 7.76051C56.6187 7.07567 56.0635 6.52051 55.3787 6.52051C54.6938 6.52051 54.1387 7.07567 54.1387 7.76051C54.1387 8.44534 54.6938 9.00051 55.3787 9.00051Z" fill="white"/>
<path d="M55.3787 16.44C56.0635 16.44 56.6187 15.8848 56.6187 15.2C56.6187 14.5151 56.0635 13.96 55.3787 13.96C54.6938 13.96 54.1387 14.5151 54.1387 15.2C54.1387 15.8848 54.6938 16.44 55.3787 16.44Z" fill="white"/>
<path d="M55.3787 21.3999C56.0635 21.3999 56.6187 20.8448 56.6187 20.1599C56.6187 19.4751 56.0635 18.9199 55.3787 18.9199C54.6938 18.9199 54.1387 19.4751 54.1387 20.1599C54.1387 20.8448 54.6938 21.3999 55.3787 21.3999Z" fill="white"/>
<path d="M55.3787 26.3601C56.0635 26.3601 56.6187 25.805 56.6187 25.1201C56.6187 24.4353 56.0635 23.8801 55.3787 23.8801C54.6938 23.8801 54.1387 24.4353 54.1387 25.1201C54.1387 25.805 54.6938 26.3601 55.3787 26.3601Z" fill="white"/>
<path d="M55.3787 33.8003C56.0635 33.8003 56.6187 33.2451 56.6187 32.5603C56.6187 31.8755 56.0635 31.3203 55.3787 31.3203C54.6938 31.3203 54.1387 31.8755 54.1387 32.5603C54.1387 33.2451 54.6938 33.8003 55.3787 33.8003Z" fill="white"/>
<path d="M55.3787 36.28C56.0635 36.28 56.6187 35.7249 56.6187 35.04C56.6187 34.3552 56.0635 33.8 55.3787 33.8C54.6938 33.8 54.1387 34.3552 54.1387 35.04C54.1387 35.7249 54.6938 36.28 55.3787 36.28Z" fill="white"/>
<path d="M55.3787 38.76C56.0635 38.76 56.6187 38.2049 56.6187 37.52C56.6187 36.8352 56.0635 36.28 55.3787 36.28C54.6938 36.28 54.1387 36.8352 54.1387 37.52C54.1387 38.2049 54.6938 38.76 55.3787 38.76Z" fill="white"/>
<path d="M55.3787 48.68C56.0635 48.68 56.6187 48.1248 56.6187 47.44C56.6187 46.7551 56.0635 46.2 55.3787 46.2C54.6938 46.2 54.1387 46.7551 54.1387 47.44C54.1387 48.1248 54.6938 48.68 55.3787 48.68Z" fill="white"/>
<path d="M55.3787 56.1196C56.0635 56.1196 56.6187 55.5645 56.6187 54.8796C56.6187 54.1948 56.0635 53.6396 55.3787 53.6396C54.6938 53.6396 54.1387 54.1948 54.1387 54.8796C54.1387 55.5645 54.6938 56.1196 55.3787 56.1196Z" fill="white"/>
<path d="M55.3787 58.6001C56.0635 58.6001 56.6187 58.045 56.6187 57.3601C56.6187 56.6753 56.0635 56.1201 55.3787 56.1201C54.6938 56.1201 54.1387 56.6753 54.1387 57.3601C54.1387 58.045 54.6938 58.6001 55.3787 58.6001Z" fill="white"/>
<path d="M55.3787 61.0796C56.0635 61.0796 56.6187 60.5244 56.6187 59.8396C56.6187 59.1548 56.0635 58.5996 55.3787 58.5996C54.6938 58.5996 54.1387 59.1548 54.1387 59.8396C54.1387 60.5244 54.6938 61.0796 55.3787 61.0796Z" fill="white"/>
<path d="M55.3787 63.5601C56.0635 63.5601 56.6187 63.0049 56.6187 62.3201C56.6187 61.6352 56.0635 61.0801 55.3787 61.0801C54.6938 61.0801 54.1387 61.6352 54.1387 62.3201C54.1387 63.0049 54.6938 63.5601 55.3787 63.5601Z" fill="white"/>
<path d="M55.3787 66.0396C56.0635 66.0396 56.6187 65.4844 56.6187 64.7996C56.6187 64.1147 56.0635 63.5596 55.3787 63.5596C54.6938 63.5596 54.1387 64.1147 54.1387 64.7996C54.1387 65.4844 54.6938 66.0396 55.3787 66.0396Z" fill="white"/>
<path d="M55.3787 68.52C56.0635 68.52 56.6187 67.9649 56.6187 67.28C56.6187 66.5952 56.0635 66.04 55.3787 66.04C54.6938 66.04 54.1387 66.5952 54.1387 67.28C54.1387 67.9649 54.6938 68.52 55.3787 68.52Z" fill="white"/>
<path d="M55.3787 71.0005C56.0635 71.0005 56.6187 70.4453 56.6187 69.7605C56.6187 69.0757 56.0635 68.5205 55.3787 68.5205C54.6938 68.5205 54.1387 69.0757 54.1387 69.7605C54.1387 70.4453 54.6938 71.0005 55.3787 71.0005Z" fill="white"/>
<path d="M55.3787 75.9605C56.0635 75.9605 56.6187 75.4053 56.6187 74.7205C56.6187 74.0356 56.0635 73.4805 55.3787 73.4805C54.6938 73.4805 54.1387 74.0356 54.1387 74.7205C54.1387 75.4053 54.6938 75.9605 55.3787 75.9605Z" fill="white"/>
<path d="M57.8591 26.3601C58.544 26.3601 59.0991 25.805 59.0991 25.1201C59.0991 24.4353 58.544 23.8801 57.8591 23.8801C57.1743 23.8801 56.6191 24.4353 56.6191 25.1201C56.6191 25.805 57.1743 26.3601 57.8591 26.3601Z" fill="white"/>
<path d="M57.8591 33.8003C58.544 33.8003 59.0991 33.2451 59.0991 32.5603C59.0991 31.8755 58.544 31.3203 57.8591 31.3203C57.1743 31.3203 56.6191 31.8755 56.6191 32.5603C56.6191 33.2451 57.1743 33.8003 57.8591 33.8003Z" fill="white"/>
<path d="M57.8591 38.76C58.544 38.76 59.0991 38.2049 59.0991 37.52C59.0991 36.8352 58.544 36.28 57.8591 36.28C57.1743 36.28 56.6191 36.8352 56.6191 37.52C56.6191 38.2049 57.1743 38.76 57.8591 38.76Z" fill="white"/>
<path d="M57.8591 43.72C58.544 43.72 59.0991 43.1648 59.0991 42.48C59.0991 41.7952 58.544 41.24 57.8591 41.24C57.1743 41.24 56.6191 41.7952 56.6191 42.48C56.6191 43.1648 57.1743 43.72 57.8591 43.72Z" fill="white"/>
<path d="M57.8591 51.1597C58.544 51.1597 59.0991 50.6045 59.0991 49.9197C59.0991 49.2349 58.544 48.6797 57.8591 48.6797C57.1743 48.6797 56.6191 49.2349 56.6191 49.9197C56.6191 50.6045 57.1743 51.1597 57.8591 51.1597Z" fill="white"/>
<path d="M57.8591 56.1196C58.544 56.1196 59.0991 55.5645 59.0991 54.8796C59.0991 54.1948 58.544 53.6396 57.8591 53.6396C57.1743 53.6396 56.6191 54.1948 56.6191 54.8796C56.6191 55.5645 57.1743 56.1196 57.8591 56.1196Z" fill="white"/>
<path d="M57.8591 66.0396C58.544 66.0396 59.0991 65.4844 59.0991 64.7996C59.0991 64.1147 58.544 63.5596 57.8591 63.5596C57.1743 63.5596 56.6191 64.1147 56.6191 64.7996C56.6191 65.4844 57.1743 66.0396 57.8591 66.0396Z" fill="white"/>
<path d="M57.8591 71.0005C58.544 71.0005 59.0991 70.4453 59.0991 69.7605C59.0991 69.0757 58.544 68.5205 57.8591 68.5205C57.1743 68.5205 56.6191 69.0757 56.6191 69.7605C56.6191 70.4453 57.1743 71.0005 57.8591 71.0005Z" fill="white"/>
<path d="M57.8591 73.48C58.544 73.48 59.0991 72.9248 59.0991 72.24C59.0991 71.5552 58.544 71 57.8591 71C57.1743 71 56.6191 71.5552 56.6191 72.24C56.6191 72.9248 57.1743 73.48 57.8591 73.48Z" fill="white"/>
<path d="M60.3396 28.8404C61.0244 28.8404 61.5796 28.2852 61.5796 27.6004C61.5796 26.9155 61.0244 26.3604 60.3396 26.3604C59.6548 26.3604 59.0996 26.9155 59.0996 27.6004C59.0996 28.2852 59.6548 28.8404 60.3396 28.8404Z" fill="white"/>
<path d="M60.3396 33.8003C61.0244 33.8003 61.5796 33.2451 61.5796 32.5603C61.5796 31.8755 61.0244 31.3203 60.3396 31.3203C59.6548 31.3203 59.0996 31.8755 59.0996 32.5603C59.0996 33.2451 59.6548 33.8003 60.3396 33.8003Z" fill="white"/>
<path d="M60.3396 36.28C61.0244 36.28 61.5796 35.7249 61.5796 35.04C61.5796 34.3552 61.0244 33.8 60.3396 33.8C59.6548 33.8 59.0996 34.3552 59.0996 35.04C59.0996 35.7249 59.6548 36.28 60.3396 36.28Z" fill="white"/>
<path d="M60.3396 43.72C61.0244 43.72 61.5796 43.1648 61.5796 42.48C61.5796 41.7952 61.0244 41.24 60.3396 41.24C59.6548 41.24 59.0996 41.7952 59.0996 42.48C59.0996 43.1648 59.6548 43.72 60.3396 43.72Z" fill="white"/>
<path d="M60.3396 48.68C61.0244 48.68 61.5796 48.1248 61.5796 47.44C61.5796 46.7551 61.0244 46.2 60.3396 46.2C59.6548 46.2 59.0996 46.7551 59.0996 47.44C59.0996 48.1248 59.6548 48.68 60.3396 48.68Z" fill="white"/>
<path d="M60.3396 53.6402C61.0244 53.6402 61.5796 53.085 61.5796 52.4002C61.5796 51.7153 61.0244 51.1602 60.3396 51.1602C59.6548 51.1602 59.0996 51.7153 59.0996 52.4002C59.0996 53.085 59.6548 53.6402 60.3396 53.6402Z" fill="white"/>
<path d="M60.3396 56.1196C61.0244 56.1196 61.5796 55.5645 61.5796 54.8796C61.5796 54.1948 61.0244 53.6396 60.3396 53.6396C59.6548 53.6396 59.0996 54.1948 59.0996 54.8796C59.0996 55.5645 59.6548 56.1196 60.3396 56.1196Z" fill="white"/>
<path d="M60.3396 61.0796C61.0244 61.0796 61.5796 60.5244 61.5796 59.8396C61.5796 59.1548 61.0244 58.5996 60.3396 58.5996C59.6548 58.5996 59.0996 59.1548 59.0996 59.8396C59.0996 60.5244 59.6548 61.0796 60.3396 61.0796Z" fill="white"/>
<path d="M60.3396 66.0396C61.0244 66.0396 61.5796 65.4844 61.5796 64.7996C61.5796 64.1147 61.0244 63.5596 60.3396 63.5596C59.6548 63.5596 59.0996 64.1147 59.0996 64.7996C59.0996 65.4844 59.6548 66.0396 60.3396 66.0396Z" fill="white"/>
<path d="M60.3396 75.9605C61.0244 75.9605 61.5796 75.4053 61.5796 74.7205C61.5796 74.0356 61.0244 73.4805 60.3396 73.4805C59.6548 73.4805 59.0996 74.0356 59.0996 74.7205C59.0996 75.4053 59.6548 75.9605 60.3396 75.9605Z" fill="white"/>
<path d="M62.8181 28.8404C63.503 28.8404 64.0581 28.2852 64.0581 27.6004C64.0581 26.9155 63.503 26.3604 62.8181 26.3604C62.1333 26.3604 61.5781 26.9155 61.5781 27.6004C61.5781 28.2852 62.1333 28.8404 62.8181 28.8404Z" fill="white"/>
<path d="M62.8181 31.3201C63.503 31.3201 64.0581 30.7649 64.0581 30.0801C64.0581 29.3953 63.503 28.8401 62.8181 28.8401C62.1333 28.8401 61.5781 29.3953 61.5781 30.0801C61.5781 30.7649 62.1333 31.3201 62.8181 31.3201Z" fill="white"/>
<path d="M62.8181 38.76C63.503 38.76 64.0581 38.2049 64.0581 37.52C64.0581 36.8352 63.503 36.28 62.8181 36.28C62.1333 36.28 61.5781 36.8352 61.5781 37.52C61.5781 38.2049 62.1333 38.76 62.8181 38.76Z" fill="white"/>
<path d="M62.8181 48.68C63.503 48.68 64.0581 48.1248 64.0581 47.44C64.0581 46.7551 63.503 46.2 62.8181 46.2C62.1333 46.2 61.5781 46.7551 61.5781 47.44C61.5781 48.1248 62.1333 48.68 62.8181 48.68Z" fill="white"/>
<path d="M62.8181 51.1597C63.503 51.1597 64.0581 50.6045 64.0581 49.9197C64.0581 49.2349 63.503 48.6797 62.8181 48.6797C62.1333 48.6797 61.5781 49.2349 61.5781 49.9197C61.5781 50.6045 62.1333 51.1597 62.8181 51.1597Z" fill="white"/>
<path d="M62.8181 53.6402C63.503 53.6402 64.0581 53.085 64.0581 52.4002C64.0581 51.7153 63.503 51.1602 62.8181 51.1602C62.1333 51.1602 61.5781 51.7153 61.5781 52.4002C61.5781 53.085 62.1333 53.6402 62.8181 53.6402Z" fill="white"/>
<path d="M62.8181 56.1196C63.503 56.1196 64.0581 55.5645 64.0581 54.8796C64.0581 54.1948 63.503 53.6396 62.8181 53.6396C62.1333 53.6396 61.5781 54.1948 61.5781 54.8796C61.5781 55.5645 62.1333 56.1196 62.8181 56.1196Z" fill="white"/>
<path d="M62.8181 66.0396C63.503 66.0396 64.0581 65.4844 64.0581 64.7996C64.0581 64.1147 63.503 63.5596 62.8181 63.5596C62.1333 63.5596 61.5781 64.1147 61.5781 64.7996C61.5781 65.4844 62.1333 66.0396 62.8181 66.0396Z" fill="white"/>
<path d="M62.8181 68.52C63.503 68.52 64.0581 67.9649 64.0581 67.28C64.0581 66.5952 63.503 66.04 62.8181 66.04C62.1333 66.04 61.5781 66.5952 61.5781 67.28C61.5781 67.9649 62.1333 68.52 62.8181 68.52Z" fill="white"/>
<path d="M65.2986 26.3601C65.9834 26.3601 66.5386 25.805 66.5386 25.1201C66.5386 24.4353 65.9834 23.8801 65.2986 23.8801C64.6138 23.8801 64.0586 24.4353 64.0586 25.1201C64.0586 25.805 64.6138 26.3601 65.2986 26.3601Z" fill="white"/>
<path d="M65.2986 28.8404C65.9834 28.8404 66.5386 28.2852 66.5386 27.6004C66.5386 26.9155 65.9834 26.3604 65.2986 26.3604C64.6138 26.3604 64.0586 26.9155 64.0586 27.6004C64.0586 28.2852 64.6138 28.8404 65.2986 28.8404Z" fill="white"/>
<path d="M65.2986 33.8003C65.9834 33.8003 66.5386 33.2451 66.5386 32.5603C66.5386 31.8755 65.9834 31.3203 65.2986 31.3203C64.6138 31.3203 64.0586 31.8755 64.0586 32.5603C64.0586 33.2451 64.6138 33.8003 65.2986 33.8003Z" fill="white"/>
<path d="M65.2986 43.72C65.9834 43.72 66.5386 43.1648 66.5386 42.48C66.5386 41.7952 65.9834 41.24 65.2986 41.24C64.6138 41.24 64.0586 41.7952 64.0586 42.48C64.0586 43.1648 64.6138 43.72 65.2986 43.72Z" fill="white"/>
<path d="M65.2986 51.1597C65.9834 51.1597 66.5386 50.6045 66.5386 49.9197C66.5386 49.2349 65.9834 48.6797 65.2986 48.6797C64.6138 48.6797 64.0586 49.2349 64.0586 49.9197C64.0586 50.6045 64.6138 51.1597 65.2986 51.1597Z" fill="white"/>
<path d="M65.2986 53.6402C65.9834 53.6402 66.5386 53.085 66.5386 52.4002C66.5386 51.7153 65.9834 51.1602 65.2986 51.1602C64.6138 51.1602 64.0586 51.7153 64.0586 52.4002C64.0586 53.085 64.6138 53.6402 65.2986 53.6402Z" fill="white"/>
<path d="M65.2986 56.1196C65.9834 56.1196 66.5386 55.5645 66.5386 54.8796C66.5386 54.1948 65.9834 53.6396 65.2986 53.6396C64.6138 53.6396 64.0586 54.1948 64.0586 54.8796C64.0586 55.5645 64.6138 56.1196 65.2986 56.1196Z" fill="white"/>
<path d="M65.2986 58.6001C65.9834 58.6001 66.5386 58.045 66.5386 57.3601C66.5386 56.6753 65.9834 56.1201 65.2986 56.1201C64.6138 56.1201 64.0586 56.6753 64.0586 57.3601C64.0586 58.045 64.6138 58.6001 65.2986 58.6001Z" fill="white"/>
<path d="M65.2986 61.0796C65.9834 61.0796 66.5386 60.5244 66.5386 59.8396C66.5386 59.1548 65.9834 58.5996 65.2986 58.5996C64.6138 58.5996 64.0586 59.1548 64.0586 59.8396C64.0586 60.5244 64.6138 61.0796 65.2986 61.0796Z" fill="white"/>
<path d="M65.2986 63.5601C65.9834 63.5601 66.5386 63.0049 66.5386 62.3201C66.5386 61.6352 65.9834 61.0801 65.2986 61.0801C64.6138 61.0801 64.0586 61.6352 64.0586 62.3201C64.0586 63.0049 64.6138 63.5601 65.2986 63.5601Z" fill="white"/>
<path d="M65.2986 66.0396C65.9834 66.0396 66.5386 65.4844 66.5386 64.7996C66.5386 64.1147 65.9834 63.5596 65.2986 63.5596C64.6138 63.5596 64.0586 64.1147 64.0586 64.7996C64.0586 65.4844 64.6138 66.0396 65.2986 66.0396Z" fill="white"/>
<path d="M65.2986 73.48C65.9834 73.48 66.5386 72.9248 66.5386 72.24C66.5386 71.5552 65.9834 71 65.2986 71C64.6138 71 64.0586 71.5552 64.0586 72.24C64.0586 72.9248 64.6138 73.48 65.2986 73.48Z" fill="white"/>
<path d="M65.2986 75.9605C65.9834 75.9605 66.5386 75.4053 66.5386 74.7205C66.5386 74.0356 65.9834 73.4805 65.2986 73.4805C64.6138 73.4805 64.0586 74.0356 64.0586 74.7205C64.0586 75.4053 64.6138 75.9605 65.2986 75.9605Z" fill="white"/>
<path d="M67.7791 31.3201C68.4639 31.3201 69.0191 30.7649 69.0191 30.0801C69.0191 29.3953 68.4639 28.8401 67.7791 28.8401C67.0942 28.8401 66.5391 29.3953 66.5391 30.0801C66.5391 30.7649 67.0942 31.3201 67.7791 31.3201Z" fill="white"/>
<path d="M67.7791 36.28C68.4639 36.28 69.0191 35.7249 69.0191 35.04C69.0191 34.3552 68.4639 33.8 67.7791 33.8C67.0942 33.8 66.5391 34.3552 66.5391 35.04C66.5391 35.7249 67.0942 36.28 67.7791 36.28Z" fill="white"/>
<path d="M67.7791 41.2398C68.4639 41.2398 69.0191 40.6846 69.0191 39.9998C69.0191 39.3149 68.4639 38.7598 67.7791 38.7598C67.0942 38.7598 66.5391 39.3149 66.5391 39.9998C66.5391 40.6846 67.0942 41.2398 67.7791 41.2398Z" fill="white"/>
<path d="M67.7791 46.1997C68.4639 46.1997 69.0191 45.6446 69.0191 44.9597C69.0191 44.2749 68.4639 43.7197 67.7791 43.7197C67.0942 43.7197 66.5391 44.2749 66.5391 44.9597C66.5391 45.6446 67.0942 46.1997 67.7791 46.1997Z" fill="white"/>
<path d="M67.7791 48.68C68.4639 48.68 69.0191 48.1248 69.0191 47.44C69.0191 46.7551 68.4639 46.2 67.7791 46.2C67.0942 46.2 66.5391 46.7551 66.5391 47.44C66.5391 48.1248 67.0942 48.68 67.7791 48.68Z" fill="white"/>
<path d="M67.7791 63.5601C68.4639 63.5601 69.0191 63.0049 69.0191 62.3201C69.0191 61.6352 68.4639 61.0801 67.7791 61.0801C67.0942 61.0801 66.5391 61.6352 66.5391 62.3201C66.5391 63.0049 67.0942 63.5601 67.7791 63.5601Z" fill="white"/>
<path d="M67.7791 73.48C68.4639 73.48 69.0191 72.9248 69.0191 72.24C69.0191 71.5552 68.4639 71 67.7791 71C67.0942 71 66.5391 71.5552 66.5391 72.24C66.5391 72.9248 67.0942 73.48 67.7791 73.48Z" fill="white"/>
<path d="M70.2595 36.28C70.9444 36.28 71.4995 35.7249 71.4995 35.04C71.4995 34.3552 70.9444 33.8 70.2595 33.8C69.5747 33.8 69.0195 34.3552 69.0195 35.04C69.0195 35.7249 69.5747 36.28 70.2595 36.28Z" fill="white"/>
<path d="M70.2595 38.76C70.9444 38.76 71.4995 38.2049 71.4995 37.52C71.4995 36.8352 70.9444 36.28 70.2595 36.28C69.5747 36.28 69.0195 36.8352 69.0195 37.52C69.0195 38.2049 69.5747 38.76 70.2595 38.76Z" fill="white"/>
<path d="M70.2595 41.2398C70.9444 41.2398 71.4995 40.6846 71.4995 39.9998C71.4995 39.3149 70.9444 38.7598 70.2595 38.7598C69.5747 38.7598 69.0195 39.3149 69.0195 39.9998C69.0195 40.6846 69.5747 41.2398 70.2595 41.2398Z" fill="white"/>
<path d="M70.2595 46.1997C70.9444 46.1997 71.4995 45.6446 71.4995 44.9597C71.4995 44.2749 70.9444 43.7197 70.2595 43.7197C69.5747 43.7197 69.0195 44.2749 69.0195 44.9597C69.0195 45.6446 69.5747 46.1997 70.2595 46.1997Z" fill="white"/>
<path d="M70.2595 48.68C70.9444 48.68 71.4995 48.1248 71.4995 47.44C71.4995 46.7551 70.9444 46.2 70.2595 46.2C69.5747 46.2 69.0195 46.7551 69.0195 47.44C69.0195 48.1248 69.5747 48.68 70.2595 48.68Z" fill="white"/>
<path d="M70.2595 53.6402C70.9444 53.6402 71.4995 53.085 71.4995 52.4002C71.4995 51.7153 70.9444 51.1602 70.2595 51.1602C69.5747 51.1602 69.0195 51.7153 69.0195 52.4002C69.0195 53.085 69.5747 53.6402 70.2595 53.6402Z" fill="white"/>
<path d="M70.2595 56.1196C70.9444 56.1196 71.4995 55.5645 71.4995 54.8796C71.4995 54.1948 70.9444 53.6396 70.2595 53.6396C69.5747 53.6396 69.0195 54.1948 69.0195 54.8796C69.0195 55.5645 69.5747 56.1196 70.2595 56.1196Z" fill="white"/>
<path d="M70.2595 58.6001C70.9444 58.6001 71.4995 58.045 71.4995 57.3601C71.4995 56.6753 70.9444 56.1201 70.2595 56.1201C69.5747 56.1201 69.0195 56.6753 69.0195 57.3601C69.0195 58.045 69.5747 58.6001 70.2595 58.6001Z" fill="white"/>
<path d="M70.2595 68.52C70.9444 68.52 71.4995 67.9649 71.4995 67.28C71.4995 66.5952 70.9444 66.04 70.2595 66.04C69.5747 66.04 69.0195 66.5952 69.0195 67.28C69.0195 67.9649 69.5747 68.52 70.2595 68.52Z" fill="white"/>
<path d="M70.2595 71.0005C70.9444 71.0005 71.4995 70.4453 71.4995 69.7605C71.4995 69.0757 70.9444 68.5205 70.2595 68.5205C69.5747 68.5205 69.0195 69.0757 69.0195 69.7605C69.0195 70.4453 69.5747 71.0005 70.2595 71.0005Z" fill="white"/>
<path d="M70.2595 73.48C70.9444 73.48 71.4995 72.9248 71.4995 72.24C71.4995 71.5552 70.9444 71 70.2595 71C69.5747 71 69.0195 71.5552 69.0195 72.24C69.0195 72.9248 69.5747 73.48 70.2595 73.48Z" fill="white"/>
<path d="M70.2595 75.9605C70.9444 75.9605 71.4995 75.4053 71.4995 74.7205C71.4995 74.0356 70.9444 73.4805 70.2595 73.4805C69.5747 73.4805 69.0195 74.0356 69.0195 74.7205C69.0195 75.4053 69.5747 75.9605 70.2595 75.9605Z" fill="white"/>
<path d="M72.74 26.3601C73.4248 26.3601 73.98 25.805 73.98 25.1201C73.98 24.4353 73.4248 23.8801 72.74 23.8801C72.0552 23.8801 71.5 24.4353 71.5 25.1201C71.5 25.805 72.0552 26.3601 72.74 26.3601Z" fill="white"/>
<path d="M72.74 28.8404C73.4248 28.8404 73.98 28.2852 73.98 27.6004C73.98 26.9155 73.4248 26.3604 72.74 26.3604C72.0552 26.3604 71.5 26.9155 71.5 27.6004C71.5 28.2852 72.0552 28.8404 72.74 28.8404Z" fill="white"/>
<path d="M72.74 33.8003C73.4248 33.8003 73.98 33.2451 73.98 32.5603C73.98 31.8755 73.4248 31.3203 72.74 31.3203C72.0552 31.3203 71.5 31.8755 71.5 32.5603C71.5 33.2451 72.0552 33.8003 72.74 33.8003Z" fill="white"/>
<path d="M72.74 41.2398C73.4248 41.2398 73.98 40.6846 73.98 39.9998C73.98 39.3149 73.4248 38.7598 72.74 38.7598C72.0552 38.7598 71.5 39.3149 71.5 39.9998C71.5 40.6846 72.0552 41.2398 72.74 41.2398Z" fill="white"/>
<path d="M72.74 48.68C73.4248 48.68 73.98 48.1248 73.98 47.44C73.98 46.7551 73.4248 46.2 72.74 46.2C72.0552 46.2 71.5 46.7551 71.5 47.44C71.5 48.1248 72.0552 48.68 72.74 48.68Z" fill="white"/>
<path d="M72.74 51.1597C73.4248 51.1597 73.98 50.6045 73.98 49.9197C73.98 49.2349 73.4248 48.6797 72.74 48.6797C72.0552 48.6797 71.5 49.2349 71.5 49.9197C71.5 50.6045 72.0552 51.1597 72.74 51.1597Z" fill="white"/>
<path d="M72.74 56.1196C73.4248 56.1196 73.98 55.5645 73.98 54.8796C73.98 54.1948 73.4248 53.6396 72.74 53.6396C72.0552 53.6396 71.5 54.1948 71.5 54.8796C71.5 55.5645 72.0552 56.1196 72.74 56.1196Z" fill="white"/>
<path d="M72.74 58.6001C73.4248 58.6001 73.98 58.045 73.98 57.3601C73.98 56.6753 73.4248 56.1201 72.74 56.1201C72.0552 56.1201 71.5 56.6753 71.5 57.3601C71.5 58.045 72.0552 58.6001 72.74 58.6001Z" fill="white"/>
<path d="M72.74 61.0796C73.4248 61.0796 73.98 60.5244 73.98 59.8396C73.98 59.1548 73.4248 58.5996 72.74 58.5996C72.0552 58.5996 71.5 59.1548 71.5 59.8396C71.5 60.5244 72.0552 61.0796 72.74 61.0796Z" fill="white"/>
<path d="M72.74 63.5601C73.4248 63.5601 73.98 63.0049 73.98 62.3201C73.98 61.6352 73.4248 61.0801 72.74 61.0801C72.0552 61.0801 71.5 61.6352 71.5 62.3201C71.5 63.0049 72.0552 63.5601 72.74 63.5601Z" fill="white"/>
<path d="M72.74 68.52C73.4248 68.52 73.98 67.9649 73.98 67.28C73.98 66.5952 73.4248 66.04 72.74 66.04C72.0552 66.04 71.5 66.5952 71.5 67.28C71.5 67.9649 72.0552 68.52 72.74 68.52Z" fill="white"/>
<path d="M72.74 73.48C73.4248 73.48 73.98 72.9248 73.98 72.24C73.98 71.5552 73.4248 71 72.74 71C72.0552 71 71.5 71.5552 71.5 72.24C71.5 72.9248 72.0552 73.48 72.74 73.48Z" fill="white"/>
<path d="M72.74 75.9605C73.4248 75.9605 73.98 75.4053 73.98 74.7205C73.98 74.0356 73.4248 73.4805 72.74 73.4805C72.0552 73.4805 71.5 74.0356 71.5 74.7205C71.5 75.4053 72.0552 75.9605 72.74 75.9605Z" fill="white"/>
<path d="M75.2185 28.8404C75.9033 28.8404 76.4585 28.2852 76.4585 27.6004C76.4585 26.9155 75.9033 26.3604 75.2185 26.3604C74.5337 26.3604 73.9785 26.9155 73.9785 27.6004C73.9785 28.2852 74.5337 28.8404 75.2185 28.8404Z" fill="white"/>
<path d="M75.2185 41.2398C75.9033 41.2398 76.4585 40.6846 76.4585 39.9998C76.4585 39.3149 75.9033 38.7598 75.2185 38.7598C74.5337 38.7598 73.9785 39.3149 73.9785 39.9998C73.9785 40.6846 74.5337 41.2398 75.2185 41.2398Z" fill="white"/>
<path d="M75.2185 43.72C75.9033 43.72 76.4585 43.1648 76.4585 42.48C76.4585 41.7952 75.9033 41.24 75.2185 41.24C74.5337 41.24 73.9785 41.7952 73.9785 42.48C73.9785 43.1648 74.5337 43.72 75.2185 43.72Z" fill="white"/>
<path d="M75.2185 48.68C75.9033 48.68 76.4585 48.1248 76.4585 47.44C76.4585 46.7551 75.9033 46.2 75.2185 46.2C74.5337 46.2 73.9785 46.7551 73.9785 47.44C73.9785 48.1248 74.5337 48.68 75.2185 48.68Z" fill="white"/>
<path d="M75.2185 56.1196C75.9033 56.1196 76.4585 55.5645 76.4585 54.8796C76.4585 54.1948 75.9033 53.6396 75.2185 53.6396C74.5337 53.6396 73.9785 54.1948 73.9785 54.8796C73.9785 55.5645 74.5337 56.1196 75.2185 56.1196Z" fill="white"/>
<path d="M75.2185 58.6001C75.9033 58.6001 76.4585 58.045 76.4585 57.3601C76.4585 56.6753 75.9033 56.1201 75.2185 56.1201C74.5337 56.1201 73.9785 56.6753 73.9785 57.3601C73.9785 58.045 74.5337 58.6001 75.2185 58.6001Z" fill="white"/>
<path d="M75.2185 61.0796C75.9033 61.0796 76.4585 60.5244 76.4585 59.8396C76.4585 59.1548 75.9033 58.5996 75.2185 58.5996C74.5337 58.5996 73.9785 59.1548 73.9785 59.8396C73.9785 60.5244 74.5337 61.0796 75.2185 61.0796Z" fill="white"/>
<path d="M75.2185 66.0396C75.9033 66.0396 76.4585 65.4844 76.4585 64.7996C76.4585 64.1147 75.9033 63.5596 75.2185 63.5596C74.5337 63.5596 73.9785 64.1147 73.9785 64.7996C73.9785 65.4844 74.5337 66.0396 75.2185 66.0396Z" fill="white"/>
<path d="M75.2185 71.0005C75.9033 71.0005 76.4585 70.4453 76.4585 69.7605C76.4585 69.0757 75.9033 68.5205 75.2185 68.5205C74.5337 68.5205 73.9785 69.0757 73.9785 69.7605C73.9785 70.4453 74.5337 71.0005 75.2185 71.0005Z" fill="white"/>
<path d="M75.2185 73.48C75.9033 73.48 76.4585 72.9248 76.4585 72.24C76.4585 71.5552 75.9033 71 75.2185 71C74.5337 71 73.9785 71.5552 73.9785 72.24C73.9785 72.9248 74.5337 73.48 75.2185 73.48Z" fill="white"/>
</mask>
<g mask="url(#mask0_787_32631)">
<path d="M76.4591 4.04004H4.53906V75.96H76.4591V4.04004Z" fill="#7F775B"/>
</g>
<mask id="mask1_787_32631" style="mask-type:luminance" maskUnits="userSpaceOnUse" x="4" y="4" width="18" height="18">
<path d="M5.77906 6.52004C6.4639 6.52004 7.01906 5.96487 7.01906 5.28004C7.01906 4.59521 6.4639 4.04004 5.77906 4.04004C5.09423 4.04004 4.53906 4.59521 4.53906 5.28004C4.53906 5.96487 5.09423 6.52004 5.77906 6.52004Z" fill="white"/>
<path d="M5.77906 9.00051C6.4639 9.00051 7.01906 8.44534 7.01906 7.76051C7.01906 7.07567 6.4639 6.52051 5.77906 6.52051C5.09423 6.52051 4.53906 7.07567 4.53906 7.76051C4.53906 8.44534 5.09423 9.00051 5.77906 9.00051Z" fill="white"/>
<path d="M5.77906 11.48C6.4639 11.48 7.01906 10.9248 7.01906 10.24C7.01906 9.55517 6.4639 9 5.77906 9C5.09423 9 4.53906 9.55517 4.53906 10.24C4.53906 10.9248 5.09423 11.48 5.77906 11.48Z" fill="white"/>
<path d="M5.77906 13.9605C6.4639 13.9605 7.01906 13.4053 7.01906 12.7205C7.01906 12.0356 6.4639 11.4805 5.77906 11.4805C5.09423 11.4805 4.53906 12.0356 4.53906 12.7205C4.53906 13.4053 5.09423 13.9605 5.77906 13.9605Z" fill="white"/>
<path d="M5.77906 16.44C6.4639 16.44 7.01906 15.8848 7.01906 15.2C7.01906 14.5151 6.4639 13.96 5.77906 13.96C5.09423 13.96 4.53906 14.5151 4.53906 15.2C4.53906 15.8848 5.09423 16.44 5.77906 16.44Z" fill="white"/>
<path d="M5.77906 18.9204C6.4639 18.9204 7.01906 18.3653 7.01906 17.6804C7.01906 16.9956 6.4639 16.4404 5.77906 16.4404C5.09423 16.4404 4.53906 16.9956 4.53906 17.6804C4.53906 18.3653 5.09423 18.9204 5.77906 18.9204Z" fill="white"/>
<path d="M5.77906 21.3999C6.4639 21.3999 7.01906 20.8448 7.01906 20.1599C7.01906 19.4751 6.4639 18.9199 5.77906 18.9199C5.09423 18.9199 4.53906 19.4751 4.53906 20.1599C4.53906 20.8448 5.09423 21.3999 5.77906 21.3999Z" fill="white"/>
<path d="M8.25953 6.52004C8.94436 6.52004 9.49953 5.96487 9.49953 5.28004C9.49953 4.59521 8.94436 4.04004 8.25953 4.04004C7.5747 4.04004 7.01953 4.59521 7.01953 5.28004C7.01953 5.96487 7.5747 6.52004 8.25953 6.52004Z" fill="white"/>
<path d="M8.25953 21.3999C8.94436 21.3999 9.49953 20.8448 9.49953 20.1599C9.49953 19.4751 8.94436 18.9199 8.25953 18.9199C7.5747 18.9199 7.01953 19.4751 7.01953 20.1599C7.01953 20.8448 7.5747 21.3999 8.25953 21.3999Z" fill="white"/>
<path d="M10.74 6.52004C11.4248 6.52004 11.98 5.96487 11.98 5.28004C11.98 4.59521 11.4248 4.04004 10.74 4.04004C10.0552 4.04004 9.5 4.59521 9.5 5.28004C9.5 5.96487 10.0552 6.52004 10.74 6.52004Z" fill="white"/>
<path d="M10.74 21.3999C11.4248 21.3999 11.98 20.8448 11.98 20.1599C11.98 19.4751 11.4248 18.9199 10.74 18.9199C10.0552 18.9199 9.5 19.4751 9.5 20.1599C9.5 20.8448 10.0552 21.3999 10.74 21.3999Z" fill="white"/>
<path d="M13.2185 6.52004C13.9033 6.52004 14.4585 5.96487 14.4585 5.28004C14.4585 4.59521 13.9033 4.04004 13.2185 4.04004C12.5337 4.04004 11.9785 4.59521 11.9785 5.28004C11.9785 5.96487 12.5337 6.52004 13.2185 6.52004Z" fill="white"/>
<path d="M13.2185 21.3999C13.9033 21.3999 14.4585 20.8448 14.4585 20.1599C14.4585 19.4751 13.9033 18.9199 13.2185 18.9199C12.5337 18.9199 11.9785 19.4751 11.9785 20.1599C11.9785 20.8448 12.5337 21.3999 13.2185 21.3999Z" fill="white"/>
<path d="M15.699 6.52004C16.3838 6.52004 16.939 5.96487 16.939 5.28004C16.939 4.59521 16.3838 4.04004 15.699 4.04004C15.0142 4.04004 14.459 4.59521 14.459 5.28004C14.459 5.96487 15.0142 6.52004 15.699 6.52004Z" fill="white"/>
<path d="M15.699 21.3999C16.3838 21.3999 16.939 20.8448 16.939 20.1599C16.939 19.4751 16.3838 18.9199 15.699 18.9199C15.0142 18.9199 14.459 19.4751 14.459 20.1599C14.459 20.8448 15.0142 21.3999 15.699 21.3999Z" fill="white"/>
<path d="M18.1795 6.52004C18.8643 6.52004 19.4195 5.96487 19.4195 5.28004C19.4195 4.59521 18.8643 4.04004 18.1795 4.04004C17.4946 4.04004 16.9395 4.59521 16.9395 5.28004C16.9395 5.96487 17.4946 6.52004 18.1795 6.52004Z" fill="white"/>
<path d="M18.1795 21.3999C18.8643 21.3999 19.4195 20.8448 19.4195 20.1599C19.4195 19.4751 18.8643 18.9199 18.1795 18.9199C17.4946 18.9199 16.9395 19.4751 16.9395 20.1599C16.9395 20.8448 17.4946 21.3999 18.1795 21.3999Z" fill="white"/>
<path d="M20.6599 6.52004C21.3448 6.52004 21.8999 5.96487 21.8999 5.28004C21.8999 4.59521 21.3448 4.04004 20.6599 4.04004C19.9751 4.04004 19.4199 4.59521 19.4199 5.28004C19.4199 5.96487 19.9751 6.52004 20.6599 6.52004Z" fill="white"/>
<path d="M20.658 9.00051C21.3428 9.00051 21.898 8.44534 21.898 7.76051C21.898 7.07567 21.3428 6.52051 20.658 6.52051C19.9731 6.52051 19.418 7.07567 19.418 7.76051C19.418 8.44534 19.9731 9.00051 20.658 9.00051Z" fill="white"/>
<path d="M20.6599 11.48C21.3448 11.48 21.8999 10.9248 21.8999 10.24C21.8999 9.55517 21.3448 9 20.6599 9C19.9751 9 19.4199 9.55517 19.4199 10.24C19.4199 10.9248 19.9751 11.48 20.6599 11.48Z" fill="white"/>
<path d="M20.658 13.9605C21.3428 13.9605 21.898 13.4053 21.898 12.7205C21.898 12.0356 21.3428 11.4805 20.658 11.4805C19.9731 11.4805 19.418 12.0356 19.418 12.7205C19.418 13.4053 19.9731 13.9605 20.658 13.9605Z" fill="white"/>
<path d="M20.6599 16.44C21.3448 16.44 21.8999 15.8848 21.8999 15.2C21.8999 14.5151 21.3448 13.96 20.6599 13.96C19.9751 13.96 19.4199 14.5151 19.4199 15.2C19.4199 15.8848 19.9751 16.44 20.6599 16.44Z" fill="white"/>
<path d="M20.658 18.9204C21.3428 18.9204 21.898 18.3653 21.898 17.6804C21.898 16.9956 21.3428 16.4404 20.658 16.4404C19.9731 16.4404 19.418 16.9956 19.418 17.6804C19.418 18.3653 19.9731 18.9204 20.658 18.9204Z" fill="white"/>
<path d="M20.6599 21.3999C21.3448 21.3999 21.8999 20.8448 21.8999 20.1599C21.8999 19.4751 21.3448 18.9199 20.6599 18.9199C19.9751 18.9199 19.4199 19.4751 19.4199 20.1599C19.4199 20.8448 19.9751 21.3999 20.6599 21.3999Z" fill="white"/>
</mask>
<g mask="url(#mask1_787_32631)">
<path d="M21.8991 4.04004H4.53906V21.4H21.8991V4.04004Z" fill="black"/>
</g>
<mask id="mask2_787_32631" style="mask-type:luminance" maskUnits="userSpaceOnUse" x="9" y="9" width="8" height="8">
<path d="M10.74 11.48C11.4248 11.48 11.98 10.9248 11.98 10.24C11.98 9.55517 11.4248 9 10.74 9C10.0552 9 9.5 9.55517 9.5 10.24C9.5 10.9248 10.0552 11.48 10.74 11.48Z" fill="white"/>
<path d="M10.74 13.9605C11.4248 13.9605 11.98 13.4053 11.98 12.7205C11.98 12.0356 11.4248 11.4805 10.74 11.4805C10.0552 11.4805 9.5 12.0356 9.5 12.7205C9.5 13.4053 10.0552 13.9605 10.74 13.9605Z" fill="white"/>
<path d="M10.74 16.44C11.4248 16.44 11.98 15.8848 11.98 15.2C11.98 14.5151 11.4248 13.96 10.74 13.96C10.0552 13.96 9.5 14.5151 9.5 15.2C9.5 15.8848 10.0552 16.44 10.74 16.44Z" fill="white"/>
<path d="M13.2205 11.48C13.9053 11.48 14.4605 10.9248 14.4605 10.24C14.4605 9.55517 13.9053 9 13.2205 9C12.5356 9 11.9805 9.55517 11.9805 10.24C11.9805 10.9248 12.5356 11.48 13.2205 11.48Z" fill="white"/>
<path d="M13.2205 13.9605C13.9053 13.9605 14.4605 13.4053 14.4605 12.7205C14.4605 12.0356 13.9053 11.4805 13.2205 11.4805C12.5356 11.4805 11.9805 12.0356 11.9805 12.7205C11.9805 13.4053 12.5356 13.9605 13.2205 13.9605Z" fill="white"/>
<path d="M13.2205 16.44C13.9053 16.44 14.4605 15.8848 14.4605 15.2C14.4605 14.5151 13.9053 13.96 13.2205 13.96C12.5356 13.96 11.9805 14.5151 11.9805 15.2C11.9805 15.8848 12.5356 16.44 13.2205 16.44Z" fill="white"/>
<path d="M15.7009 11.48C16.3858 11.48 16.9409 10.9248 16.9409 10.24C16.9409 9.55517 16.3858 9 15.7009 9C15.0161 9 14.4609 9.55517 14.4609 10.24C14.4609 10.9248 15.0161 11.48 15.7009 11.48Z" fill="white"/>
<path d="M15.7009 13.9605C16.3858 13.9605 16.9409 13.4053 16.9409 12.7205C16.9409 12.0356 16.3858 11.4805 15.7009 11.4805C15.0161 11.4805 14.4609 12.0356 14.4609 12.7205C14.4609 13.4053 15.0161 13.9605 15.7009 13.9605Z" fill="white"/>
<path d="M15.7009 16.44C16.3858 16.44 16.9409 15.8848 16.9409 15.2C16.9409 14.5151 16.3858 13.96 15.7009 13.96C15.0161 13.96 14.4609 14.5151 14.4609 15.2C14.4609 15.8848 15.0161 16.44 15.7009 16.44Z" fill="white"/>
</mask>
<g mask="url(#mask2_787_32631)">
<path d="M16.94 9H9.5V16.44H16.94V9Z" fill="black"/>
</g>
<mask id="mask3_787_32631" style="mask-type:luminance" maskUnits="userSpaceOnUse" x="59" y="4" width="18" height="18">
<path d="M60.3396 6.52004C61.0244 6.52004 61.5796 5.96487 61.5796 5.28004C61.5796 4.59521 61.0244 4.04004 60.3396 4.04004C59.6548 4.04004 59.0996 4.59521 59.0996 5.28004C59.0996 5.96487 59.6548 6.52004 60.3396 6.52004Z" fill="white"/>
<path d="M60.3396 9.00051C61.0244 9.00051 61.5796 8.44534 61.5796 7.76051C61.5796 7.07567 61.0244 6.52051 60.3396 6.52051C59.6548 6.52051 59.0996 7.07567 59.0996 7.76051C59.0996 8.44534 59.6548 9.00051 60.3396 9.00051Z" fill="white"/>
<path d="M60.3396 11.48C61.0244 11.48 61.5796 10.9248 61.5796 10.24C61.5796 9.55517 61.0244 9 60.3396 9C59.6548 9 59.0996 9.55517 59.0996 10.24C59.0996 10.9248 59.6548 11.48 60.3396 11.48Z" fill="white"/>
<path d="M60.3396 13.9605C61.0244 13.9605 61.5796 13.4053 61.5796 12.7205C61.5796 12.0356 61.0244 11.4805 60.3396 11.4805C59.6548 11.4805 59.0996 12.0356 59.0996 12.7205C59.0996 13.4053 59.6548 13.9605 60.3396 13.9605Z" fill="white"/>
<path d="M60.3396 16.44C61.0244 16.44 61.5796 15.8848 61.5796 15.2C61.5796 14.5151 61.0244 13.96 60.3396 13.96C59.6548 13.96 59.0996 14.5151 59.0996 15.2C59.0996 15.8848 59.6548 16.44 60.3396 16.44Z" fill="white"/>
<path d="M60.3396 18.9204C61.0244 18.9204 61.5796 18.3653 61.5796 17.6804C61.5796 16.9956 61.0244 16.4404 60.3396 16.4404C59.6548 16.4404 59.0996 16.9956 59.0996 17.6804C59.0996 18.3653 59.6548 18.9204 60.3396 18.9204Z" fill="white"/>
<path d="M60.3396 21.3999C61.0244 21.3999 61.5796 20.8448 61.5796 20.1599C61.5796 19.4751 61.0244 18.9199 60.3396 18.9199C59.6548 18.9199 59.0996 19.4751 59.0996 20.1599C59.0996 20.8448 59.6548 21.3999 60.3396 21.3999Z" fill="white"/>
<path d="M62.8201 6.52004C63.5049 6.52004 64.0601 5.96487 64.0601 5.28004C64.0601 4.59521 63.5049 4.04004 62.8201 4.04004C62.1352 4.04004 61.5801 4.59521 61.5801 5.28004C61.5801 5.96487 62.1352 6.52004 62.8201 6.52004Z" fill="white"/>
<path d="M62.8201 21.3999C63.5049 21.3999 64.0601 20.8448 64.0601 20.1599C64.0601 19.4751 63.5049 18.9199 62.8201 18.9199C62.1352 18.9199 61.5801 19.4751 61.5801 20.1599C61.5801 20.8448 62.1352 21.3999 62.8201 21.3999Z" fill="white"/>
<path d="M65.3005 6.52004C65.9854 6.52004 66.5405 5.96487 66.5405 5.28004C66.5405 4.59521 65.9854 4.04004 65.3005 4.04004C64.6157 4.04004 64.0605 4.59521 64.0605 5.28004C64.0605 5.96487 64.6157 6.52004 65.3005 6.52004Z" fill="white"/>
<path d="M65.3005 21.3999C65.9854 21.3999 66.5405 20.8448 66.5405 20.1599C66.5405 19.4751 65.9854 18.9199 65.3005 18.9199C64.6157 18.9199 64.0605 19.4751 64.0605 20.1599C64.0605 20.8448 64.6157 21.3999 65.3005 21.3999Z" fill="white"/>
<path d="M67.7791 6.52004C68.4639 6.52004 69.0191 5.96487 69.0191 5.28004C69.0191 4.59521 68.4639 4.04004 67.7791 4.04004C67.0942 4.04004 66.5391 4.59521 66.5391 5.28004C66.5391 5.96487 67.0942 6.52004 67.7791 6.52004Z" fill="white"/>
<path d="M67.7791 21.3999C68.4639 21.3999 69.0191 20.8448 69.0191 20.1599C69.0191 19.4751 68.4639 18.9199 67.7791 18.9199C67.0942 18.9199 66.5391 19.4751 66.5391 20.1599C66.5391 20.8448 67.0942 21.3999 67.7791 21.3999Z" fill="white"/>
<path d="M70.2595 6.52004C70.9444 6.52004 71.4995 5.96487 71.4995 5.28004C71.4995 4.59521 70.9444 4.04004 70.2595 4.04004C69.5747 4.04004 69.0195 4.59521 69.0195 5.28004C69.0195 5.96487 69.5747 6.52004 70.2595 6.52004Z" fill="white"/>
<path d="M70.2595 21.3999C70.9444 21.3999 71.4995 20.8448 71.4995 20.1599C71.4995 19.4751 70.9444 18.9199 70.2595 18.9199C69.5747 18.9199 69.0195 19.4751 69.0195 20.1599C69.0195 20.8448 69.5747 21.3999 70.2595 21.3999Z" fill="white"/>
<path d="M72.74 6.52004C73.4248 6.52004 73.98 5.96487 73.98 5.28004C73.98 4.59521 73.4248 4.04004 72.74 4.04004C72.0552 4.04004 71.5 4.59521 71.5 5.28004C71.5 5.96487 72.0552 6.52004 72.74 6.52004Z" fill="white"/>
<path d="M72.74 21.3999C73.4248 21.3999 73.98 20.8448 73.98 20.1599C73.98 19.4751 73.4248 18.9199 72.74 18.9199C72.0552 18.9199 71.5 19.4751 71.5 20.1599C71.5 20.8448 72.0552 21.3999 72.74 21.3999Z" fill="white"/>
<path d="M75.2205 6.52004C75.9053 6.52004 76.4605 5.96487 76.4605 5.28004C76.4605 4.59521 75.9053 4.04004 75.2205 4.04004C74.5356 4.04004 73.9805 4.59521 73.9805 5.28004C73.9805 5.96487 74.5356 6.52004 75.2205 6.52004Z" fill="white"/>
<path d="M75.2205 9.00051C75.9053 9.00051 76.4605 8.44534 76.4605 7.76051C76.4605 7.07567 75.9053 6.52051 75.2205 6.52051C74.5356 6.52051 73.9805 7.07567 73.9805 7.76051C73.9805 8.44534 74.5356 9.00051 75.2205 9.00051Z" fill="white"/>
<path d="M75.2205 11.48C75.9053 11.48 76.4605 10.9248 76.4605 10.24C76.4605 9.55517 75.9053 9 75.2205 9C74.5356 9 73.9805 9.55517 73.9805 10.24C73.9805 10.9248 74.5356 11.48 75.2205 11.48Z" fill="white"/>
<path d="M75.2205 13.9605C75.9053 13.9605 76.4605 13.4053 76.4605 12.7205C76.4605 12.0356 75.9053 11.4805 75.2205 11.4805C74.5356 11.4805 73.9805 12.0356 73.9805 12.7205C73.9805 13.4053 74.5356 13.9605 75.2205 13.9605Z" fill="white"/>
<path d="M75.2205 16.44C75.9053 16.44 76.4605 15.8848 76.4605 15.2C76.4605 14.5151 75.9053 13.96 75.2205 13.96C74.5356 13.96 73.9805 14.5151 73.9805 15.2C73.9805 15.8848 74.5356 16.44 75.2205 16.44Z" fill="white"/>
<path d="M75.2205 18.9204C75.9053 18.9204 76.4605 18.3653 76.4605 17.6804C76.4605 16.9956 75.9053 16.4404 75.2205 16.4404C74.5356 16.4404 73.9805 16.9956 73.9805 17.6804C73.9805 18.3653 74.5356 18.9204 75.2205 18.9204Z" fill="white"/>
<path d="M75.2205 21.3999C75.9053 21.3999 76.4605 20.8448 76.4605 20.1599C76.4605 19.4751 75.9053 18.9199 75.2205 18.9199C74.5356 18.9199 73.9805 19.4751 73.9805 20.1599C73.9805 20.8448 74.5356 21.3999 75.2205 21.3999Z" fill="white"/>
</mask>
<g mask="url(#mask3_787_32631)">
<path d="M76.4596 4.04004H59.0996V21.4H76.4596V4.04004Z" fill="black"/>
</g>
<mask id="mask4_787_32631" style="mask-type:luminance" maskUnits="userSpaceOnUse" x="64" y="9" width="8" height="8">
<path d="M65.3005 11.48C65.9854 11.48 66.5405 10.9248 66.5405 10.24C66.5405 9.55517 65.9854 9 65.3005 9C64.6157 9 64.0605 9.55517 64.0605 10.24C64.0605 10.9248 64.6157 11.48 65.3005 11.48Z" fill="white"/>
<path d="M65.3005 13.9605C65.9854 13.9605 66.5405 13.4053 66.5405 12.7205C66.5405 12.0356 65.9854 11.4805 65.3005 11.4805C64.6157 11.4805 64.0605 12.0356 64.0605 12.7205C64.0605 13.4053 64.6157 13.9605 65.3005 13.9605Z" fill="white"/>
<path d="M65.3005 16.44C65.9854 16.44 66.5405 15.8848 66.5405 15.2C66.5405 14.5151 65.9854 13.96 65.3005 13.96C64.6157 13.96 64.0605 14.5151 64.0605 15.2C64.0605 15.8848 64.6157 16.44 65.3005 16.44Z" fill="white"/>
<path d="M67.781 11.48C68.4658 11.48 69.021 10.9248 69.021 10.24C69.021 9.55517 68.4658 9 67.781 9C67.0962 9 66.541 9.55517 66.541 10.24C66.541 10.9248 67.0962 11.48 67.781 11.48Z" fill="white"/>
<path d="M67.781 13.9605C68.4658 13.9605 69.021 13.4053 69.021 12.7205C69.021 12.0356 68.4658 11.4805 67.781 11.4805C67.0962 11.4805 66.541 12.0356 66.541 12.7205C66.541 13.4053 67.0962 13.9605 67.781 13.9605Z" fill="white"/>
<path d="M67.781 16.44C68.4658 16.44 69.021 15.8848 69.021 15.2C69.021 14.5151 68.4658 13.96 67.781 13.96C67.0962 13.96 66.541 14.5151 66.541 15.2C66.541 15.8848 67.0962 16.44 67.781 16.44Z" fill="white"/>
<path d="M70.2615 11.48C70.9463 11.48 71.5015 10.9248 71.5015 10.24C71.5015 9.55517 70.9463 9 70.2615 9C69.5767 9 69.0215 9.55517 69.0215 10.24C69.0215 10.9248 69.5767 11.48 70.2615 11.48Z" fill="white"/>
<path d="M70.2595 13.9605C70.9444 13.9605 71.4995 13.4053 71.4995 12.7205C71.4995 12.0356 70.9444 11.4805 70.2595 11.4805C69.5747 11.4805 69.0195 12.0356 69.0195 12.7205C69.0195 13.4053 69.5747 13.9605 70.2595 13.9605Z" fill="white"/>
<path d="M70.2615 16.44C70.9463 16.44 71.5015 15.8848 71.5015 15.2C71.5015 14.5151 70.9463 13.96 70.2615 13.96C69.5767 13.96 69.0215 14.5151 69.0215 15.2C69.0215 15.8848 69.5767 16.44 70.2615 16.44Z" fill="white"/>
</mask>
<g mask="url(#mask4_787_32631)">
<path d="M71.5005 9H64.0605V16.44H71.5005V9Z" fill="black"/>
</g>
<mask id="mask5_787_32631" style="mask-type:luminance" maskUnits="userSpaceOnUse" x="4" y="58" width="18" height="18">
<path d="M5.77906 61.0796C6.4639 61.0796 7.01906 60.5244 7.01906 59.8396C7.01906 59.1548 6.4639 58.5996 5.77906 58.5996C5.09423 58.5996 4.53906 59.1548 4.53906 59.8396C4.53906 60.5244 5.09423 61.0796 5.77906 61.0796Z" fill="white"/>
<path d="M5.77906 63.5601C6.4639 63.5601 7.01906 63.0049 7.01906 62.3201C7.01906 61.6352 6.4639 61.0801 5.77906 61.0801C5.09423 61.0801 4.53906 61.6352 4.53906 62.3201C4.53906 63.0049 5.09423 63.5601 5.77906 63.5601Z" fill="white"/>
<path d="M5.77906 66.0396C6.4639 66.0396 7.01906 65.4844 7.01906 64.7996C7.01906 64.1147 6.4639 63.5596 5.77906 63.5596C5.09423 63.5596 4.53906 64.1147 4.53906 64.7996C4.53906 65.4844 5.09423 66.0396 5.77906 66.0396Z" fill="white"/>
<path d="M5.77906 68.52C6.4639 68.52 7.01906 67.9649 7.01906 67.28C7.01906 66.5952 6.4639 66.04 5.77906 66.04C5.09423 66.04 4.53906 66.5952 4.53906 67.28C4.53906 67.9649 5.09423 68.52 5.77906 68.52Z" fill="white"/>
<path d="M5.77906 70.9995C6.4639 70.9995 7.01906 70.4444 7.01906 69.7595C7.01906 69.0747 6.4639 68.5195 5.77906 68.5195C5.09423 68.5195 4.53906 69.0747 4.53906 69.7595C4.53906 70.4444 5.09423 70.9995 5.77906 70.9995Z" fill="white"/>
<path d="M5.77906 73.48C6.4639 73.48 7.01906 72.9248 7.01906 72.24C7.01906 71.5552 6.4639 71 5.77906 71C5.09423 71 4.53906 71.5552 4.53906 72.24C4.53906 72.9248 5.09423 73.48 5.77906 73.48Z" fill="white"/>
<path d="M5.77906 75.9595C6.4639 75.9595 7.01906 75.4043 7.01906 74.7195C7.01906 74.0347 6.4639 73.4795 5.77906 73.4795C5.09423 73.4795 4.53906 74.0347 4.53906 74.7195C4.53906 75.4043 5.09423 75.9595 5.77906 75.9595Z" fill="white"/>
<path d="M8.25953 61.0796C8.94436 61.0796 9.49953 60.5244 9.49953 59.8396C9.49953 59.1548 8.94436 58.5996 8.25953 58.5996C7.5747 58.5996 7.01953 59.1548 7.01953 59.8396C7.01953 60.5244 7.5747 61.0796 8.25953 61.0796Z" fill="white"/>
<path d="M8.25953 75.9595C8.94436 75.9595 9.49953 75.4043 9.49953 74.7195C9.49953 74.0347 8.94436 73.4795 8.25953 73.4795C7.5747 73.4795 7.01953 74.0347 7.01953 74.7195C7.01953 75.4043 7.5747 75.9595 8.25953 75.9595Z" fill="white"/>
<path d="M10.74 61.0796C11.4248 61.0796 11.98 60.5244 11.98 59.8396C11.98 59.1548 11.4248 58.5996 10.74 58.5996C10.0552 58.5996 9.5 59.1548 9.5 59.8396C9.5 60.5244 10.0552 61.0796 10.74 61.0796Z" fill="white"/>
<path d="M10.74 75.9595C11.4248 75.9595 11.98 75.4043 11.98 74.7195C11.98 74.0347 11.4248 73.4795 10.74 73.4795C10.0552 73.4795 9.5 74.0347 9.5 74.7195C9.5 75.4043 10.0552 75.9595 10.74 75.9595Z" fill="white"/>
<path d="M13.2185 61.0796C13.9033 61.0796 14.4585 60.5244 14.4585 59.8396C14.4585 59.1548 13.9033 58.5996 13.2185 58.5996C12.5337 58.5996 11.9785 59.1548 11.9785 59.8396C11.9785 60.5244 12.5337 61.0796 13.2185 61.0796Z" fill="white"/>
<path d="M13.2185 75.9595C13.9033 75.9595 14.4585 75.4043 14.4585 74.7195C14.4585 74.0347 13.9033 73.4795 13.2185 73.4795C12.5337 73.4795 11.9785 74.0347 11.9785 74.7195C11.9785 75.4043 12.5337 75.9595 13.2185 75.9595Z" fill="white"/>
<path d="M15.699 61.0796C16.3838 61.0796 16.939 60.5244 16.939 59.8396C16.939 59.1548 16.3838 58.5996 15.699 58.5996C15.0142 58.5996 14.459 59.1548 14.459 59.8396C14.459 60.5244 15.0142 61.0796 15.699 61.0796Z" fill="white"/>
<path d="M15.699 75.9595C16.3838 75.9595 16.939 75.4043 16.939 74.7195C16.939 74.0347 16.3838 73.4795 15.699 73.4795C15.0142 73.4795 14.459 74.0347 14.459 74.7195C14.459 75.4043 15.0142 75.9595 15.699 75.9595Z" fill="white"/>
<path d="M18.1795 61.0796C18.8643 61.0796 19.4195 60.5244 19.4195 59.8396C19.4195 59.1548 18.8643 58.5996 18.1795 58.5996C17.4946 58.5996 16.9395 59.1548 16.9395 59.8396C16.9395 60.5244 17.4946 61.0796 18.1795 61.0796Z" fill="white"/>
<path d="M18.1795 75.9595C18.8643 75.9595 19.4195 75.4043 19.4195 74.7195C19.4195 74.0347 18.8643 73.4795 18.1795 73.4795C17.4946 73.4795 16.9395 74.0347 16.9395 74.7195C16.9395 75.4043 17.4946 75.9595 18.1795 75.9595Z" fill="white"/>
<path d="M20.6599 61.0796C21.3448 61.0796 21.8999 60.5244 21.8999 59.8396C21.8999 59.1548 21.3448 58.5996 20.6599 58.5996C19.9751 58.5996 19.4199 59.1548 19.4199 59.8396C19.4199 60.5244 19.9751 61.0796 20.6599 61.0796Z" fill="white"/>
<path d="M20.658 63.5601C21.3428 63.5601 21.898 63.0049 21.898 62.3201C21.898 61.6352 21.3428 61.0801 20.658 61.0801C19.9731 61.0801 19.418 61.6352 19.418 62.3201C19.418 63.0049 19.9731 63.5601 20.658 63.5601Z" fill="white"/>
<path d="M20.6599 66.0396C21.3448 66.0396 21.8999 65.4844 21.8999 64.7996C21.8999 64.1147 21.3448 63.5596 20.6599 63.5596C19.9751 63.5596 19.4199 64.1147 19.4199 64.7996C19.4199 65.4844 19.9751 66.0396 20.6599 66.0396Z" fill="white"/>
<path d="M20.658 68.52C21.3428 68.52 21.898 67.9649 21.898 67.28C21.898 66.5952 21.3428 66.04 20.658 66.04C19.9731 66.04 19.418 66.5952 19.418 67.28C19.418 67.9649 19.9731 68.52 20.658 68.52Z" fill="white"/>
<path d="M20.6599 70.9995C21.3448 70.9995 21.8999 70.4444 21.8999 69.7595C21.8999 69.0747 21.3448 68.5195 20.6599 68.5195C19.9751 68.5195 19.4199 69.0747 19.4199 69.7595C19.4199 70.4444 19.9751 70.9995 20.6599 70.9995Z" fill="white"/>
<path d="M20.658 73.48C21.3428 73.48 21.898 72.9248 21.898 72.24C21.898 71.5552 21.3428 71 20.658 71C19.9731 71 19.418 71.5552 19.418 72.24C19.418 72.9248 19.9731 73.48 20.658 73.48Z" fill="white"/>
<path d="M20.6599 75.9595C21.3448 75.9595 21.8999 75.4043 21.8999 74.7195C21.8999 74.0347 21.3448 73.4795 20.6599 73.4795C19.9751 73.4795 19.4199 74.0347 19.4199 74.7195C19.4199 75.4043 19.9751 75.9595 20.6599 75.9595Z" fill="white"/>
</mask>
<g mask="url(#mask5_787_32631)">
<path d="M21.8991 58.5996H4.53906V75.9596H21.8991V58.5996Z" fill="black"/>
</g>
<mask id="mask6_787_32631" style="mask-type:luminance" maskUnits="userSpaceOnUse" x="9" y="63" width="8" height="8">
<path d="M10.74 66.0396C11.4248 66.0396 11.98 65.4844 11.98 64.7996C11.98 64.1147 11.4248 63.5596 10.74 63.5596C10.0552 63.5596 9.5 64.1147 9.5 64.7996C9.5 65.4844 10.0552 66.0396 10.74 66.0396Z" fill="white"/>
<path d="M10.74 68.52C11.4248 68.52 11.98 67.9649 11.98 67.28C11.98 66.5952 11.4248 66.04 10.74 66.04C10.0552 66.04 9.5 66.5952 9.5 67.28C9.5 67.9649 10.0552 68.52 10.74 68.52Z" fill="white"/>
<path d="M10.74 70.9995C11.4248 70.9995 11.98 70.4444 11.98 69.7595C11.98 69.0747 11.4248 68.5195 10.74 68.5195C10.0552 68.5195 9.5 69.0747 9.5 69.7595C9.5 70.4444 10.0552 70.9995 10.74 70.9995Z" fill="white"/>
<path d="M13.2205 66.0396C13.9053 66.0396 14.4605 65.4844 14.4605 64.7996C14.4605 64.1147 13.9053 63.5596 13.2205 63.5596C12.5356 63.5596 11.9805 64.1147 11.9805 64.7996C11.9805 65.4844 12.5356 66.0396 13.2205 66.0396Z" fill="white"/>
<path d="M13.2205 68.52C13.9053 68.52 14.4605 67.9649 14.4605 67.28C14.4605 66.5952 13.9053 66.04 13.2205 66.04C12.5356 66.04 11.9805 66.5952 11.9805 67.28C11.9805 67.9649 12.5356 68.52 13.2205 68.52Z" fill="white"/>
<path d="M13.2205 70.9995C13.9053 70.9995 14.4605 70.4444 14.4605 69.7595C14.4605 69.0747 13.9053 68.5195 13.2205 68.5195C12.5356 68.5195 11.9805 69.0747 11.9805 69.7595C11.9805 70.4444 12.5356 70.9995 13.2205 70.9995Z" fill="white"/>
<path d="M15.7009 66.0396C16.3858 66.0396 16.9409 65.4844 16.9409 64.7996C16.9409 64.1147 16.3858 63.5596 15.7009 63.5596C15.0161 63.5596 14.4609 64.1147 14.4609 64.7996C14.4609 65.4844 15.0161 66.0396 15.7009 66.0396Z" fill="white"/>
<path d="M15.7009 68.52C16.3858 68.52 16.9409 67.9649 16.9409 67.28C16.9409 66.5952 16.3858 66.04 15.7009 66.04C15.0161 66.04 14.4609 66.5952 14.4609 67.28C14.4609 67.9649 15.0161 68.52 15.7009 68.52Z" fill="white"/>
<path d="M15.7009 70.9995C16.3858 70.9995 16.9409 70.4444 16.9409 69.7595C16.9409 69.0747 16.3858 68.5195 15.7009 68.5195C15.0161 68.5195 14.4609 69.0747 14.4609 69.7595C14.4609 70.4444 15.0161 70.9995 15.7009 70.9995Z" fill="white"/>
</mask>
<g mask="url(#mask6_787_32631)">
<path d="M16.94 63.5596H9.5V70.9996H16.94V63.5596Z" fill="black"/>
</g>
</g>
<defs>
<clipPath id="clip0_787_32631">
<rect width="80" height="80" fill="white" transform="translate(0.5)"/>
</clipPath>
</defs>
</svg>
