<svg width="205" height="24" viewBox="0 0 205 24" fill="none" xmlns="http://www.w3.org/2000/svg">
<path d="M45.3333 16.6914C40.3951 13.5309 34.7654 11.358 28.7407 10.4691V4.64197C28.7407 3.06173 28.4444 1.77778 27.7531 1.08642C27.2593 0.395062 26.2716 0 25.0864 0H21.7284V2.07407H24.4938C25.8765 2.07407 26.3704 3.06173 26.3704 4.74074V10.1728C25.1852 10.0741 23.9012 9.97531 22.7161 9.97531C21.7284 9.97531 20.8395 9.97531 19.8519 10.0741V0L17.3827 0.691358V10.2716C11.0617 11.0617 5.1358 13.3333 0 16.6914C5.33333 14.0247 11.1605 12.2469 17.3827 11.5556V19.358C17.3827 20.9383 17.679 22.2222 18.3704 22.9136C18.963 23.6049 19.8519 24 21.037 24H24.4938V21.9259H21.7284C20.3457 21.9259 19.8519 20.9383 19.8519 19.2593V11.358C20.8395 11.2593 21.7284 11.2593 22.7161 11.2593C23.3708 11.2593 23.9999 11.2849 24.6164 11.3101C25.2088 11.3343 25.7896 11.358 26.3704 11.358V24L28.8395 23.3086V11.6543C34.6667 12.3457 40.2963 14.1235 45.3333 16.6914Z" fill="black"/>
<path d="M80.7901 14.9135C80.7901 13.037 81.2839 11.9506 82.8642 11.9506L83.8518 11.8518V9.5802H82.1728C80.8889 9.5802 79.9012 10.074 79.2099 10.7654C78.4197 11.6543 78.1234 13.037 78.1234 14.8148V20.7407H80.7901V14.9135Z" fill="black"/>
<path d="M89.9753 11.9506C88.3951 11.9506 87.9012 13.037 87.9012 14.9135V20.7407H85.2346V14.8148C85.2346 13.037 85.5309 11.6543 86.321 10.7654C87.0123 10.074 88 9.5802 89.2839 9.5802H90.963V11.8518L89.9753 11.9506Z" fill="black"/>
<path d="M132.938 11.9506C131.358 11.9506 130.864 13.037 130.864 14.9135V20.7407H128.198V14.8148C128.198 13.037 128.494 11.6543 129.284 10.7654C129.975 10.074 130.963 9.5802 132.247 9.5802H133.926V11.8518L132.938 11.9506Z" fill="black"/>
<path fill-rule="evenodd" clip-rule="evenodd" d="M70.5185 21.037C72.7901 21.037 74.2716 20.3456 75.4568 18.6666L73.284 17.3827C72.5926 18.1728 71.8025 18.4691 70.6173 18.4691C69.0371 18.4691 67.8519 17.5802 67.5556 16H76.2469V15.4074C76.2469 12.0493 73.9753 9.5802 70.5185 9.5802C67.0618 9.5802 64.8889 12.3456 64.8889 15.3086C64.8889 18.4691 67.0618 21.037 70.5185 21.037ZM70.5185 11.9506C72 11.9506 73.0864 12.7407 73.4815 14.0246H67.6543C68.1482 12.6419 69.1358 11.9506 70.5185 11.9506Z" fill="black"/>
<path fill-rule="evenodd" clip-rule="evenodd" d="M100.543 19.6543C99.5556 20.5432 98.5679 21.037 97.1852 21.037C94.4198 21.037 92.0494 18.6666 92.0494 15.3086C92.0494 11.9506 94.321 9.5802 97.1852 9.5802C98.4692 9.5802 99.6543 10.074 100.543 11.0617V9.8765H103.21V20.7407H100.543V19.6543ZM94.8148 15.3086C94.8148 17.1851 96 18.5679 97.679 18.5679C99.358 18.5679 100.642 17.2839 100.642 15.3086C100.642 13.4321 99.358 12.1481 97.679 12.1481C95.9013 12.1481 94.8148 13.6296 94.8148 15.3086Z" fill="black"/>
<path fill-rule="evenodd" clip-rule="evenodd" d="M120.494 21.037C123.753 21.037 126.222 18.4691 126.222 15.3086C126.222 12.1481 123.654 9.67896 120.494 9.5802C117.531 9.5802 114.864 12.0493 114.864 15.3086C114.864 18.5679 117.333 21.037 120.494 21.037ZM120.494 18.4691C118.815 18.4691 117.63 17.1851 117.63 15.3086C117.63 13.5308 118.815 12.2469 120.494 12.1481C122.272 12.1481 123.457 13.4321 123.457 15.3086C123.457 17.2839 122.173 18.4691 120.494 18.4691Z" fill="black"/>
<path fill-rule="evenodd" clip-rule="evenodd" d="M162.469 19.6543C161.482 20.5432 160.494 21.037 159.111 21.037C156.346 21.037 153.975 18.6666 153.975 15.3086C153.975 11.9506 156.247 9.5802 159.111 9.5802C160.395 9.5802 161.58 10.074 162.469 11.0617V9.8765H165.136V20.7407H162.469V19.6543ZM156.642 15.3086C156.642 17.1851 157.827 18.5679 159.506 18.5679C161.185 18.5679 162.469 17.2839 162.469 15.3086C162.469 13.4321 161.185 12.1481 159.506 12.1481C157.827 12.1481 156.642 13.6296 156.642 15.3086Z" fill="black"/>
<path d="M178.864 8.29634C179.852 8.29634 180.642 7.50622 180.642 6.51857C180.642 5.53091 179.852 4.74079 178.864 4.74079C177.877 4.74079 177.086 5.53091 177.086 6.4198C177.086 7.40746 177.877 8.29634 178.864 8.29634Z" fill="black"/>
<path d="M180.247 9.97536H177.58V20.8396H180.247V9.97536Z" fill="black"/>
<path d="M67.6543 2.86422H52.5432V5.53089H58.6667V20.7408H61.4321V5.53089H67.6543V2.86422Z" fill="black"/>
<path fill-rule="evenodd" clip-rule="evenodd" d="M187.753 21.037C191.012 21.037 193.482 18.4691 193.482 15.3086C193.482 12.1481 190.914 9.67896 187.753 9.5802C184.79 9.5802 182.123 12.0493 182.123 15.3086C182.123 18.5679 184.593 21.037 187.753 21.037ZM187.753 18.4691C186.074 18.4691 184.889 17.1851 184.889 15.3086C184.889 13.5308 186.074 12.2469 187.753 12.1481C189.531 12.1481 190.716 13.4321 190.716 15.3086C190.716 17.2839 189.432 18.4691 187.753 18.4691Z" fill="black"/>
<path d="M175.605 12.247V9.87659H172.543V4.74079L169.877 5.53091V9.97536H167.012V12.3457H169.877V17.8766C169.877 19.6544 170.173 21.0371 170.963 21.926C171.654 22.6173 172.642 23.1112 173.926 23.1112H175.605V20.7408H174.617C173.037 20.7408 172.543 19.6544 172.543 17.7778V12.247H175.605Z" fill="black"/>
<path d="M113.778 3.25931V5.53091H112.79C111.012 5.53091 110.716 6.4198 110.716 8.49388V9.87659H113.778V12.247H110.716V22.8149L108.049 23.605V12.4445H105.185V10.0741H108.049V8.49388C108.049 6.61733 108.346 5.33338 109.136 4.44449C109.728 3.65437 110.815 3.25931 112.099 3.25931H113.778Z" fill="black"/>
<path d="M145.481 20.7408H142.815V15.5062C142.815 13.4321 142.42 12.1482 140.938 12.1482C139.556 12.1482 138.568 13.2346 138.568 15.5062V20.7408H135.901V9.67906H138.568V11.1605C139.457 10.1729 140.642 9.67906 141.926 9.67906C143.309 9.67906 144.395 10.2717 145.086 11.6544C146.074 10.3704 147.062 9.67906 148.741 9.67906C149.926 9.67906 151.012 10.1729 151.605 10.963C152.296 11.8519 152.395 13.0371 152.395 14.5186V20.7408H149.728V14.8149C149.728 13.0371 149.136 12.1482 147.852 12.1482C146.469 12.1482 145.481 13.2346 145.481 15.4075V20.7408Z" fill="black"/>
<path d="M200.889 9.67906C199.704 9.67906 198.815 10.1729 197.728 11.0618V9.87659H195.062V20.7408H197.728V16.1976C197.728 16.0602 197.727 15.9244 197.725 15.7902C197.714 14.8629 197.705 14.0111 198.222 13.2346C198.716 12.5433 199.309 12.1482 200.099 12.1482C201.778 12.1482 201.975 13.4321 201.975 15.605V20.7408H204.642V13.4321C204.642 11.0618 202.864 9.67906 200.889 9.67906Z" fill="black"/>
</svg>
