<?xml version="1.0" encoding="utf-8"?>
<!-- Generator: Adobe Illustrator 25.2.1, SVG Export Plug-In . SVG Version: 6.00 Build 0)  -->
<svg version="1.1" id="Layer_1" xmlns="http://www.w3.org/2000/svg" xmlns:xlink="http://www.w3.org/1999/xlink" x="0px" y="0px"
	 viewBox="0 0 189.4 22" style="enable-background:new 0 0 189.4 22;" xml:space="preserve">
<style type="text/css">
	.st0{fill:#fff;}
</style>
<g>
	<path class="st0" d="M121.8,11c-1.4,0-1.9,1-1.9,2.7V19h-2.5v-5.4c0-1.6,0.3-2.9,1-3.7c0.6-0.7,1.6-1.1,2.7-1.1l1.5,0V11L121.8,11
		L121.8,11z"/>
	<path class="st0" d="M82.5,11c-1.4,0-1.9,1-1.9,2.7V19h-2.5v-5.4c0-1.6,0.3-2.9,1-3.7c0.6-0.7,1.6-1.1,2.7-1.1l1.5,0V11L82.5,11
		L82.5,11z"/>
	<path class="st0" d="M75.9,11c-1.4,0-1.9,1-1.9,2.7V19h-2.5v-5.4c0-1.6,0.3-2.9,1-3.7c0.6-0.7,1.6-1.1,2.7-1.1l1.5,0V11L75.9,11
		L75.9,11z"/>
	<path class="st0" d="M41.6,15.3c-4.5-2.9-9.7-4.9-15.2-5.7V4.2c0-1.5-0.3-2.6-0.9-3.3c-0.5-0.6-1.4-1-2.5-1l-3.2,0v1.9h2.6
		c1.3,0,1.7,0.9,1.7,2.4v5c-1.1-0.1-2.2-0.2-3.4-0.2c-0.9,0-1.8,0-2.6,0.1V0l-2.2,0.7v8.8C10.1,10.2,4.7,12.2,0,15.3
		c4.9-2.5,10.2-4.1,15.9-4.7v7.2c0,1.5,0.3,2.6,0.9,3.3c0.5,0.6,1.4,1,2.5,1l3.2,0v-1.9h-2.6v0c-1.3,0-1.7-0.9-1.7-2.4v-7.3
		c0.9,0,1.7-0.1,2.6-0.1c1.1,0,2.3,0,3.4,0.1V22l2.2-0.7V10.7C31.8,11.3,36.9,12.9,41.6,15.3z"/>
	<path class="st0" d="M69.1,17.1c-1.1,1.5-2.5,2.2-4.6,2.2c-3.2,0-5.2-2.3-5.2-5.2c0-2.7,2-5.2,5.2-5.2c3.1,0,5.3,2.2,5.3,5.4
		c0,0.2,0,0.3,0,0.6h-8c0.2,1.5,1.4,2.3,2.8,2.3c1.1,0,1.8-0.3,2.5-1L69.1,17.1z M67.3,12.8c-0.3-1.2-1.4-1.9-2.7-1.9
		c-1.2,0-2.2,0.6-2.7,1.9H67.3z"/>
	<path class="st0" d="M92.1,18c-0.9,0.9-1.8,1.3-3.1,1.3c-2.5,0-4.7-2.2-4.7-5.2c0-3.1,2.1-5.2,4.7-5.2c1.2,0,2.2,0.4,3.1,1.3V9.1
		h2.5V19h-2.5V18z M86.9,14.1c0,1.7,1.1,2.9,2.7,2.9c1.5,0,2.7-1.2,2.7-3c0-1.7-1.2-2.9-2.7-2.9C87.9,11.1,86.9,12.4,86.9,14.1z"/>
	<path class="st0" d="M115.7,14.1c0,2.9-2.2,5.2-5.2,5.2c-2.9,0-5.2-2.3-5.2-5.2c0-3,2.4-5.2,5.1-5.2
		C113.3,8.9,115.7,11.1,115.7,14.1z M107.8,14.1c0,1.7,1.1,2.9,2.7,2.9c1.5,0,2.7-1.1,2.7-2.9c0-1.7-1.1-2.9-2.7-2.9
		C108.9,11.2,107.8,12.4,107.8,14.1z"/>
	<path class="st0" d="M148.8,18c-0.9,0.9-1.8,1.3-3.1,1.3c-2.5,0-4.7-2.2-4.7-5.2c0-3.1,2.1-5.2,4.7-5.2c1.2,0,2.2,0.4,3.1,1.3V9.1
		h2.5V19h-2.5V18z M143.5,14.1c0,1.7,1.1,2.9,2.7,2.9c1.5,0,2.7-1.2,2.7-3c0-1.7-1.2-2.9-2.7-2.9C144.6,11.1,143.5,12.4,143.5,14.1z
		"/>
	<path class="st0" d="M165.5,6c0,0.9-0.7,1.6-1.6,1.6c-0.9,0-1.6-0.8-1.6-1.7c0-0.9,0.7-1.5,1.6-1.5C164.8,4.4,165.5,5.1,165.5,6z
		 M162.6,9.1h2.5V19h-2.5V9.1z"/>
	<polygon class="st0" points="61.9,2.6 48.1,2.6 48.1,5.1 53.8,5.1 53.8,19 56.3,19 56.3,5.1 61.9,5.1 	"/>
	<path class="st0" d="M177.3,14.1c0,2.9-2.2,5.2-5.2,5.2c-2.9,0-5.2-2.3-5.2-5.2c0-3,2.4-5.2,5.1-5.2
		C174.9,8.9,177.3,11.1,177.3,14.1z M169.4,14.1c0,1.7,1.1,2.9,2.7,2.9c1.5,0,2.7-1.1,2.7-2.9c0-1.7-1.1-2.9-2.7-2.9
		C170.5,11.2,169.4,12.4,169.4,14.1z"/>
	<path class="st0" d="M160.9,11.3V9.1h-2.8V4.3l-2.5,0.8v4.1h-2.6v2.1h2.6v5.1v0.1c0,1.6,0.3,2.9,1,3.7c0.6,0.7,1.6,1.1,2.7,1.1h1.5
		V19H160v0c-1.4,0-1.9-1-1.9-2.7v-5.1H160.9z"/>
	<path class="st0" d="M104.2,5.1V3l-1.5,0c-1.2,0-2.1,0.4-2.7,1.1c-0.7,0.8-1,2-1,3.7v1.4h-2.6v2.1H99v10.2l2.5-0.8v-9.5h2.8V9.1
		h-2.8V7.8c0-1.9,0.3-2.7,1.9-2.7v0H104.2z"/>
	<path class="st0" d="M133.3,19h-2.5v-4.8c0-1.9-0.4-3.1-1.8-3.1c-1.2,0-2.1,1-2.1,3V19h-2.5V8.9h2.5v1.4c0.8-0.9,1.9-1.4,3.1-1.4
		c1.2,0,2.3,0.6,2.9,1.8c0.9-1.2,1.8-1.8,3.3-1.8c1.1,0,2.1,0.4,2.7,1.2c0.7,0.8,0.7,1.9,0.7,3.2V19h-2.5v-5.5
		c0-1.6-0.6-2.4-1.7-2.4c-1.3,0-2.1,1-2.1,3V19z"/>
	<path class="st0" d="M181.2,10.1c1-0.8,1.8-1.3,2.9-1.3c1.8,0,3.4,1.3,3.4,3.4V19H185v-4.7c0-2-0.2-3.2-1.7-3.2
		c-0.7,0-1.3,0.3-1.7,1c-0.5,0.8-0.5,1.7-0.5,2.7V19h-2.5V9.1h2.5V10.1z"/>
</g>
</svg>
