<svg width="70" height="37" viewBox="0 0 70 37" fill="none" xmlns="http://www.w3.org/2000/svg">
<path d="M69.38 25.3113C61.7694 20.3643 53.1773 17.125 44.195 15.8163V7.04127C44.3672 5.10485 43.8345 3.17135 42.695 1.59628C42.1648 1.0595 41.5274 0.640479 40.8244 0.366519C40.1214 0.0925591 39.3686 -0.0301896 38.615 0.006276H33.44V3.14128H37.685C39.785 3.14128 40.505 4.64127 40.505 7.17627V15.3813C38.675 15.2313 36.815 15.1413 34.94 15.1413C33.44 15.1413 32.03 15.1413 30.59 15.2913V0.006276L26.9 1.13128V15.6513C17.4834 16.8362 8.45752 20.1388 0.5 25.3113C8.75702 21.1497 17.703 18.5269 26.9 17.5713V29.4513C26.7278 31.3877 27.2605 33.3212 28.4 34.8963C28.9302 35.4331 29.5676 35.8521 30.2706 36.126C30.9736 36.4 31.7264 36.5227 32.48 36.4863H37.7V33.3513H33.41C31.31 33.3513 30.59 31.8513 30.59 29.3163V17.3163C32.09 17.2413 33.47 17.1963 34.94 17.1963C36.815 17.1963 38.675 17.1963 40.505 17.4063V36.4863L44.195 35.3613V17.7063C52.9675 18.7616 61.4895 21.335 69.38 25.3113Z" fill="#343A40"/>
</svg>
