<svg width="114" height="88" viewBox="0 0 114 88" fill="none" xmlns="http://www.w3.org/2000/svg">
<path d="M27.5799 16.0558L22.0575 19.0407C22.0575 19.0407 19.8794 20.3543 20.0957 22.5541C20.2038 23.6501 21.6791 27.4433 22.7527 28.8269C23.2624 29.4798 21.8104 31.5241 21.1925 30.8867C20.6364 30.3271 15.0831 30.0084 13.994 30.8867C12.905 31.7651 7.66834 37.4705 5.70653 40.5408C3.74472 43.6112 -0.17889 47.7853 1.34267 51.0733C2.86423 54.3613 11.6846 64.0231 14.2566 66.6582C16.8286 69.2932 16.6123 75.4339 17.4851 77.8513C18.3579 80.2687 34.7166 88.8268 38.2 86.4094C40.8183 84.5983 43.9078 83.2613 46.9818 81.5435C48.009 80.9683 46.6419 78.4032 47.8932 78.512C49.6541 78.6675 53.1916 79.2116 55.0993 80.4786C58.6291 82.8183 62.1896 86.114 65.0242 86.8369C69.3881 87.9485 78.5483 83.1214 78.3244 80.4864C78.1004 77.8513 76.8028 72.8066 78.3244 70.6069C79.8459 68.4071 84.8663 64.4584 85.2988 61.1704C85.7314 57.8824 88.1334 54.5867 85.2988 51.5163C82.4642 48.446 80.3435 43.9567 81 40.0002C81.6565 36.0438 85.1907 34.6178 86.6659 32.6357C88.1412 30.6536 91.0839 23.4169 86.6659 21.6602C82.248 19.9035 77.2353 24.2952 74.8333 24.0776C72.4312 23.8599 67.8511 22.5385 66.5458 20.5642C65.2405 18.5898 49.4911 18.2176 46 18C42.5089 17.7824 37.8292 13.7939 33.4654 14.0115C29.1015 14.2292 27.5799 16.0325 27.5799 16.0325V16.0558Z" fill="#E7F2D5"/>
<path d="M27.5799 16.0558L22.0575 19.0407C22.0575 19.0407 19.8795 20.3543 20.0957 22.5541C20.2038 23.6501 21.6791 27.4433 22.7527 28.8269C23.2624 29.4798 21.8104 31.5241 21.1925 30.8867C20.6364 30.3271 15.0831 30.0084 13.994 30.8867C12.905 31.7651 7.66834 37.4705 5.70653 40.5408C3.74472 43.6112 -0.17889 47.7853 1.34267 51.0733C2.86423 54.3613 11.6846 64.0231 14.2566 66.6582C16.8286 69.2932 16.6123 75.4339 17.4851 77.8513C18.3579 80.2687 34.7166 88.8268 38.2 86.4094C40.8183 84.5983 43.9078 83.2613 46.9818 81.5435C48.009 80.9683 46.6419 78.4032 47.8932 78.512C49.6541 78.6675 53.1916 79.2116 55.0993 80.4786C58.6291 82.8183 62.1896 86.114 65.0242 86.8369C69.3881 87.9485 78.5483 83.1214 78.3244 80.4864C78.1004 77.8513 76.8028 72.8066 78.3244 70.6069C79.8459 68.4071 84.8663 64.4584 85.2988 61.1704C85.7314 57.8824 88.1334 54.5867 85.2988 51.5163C82.4642 48.446 80.3435 44.4567 81 40.5002C81.6565 36.5438 85.1907 34.6178 86.6659 32.6357C88.1412 30.6536 91.0839 23.4169 86.6659 21.6602C82.248 19.9035 77.2353 24.2952 74.8333 24.0776C72.4312 23.8599 67.8511 22.5385 66.5458 20.5642C65.2405 18.5898 49.9911 18.2176 46.5 18C43.0089 17.7824 37.8292 13.7939 33.4654 14.0115C29.1015 14.2292 27.5799 16.0325 27.5799 16.0325V16.0558Z" stroke="#CBC6B7" stroke-width="2" stroke-miterlimit="10" stroke-linecap="round"/>
<path d="M87 17.6683C87 27.4266 70 51 70 51C70 51 53 27.4266 53 17.6683C53 7.91001 60.6108 0 70 0C79.3892 0 87 7.91001 87 17.6683Z" fill="#EF7047"/>
<path d="M70 25C73.866 25 77 21.866 77 18C77 14.134 73.866 11 70 11C66.134 11 63 14.134 63 18C63 21.866 66.134 25 70 25Z" fill="white"/>
<circle cx="69" cy="57" r="3" fill="#EF7047"/>
<path d="M113 57C113 70.8033 101.766 81.9998 87.8994 82L51.1006 82C37.2342 81.9998 26 70.8033 26 57C26 43.1967 37.2342 32.0002 51.1006 32L87.8994 32C101.766 32.0002 113 43.1967 113 57Z" stroke="#EF7047" stroke-width="2"/>
</svg>
