<svg width="124" height="124" viewBox="0 0 124 124" fill="none" xmlns="http://www.w3.org/2000/svg">
<rect x="1.07171" y="1.12353" width="120.868" height="121.014" transform="rotate(-0.0245783 1.07171 1.12353)" stroke="#DC97B5" stroke-width="2.14251"/>
<path fill-rule="evenodd" clip-rule="evenodd" d="M16.2293 34.7291L18.8118 29.2948L22.5741 34.0302L25.0822 39.0908L23.686 32.3598L18.6806 24.6965L15.7109 31.553L16.2293 34.7291Z" fill="#7F775B"/>
<path d="M26.3355 38.9094L23.8273 33.057L18.811 24.6965" stroke="#7F775B" stroke-width="2.53586" stroke-miterlimit="10" stroke-linecap="round" stroke-linejoin="round"/>
<path d="M10.4507 38.9096L15.049 34.3113L17.5571 23.0247" stroke="#7F775B" stroke-width="2.53586" stroke-miterlimit="10" stroke-linecap="round" stroke-linejoin="round"/>
<path d="M12.123 25.5328L12.9591 19.2625L18.8114 15.5002" stroke="#7F775B" stroke-width="2.53586" stroke-miterlimit="10" stroke-linecap="round" stroke-linejoin="round"/>
<path d="M29.6799 25.5327L25.0816 23.4426L22.0317 16.3362" stroke="#7F775B" stroke-width="2.53586" stroke-miterlimit="10" stroke-linecap="round" stroke-linejoin="round"/>
<path d="M22.1552 13.41C23.7713 13.41 25.0814 12.0999 25.0814 10.4838C25.0814 8.86771 23.7713 7.55762 22.1552 7.55762C20.5391 7.55762 19.229 8.86771 19.229 10.4838C19.229 12.0999 20.5391 13.41 22.1552 13.41Z" fill="#7F775B"/>
<path fill-rule="evenodd" clip-rule="evenodd" d="M20.9017 25.9506C20.9017 25.9506 22.2678 21.1692 23.2535 17.7188C23.4884 16.8961 23.3237 16.0116 22.8087 15.3294C22.2945 14.6472 21.4894 14.2458 20.6341 14.2458C19.9461 14.2458 19.2873 14.2458 18.7957 14.2458C18.3041 14.2458 17.8827 14.5945 17.7891 15.0769C17.3493 17.3585 16.1562 23.5528 16.1562 23.5528L20.9017 25.9506Z" fill="#7F775B"/>
<path d="M106.063 61.9954L104.992 61.9954L106.063 61.9954ZM61.5446 105.123L61.5446 106.194L61.5446 105.123ZM22.9385 70.9224L24.0097 70.9224L22.9385 70.9224ZM50.7207 42.1108L50.7207 41.0395L50.7207 42.1108ZM73.4172 64.8073L72.346 64.8073L73.4172 64.8073ZM55.9126 82.8151C55.7281 83.3772 56.0343 83.9825 56.5964 84.167L65.7571 87.173C66.3192 87.3575 66.9245 87.0513 67.109 86.4892C67.2934 85.927 66.9872 85.3218 66.4251 85.1373L58.2823 82.4653L60.9543 74.3224C61.1388 73.7603 60.8326 73.155 60.2705 72.9706C59.7083 72.7861 59.1031 73.0923 58.9186 73.6544L55.9126 82.8151ZM56.9304 83.1491L57.414 84.105C58.0233 83.7968 58.6759 83.4629 59.3563 83.1028L58.8552 82.156L58.3541 81.2092C57.69 81.5607 57.0503 81.8879 56.4469 82.1932L56.9304 83.1491ZM62.6181 80.0063L63.1852 80.9151C64.4109 80.1504 65.6497 79.3021 66.8347 78.3629L66.1694 77.5234L65.504 76.6838C64.395 77.5627 63.2246 78.3652 62.0511 79.0974L62.6181 80.0063ZM69.3413 74.5765L70.1378 75.2928C71.1603 74.1559 72.0689 72.9108 72.7882 71.5491L71.841 71.0487L70.8938 70.5483C70.2702 71.7288 69.4704 72.831 68.5448 73.8601L69.3413 74.5765ZM73.2391 66.9668L74.2956 67.1437C74.4219 66.3892 74.4885 65.6104 74.4885 64.8073L73.4172 64.8073L72.346 64.8073C72.346 65.4914 72.2893 66.1519 72.1825 66.7899L73.2391 66.9668ZM73.4172 64.8073L74.4885 64.8073C74.4885 64.0254 74.4456 63.2492 74.3622 62.4812L73.2972 62.5968L72.2322 62.7124C72.3074 63.4048 72.346 64.1038 72.346 64.8073L73.4172 64.8073ZM72.3619 58.2752L73.3801 57.9423C72.8986 56.4698 72.2705 55.0506 71.5157 53.7034L70.5812 54.227L69.6466 54.7505C70.3356 55.9804 70.9068 57.2722 71.3437 58.6081L72.3619 58.2752ZM68.0709 50.585L68.8937 49.8989C67.9069 48.7156 66.8125 47.6211 65.6291 46.6343L64.943 47.4571L64.257 48.2798C65.3412 49.1839 66.3441 50.1868 67.2482 51.271L68.0709 50.585ZM61.301 44.9469L61.8246 44.0123C60.4774 43.2576 59.0582 42.6294 57.5857 42.148L57.2528 43.1662L56.9199 44.1844C58.2558 44.6212 59.5476 45.1925 60.7775 45.8815L61.301 44.9469ZM52.9312 42.2308L53.0468 41.1658C52.2788 41.0824 51.5026 41.0395 50.7207 41.0395L50.7207 42.1108L50.7207 43.182C51.4242 43.182 52.1232 43.2206 52.8156 43.2958L52.9312 42.2308ZM50.7207 42.1108L50.7207 41.0395C49.9462 41.0395 49.1776 41.0746 48.4161 41.1432L48.5122 42.2101L48.6083 43.2771C49.3064 43.2142 50.0109 43.182 50.7207 43.182L50.7207 42.1108ZM44.1683 42.9931L43.887 41.9594C42.4025 42.3634 40.9604 42.8935 39.5718 43.5355L40.0214 44.5079L40.471 45.4802C41.7544 44.8868 43.084 44.3984 44.4496 44.0267L44.1683 42.9931ZM36.1736 46.674L35.5769 45.7843C34.3104 46.6338 33.1076 47.581 31.9791 48.6126L32.7018 49.4033L33.4246 50.194C34.4757 49.2332 35.5945 48.3523 36.7703 47.5637L36.1736 46.674ZM29.6671 52.612L28.8377 51.934C27.8739 53.1131 26.9933 54.3632 26.2067 55.6715L27.1248 56.2235L28.0429 56.7754C28.7762 55.5557 29.5975 54.3898 30.4965 53.29L29.6671 52.612ZM25.1312 60.1642L24.1423 59.7524C23.556 61.1601 23.0737 62.6136 22.7064 64.1004L23.7463 64.3573L24.7863 64.6143C25.1269 63.2358 25.5747 61.8857 26.1202 60.5761L25.1312 60.1642ZM23.0299 68.7141L21.9623 68.6258C21.8994 69.3869 21.8672 70.1529 21.8672 70.9224L22.9385 70.9224L24.0097 70.9224C24.0097 70.2126 24.0394 69.5055 24.0975 68.8024L23.0299 68.7141ZM22.9385 70.9224L21.8672 70.9224C21.8672 71.6347 21.8884 72.3426 21.9305 73.0454L22.9998 72.9814L24.0691 72.9174C24.0297 72.2574 24.0097 71.5922 24.0097 70.9224L22.9385 70.9224ZM23.496 77.0671L22.4426 77.2616C22.7017 78.6649 23.0469 80.0406 23.4751 81.3832L24.4957 81.0576L25.5163 80.7321C25.1156 79.4758 24.7923 78.1876 24.5494 76.8725L23.496 77.0671ZM25.9941 84.8906L25.0234 85.3437C25.6233 86.6291 26.305 87.8743 27.065 89.0736L27.9699 88.5002L28.8747 87.9268C28.1636 86.8047 27.526 85.6398 26.9648 84.4375L25.9941 84.8906ZM30.3884 91.8288L29.5633 92.5119C30.4611 93.5964 31.4313 94.6306 32.4706 95.6092L33.205 94.8293L33.9394 94.0494C32.9641 93.131 32.0546 92.1614 31.2136 91.1456L30.3884 91.8288ZM36.3657 97.4647L35.7298 98.3269C36.8537 99.1558 38.0379 99.9285 39.2795 100.641L39.8125 99.7113L40.3454 98.782C39.1741 98.1103 38.0587 97.3823 37.0015 96.6026L36.3657 97.4647ZM43.4905 101.559L43.0619 102.541C44.3337 103.096 45.6537 103.594 47.0194 104.029L47.3449 103.009L47.6705 101.988C46.3737 101.575 45.1226 101.103 43.9191 100.578L43.4905 101.559ZM51.3225 104.067L51.0966 105.114C52.4443 105.405 53.8294 105.64 55.2498 105.815L55.381 104.752L55.5121 103.688C54.1542 103.521 52.8324 103.297 51.5484 103.02L51.3225 104.067ZM59.4851 105.083L59.4429 106.153C60.1363 106.18 60.8369 106.194 61.5446 106.194L61.5446 105.123L61.5446 104.052C60.8648 104.052 60.1922 104.039 59.5272 104.012L59.4851 105.083ZM61.5446 105.123L61.5446 106.194C62.287 106.194 63.0272 106.18 63.7647 106.152L63.7236 105.081L63.6824 104.011C62.9725 104.038 62.2597 104.052 61.5446 104.052L61.5446 105.123ZM68.0681 104.742L68.194 105.806C69.6754 105.631 71.1407 105.396 72.5849 105.101L72.3709 104.052L72.1568 103.002C70.7721 103.285 69.3656 103.51 67.9422 103.679L68.0681 104.742ZM76.5988 102.996L76.9043 104.023C78.3364 103.597 79.7413 103.108 81.1134 102.556L80.7136 101.562L80.3137 100.568C79.0049 101.094 77.6631 101.562 76.2933 101.969L76.5988 102.996ZM84.6712 99.739L85.1674 100.688C86.4915 99.9963 87.776 99.2387 89.0151 98.4153L88.4221 97.5231L87.8292 96.6308C86.6541 97.4118 85.4343 98.1314 84.175 98.7896L84.6712 99.739ZM91.9131 94.9174L92.6005 95.739C93.7427 94.7835 94.8333 93.7622 95.8666 92.6753L95.0901 91.9372L94.3137 91.1991C93.3375 92.2261 92.3065 93.1916 91.2257 94.0957L91.9131 94.9174ZM97.9036 88.6114L98.7603 89.2546C99.6482 88.0721 100.476 86.828 101.239 85.5226L100.314 84.9822L99.3888 84.4418C98.6679 85.6759 97.8856 86.8513 97.047 87.9681L97.9036 88.6114ZM102.296 81.1027L103.275 81.5363C103.868 80.197 104.399 78.8042 104.862 77.3581L103.842 77.031L102.822 76.7038C102.381 78.0784 101.878 79.4001 101.316 80.6691L102.296 81.1027ZM104.963 72.8231L106.01 73.0478C106.315 71.6282 106.56 70.1643 106.743 68.6563L105.679 68.5274L104.616 68.3985C104.441 69.8436 104.206 71.2435 103.915 72.5983L104.963 72.8231ZM106.022 64.1803L107.093 64.2212C107.121 63.4886 107.135 62.7466 107.135 61.9954L106.063 61.9954L104.992 61.9954C104.992 62.7197 104.979 63.4344 104.952 64.1394L106.022 64.1803ZM106.063 61.9954L107.135 61.9954C107.135 61.2424 107.115 60.491 107.074 59.7416L106.005 59.7989L104.935 59.8562C104.973 60.5675 104.992 61.2808 104.992 61.9954L106.063 61.9954ZM105.538 55.4327L106.596 55.2629C106.358 53.7799 106.042 52.3108 105.652 50.8607L104.618 51.139L103.583 51.4173C103.954 52.7967 104.254 54.1934 104.48 55.6024L105.538 55.4327ZM103.263 46.962L104.264 46.5806C103.731 45.1828 103.128 43.8086 102.456 42.4629L101.498 42.9413L100.539 43.4196C101.18 44.7026 101.755 46.0122 102.262 47.3434L103.263 46.962ZM99.3482 39.1101L100.256 38.5416C99.465 37.278 98.6105 36.0467 97.6953 34.8524L96.845 35.5039L95.9947 36.1555C96.8691 37.2966 97.6851 38.4725 98.4403 39.6786L99.3482 39.1101ZM94.0142 32.1452L94.8006 31.4178C93.7903 30.3257 92.7245 29.2734 91.6054 28.2652L90.8883 29.061L90.1713 29.8569C91.2422 30.8217 92.2618 31.8284 93.2278 32.8727L94.0142 32.1452ZM87.4972 26.271L88.1403 25.4142C86.9528 24.523 85.7174 23.6776 84.4362 22.8819L83.871 23.7919L83.3058 24.702C84.5336 25.4645 85.7171 26.2744 86.8542 27.1278L87.4972 26.271ZM80.0444 21.6396L80.5288 20.6841C79.208 20.0145 77.8467 19.3949 76.4469 18.8289L76.0453 19.822L75.6437 20.8152C76.9873 21.3585 78.2933 21.953 79.56 22.5951L80.0444 21.6396ZM71.9092 18.3469L72.227 17.3239C70.8179 16.8861 69.3755 16.5005 67.9014 16.1703L67.6672 17.2156L67.4331 18.261C68.8509 18.5786 70.2375 18.9493 71.5913 19.3699L71.9092 18.3469ZM63.3404 16.4242L63.4919 15.3637C62.0377 15.156 60.5568 15.0008 59.0507 14.9006L58.9796 15.9695L58.9086 17.0384C60.3612 17.135 61.7884 17.2847 63.1889 17.4847L63.3404 16.4242ZM54.5902 15.8384L54.5836 14.7672C53.1148 14.7762 51.6249 14.8367 50.1152 14.9509L50.196 16.0191L50.2768 17.0873C51.7376 16.9768 53.1779 16.9183 54.5967 16.9096L54.5902 15.8384ZM45.8307 16.4954L45.6798 15.4348C44.2334 15.6406 42.7707 15.8951 41.2929 16.2002L41.5095 17.2493L41.726 18.2985C43.1608 18.0023 44.5797 17.7554 45.9816 17.556L45.8307 16.4954ZM37.2387 18.264L36.9609 17.2294C36.2452 17.4216 35.5264 17.6255 34.8045 17.8415L35.1115 18.8678L35.4185 19.8941C36.1212 19.6839 36.8206 19.4855 37.5166 19.2986L37.2387 18.264Z" fill="#DC97B5"/>
</svg>
