<svg width="105" height="24" viewBox="0 0 105 24" fill="none" xmlns="http://www.w3.org/2000/svg">
<path d="M26 14.7366C23.1678 12.893 19.939 11.6255 16.4837 11.107V7.70782C16.4837 6.78601 16.3137 6.03704 15.9172 5.63374C15.634 5.23045 15.0675 5 14.3878 5H12.4619V6.20988H14.0479C14.841 6.20988 15.1242 6.78601 15.1242 7.76543V10.9342C14.4444 10.8765 13.7081 10.8189 13.0283 10.8189C12.4619 10.8189 11.9521 10.8189 11.3856 10.8765V5L9.9695 5.40329V10.9918C6.34423 11.4527 2.94553 12.7778 0 14.7366C3.05882 13.1811 6.40087 12.144 9.9695 11.7407V16.2922C9.9695 17.214 10.1394 17.963 10.5359 18.3663C10.8758 18.7695 11.3856 19 12.0654 19H14.0479V17.7901H12.4619C11.6688 17.7901 11.3856 17.214 11.3856 16.2346V11.6255C11.9521 11.5679 12.4619 11.5679 13.0283 11.5679C13.4039 11.5679 13.7647 11.5829 14.1183 11.5976C14.458 11.6117 14.7911 11.6255 15.1242 11.6255V19L16.5403 18.5967V11.7984C19.8824 12.2016 23.1111 13.2387 26 14.7366Z" fill="#2C8658"/>
<path d="M30.8629 8.13068V6.36364H40.147V8.13068H36.5504V18H34.4595V8.13068H30.8629ZM43.9439 18.1705C43.0689 18.1705 42.3132 17.9886 41.6768 17.625C41.0443 17.2576 40.5575 16.7386 40.2166 16.0682C39.8757 15.3939 39.7053 14.6004 39.7053 13.6875C39.7053 12.7898 39.8757 12.0019 40.2166 11.3239C40.5613 10.642 41.0424 10.1117 41.6598 9.73295C42.2772 9.35038 43.0026 9.15909 43.8359 9.15909C44.3738 9.15909 44.8814 9.24621 45.3587 9.42045C45.8397 9.59091 46.264 9.85606 46.6314 10.2159C47.0026 10.5758 47.2943 11.0341 47.5064 11.5909C47.7185 12.1439 47.8246 12.803 47.8246 13.5682V14.1989H40.6712V12.8125H45.853C45.8492 12.4186 45.764 12.0682 45.5973 11.7614C45.4306 11.4508 45.1977 11.2064 44.8984 11.0284C44.603 10.8504 44.2583 10.7614 43.8643 10.7614C43.4439 10.7614 43.0746 10.8636 42.7564 11.0682C42.4382 11.2689 42.1901 11.5341 42.0121 11.8636C41.8378 12.1894 41.7488 12.5473 41.745 12.9375V14.1477C41.745 14.6553 41.8378 15.0909 42.0234 15.4545C42.209 15.8144 42.4685 16.0909 42.8018 16.2841C43.1352 16.4735 43.5253 16.5682 43.9723 16.5682C44.2715 16.5682 44.5424 16.5265 44.7848 16.4432C45.0272 16.3561 45.2375 16.2292 45.4155 16.0625C45.5935 15.8958 45.728 15.6894 45.8189 15.4432L47.7393 15.6591C47.6181 16.1667 47.3871 16.6098 47.0462 16.9886C46.709 17.3636 46.2772 17.6553 45.7507 17.8636C45.2242 18.0682 44.6219 18.1705 43.9439 18.1705ZM49.0646 18V9.27273H51.0589V10.7273H51.1499C51.3089 10.2235 51.5817 9.83523 51.968 9.5625C52.3582 9.28598 52.8033 9.14773 53.3033 9.14773C53.4169 9.14773 53.5438 9.15341 53.6839 9.16477C53.8279 9.17235 53.9472 9.18561 54.0419 9.20455V11.0966C53.9548 11.0663 53.8165 11.0398 53.6271 11.017C53.4415 10.9905 53.2616 10.9773 53.0874 10.9773C52.7124 10.9773 52.3752 11.0587 52.076 11.2216C51.7805 11.3807 51.5476 11.6023 51.3771 11.8864C51.2067 12.1705 51.1214 12.4981 51.1214 12.8693V18H49.0646ZM54.9084 18V9.27273H56.9027V10.7273H56.9936C57.1527 10.2235 57.4254 9.83523 57.8118 9.5625C58.2019 9.28598 58.647 9.14773 59.147 9.14773C59.2607 9.14773 59.3875 9.15341 59.5277 9.16477C59.6716 9.17235 59.791 9.18561 59.8857 9.20455V11.0966C59.7985 11.0663 59.6603 11.0398 59.4709 11.017C59.2853 10.9905 59.1054 10.9773 58.9311 10.9773C58.5561 10.9773 58.219 11.0587 57.9197 11.2216C57.6243 11.3807 57.3913 11.6023 57.2209 11.8864C57.0504 12.1705 56.9652 12.4981 56.9652 12.8693V18H54.9084ZM63.1072 18.1761C62.5542 18.1761 62.0561 18.0777 61.6129 17.8807C61.1735 17.6799 60.825 17.3845 60.5675 16.9943C60.3137 16.6042 60.1868 16.1231 60.1868 15.5511C60.1868 15.0587 60.2777 14.6515 60.4595 14.3295C60.6413 14.0076 60.8894 13.75 61.2038 13.5568C61.5182 13.3636 61.8724 13.2178 62.2663 13.1193C62.6641 13.017 63.075 12.9432 63.4993 12.8977C64.0107 12.8447 64.4254 12.7973 64.7436 12.7557C65.0618 12.7102 65.2929 12.642 65.4368 12.5511C65.5845 12.4564 65.6584 12.3106 65.6584 12.1136V12.0795C65.6584 11.6515 65.5315 11.3201 65.2777 11.0852C65.0239 10.8504 64.6584 10.733 64.1811 10.733C63.6773 10.733 63.2777 10.8428 62.9822 11.0625C62.6906 11.2822 62.4936 11.5417 62.3913 11.8409L60.4709 11.5682C60.6224 11.0379 60.8724 10.5947 61.2209 10.2386C61.5694 9.87879 61.9955 9.60985 62.4993 9.43182C63.0031 9.25 63.5599 9.15909 64.1697 9.15909C64.5902 9.15909 65.0088 9.20833 65.4254 9.30682C65.8421 9.4053 66.2228 9.56818 66.5675 9.79545C66.9122 10.0189 67.1887 10.3239 67.397 10.7102C67.6091 11.0966 67.7152 11.5795 67.7152 12.1591V18H65.7379V16.8011H65.6697C65.5447 17.0436 65.3686 17.2708 65.1413 17.483C64.9179 17.6913 64.6357 17.8598 64.2947 17.9886C63.9576 18.1136 63.5618 18.1761 63.1072 18.1761ZM63.6413 16.6648C64.0542 16.6648 64.4122 16.5833 64.7152 16.4205C65.0182 16.2538 65.2512 16.0341 65.4141 15.7614C65.5807 15.4886 65.6641 15.1913 65.6641 14.8693V13.8409C65.5997 13.8939 65.4898 13.9432 65.3345 13.9886C65.183 14.0341 65.0125 14.0739 64.8232 14.108C64.6338 14.142 64.4463 14.1723 64.2607 14.1989C64.075 14.2254 63.9141 14.2481 63.7777 14.267C63.4709 14.3087 63.1963 14.3769 62.9538 14.4716C62.7114 14.5663 62.5201 14.6989 62.38 14.8693C62.2398 15.036 62.1697 15.2519 62.1697 15.517C62.1697 15.8958 62.308 16.1818 62.5845 16.375C62.861 16.5682 63.2133 16.6648 63.6413 16.6648ZM71.0845 18L68.6186 9.27273H70.7152L72.2493 15.4091H72.3288L73.897 9.27273H75.9709L77.5391 15.375H77.6243L79.1357 9.27273H81.2379L78.7663 18H76.6243L74.9879 12.1023H74.8686L73.2322 18H71.0845ZM84.6854 18.1761C84.1323 18.1761 83.6342 18.0777 83.1911 17.8807C82.7517 17.6799 82.4032 17.3845 82.1456 16.9943C81.8918 16.6042 81.7649 16.1231 81.7649 15.5511C81.7649 15.0587 81.8558 14.6515 82.0376 14.3295C82.2195 14.0076 82.4676 13.75 82.782 13.5568C83.0964 13.3636 83.4505 13.2178 83.8445 13.1193C84.2422 13.017 84.6532 12.9432 85.0774 12.8977C85.5888 12.8447 86.0036 12.7973 86.3217 12.7557C86.6399 12.7102 86.871 12.642 87.0149 12.5511C87.1626 12.4564 87.2365 12.3106 87.2365 12.1136V12.0795C87.2365 11.6515 87.1096 11.3201 86.8558 11.0852C86.602 10.8504 86.2365 10.733 85.7592 10.733C85.2554 10.733 84.8558 10.8428 84.5604 11.0625C84.2687 11.2822 84.0717 11.5417 83.9695 11.8409L82.049 11.5682C82.2005 11.0379 82.4505 10.5947 82.799 10.2386C83.1475 9.87879 83.5736 9.60985 84.0774 9.43182C84.5812 9.25 85.138 9.15909 85.7479 9.15909C86.1683 9.15909 86.5869 9.20833 87.0036 9.30682C87.4202 9.4053 87.8009 9.56818 88.1456 9.79545C88.4903 10.0189 88.7668 10.3239 88.9751 10.7102C89.1873 11.0966 89.2933 11.5795 89.2933 12.1591V18H87.3161V16.8011H87.2479C87.1229 17.0436 86.9467 17.2708 86.7195 17.483C86.496 17.6913 86.2138 17.8598 85.8729 17.9886C85.5357 18.1136 85.1399 18.1761 84.6854 18.1761ZM85.2195 16.6648C85.6323 16.6648 85.9903 16.5833 86.2933 16.4205C86.5964 16.2538 86.8293 16.0341 86.9922 15.7614C87.1589 15.4886 87.2422 15.1913 87.2422 14.8693V13.8409C87.1778 13.8939 87.0679 13.9432 86.9126 13.9886C86.7611 14.0341 86.5907 14.0739 86.4013 14.108C86.2119 14.142 86.0244 14.1723 85.8388 14.1989C85.6532 14.2254 85.4922 14.2481 85.3558 14.267C85.049 14.3087 84.7744 14.3769 84.532 14.4716C84.2895 14.5663 84.0982 14.6989 83.9581 14.8693C83.8179 15.036 83.7479 15.2519 83.7479 15.517C83.7479 15.8958 83.8861 16.1818 84.1626 16.375C84.4392 16.5682 84.7914 16.6648 85.2195 16.6648ZM90.8615 18V9.27273H92.8558V10.7273H92.9467C93.1058 10.2235 93.3786 9.83523 93.7649 9.5625C94.1551 9.28598 94.6001 9.14773 95.1001 9.14773C95.2138 9.14773 95.3407 9.15341 95.4808 9.16477C95.6248 9.17235 95.7441 9.18561 95.8388 9.20455V11.0966C95.7517 11.0663 95.6134 11.0398 95.424 11.017C95.2384 10.9905 95.0585 10.9773 94.8842 10.9773C94.5092 10.9773 94.1721 11.0587 93.8729 11.2216C93.5774 11.3807 93.3445 11.6023 93.174 11.8864C93.0036 12.1705 92.9183 12.4981 92.9183 12.8693V18H90.8615ZM100.21 18.1705C99.3345 18.1705 98.5788 17.9886 97.9425 17.625C97.3099 17.2576 96.8232 16.7386 96.4822 16.0682C96.1413 15.3939 95.9709 14.6004 95.9709 13.6875C95.9709 12.7898 96.1413 12.0019 96.4822 11.3239C96.8269 10.642 97.308 10.1117 97.9254 9.73295C98.5429 9.35038 99.2682 9.15909 100.102 9.15909C100.639 9.15909 101.147 9.24621 101.624 9.42045C102.105 9.59091 102.53 9.85606 102.897 10.2159C103.268 10.5758 103.56 11.0341 103.772 11.5909C103.984 12.1439 104.09 12.803 104.09 13.5682V14.1989H96.9368V12.8125H102.119C102.115 12.4186 102.03 12.0682 101.863 11.7614C101.696 11.4508 101.463 11.2064 101.164 11.0284C100.869 10.8504 100.524 10.7614 100.13 10.7614C99.7095 10.7614 99.3402 10.8636 99.022 11.0682C98.7038 11.2689 98.4557 11.5341 98.2777 11.8636C98.1035 12.1894 98.0144 12.5473 98.0107 12.9375V14.1477C98.0107 14.6553 98.1035 15.0909 98.2891 15.4545C98.4747 15.8144 98.7341 16.0909 99.0675 16.2841C99.4008 16.4735 99.791 16.5682 100.238 16.5682C100.537 16.5682 100.808 16.5265 101.05 16.4432C101.293 16.3561 101.503 16.2292 101.681 16.0625C101.859 15.8958 101.994 15.6894 102.085 15.4432L104.005 15.6591C103.884 16.1667 103.653 16.6098 103.312 16.9886C102.975 17.3636 102.543 17.6553 102.016 17.8636C101.49 18.0682 100.888 18.1705 100.21 18.1705Z" fill="#2C8658"/>
</svg>
