<svg width="106" height="24" viewBox="0 0 106 24" fill="none" xmlns="http://www.w3.org/2000/svg">
<path d="M26.0486 14.7366C23.2163 12.893 19.9876 11.6255 16.5322 11.107V7.70782C16.5322 6.78601 16.3623 6.03704 15.9658 5.63374C15.6826 5.23045 15.1161 5 14.4364 5H12.5105V6.20988H14.0965C14.8895 6.20988 15.1728 6.78601 15.1728 7.76543V10.9342C14.493 10.8765 13.7566 10.8189 13.0769 10.8189C12.5105 10.8189 12.0006 10.8189 11.4342 10.8765V5L10.0181 5.40329V10.9918C6.39281 11.4527 2.99412 12.7778 0.048584 14.7366C3.10741 13.1811 6.44946 12.144 10.0181 11.7407V16.2922C10.0181 17.214 10.188 17.963 10.5845 18.3663C10.9244 18.7695 11.4342 19 12.1139 19H14.0965V17.7901H12.5105C11.7174 17.7901 11.4342 17.214 11.4342 16.2346V11.6255C12.0007 11.5679 12.5105 11.5679 13.0769 11.5679C13.4524 11.5679 13.8132 11.5829 14.1668 11.5976C14.5066 11.6117 14.8397 11.6255 15.1728 11.6255V19L16.5889 18.5967V11.7984C19.9309 12.2016 23.1597 13.2387 26.0486 14.7366Z" fill="#1B5035"/>
<path d="M30.9115 8.13068V6.36364H40.1956V8.13068H36.599V18H34.5081V8.13068H30.9115ZM43.9925 18.1705C43.1175 18.1705 42.3618 17.9886 41.7254 17.625C41.0929 17.2576 40.6061 16.7386 40.2652 16.0682C39.9243 15.3939 39.7538 14.6004 39.7538 13.6875C39.7538 12.7898 39.9243 12.0019 40.2652 11.3239C40.6099 10.642 41.091 10.1117 41.7084 9.73295C42.3258 9.35038 43.0512 9.15909 43.8845 9.15909C44.4224 9.15909 44.93 9.24621 45.4072 9.42045C45.8883 9.59091 46.3126 9.85606 46.68 10.2159C47.0512 10.5758 47.3429 11.0341 47.555 11.5909C47.7671 12.1439 47.8732 12.803 47.8732 13.5682V14.1989H40.7197V12.8125H45.9016C45.8978 12.4186 45.8126 12.0682 45.6459 11.7614C45.4792 11.4508 45.2463 11.2064 44.947 11.0284C44.6516 10.8504 44.3069 10.7614 43.9129 10.7614C43.4925 10.7614 43.1232 10.8636 42.805 11.0682C42.4868 11.2689 42.2387 11.5341 42.0607 11.8636C41.8864 12.1894 41.7974 12.5473 41.7936 12.9375V14.1477C41.7936 14.6553 41.8864 15.0909 42.072 15.4545C42.2576 15.8144 42.5171 16.0909 42.8504 16.2841C43.1838 16.4735 43.5739 16.5682 44.0209 16.5682C44.3201 16.5682 44.591 16.5265 44.8334 16.4432C45.0758 16.3561 45.286 16.2292 45.4641 16.0625C45.6421 15.8958 45.7766 15.6894 45.8675 15.4432L47.7879 15.6591C47.6667 16.1667 47.4357 16.6098 47.0947 16.9886C46.7576 17.3636 46.3258 17.6553 45.7993 17.8636C45.2728 18.0682 44.6705 18.1705 43.9925 18.1705ZM49.1132 18V9.27273H51.1075V10.7273H51.1984C51.3575 10.2235 51.6303 9.83523 52.0166 9.5625C52.4068 9.28598 52.8519 9.14773 53.3519 9.14773C53.4655 9.14773 53.5924 9.15341 53.7325 9.16477C53.8765 9.17235 53.9958 9.18561 54.0905 9.20455V11.0966C54.0034 11.0663 53.8651 11.0398 53.6757 11.017C53.4901 10.9905 53.3102 10.9773 53.1359 10.9773C52.7609 10.9773 52.4238 11.0587 52.1246 11.2216C51.8291 11.3807 51.5962 11.6023 51.4257 11.8864C51.2553 12.1705 51.17 12.4981 51.17 12.8693V18H49.1132ZM54.957 18V9.27273H56.9513V10.7273H57.0422C57.2013 10.2235 57.474 9.83523 57.8604 9.5625C58.2505 9.28598 58.6956 9.14773 59.1956 9.14773C59.3092 9.14773 59.4361 9.15341 59.5763 9.16477C59.7202 9.17235 59.8395 9.18561 59.9342 9.20455V11.0966C59.8471 11.0663 59.7089 11.0398 59.5195 11.017C59.3339 10.9905 59.1539 10.9773 58.9797 10.9773C58.6047 10.9773 58.2676 11.0587 57.9683 11.2216C57.6729 11.3807 57.4399 11.6023 57.2695 11.8864C57.099 12.1705 57.0138 12.4981 57.0138 12.8693V18H54.957ZM63.1558 18.1761C62.6028 18.1761 62.1047 18.0777 61.6615 17.8807C61.2221 17.6799 60.8736 17.3845 60.6161 16.9943C60.3623 16.6042 60.2354 16.1231 60.2354 15.5511C60.2354 15.0587 60.3263 14.6515 60.5081 14.3295C60.6899 14.0076 60.938 13.75 61.2524 13.5568C61.5668 13.3636 61.921 13.2178 62.3149 13.1193C62.7126 13.017 63.1236 12.9432 63.5479 12.8977C64.0592 12.8447 64.474 12.7973 64.7922 12.7557C65.1104 12.7102 65.3414 12.642 65.4854 12.5511C65.6331 12.4564 65.707 12.3106 65.707 12.1136V12.0795C65.707 11.6515 65.5801 11.3201 65.3263 11.0852C65.0725 10.8504 64.707 10.733 64.2297 10.733C63.7259 10.733 63.3263 10.8428 63.0308 11.0625C62.7392 11.2822 62.5422 11.5417 62.4399 11.8409L60.5195 11.5682C60.671 11.0379 60.921 10.5947 61.2695 10.2386C61.6179 9.87879 62.0441 9.60985 62.5479 9.43182C63.0517 9.25 63.6085 9.15909 64.2183 9.15909C64.6388 9.15909 65.0573 9.20833 65.474 9.30682C65.8907 9.4053 66.2714 9.56818 66.6161 9.79545C66.9608 10.0189 67.2373 10.3239 67.4456 10.7102C67.6577 11.0966 67.7638 11.5795 67.7638 12.1591V18H65.7865V16.8011H65.7183C65.5933 17.0436 65.4172 17.2708 65.1899 17.483C64.9664 17.6913 64.6842 17.8598 64.3433 17.9886C64.0062 18.1136 63.6104 18.1761 63.1558 18.1761ZM63.6899 16.6648C64.1028 16.6648 64.4608 16.5833 64.7638 16.4205C65.0668 16.2538 65.2998 16.0341 65.4626 15.7614C65.6293 15.4886 65.7126 15.1913 65.7126 14.8693V13.8409C65.6483 13.8939 65.5384 13.9432 65.3831 13.9886C65.2316 14.0341 65.0611 14.0739 64.8717 14.108C64.6823 14.142 64.4948 14.1723 64.3092 14.1989C64.1236 14.2254 63.9626 14.2481 63.8263 14.267C63.5195 14.3087 63.2448 14.3769 63.0024 14.4716C62.76 14.5663 62.5687 14.6989 62.4286 14.8693C62.2884 15.036 62.2183 15.2519 62.2183 15.517C62.2183 15.8958 62.3566 16.1818 62.6331 16.375C62.9096 16.5682 63.2619 16.6648 63.6899 16.6648ZM71.1331 18L68.6672 9.27273H70.7638L72.2979 15.4091H72.3774L73.9456 9.27273H76.0195L77.5876 15.375H77.6729L79.1842 9.27273H81.2865L78.8149 18H76.6729L75.0365 12.1023H74.9172L73.2808 18H71.1331ZM84.734 18.1761C84.1809 18.1761 83.6828 18.0777 83.2396 17.8807C82.8002 17.6799 82.4518 17.3845 82.1942 16.9943C81.9404 16.6042 81.8135 16.1231 81.8135 15.5511C81.8135 15.0587 81.9044 14.6515 82.0862 14.3295C82.268 14.0076 82.5162 13.75 82.8305 13.5568C83.1449 13.3636 83.4991 13.2178 83.893 13.1193C84.2908 13.017 84.7018 12.9432 85.126 12.8977C85.6374 12.8447 86.0521 12.7973 86.3703 12.7557C86.6885 12.7102 86.9196 12.642 87.0635 12.5511C87.2112 12.4564 87.2851 12.3106 87.2851 12.1136V12.0795C87.2851 11.6515 87.1582 11.3201 86.9044 11.0852C86.6506 10.8504 86.2851 10.733 85.8078 10.733C85.304 10.733 84.9044 10.8428 84.609 11.0625C84.3173 11.2822 84.1203 11.5417 84.018 11.8409L82.0976 11.5682C82.2491 11.0379 82.4991 10.5947 82.8476 10.2386C83.1961 9.87879 83.6222 9.60985 84.126 9.43182C84.6298 9.25 85.1866 9.15909 85.7965 9.15909C86.2169 9.15909 86.6355 9.20833 87.0521 9.30682C87.4688 9.4053 87.8495 9.56818 88.1942 9.79545C88.5389 10.0189 88.8154 10.3239 89.0237 10.7102C89.2358 11.0966 89.3419 11.5795 89.3419 12.1591V18H87.3646V16.8011H87.2965C87.1715 17.0436 86.9953 17.2708 86.768 17.483C86.5446 17.6913 86.2624 17.8598 85.9215 17.9886C85.5843 18.1136 85.1885 18.1761 84.734 18.1761ZM85.268 16.6648C85.6809 16.6648 86.0389 16.5833 86.3419 16.4205C86.6449 16.2538 86.8779 16.0341 87.0408 15.7614C87.2074 15.4886 87.2908 15.1913 87.2908 14.8693V13.8409C87.2264 13.8939 87.1165 13.9432 86.9612 13.9886C86.8097 14.0341 86.6393 14.0739 86.4499 14.108C86.2605 14.142 86.073 14.1723 85.8874 14.1989C85.7018 14.2254 85.5408 14.2481 85.4044 14.267C85.0976 14.3087 84.823 14.3769 84.5805 14.4716C84.3381 14.5663 84.1468 14.6989 84.0067 14.8693C83.8665 15.036 83.7965 15.2519 83.7965 15.517C83.7965 15.8958 83.9347 16.1818 84.2112 16.375C84.4877 16.5682 84.84 16.6648 85.268 16.6648ZM90.9101 18V9.27273H92.9044V10.7273H92.9953C93.1544 10.2235 93.4271 9.83523 93.8135 9.5625C94.2037 9.28598 94.6487 9.14773 95.1487 9.14773C95.2624 9.14773 95.3893 9.15341 95.5294 9.16477C95.6733 9.17235 95.7927 9.18561 95.8874 9.20455V11.0966C95.8002 11.0663 95.662 11.0398 95.4726 11.017C95.287 10.9905 95.1071 10.9773 94.9328 10.9773C94.5578 10.9773 94.2207 11.0587 93.9215 11.2216C93.626 11.3807 93.393 11.6023 93.2226 11.8864C93.0521 12.1705 92.9669 12.4981 92.9669 12.8693V18H90.9101ZM100.258 18.1705C99.3831 18.1705 98.6274 17.9886 97.9911 17.625C97.3585 17.2576 96.8717 16.7386 96.5308 16.0682C96.1899 15.3939 96.0195 14.6004 96.0195 13.6875C96.0195 12.7898 96.1899 12.0019 96.5308 11.3239C96.8755 10.642 97.3566 10.1117 97.974 9.73295C98.5914 9.35038 99.3168 9.15909 100.15 9.15909C100.688 9.15909 101.196 9.24621 101.673 9.42045C102.154 9.59091 102.578 9.85606 102.946 10.2159C103.317 10.5758 103.608 11.0341 103.821 11.5909C104.033 12.1439 104.139 12.803 104.139 13.5682V14.1989H96.9854V12.8125H102.167C102.163 12.4186 102.078 12.0682 101.912 11.7614C101.745 11.4508 101.512 11.2064 101.213 11.0284C100.917 10.8504 100.572 10.7614 100.179 10.7614C99.7581 10.7614 99.3888 10.8636 99.0706 11.0682C98.7524 11.2689 98.5043 11.5341 98.3263 11.8636C98.152 12.1894 98.063 12.5473 98.0592 12.9375V14.1477C98.0592 14.6553 98.152 15.0909 98.3376 15.4545C98.5233 15.8144 98.7827 16.0909 99.1161 16.2841C99.4494 16.4735 99.8395 16.5682 100.287 16.5682C100.586 16.5682 100.857 16.5265 101.099 16.4432C101.341 16.3561 101.552 16.2292 101.73 16.0625C101.908 15.8958 102.042 15.6894 102.133 15.4432L104.054 15.6591C103.932 16.1667 103.701 16.6098 103.36 16.9886C103.023 17.3636 102.591 17.6553 102.065 17.8636C101.538 18.0682 100.936 18.1705 100.258 18.1705Z" fill="#2C8658"/>
</svg>
