<svg width="79" height="96" viewBox="0 0 79 96" fill="none" xmlns="http://www.w3.org/2000/svg">
<rect x="78.1016" width="95.9999" height="59.7551" rx="3.91837" transform="rotate(90 78.1016 0)" fill="#CBC6B7"/>
<rect x="17" y="13" width="3" height="13" rx="1" fill="#CBC6B7"/>
<rect x="75.1621" y="2.93872" width="90.1224" height="53.8775" rx="1.95918" transform="rotate(90 75.1621 2.93872)" fill="white"/>
<path d="M38.992 60V59.0483L41.5169 56.5732C41.7583 56.3293 41.9596 56.1127 42.1206 55.9233C42.2815 55.7339 42.4023 55.5504 42.4828 55.3729C42.5633 55.1953 42.6035 55.0059 42.6035 54.8047C42.6035 54.575 42.5514 54.3786 42.4473 54.2152C42.3431 54.0495 42.1999 53.9216 42.0176 53.8317C41.8353 53.7417 41.6281 53.6967 41.3961 53.6967C41.157 53.6967 40.9475 53.7464 40.7676 53.8459C40.5877 53.9429 40.448 54.0814 40.3485 54.2614C40.2515 54.4413 40.2029 54.6555 40.2029 54.9041H38.9494C38.9494 54.4425 39.0547 54.0412 39.2654 53.7003C39.4761 53.3594 39.7662 53.0954 40.1355 52.9084C40.5072 52.7214 40.9333 52.6278 41.4139 52.6278C41.9016 52.6278 42.3301 52.719 42.6994 52.9013C43.0687 53.0836 43.3552 53.3333 43.5588 53.6506C43.7647 53.9678 43.8677 54.33 43.8677 54.7372C43.8677 55.0095 43.8156 55.277 43.7115 55.5398C43.6073 55.8026 43.4238 56.0937 43.161 56.4134C42.9006 56.733 42.5349 57.12 42.0637 57.5746L40.8102 58.8494V58.8991H43.9778V60H38.992ZM44.9153 58.6506V57.603L48.0012 52.7273H48.8748V54.2188H48.3422L46.2647 57.5107V57.5675H50.5723V58.6506H44.9153ZM48.3848 60V58.331L48.399 57.8622V52.7273H49.6419V60H48.3848ZM51.9732 60L55.0662 53.8778V53.8281H51.476V52.7273H56.4299V53.853L53.3404 60H51.9732Z" fill="#CBC6B7"/>
<path d="M25.2031 75.4286C25.2031 74.8876 25.6417 74.449 26.1827 74.449H69.2847C69.8257 74.449 70.2643 74.8876 70.2643 75.4286C70.2643 75.9696 69.8257 76.4082 69.2847 76.4082H26.1827C25.6417 76.4082 25.2031 75.9696 25.2031 75.4286Z" fill="#E3E1D9"/>
<path d="M25.2031 69.5509C25.2031 69.0099 25.6417 68.5713 26.1827 68.5713H69.2847C69.8257 68.5713 70.2643 69.0099 70.2643 69.5509C70.2643 70.0919 69.8257 70.5305 69.2847 70.5305H26.1827C25.6417 70.5305 25.2031 70.0919 25.2031 69.5509Z" fill="#E3E1D9"/>
<path d="M25.2031 26.5509C25.2031 26.0099 25.6417 25.5713 26.1827 25.5713H69.2847C69.8257 25.5713 70.2643 26.0099 70.2643 26.5509C70.2643 27.0919 69.8257 27.5305 69.2847 27.5305H26.1827C25.6417 27.5305 25.2031 27.0919 25.2031 26.5509Z" fill="#E3E1D9"/>
<path d="M25.2031 81.306C25.2031 80.765 25.6417 80.3264 26.1827 80.3264H69.2847C69.8257 80.3264 70.2643 80.765 70.2643 81.306C70.2643 81.847 69.8257 82.2856 69.2847 82.2856H26.1827C25.6417 82.2856 25.2031 81.847 25.2031 81.306Z" fill="#E3E1D9"/>
<path d="M50.7325 39.4885L50.798 39.6846L50.9829 39.7771C54.9057 41.7406 54.7545 45.9256 52.9573 47.4519C52.0812 48.1959 50.7611 48.3584 49.2534 47.8942C47.7523 47.4321 46.1378 46.3637 44.7914 44.7785C43.4451 43.1933 42.6522 41.4271 42.4392 39.871C42.2253 38.3081 42.5993 37.0316 43.4753 36.2876C44.344 35.5498 45.8203 35.3938 47.3005 35.9414C48.7603 36.4814 50.1276 37.6786 50.7325 39.4885Z" fill="#E7F2D5" stroke="#A3D24F"/>
<path d="M49.8421 38.3779C49.7322 38.4285 49.6281 38.4943 49.5323 38.5756C48.905 39.1084 48.8775 40.1066 49.4708 40.8052C50.0641 41.5038 51.0537 41.6382 51.681 41.1055C51.8359 40.9739 51.8818 40.8187 51.9048 40.7412" stroke="#A3D24F"/>
<circle cx="68.0176" cy="84.8008" r="4.80083" fill="#2C8658"/>
<path d="M67.9434 82.1147V87.3425" stroke="white" stroke-width="0.965359" stroke-linecap="round"/>
<path d="M70.5566 84.7283L65.3289 84.7283" stroke="white" stroke-width="0.965359" stroke-linecap="round"/>
<path d="M21.2832 4.8979C21.2832 3.81588 22.1604 2.93872 23.2424 2.93872H73.2015C74.2836 2.93872 75.1607 3.81588 75.1607 4.8979V18.6122H21.2832V4.8979Z" fill="#EBEAE4"/>
<path d="M25.2031 10.8365C25.2031 10.5998 25.395 10.408 25.6317 10.408H31.6317C31.8684 10.408 32.0603 10.5998 32.0603 10.8365C32.0603 11.0732 31.8684 11.2651 31.6317 11.2651H25.6317C25.395 11.2651 25.2031 11.0732 25.2031 10.8365Z" fill="#CBC6B7"/>
<path d="M25.2031 8.26524C25.2031 8.02855 25.395 7.83667 25.6317 7.83667H31.6317C31.8684 7.83667 32.0603 8.02855 32.0603 8.26524C32.0603 8.50193 31.8684 8.69381 31.6317 8.69381H25.6317C25.395 8.69381 25.2031 8.50193 25.2031 8.26524Z" fill="#CBC6B7"/>
<path d="M25.2031 13.4081C25.2031 13.1714 25.395 12.9795 25.6317 12.9795H31.6317C31.8684 12.9795 32.0603 13.1714 32.0603 13.4081C32.0603 13.6448 31.8684 13.8366 31.6317 13.8366H25.6317C25.395 13.8366 25.2031 13.6448 25.2031 13.4081Z" fill="#CBC6B7"/>
<circle cx="17.6023" cy="51.6023" r="16.8459" fill="white" stroke="#B2AB93" stroke-width="1.51279"/>
<path d="M11.0024 53.2637L18.1639 60.4261L25.3262 53.2638" stroke="#B2AB93" stroke-width="1.51279" stroke-linecap="round"/>
<path d="M18.1777 59.5001V41.7012" stroke="#B2AB93" stroke-width="1.51279" stroke-linecap="round"/>
</svg>
