<svg width="256" height="56" viewBox="0 0 256 56" fill="none" xmlns="http://www.w3.org/2000/svg">
<path d="M58.374 3.02649V0.45459H71.8868V3.02649H66.6521V17.3911H63.6088V3.02649H58.374Z" fill="#2C8658"/>
<path d="M78.1408 17.6392C76.8673 17.6392 75.7674 17.3745 74.8412 16.8453C73.9205 16.3105 73.2121 15.5552 72.7159 14.5794C72.2197 13.598 71.9716 12.443 71.9716 11.1143C71.9716 9.8077 72.2197 8.66096 72.7159 7.6741C73.2176 6.68173 73.9177 5.90988 74.8164 5.35856C75.715 4.80173 76.7708 4.52332 77.9837 4.52332C78.7666 4.52332 79.5054 4.65012 80.2 4.90373C80.9002 5.15182 81.5177 5.53774 82.0524 6.06149C82.5927 6.58525 83.0172 7.25234 83.326 8.06278C83.6347 8.8677 83.7891 9.827 83.7891 10.9407V11.8586H73.3775V9.84078H80.9195C80.914 9.26741 80.7899 8.75744 80.5473 8.31087C80.3048 7.85879 79.9657 7.50319 79.5302 7.24407C79.1001 6.98495 78.5984 6.85539 78.0251 6.85539C77.4131 6.85539 76.8756 7.00425 76.4125 7.30196C75.9494 7.59416 75.5882 7.98008 75.3291 8.45973C75.0755 8.93386 74.946 9.45486 74.9404 10.0227V11.7842C74.9404 12.5229 75.0755 13.157 75.3457 13.6862C75.6158 14.21 75.9935 14.6124 76.4786 14.8936C76.9638 15.1693 77.5316 15.3071 78.1822 15.3071C78.6177 15.3071 79.0119 15.2465 79.3648 15.1252C79.7176 14.9984 80.0236 14.8137 80.2827 14.5711C80.5418 14.3285 80.7375 14.028 80.8699 13.6697L83.665 13.9839C83.4886 14.7227 83.1523 15.3677 82.6561 15.9191C82.1655 16.4649 81.537 16.8894 80.7706 17.1926C80.0043 17.4903 79.1277 17.6392 78.1408 17.6392Z" fill="#2C8658"/>
<path d="M86.3217 17.3911V4.68871H89.2244V6.80577H89.3567C89.5883 6.07252 89.9852 5.50742 90.5476 5.11047C91.1154 4.70801 91.7632 4.50678 92.491 4.50678C92.6564 4.50678 92.841 4.51505 93.045 4.53159C93.2545 4.54261 93.4282 4.56191 93.566 4.58947V7.34331C93.4392 7.2992 93.238 7.26061 92.9623 7.22753C92.6922 7.18894 92.4303 7.16964 92.1767 7.16964C91.6309 7.16964 91.1402 7.28818 90.7047 7.52524C90.2747 7.7568 89.9356 8.07932 89.6875 8.49281C89.4394 8.90629 89.3154 9.38319 89.3154 9.92348V17.3911H86.3217Z" fill="#2C8658"/>
<path d="M95.5549 17.3911V4.68871H98.4576V6.80577H98.5899C98.8215 6.07252 99.2184 5.50742 99.7808 5.11047C100.349 4.70801 100.996 4.50678 101.724 4.50678C101.89 4.50678 102.074 4.51505 102.278 4.53159C102.488 4.54261 102.661 4.56191 102.799 4.58947V7.34331C102.672 7.2992 102.471 7.26061 102.196 7.22753C101.925 7.18894 101.664 7.16964 101.41 7.16964C100.864 7.16964 100.373 7.28818 99.9379 7.52524C99.5079 7.7568 99.1688 8.07932 98.9207 8.49281C98.6726 8.90629 98.5486 9.38319 98.5486 9.92348V17.3911H95.5549Z" fill="#2C8658"/>
<path d="M108.216 17.6474C107.411 17.6474 106.686 17.5041 106.041 17.2174C105.401 16.9252 104.894 16.4952 104.519 15.9273C104.15 15.3595 103.965 14.6593 103.965 13.8268C103.965 13.1101 104.098 12.5174 104.362 12.0488C104.627 11.5802 104.988 11.2053 105.446 10.9241C105.903 10.6429 106.419 10.4307 106.992 10.2873C107.571 10.1385 108.169 10.031 108.787 9.96483C109.531 9.88764 110.135 9.81873 110.598 9.75808C111.061 9.69192 111.397 9.59269 111.607 9.46037C111.822 9.32254 111.929 9.11028 111.929 8.8236V8.77398C111.929 8.15099 111.744 7.66859 111.375 7.32677C111.006 6.98495 110.474 6.81404 109.779 6.81404C109.046 6.81404 108.464 6.97393 108.034 7.29369C107.609 7.61345 107.323 7.99111 107.174 8.42665L104.379 8.0297C104.599 7.25785 104.963 6.61281 105.47 6.09457C105.978 5.57082 106.598 5.17938 107.331 4.92027C108.064 4.65563 108.875 4.52332 109.762 4.52332C110.374 4.52332 110.984 4.59499 111.59 4.73833C112.196 4.88167 112.751 5.11874 113.252 5.44953C113.754 5.77481 114.156 6.21862 114.46 6.78096C114.768 7.34331 114.923 8.04624 114.923 8.88975V17.3911H112.045V15.6462H111.946C111.764 15.999 111.507 16.3298 111.177 16.6385C110.851 16.9418 110.44 17.1871 109.944 17.3745C109.454 17.5565 108.878 17.6474 108.216 17.6474ZM108.993 15.4477C109.594 15.4477 110.115 15.3291 110.556 15.0921C110.997 14.8495 111.336 14.5297 111.573 14.1328C111.816 13.7358 111.937 13.3031 111.937 12.8344V11.3376C111.844 11.4148 111.684 11.4865 111.458 11.5526C111.237 11.6188 110.989 11.6767 110.713 11.7263C110.438 11.7759 110.165 11.82 109.895 11.8586C109.625 11.8972 109.39 11.9303 109.192 11.9578C108.745 12.0185 108.345 12.1177 107.993 12.2556C107.64 12.3934 107.361 12.5863 107.157 12.8344C106.953 13.077 106.851 13.3913 106.851 13.7772C106.851 14.3285 107.053 14.7448 107.455 15.0259C107.858 15.3071 108.37 15.4477 108.993 15.4477Z" fill="#2C8658"/>
<path d="M120.554 17.3911L116.965 4.68871H120.017L122.25 13.6201H122.365L124.648 4.68871H127.666L129.949 13.5704H130.073L132.273 4.68871H135.332L131.735 17.3911H128.617L126.236 8.80706H126.062L123.68 17.3911H120.554Z" fill="#2C8658"/>
<path d="M141.078 17.6474C140.273 17.6474 139.548 17.5041 138.903 17.2174C138.263 16.9252 137.756 16.4952 137.381 15.9273C137.012 15.3595 136.827 14.6593 136.827 13.8268C136.827 13.1101 136.96 12.5174 137.224 12.0488C137.489 11.5802 137.85 11.2053 138.308 10.9241C138.765 10.6429 139.281 10.4307 139.854 10.2873C140.433 10.1385 141.031 10.031 141.649 9.96483C142.393 9.88764 142.997 9.81873 143.46 9.75808C143.923 9.69192 144.259 9.59269 144.469 9.46037C144.684 9.32254 144.791 9.11028 144.791 8.8236V8.77398C144.791 8.15099 144.606 7.66859 144.237 7.32677C143.868 6.98495 143.336 6.81404 142.641 6.81404C141.908 6.81404 141.326 6.97393 140.896 7.29369C140.471 7.61345 140.185 7.99111 140.036 8.42665L137.241 8.0297C137.461 7.25785 137.825 6.61281 138.332 6.09457C138.84 5.57082 139.46 5.17938 140.193 4.92027C140.926 4.65563 141.737 4.52332 142.624 4.52332C143.236 4.52332 143.846 4.59499 144.452 4.73833C145.058 4.88167 145.613 5.11874 146.114 5.44953C146.616 5.77481 147.018 6.21862 147.322 6.78096C147.63 7.34331 147.785 8.04624 147.785 8.88975V17.3911H144.907V15.6462H144.808C144.626 15.999 144.369 16.3298 144.039 16.6385C143.713 16.9418 143.302 17.1871 142.806 17.3745C142.316 17.5565 141.74 17.6474 141.078 17.6474ZM141.855 15.4477C142.456 15.4477 142.977 15.3291 143.418 15.0921C143.859 14.8495 144.198 14.5297 144.435 14.1328C144.678 13.7358 144.799 13.3031 144.799 12.8344V11.3376C144.706 11.4148 144.546 11.4865 144.32 11.5526C144.099 11.6188 143.851 11.6767 143.575 11.7263C143.3 11.7759 143.027 11.82 142.757 11.8586C142.487 11.8972 142.252 11.9303 142.054 11.9578C141.607 12.0185 141.207 12.1177 140.855 12.2556C140.502 12.3934 140.223 12.5863 140.019 12.8344C139.815 13.077 139.713 13.3913 139.713 13.7772C139.713 14.3285 139.915 14.7448 140.317 15.0259C140.72 15.3071 141.232 15.4477 141.855 15.4477Z" fill="#2C8658"/>
<path d="M150.795 17.3911V4.68871H153.698V6.80577H153.83C154.061 6.07252 154.458 5.50742 155.021 5.11047C155.589 4.70801 156.236 4.50678 156.964 4.50678C157.13 4.50678 157.314 4.51505 157.518 4.53159C157.728 4.54261 157.901 4.56191 158.039 4.58947V7.34331C157.912 7.2992 157.711 7.26061 157.436 7.22753C157.165 7.18894 156.904 7.16964 156.65 7.16964C156.104 7.16964 155.613 7.28818 155.178 7.52524C154.748 7.7568 154.409 8.07932 154.161 8.49281C153.913 8.90629 153.789 9.38319 153.789 9.92348V17.3911H150.795Z" fill="#2C8658"/>
<path d="M165.128 17.6392C163.855 17.6392 162.755 17.3745 161.829 16.8453C160.908 16.3105 160.2 15.5552 159.704 14.5794C159.207 13.598 158.959 12.443 158.959 11.1143C158.959 9.8077 159.207 8.66096 159.704 7.6741C160.205 6.68173 160.905 5.90988 161.804 5.35856C162.703 4.80173 163.758 4.52332 164.971 4.52332C165.754 4.52332 166.493 4.65012 167.188 4.90373C167.888 5.15182 168.505 5.53774 169.04 6.06149C169.58 6.58525 170.005 7.25234 170.314 8.06278C170.622 8.8677 170.777 9.827 170.777 10.9407V11.8586H160.365V9.84078H167.907C167.902 9.26741 167.778 8.75744 167.535 8.31087C167.292 7.85879 166.953 7.50319 166.518 7.24407C166.088 6.98495 165.586 6.85539 165.013 6.85539C164.401 6.85539 163.863 7.00425 163.4 7.30196C162.937 7.59416 162.576 7.98008 162.317 8.45973C162.063 8.93386 161.934 9.45486 161.928 10.0227V11.7842C161.928 12.5229 162.063 13.157 162.333 13.6862C162.603 14.21 162.981 14.6124 163.466 14.8936C163.951 15.1693 164.519 15.3071 165.17 15.3071C165.605 15.3071 166 15.2465 166.352 15.1252C166.705 14.9984 167.011 14.8137 167.27 14.5711C167.529 14.3285 167.725 14.028 167.858 13.6697L170.653 13.9839C170.476 14.7227 170.14 15.3677 169.644 15.9191C169.153 16.4649 168.525 16.8894 167.758 17.1926C166.992 17.4903 166.115 17.6392 165.128 17.6392Z" fill="#2C8658"/>
<path d="M178.52 17.3911V3.84189H180.498V8.87652H180.617C180.732 8.66482 180.897 8.42003 181.113 8.14217C181.329 7.8643 181.629 7.62172 182.013 7.41443C182.397 7.20272 182.904 7.09687 183.535 7.09687C184.355 7.09687 185.087 7.30416 185.731 7.71876C186.375 8.13335 186.88 8.73098 187.246 9.51164C187.617 10.2923 187.802 11.2318 187.802 12.33C187.802 13.4282 187.619 14.3699 187.253 15.1549C186.887 15.9356 186.384 16.5376 185.744 16.9611C185.105 17.3801 184.375 17.5896 183.555 17.5896C182.937 17.5896 182.432 17.4859 182.04 17.2786C181.651 17.0713 181.347 16.8287 181.127 16.5509C180.906 16.273 180.736 16.026 180.617 15.8099H180.452V17.3911H178.52ZM180.458 12.3101C180.458 13.0246 180.562 13.6509 180.769 14.189C180.977 14.7271 181.277 15.1483 181.669 15.4526C182.062 15.7526 182.542 15.9025 183.111 15.9025C183.702 15.9025 184.196 15.7459 184.593 15.4328C184.99 15.1152 185.29 14.6852 185.493 14.1427C185.7 13.6002 185.804 12.9894 185.804 12.3101C185.804 11.6397 185.702 11.0377 185.5 10.504C185.301 9.97034 185.001 9.54913 184.6 9.24039C184.203 8.93166 183.707 8.77729 183.111 8.77729C182.538 8.77729 182.053 8.92504 181.656 9.22055C181.263 9.51605 180.966 9.92844 180.763 10.4577C180.56 10.987 180.458 11.6044 180.458 12.3101Z" fill="#2C8658"/>
<path d="M190.928 21.2018C190.632 21.2018 190.363 21.1775 190.121 21.129C189.878 21.0849 189.697 21.0364 189.578 20.9835L190.055 19.3626C190.416 19.4596 190.738 19.5015 191.021 19.4883C191.303 19.4751 191.552 19.3692 191.768 19.1707C191.989 18.9723 192.183 18.6481 192.35 18.1982L192.595 17.5234L188.877 7.22919H190.994L193.568 15.1152H193.673L196.247 7.22919H198.371L194.183 18.7473C193.989 19.2766 193.742 19.7243 193.442 20.0903C193.142 20.4608 192.785 20.7387 192.37 20.9239C191.956 21.1092 191.475 21.2018 190.928 21.2018Z" fill="#2C8658"/>
<g clip-path="url(#clip0_170_5149)">
<path d="M56.9889 46.4059C50.8354 42.4553 43.8205 39.7393 36.3132 38.6282V31.3442C36.3132 29.3689 35.944 27.764 35.0825 26.8998C34.4672 26.0356 33.2365 25.5417 31.7597 25.5417H27.5753V28.1343H31.0212C32.7442 28.1343 33.3596 29.3689 33.3596 31.4677V38.2578C31.8827 38.1343 30.2828 38.0109 28.806 38.0109C27.5753 38.0109 26.4677 38.0109 25.237 38.1343V25.5417L22.1602 26.4059V38.3813C14.2838 39.3689 6.89961 42.2084 0.5 46.4059C7.14575 43.0726 14.4069 40.8504 22.1602 39.9862V49.7393C22.1602 51.7146 22.5294 53.3195 23.3909 54.1837C24.1293 55.0479 25.237 55.5417 26.7138 55.5417H31.0212V52.9492H27.5753C25.8523 52.9492 25.237 51.7146 25.237 49.6158V39.7393C26.4677 39.6158 27.5753 39.6158 28.806 39.6158C29.6219 39.6158 30.4058 39.6479 31.174 39.6794C31.9122 39.7096 32.6359 39.7393 33.3596 39.7393V55.5417L36.4363 54.6776V40.1096C43.6974 40.9738 50.7124 43.1961 56.9889 46.4059Z" fill="#1B5035"/>
<path d="M101.171 44.1837C101.171 41.838 101.786 40.48 103.755 40.48L104.986 40.3565V37.517H102.894C101.294 37.517 100.063 38.1343 99.2017 38.9985C98.2172 40.1096 97.848 41.838 97.848 44.0602V51.4676H101.171V44.1837Z" fill="#1B5035"/>
<path d="M112.616 40.48C110.647 40.48 110.032 41.838 110.032 44.1837V51.4676H106.709V44.0602C106.709 41.838 107.078 40.1096 108.063 38.9985C108.924 38.1343 110.155 37.517 111.755 37.517H113.847V40.3565L112.616 40.48Z" fill="#1B5035"/>
<path d="M166.152 40.48C164.182 40.48 163.567 41.838 163.567 44.1837V51.4676H160.244V44.0602C160.244 41.838 160.613 40.1096 161.598 38.9985C162.459 38.1343 163.69 37.517 165.29 37.517H167.382V40.3565L166.152 40.48Z" fill="#1B5035"/>
<path fill-rule="evenodd" clip-rule="evenodd" d="M88.3717 51.838C91.2023 51.838 93.0483 50.9738 94.5251 48.875L91.8176 47.2701C90.9561 48.2577 89.9716 48.6281 88.4947 48.6281C86.5256 48.6281 85.0488 47.517 84.6796 45.5417H95.5097V44.8009C95.5097 40.6034 92.6791 37.517 88.3717 37.517C84.0642 37.517 81.3567 40.9738 81.3567 44.6775C81.3567 48.6281 84.0642 51.838 88.3717 51.838ZM88.3717 40.48C90.2177 40.48 91.5715 41.4676 92.0637 43.0726H84.8026C85.418 41.3442 86.6487 40.48 88.3717 40.48Z" fill="#1B5035"/>
<path fill-rule="evenodd" clip-rule="evenodd" d="M125.785 50.1096C124.554 51.2207 123.323 51.838 121.6 51.838C118.154 51.838 115.201 48.875 115.201 44.6775C115.201 40.48 118.031 37.517 121.6 37.517C123.2 37.517 124.677 38.1343 125.785 39.3688V37.8874H129.108V51.4676H125.785V50.1096ZM118.647 44.6775C118.647 47.0232 120.124 48.7516 122.216 48.7516C124.308 48.7516 125.908 47.1466 125.908 44.6775C125.908 42.3318 124.308 40.7269 122.216 40.7269C120.001 40.7269 118.647 42.5787 118.647 44.6775Z" fill="#1B5035"/>
<path fill-rule="evenodd" clip-rule="evenodd" d="M150.645 51.838C154.706 51.838 157.783 48.6281 157.783 44.6775C157.783 40.7269 154.583 37.6405 150.645 37.517C146.953 37.517 143.63 40.6034 143.63 44.6775C143.63 48.7516 146.707 51.838 150.645 51.838ZM150.645 48.6281C148.553 48.6281 147.076 47.0232 147.076 44.6775C147.076 42.4553 148.553 40.8503 150.645 40.7269C152.86 40.7269 154.337 42.3318 154.337 44.6775C154.337 47.1466 152.737 48.6281 150.645 48.6281Z" fill="#1B5035"/>
<path fill-rule="evenodd" clip-rule="evenodd" d="M202.949 50.1096C201.719 51.2207 200.488 51.838 198.765 51.838C195.319 51.838 192.365 48.875 192.365 44.6775C192.365 40.48 195.196 37.517 198.765 37.517C200.365 37.517 201.842 38.1343 202.949 39.3688V37.8874H206.272V51.4676H202.949V50.1096ZM195.688 44.6775C195.688 47.0232 197.165 48.7516 199.257 48.7516C201.349 48.7516 202.949 47.1466 202.949 44.6775C202.949 42.3318 201.349 40.7269 199.257 40.7269C197.165 40.7269 195.688 42.5787 195.688 44.6775Z" fill="#1B5035"/>
<path d="M223.379 35.9122C224.61 35.9122 225.594 34.9245 225.594 33.69C225.594 32.4554 224.61 31.4677 223.379 31.4677C222.148 31.4677 221.164 32.4554 221.164 33.5665C221.164 34.8011 222.148 35.9122 223.379 35.9122Z" fill="#1B5035"/>
<path d="M225.102 38.0109H221.779V51.5912H225.102V38.0109Z" fill="#1B5035"/>
<path d="M84.8026 29.122H65.973V32.4554H73.6033V51.4677H77.0493V32.4554H84.8026V29.122Z" fill="#1B5035"/>
<path fill-rule="evenodd" clip-rule="evenodd" d="M234.455 51.838C238.516 51.838 241.593 48.6281 241.593 44.6775C241.593 40.7269 238.393 37.6405 234.455 37.517C230.763 37.517 227.44 40.6034 227.44 44.6775C227.44 48.7516 230.517 51.838 234.455 51.838ZM234.455 48.6281C232.363 48.6281 230.886 47.0232 230.886 44.6775C230.886 42.4553 232.363 40.8503 234.455 40.7269C236.67 40.7269 238.147 42.3318 238.147 44.6775C238.147 47.1466 236.547 48.6281 234.455 48.6281Z" fill="#1B5035"/>
<path d="M219.318 40.8504V37.8875H215.502V31.4677L212.18 32.4554V38.0109H208.611V40.9739H212.18V47.8875C212.18 50.1097 212.549 51.8381 213.533 52.9492C214.395 53.8134 215.625 54.4307 217.225 54.4307H219.318V51.4677H218.087C216.118 51.4677 215.502 50.1097 215.502 47.764V40.8504H219.318Z" fill="#1B5035"/>
<path d="M142.276 29.6159V32.4554H141.045C138.83 32.4554 138.461 33.5665 138.461 36.1591V37.8875H142.276V40.8504H138.461V54.0603L135.138 55.048V41.0974H131.569V38.1344H135.138V36.1591C135.138 33.8134 135.507 32.2085 136.492 31.0974C137.23 30.1097 138.584 29.6159 140.184 29.6159H142.276Z" fill="#1B5035"/>
<path d="M181.781 51.4677H178.458V44.9245C178.458 42.3319 177.966 40.727 176.12 40.727C174.397 40.727 173.166 42.085 173.166 44.9245V51.4677H169.844V37.6406H173.166V39.4924C174.274 38.2579 175.751 37.6406 177.351 37.6406C179.074 37.6406 180.428 38.3813 181.289 40.1097C182.52 38.5048 183.75 37.6406 185.843 37.6406C187.319 37.6406 188.673 38.2579 189.412 39.2455C190.273 40.3566 190.396 41.8381 190.396 43.69V51.4677H187.073V44.0603C187.073 41.8381 186.335 40.727 184.735 40.727C183.012 40.727 181.781 42.085 181.781 44.8011V51.4677Z" fill="#1B5035"/>
<path d="M250.823 37.6406C249.347 37.6406 248.239 38.2579 246.885 39.369V37.8875H243.562V51.4677H246.885V45.7887C246.885 45.617 246.883 45.4472 246.881 45.2794C246.868 44.1204 246.855 43.0556 247.501 42.085C248.116 41.2208 248.854 40.727 249.839 40.727C251.931 40.727 252.177 42.3319 252.177 45.048V51.4677H255.5V42.3319C255.5 39.369 253.285 37.6406 250.823 37.6406Z" fill="#1B5035"/>
</g>
<defs>
<clipPath id="clip0_170_5149">
<rect width="255" height="30" fill="white" transform="translate(0.5 25.5417)"/>
</clipPath>
</defs>
</svg>
