<svg width="124" height="124" viewBox="0 0 124 124" fill="none" xmlns="http://www.w3.org/2000/svg">
<rect x="1.07171" y="1.12353" width="120.868" height="121.014" transform="rotate(-0.0245783 1.07171 1.12353)" stroke="#DC97B5" stroke-width="2.14251"/>
<path d="M110.519 13.2917C110.519 12.7001 110.04 12.2205 109.448 12.2205L99.8067 12.2208C99.215 12.2208 98.7354 12.7005 98.7354 13.2921C98.7355 13.8837 99.2151 14.3633 99.8067 14.3633L108.377 14.363L108.377 22.9331C108.377 23.5247 108.857 24.0043 109.448 24.0043C110.04 24.0043 110.52 23.5246 110.52 22.933L110.519 13.2917ZM25.0811 97.6641L25.8386 98.4216L27.3451 96.9149L26.5876 96.1575L25.8301 95.4L24.3235 96.9066L25.0811 97.6641ZM29.6007 93.1442L30.3582 93.9016L33.3713 90.8883L32.6138 90.1309L31.8563 89.3734L28.8432 92.3867L29.6007 93.1442ZM35.6269 87.1176L36.3844 87.875L39.3975 84.8617L38.64 84.1043L37.8825 83.3468L34.8694 86.3601L35.6269 87.1176ZM41.6531 81.091L42.4106 81.8484L45.4237 78.8351L44.6662 78.0777L43.9087 77.3202L40.8956 80.3335L41.6531 81.091ZM47.6793 75.0644L48.4369 75.8218L51.45 72.8085L50.6924 72.0511L49.9349 71.2936L46.9218 74.3069L47.6793 75.0644ZM53.7055 69.0378L54.4631 69.7952L57.4762 66.7819L56.7187 66.0245L55.9611 65.267L52.948 68.2803L53.7055 69.0378ZM59.7318 63.0112L60.4893 63.7686L63.5024 60.7553L62.7449 59.9979L61.9873 59.2404L58.9742 62.2537L59.7318 63.0112ZM65.758 56.9846L66.5155 57.742L69.5286 54.7287L68.7711 53.9713L68.0136 53.2138L65.0005 56.2271L65.758 56.9846ZM71.7842 50.958L72.5417 51.7154L75.5548 48.7022L74.7973 47.9447L74.0398 47.1872L71.0267 50.2005L71.7842 50.958ZM77.8104 44.9314L78.5679 45.6889L81.581 42.6756L80.8235 41.9181L80.066 41.1606L77.0529 44.1739L77.8104 44.9314ZM83.8366 38.9048L84.5941 39.6623L87.6072 36.649L86.8497 35.8915L86.0922 35.134L83.0791 38.1473L83.8366 38.9048ZM89.8628 32.8782L90.6203 33.6357L93.6334 30.6224L92.8759 29.8649L92.1184 29.1074L89.1053 32.1207L89.8628 32.8782ZM95.889 26.8516L96.6465 27.6091L99.6596 24.5958L98.9021 23.8383L98.1446 23.0809L95.1315 26.0941L95.889 26.8516ZM101.915 20.825L102.673 21.5825L105.686 18.5692L104.928 17.8117L104.171 17.0543L101.158 20.0676L101.915 20.825ZM107.941 14.7984L108.699 15.5559L110.205 14.0492L109.448 13.2917L108.69 12.5343L107.184 14.041L107.941 14.7984Z" fill="#DC97B5"/>
<path d="M112.781 109.299C113.372 109.276 113.832 108.778 113.809 108.187L113.431 98.553C113.407 97.9619 112.909 97.5015 112.318 97.5247C111.727 97.5479 111.266 98.046 111.29 98.6372L111.626 107.201L103.063 107.537C102.472 107.56 102.011 108.059 102.034 108.65C102.058 109.241 102.556 109.701 103.147 109.678L112.781 109.299ZM26.7652 28.7585L26.038 29.5452L27.5732 30.9643L28.3004 30.1777L29.0276 29.391L27.4923 27.9719L26.7652 28.7585ZM31.3709 33.0159L30.6437 33.8025L33.7142 36.6408L34.4414 35.8541L35.1685 35.0675L32.098 32.2292L31.3709 33.0159ZM37.5119 38.6923L36.7847 39.479L39.8552 42.3172L40.5823 41.5306L41.3095 40.7439L38.239 37.9057L37.5119 38.6923ZM43.6528 44.3688L42.9257 45.1555L45.9962 47.9937L46.7233 47.207L47.4505 46.4204L44.38 43.5821L43.6528 44.3688ZM49.7938 50.0453L49.0666 50.8319L52.1371 53.6702L52.8643 52.8835L53.5914 52.0968L50.521 49.2586L49.7938 50.0453ZM55.9348 55.7217L55.2076 56.5084L58.2781 59.3466L59.0053 58.56L59.7324 57.7733L56.6619 54.9351L55.9348 55.7217ZM62.0758 61.3982L61.3486 62.1848L64.4191 65.0231L65.1462 64.2364L65.8734 63.4498L62.8029 60.6115L62.0758 61.3982ZM68.2167 67.0746L67.4896 67.8613L70.5601 70.6995L71.2872 69.9129L72.0144 69.1262L68.9439 66.288L68.2167 67.0746ZM74.3577 72.7511L73.6305 73.5378L76.701 76.376L77.4282 75.5893L78.1553 74.8027L75.0848 71.9644L74.3577 72.7511ZM80.4987 78.4276L79.7715 79.2142L82.842 82.0524L83.5692 81.2658L84.2963 80.4791L81.2258 77.6409L80.4987 78.4276ZM86.6396 84.104L85.9125 84.8907L88.983 87.7289L89.7101 86.9423L90.4373 86.1556L87.3668 83.3174L86.6396 84.104ZM92.7806 89.7805L92.0535 90.5671L95.1239 93.4054L95.8511 92.6187L96.5783 91.8321L93.5078 88.9938L92.7806 89.7805ZM98.9216 95.4569L98.1944 96.2436L101.265 99.0818L101.992 98.2952L102.719 97.5085L99.6487 94.6703L98.9216 95.4569ZM105.063 101.133L104.335 101.92L107.406 104.758L108.133 103.972L108.86 103.185L105.79 100.347L105.063 101.133ZM111.204 106.81L110.476 107.597L112.012 109.016L112.739 108.229L113.466 107.442L111.931 106.023L111.204 106.81Z" fill="#DC97B5"/>
<path d="M9.99837 107.761C9.58002 108.179 9.58002 108.858 9.99837 109.276L16.8158 116.093C17.2341 116.512 17.9124 116.512 18.3308 116.093C18.7491 115.675 18.7491 114.997 18.3308 114.578L12.2708 108.518L18.3308 102.459C18.7491 102.04 18.7491 101.362 18.3308 100.944C17.9124 100.525 17.2341 100.525 16.8158 100.944L9.99837 107.761ZM10.7559 108.518L10.7559 109.59L12.8689 109.59L12.8689 108.518L12.8689 107.447L10.7559 107.447L10.7559 108.518ZM17.0949 108.518L17.0949 109.59L21.3209 109.59L21.3209 108.518L21.3209 107.447L17.0949 107.447L17.0949 108.518ZM25.5469 108.518L25.5469 109.59L29.7729 109.59L29.7729 108.518V107.447L25.5469 107.447L25.5469 108.518ZM33.9989 108.518L33.9989 109.59L38.2249 109.59V108.518L38.2249 107.447L33.9989 107.447V108.518ZM42.4509 108.518L42.4509 109.59L46.677 109.59V108.518V107.447L42.4509 107.447V108.518ZM50.903 108.518V109.59L55.129 109.59L55.129 108.518V107.447L50.903 107.447V108.518ZM59.355 108.518L59.355 109.59L63.581 109.59V108.518L63.581 107.447L59.355 107.447V108.518ZM67.807 108.518V109.59L72.033 109.59V108.518V107.447L67.807 107.447L67.807 108.518ZM76.259 108.518V109.59L80.4851 109.59V108.518V107.447L76.259 107.447V108.518ZM84.7111 108.519V109.59L88.9371 109.59V108.519V107.447L84.7111 107.447V108.519ZM93.1631 108.519V109.59L95.2761 109.59V108.519V107.447L93.1631 107.447V108.519Z" fill="#DC97B5"/>
<path fill-rule="evenodd" clip-rule="evenodd" d="M16.2293 34.611L18.8118 29.1766L22.5741 33.912L25.0822 38.9726L23.686 32.2416L18.6806 24.5784L15.7109 31.4348L16.2293 34.611Z" fill="#7F775B"/>
<path d="M26.3355 38.7912L23.8273 32.9389L18.811 24.5784" stroke="#7F775B" stroke-width="2.53586" stroke-miterlimit="10" stroke-linecap="round" stroke-linejoin="round"/>
<path d="M10.4507 38.7914L15.049 34.1932L17.5571 22.9065" stroke="#7F775B" stroke-width="2.53586" stroke-miterlimit="10" stroke-linecap="round" stroke-linejoin="round"/>
<path d="M12.123 25.4147L12.9591 19.1443L18.8114 15.3821" stroke="#7F775B" stroke-width="2.53586" stroke-miterlimit="10" stroke-linecap="round" stroke-linejoin="round"/>
<path d="M29.6799 25.4146L25.0816 23.3244L22.0317 16.218" stroke="#7F775B" stroke-width="2.53586" stroke-miterlimit="10" stroke-linecap="round" stroke-linejoin="round"/>
<path d="M22.1552 13.2918C23.7713 13.2918 25.0814 11.9817 25.0814 10.3656C25.0814 8.74955 23.7713 7.43945 22.1552 7.43945C20.5391 7.43945 19.229 8.74955 19.229 10.3656C19.229 11.9817 20.5391 13.2918 22.1552 13.2918Z" fill="#7F775B"/>
<path fill-rule="evenodd" clip-rule="evenodd" d="M20.9017 25.8324C20.9017 25.8324 22.2678 21.051 23.2535 17.6006C23.4884 16.778 23.3237 15.8934 22.8087 15.2112C22.2945 14.529 21.4894 14.1277 20.6341 14.1277C19.9461 14.1277 19.2873 14.1277 18.7957 14.1277C18.3041 14.1277 17.8827 14.4763 17.7891 14.9587C17.3493 17.2403 16.1562 23.4346 16.1562 23.4346L20.9017 25.8324Z" fill="#7F775B"/>
</svg>
