<svg width="128" height="128" viewBox="0 0 128 128" fill="none" xmlns="http://www.w3.org/2000/svg">
<mask id="mask0" style="mask-type:alpha" maskUnits="userSpaceOnUse" x="0" y="0" width="128" height="128">
<circle cx="64" cy="64" r="64" fill="#C4C4C4"/>
</mask>
<g mask="url(#mask0)">
<path d="M128 0H0V128H128V0Z" fill="#A9B7B8"/>
</g>
<path d="M64 24C41.9441 24 24 41.9441 24 64C24 86.0559 41.9441 104 64 104C86.0559 104 104 86.0559 104 64C104 41.9441 86.0559 24 64 24ZM64 30C82.8132 30 98 45.1868 98 64C98 82.8132 82.8132 98 64 98C45.1868 98 30 82.8132 30 64C30 45.1868 45.1868 30 64 30ZM52 49C50.6739 49 49.4021 49.5268 48.4645 50.4645C47.5268 51.4021 47 52.6739 47 54C47 55.3261 47.5268 56.5979 48.4645 57.5355C49.4021 58.4732 50.6739 59 52 59C53.3261 59 54.5979 58.4732 55.5355 57.5355C56.4732 56.5979 57 55.3261 57 54C57 52.6739 56.4732 51.4021 55.5355 50.4645C54.5979 49.5268 53.3261 49 52 49ZM76 49C74.6739 49 73.4021 49.5268 72.4645 50.4645C71.5268 51.4021 71 52.6739 71 54C71 55.3261 71.5268 56.5979 72.4645 57.5355C73.4021 58.4732 74.6739 59 76 59C77.3261 59 78.5979 58.4732 79.5355 57.5355C80.4732 56.5979 81 55.3261 81 54C81 52.6739 80.4732 51.4021 79.5355 50.4645C78.5979 49.5268 77.3261 49 76 49ZM47.5469 71.9688C46.9762 71.9592 46.4146 72.1127 45.928 72.4111C45.4415 72.7096 45.0502 73.1406 44.8 73.6537C44.5498 74.1667 44.4512 74.7405 44.5157 75.3076C44.5802 75.8747 44.8051 76.4117 45.1641 76.8555C49.5527 82.4326 56.3859 86 64 86C71.6141 86 78.4473 82.4326 82.8359 76.8555C83.0858 76.5465 83.2719 76.191 83.3833 75.8096C83.4947 75.4281 83.5292 75.0284 83.4848 74.6335C83.4404 74.2386 83.318 73.8565 83.1247 73.5093C82.9315 73.1621 82.6711 72.8567 82.3589 72.6109C82.0466 72.3652 81.6887 72.1839 81.3058 72.0776C80.9229 71.9713 80.5227 71.9421 80.1284 71.9918C79.7342 72.0414 79.3537 72.1689 79.0091 72.3668C78.6645 72.5647 78.3627 72.829 78.1211 73.1445C74.8297 77.3274 69.7459 80 64 80C58.2541 80 53.1703 77.3274 49.8789 73.1445C49.6039 72.7855 49.2514 72.4932 48.8475 72.2896C48.4437 72.086 47.9991 71.9763 47.5469 71.9688Z" fill="white"/>
</svg>
