<svg width="200" height="128" viewBox="0 0 200 128" fill="none" xmlns="http://www.w3.org/2000/svg">
<g clip-path="url(#clip0_717_187)">
<path fill-rule="evenodd" clip-rule="evenodd" d="M96.8213 12.057C121.699 11.4067 150.77 16.0576 158.417 39.7402C166.04 63.347 144.726 83.4864 124.544 97.9112C105.029 111.859 80.2875 123.307 60.5315 109.702C39.6197 95.3021 35.5523 66.5204 44.3975 42.7204C52.1945 21.7408 74.4473 12.6418 96.8213 12.057Z" fill="#F0F4FF"/>
<path fill-rule="evenodd" clip-rule="evenodd" d="M96.8213 12.057C121.699 11.4067 150.77 16.0576 158.417 39.7402C166.04 63.347 144.726 83.4864 124.544 97.9112C105.029 111.859 80.2875 123.307 60.5315 109.702C39.6197 95.3021 35.5523 66.5204 44.3975 42.7204C52.1945 21.7408 74.4473 12.6418 96.8213 12.057Z" fill="url(#paint0_linear_717_187)" fill-opacity="0.2"/>
<path d="M56.9987 35.4489C56.9923 35.4489 56.9859 35.449 56.9795 35.449C54.2296 35.449 51.9982 32.1186 51.9803 28C51.9623 32.1091 49.7412 35.4336 47 35.4489C47 35.4489 47 35.4489 47 35.4489C49.7412 35.4642 51.9623 38.7889 51.9803 42.8979C51.9982 38.7794 54.2296 35.449 56.9795 35.449C56.9859 35.449 56.9923 35.4489 56.9987 35.4489C56.9987 35.4489 56.9987 35.4489 56.9987 35.4489Z" fill="url(#paint1_linear_717_187)"/>
<path d="M152.999 64.4489C152.992 64.4489 152.986 64.449 152.98 64.449C150.23 64.449 147.998 61.1186 147.98 57C147.962 61.1091 145.741 64.4336 143 64.4489C143 64.4489 143 64.4489 143 64.4489C145.741 64.4642 147.962 67.7889 147.98 71.8979C147.998 67.7794 150.23 64.449 152.98 64.449C152.986 64.449 152.992 64.4489 152.999 64.4489C152.999 64.4489 152.999 64.4489 152.999 64.4489Z" fill="url(#paint2_linear_717_187)"/>
<path d="M84.9987 93.4489C84.9923 93.4489 84.9859 93.449 84.9795 93.449C82.2296 93.449 79.9982 90.1186 79.9803 86C79.9623 90.1091 77.7412 93.4336 75 93.4489C75 93.4489 75 93.4489 75 93.4489C77.7412 93.4642 79.9623 96.7889 79.9803 100.898C79.9982 96.7794 82.2296 93.449 84.9795 93.449C84.9859 93.449 84.9923 93.4489 84.9987 93.4489C84.9987 93.4489 84.9987 93.4489 84.9987 93.4489Z" fill="url(#paint3_linear_717_187)"/>
<mask id="mask0_717_187" style="mask-type:alpha" maskUnits="userSpaceOnUse" x="0" y="0" width="200" height="128">
<path fill-rule="evenodd" clip-rule="evenodd" d="M96.8213 12.057C121.699 11.4067 150.77 16.0576 158.417 39.7402C166.04 63.347 144.726 83.4864 124.544 97.9112C105.029 111.859 80.2875 123.307 60.5315 109.702C39.6197 95.3021 35.5523 66.5204 44.3975 42.7204C52.1945 21.7408 74.4473 12.6418 96.8213 12.057Z" fill="#F0F4FF"/>
<path fill-rule="evenodd" clip-rule="evenodd" d="M96.8213 12.057C121.699 11.4067 150.77 16.0576 158.417 39.7402C166.04 63.347 144.726 83.4864 124.544 97.9112C105.029 111.859 80.2875 123.307 60.5315 109.702C39.6197 95.3021 35.5523 66.5204 44.3975 42.7204C52.1945 21.7408 74.4473 12.6418 96.8213 12.057Z" fill="url(#paint4_linear_717_187)" fill-opacity="0.2"/>
</mask>
<g mask="url(#mask0_717_187)">
<path opacity="0.25" d="M152.2 77.1999L123.5 48.5L81.6406 86.141L107.5 112L152.2 77.1999Z" fill="url(#paint5_linear_717_187)"/>
</g>
<path d="M77.9426 46.9948C80.8448 42.4438 85.1024 39.3333 89.9999 39.3333C93.6645 39.3333 96.5632 40.3147 98.7577 42.1094C100.762 43.7487 102.14 45.9373 103.422 48.4089C106.199 46.687 109.148 45.5028 112.018 45.0521C115.568 44.4947 118.994 45.0435 121.818 47.0313C125.831 49.8563 127.466 54.8651 127.18 60.237C126.893 65.6089 124.76 71.53 120.961 76.9271C117.151 82.3378 112.219 86.2978 107.193 88.3281C102.747 90.1238 98.0865 90.4068 94.2916 88.4948C94.2036 88.5424 94.1122 88.5833 94.0181 88.6172C92.7391 89.0839 91.3853 89.3333 89.9999 89.3333C85.1024 89.3333 80.8448 86.2229 77.9426 81.6719C75.0405 77.1209 73.3333 71.0293 73.3333 64.3333C73.3333 57.6374 75.0405 51.5458 77.9426 46.9948Z" fill="#F0F4FF"/>
<path d="M89.9999 39.3333C85.1024 39.3333 80.8448 42.4438 77.9426 46.9948C75.0405 51.5458 73.3333 57.6374 73.3333 64.3333C73.3333 71.0293 75.0405 77.1209 77.9426 81.6719C80.8448 86.2229 85.1024 89.3333 89.9999 89.3333C91.3853 89.3333 92.7391 89.0839 94.0181 88.6172C94.1122 88.5833 94.2036 88.5424 94.2916 88.4948C98.0865 90.4068 102.747 90.1238 107.193 88.3281C112.219 86.2978 117.151 82.3378 120.961 76.9271C124.76 71.53 126.893 65.6089 127.18 60.237C127.466 54.8651 125.831 49.8563 121.818 47.0313C118.994 45.0435 115.568 44.4947 112.018 45.0521C109.148 45.5028 106.199 46.687 103.422 48.4089C102.14 45.9373 100.762 43.7487 98.7577 42.1094C96.5632 40.3147 93.6645 39.3333 89.9999 39.3333ZM89.9999 43.3333C93.0021 43.3333 94.7591 44.0057 96.2265 45.2057C97.6706 46.3867 98.8728 48.2544 100.148 50.7813C97.818 52.6973 95.6223 55.0172 93.7056 57.7396C93.1484 58.5313 92.8911 59.3793 92.4062 60.1901C91.7093 57.0576 92.9973 55.1094 92.9973 55.1094C93.1479 54.891 93.2536 54.6448 93.3081 54.3851C93.3627 54.1255 93.365 53.8576 93.315 53.597C93.265 53.3365 93.1637 53.0885 93.0169 52.8675C92.8702 52.6464 92.6809 52.4568 92.4602 52.3097C92.2394 52.1625 91.9916 52.0607 91.7311 52.0102C91.4707 51.9598 91.2028 51.9616 90.943 52.0157C90.6833 52.0698 90.4369 52.175 90.2182 52.3252C89.9995 52.4754 89.8129 52.6676 89.6692 52.8906C89.6692 52.8906 86.4601 58.0584 89.5442 64.2266C89.6484 64.4419 89.7904 64.6369 89.9635 64.8021C88.6022 68.0627 87.6524 71.3284 87.4869 74.4297C87.2677 78.5368 88.1772 82.428 90.4088 85.2969C90.2717 85.3043 90.1383 85.3333 89.9999 85.3333C86.7974 85.3333 83.7212 83.2942 81.315 79.5208C78.9088 75.7475 77.3333 70.34 77.3333 64.3333C77.3333 58.3266 78.9088 52.9192 81.315 49.1458C83.7212 45.3725 86.7974 43.3333 89.9999 43.3333ZM114.958 48.9037C115.434 48.9195 115.898 48.9654 116.344 49.0417C117.533 49.2451 118.608 49.6633 119.516 50.3021C122.126 52.1397 123.423 55.5654 123.185 60.0234C122.947 64.4815 121.096 69.7861 117.69 74.625C114.293 79.4503 109.875 82.9314 105.695 84.6198C101.516 86.3082 97.7617 86.2023 95.151 84.3646C92.5403 82.527 91.2437 79.1013 91.4817 74.6432C91.7196 70.1851 93.5703 64.8806 96.9765 60.0417C99.0159 57.145 101.388 54.7447 103.851 52.9323C107.624 50.1583 111.626 48.7929 114.958 48.9037ZM115.302 51.9714C115.006 51.9751 114.714 52.0447 114.448 52.175C114.182 52.3054 113.948 52.4932 113.763 52.725C113.579 52.9567 113.448 53.2266 113.38 53.5151C113.312 53.8036 113.31 54.1036 113.372 54.3932C113.372 54.3932 113.938 57.443 113.372 60.2734C113.089 61.6887 112.542 62.9631 111.669 63.8359C110.796 64.7088 109.583 65.3333 107.333 65.3333C103.947 65.3333 101.343 66.3218 99.6119 67.9662C97.8808 69.6106 97.1165 71.7494 96.828 73.7083C96.2511 77.6262 97.4218 81.25 97.4218 81.25C97.4898 81.5109 97.6098 81.7554 97.7746 81.9688C97.9395 82.1822 98.1458 82.36 98.3811 82.4916C98.6165 82.6232 98.876 82.7059 99.1441 82.7346C99.4122 82.7634 99.6833 82.7376 99.9412 82.6589C100.199 82.5802 100.438 82.4502 100.645 82.2766C100.851 82.1031 101.02 81.8896 101.142 81.649C101.264 81.4084 101.336 81.1457 101.353 80.8767C101.371 80.6076 101.334 80.3378 101.245 80.0833C101.245 80.0833 100.379 77.0405 100.784 74.2917C100.986 72.9173 101.466 71.7228 102.367 70.8672C103.268 70.0116 104.683 69.3333 107.333 69.3333C110.417 69.3333 112.87 68.2912 114.497 66.6641C116.124 65.0369 116.911 62.978 117.294 61.0599C118.061 57.2237 117.294 53.6068 117.294 53.6068C117.208 53.1431 116.961 52.7246 116.597 52.4254C116.232 52.1262 115.774 51.9654 115.302 51.9714Z" fill="#0067C8"/>
</g>
<defs>
<linearGradient id="paint0_linear_717_187" x1="125.5" y1="101.5" x2="49.5" y2="23.5" gradientUnits="userSpaceOnUse">
<stop stop-color="#007DF2"/>
<stop offset="1" stop-color="#53EA9F"/>
</linearGradient>
<linearGradient id="paint1_linear_717_187" x1="47" y1="28" x2="57" y2="43" gradientUnits="userSpaceOnUse">
<stop stop-color="#308F5F"/>
<stop offset="1" stop-color="#007DF2"/>
</linearGradient>
<linearGradient id="paint2_linear_717_187" x1="143" y1="57" x2="153" y2="72" gradientUnits="userSpaceOnUse">
<stop stop-color="#308F5F"/>
<stop offset="1" stop-color="#007DF2"/>
</linearGradient>
<linearGradient id="paint3_linear_717_187" x1="75" y1="86" x2="85" y2="101" gradientUnits="userSpaceOnUse">
<stop stop-color="#308F5F"/>
<stop offset="1" stop-color="#007DF2"/>
</linearGradient>
<linearGradient id="paint4_linear_717_187" x1="125.5" y1="101.5" x2="49.5" y2="23.5" gradientUnits="userSpaceOnUse">
<stop stop-color="#007DF2"/>
<stop offset="1" stop-color="#53EA9F"/>
</linearGradient>
<linearGradient id="paint5_linear_717_187" x1="94.8307" y1="73.5" x2="121.533" y2="102.073" gradientUnits="userSpaceOnUse">
<stop stop-color="#308F5F"/>
<stop offset="1" stop-color="#007DF2"/>
</linearGradient>
<clipPath id="clip0_717_187">
<rect width="200" height="128" fill="white"/>
</clipPath>
</defs>
</svg>
