<svg width="200" height="128" viewBox="0 0 200 128" fill="none" xmlns="http://www.w3.org/2000/svg">
<g clip-path="url(#clip0_717_223)">
<path fill-rule="evenodd" clip-rule="evenodd" d="M96.6667 4.03883C123.337 3.01324 147.152 22.4244 154.066 48.2033C160.113 70.7493 142.144 89.7357 123.373 103.611C103.911 117.998 79.0313 132.301 59.3453 118.222C39.3978 103.956 43.7968 75.4607 51.4158 52.1506C58.9779 29.0147 72.3442 4.97413 96.6667 4.03883Z" fill="#F0F4FF"/>
<path fill-rule="evenodd" clip-rule="evenodd" d="M96.6667 4.03883C123.337 3.01324 147.152 22.4244 154.066 48.2033C160.113 70.7493 142.144 89.7357 123.373 103.611C103.911 117.998 79.0313 132.301 59.3453 118.222C39.3978 103.956 43.7968 75.4607 51.4158 52.1506C58.9779 29.0147 72.3442 4.97413 96.6667 4.03883Z" fill="url(#paint0_linear_717_223)" fill-opacity="0.2"/>
<path d="M146.999 101.449C146.992 101.449 146.986 101.449 146.98 101.449C144.23 101.449 141.998 98.1186 141.98 94C141.962 98.1091 139.741 101.434 137 101.449C137 101.449 137 101.449 137 101.449C139.741 101.464 141.962 104.789 141.98 108.898C141.998 104.779 144.23 101.449 146.98 101.449C146.986 101.449 146.992 101.449 146.999 101.449C146.999 101.449 146.999 101.449 146.999 101.449Z" fill="url(#paint1_linear_717_223)"/>
<path d="M87.9987 26.4489C87.9923 26.4489 87.9859 26.449 87.9795 26.449C85.2296 26.449 82.9982 23.1186 82.9803 19C82.9623 23.1091 80.7412 26.4336 78 26.4489C78 26.4489 78 26.4489 78 26.4489C80.7412 26.4642 82.9623 29.7889 82.9803 33.8979C82.9982 29.7794 85.2296 26.449 87.9795 26.449C87.9859 26.449 87.9923 26.4489 87.9987 26.4489C87.9987 26.4489 87.9987 26.4489 87.9987 26.4489Z" fill="url(#paint2_linear_717_223)"/>
<path d="M63.9987 77.4489C63.9923 77.4489 63.9859 77.449 63.9795 77.449C61.2296 77.449 58.9982 74.1186 58.9803 70C58.9623 74.1091 56.7412 77.4336 54 77.4489C54 77.4489 54 77.4489 54 77.4489C56.7412 77.4642 58.9623 80.7889 58.9803 84.8979C58.9982 80.7794 61.2296 77.449 63.9795 77.449C63.9859 77.449 63.9923 77.4489 63.9987 77.4489C63.9987 77.4489 63.9987 77.4489 63.9987 77.4489Z" fill="url(#paint3_linear_717_223)"/>
<mask id="mask0_717_223" style="mask-type:alpha" maskUnits="userSpaceOnUse" x="0" y="0" width="200" height="128">
<path fill-rule="evenodd" clip-rule="evenodd" d="M96.6667 4.03883C123.337 3.01324 147.152 22.4244 154.066 48.2033C160.113 70.7493 142.144 89.7357 123.373 103.611C103.911 117.998 79.0313 132.301 59.3453 118.222C39.3978 103.956 43.7968 75.4607 51.4158 52.1506C58.9779 29.0147 72.3442 4.97413 96.6667 4.03883Z" fill="#F0F4FF"/>
<path fill-rule="evenodd" clip-rule="evenodd" d="M96.6667 4.03883C123.337 3.01324 147.152 22.4244 154.066 48.2033C160.113 70.7493 142.144 89.7357 123.373 103.611C103.911 117.998 79.0313 132.301 59.3453 118.222C39.3978 103.956 43.7968 75.4607 51.4158 52.1506C58.9779 29.0147 72.3442 4.97413 96.6667 4.03883Z" fill="url(#paint4_linear_717_223)" fill-opacity="0.2"/>
</mask>
<g mask="url(#mask0_717_223)">
<path opacity="0.25" d="M159.7 77.6999L125 43L75.6406 85.641L107.5 117.5L159.7 77.6999Z" fill="url(#paint5_linear_717_223)"/>
</g>
<path d="M73.3333 47.3333C73.3333 43.307 76.6402 40 80.6666 40H119.333C123.36 40 126.667 43.307 126.667 47.3333V80.6667C126.667 84.693 123.36 88 119.333 88H80.6666C76.6402 88 73.3333 84.693 73.3333 80.6667V66V47.3333Z" fill="#F0F4FF"/>
<path d="M80.6666 40C76.6402 40 73.3333 43.307 73.3333 47.3333V66V80.6667C73.3333 84.693 76.6402 88 80.6666 88H119.333C123.36 88 126.667 84.693 126.667 80.6667V47.3333C126.667 43.307 123.36 40 119.333 40H80.6666ZM80.6666 44H119.333C121.198 44 122.667 45.469 122.667 47.3333V80.6667C122.667 82.531 121.198 84 119.333 84H80.6666C78.8023 84 77.3333 82.531 77.3333 80.6667V68H80.6666C81.3693 68 82.0201 67.6326 82.3801 67.0286L84.4036 63.6615L88.1718 72.1458C88.4918 72.8645 89.2041 73.3293 89.9921 73.3333C90.7881 73.3013 91.4949 72.8775 91.8202 72.1615L96.4426 61.9896L101.45 76.0078C101.72 76.7611 102.411 77.2801 103.211 77.3281C103.252 77.3308 103.295 77.3333 103.333 77.3333C104.087 77.3333 104.782 76.9092 105.122 76.2292L109.904 66.6667H111.333H111.336C111.646 67.0803 112.048 67.4161 112.511 67.6475C112.973 67.8789 113.483 67.9996 114 68C114.884 68 115.732 67.6488 116.357 67.0237C116.982 66.3986 117.333 65.5507 117.333 64.6667C117.333 63.7826 116.982 62.9348 116.357 62.3096C115.732 61.6845 114.884 61.3333 114 61.3333C113.483 61.3337 112.973 61.4544 112.511 61.6858C112.048 61.9172 111.646 62.253 111.336 62.6667C111.336 62.6667 111.333 62.6667 111.333 62.6667H108.667C107.909 62.6667 107.216 63.0935 106.878 63.7708L103.641 70.2474L98.5494 55.9922C98.2747 55.2255 97.5633 54.7026 96.7499 54.6693C95.9299 54.6239 95.1823 55.0972 94.8463 55.8385L90.0208 66.4557L86.4921 58.5208C86.1894 57.8382 85.5343 57.3839 84.789 57.3385C84.033 57.2985 83.3344 57.6647 82.9504 58.3047L79.5338 64H77.3333V47.3333C77.3333 45.469 78.8023 44 80.6666 44Z" fill="#0067C8"/>
</g>
<defs>
<linearGradient id="paint0_linear_717_223" x1="126.5" y1="104" x2="75.5" y2="4.00001" gradientUnits="userSpaceOnUse">
<stop stop-color="#007DF2"/>
<stop offset="1" stop-color="#53EA9F"/>
</linearGradient>
<linearGradient id="paint1_linear_717_223" x1="137" y1="94" x2="147" y2="109" gradientUnits="userSpaceOnUse">
<stop stop-color="#308F5F"/>
<stop offset="1" stop-color="#007DF2"/>
</linearGradient>
<linearGradient id="paint2_linear_717_223" x1="78" y1="19" x2="88" y2="34" gradientUnits="userSpaceOnUse">
<stop stop-color="#308F5F"/>
<stop offset="1" stop-color="#007DF2"/>
</linearGradient>
<linearGradient id="paint3_linear_717_223" x1="54" y1="70" x2="64" y2="85" gradientUnits="userSpaceOnUse">
<stop stop-color="#308F5F"/>
<stop offset="1" stop-color="#007DF2"/>
</linearGradient>
<linearGradient id="paint4_linear_717_223" x1="126.5" y1="104" x2="75.5" y2="4.00001" gradientUnits="userSpaceOnUse">
<stop stop-color="#007DF2"/>
<stop offset="1" stop-color="#53EA9F"/>
</linearGradient>
<linearGradient id="paint5_linear_717_223" x1="92.5" y1="71.1693" x2="124.184" y2="105.072" gradientUnits="userSpaceOnUse">
<stop stop-color="#308F5F"/>
<stop offset="1" stop-color="#007DF2"/>
</linearGradient>
<clipPath id="clip0_717_223">
<rect width="200" height="128" fill="white"/>
</clipPath>
</defs>
</svg>
