<svg width="201" height="128" viewBox="0 0 201 128" fill="none" xmlns="http://www.w3.org/2000/svg">
<path fill-rule="evenodd" clip-rule="evenodd" d="M97.9918 4.02646C122.025 3.26552 143.327 18.9916 151.276 41.6853C159.848 66.1563 155.764 94.4163 135.175 110.177C113.043 127.12 81.2455 129.407 59.5605 111.895C40.2505 96.3004 45.8398 68.1406 54.1699 44.7598C61.5697 23.99 75.9542 4.72419 97.9918 4.02646Z" fill="#F0F4FF"/>
<path fill-rule="evenodd" clip-rule="evenodd" d="M97.9918 4.02646C122.025 3.26552 143.327 18.9916 151.276 41.6853C159.848 66.1563 155.764 94.4163 135.175 110.177C113.043 127.12 81.2455 129.407 59.5605 111.895C40.2505 96.3004 45.8398 68.1406 54.1699 44.7598C61.5697 23.99 75.9542 4.72419 97.9918 4.02646Z" fill="url(#paint0_linear_2199_455170)" fill-opacity="0.2"/>
<mask id="mask0_2199_455170" style="mask-type:alpha" maskUnits="userSpaceOnUse" x="46" y="4" width="110" height="120">
<path fill-rule="evenodd" clip-rule="evenodd" d="M97.9918 4.02646C122.025 3.26552 143.327 18.9916 151.276 41.6853C159.848 66.1563 155.764 94.4163 135.175 110.177C113.043 127.12 81.2455 129.407 59.5605 111.895C40.2505 96.3004 45.8398 68.1406 54.1699 44.7598C61.5697 23.99 75.9542 4.72419 97.9918 4.02646Z" fill="#F0F4FF"/>
<path fill-rule="evenodd" clip-rule="evenodd" d="M97.9918 4.02646C122.025 3.26552 143.327 18.9916 151.276 41.6853C159.848 66.1563 155.764 94.4163 135.175 110.177C113.043 127.12 81.2455 129.407 59.5605 111.895C40.2505 96.3004 45.8398 68.1406 54.1699 44.7598C61.5697 23.99 75.9542 4.72419 97.9918 4.02646Z" fill="url(#paint1_linear_2199_455170)" fill-opacity="0.2"/>
</mask>
<g mask="url(#mask0_2199_455170)">
<path opacity="0.25" d="M82.261 57.4375C82.9716 49.1093 90.1864 42.5416 98.9536 42.5416C103.672 42.5416 107.942 44.4443 110.989 47.5C113.603 50.1216 164.418 100 164.418 100L124.628 120.519C125.908 123.574 126.443 125.5 125.758 125.5C122.443 125.5 73.0312 77 73.0312 77C73.0312 77 69.6366 72.0793 69.6366 68.9479C69.6366 62.6009 74.9597 57.4375 81.503 57.4375H82.261Z" fill="url(#paint2_linear_2199_455170)"/>
</g>
<path d="M52.5 82.449C52.5064 82.449 52.5128 82.449 52.5192 82.449C55.2691 82.449 57.5005 85.7794 57.5185 89.8979C57.5364 85.7889 59.7575 82.4644 62.4987 82.449C62.4987 82.449 62.4987 82.4491 62.4987 82.449C59.7575 82.4337 57.5364 79.1091 57.5185 75C57.5005 79.1186 55.2691 82.449 52.5192 82.449C52.5128 82.449 52.5064 82.449 52.5 82.449C52.5 82.449 52.5 82.4491 52.5 82.449Z" fill="url(#paint3_linear_2199_455170)"/>
<path d="M116.5 104.449C116.506 104.449 116.513 104.449 116.519 104.449C119.269 104.449 121.5 107.779 121.518 111.898C121.536 107.789 123.758 104.464 126.499 104.449C126.499 104.449 126.499 104.449 126.499 104.449C123.758 104.434 121.536 101.109 121.518 97C121.5 101.119 119.269 104.449 116.519 104.449C116.513 104.449 116.506 104.449 116.5 104.449C116.5 104.449 116.5 104.449 116.5 104.449Z" fill="url(#paint4_linear_2199_455170)"/>
<path d="M122.5 24.449C122.506 24.449 122.513 24.449 122.519 24.449C125.269 24.449 127.5 27.7794 127.518 31.8979C127.536 27.7889 129.758 24.4643 132.499 24.449C132.499 24.449 132.499 24.449 132.499 24.449C129.758 24.4337 127.536 21.1091 127.518 17C127.5 21.1186 125.269 24.449 122.519 24.449C122.513 24.449 122.506 24.449 122.5 24.449C122.5 24.449 122.5 24.4491 122.5 24.449Z" fill="url(#paint5_linear_2199_455170)"/>
<path d="M82.261 57.4375C82.9716 49.1093 90.1864 42.5416 98.9536 42.5416C107.721 42.5416 114.936 49.1093 115.646 57.4375H116.404C122.947 57.4375 128.271 62.6009 128.271 68.9479C128.271 75.2949 122.947 80.4583 116.404 80.4583H103.84H81.503C74.9597 80.4583 69.6366 75.2949 69.6366 68.9479C69.6366 62.6009 74.9597 57.4375 81.503 57.4375H82.261Z" fill="#F0F4FF"/>
<path d="M99 42.5417C90.4958 42.5417 83.4975 49.1094 82.8082 57.4375H82.0729C75.7259 57.4375 70.5625 62.6009 70.5625 68.9479C70.5625 75.2949 75.7259 80.4583 82.0729 80.4583H94.2604V76.3958H82.0729C77.9657 76.3958 74.625 73.0551 74.625 68.9479C74.625 64.8407 77.9657 61.5 82.0729 61.5H84.7812C85.9039 61.5 86.8125 60.5913 86.8125 59.4687V58.7917C86.8125 52.0723 92.2806 46.6042 99 46.6042C105.719 46.6042 111.187 52.0723 111.187 58.7917V59.4687C111.187 60.5913 112.096 61.5 113.219 61.5H115.927C120.034 61.5 123.375 64.8407 123.375 68.9479C123.375 73.0551 120.034 76.3958 115.927 76.3958H103.74V80.4583H115.927C122.274 80.4583 127.437 75.2949 127.437 68.9479C127.437 62.6009 122.274 57.4375 115.927 57.4375H115.192C114.503 49.1094 107.504 42.5417 99 42.5417ZM98.9683 61.4709C98.6592 61.476 98.3554 61.5515 98.0799 61.6918C97.8044 61.832 97.5646 62.0333 97.3787 62.2802L91.4701 68.1888C91.2752 68.376 91.1195 68.6002 91.0123 68.8483C90.9051 69.0963 90.8484 69.3633 90.8457 69.6335C90.8429 69.9038 90.8942 70.1719 90.9963 70.4221C91.0985 70.6723 91.2495 70.8996 91.4406 71.0907C91.6317 71.2817 91.859 71.4328 92.1092 71.5349C92.3594 71.6371 92.6275 71.6883 92.8977 71.6855C93.1679 71.6828 93.4349 71.6262 93.683 71.5189C93.931 71.4117 94.1552 71.2561 94.3424 71.0612L96.9687 68.4348V83.8437C96.9649 84.1129 97.0147 84.3802 97.115 84.6299C97.2154 84.8797 97.3644 85.107 97.5534 85.2987C97.7424 85.4904 97.9676 85.6426 98.216 85.7465C98.4643 85.8504 98.7308 85.9039 99 85.9039C99.2692 85.9039 99.5357 85.8504 99.784 85.7465C100.032 85.6426 100.258 85.4904 100.447 85.2987C100.636 85.107 100.785 84.8797 100.885 84.6299C100.985 84.3802 101.035 84.1129 101.031 83.8437V68.4348L103.658 71.0612C103.845 71.2561 104.069 71.4117 104.317 71.5189C104.565 71.6262 104.832 71.6828 105.102 71.6855C105.373 71.6883 105.641 71.6371 105.891 71.5349C106.141 71.4328 106.368 71.2817 106.559 71.0907C106.751 70.8996 106.902 70.6723 107.004 70.4221C107.106 70.1719 107.157 69.9038 107.154 69.6335C107.152 69.3633 107.095 69.0963 106.988 68.8483C106.88 68.6002 106.725 68.376 106.53 68.1888L100.611 62.2696C100.418 62.0175 100.17 61.814 99.8843 61.6753C99.5991 61.5366 99.2854 61.4666 98.9683 61.4709Z" fill="#0067C8"/>
<defs>
<linearGradient id="paint0_linear_2199_455170" x1="127.063" y1="104" x2="75.7176" y2="4.48068" gradientUnits="userSpaceOnUse">
<stop stop-color="#007DF2"/>
<stop offset="1" stop-color="#53EA9F"/>
</linearGradient>
<linearGradient id="paint1_linear_2199_455170" x1="127.063" y1="104" x2="75.7176" y2="4.48068" gradientUnits="userSpaceOnUse">
<stop stop-color="#007DF2"/>
<stop offset="1" stop-color="#53EA9F"/>
</linearGradient>
<linearGradient id="paint2_linear_2199_455170" x1="69.3462" y1="42.6187" x2="93.5565" y2="79.2039" gradientUnits="userSpaceOnUse">
<stop stop-color="#308F5F"/>
<stop offset="1" stop-color="#007DF2"/>
</linearGradient>
<linearGradient id="paint3_linear_2199_455170" x1="52.4997" y1="75" x2="62.4997" y2="90" gradientUnits="userSpaceOnUse">
<stop stop-color="#308F5F"/>
<stop offset="1" stop-color="#007DF2"/>
</linearGradient>
<linearGradient id="paint4_linear_2199_455170" x1="116.5" y1="97" x2="126.5" y2="112" gradientUnits="userSpaceOnUse">
<stop stop-color="#308F5F"/>
<stop offset="1" stop-color="#007DF2"/>
</linearGradient>
<linearGradient id="paint5_linear_2199_455170" x1="122.5" y1="17" x2="132.5" y2="32" gradientUnits="userSpaceOnUse">
<stop stop-color="#308F5F"/>
<stop offset="1" stop-color="#007DF2"/>
</linearGradient>
</defs>
</svg>
