<svg width="200" height="128" viewBox="0 0 200 128" fill="none" xmlns="http://www.w3.org/2000/svg">
<path fill-rule="evenodd" clip-rule="evenodd" d="M113.962 6.22176C140.497 8.29602 152.409 37.084 158.655 62.9573C163.276 82.1026 155.754 101.494 139.723 112.935C124.128 124.066 104.173 123.421 87.7375 113.574C63.7309 99.1901 34.3114 80.943 40.9526 53.7566C48.5716 22.5678 81.9537 3.7197 113.962 6.22176Z" fill="#F0F4FF"/>
<path fill-rule="evenodd" clip-rule="evenodd" d="M113.962 6.22176C140.497 8.29602 152.409 37.084 158.655 62.9573C163.276 82.1026 155.754 101.494 139.723 112.935C124.128 124.066 104.173 123.421 87.7375 113.574C63.7309 99.1901 34.3114 80.943 40.9526 53.7566C48.5716 22.5678 81.9537 3.7197 113.962 6.22176Z" fill="url(#paint0_linear_1264_272826)" fill-opacity="0.2"/>
<mask id="mask0_1264_272826" style="mask-type:alpha" maskUnits="userSpaceOnUse" x="40" y="6" width="120" height="116">
<path fill-rule="evenodd" clip-rule="evenodd" d="M113.962 6.22176C140.497 8.29602 152.409 37.084 158.655 62.9573C163.276 82.1026 155.754 101.494 139.723 112.935C124.128 124.066 104.173 123.421 87.7375 113.574C63.7309 99.1901 34.3114 80.943 40.9526 53.7566C48.5716 22.5678 81.9537 3.7197 113.962 6.22176Z" fill="#F0F4FF"/>
<path fill-rule="evenodd" clip-rule="evenodd" d="M113.962 6.22176C140.497 8.29602 152.409 37.084 158.655 62.9573C163.276 82.1026 155.754 101.494 139.723 112.935C124.128 124.066 104.173 123.421 87.7375 113.574C63.7309 99.1901 34.3114 80.943 40.9526 53.7566C48.5716 22.5678 81.9537 3.7197 113.962 6.22176Z" fill="url(#paint1_linear_1264_272826)" fill-opacity="0.2"/>
</mask>
<g mask="url(#mask0_1264_272826)">
<path opacity="0.25" d="M98.5002 39.4165C91.0454 39.4165 84.9585 45.5034 84.9585 52.9582C84.9585 56.6416 86.4445 59.9911 88.8473 62.4373C91.3075 64.942 143.468 120 143.468 120L163.948 101.5C163.948 101.5 110.556 45.9253 108.153 43.479C105.693 40.9743 102.272 39.4165 98.5002 39.4165ZM82.2211 71.9165C79.2692 71.9165 76.8335 74.3523 76.8335 77.3041V79.3644C76.8335 81.8741 77.6496 84.0917 79 85.9614C80.2757 87.7277 121.47 130.802 121.47 130.802C121.47 130.802 135.83 136.102 141.019 136.102C146.208 136.102 151.4 135.063 155.5 132.802C158.995 130.873 163.211 129.376 163.948 125.5L162.689 123.915L120.169 77.3041C120.169 76.0642 119.739 74.9153 119.021 73.9998C118.03 72.7357 116.491 71.9165 114.779 71.9165H82.2211Z" fill="url(#paint2_linear_1264_272826)"/>
</g>
<path d="M145.999 96.4489C145.992 96.4489 145.986 96.449 145.98 96.449C143.23 96.449 140.998 93.1186 140.98 89C140.962 93.1091 138.741 96.4336 136 96.4489C136 96.4489 136 96.4489 136 96.4489C138.741 96.4642 140.962 99.7889 140.98 103.898C140.998 99.7794 143.23 96.449 145.98 96.449C145.986 96.449 145.992 96.4489 145.999 96.4489C145.999 96.4489 145.999 96.4489 145.999 96.4489Z" fill="url(#paint3_linear_1264_272826)"/>
<path d="M86.9987 21.4489C86.9923 21.4489 86.9859 21.449 86.9795 21.449C84.2296 21.449 81.9982 18.1186 81.9803 14C81.9623 18.1091 79.7412 21.4336 77 21.4489C77 21.4489 77 21.4489 77 21.4489C79.7412 21.4642 81.9623 24.7889 81.9803 28.8979C81.9982 24.7794 84.2296 21.449 86.9795 21.449C86.9859 21.449 86.9923 21.4489 86.9987 21.4489C86.9987 21.4489 86.9987 21.4489 86.9987 21.4489Z" fill="url(#paint4_linear_1264_272826)"/>
<path d="M62.9987 72.4489C62.9923 72.4489 62.9859 72.449 62.9795 72.449C60.2296 72.449 57.9982 69.1186 57.9803 65C57.9623 69.1091 55.7412 72.4336 53 72.4489C53 72.4489 53 72.4489 53 72.4489C55.7412 72.4642 57.9623 75.7889 57.9803 79.8979C57.9982 75.7794 60.2296 72.449 62.9795 72.449C62.9859 72.449 62.9923 72.4489 62.9987 72.4489C62.9987 72.4489 62.9987 72.4489 62.9987 72.4489Z" fill="url(#paint5_linear_1264_272826)"/>
<path d="M98.5002 39.417C91.0454 39.417 84.9585 45.5039 84.9585 52.9587C84.9585 60.4135 91.0454 66.5003 98.5002 66.5003C105.955 66.5003 112.042 60.4135 112.042 52.9587C112.042 45.5039 105.955 39.417 98.5002 39.417ZM82.2211 71.917C79.2692 71.917 76.8335 74.3527 76.8335 77.3046V79.3649C76.8335 84.2456 79.92 88.021 84.0196 90.2829C88.1191 92.5447 93.3111 93.5837 98.5002 93.5837C103.689 93.5837 108.881 92.5447 112.981 90.2829C116.476 88.3543 119.107 85.2726 119.844 81.3962H120.169V77.3046C120.169 74.3527 117.731 71.917 114.779 71.917H82.2211Z" fill="#F0F4FF"/>
<path d="M98.4999 39.4165C91.0451 39.4165 84.9583 45.5034 84.9583 52.9582C84.9583 60.413 91.0451 66.4998 98.4999 66.4998C105.955 66.4998 112.042 60.413 112.042 52.9582C112.042 45.5034 105.955 39.4165 98.4999 39.4165ZM98.4999 43.479C103.759 43.479 107.979 47.6989 107.979 52.9582C107.979 58.2174 103.759 62.4373 98.4999 62.4373C93.2407 62.4373 89.0208 58.2174 89.0208 52.9582C89.0208 47.6989 93.2407 43.479 98.4999 43.479ZM82.2208 71.9165C79.269 71.9165 76.8333 74.3523 76.8333 77.3041V79.3644C76.8333 84.2451 79.9198 88.0206 84.0193 90.2824C88.1189 92.5442 93.3109 93.5832 98.4999 93.5832C103.689 93.5832 108.881 92.5442 112.981 90.2824C116.476 88.3538 119.107 85.2721 119.844 81.3957H120.169V77.3041C120.169 74.3523 117.731 71.9165 114.779 71.9165H82.2208ZM82.2208 75.979H114.779C115.535 75.979 116.107 76.5482 116.107 77.3041V77.3332H116.104V79.3644C116.104 82.6088 114.282 84.927 111.018 86.7277C107.754 88.5284 103.129 89.5207 98.4999 89.5207C93.8712 89.5207 89.2455 88.5284 85.9818 86.7277C82.7181 84.927 80.8958 82.6088 80.8958 79.3644V77.3041C80.8958 76.5482 81.4649 75.979 82.2208 75.979Z" fill="#0067C8"/>
<defs>
<linearGradient id="paint0_linear_1264_272826" x1="128.7" y1="101.934" x2="83.4917" y2="1.37089" gradientUnits="userSpaceOnUse">
<stop stop-color="#007DF2"/>
<stop offset="1" stop-color="#53EA9F"/>
</linearGradient>
<linearGradient id="paint1_linear_1264_272826" x1="128.7" y1="101.934" x2="83.4917" y2="1.37089" gradientUnits="userSpaceOnUse">
<stop stop-color="#007DF2"/>
<stop offset="1" stop-color="#53EA9F"/>
</linearGradient>
<linearGradient id="paint2_linear_1264_272826" x1="76.402" y1="39.613" x2="142.934" y2="98.1926" gradientUnits="userSpaceOnUse">
<stop stop-color="#308F5F"/>
<stop offset="1" stop-color="#007DF2"/>
</linearGradient>
<linearGradient id="paint3_linear_1264_272826" x1="136" y1="89" x2="146" y2="104" gradientUnits="userSpaceOnUse">
<stop stop-color="#308F5F"/>
<stop offset="1" stop-color="#007DF2"/>
</linearGradient>
<linearGradient id="paint4_linear_1264_272826" x1="77" y1="14" x2="87" y2="29" gradientUnits="userSpaceOnUse">
<stop stop-color="#308F5F"/>
<stop offset="1" stop-color="#007DF2"/>
</linearGradient>
<linearGradient id="paint5_linear_1264_272826" x1="53" y1="65" x2="63" y2="80" gradientUnits="userSpaceOnUse">
<stop stop-color="#308F5F"/>
<stop offset="1" stop-color="#007DF2"/>
</linearGradient>
</defs>
</svg>
