<svg width="201" height="128" viewBox="0 0 201 128" fill="none" xmlns="http://www.w3.org/2000/svg">
<path fill-rule="evenodd" clip-rule="evenodd" d="M112.962 4.22176C139.497 6.29602 151.409 35.084 157.655 60.9573C162.276 80.1026 154.754 99.4935 138.723 110.935C123.128 122.066 103.173 121.421 86.7375 111.574C62.7309 97.1901 33.3114 78.943 39.9526 51.7566C47.5716 20.5678 80.9537 1.7197 112.962 4.22176Z" fill="#F0F4FF"/>
<path fill-rule="evenodd" clip-rule="evenodd" d="M112.962 4.22176C139.497 6.29602 151.409 35.084 157.655 60.9573C162.276 80.1026 154.754 99.4935 138.723 110.935C123.128 122.066 103.173 121.421 86.7375 111.574C62.7309 97.1901 33.3114 78.943 39.9526 51.7566C47.5716 20.5678 80.9537 1.7197 112.962 4.22176Z" fill="url(#paint0_linear_2199_455206)" fill-opacity="0.2"/>
<mask id="mask0_2199_455206" style="mask-type:alpha" maskUnits="userSpaceOnUse" x="39" y="4" width="120" height="116">
<path fill-rule="evenodd" clip-rule="evenodd" d="M112.962 4.22176C139.497 6.29602 151.409 35.084 157.655 60.9573C162.276 80.1026 154.754 99.4935 138.723 110.935C123.128 122.066 103.173 121.421 86.7375 111.574C62.7309 97.1901 33.3114 78.943 39.9526 51.7566C47.5716 20.5678 80.9537 1.7197 112.962 4.22176Z" fill="#F0F4FF"/>
<path fill-rule="evenodd" clip-rule="evenodd" d="M112.962 4.22176C139.497 6.29602 151.409 35.084 157.655 60.9573C162.276 80.1026 154.754 99.4935 138.723 110.935C123.128 122.066 103.173 121.421 86.7375 111.574C62.7309 97.1901 33.3114 78.943 39.9526 51.7566C47.5716 20.5678 80.9537 1.7197 112.962 4.22176Z" fill="url(#paint1_linear_2199_455206)" fill-opacity="0.2"/>
</mask>
<g mask="url(#mask0_2199_455206)">
<path opacity="0.25" d="M108.5 56.2477C99.5494 56.2477 102.408 55.1996 102.408 64.1502C102.408 68.1545 85.1236 61.8334 87.8165 66.2608C90.5094 70.6882 93.6487 74.9014 95.5897 77.4035C97.2856 79.5887 100.712 79.5887 102.408 77.4035C104.349 74.9014 127.307 137.927 130 133.5C132.693 129.073 169.819 97.0284 169.819 93.024C169.819 88.3991 124.619 40.964 121.5 38C118.583 35.2278 112.826 56.2477 108.5 56.2477ZM98.9989 49.3125C97.9215 49.3125 96.8882 49.7405 96.1263 50.5024C95.3645 51.2643 94.9364 52.2976 94.9364 53.375C94.9364 54.4525 95.3645 55.4858 96.1263 56.2476C96.8882 57.0095 97.9215 57.4375 98.9989 57.4375C100.076 57.4375 101.11 57.0095 101.872 56.2476C102.633 55.4858 103.061 54.4525 103.061 53.375C103.061 52.2976 102.633 51.2643 101.872 50.5024C101.11 49.7405 100.076 49.3125 98.9989 49.3125ZM82.376 70.9792C80.5046 70.9792 78.8021 72.0843 78.0437 73.7933L75.0365 80.5641C74.3825 82.0361 72.7542 84.8579 73.6317 86.208C74.5106 87.5594 114.631 127 116.241 127L136.5 117.5C138.11 117.5 121.727 86.4224 122.604 85.071C123.483 83.7209 123.615 82.0375 122.961 80.5641L119.954 73.7933C119.194 72.0843 117.495 70.9792 115.622 70.9792H93C92.1374 72.2859 109.414 73.6388 108.404 75.0417H115.622C115.889 75.0417 116.132 75.1986 116.241 75.4437L119.248 82.2145C119.378 82.507 119.274 82.7448 119.198 82.8599C119.122 82.975 118.951 73.5 118.632 73.5H79.3662C79.0466 73.5 78.872 82.9723 78.7975 82.8572C78.723 82.7421 78.6186 82.507 78.7473 82.2145L81.7571 75.4437C81.8655 75.1999 82.1093 75.0417 82.376 75.0417H108.5C107.488 73.6388 93.8613 72.2859 93 70.9792H82.376Z" fill="url(#paint2_linear_2199_455206)"/>
</g>
<path d="M145.499 99.4489C145.492 99.4489 145.486 99.449 145.48 99.449C142.73 99.449 140.498 96.1186 140.48 92C140.462 96.1091 138.241 99.4336 135.5 99.4489C135.5 99.4489 135.5 99.4489 135.5 99.4489C138.241 99.4642 140.462 102.789 140.48 106.898C140.498 102.779 142.73 99.449 145.48 99.449C145.486 99.449 145.492 99.4489 145.499 99.4489C145.499 99.4489 145.499 99.4489 145.499 99.4489Z" fill="url(#paint3_linear_2199_455206)"/>
<path d="M86.4987 24.4489C86.4923 24.4489 86.4859 24.449 86.4795 24.449C83.7296 24.449 81.4982 21.1186 81.4803 17C81.4623 21.1091 79.2412 24.4336 76.5 24.4489C76.5 24.4489 76.5 24.4489 76.5 24.4489C79.2412 24.4642 81.4623 27.7889 81.4803 31.8979C81.4982 27.7794 83.7296 24.449 86.4795 24.449C86.4859 24.449 86.4923 24.4489 86.4987 24.4489C86.4987 24.4489 86.4987 24.4489 86.4987 24.4489Z" fill="url(#paint4_linear_2199_455206)"/>
<path d="M62.4987 75.4489C62.4923 75.4489 62.4859 75.449 62.4795 75.449C59.7296 75.449 57.4982 72.1186 57.4803 68C57.4623 72.1091 55.2412 75.4336 52.5 75.4489C52.5 75.4489 52.5 75.4489 52.5 75.4489C55.2412 75.4642 57.4623 78.7889 57.4803 82.8979C57.4982 78.7794 59.7296 75.449 62.4795 75.449C62.4859 75.449 62.4923 75.4489 62.4987 75.4489C62.4987 75.4489 62.4987 75.4489 62.4987 75.4489Z" fill="url(#paint5_linear_2199_455206)"/>
<path d="M115.706 35.7841C113.201 35.7841 110.695 36.7054 108.797 38.5479L77.8956 68.5194C77.3093 69.0882 76.8799 69.7954 76.6523 70.5719L72.5105 84.6398C72.4083 84.988 72.4039 85.3562 72.4977 85.7065C72.5915 86.0568 72.78 86.3765 73.0439 86.6324C73.3077 86.8883 73.6373 87.0713 73.9984 87.1622C74.3596 87.2532 74.7392 87.2489 75.0981 87.1498L89.6039 83.1323L89.6066 83.1296C90.4017 82.9079 91.129 82.4966 91.7171 81.9262L122.616 51.9521C126.414 48.2672 126.414 42.2328 122.616 38.5479C120.717 36.7054 118.212 35.7841 115.706 35.7841Z" fill="#F0F4FF"/>
<path d="M115.25 35.7841C112.82 35.7841 110.39 36.7054 108.548 38.5479L78.5738 68.5194C78.0051 69.0882 77.5885 69.7954 77.3677 70.5719L73.3502 84.6399C73.2511 84.988 73.2468 85.3562 73.3378 85.7065C73.4288 86.0568 73.6117 86.3765 73.8676 86.6324C74.1235 86.8883 74.4432 87.0713 74.7935 87.1622C75.1438 87.2532 75.512 87.2489 75.8602 87.1498L89.9308 83.1323C89.9317 83.1314 89.9326 83.1305 89.9334 83.1296C90.7047 82.9079 91.4102 82.4966 91.9806 81.9262L121.952 51.9521C125.637 48.2672 125.637 42.2328 121.952 38.5479C120.11 36.7054 117.68 35.7841 115.25 35.7841ZM115.25 39.8228C116.632 39.8228 118.013 40.3554 119.077 41.4202C119.078 41.4202 119.079 41.4202 119.08 41.4202C121.212 43.5529 121.212 46.9471 119.08 49.0798L116.453 51.7061L108.794 44.0466L111.42 41.4202C112.485 40.3554 113.868 39.8228 115.25 39.8228ZM105.922 46.9189L113.581 54.5784L89.1056 79.0539C89.0262 79.1328 88.9256 79.1932 88.812 79.2258L78.259 82.241L81.2742 71.6853C81.2742 71.6845 81.2742 71.6836 81.2742 71.6827C81.3052 71.5735 81.3621 71.4757 81.4461 71.3918L105.922 46.9189Z" fill="#0067C8"/>
<defs>
<linearGradient id="paint0_linear_2199_455206" x1="127.7" y1="99.9343" x2="82.4917" y2="-0.629106" gradientUnits="userSpaceOnUse">
<stop stop-color="#007DF2"/>
<stop offset="1" stop-color="#53EA9F"/>
</linearGradient>
<linearGradient id="paint1_linear_2199_455206" x1="127.7" y1="99.9343" x2="82.4917" y2="-0.629106" gradientUnits="userSpaceOnUse">
<stop stop-color="#007DF2"/>
<stop offset="1" stop-color="#53EA9F"/>
</linearGradient>
<linearGradient id="paint2_linear_2199_455206" x1="74.2095" y1="37.3213" x2="140.326" y2="93.4212" gradientUnits="userSpaceOnUse">
<stop stop-color="#308F5F"/>
<stop offset="1" stop-color="#007DF2"/>
</linearGradient>
<linearGradient id="paint3_linear_2199_455206" x1="135.5" y1="92" x2="145.5" y2="107" gradientUnits="userSpaceOnUse">
<stop stop-color="#308F5F"/>
<stop offset="1" stop-color="#007DF2"/>
</linearGradient>
<linearGradient id="paint4_linear_2199_455206" x1="76.5" y1="17" x2="86.5" y2="32" gradientUnits="userSpaceOnUse">
<stop stop-color="#308F5F"/>
<stop offset="1" stop-color="#007DF2"/>
</linearGradient>
<linearGradient id="paint5_linear_2199_455206" x1="52.5" y1="68" x2="62.5" y2="83" gradientUnits="userSpaceOnUse">
<stop stop-color="#308F5F"/>
<stop offset="1" stop-color="#007DF2"/>
</linearGradient>
</defs>
</svg>
