<svg width="200" height="128" viewBox="0 0 200 128" fill="none" xmlns="http://www.w3.org/2000/svg">
<g clip-path="url(#clip0_713_202)">
<path fill-rule="evenodd" clip-rule="evenodd" d="M85.9569 4.23106C113.868 1.90406 141.807 17.2993 150.836 43.8116C160.221 71.3709 149.404 102.782 124.843 118.413C103.674 131.886 77.7228 118.784 58.6422 102.487C44.2734 90.2154 42.5134 70.6266 47.5745 52.4208C53.6554 30.5465 63.3316 6.1174 85.9569 4.23106Z" fill="#F0F4FF"/>
<path fill-rule="evenodd" clip-rule="evenodd" d="M85.9569 4.23106C113.868 1.90406 141.807 17.2993 150.836 43.8116C160.221 71.3709 149.404 102.782 124.843 118.413C103.674 131.886 77.7228 118.784 58.6422 102.487C44.2734 90.2154 42.5134 70.6266 47.5745 52.4208C53.6554 30.5465 63.3316 6.1174 85.9569 4.23106Z" fill="url(#paint0_linear_713_202)" fill-opacity="0.2"/>
<path d="M108.999 107.449C108.992 107.449 108.986 107.449 108.98 107.449C106.23 107.449 103.998 104.119 103.98 100C103.962 104.109 101.741 107.434 99 107.449C99 107.449 99 107.449 99 107.449C101.741 107.464 103.962 110.789 103.98 114.898C103.998 110.779 106.23 107.449 108.98 107.449C108.986 107.449 108.992 107.449 108.999 107.449C108.999 107.449 108.999 107.449 108.999 107.449Z" fill="url(#paint1_linear_713_202)"/>
<path d="M142.999 20.4489C142.992 20.4489 142.986 20.449 142.98 20.449C140.23 20.449 137.998 17.1186 137.98 13C137.962 17.1091 135.741 20.4336 133 20.4489C133 20.4489 133 20.4489 133 20.4489C135.741 20.4642 137.962 23.7889 137.98 27.8979C137.998 23.7794 140.23 20.449 142.98 20.449C142.986 20.449 142.992 20.4489 142.999 20.4489C142.999 20.4489 142.999 20.4489 142.999 20.4489Z" fill="url(#paint2_linear_713_202)"/>
<path d="M66.9987 43.4489C66.9923 43.4489 66.9859 43.449 66.9795 43.449C64.2296 43.449 61.9982 40.1186 61.9803 36C61.9623 40.1091 59.7412 43.4336 57 43.4489C57 43.4489 57 43.4489 57 43.4489C59.7412 43.4642 61.9623 46.7889 61.9803 50.8979C61.9982 46.7794 64.2296 43.449 66.9795 43.449C66.9859 43.449 66.9923 43.4489 66.9987 43.4489C66.9987 43.4489 66.9987 43.4489 66.9987 43.4489Z" fill="url(#paint3_linear_713_202)"/>
<mask id="mask0_713_202" style="mask-type:alpha" maskUnits="userSpaceOnUse" x="45" y="4" width="110" height="120">
<path fill-rule="evenodd" clip-rule="evenodd" d="M85.9569 4.23106C113.868 1.90406 141.807 17.2993 150.836 43.8116C160.221 71.3709 149.404 102.782 124.843 118.413C103.674 131.886 77.7228 118.784 58.6422 102.487C44.2734 90.2154 42.5134 70.6266 47.5745 52.4208C53.6554 30.5465 63.3316 6.1174 85.9569 4.23106Z" fill="#F0F4FF"/>
<path fill-rule="evenodd" clip-rule="evenodd" d="M85.9569 4.23106C113.868 1.90406 141.807 17.2993 150.836 43.8116C160.221 71.3709 149.404 102.782 124.843 118.413C103.674 131.886 77.7228 118.784 58.6422 102.487C44.2734 90.2154 42.5134 70.6266 47.5745 52.4208C53.6554 30.5465 63.3316 6.1174 85.9569 4.23106Z" fill="url(#paint4_linear_713_202)" fill-opacity="0.2"/>
</mask>
<g mask="url(#mask0_713_202)">
<path opacity="0.25" d="M162.332 85.0999L115.295 38.0636L77.894 90.0524L118.124 130.282L162.332 85.0999Z" fill="url(#paint5_linear_713_202)"/>
</g>
<path d="M109.57 36.7891C110.166 36.6141 110.773 36.5361 111.375 36.5469C113.181 36.5793 114.926 37.4197 116.06 38.9088C122.602 47.5027 125.234 57.9523 125.328 65.0547C125.425 72.238 123.597 78.0275 120.362 82.1068C117.126 86.1861 112.473 88.4643 107.411 88.6641L107.372 88.6667H107.333C105.335 88.6667 101.411 88.613 97.453 85.5885L97.4502 85.5865C97.2106 85.4162 94.3295 83.3673 93.4923 80.796C93.2052 80.3291 89.5113 82.2615 88.1484 81.9297C85.8679 81.1295 83.6211 79.94 81.651 78.0573C78.5027 75.0487 76.0833 70.7146 76.0833 65.6016C76.0833 62.8466 76.3956 59.3838 78.5833 55.7292L78.6093 55.6849L78.6405 55.6406C86.2999 44.232 103.039 38.71 109.57 36.7891Z" fill="#F0F4FF"/>
<path d="M111.375 36.5469C110.773 36.5361 110.166 36.6141 109.57 36.7891C103.039 38.71 86.2999 44.232 78.6405 55.6406L78.6093 55.6849L78.5833 55.7292C76.3956 59.3838 76.0833 62.8466 76.0833 65.6016C76.0833 70.7146 78.5027 75.0487 81.651 78.0573C83.6211 79.94 85.8679 81.1295 88.1484 81.9297C85.3251 84.0106 82.179 85.6619 78.7265 86.7604C78.2209 86.9213 77.8 87.2765 77.5563 87.7478C77.3126 88.2191 77.2661 88.7679 77.427 89.2734C77.5879 89.779 77.9431 90.1999 78.4144 90.4436C78.8857 90.6873 79.4345 90.7338 79.94 90.5729C95.4708 85.6313 105.119 71.0227 108.305 55.9609C108.414 55.4419 108.314 54.9005 108.024 54.4558C107.735 54.0112 107.281 53.6997 106.762 53.5898C106.243 53.48 105.701 53.5809 105.257 53.8703C104.812 54.1596 104.5 54.6138 104.391 55.1328C102.513 64.0088 98.2168 72.5778 91.8072 78.7891C89.7269 78.6497 86.7829 77.4278 84.414 75.1641C81.9056 72.767 80.0833 69.4525 80.0833 65.6016C80.0833 63.1258 80.301 60.6811 81.9999 57.8229C88.4506 48.2768 104.493 42.4528 110.698 40.6276C111.511 40.3886 112.371 40.6656 112.878 41.3307C118.77 49.0702 121.249 58.9799 121.331 65.1068V65.1094C121.418 71.5874 119.774 76.4111 117.229 79.6198C114.69 82.8209 111.26 84.497 107.281 84.6615C105.288 84.6622 102.885 84.7075 99.8801 82.4115C99.6725 82.2413 99.4328 82.1147 99.1752 82.0392C98.9177 81.9637 98.6475 81.9408 98.3809 81.9718C98.1143 82.0029 97.8567 82.0873 97.6234 82.22C97.3901 82.3527 97.1859 82.531 97.0229 82.7443C96.86 82.9576 96.7416 83.2015 96.6749 83.4615C96.6082 83.7215 96.5945 83.9923 96.6347 84.2577C96.6748 84.5231 96.7679 84.7777 96.9085 85.0063C97.0491 85.235 97.2343 85.433 97.453 85.5885C101.411 88.613 105.335 88.6667 107.333 88.6667H107.372L107.411 88.6641C112.473 88.4643 117.126 86.1861 120.362 82.1068C123.597 78.0275 125.425 72.238 125.328 65.0547C125.234 57.9523 122.602 47.5027 116.06 38.9088C114.926 37.4197 113.181 36.5793 111.375 36.5469Z" fill="#0067C8"/>
</g>
<defs>
<linearGradient id="paint0_linear_713_202" x1="125.711" y1="104" x2="74.4203" y2="4.40397" gradientUnits="userSpaceOnUse">
<stop stop-color="#007DF2"/>
<stop offset="1" stop-color="#53EA9F"/>
</linearGradient>
<linearGradient id="paint1_linear_713_202" x1="99" y1="100" x2="109" y2="115" gradientUnits="userSpaceOnUse">
<stop stop-color="#308F5F"/>
<stop offset="1" stop-color="#007DF2"/>
</linearGradient>
<linearGradient id="paint2_linear_713_202" x1="133" y1="13" x2="143" y2="28" gradientUnits="userSpaceOnUse">
<stop stop-color="#308F5F"/>
<stop offset="1" stop-color="#007DF2"/>
</linearGradient>
<linearGradient id="paint3_linear_713_202" x1="57" y1="36" x2="67" y2="51" gradientUnits="userSpaceOnUse">
<stop stop-color="#308F5F"/>
<stop offset="1" stop-color="#007DF2"/>
</linearGradient>
<linearGradient id="paint4_linear_713_202" x1="125.711" y1="104" x2="74.4203" y2="4.40397" gradientUnits="userSpaceOnUse">
<stop stop-color="#007DF2"/>
<stop offset="1" stop-color="#53EA9F"/>
</linearGradient>
<linearGradient id="paint5_linear_713_202" x1="89.948" y1="68.6171" x2="133.112" y2="114.805" gradientUnits="userSpaceOnUse">
<stop stop-color="#308F5F"/>
<stop offset="1" stop-color="#007DF2"/>
</linearGradient>
<clipPath id="clip0_713_202">
<rect width="200" height="128" fill="white"/>
</clipPath>
</defs>
</svg>
