<svg width="200" height="128" viewBox="0 0 200 128" fill="none" xmlns="http://www.w3.org/2000/svg">
<path fill-rule="evenodd" clip-rule="evenodd" d="M97.4918 4.02646C121.525 3.26552 142.827 18.9916 150.776 41.6853C159.348 66.1563 155.264 94.4163 134.675 110.177C112.543 127.12 80.7455 129.407 59.0605 111.895C39.7505 96.3004 45.3398 68.1406 53.6699 44.7598C61.0697 23.99 75.4542 4.72419 97.4918 4.02646Z" fill="#F2F4F5"/>
<path d="M100 45.3333C91.6267 45.3333 84.736 51.7999 84.0573 59.9999H83.3333C77.084 59.9999 72 65.0839 72 71.3333C72 77.5826 77.084 82.6666 83.3333 82.6666H95.3333V78.6666H83.3333C79.2893 78.6666 76 75.3773 76 71.3333C76 67.2893 79.2893 63.9999 83.3333 63.9999H86C87.1053 63.9999 88 63.1053 88 61.9999V61.3333C88 54.7173 93.384 49.3333 100 49.3333C106.616 49.3333 112 54.7173 112 61.3333V61.9999C112 63.1053 112.895 63.9999 114 63.9999H116.667C120.711 63.9999 124 67.2893 124 71.3333C124 75.3773 120.711 78.6666 116.667 78.6666H104.667V82.6666H116.667C122.916 82.6666 128 77.5826 128 71.3333C128 65.0839 122.916 59.9999 116.667 59.9999H115.943C115.264 51.7999 108.373 45.3333 100 45.3333ZM99.9688 63.9713C99.6644 63.9763 99.3653 64.0507 99.0941 64.1887C98.8228 64.3268 98.5867 64.525 98.4036 64.7681L92.5859 70.5859C92.394 70.7701 92.2408 70.9909 92.1352 71.2351C92.0296 71.4794 91.9739 71.7423 91.9711 72.0083C91.9684 72.2744 92.0189 72.5384 92.1194 72.7847C92.22 73.0311 92.3687 73.2549 92.5569 73.443C92.745 73.6312 92.9689 73.7799 93.2152 73.8805C93.4616 73.9811 93.7255 74.0315 93.9916 74.0288C94.2577 74.0261 94.5205 73.9703 94.7648 73.8647C95.009 73.7592 95.2298 73.6059 95.4141 73.414L98 70.828V85.9999C97.9963 86.2649 98.0452 86.5281 98.144 86.774C98.2429 87.0199 98.3896 87.2438 98.5757 87.4325C98.7618 87.6213 98.9835 87.7711 99.228 87.8734C99.4725 87.9757 99.735 88.0284 100 88.0284C100.265 88.0284 100.527 87.9757 100.772 87.8734C101.016 87.7711 101.238 87.6213 101.424 87.4325C101.61 87.2438 101.757 87.0199 101.856 86.774C101.955 86.5281 102.004 86.2649 102 85.9999V70.828L104.586 73.414C104.77 73.6059 104.991 73.7592 105.235 73.8647C105.479 73.9703 105.742 74.0261 106.008 74.0288C106.274 74.0315 106.538 73.9811 106.785 73.8805C107.031 73.7799 107.255 73.6312 107.443 73.443C107.631 73.2549 107.78 73.0311 107.881 72.7847C107.981 72.5384 108.032 72.2744 108.029 72.0083C108.026 71.7423 107.97 71.4794 107.865 71.2351C107.759 70.9909 107.606 70.7701 107.414 70.5859L101.586 64.7577C101.396 64.5095 101.152 64.3091 100.871 64.1725C100.59 64.0359 100.281 63.967 99.9688 63.9713Z" fill="#708284"/>
</svg>
