<svg width="200" height="128" viewBox="0 0 200 128" fill="none" xmlns="http://www.w3.org/2000/svg">
<g clip-path="url(#clip0_713_358)">
<path fill-rule="evenodd" clip-rule="evenodd" d="M85.9569 4.23106C113.868 1.90406 141.807 17.2993 150.836 43.8116C160.221 71.3709 149.404 102.782 124.843 118.413C103.674 131.886 77.7228 118.784 58.6422 102.487C44.2734 90.2154 42.5134 70.6266 47.5745 52.4208C53.6554 30.5465 63.3316 6.1174 85.9569 4.23106Z" fill="#F0F4FF"/>
<path fill-rule="evenodd" clip-rule="evenodd" d="M85.9569 4.23106C113.868 1.90406 141.807 17.2993 150.836 43.8116C160.221 71.3709 149.404 102.782 124.843 118.413C103.674 131.886 77.7228 118.784 58.6422 102.487C44.2734 90.2154 42.5134 70.6266 47.5745 52.4208C53.6554 30.5465 63.3316 6.1174 85.9569 4.23106Z" fill="url(#paint0_linear_713_358)" fill-opacity="0.2"/>
<path d="M144.999 67.4489C144.992 67.4489 144.986 67.449 144.98 67.449C142.23 67.449 139.998 64.1186 139.98 60C139.962 64.1091 137.741 67.4336 135 67.4489C135 67.4489 135 67.4489 135 67.4489C137.741 67.4642 139.962 70.7889 139.98 74.8979C139.998 70.7794 142.23 67.449 144.98 67.449C144.986 67.449 144.992 67.4489 144.999 67.4489C144.999 67.4489 144.999 67.4489 144.999 67.4489Z" fill="url(#paint1_linear_713_358)"/>
<path d="M70.9987 24.4489C70.9923 24.4489 70.9859 24.449 70.9795 24.449C68.2296 24.449 65.9982 21.1186 65.9803 17C65.9623 21.1091 63.7412 24.4336 61 24.4489C61 24.4489 61 24.4489 61 24.4489C63.7412 24.4642 65.9623 27.7889 65.9803 31.8979C65.9982 27.7794 68.2296 24.449 70.9795 24.449C70.9859 24.449 70.9923 24.4489 70.9987 24.4489C70.9987 24.4489 70.9987 24.4489 70.9987 24.4489Z" fill="url(#paint2_linear_713_358)"/>
<path d="M64.9987 104.449C64.9923 104.449 64.9859 104.449 64.9795 104.449C62.2296 104.449 59.9982 101.119 59.9803 97C59.9623 101.109 57.7412 104.434 55 104.449C55 104.449 55 104.449 55 104.449C57.7412 104.464 59.9623 107.789 59.9803 111.898C59.9982 107.779 62.2296 104.449 64.9795 104.449C64.9859 104.449 64.9923 104.449 64.9987 104.449C64.9987 104.449 64.9987 104.449 64.9987 104.449Z" fill="url(#paint3_linear_713_358)"/>
<mask id="mask0_713_358" style="mask-type:alpha" maskUnits="userSpaceOnUse" x="45" y="4" width="110" height="120">
<path fill-rule="evenodd" clip-rule="evenodd" d="M85.9569 4.23106C113.868 1.90406 141.807 17.2993 150.836 43.8116C160.221 71.3709 149.404 102.782 124.843 118.413C103.674 131.886 77.7228 118.784 58.6422 102.487C44.2734 90.2154 42.5134 70.6266 47.5745 52.4208C53.6554 30.5465 63.3316 6.1174 85.9569 4.23106Z" fill="#F0F4FF"/>
<path fill-rule="evenodd" clip-rule="evenodd" d="M85.9569 4.23106C113.868 1.90406 141.807 17.2993 150.836 43.8116C160.221 71.3709 149.404 102.782 124.843 118.413C103.674 131.886 77.7228 118.784 58.6422 102.487C44.2734 90.2154 42.5134 70.6266 47.5745 52.4208C53.6554 30.5465 63.3316 6.1174 85.9569 4.23106Z" fill="url(#paint4_linear_713_358)" fill-opacity="0.2"/>
</mask>
<g mask="url(#mask0_713_358)">
<path opacity="0.25" d="M164.713 81.8855L126.061 43.2335L73.9718 87.4656L116.333 129.826L164.713 81.8855Z" fill="url(#paint5_linear_713_358)"/>
</g>
<path d="M82 38.6667C81.4696 38.6667 80.9609 38.8774 80.5859 39.2525C80.2108 39.6276 80.0001 40.1362 80 40.6667V42.6667H75.3334C74.803 42.6667 74.2943 42.8774 73.9192 43.2525C73.5442 43.6276 73.3334 44.1362 73.3334 44.6667V86C73.3334 86.5304 73.5442 87.0391 73.9192 87.4141C74.2943 87.7892 74.803 87.9999 75.3334 88H124.667C125.197 87.9999 125.706 87.7892 126.081 87.4141C126.456 87.0391 126.667 86.5304 126.667 86V44.6667C126.667 44.1362 126.456 43.6276 126.081 43.2525C125.706 42.8774 125.197 42.6667 124.667 42.6667H120V40.6667C120 40.1362 119.789 39.6276 119.414 39.2525C119.039 38.8774 118.53 38.6667 118 38.6667H108C104.65 38.6667 101.817 40.4439 100 42.9922C98.1828 40.4439 95.3498 38.6667 92 38.6667H82Z" fill="#F0F4FF"/>
<path d="M82 38.6667C81.4696 38.6667 80.9609 38.8774 80.5859 39.2525C80.2108 39.6276 80.0001 40.1362 80 40.6667V42.6667H75.3334C74.803 42.6667 74.2943 42.8774 73.9192 43.2525C73.5442 43.6276 73.3334 44.1362 73.3334 44.6667V86C73.3334 86.5304 73.5442 87.0391 73.9192 87.4141C74.2943 87.7892 74.803 87.9999 75.3334 88H124.667C125.197 87.9999 125.706 87.7892 126.081 87.4141C126.456 87.0391 126.667 86.5304 126.667 86V44.6667C126.667 44.1362 126.456 43.6276 126.081 43.2525C125.706 42.8774 125.197 42.6667 124.667 42.6667H120V40.6667C120 40.1362 119.789 39.6276 119.414 39.2525C119.039 38.8774 118.53 38.6667 118 38.6667H108C104.65 38.6667 101.817 40.4439 100 42.9922C98.1828 40.4439 95.3498 38.6667 92 38.6667H82ZM84 42.6667H92C95.338 42.6667 98 45.3287 98 48.6667V79.3724C96.3227 78.1068 94.2522 77.3333 92 77.3333H84V44.9948C84.0353 44.7801 84.0353 44.5611 84 44.3463V42.6667ZM108 42.6667H116V44.3385C115.965 44.5532 115.965 44.7723 116 44.987V77.3333H108C105.748 77.3333 103.677 78.1068 102 79.3724V48.6667C102 45.3287 104.662 42.6667 108 42.6667ZM77.3334 46.6667H80V79.3333C80.0001 79.8637 80.2108 80.3724 80.5859 80.7475C80.9609 81.1225 81.4696 81.3333 82 81.3333H92C94.0941 81.3333 95.9157 82.3954 96.987 84H77.3334V46.6667ZM120 46.6667H122.667V84H103.013C104.084 82.3954 105.906 81.3333 108 81.3333H118C118.53 81.3333 119.039 81.1225 119.414 80.7475C119.789 80.3724 120 79.8637 120 79.3333V46.6667Z" fill="#0067C8"/>
</g>
<defs>
<linearGradient id="paint0_linear_713_358" x1="125.711" y1="104" x2="74.4203" y2="4.40397" gradientUnits="userSpaceOnUse">
<stop stop-color="#007DF2"/>
<stop offset="1" stop-color="#53EA9F"/>
</linearGradient>
<linearGradient id="paint1_linear_713_358" x1="135" y1="60" x2="145" y2="75" gradientUnits="userSpaceOnUse">
<stop stop-color="#308F5F"/>
<stop offset="1" stop-color="#007DF2"/>
</linearGradient>
<linearGradient id="paint2_linear_713_358" x1="61" y1="17" x2="71" y2="32" gradientUnits="userSpaceOnUse">
<stop stop-color="#308F5F"/>
<stop offset="1" stop-color="#007DF2"/>
</linearGradient>
<linearGradient id="paint3_linear_713_358" x1="55" y1="97" x2="65" y2="112" gradientUnits="userSpaceOnUse">
<stop stop-color="#308F5F"/>
<stop offset="1" stop-color="#007DF2"/>
</linearGradient>
<linearGradient id="paint4_linear_713_358" x1="125.711" y1="104" x2="74.4203" y2="4.40397" gradientUnits="userSpaceOnUse">
<stop stop-color="#007DF2"/>
<stop offset="1" stop-color="#53EA9F"/>
</linearGradient>
<linearGradient id="paint5_linear_713_358" x1="92.9228" y1="71.592" x2="133.216" y2="114.707" gradientUnits="userSpaceOnUse">
<stop stop-color="#308F5F"/>
<stop offset="1" stop-color="#007DF2"/>
</linearGradient>
<clipPath id="clip0_713_358">
<rect width="200" height="128" fill="white"/>
</clipPath>
</defs>
</svg>
