<svg width="24" height="24" viewBox="0 0 24 24" fill="none" xmlns="http://www.w3.org/2000/svg">
<path d="M9.73828 2.48923C9.53954 2.49233 9.35016 2.57419 9.21173 2.71683C9.0733 2.85947 8.99715 3.05122 9 3.24997V3.99997C9 4.63219 9.19972 5.22054 9.53809 5.70602C8.14217 6.18716 7.11511 7.47092 7.0127 8.99997H6.75C5.49825 8.99997 4.5 8.00172 4.5 6.74997V5.24997C4.50144 5.14959 4.48271 5.04994 4.44493 4.95692C4.40715 4.86391 4.35108 4.77943 4.28005 4.70849C4.20901 4.63754 4.12446 4.58158 4.0314 4.54392C3.93834 4.50626 3.83866 4.48766 3.73828 4.48923C3.53954 4.49233 3.35016 4.57419 3.21173 4.71683C3.0733 4.85947 2.99715 5.05122 3 5.24997V6.74997C3 8.81222 4.68775 10.5 6.75 10.5H7V12.25H2.75C2.65062 12.2486 2.55194 12.2669 2.45972 12.304C2.36749 12.341 2.28355 12.3961 2.21277 12.4658C2.142 12.5356 2.08579 12.6188 2.04743 12.7105C2.00907 12.8022 1.98932 12.9006 1.98932 13C1.98932 13.0994 2.00907 13.1978 2.04743 13.2895C2.08579 13.3812 2.142 13.4643 2.21277 13.5341C2.28355 13.6039 2.36749 13.6589 2.45972 13.696C2.55194 13.733 2.65062 13.7514 2.75 13.75H7V15.3545C7 15.4034 7.00547 15.4513 7.00684 15.5H6.75C4.68775 15.5 3 17.1877 3 19.25V20.75C2.9986 20.8494 3.01696 20.948 3.05402 21.0403C3.09108 21.1325 3.1461 21.2164 3.21588 21.2872C3.28566 21.358 3.36882 21.4142 3.46051 21.4525C3.5522 21.4909 3.65061 21.5107 3.75 21.5107C3.84939 21.5107 3.9478 21.4909 4.03949 21.4525C4.13118 21.4142 4.21434 21.358 4.28412 21.2872C4.3539 21.2164 4.40892 21.1325 4.44598 21.0403C4.48305 20.948 4.50141 20.8494 4.5 20.75V19.25C4.5 17.9982 5.49825 17 6.75 17H7.27148C7.90004 18.8952 9.57611 20.3535 11.6689 20.4892C14.0359 20.6422 16.0935 19.1229 16.7666 17H17.25C18.5017 17 19.5 17.9982 19.5 19.25V20.75C19.4986 20.8494 19.517 20.948 19.554 21.0403C19.5911 21.1325 19.6461 21.2164 19.7159 21.2872C19.7857 21.358 19.8688 21.4142 19.9605 21.4525C20.0522 21.4909 20.1506 21.5107 20.25 21.5107C20.3494 21.5107 20.4478 21.4909 20.5395 21.4525C20.6312 21.4142 20.7143 21.358 20.7841 21.2872C20.8539 21.2164 20.9089 21.1325 20.946 21.0403C20.983 20.948 21.0014 20.8494 21 20.75V19.25C21 17.1877 19.3123 15.5 17.25 15.5H17V13.75H21.25C21.3494 13.7514 21.4481 13.733 21.5403 13.696C21.6325 13.6589 21.7164 13.6039 21.7872 13.5341C21.858 13.4643 21.9142 13.3812 21.9526 13.2895C21.9909 13.1978 22.0107 13.0994 22.0107 13C22.0107 12.9006 21.9909 12.8022 21.9526 12.7105C21.9142 12.6188 21.858 12.5356 21.7872 12.4658C21.7164 12.3961 21.6325 12.341 21.5403 12.304C21.4481 12.2669 21.3494 12.2486 21.25 12.25H17V10.5H17.25C19.3123 10.5 21 8.81222 21 6.74997V5.24997C21.0014 5.14959 20.9827 5.04994 20.9449 4.95692C20.9071 4.86391 20.8511 4.77943 20.78 4.70849C20.709 4.63754 20.6245 4.58158 20.5314 4.54392C20.4383 4.50626 20.3387 4.48766 20.2383 4.48923C20.0395 4.49233 19.8502 4.57419 19.7117 4.71683C19.5733 4.85947 19.4971 5.05122 19.5 5.24997V6.74997C19.5 8.00172 18.5017 8.99997 17.25 8.99997H16.9873C16.8849 7.47092 15.8578 6.18716 14.4619 5.70602C14.8003 5.22054 15 4.63219 15 3.99997V3.24997C15.0014 3.15059 14.983 3.05191 14.946 2.95969C14.9089 2.86746 14.8539 2.78352 14.7841 2.71274C14.7143 2.64197 14.6312 2.58576 14.5395 2.5474C14.4478 2.50904 14.3494 2.48929 14.25 2.48929C14.1506 2.48929 14.0522 2.50904 13.9605 2.5474C13.8688 2.58576 13.7857 2.64197 13.7159 2.71274C13.6461 2.78352 13.5911 2.86746 13.554 2.95969C13.517 3.05191 13.4986 3.15059 13.5 3.24997V3.99997C13.5 4.83704 12.8371 5.49997 12 5.49997C11.1629 5.49997 10.5 4.83704 10.5 3.99997V3.24997C10.5014 3.14959 10.4827 3.04994 10.4449 2.95692C10.4071 2.86391 10.3511 2.77943 10.28 2.70849C10.209 2.63754 10.1245 2.58158 10.0314 2.54392C9.93834 2.50626 9.83866 2.48766 9.73828 2.48923ZM10.75 6.99997H12H13.25C14.5017 6.99997 15.5 7.99822 15.5 9.24997V9.62692C15.4868 9.70744 15.4868 9.78957 15.5 9.87009V12.8769C15.4868 12.9574 15.4868 13.0396 15.5 13.1201V15.5C15.5 17.5195 13.821 19.125 11.7656 18.9922C9.91699 18.8723 8.5 17.2407 8.5 15.3545V13.123C8.51323 13.0425 8.51323 12.9604 8.5 12.8799V9.87302C8.51323 9.7925 8.51323 9.71037 8.5 9.62985V9.24997C8.5 7.99822 9.49825 6.99997 10.75 6.99997Z" fill="#3A4445"/>
</svg>
