<svg width="20" height="20" viewBox="0 0 20 20" fill="none" xmlns="http://www.w3.org/2000/svg">
<path d="M18.1332 1.891C17.8559 1.61112 17.5258 1.38905 17.1621 1.23765C16.7984 1.08625 16.4082 1.00854 16.0142 1.009H15.0142C15.0142 0.743784 14.9089 0.48943 14.7213 0.301893C14.5338 0.114357 14.2794 0.00900006 14.0142 0.00900006C13.749 0.00900006 13.4946 0.114357 13.3071 0.301893C13.1196 0.48943 13.0142 0.743784 13.0142 1.009L7.01421 1C7.01421 0.734784 6.90885 0.48043 6.72132 0.292893C6.53378 0.105357 6.27943 0 6.01421 0C5.74899 0 5.49464 0.105357 5.3071 0.292893C5.11957 0.48043 5.01421 0.734784 5.01421 1H4.01421C3.21856 1 2.4555 1.31607 1.89289 1.87868C1.33028 2.44129 1.01421 3.20435 1.01421 4V5.982V5.992L0.991211 15.986C0.99121 16.7808 1.30659 17.5431 1.86812 18.1056C2.42965 18.668 3.19143 18.9847 3.98621 18.986L15.9862 19.004C16.7819 19.004 17.5449 18.6879 18.1075 18.1253C18.6701 17.5627 18.9862 16.7996 18.9862 16.004L19.0042 4.004C19.0052 3.61181 18.9288 3.22328 18.7793 2.86068C18.6299 2.49809 18.4103 2.16856 18.1332 1.891ZM4.00921 2.991H5.00921C5.00921 3.25622 5.11457 3.51057 5.3021 3.69811C5.48964 3.88564 5.74399 3.991 6.00921 3.991C6.27443 3.991 6.52878 3.88564 6.71632 3.69811C6.90385 3.51057 7.00921 3.25622 7.00921 2.991L13.0092 3C13.0092 3.26522 13.1146 3.51957 13.3021 3.70711C13.4896 3.89464 13.744 4 14.0092 4C14.2744 4 14.5288 3.89464 14.7163 3.70711C14.9039 3.51957 15.0092 3.26522 15.0092 3H16.0092C16.2744 3 16.5288 3.10536 16.7163 3.29289C16.9039 3.48043 17.0092 3.73478 17.0092 4V4.987L3.00921 4.966V3.979C3.01237 3.71587 3.11912 3.46459 3.30631 3.27964C3.49351 3.09469 3.74606 2.99098 4.00921 2.991ZM15.9912 17.009L3.99121 16.991C3.72599 16.991 3.47164 16.8856 3.2841 16.6981C3.09657 16.5106 2.99121 16.2562 2.99121 15.991L3.00021 6.977L17.0002 7L16.9872 16.012C16.9864 16.276 16.8813 16.529 16.6947 16.7158C16.5081 16.9025 16.2552 17.0079 15.9912 17.009Z" />
</svg>
