<svg width="24" height="24" viewBox="0 0 24 24" fill="none" xmlns="http://www.w3.org/2000/svg">
<path d="M17.2353 1.49317C17.0406 1.49885 16.8556 1.5801 16.7197 1.71973L6.96972 11.4697C6.82912 11.6104 6.75014 11.8011 6.75014 12C6.75014 12.1989 6.82912 12.3896 6.96972 12.5303L16.7197 22.2803C16.7888 22.3523 16.8716 22.4097 16.9632 22.4493C17.0548 22.4889 17.1534 22.5098 17.2532 22.5108C17.3529 22.5118 17.4519 22.4929 17.5443 22.4552C17.6367 22.4175 17.7206 22.3617 17.7912 22.2912C17.8617 22.2206 17.9175 22.1367 17.9552 22.0443C17.9929 21.9519 18.0118 21.8529 18.0108 21.7532C18.0098 21.6534 17.9889 21.5548 17.9493 21.4632C17.9097 21.3716 17.8522 21.2888 17.7803 21.2197L8.56054 12L17.7803 2.78028C17.8885 2.6749 17.9623 2.53931 17.9922 2.39126C18.0221 2.24321 18.0065 2.08959 17.9477 1.9505C17.8888 1.81142 17.7893 1.69335 17.6622 1.61175C17.5351 1.53015 17.3863 1.48882 17.2353 1.49317Z" />
</svg>
