<svg width="24" height="24" viewBox="0 0 24 24" fill="none" xmlns="http://www.w3.org/2000/svg">
<path d="M21.7431 5.98922C21.5451 5.9939 21.3569 6.07675 21.2197 6.21969L12 15.4394L2.78026 6.21969C2.71035 6.1477 2.6267 6.09047 2.53428 6.05138C2.44185 6.0123 2.34252 5.99216 2.24217 5.99215C2.09291 5.99219 1.94705 6.03676 1.82327 6.12015C1.69948 6.20355 1.60338 6.32198 1.54728 6.4603C1.49118 6.59861 1.47762 6.75052 1.50833 6.89659C1.53905 7.04266 1.61265 7.17624 1.71971 7.28024L11.4697 17.0302C11.6104 17.1708 11.8011 17.2498 12 17.2498C12.1989 17.2498 12.3896 17.1708 12.5303 17.0302L22.2803 7.28024C22.3893 7.17556 22.4642 7.04037 22.4951 6.89239C22.526 6.74441 22.5115 6.59054 22.4534 6.45097C22.3953 6.3114 22.2964 6.19263 22.1697 6.11023C22.043 6.02783 21.8943 5.98565 21.7431 5.98922Z"/>
</svg>
