<svg width="24" height="24" viewBox="0 0 24 24" fill="none" xmlns="http://www.w3.org/2000/svg">
<path d="M11.9893 5.75001C11.7941 5.75287 11.6077 5.83169 11.4697 5.96974L1.71972 15.7197C1.64774 15.7888 1.59028 15.8716 1.55069 15.9632C1.5111 16.0548 1.49019 16.1534 1.48917 16.2532C1.48816 16.353 1.50706 16.4519 1.54478 16.5443C1.5825 16.6367 1.63827 16.7206 1.70883 16.7912C1.77939 16.8617 1.86331 16.9175 1.9557 16.9552C2.04808 16.9929 2.14706 17.0118 2.24684 17.0108C2.34662 17.0098 2.44519 16.9889 2.53679 16.9493C2.62838 16.9097 2.71116 16.8523 2.78027 16.7803L12 7.56056L21.2197 16.7803C21.2888 16.8523 21.3716 16.9097 21.4632 16.9493C21.5548 16.9889 21.6534 17.0098 21.7532 17.0108C21.8529 17.0118 21.9519 16.9929 22.0443 16.9552C22.1367 16.9175 22.2206 16.8617 22.2912 16.7912C22.3617 16.7206 22.4175 16.6367 22.4552 16.5443C22.4929 16.4519 22.5118 16.353 22.5108 16.2532C22.5098 16.1534 22.4889 16.0548 22.4493 15.9632C22.4097 15.8716 22.3522 15.7888 22.2803 15.7197L12.5303 5.96974C12.4594 5.8988 12.3749 5.84281 12.282 5.80507C12.1891 5.76733 12.0895 5.74861 11.9893 5.75001Z" />
</svg>
