<svg width="24" height="24" viewBox="0 0 24 24" fill="none" xmlns="http://www.w3.org/2000/svg">
<path d="M19.7432 3.48928C19.5451 3.49396 19.3569 3.57681 19.2197 3.71975L12 10.9395L4.78027 3.71975C4.71036 3.64776 4.62672 3.59053 4.53429 3.55144C4.44186 3.51236 4.34253 3.49222 4.24218 3.49221C4.09292 3.49225 3.94707 3.53682 3.82328 3.62021C3.69949 3.70361 3.60339 3.82204 3.54729 3.96036C3.49119 4.09868 3.47763 4.25058 3.50835 4.39665C3.53906 4.54272 3.61266 4.6763 3.71972 4.7803L10.9394 12L3.71972 19.2198C3.64774 19.2889 3.59028 19.3716 3.55069 19.4632C3.5111 19.5548 3.49019 19.6534 3.48917 19.7532C3.48816 19.853 3.50706 19.9519 3.54478 20.0443C3.5825 20.1367 3.63827 20.2206 3.70883 20.2912C3.77939 20.3618 3.86331 20.4175 3.9557 20.4552C4.04808 20.493 4.14706 20.5119 4.24684 20.5108C4.34662 20.5098 4.44519 20.4889 4.53679 20.4493C4.62838 20.4097 4.71116 20.3523 4.78027 20.2803L12 13.0606L19.2197 20.2803C19.2888 20.3523 19.3716 20.4097 19.4632 20.4493C19.5548 20.4889 19.6534 20.5098 19.7532 20.5108C19.8529 20.5119 19.9519 20.493 20.0443 20.4552C20.1367 20.4175 20.2206 20.3618 20.2912 20.2912C20.3617 20.2206 20.4175 20.1367 20.4552 20.0443C20.4929 19.9519 20.5118 19.853 20.5108 19.7532C20.5098 19.6534 20.4889 19.5548 20.4493 19.4632C20.4097 19.3716 20.3522 19.2889 20.2803 19.2198L13.0605 12L20.2803 4.7803C20.3893 4.67562 20.4642 4.54043 20.4951 4.39245C20.526 4.24447 20.5115 4.09061 20.4534 3.95103C20.3953 3.81146 20.2964 3.69269 20.1697 3.61029C20.043 3.52789 19.8943 3.48571 19.7432 3.48928Z" />
</svg>
