<svg width="24" height="24" viewBox="0 0 24 24" fill="none" xmlns="http://www.w3.org/2000/svg">
<path d="M12 2C6.48603 2 2 6.48604 2 12C2 17.514 6.48603 22 12 22C17.514 22 22 17.514 22 12C22 6.48604 17.514 2 12 2ZM12 3.5C16.7033 3.5 20.5 7.2967 20.5 12C20.5 16.7033 16.7033 20.5 12 20.5C7.29669 20.5 3.5 16.7033 3.5 12C3.5 7.2967 7.29669 3.5 12 3.5ZM7.75 9.5C6.79252 9.5 6 10.2925 6 11.25V12.75C6 13.7075 6.79252 14.5 7.75 14.5H16.25C17.2075 14.5 18 13.7075 18 12.75V11.25C18 10.2925 17.2075 9.5 16.25 9.5H7.75ZM7.75 11H16.25C16.3975 11 16.5 11.1025 16.5 11.25V12.75C16.5 12.8975 16.3975 13 16.25 13H7.75C7.60248 13 7.5 12.8975 7.5 12.75V11.25C7.5 11.1025 7.60248 11 7.75 11Z"/>
</svg>
