<svg width="24" height="24" viewBox="0 0 24 24" fill="none" xmlns="http://www.w3.org/2000/svg">
<path d="M11.9893 3.00001C11.7941 3.00287 11.6077 3.08169 11.4697 3.21974L8.46973 6.21974C8.39775 6.28885 8.34028 6.37163 8.3007 6.46322C8.26111 6.55482 8.24019 6.65339 8.23918 6.75317C8.23817 6.85295 8.25707 6.95193 8.29479 7.04431C8.33251 7.13669 8.38828 7.22062 8.45883 7.29118C8.52939 7.36174 8.61332 7.41751 8.7057 7.45522C8.79808 7.49294 8.89706 7.51185 8.99684 7.51083C9.09662 7.50982 9.1952 7.4889 9.28679 7.44932C9.37839 7.40973 9.46116 7.35226 9.53027 7.28029L11.25 5.56056V16.25C11.2486 16.3494 11.267 16.4481 11.304 16.5403C11.3411 16.6325 11.3961 16.7165 11.4659 16.7872C11.5357 16.858 11.6188 16.9142 11.7105 16.9526C11.8022 16.9909 11.9006 17.0107 12 17.0107C12.0994 17.0107 12.1978 16.9909 12.2895 16.9526C12.3812 16.9142 12.4643 16.858 12.5341 16.7872C12.6039 16.7165 12.6589 16.6325 12.696 16.5403C12.733 16.4481 12.7514 16.3494 12.75 16.25V5.56056L14.4697 7.28029C14.5388 7.35226 14.6216 7.40973 14.7132 7.44932C14.8048 7.4889 14.9034 7.50982 15.0032 7.51083C15.1029 7.51185 15.2019 7.49294 15.2943 7.45522C15.3867 7.41751 15.4706 7.36174 15.5412 7.29118C15.6117 7.22062 15.6675 7.13669 15.7052 7.04431C15.7429 6.95193 15.7618 6.85295 15.7608 6.75317C15.7598 6.65339 15.7389 6.55482 15.6993 6.46322C15.6597 6.37163 15.6023 6.28885 15.5303 6.21974L12.5303 3.21974C12.4594 3.1488 12.375 3.09281 12.282 3.05507C12.1891 3.01733 12.0895 2.99861 11.9893 3.00001ZM5.75 8.50001C4.24011 8.50001 3 9.74013 3 11.25V18.25C3 19.7599 4.24011 21 5.75 21H18.25C19.7599 21 21 19.7599 21 18.25V11.25C21 9.74013 19.7599 8.50001 18.25 8.50001H17.25C17.1506 8.49861 17.0519 8.51697 16.9597 8.55403C16.8675 8.59109 16.7836 8.64611 16.7128 8.71589C16.642 8.78568 16.5858 8.86883 16.5474 8.96052C16.5091 9.05222 16.4893 9.15062 16.4893 9.25001C16.4893 9.34941 16.5091 9.44781 16.5474 9.5395C16.5858 9.6312 16.642 9.71435 16.7128 9.78413C16.7836 9.85392 16.8675 9.90894 16.9597 9.946C17.0519 9.98306 17.1506 10.0014 17.25 10H18.25C18.9491 10 19.5 10.5509 19.5 11.25V18.25C19.5 18.9491 18.9491 19.5 18.25 19.5H5.75C5.05089 19.5 4.5 18.9491 4.5 18.25V11.25C4.5 10.5509 5.05089 10 5.75 10H6.75C6.84938 10.0014 6.94806 9.98306 7.04028 9.946C7.13251 9.90894 7.21645 9.85392 7.28723 9.78413C7.358 9.71435 7.41421 9.6312 7.45257 9.5395C7.49093 9.44781 7.51068 9.34941 7.51068 9.25001C7.51068 9.15062 7.49093 9.05222 7.45257 8.96052C7.41421 8.86883 7.358 8.78568 7.28723 8.71589C7.21645 8.64611 7.13251 8.59109 7.04028 8.55403C6.94806 8.51697 6.84938 8.49861 6.75 8.50001H5.75Z" fill="#3A4445"/>
</svg>
