<svg width="24" height="24" viewBox="0 0 24 24" fill="none" xmlns="http://www.w3.org/2000/svg">
<path d="M4.25 3C3.5682 3 3 3.5682 3 4.25V5.79492C3 6.94325 3.52774 8.02942 4.42969 8.74023L9.5 12.7354V20.25C9.50007 20.3877 9.53806 20.5228 9.60981 20.6404C9.68155 20.7579 9.78429 20.8535 9.90674 20.9165C10.0292 20.9796 10.1667 21.0077 10.304 20.9978C10.4414 20.9879 10.5734 20.9403 10.6855 20.8604L14.1855 18.3604C14.2828 18.291 14.362 18.1994 14.4167 18.0933C14.4714 17.9871 14.5 17.8694 14.5 17.75V12.7344L19.5703 8.74023C20.4723 8.02942 21 6.94325 21 5.79492V4.25C21 3.5682 20.4318 3 19.75 3H4.25ZM4.5 4.5H19.5V5.79492C19.5 6.4846 19.1846 7.13434 18.6426 7.56152L13.6436 11.5H10.3564L5.35742 7.56152C4.81537 7.13434 4.5 6.4846 4.5 5.79492V4.5ZM11 13H13V17.3643L11 18.793V13Z" fill="#3A4445"/>
</svg>
