<svg width="24" height="24" viewBox="0 0 24 24" fill="none" xmlns="http://www.w3.org/2000/svg">
<path d="M4.25 4C3.01625 4 2 5.01625 2 6.25V17.75C2 18.9838 3.01625 20 4.25 20H19.75C20.9838 20 22 18.9838 22 17.75V8.75C22 7.51625 20.9838 6.5 19.75 6.5H12.0215L9.78613 4.6377C9.29203 4.22606 8.66958 4 8.02637 4H4.25ZM4.25 5.5H8.02637C8.31915 5.5 8.60128 5.60268 8.82617 5.79004L10.5781 7.25L8.82617 8.70996C8.60128 8.89732 8.31915 9 8.02637 9H3.5V6.25C3.5 5.82675 3.82675 5.5 4.25 5.5ZM12.0215 8H19.75C20.1733 8 20.5 8.32675 20.5 8.75V17.75C20.5 18.1732 20.1733 18.5 19.75 18.5H4.25C3.82675 18.5 3.5 18.1732 3.5 17.75V10.5H8.02637C8.66958 10.5 9.29203 10.2739 9.78613 9.8623L12.0215 8Z"/>
</svg>
