<svg width="24" height="24" viewBox="0 0 24 24" fill="none" xmlns="http://www.w3.org/2000/svg">
<path d="M11.9053 3.55273C7.97102 3.55273 4.03736 5.05151 1.04005 8.04883C0.968071 8.11794 0.910605 8.20071 0.871017 8.29231C0.83143 8.38391 0.810517 8.48248 0.809502 8.58226C0.808488 8.68204 0.827393 8.78102 0.865109 8.8734C0.902826 8.96578 0.958597 9.04971 1.02916 9.12027C1.09971 9.19083 1.18364 9.2466 1.27602 9.28431C1.36841 9.32203 1.46738 9.34094 1.56716 9.33992C1.66694 9.33891 1.76552 9.31799 1.85711 9.27841C1.94871 9.23882 2.03149 9.18135 2.1006 9.10938C7.52197 3.688 16.2896 3.688 21.7109 9.10938C21.7801 9.18135 21.8628 9.23882 21.9544 9.27841C22.046 9.31799 22.1446 9.33891 22.2444 9.33992C22.3442 9.34093 22.4431 9.32203 22.5355 9.28431C22.6279 9.2466 22.7118 9.19083 22.7824 9.12027C22.8529 9.04971 22.9087 8.96578 22.9464 8.8734C22.9841 8.78102 23.0031 8.68204 23.002 8.58226C23.001 8.48248 22.9801 8.38391 22.9405 8.29231C22.9009 8.20071 22.8435 8.11794 22.7715 8.04883C19.7742 5.05151 15.8395 3.55273 11.9053 3.55273ZM11.9053 8.0127C9.11228 8.0127 6.31994 9.07558 4.19337 11.2021C4.12139 11.2713 4.06392 11.354 4.02434 11.4456C3.98475 11.5372 3.96383 11.6358 3.96282 11.7356C3.9618 11.8354 3.98071 11.9343 4.01843 12.0267C4.05614 12.1191 4.11191 12.203 4.18247 12.2736C4.25303 12.3442 4.33696 12.3999 4.42934 12.4376C4.52172 12.4754 4.6207 12.4943 4.72048 12.4932C4.82026 12.4922 4.91884 12.4713 5.01043 12.4317C5.10203 12.3921 5.18481 12.3347 5.25392 12.2627C8.93378 8.58283 14.8778 8.58283 18.5576 12.2627C18.6267 12.3347 18.7095 12.3921 18.8011 12.4317C18.8927 12.4713 18.9913 12.4922 19.0911 12.4932C19.1908 12.4943 19.2898 12.4754 19.3822 12.4376C19.4746 12.3999 19.5585 12.3441 19.6291 12.2736C19.6996 12.203 19.7554 12.1191 19.7931 12.0267C19.8308 11.9343 19.8497 11.8354 19.8487 11.7356C19.8477 11.6358 19.8268 11.5372 19.7872 11.4456C19.7476 11.354 19.6902 11.2713 19.6182 11.2021C17.4916 9.07558 14.6983 8.0127 11.9053 8.0127ZM11.9053 12.4717C10.2535 12.4717 8.60154 13.0996 7.34571 14.3555C7.20508 14.4962 7.12612 14.6871 7.12621 14.8861C7.1263 15.0851 7.20543 15.2759 7.3462 15.4165C7.48697 15.5571 7.67784 15.6361 7.87682 15.636C8.0758 15.6359 8.2666 15.5568 8.40724 15.416C10.3456 13.4777 13.466 13.4777 15.4043 15.416C15.4734 15.488 15.5562 15.5455 15.6478 15.585C15.7394 15.6246 15.838 15.6456 15.9377 15.6466C16.0375 15.6476 16.1365 15.6287 16.2289 15.591C16.3213 15.5532 16.4052 15.4975 16.4758 15.4269C16.5463 15.3564 16.6021 15.2724 16.6398 15.18C16.6775 15.0877 16.6964 14.9887 16.6954 14.8889C16.6944 14.7891 16.6735 14.6905 16.6339 14.599C16.5943 14.5074 16.5368 14.4246 16.4649 14.3555C15.209 13.0996 13.557 12.4717 11.9053 12.4717ZM12 17C11.4696 17 10.9609 17.2107 10.5858 17.5858C10.2107 17.9609 10 18.4696 10 19C10 19.5304 10.2107 20.0391 10.5858 20.4142C10.9609 20.7893 11.4696 21 12 21C12.5304 21 13.0392 20.7893 13.4142 20.4142C13.7893 20.0391 14 19.5304 14 19C14 18.4696 13.7893 17.9609 13.4142 17.5858C13.0392 17.2107 12.5304 17 12 17Z" fill="#3A4445"/>
</svg>
