<svg width="24" height="24" viewBox="0 0 24 24" fill="none" xmlns="http://www.w3.org/2000/svg">
<path d="M21.7353 4.49317C21.5406 4.49885 21.3556 4.5801 21.2197 4.71973L8.24999 17.6895L2.78027 12.2197C2.71116 12.1478 2.62838 12.0903 2.53679 12.0507C2.44519 12.0111 2.34662 11.9902 2.24684 11.9892C2.14706 11.9882 2.04808 12.0071 1.9557 12.0448C1.86331 12.0825 1.77939 12.1383 1.70883 12.2088C1.63827 12.2794 1.5825 12.3633 1.54478 12.4557C1.50706 12.5481 1.48816 12.6471 1.48917 12.7468C1.49019 12.8466 1.5111 12.9452 1.55069 13.0368C1.59028 13.1284 1.64774 13.2112 1.71972 13.2803L7.71972 19.2803C7.86038 19.4209 8.05112 19.4999 8.24999 19.4999C8.44887 19.4999 8.63961 19.4209 8.78027 19.2803L22.2803 5.78028C22.3885 5.6749 22.4623 5.53931 22.4922 5.39126C22.5221 5.24321 22.5065 5.08959 22.4477 4.9505C22.3888 4.81142 22.2893 4.69335 22.1622 4.61175C22.0351 4.53015 21.8863 4.48882 21.7353 4.49317Z" fill="#3A4445"/>
</svg>
