<svg width="24" height="24" viewBox="0 0 24 24" fill="none" xmlns="http://www.w3.org/2000/svg">
<path d="M8.25 2.75C6.41343 2.75 4.81681 3.91642 3.72852 5.62305C2.64022 7.32968 2 9.61401 2 12.125C2 14.636 2.64022 16.9203 3.72852 18.627C4.81681 20.3336 6.41343 21.5 8.25 21.5C8.76954 21.5 9.27718 21.4065 9.75684 21.2314C9.79211 21.2187 9.82639 21.2034 9.85938 21.1855C11.2825 21.9025 13.0303 21.7964 14.6973 21.123C16.582 20.3617 18.4318 18.8767 19.8604 16.8477C21.285 14.8238 22.0849 12.6033 22.1924 10.5889C22.2999 8.5744 21.6867 6.6961 20.1816 5.63672C19.1227 4.89132 17.8379 4.68552 16.5068 4.89453C15.4304 5.06356 14.3245 5.50762 13.2832 6.15332C12.8027 5.2265 12.2859 4.40577 11.5342 3.79102C10.7112 3.11802 9.6242 2.75 8.25 2.75ZM8.25 4.25C9.3758 4.25 10.0347 4.50215 10.585 4.95215C11.1265 5.395 11.5773 6.0954 12.0557 7.04297C11.1818 7.7615 10.3584 8.63145 9.63965 9.65234C9.43067 9.94922 9.33421 10.2672 9.15234 10.5713C8.89103 9.39659 9.37402 8.66602 9.37402 8.66602C9.4305 8.58411 9.47012 8.49179 9.49058 8.39442C9.51103 8.29705 9.51191 8.19659 9.49316 8.09888C9.47442 8.00117 9.43642 7.90817 9.38138 7.82529C9.32635 7.74241 9.25537 7.6713 9.17259 7.61612C9.08981 7.56093 8.99687 7.52276 8.8992 7.50384C8.80153 7.48491 8.70106 7.48561 8.60366 7.50588C8.50626 7.52616 8.41386 7.56561 8.33185 7.62194C8.24984 7.67827 8.17986 7.75035 8.12598 7.83398C8.12598 7.83398 6.92258 9.77191 8.0791 12.085C8.11818 12.1657 8.17143 12.2388 8.23633 12.3008C7.72586 13.5235 7.36969 14.7481 7.30762 15.9111C7.22541 17.4513 7.56646 18.9105 8.40332 19.9863C8.35192 19.9891 8.3019 20 8.25 20C7.04907 20 5.89549 19.2353 4.99316 17.8203C4.09084 16.4053 3.5 14.3775 3.5 12.125C3.5 9.87249 4.09084 7.84468 4.99316 6.42969C5.89549 5.01469 7.04907 4.25 8.25 4.25ZM17.6094 6.33887C17.7879 6.3448 17.9616 6.36202 18.1289 6.39062C18.575 6.4669 18.9781 6.62373 19.3184 6.86328C20.2973 7.5524 20.7836 8.83701 20.6943 10.5088C20.6051 12.1806 19.9111 14.1698 18.6338 15.9844C17.3598 17.7938 15.7031 19.0993 14.1357 19.7324C12.5684 20.3656 11.1607 20.3259 10.1816 19.6367C9.20265 18.9476 8.71643 17.663 8.80566 15.9912C8.89489 14.3194 9.58888 12.3302 10.8662 10.5156C11.631 9.42936 12.5205 8.52925 13.4443 7.84961C14.8589 6.80936 16.3597 6.29732 17.6094 6.33887ZM17.7383 7.48926C17.6272 7.49068 17.5178 7.51677 17.418 7.56564C17.3182 7.61451 17.2305 7.68495 17.1612 7.77186C17.092 7.85877 17.0429 7.95998 17.0176 8.06817C16.9922 8.17636 16.9912 8.28884 17.0146 8.39746C17.0146 8.39746 17.2269 9.54111 17.0146 10.6025C16.9085 11.1333 16.7033 11.6111 16.376 11.9385C16.0486 12.2658 15.5938 12.5 14.75 12.5C13.4801 12.5 12.5037 12.8707 11.8545 13.4873C11.2053 14.104 10.9187 14.906 10.8105 15.6406C10.5942 17.1098 11.0332 18.4688 11.0332 18.4688C11.0587 18.5666 11.1037 18.6583 11.1655 18.7383C11.2273 18.8183 11.3047 18.885 11.393 18.9343C11.4812 18.9837 11.5785 19.0147 11.6791 19.0255C11.7796 19.0363 11.8813 19.0266 11.978 18.9971C12.0747 18.9676 12.1645 18.9188 12.2418 18.8537C12.3192 18.7887 12.3826 18.7086 12.4283 18.6184C12.474 18.5282 12.5009 18.4296 12.5075 18.3287C12.5141 18.2278 12.5003 18.1267 12.4668 18.0312C12.4668 18.0312 12.1422 16.8902 12.2939 15.8594C12.3698 15.344 12.5499 14.896 12.8877 14.5752C13.2255 14.2543 13.7562 14 14.75 14C15.9062 14 16.8264 13.6092 17.4365 12.999C18.0467 12.3889 18.3415 11.6167 18.4854 10.8975C18.7731 9.45889 18.4854 8.10254 18.4854 8.10254C18.4531 7.92865 18.3605 7.77174 18.2238 7.65952C18.0871 7.54731 17.9151 7.487 17.7383 7.48926Z" />
</svg>
