<svg width="24" height="24" viewBox="0 0 24 24" fill="none" xmlns="http://www.w3.org/2000/svg">
<path d="M12 2C6.48603 2 2 6.48604 2 12C2 17.514 6.48603 22 12 22C17.514 22 22 17.514 22 12C22 6.48604 17.514 2 12 2ZM12 3.5C16.7033 3.5 20.5 7.2967 20.5 12C20.5 16.7033 16.7033 20.5 12 20.5C7.29669 20.5 3.5 16.7033 3.5 12C3.5 7.2967 7.29669 3.5 12 3.5ZM12 4.25C11.8011 4.25 11.6103 4.32902 11.4697 4.46967C11.329 4.61032 11.25 4.80109 11.25 5C11.25 5.19891 11.329 5.38968 11.4697 5.53033C11.6103 5.67098 11.8011 5.75 12 5.75C12.1989 5.75 12.3897 5.67098 12.5303 5.53033C12.671 5.38968 12.75 5.19891 12.75 5C12.75 4.80109 12.671 4.61032 12.5303 4.46967C12.3897 4.32902 12.1989 4.25 12 4.25ZM7.05078 6.30078C6.85187 6.30078 6.6611 6.3798 6.52045 6.52045C6.3798 6.6611 6.30078 6.85187 6.30078 7.05078C6.30078 7.24969 6.3798 7.44046 6.52045 7.58111C6.6611 7.72176 6.85187 7.80078 7.05078 7.80078C7.24969 7.80078 7.44046 7.72176 7.58111 7.58111C7.72176 7.44046 7.80078 7.24969 7.80078 7.05078C7.80078 6.85187 7.72176 6.6611 7.58111 6.52045C7.44046 6.3798 7.24969 6.30078 7.05078 6.30078ZM16.9492 6.30078C16.7503 6.30078 16.5595 6.3798 16.4189 6.52045C16.2782 6.6611 16.1992 6.85187 16.1992 7.05078C16.1992 7.24969 16.2782 7.44046 16.4189 7.58111C16.5595 7.72176 16.7503 7.80078 16.9492 7.80078C17.1481 7.80078 17.3389 7.72176 17.4795 7.58111C17.6202 7.44046 17.6992 7.24969 17.6992 7.05078C17.6992 6.85187 17.6202 6.6611 17.4795 6.52045C17.3389 6.3798 17.1481 6.30078 16.9492 6.30078ZM17.249 9.6084C16.1042 9.58914 12.0634 10.8911 11.6172 11.0762C11.1072 11.2877 10.8647 11.8728 11.0762 12.3828C11.2877 12.8928 11.8728 13.1353 12.3828 12.9238C12.8933 12.7123 17.7545 10.2136 17.543 9.7041C17.5165 9.64029 17.4126 9.61115 17.249 9.6084ZM5 11.25C4.80109 11.25 4.61032 11.329 4.46967 11.4697C4.32902 11.6103 4.25 11.8011 4.25 12C4.25 12.1989 4.32902 12.3897 4.46967 12.5303C4.61032 12.671 4.80109 12.75 5 12.75C5.19891 12.75 5.38968 12.671 5.53033 12.5303C5.67098 12.3897 5.75 12.1989 5.75 12C5.75 11.8011 5.67098 11.6103 5.53033 11.4697C5.38968 11.329 5.19891 11.25 5 11.25ZM19 11.25C18.8011 11.25 18.6103 11.329 18.4697 11.4697C18.329 11.6103 18.25 11.8011 18.25 12C18.25 12.1989 18.329 12.3897 18.4697 12.5303C18.6103 12.671 18.8011 12.75 19 12.75C19.1989 12.75 19.3897 12.671 19.5303 12.5303C19.671 12.3897 19.75 12.1989 19.75 12C19.75 11.8011 19.671 11.6103 19.5303 11.4697C19.3897 11.329 19.1989 11.25 19 11.25ZM7.05078 16.1992C6.85187 16.1992 6.6611 16.2782 6.52045 16.4189C6.3798 16.5595 6.30078 16.7503 6.30078 16.9492C6.30078 17.1481 6.3798 17.3389 6.52045 17.4795C6.6611 17.6202 6.85187 17.6992 7.05078 17.6992C7.24969 17.6992 7.44046 17.6202 7.58111 17.4795C7.72176 17.3389 7.80078 17.1481 7.80078 16.9492C7.80078 16.7503 7.72176 16.5595 7.58111 16.4189C7.44046 16.2782 7.24969 16.1992 7.05078 16.1992ZM16.9492 16.1992C16.7503 16.1992 16.5595 16.2782 16.4189 16.4189C16.2782 16.5595 16.1992 16.7503 16.1992 16.9492C16.1992 17.1481 16.2782 17.3389 16.4189 17.4795C16.5595 17.6202 16.7503 17.6992 16.9492 17.6992C17.1481 17.6992 17.3389 17.6202 17.4795 17.4795C17.6202 17.3389 17.6992 17.1481 17.6992 16.9492C17.6992 16.7503 17.6202 16.5595 17.4795 16.4189C17.3389 16.2782 17.1481 16.1992 16.9492 16.1992Z" fill="#3A4445"/>
</svg>
