<svg width="24" height="24" viewBox="0 0 24 24" fill="none" xmlns="http://www.w3.org/2000/svg">
<path d="M5.25 4C3.46403 4 2 5.46403 2 7.25V16.75C2 18.536 3.46403 20 5.25 20H18.75C20.536 20 22 18.536 22 16.75V7.25C22 5.46403 20.536 4 18.75 4H5.25ZM5.25 5.5H18.75C19.725 5.5 20.5 6.27497 20.5 7.25V7.80273L12 12.3975L3.5 7.80273V7.25C3.5 6.27497 4.27497 5.5 5.25 5.5ZM3.5 9.50781L11.6436 13.9102C11.7531 13.9693 11.8755 14.0003 12 14.0003C12.1245 14.0003 12.2469 13.9693 12.3564 13.9102L20.5 9.50781V16.75C20.5 17.725 19.725 18.5 18.75 18.5H5.25C4.27497 18.5 3.5 17.725 3.5 16.75V9.50781Z" fill="#3A4445"/>
</svg>
