<svg width="24" height="24" viewBox="0 0 24 24" fill="none" xmlns="http://www.w3.org/2000/svg">
<path d="M4.75 6C3.24011 6 2 7.24011 2 8.75V15.25C2 16.7599 3.24011 18 4.75 18H17.25C18.7599 18 20 16.7599 20 15.25V14H21C21.5525 14 22 13.5525 22 13V11C22 10.4475 21.5525 10 21 10H20V8.75C20 7.24011 18.7599 6 17.25 6H4.75ZM4.75 7.5H17.25C17.9491 7.5 18.5 8.05089 18.5 8.75V15.25C18.5 15.9491 17.9491 16.5 17.25 16.5H4.75C4.05089 16.5 3.5 15.9491 3.5 15.25V8.75C3.5 8.05089 4.05089 7.5 4.75 7.5ZM10.4023 9.00293C10.3363 8.99437 10.2676 9.00468 10.2051 9.03418C10.0796 9.09268 10 9.21892 10 9.35742V12L6.94531 11.0107C6.78331 10.9692 6.61506 11.0458 6.53906 11.1943C6.51256 11.2458 6.5 11.3024 6.5 11.3574C6.5 11.4609 6.54541 11.5623 6.62891 11.6318L11.4141 14.917C11.5211 15.006 11.6689 15.0253 11.7939 14.9668C11.9199 14.9078 12 14.7811 12 14.6426V12L15.0547 12.9893C15.2167 13.0308 15.3849 12.9542 15.4609 12.8057C15.4874 12.7542 15.5 12.6976 15.5 12.6426C15.5 12.5391 15.4546 12.4377 15.3711 12.3682L10.5859 9.08301C10.5327 9.03876 10.4684 9.01149 10.4023 9.00293Z" fill="#3A4445"/>
</svg>
