<svg width="24" height="24" viewBox="0 0 24 24" fill="none" xmlns="http://www.w3.org/2000/svg">
<path d="M4.75 3C3.24011 3 2 4.24011 2 5.75V12.75V18.25C2 19.7599 3.24011 21 4.75 21H19.25C20.7599 21 22 19.7599 22 18.25V5.75C22 4.24011 20.7599 3 19.25 3H4.75ZM4.75 4.5H19.25C19.9491 4.5 20.5 5.05089 20.5 5.75V18.25C20.5 18.9491 19.9491 19.5 19.25 19.5H4.75C4.05089 19.5 3.5 18.9491 3.5 18.25V13.5H4.75C5.0135 13.5 5.25758 13.3622 5.39258 13.1357L6.15137 11.873L7.56445 15.0547C7.68445 15.3242 7.95157 15.4985 8.24707 15.5C8.54557 15.488 8.81062 15.329 8.93262 15.0605L10.666 11.2461L12.5439 16.5029C12.6449 16.7854 12.9041 16.98 13.2041 16.998C13.2196 16.999 13.2355 17 13.25 17C13.5325 17 13.7934 16.8409 13.9209 16.5859L15.7139 13H16.25H16.251C16.3673 13.1551 16.5181 13.281 16.6915 13.3678C16.8649 13.4546 17.0561 13.4998 17.25 13.5C17.5815 13.5 17.8995 13.3683 18.1339 13.1339C18.3683 12.8995 18.5 12.5815 18.5 12.25C18.5 11.9185 18.3683 11.6005 18.1339 11.3661C17.8995 11.1317 17.5815 11 17.25 11C17.0561 11.0002 16.8649 11.0454 16.6915 11.1322C16.5181 11.219 16.3673 11.3449 16.251 11.5H16.25H15.25C14.966 11.5 14.7061 11.6601 14.5791 11.9141L13.3652 14.3428L11.4561 8.99707C11.3531 8.70957 11.0863 8.51348 10.7812 8.50098C10.4738 8.48398 10.1934 8.66145 10.0674 8.93945L8.25781 12.9209L6.93457 9.94531C6.82107 9.68931 6.5754 9.51895 6.2959 9.50195C6.0124 9.48695 5.75045 9.62426 5.60645 9.86426L4.3252 12H3.5V5.75C3.5 5.05089 4.05089 4.5 4.75 4.5Z" />
</svg>
