<svg width="24" height="24" viewBox="0 0 24 24" fill="none" xmlns="http://www.w3.org/2000/svg">
<path d="M11.9922 2.99316C11.8597 2.99523 11.7335 3.04976 11.6413 3.14479C11.549 3.23981 11.4982 3.36756 11.5 3.5V6.5C11.4991 6.56626 11.5113 6.63204 11.536 6.69352C11.5607 6.75501 11.5974 6.81097 11.6439 6.85815C11.6904 6.90534 11.7459 6.9428 11.807 6.96838C11.8681 6.99395 11.9337 7.00712 12 7.00712C12.0663 7.00712 12.1319 6.99395 12.193 6.96838C12.2541 6.9428 12.3096 6.90534 12.3561 6.85815C12.4026 6.81097 12.4393 6.75501 12.464 6.69352C12.4887 6.63204 12.5009 6.56626 12.5 6.5V3.5C12.5009 3.43311 12.4884 3.36671 12.4632 3.30474C12.438 3.24277 12.4006 3.18648 12.3532 3.13922C12.3059 3.09196 12.2495 3.05469 12.1875 3.0296C12.1255 3.00451 12.0591 2.99212 11.9922 2.99316ZM6.93457 4.93457C6.8351 4.9346 6.7379 4.96429 6.6554 5.01984C6.5729 5.0754 6.50883 5.1543 6.4714 5.24646C6.43398 5.33861 6.42488 5.43984 6.44528 5.53719C6.46569 5.63454 6.51466 5.7236 6.58594 5.79297L8.70703 7.91406C8.7531 7.96205 8.80829 8.00036 8.86935 8.02675C8.93042 8.05314 8.99613 8.06708 9.06265 8.06776C9.12917 8.06843 9.19516 8.05583 9.25674 8.03068C9.31833 8.00554 9.37428 7.96836 9.42132 7.92132C9.46836 7.87428 9.50554 7.81833 9.53068 7.75674C9.55583 7.69516 9.56843 7.62917 9.56776 7.56265C9.56708 7.49613 9.55314 7.43042 9.52675 7.36935C9.50036 7.30829 9.46205 7.2531 9.41406 7.20703L7.29297 5.08594C7.24637 5.03804 7.19065 4.99997 7.12909 4.97397C7.06754 4.94797 7.00139 4.93457 6.93457 4.93457ZM17.0508 4.93457C16.9209 4.93844 16.7976 4.99273 16.707 5.08594L14.5859 7.20703C14.538 7.2531 14.4996 7.30829 14.4733 7.36935C14.4469 7.43042 14.4329 7.49613 14.4322 7.56265C14.4316 7.62917 14.4442 7.69516 14.4693 7.75674C14.4945 7.81833 14.5316 7.87428 14.5787 7.92132C14.6257 7.96836 14.6817 8.00554 14.7433 8.03068C14.8048 8.05583 14.8708 8.06843 14.9373 8.06776C15.0039 8.06708 15.0696 8.05314 15.1306 8.02675C15.1917 8.00036 15.2469 7.96205 15.293 7.91406L17.4141 5.79297C17.4863 5.72274 17.5357 5.63232 17.5556 5.53356C17.5756 5.4348 17.5653 5.3323 17.526 5.23951C17.4868 5.14672 17.4204 5.06795 17.3356 5.01354C17.2508 4.95913 17.1515 4.9316 17.0508 4.93457ZM12 8C11.2292 8 10.5561 8.31607 10.127 8.79883C9.69783 9.28159 9.5 9.89583 9.5 10.5C9.5 11.1042 9.69783 11.7184 10.127 12.2012C10.5561 12.6839 11.2292 13 12 13C12.7708 13 13.4439 12.6839 13.873 12.2012C14.3022 11.7184 14.5 11.1042 14.5 10.5C14.5 9.89583 14.3022 9.28159 13.873 8.79883C13.4439 8.31607 12.7708 8 12 8ZM12 9.5C12.3958 9.5 12.5977 9.62143 12.752 9.79492C12.9062 9.96841 13 10.2292 13 10.5C13 10.7708 12.9062 11.0316 12.752 11.2051C12.5977 11.3786 12.3958 11.5 12 11.5C11.6042 11.5 11.4023 11.3786 11.248 11.2051C11.0938 11.0316 11 10.7708 11 10.5C11 10.2292 11.0938 9.96841 11.248 9.79492C11.4023 9.62143 11.6042 9.5 12 9.5ZM4.5 11C3.72917 11 3.05607 11.3161 2.62695 11.7988C2.19783 12.2816 2 12.8958 2 13.5C2 14.1042 2.19783 14.7184 2.62695 15.2012C3.05607 15.6839 3.72917 16 4.5 16C5.27083 16 5.94393 15.6839 6.37305 15.2012C6.80217 14.7184 7 14.1042 7 13.5C7 12.8958 6.80217 12.2816 6.37305 11.7988C5.94393 11.3161 5.27083 11 4.5 11ZM19.5 11C18.7292 11 18.0561 11.3161 17.627 11.7988C17.1978 12.2816 17 12.8958 17 13.5C17 14.1042 17.1978 14.7184 17.627 15.2012C18.0561 15.6839 18.7292 16 19.5 16C20.2708 16 20.9439 15.6839 21.373 15.2012C21.8022 14.7184 22 14.1042 22 13.5C22 12.8958 21.8022 12.2816 21.373 11.7988C20.9439 11.3161 20.2708 11 19.5 11ZM4.5 12.5C4.89583 12.5 5.09774 12.6214 5.25195 12.7949C5.40617 12.9684 5.5 13.2292 5.5 13.5C5.5 13.7708 5.40617 14.0316 5.25195 14.2051C5.09774 14.3786 4.89583 14.5 4.5 14.5C4.10417 14.5 3.90226 14.3786 3.74805 14.2051C3.59383 14.0316 3.5 13.7708 3.5 13.5C3.5 13.2292 3.59383 12.9684 3.74805 12.7949C3.90226 12.6214 4.10417 12.5 4.5 12.5ZM19.5 12.5C19.8958 12.5 20.0977 12.6214 20.252 12.7949C20.4062 12.9684 20.5 13.2292 20.5 13.5C20.5 13.7708 20.4062 14.0316 20.252 14.2051C20.0977 14.3786 19.8958 14.5 19.5 14.5C19.1042 14.5 18.9023 14.3786 18.748 14.2051C18.5938 14.0316 18.5 13.7708 18.5 13.5C18.5 13.2292 18.5938 12.9684 18.748 12.7949C18.9023 12.6214 19.1042 12.5 19.5 12.5ZM9.02637 14C8.19238 14 7.5 14.6924 7.5 15.5264V17.0107C7.48987 17.0105 7.48381 17 7.47363 17H1.52637C0.692383 17 0 17.6924 0 18.5264V19.4746C0 20.3891 0.577452 21.1765 1.38477 21.6914C2.19208 22.2063 3.26314 22.501 4.5 22.501C5.7368 22.501 6.80691 22.2063 7.61426 21.6914C7.87188 21.5271 8.05042 21.2952 8.25 21.0801C8.44947 21.295 8.62736 21.5272 8.88477 21.6914C9.69208 22.2063 10.7631 22.501 12 22.501C13.2368 22.501 14.3069 22.2063 15.1143 21.6914C15.3719 21.5271 15.5504 21.2952 15.75 21.0801C15.9495 21.295 16.1274 21.5272 16.3848 21.6914C17.1921 22.2063 18.2631 22.501 19.5 22.501C20.7368 22.501 21.8069 22.2063 22.6143 21.6914C23.4216 21.1765 24 20.3892 24 19.4746V18.5264C24 17.6924 23.3076 17 22.4736 17H16.5264C16.5162 17 16.5101 17.0105 16.5 17.0107V15.5264C16.5 14.6924 15.8076 14 14.9736 14H9.02637ZM9.02637 15.5H14.9736C14.9966 15.5 15 15.5034 15 15.5264V18.5264V19.4746C15 19.7515 14.8186 20.1015 14.3086 20.4268C13.7986 20.752 12.9937 21.001 12 21.001C11.0064 21.001 10.2015 20.7521 9.69141 20.4268C9.18134 20.1014 9 19.7512 9 19.4746V18.5264V15.5264C9 15.5034 9.00335 15.5 9.02637 15.5ZM1.52637 18.5H7.47363C7.49665 18.5 7.5 18.5034 7.5 18.5264V19.4746C7.5 19.7515 7.31862 20.1015 6.80859 20.4268C6.29857 20.752 5.4937 21.001 4.5 21.001C3.50636 21.001 2.70147 20.7521 2.19141 20.4268C1.68134 20.1014 1.5 19.7512 1.5 19.4746V18.5264C1.5 18.5034 1.50335 18.5 1.52637 18.5ZM16.5264 18.5H22.4736C22.4966 18.5 22.5 18.5034 22.5 18.5264V19.4746C22.5 19.7515 22.3186 20.1015 21.8086 20.4268C21.2986 20.752 20.4937 21.001 19.5 21.001C18.5064 21.001 17.7015 20.7521 17.1914 20.4268C16.6813 20.1014 16.5 19.7512 16.5 19.4746V18.5264C16.5 18.5034 16.5034 18.5 16.5264 18.5Z" fill="#3A4445"/>
</svg>
