<svg width="24" height="24" viewBox="0 0 24 24" fill="none" xmlns="http://www.w3.org/2000/svg">
<path d="M3.25 2.00001C3.15062 1.99861 3.05194 2.01697 2.95972 2.05403C2.86749 2.09109 2.78355 2.14611 2.71277 2.21589C2.642 2.28568 2.58579 2.36883 2.54743 2.46052C2.50907 2.55222 2.48932 2.65062 2.48932 2.75001C2.48932 2.84941 2.50907 2.94781 2.54743 3.0395C2.58579 3.1312 2.642 3.21435 2.71277 3.28413C2.78355 3.35392 2.86749 3.40894 2.95972 3.446C3.05194 3.48306 3.15062 3.50142 3.25 3.50001H3.5V9.51759C2.653 9.63959 2 10.37 2 11.25V16.75C2 17.164 2.336 17.5 2.75 17.5H5.5V16H3.5V11.25C3.5 11.1125 3.6125 11 3.75 11H4.25C4.664 11 5 10.664 5 10.25V3.50001H14.5V5.50001H16V3.50001H16.25C16.3494 3.50142 16.4481 3.48306 16.5403 3.446C16.6325 3.40894 16.7164 3.35392 16.7872 3.28413C16.858 3.21435 16.9142 3.1312 16.9526 3.0395C16.9909 2.94781 17.0107 2.84941 17.0107 2.75001C17.0107 2.65062 16.9909 2.55222 16.9526 2.46052C16.9142 2.36883 16.858 2.28568 16.7872 2.21589C16.7164 2.14611 16.6325 2.09109 16.5403 2.05403C16.4481 2.01697 16.3494 1.99861 16.25 2.00001H3.25ZM8.73828 6.48927C8.70194 6.49022 8.66571 6.49381 8.62988 6.50001H7.75C7.65062 6.49861 7.55194 6.51697 7.45972 6.55403C7.36749 6.59109 7.28355 6.64611 7.21277 6.71589C7.142 6.78568 7.08579 6.86883 7.04743 6.96052C7.00907 7.05222 6.98932 7.15062 6.98932 7.25001C6.98932 7.34941 7.00907 7.44781 7.04743 7.5395C7.08579 7.6312 7.142 7.71435 7.21277 7.78413C7.28355 7.85392 7.36749 7.90894 7.45972 7.946C7.55194 7.98306 7.65062 8.00142 7.75 8.00001H8V14.0508C7.16325 14.1786 6.5 14.8808 6.5 15.75V21.25C6.50002 21.4489 6.57904 21.6397 6.71969 21.7803C6.86034 21.921 7.05109 22 7.25 22H21.25C21.4489 22 21.6397 21.921 21.7803 21.7803C21.921 21.6397 22 21.4489 22 21.25V15.75C22 14.8808 21.3368 14.1786 20.5 14.0508V8.00001H20.75C20.8494 8.00142 20.9481 7.98306 21.0403 7.946C21.1325 7.90894 21.2164 7.85392 21.2872 7.78413C21.358 7.71435 21.4142 7.6312 21.4526 7.5395C21.4909 7.44781 21.5107 7.34941 21.5107 7.25001C21.5107 7.15062 21.4909 7.05222 21.4526 6.96052C21.4142 6.86883 21.358 6.78568 21.2872 6.71589C21.2164 6.64611 21.1325 6.59109 21.0403 6.55403C20.9481 6.51697 20.8494 6.49861 20.75 6.50001H19.873C19.7925 6.48679 19.7104 6.48679 19.6299 6.50001H8.87305C8.82854 6.49238 8.78343 6.48879 8.73828 6.48927ZM9.5 8.00001H19V14.75C19 14.9489 19.079 15.1397 19.2197 15.2803C19.3603 15.421 19.5511 15.5 19.75 15.5H20.25C20.3975 15.5 20.5 15.6025 20.5 15.75V20.5H15.5V17.5C15.5 17.224 15.276 17 15 17H13.5C13.224 17 13 17.224 13 17.5V20.5H8V15.75C8 15.6025 8.10248 15.5 8.25 15.5H8.75C8.94891 15.5 9.13966 15.421 9.28031 15.2803C9.42096 15.1397 9.49998 14.9489 9.5 14.75V8.00001ZM12 10C11.724 10 11.5 10.224 11.5 10.5V11.5C11.5 11.776 11.724 12 12 12H13C13.276 12 13.5 11.776 13.5 11.5V10.5C13.5 10.224 13.276 10 13 10H12ZM15.5 10C15.224 10 15 10.224 15 10.5V11.5C15 11.776 15.224 12 15.5 12H16.5C16.776 12 17 11.776 17 11.5V10.5C17 10.224 16.776 10 16.5 10H15.5ZM12 13.5C11.724 13.5 11.5 13.724 11.5 14V15C11.5 15.276 11.724 15.5 12 15.5H13C13.276 15.5 13.5 15.276 13.5 15V14C13.5 13.724 13.276 13.5 13 13.5H12ZM15.5 13.5C15.224 13.5 15 13.724 15 14V15C15 15.276 15.224 15.5 15.5 15.5H16.5C16.776 15.5 17 15.276 17 15V14C17 13.724 16.776 13.5 16.5 13.5H15.5ZM10 17C9.724 17 9.5 17.224 9.5 17.5V18.5C9.5 18.776 9.724 19 10 19H11C11.276 19 11.5 18.776 11.5 18.5V17.5C11.5 17.224 11.276 17 11 17H10ZM17.5 17C17.224 17 17 17.224 17 17.5V18.5C17 18.776 17.224 19 17.5 19H18.5C18.776 19 19 18.776 19 18.5V17.5C19 17.224 18.776 17 18.5 17H17.5Z" fill="#3A4445"/>
</svg>
