<svg width="24" height="24" viewBox="0 0 24 24" fill="none" xmlns="http://www.w3.org/2000/svg">
<path d="M2.75 4.50001C2.65062 4.49861 2.55194 4.51697 2.45972 4.55403C2.36749 4.59109 2.28355 4.64611 2.21277 4.71589C2.142 4.78568 2.08579 4.86883 2.04743 4.96052C2.00907 5.05222 1.98932 5.15062 1.98932 5.25001C1.98932 5.34941 2.00907 5.44781 2.04743 5.5395C2.08579 5.6312 2.142 5.71435 2.21277 5.78413C2.28355 5.85392 2.36749 5.90894 2.45972 5.946C2.55194 5.98306 2.65062 6.00142 2.75 6.00001H21.25C21.3494 6.00142 21.4481 5.98306 21.5403 5.946C21.6325 5.90894 21.7164 5.85392 21.7872 5.78413C21.858 5.71435 21.9142 5.6312 21.9526 5.5395C21.9909 5.44781 22.0107 5.34941 22.0107 5.25001C22.0107 5.15062 21.9909 5.05222 21.9526 4.96052C21.9142 4.86883 21.858 4.78568 21.7872 4.71589C21.7164 4.64611 21.6325 4.59109 21.5403 4.55403C21.4481 4.51697 21.3494 4.49861 21.25 4.50001H2.75ZM2.75 11.25C2.65062 11.2486 2.55194 11.267 2.45972 11.304C2.36749 11.3411 2.28355 11.3961 2.21277 11.4659C2.142 11.5357 2.08579 11.6188 2.04743 11.7105C2.00907 11.8022 1.98932 11.9006 1.98932 12C1.98932 12.0994 2.00907 12.1978 2.04743 12.2895C2.08579 12.3812 2.142 12.4644 2.21277 12.5341C2.28355 12.6039 2.36749 12.6589 2.45972 12.696C2.55194 12.7331 2.65062 12.7514 2.75 12.75H21.25C21.3494 12.7514 21.4481 12.7331 21.5403 12.696C21.6325 12.6589 21.7164 12.6039 21.7872 12.5341C21.858 12.4644 21.9142 12.3812 21.9526 12.2895C21.9909 12.1978 22.0107 12.0994 22.0107 12C22.0107 11.9006 21.9909 11.8022 21.9526 11.7105C21.9142 11.6188 21.858 11.5357 21.7872 11.4659C21.7164 11.3961 21.6325 11.3411 21.5403 11.304C21.4481 11.267 21.3494 11.2486 21.25 11.25H2.75ZM2.75 18C2.65062 17.9986 2.55194 18.017 2.45972 18.054C2.36749 18.0911 2.28355 18.1461 2.21277 18.2159C2.142 18.2857 2.08579 18.3688 2.04743 18.4605C2.00907 18.5522 1.98932 18.6506 1.98932 18.75C1.98932 18.8494 2.00907 18.9478 2.04743 19.0395C2.08579 19.1312 2.142 19.2144 2.21277 19.2841C2.28355 19.3539 2.36749 19.4089 2.45972 19.446C2.55194 19.4831 2.65062 19.5014 2.75 19.5H21.25C21.3494 19.5014 21.4481 19.4831 21.5403 19.446C21.6325 19.4089 21.7164 19.3539 21.7872 19.2841C21.858 19.2144 21.9142 19.1312 21.9526 19.0395C21.9909 18.9478 22.0107 18.8494 22.0107 18.75C22.0107 18.6506 21.9909 18.5522 21.9526 18.4605C21.9142 18.3688 21.858 18.2857 21.7872 18.2159C21.7164 18.1461 21.6325 18.0911 21.5403 18.054C21.4481 18.017 21.3494 17.9986 21.25 18H2.75Z" fill="#3A4445"/>
</svg>
