<svg width="24" height="24" viewBox="0 0 24 24" fill="none" xmlns="http://www.w3.org/2000/svg">
<path d="M15 2.5C11.4191 2.5 8.5 5.41913 8.5 9C8.5 9.44117 8.59137 9.85167 8.67578 10.2637L2.71973 16.2197C2.57907 16.3604 2.50004 16.5511 2.5 16.75V20.75C2.50002 20.9489 2.57904 21.1397 2.71969 21.2803C2.86034 21.421 3.05109 21.5 3.25 21.5H7.25C7.44891 21.5 7.63966 21.421 7.78031 21.2803C7.92096 21.1397 7.99998 20.9489 8 20.75V19.5H9.75C9.94891 19.5 10.1397 19.421 10.2803 19.2803C10.421 19.1397 10.5 18.9489 10.5 18.75V17H12.25C12.4489 17 12.6397 16.921 12.7803 16.7803C12.921 16.6397 13 16.4489 13 16.25V15.1475C13.6356 15.3547 14.2979 15.5 15 15.5C18.5809 15.5 21.5 12.5809 21.5 9C21.5 5.41913 18.5809 2.5 15 2.5ZM15 4C17.7701 4 20 6.22987 20 9C20 11.7701 17.7701 14 15 14C14.1313 14 13.3196 13.7803 12.6094 13.3926C12.4952 13.3302 12.3667 13.2987 12.2366 13.301C12.1065 13.3034 11.9792 13.3395 11.8673 13.4059C11.7554 13.4723 11.6627 13.5667 11.5983 13.6797C11.5339 13.7928 11.5 13.9207 11.5 14.0508V15.5H9.75C9.55109 15.5 9.36034 15.579 9.21969 15.7197C9.07904 15.8603 9.00002 16.0511 9 16.25V18H7.25C7.05109 18 6.86034 18.079 6.71969 18.2197C6.57904 18.3603 6.50002 18.5511 6.5 18.75V20H4V17.0605L9.99414 11.0664C10.0881 10.9725 10.1555 10.8552 10.1893 10.7267C10.2231 10.5982 10.2221 10.463 10.1865 10.335C10.0669 9.90454 10 9.45983 10 9C10 6.22987 12.2299 4 15 4ZM16 6.5C15.6022 6.5 15.2206 6.65804 14.9393 6.93934C14.658 7.22064 14.5 7.60218 14.5 8C14.5 8.39782 14.658 8.77936 14.9393 9.06066C15.2206 9.34196 15.6022 9.5 16 9.5C16.3978 9.5 16.7794 9.34196 17.0607 9.06066C17.342 8.77936 17.5 8.39782 17.5 8C17.5 7.60218 17.342 7.22064 17.0607 6.93934C16.7794 6.65804 16.3978 6.5 16 6.5Z"/>
</svg>
