<svg width="16" height="16" viewBox="0 0 16 16" fill="none" xmlns="http://www.w3.org/2000/svg">
<path d="M10.8437 1.13672C10.6933 1.13402 10.5414 1.15354 10.3926 1.19727C8.75987 1.67751 4.57498 3.05801 2.66014 5.91016L2.65232 5.92123L2.64581 5.93229C2.09889 6.84595 2.02081 7.71166 2.02081 8.40039C2.02081 9.67866 2.62567 10.7622 3.41274 11.5143C3.90528 11.985 4.46697 12.2824 5.03709 12.4824C4.33126 13.0027 3.54475 13.4155 2.68162 13.6901C2.55523 13.7303 2.44999 13.8191 2.38907 13.937C2.32814 14.0548 2.31652 14.192 2.35675 14.3184C2.39698 14.4448 2.48577 14.55 2.6036 14.6109C2.72142 14.6718 2.85861 14.6835 2.98501 14.6432C6.86769 13.4078 9.2797 9.75567 10.0762 5.99024C10.1036 5.86048 10.0784 5.72513 10.006 5.61396C9.93371 5.50279 9.82017 5.42492 9.69041 5.39746C9.56065 5.37001 9.4253 5.39523 9.31413 5.46757C9.20297 5.53991 9.12509 5.65345 9.09764 5.78321C8.62828 8.0022 7.5542 10.1445 5.9518 11.6973C5.43173 11.6624 4.69572 11.357 4.1035 10.791C3.4764 10.1917 3.02081 9.36313 3.02081 8.40039C3.02081 7.78146 3.07526 7.17027 3.49998 6.45573C5.11266 4.06921 9.12316 2.61321 10.6745 2.1569C10.8778 2.09715 11.0927 2.16639 11.2194 2.33268C12.6924 4.26756 13.3123 6.74497 13.3327 8.27669V8.27735C13.3545 9.89685 12.9435 11.1028 12.3073 11.9049C11.6725 12.7052 10.8151 13.1243 9.82029 13.1654C9.32212 13.1656 8.72125 13.1769 7.97003 12.6029C7.91813 12.5603 7.8582 12.5287 7.7938 12.5098C7.72941 12.4909 7.66188 12.4852 7.59523 12.493C7.52857 12.5007 7.46417 12.5218 7.40584 12.555C7.34751 12.5882 7.29646 12.6328 7.25573 12.6861C7.21499 12.7394 7.1854 12.8004 7.16873 12.8654C7.15205 12.9304 7.14863 12.9981 7.15867 13.0644C7.1687 13.1308 7.19199 13.1944 7.22713 13.2516C7.26228 13.3087 7.30858 13.3582 7.36326 13.3971C8.3528 14.1532 9.33376 14.1667 9.83331 14.1667H9.84308L9.85284 14.166C11.1183 14.1161 12.2816 13.5465 13.0905 12.5267C13.8994 11.5069 14.3562 10.0595 14.332 8.26367C14.3084 6.48807 13.6506 3.87567 12.015 1.72722C11.7314 1.35493 11.2951 1.14483 10.8437 1.13672Z"/>
</svg>