<svg width="24" height="24" viewBox="0 0 24 24" fill="none" xmlns="http://www.w3.org/2000/svg">
<path d="M16.2656 1.70508C16.0399 1.70103 15.8121 1.73031 15.5889 1.7959C13.1398 2.51627 6.8625 4.58702 3.99023 8.86524L3.97852 8.88184L3.96875 8.89844C3.14837 10.2689 3.03125 11.5675 3.03125 12.6006C3.03125 14.518 3.93853 16.1433 5.11914 17.2715C5.85795 17.9775 6.70048 18.4236 7.55566 18.7236C6.49693 19.504 5.31715 20.1232 4.02246 20.5352C3.83287 20.5955 3.67502 20.7287 3.58363 20.9054C3.49225 21.0822 3.47481 21.288 3.53516 21.4775C3.5955 21.6671 3.72869 21.825 3.90542 21.9164C4.08215 22.0078 4.28795 22.0252 4.47754 21.9648C10.3016 20.1118 13.9196 14.6335 15.1143 8.98535C15.1554 8.79072 15.1176 8.58769 15.0091 8.42094C14.9006 8.25419 14.7303 8.13738 14.5356 8.09619C14.341 8.05501 14.138 8.09284 13.9712 8.20135C13.8045 8.30986 13.6877 8.48017 13.6465 8.67481C12.9424 12.0033 11.3313 15.2167 8.92773 17.5459C8.14763 17.4937 7.0436 17.0354 6.15527 16.1865C5.21463 15.2876 4.53125 14.0447 4.53125 12.6006C4.53125 11.6722 4.61292 10.7554 5.25 9.6836C7.66902 6.10381 13.6848 3.91981 16.0117 3.23535C16.3167 3.14573 16.6391 3.24959 16.8291 3.49903C19.0387 6.40134 19.9685 10.1175 19.999 12.415V12.416C20.0317 14.8453 19.4153 16.6542 18.4609 17.8574C17.5088 19.0578 16.2227 19.6864 14.7305 19.7481C13.9832 19.7483 13.0819 19.7653 11.9551 18.9043C11.8772 18.8405 11.7873 18.793 11.6907 18.7647C11.5941 18.7364 11.4928 18.7278 11.3929 18.7394C11.2929 18.7511 11.1963 18.7827 11.1088 18.8325C11.0213 18.8823 10.9447 18.9491 10.8836 19.0291C10.8225 19.1091 10.7781 19.2006 10.7531 19.2981C10.7281 19.3956 10.723 19.4971 10.738 19.5966C10.7531 19.6962 10.788 19.7916 10.8407 19.8774C10.8935 19.9631 10.9629 20.0374 11.0449 20.0957C12.5292 21.2299 14.0007 21.25 14.75 21.25H14.7646L14.7793 21.249C16.6775 21.1741 18.4224 20.3198 19.6357 18.79C20.8491 17.2603 21.5343 15.0893 21.498 12.3955C21.4626 9.73211 20.4759 5.81351 18.0225 2.59082C17.5972 2.0324 16.9427 1.71725 16.2656 1.70508Z" />
</svg>
