<svg width="32" height="40" viewBox="0 0 32 40" xmlns="http://www.w3.org/2000/svg">
<path d="M16 0C11.5994 0 8 3.59941 8 8V12H4.5C2.0325 12 0 14.0325 0 16.5V35.5C0 37.9675 2.0325 40 4.5 40H27.5C29.9675 40 32 37.9675 32 35.5V16.5C32 14.0325 29.9675 12 27.5 12H24V8C24 3.59941 20.4006 0 16 0ZM16 3C18.7794 3 21 5.22058 21 8V12H11V8C11 5.22058 13.2206 3 16 3ZM4.5 15H27.5C28.3465 15 29 15.6535 29 16.5V35.5C29 36.3465 28.3465 37 27.5 37H4.5C3.6535 37 3 36.3465 3 35.5V16.5C3 15.6535 3.6535 15 4.5 15ZM16 23C15.2044 23 14.4413 23.3161 13.8787 23.8787C13.3161 24.4413 13 25.2044 13 26C13 26.7956 13.3161 27.5587 13.8787 28.1213C14.4413 28.6839 15.2044 29 16 29C16.7956 29 17.5587 28.6839 18.1213 28.1213C18.6839 27.5587 19 26.7956 19 26C19 25.2044 18.6839 24.4413 18.1213 23.8787C17.5587 23.3161 16.7956 23 16 23Z"/>
</svg>