<svg width="24" height="24" viewBox="0 0 24 24" fill="none" xmlns="http://www.w3.org/2000/svg">
<path d="M11.6387 2.00878C7.59694 2.19915 4.50001 5.67168 4.50001 9.69042V13.3242L3.17481 15.9902C3.17248 15.9951 3.1702 16 3.16797 16.0049C2.63485 17.1386 3.49786 18.5 4.75098 18.5H9.00001C9.00001 20.1479 10.3521 21.5 12 21.5C13.6479 21.5 15 20.1479 15 18.5H19.2481C20.5012 18.5 21.3653 17.1389 20.832 16.0049C20.8298 16 20.8275 15.9951 20.8252 15.9902L19.5 13.3242V9.49999C19.5 5.24689 15.9317 1.80667 11.6387 2.00878ZM11.709 3.50682C15.169 3.34393 18 6.08109 18 9.49999V13.5C17.9999 13.6159 18.0266 13.7302 18.0781 13.834L19.4746 16.6445C19.5644 16.837 19.4605 17 19.2481 17H4.75098C4.53852 17 4.43546 16.8373 4.5254 16.6445V16.6435L5.92188 13.834C5.97337 13.7302 6.00011 13.6159 6.00001 13.5V9.69042C6.00001 6.44015 8.48973 3.65845 11.709 3.50682ZM10.5 18.5H13.5C13.5 19.3371 12.8371 20 12 20C11.1629 20 10.5 19.3371 10.5 18.5Z" />
</svg>
