<svg width="200" height="128" viewBox="0 0 200 128" fill="none" xmlns="http://www.w3.org/2000/svg">
<path fill-rule="evenodd" clip-rule="evenodd" d="M96.6667 4.03883C123.337 3.01324 147.152 22.4244 154.066 48.2033C160.113 70.7493 142.144 89.7357 123.373 103.611C103.911 117.998 79.0313 132.301 59.3453 118.222C39.3978 103.956 43.7968 75.4607 51.4158 52.1506C58.9779 29.0147 72.3442 4.97413 96.6667 4.03883Z" fill="#F0F4FF"/>
<path fill-rule="evenodd" clip-rule="evenodd" d="M96.6667 4.03883C123.337 3.01324 147.152 22.4244 154.066 48.2033C160.113 70.7493 142.144 89.7357 123.373 103.611C103.911 117.998 79.0313 132.301 59.3453 118.222C39.3978 103.956 43.7968 75.4607 51.4158 52.1506C58.9779 29.0147 72.3442 4.97413 96.6667 4.03883Z" fill="url(#paint0_linear_1264_272793)" fill-opacity="0.2"/>
<mask id="mask0_1264_272793" style="mask-type:alpha" maskUnits="userSpaceOnUse" x="45" y="4" width="111" height="120">
<path fill-rule="evenodd" clip-rule="evenodd" d="M96.6667 4.03883C123.337 3.01324 147.152 22.4244 154.066 48.2033C160.113 70.7493 142.144 89.7357 123.373 103.611C103.911 117.998 79.0313 132.301 59.3453 118.222C39.3978 103.956 43.7968 75.4607 51.4158 52.1506C58.9779 29.0147 72.3442 4.97413 96.6667 4.03883Z" fill="#F0F4FF"/>
<path fill-rule="evenodd" clip-rule="evenodd" d="M96.6667 4.03883C123.337 3.01324 147.152 22.4244 154.066 48.2033C160.113 70.7493 142.144 89.7357 123.373 103.611C103.911 117.998 79.0313 132.301 59.3453 118.222C39.3978 103.956 43.7968 75.4607 51.4158 52.1506C58.9779 29.0147 72.3442 4.97413 96.6667 4.03883Z" fill="url(#paint1_linear_1264_272793)" fill-opacity="0.2"/>
</mask>
<g mask="url(#mask0_1264_272793)">
<path opacity="0.25" d="M75.8022 38.4162C75.533 38.4124 75.2658 38.4621 75.016 38.5625C74.7662 38.6629 74.5389 38.8119 74.3472 39.0009C74.1555 39.1899 74.0033 39.4151 73.8994 39.6634C73.7955 39.9118 73.742 40.1783 73.742 40.4475C73.742 40.7167 73.7955 40.9832 73.8994 41.2315C74.0033 41.4798 74.1555 41.705 74.3472 41.894C74.5389 42.083 74.7662 42.2321 75.016 42.3324C75.2658 42.4328 75.533 42.4825 75.8022 42.4787H76.4792V58.7763C74.1853 59.1067 72.4167 61.085 72.4167 63.4683V78.3641C72.4167 78.9187 72.6394 79.4216 73.0001 79.7883C73.3686 80.163 86.7175 93.5 86.7175 93.5L84.6042 80.3954V76.3329H94.5001V63.4683C94.5001 63.0959 76.7839 62.7912 77.1563 62.7912L81.8959 65.0554C83.0172 65.0554 83.9272 64.1454 83.9272 63.0241L80.5417 70H106.271V50.6037H110.333L121.936 54.0815H122.613C122.882 54.0854 123.15 54.0356 123.4 53.9353C123.649 53.8349 123.877 53.6859 124.068 53.4969C124.26 53.3079 124.412 53.0827 124.516 52.8343C124.62 52.586 124.674 52.3195 124.674 52.0503C124.674 51.7811 124.777 51.4906 124.674 51.2423C124.57 50.994 112.657 39.1899 112.465 39.0009C112.274 38.8119 112.046 38.6629 111.797 38.5625C111.547 38.4621 111.28 38.4124 111.011 38.4162H75.8022ZM90.6663 50.5746C90.5678 50.5772 90.4697 50.5869 90.3727 50.6037H87.9897C87.7205 50.5999 87.4533 50.6496 87.2035 50.75C86.9537 50.8504 86.7264 50.9994 86.5347 51.1884C86.343 51.3774 86.1908 51.6026 86.0869 51.8509C85.983 52.0993 85.9295 52.3658 85.9295 52.635C85.9295 52.9042 85.983 53.1707 86.0869 53.419C86.1908 53.6673 86.343 53.8925 86.5347 54.0815C86.7264 54.2705 86.9537 54.4196 87.2035 54.5199C87.4533 54.6203 87.7205 54.67 87.9897 54.6662H88.6667V71.0538C86.4005 71.3999 84.6042 73.3017 84.6042 75.6558V90.5516C84.6043 91.0903 84.8183 91.607 85.1992 91.9879C85.5802 92.3688 120.5 127.135 120.5 127.135L157.969 129.167C158.508 129.167 159.024 128.953 159.405 128.572C159.786 128.191 160 127.674 160 127.135V112.24C160 109.885 158.204 107.984 155.938 107.638L148.537 80.6463H149.214C149.483 80.6501 149.75 80.6004 150 80.5C150.25 80.3996 150.477 80.2506 150.669 80.0616C150.861 79.8726 151.013 79.6474 151.117 79.3991C151.221 79.1507 151.274 78.8842 151.274 78.615C151.274 78.3459 151.221 78.0793 151.117 77.831C151.013 77.5827 150.669 77.1685 150.669 77.1685C150.669 77.1685 124.923 51.3427 124.674 51.2423C124.424 51.1419 123.467 50.5999 123.198 50.6037H120.823C120.605 50.5679 120.382 50.5679 120.164 50.6037H91.0313C90.9107 50.5831 90.7886 50.5733 90.6663 50.5746ZM99.5001 60.0829C98.7526 60.0829 98.1459 60.6896 98.1459 61.4371V64.1454C98.1459 64.8929 98.7526 65.4996 99.5001 65.4996H102.208C102.956 65.4996 103.563 64.8929 103.563 64.1454V61.4371C103.563 60.6896 102.956 60.0829 102.208 60.0829H99.5001ZM108.979 60.0829C108.232 60.0829 107.625 60.6896 107.625 61.4371V64.1454C107.625 64.8929 108.232 65.4996 108.979 65.4996H111.688C112.435 65.4996 113.042 64.8929 113.042 64.1454V61.4371C113.042 60.6896 112.435 60.0829 111.688 60.0829H108.979ZM99.5001 69.5621C98.7526 69.5621 98.1459 70.1687 98.1459 70.9162V73.6246C98.1459 74.3721 98.7526 74.9787 99.5001 74.9787H102.208C102.956 74.9787 103.563 74.3721 103.563 73.6246V70.9162C103.563 70.1687 102.956 69.5621 102.208 69.5621H99.5001ZM108.979 69.5621C108.232 69.5621 107.625 70.1687 107.625 70.9162V73.6246C107.625 74.3721 108.232 74.9787 108.979 74.9787H111.688C112.435 74.9787 146.458 110.956 146.458 110.208V107.5C146.458 106.752 112.435 69.5621 111.688 69.5621H108.979ZM94.0834 79.0412C93.3359 79.0412 92.7292 79.6479 92.7292 80.3954V83.1037C92.7292 83.8512 93.3359 84.4579 94.0834 84.4579H96.7917C97.5392 84.4579 98.1459 83.8512 98.1459 83.1037V80.3954C98.1459 79.6479 97.5392 79.0412 96.7917 79.0412H94.0834ZM147.813 115.625C147.065 115.625 146.458 116.232 146.458 116.979V119.688C146.458 120.435 147.065 121.042 147.813 121.042H150.521C151.268 121.042 151.875 120.435 151.875 119.688V116.979C151.875 116.232 151.268 115.625 150.521 115.625H147.813Z" fill="url(#paint2_linear_1264_272793)"/>
</g>
<path d="M105.999 116.449C105.992 116.449 105.986 116.449 105.98 116.449C103.23 116.449 100.998 113.119 100.98 109C100.962 113.109 98.7412 116.434 96 116.449C96 116.449 96 116.449 96 116.449C98.7412 116.464 100.962 119.789 100.98 123.898C100.998 119.779 103.23 116.449 105.98 116.449C105.986 116.449 105.992 116.449 105.999 116.449C105.999 116.449 105.999 116.449 105.999 116.449Z" fill="url(#paint3_linear_1264_272793)"/>
<path d="M139.999 29.4489C139.992 29.4489 139.986 29.449 139.98 29.449C137.23 29.449 134.998 26.1186 134.98 22C134.962 26.1091 132.741 29.4336 130 29.4489C130 29.4489 130 29.4489 130 29.4489C132.741 29.4642 134.962 32.7889 134.98 36.8979C134.998 32.7794 137.23 29.449 139.98 29.449C139.986 29.449 139.992 29.4489 139.999 29.4489C139.999 29.4489 139.999 29.4489 139.999 29.4489Z" fill="url(#paint4_linear_1264_272793)"/>
<path d="M63.9987 52.4489C63.9923 52.4489 63.9859 52.449 63.9795 52.449C61.2296 52.449 58.9982 49.1186 58.9803 45C58.9623 49.1091 56.7412 52.4336 54 52.4489C54 52.4489 54 52.4489 54 52.4489C56.7412 52.4642 58.9623 55.7889 58.9803 59.8979C58.9982 55.7794 61.2296 52.449 63.9795 52.449C63.9859 52.449 63.9923 52.4489 63.9987 52.4489C63.9987 52.4489 63.9987 52.4489 63.9987 52.4489Z" fill="url(#paint5_linear_1264_272793)"/>
<path d="M75.8022 38.4162C75.533 38.4124 75.2658 38.4621 75.016 38.5625C74.7662 38.6629 74.5389 38.8119 74.3472 39.0009C74.1555 39.1899 74.0033 39.4151 73.8994 39.6634C73.7955 39.9118 73.742 40.1783 73.742 40.4475C73.742 40.7167 73.7955 40.9832 73.8994 41.2315C74.0033 41.4798 74.1555 41.705 74.3472 41.894C74.5389 42.083 74.7662 42.2321 75.016 42.3324C75.2658 42.4328 75.533 42.4825 75.8022 42.4787H76.4792V58.7763C74.1853 59.1067 72.4167 61.085 72.4167 63.4683V78.3641C72.4167 79.4854 73.3267 80.3954 74.448 80.3954H84.6042V76.3329H94.5001V63.4683C94.5001 63.0959 76.7839 62.7912 77.1563 62.7912L81.8959 65.0554C83.0172 65.0554 83.9272 64.1454 83.9272 63.0241L80.5417 70H106.271V50.6037H110.333V42.4787H111.011C111.28 42.4825 111.547 42.4328 111.797 42.3324C112.046 42.2321 112.274 42.083 112.465 41.894C112.657 41.705 112.809 41.4798 112.913 41.2315C113.017 40.9832 113.071 40.7167 113.071 40.4475C113.071 40.1783 113.017 39.9118 112.913 39.6634C112.809 39.4151 112.657 39.1899 112.465 39.0009C112.274 38.8119 112.046 38.6629 111.797 38.5625C111.547 38.4621 111.28 38.4124 111.011 38.4162H75.8022ZM90.6663 50.5746C90.5678 50.5772 90.4697 50.5869 90.3727 50.6037H87.9897C87.7205 50.5999 87.4533 50.6496 87.2035 50.75C86.9537 50.8504 86.7264 50.9994 86.5347 51.1884C86.343 51.3774 86.1908 51.6026 86.0869 51.8509C85.983 52.0993 85.9295 52.3658 85.9295 52.635C85.9295 52.9042 85.983 53.1707 86.0869 53.419C86.1908 53.6673 86.343 53.8925 86.5347 54.0815C86.7264 54.2705 86.9537 54.4196 87.2035 54.5199C87.4533 54.6203 87.7205 54.67 87.9897 54.6662H88.6667V71.0538C86.4005 71.3999 84.6042 73.3017 84.6042 75.6558V90.5516C84.6043 91.0903 84.8183 91.607 85.1992 91.9879C85.5802 92.3688 86.0968 92.5828 86.6355 92.5829H124.552C125.091 92.5828 125.607 92.3688 125.988 91.9879C126.369 91.607 126.583 91.0903 126.583 90.5516V75.6558C126.583 73.3017 124.787 71.3999 122.521 71.0538V54.6662H123.198C123.467 54.67 123.734 54.6203 123.984 54.5199C124.234 54.4196 124.461 54.2705 124.653 54.0815C124.845 53.8925 124.997 53.6673 125.101 53.419C125.205 53.1707 125.258 52.9042 125.258 52.635C125.258 52.3658 125.205 52.0993 125.101 51.8509C124.997 51.6026 124.845 51.3774 124.653 51.1884C124.461 50.9994 124.234 50.8504 123.984 50.75C123.734 50.6496 123.467 50.5999 123.198 50.6037H120.823C120.605 50.5679 120.382 50.5679 120.164 50.6037H91.0313C90.9107 50.5831 90.7886 50.5733 90.6663 50.5746ZM99.5001 60.0829C98.7526 60.0829 98.1459 60.6896 98.1459 61.4371V64.1454C98.1459 64.8929 98.7526 65.4996 99.5001 65.4996H102.208C102.956 65.4996 103.563 64.8929 103.563 64.1454V61.4371C103.563 60.6896 102.956 60.0829 102.208 60.0829H99.5001ZM108.979 60.0829C108.232 60.0829 107.625 60.6896 107.625 61.4371V64.1454C107.625 64.8929 108.232 65.4996 108.979 65.4996H111.688C112.435 65.4996 113.042 64.8929 113.042 64.1454V61.4371C113.042 60.6896 112.435 60.0829 111.688 60.0829H108.979ZM99.5001 69.5621C98.7526 69.5621 98.1459 70.1687 98.1459 70.9162V73.6246C98.1459 74.3721 98.7526 74.9787 99.5001 74.9787H102.208C102.956 74.9787 103.563 74.3721 103.563 73.6246V70.9162C103.563 70.1687 102.956 69.5621 102.208 69.5621H99.5001ZM108.979 69.5621C108.232 69.5621 107.625 70.1687 107.625 70.9162V73.6246C107.625 74.3721 108.232 74.9787 108.979 74.9787H111.688C112.435 74.9787 113.042 74.3721 113.042 73.6246V70.9162C113.042 70.1687 112.435 69.5621 111.688 69.5621H108.979ZM94.0834 79.0412C93.3359 79.0412 92.7292 79.6479 92.7292 80.3954V83.1037C92.7292 83.8512 93.3359 84.4579 94.0834 84.4579H96.7917C97.5392 84.4579 98.1459 83.8512 98.1459 83.1037V80.3954C98.1459 79.6479 97.5392 79.0412 96.7917 79.0412H94.0834ZM114.396 79.0412C113.648 79.0412 113.042 79.6479 113.042 80.3954V83.1037C113.042 83.8512 113.648 84.4579 114.396 84.4579H117.104C117.852 84.4579 118.458 83.8512 118.458 83.1037V80.3954C118.458 79.6479 117.852 79.0412 117.104 79.0412H114.396Z" fill="#F0F4FF"/>
<path d="M75.802 38.4167C75.5329 38.4129 75.2656 38.4626 75.0159 38.563C74.7661 38.6634 74.5387 38.8124 74.3471 39.0014C74.1554 39.1904 74.0032 39.4156 73.8993 39.6639C73.7954 39.9123 73.7419 40.1788 73.7419 40.448C73.7419 40.7171 73.7954 40.9837 73.8993 41.232C74.0032 41.4803 74.1554 41.7055 74.3471 41.8945C74.5387 42.0835 74.7661 42.2325 75.0159 42.3329C75.2656 42.4333 75.5329 42.483 75.802 42.4792H76.4791V58.7768C74.1852 59.1072 72.4166 61.0855 72.4166 63.4688V78.3646C72.4166 79.4859 73.3266 80.3959 74.4479 80.3959H81.8958V76.3334H76.4791V63.4688C76.4791 63.0964 76.7838 62.7917 77.1562 62.7917H78.5104C79.6316 62.7917 80.5416 61.8817 80.5416 60.7605V42.4792H106.271V47.8959H110.333V42.4792H111.01C111.28 42.483 111.547 42.4333 111.797 42.3329C112.046 42.2325 112.274 42.0835 112.465 41.8945C112.657 41.7055 112.809 41.4803 112.913 41.232C113.017 40.9837 113.071 40.7171 113.071 40.448C113.071 40.1788 113.017 39.9123 112.913 39.6639C112.809 39.4156 112.657 39.1904 112.465 39.0014C112.274 38.8124 112.046 38.6634 111.797 38.563C111.547 38.4626 111.28 38.4129 111.01 38.4167H75.802ZM90.6661 50.5751C90.5677 50.5777 90.4696 50.5874 90.3726 50.6042H87.9895C87.7204 50.6004 87.4531 50.6501 87.2034 50.7505C86.9536 50.8509 86.7262 50.9999 86.5346 51.1889C86.3429 51.3779 86.1907 51.6031 86.0868 51.8514C85.9829 52.0998 85.9294 52.3663 85.9294 52.6355C85.9294 52.9046 85.9829 53.1712 86.0868 53.4195C86.1907 53.6678 86.3429 53.893 86.5346 54.082C86.7262 54.271 86.9536 54.42 87.2034 54.5204C87.4531 54.6208 87.7204 54.6705 87.9895 54.6667H88.6666V71.0542C86.4004 71.4004 84.6041 73.3022 84.6041 75.6563V90.5521C84.6042 91.0908 84.8182 91.6074 85.1991 91.9884C85.58 92.3693 86.0967 92.5833 86.6354 92.5834H124.552C125.091 92.5833 125.607 92.3693 125.988 91.9884C126.369 91.6074 126.583 91.0908 126.583 90.5521V75.6563C126.583 73.3022 124.787 71.4004 122.521 71.0542V54.6667H123.198C123.467 54.6705 123.734 54.6208 123.984 54.5204C124.234 54.42 124.461 54.271 124.653 54.082C124.845 53.893 124.997 53.6678 125.101 53.4195C125.205 53.1712 125.258 52.9046 125.258 52.6355C125.258 52.3663 125.205 52.0998 125.101 51.8514C124.997 51.6031 124.845 51.3779 124.653 51.1889C124.461 50.9999 124.234 50.8509 123.984 50.7505C123.734 50.6501 123.467 50.6004 123.198 50.6042H120.823C120.605 50.5684 120.382 50.5684 120.164 50.6042H91.0311C90.9106 50.5835 90.7884 50.5738 90.6661 50.5751ZM92.7291 54.6667H118.458V72.948C118.458 73.4867 118.672 74.0033 119.053 74.3842C119.434 74.7651 119.951 74.9791 120.49 74.9792H121.844C122.243 74.9792 122.521 75.2567 122.521 75.6563V88.5209H108.979V80.3959C108.979 79.6484 108.372 79.0417 107.625 79.0417H103.562C102.815 79.0417 102.208 79.6484 102.208 80.3959V88.5209H88.6666V75.6563C88.6666 75.2567 88.9442 74.9792 89.3437 74.9792H90.6979C91.2366 74.9791 91.7532 74.7651 92.1341 74.3842C92.515 74.0033 92.7291 73.4867 92.7291 72.948V54.6667ZM99.5 60.0834C98.7525 60.0834 98.1458 60.69 98.1458 61.4375V64.1459C98.1458 64.8934 98.7525 65.5 99.5 65.5H102.208C102.956 65.5 103.562 64.8934 103.562 64.1459V61.4375C103.562 60.69 102.956 60.0834 102.208 60.0834H99.5ZM108.979 60.0834C108.232 60.0834 107.625 60.69 107.625 61.4375V64.1459C107.625 64.8934 108.232 65.5 108.979 65.5H111.687C112.435 65.5 113.042 64.8934 113.042 64.1459V61.4375C113.042 60.69 112.435 60.0834 111.687 60.0834H108.979ZM99.5 69.5625C98.7525 69.5625 98.1458 70.1692 98.1458 70.9167V73.625C98.1458 74.3725 98.7525 74.9792 99.5 74.9792H102.208C102.956 74.9792 103.562 74.3725 103.562 73.625V70.9167C103.562 70.1692 102.956 69.5625 102.208 69.5625H99.5ZM108.979 69.5625C108.232 69.5625 107.625 70.1692 107.625 70.9167V73.625C107.625 74.3725 108.232 74.9792 108.979 74.9792H111.687C112.435 74.9792 113.042 74.3725 113.042 73.625V70.9167C113.042 70.1692 112.435 69.5625 111.687 69.5625H108.979ZM94.0833 79.0417C93.3358 79.0417 92.7291 79.6484 92.7291 80.3959V83.1042C92.7291 83.8517 93.3358 84.4584 94.0833 84.4584H96.7916C97.5391 84.4584 98.1458 83.8517 98.1458 83.1042V80.3959C98.1458 79.6484 97.5391 79.0417 96.7916 79.0417H94.0833ZM114.396 79.0417C113.648 79.0417 113.042 79.6484 113.042 80.3959V83.1042C113.042 83.8517 113.648 84.4584 114.396 84.4584H117.104C117.852 84.4584 118.458 83.8517 118.458 83.1042V80.3959C118.458 79.6484 117.852 79.0417 117.104 79.0417H114.396Z" fill="#0067C8"/>
<defs>
<linearGradient id="paint0_linear_1264_272793" x1="126.5" y1="104" x2="75.5" y2="4.00001" gradientUnits="userSpaceOnUse">
<stop stop-color="#007DF2"/>
<stop offset="1" stop-color="#53EA9F"/>
</linearGradient>
<linearGradient id="paint1_linear_1264_272793" x1="126.5" y1="104" x2="75.5" y2="4.00001" gradientUnits="userSpaceOnUse">
<stop stop-color="#007DF2"/>
<stop offset="1" stop-color="#53EA9F"/>
</linearGradient>
<linearGradient id="paint2_linear_1264_272793" x1="72.3403" y1="38.4495" x2="83.7235" y2="48.8687" gradientUnits="userSpaceOnUse">
<stop stop-color="#308F5F"/>
<stop offset="1" stop-color="#007DF2"/>
</linearGradient>
<linearGradient id="paint3_linear_1264_272793" x1="96" y1="109" x2="106" y2="124" gradientUnits="userSpaceOnUse">
<stop stop-color="#308F5F"/>
<stop offset="1" stop-color="#007DF2"/>
</linearGradient>
<linearGradient id="paint4_linear_1264_272793" x1="130" y1="22" x2="140" y2="37" gradientUnits="userSpaceOnUse">
<stop stop-color="#308F5F"/>
<stop offset="1" stop-color="#007DF2"/>
</linearGradient>
<linearGradient id="paint5_linear_1264_272793" x1="54" y1="45" x2="64" y2="60" gradientUnits="userSpaceOnUse">
<stop stop-color="#308F5F"/>
<stop offset="1" stop-color="#007DF2"/>
</linearGradient>
</defs>
</svg>
