<svg width="24" height="24" viewBox="0 0 24 24" fill="none" xmlns="http://www.w3.org/2000/svg">
<path d="M11.9883 2.48929C11.7895 2.49239 11.6002 2.57426 11.4617 2.71689C11.3233 2.85953 11.2472 3.05128 11.25 3.25003V11.25H3.25C3.15062 11.2486 3.05194 11.267 2.95972 11.304C2.86749 11.3411 2.78355 11.3961 2.71277 11.4659C2.642 11.5357 2.58579 11.6188 2.54743 11.7105C2.50907 11.8022 2.48932 11.9006 2.48932 12C2.48932 12.0994 2.50907 12.1978 2.54743 12.2895C2.58579 12.3812 2.642 12.4644 2.71277 12.5342C2.78355 12.6039 2.86749 12.659 2.95972 12.696C3.05194 12.7331 3.15062 12.7514 3.25 12.75H11.25V20.75C11.2486 20.8494 11.267 20.9481 11.304 21.0403C11.3411 21.1325 11.3961 21.2165 11.4659 21.2873C11.5357 21.358 11.6188 21.4142 11.7105 21.4526C11.8022 21.491 11.9006 21.5107 12 21.5107C12.0994 21.5107 12.1978 21.491 12.2895 21.4526C12.3812 21.4142 12.4643 21.358 12.5341 21.2873C12.6039 21.2165 12.6589 21.1325 12.696 21.0403C12.733 20.9481 12.7514 20.8494 12.75 20.75V12.75H20.75C20.8494 12.7514 20.9481 12.7331 21.0403 12.696C21.1325 12.659 21.2164 12.6039 21.2872 12.5342C21.358 12.4644 21.4142 12.3812 21.4526 12.2895C21.4909 12.1978 21.5107 12.0994 21.5107 12C21.5107 11.9006 21.4909 11.8022 21.4526 11.7105C21.4142 11.6188 21.358 11.5357 21.2872 11.4659C21.2164 11.3961 21.1325 11.3411 21.0403 11.304C20.9481 11.267 20.8494 11.2486 20.75 11.25H12.75V3.25003C12.7514 3.14965 12.7327 3.05 12.6949 2.95699C12.6571 2.86397 12.6011 2.77949 12.53 2.70855C12.459 2.63761 12.3745 2.58164 12.2814 2.54398C12.1883 2.50632 12.0887 2.48772 11.9883 2.48929Z" />
</svg>
