<svg width="200" height="128" viewBox="0 0 200 128" fill="none" xmlns="http://www.w3.org/2000/svg">
<path fill-rule="evenodd" clip-rule="evenodd" d="M96.8213 12.057C121.699 11.4067 150.77 16.0576 158.417 39.7402C166.04 63.347 144.726 83.4864 124.544 97.9112C105.029 111.859 80.2875 123.307 60.5315 109.702C39.6197 95.3021 35.5523 66.5204 44.3975 42.7204C52.1945 21.7408 74.4473 12.6418 96.8213 12.057Z" fill="#F0F4FF"/>
<path fill-rule="evenodd" clip-rule="evenodd" d="M96.8213 12.057C121.699 11.4067 150.77 16.0576 158.417 39.7402C166.04 63.347 144.726 83.4864 124.544 97.9112C105.029 111.859 80.2875 123.307 60.5315 109.702C39.6197 95.3021 35.5523 66.5204 44.3975 42.7204C52.1945 21.7408 74.4473 12.6418 96.8213 12.057Z" fill="url(#paint0_linear_1264_272804)" fill-opacity="0.2"/>
<mask id="mask0_1264_272804" style="mask-type:alpha" maskUnits="userSpaceOnUse" x="40" y="12" width="120" height="104">
<path fill-rule="evenodd" clip-rule="evenodd" d="M96.8213 12.057C121.699 11.4067 150.77 16.0576 158.417 39.7402C166.04 63.347 144.726 83.4864 124.544 97.9112C105.029 111.859 80.2875 123.307 60.5315 109.702C39.6197 95.3021 35.5523 66.5204 44.3975 42.7204C52.1945 21.7408 74.4473 12.6418 96.8213 12.057Z" fill="#F0F4FF"/>
<path fill-rule="evenodd" clip-rule="evenodd" d="M96.8213 12.057C121.699 11.4067 150.77 16.0576 158.417 39.7402C166.04 63.347 144.726 83.4864 124.544 97.9112C105.029 111.859 80.2875 123.307 60.5315 109.702C39.6197 95.3021 35.5523 66.5204 44.3975 42.7204C52.1945 21.7408 74.4473 12.6418 96.8213 12.057Z" fill="url(#paint1_linear_1264_272804)" fill-opacity="0.2"/>
</mask>
<g mask="url(#mask0_1264_272804)">
<path opacity="0.25" d="M73.5103 36.833C70.1688 36.833 67.4165 39.5853 67.4165 42.9268V74.0726C67.4165 75.7333 68.0964 77.2485 69.1906 78.3527C70.2979 79.47 110.663 119 112.344 119L137.5 97.9998L151.5 79.6144C151.5 78.0602 120.988 46.7167 120.015 45.6351C118.895 44.3913 117.277 43.6038 115.489 43.6038H94.558L88.5039 38.5601C87.1657 37.4452 85.48 36.833 83.7379 36.833H73.5103Z" fill="url(#paint2_linear_1264_272804)"/>
</g>
<path d="M58.9987 41.4489C58.9923 41.4489 58.9859 41.449 58.9795 41.449C56.2296 41.449 53.9982 38.1186 53.9803 34C53.9623 38.1091 51.7412 41.4336 49 41.4489C49 41.4489 49 41.4489 49 41.4489C51.7412 41.4642 53.9623 44.7889 53.9803 48.8979C53.9982 44.7794 56.2296 41.449 58.9795 41.449C58.9859 41.449 58.9923 41.4489 58.9987 41.4489C58.9987 41.4489 58.9987 41.4489 58.9987 41.4489Z" fill="url(#paint3_linear_1264_272804)"/>
<path d="M154.999 70.4489C154.992 70.4489 154.986 70.449 154.98 70.449C152.23 70.449 149.998 67.1186 149.98 63C149.962 67.1091 147.741 70.4336 145 70.4489C145 70.4489 145 70.4489 145 70.4489C147.741 70.4642 149.962 73.7889 149.98 77.8979C149.998 73.7794 152.23 70.449 154.98 70.449C154.986 70.449 154.992 70.4489 154.999 70.4489C154.999 70.4489 154.999 70.4489 154.999 70.4489Z" fill="url(#paint4_linear_1264_272804)"/>
<path d="M86.9987 99.4489C86.9923 99.4489 86.9859 99.449 86.9795 99.449C84.2296 99.449 81.9982 96.1186 81.9803 92C81.9623 96.1091 79.7412 99.4336 77 99.4489C77 99.4489 77 99.4489 77 99.4489C79.7412 99.4642 81.9623 102.789 81.9803 106.898C81.9982 102.779 84.2296 99.449 86.9795 99.449C86.9859 99.449 86.9923 99.4489 86.9987 99.4489C86.9987 99.4489 86.9987 99.4489 86.9987 99.4489Z" fill="url(#paint5_linear_1264_272804)"/>
<path d="M73.5103 36.833C70.1688 36.833 67.4165 39.5853 67.4165 42.9268V74.0726C67.4165 77.414 70.1688 80.1663 73.5103 80.1663H115.489C118.831 80.1663 121.583 77.414 121.583 74.0726V49.6976C121.583 46.3562 118.831 43.6038 115.489 43.6038H94.558L88.5039 38.5601C87.1657 37.4452 85.48 36.833 83.7379 36.833H73.5103Z" fill="#F0F4FF"/>
<path d="M73.5105 36.8335C70.1691 36.8335 67.4167 39.5858 67.4167 42.9272V74.0731C67.4167 77.4145 70.1691 80.1668 73.5105 80.1668H115.49C118.831 80.1668 121.583 77.4145 121.583 74.0731V49.6981C121.583 46.3567 118.831 43.6043 115.49 43.6043H94.5583L88.5042 38.5606C87.166 37.4457 85.4802 36.8335 83.7382 36.8335H73.5105ZM73.5105 40.896H83.7382C84.5311 40.896 85.2952 41.1741 85.9043 41.6815L90.6492 45.6356L85.9043 49.5896C85.2952 50.0971 84.5311 50.3752 83.7382 50.3752H71.4792V42.9272C71.4792 41.7809 72.3642 40.896 73.5105 40.896ZM94.5583 47.6668H115.49C116.636 47.6668 117.521 48.5518 117.521 49.6981V74.0731C117.521 75.2194 116.636 76.1043 115.49 76.1043H73.5105C72.3642 76.1043 71.4792 75.2194 71.4792 74.0731V54.4377H83.7382C85.4802 54.4377 87.166 53.8254 88.5042 52.7106L94.5583 47.6668Z" fill="#0067C8"/>
<defs>
<linearGradient id="paint0_linear_1264_272804" x1="125.5" y1="101.5" x2="49.5" y2="23.5" gradientUnits="userSpaceOnUse">
<stop stop-color="#007DF2"/>
<stop offset="1" stop-color="#53EA9F"/>
</linearGradient>
<linearGradient id="paint1_linear_1264_272804" x1="125.5" y1="101.5" x2="49.5" y2="23.5" gradientUnits="userSpaceOnUse">
<stop stop-color="#007DF2"/>
<stop offset="1" stop-color="#53EA9F"/>
</linearGradient>
<linearGradient id="paint2_linear_1264_272804" x1="67" y1="37" x2="124" y2="94" gradientUnits="userSpaceOnUse">
<stop stop-color="#308F5F"/>
<stop offset="1" stop-color="#007DF2"/>
</linearGradient>
<linearGradient id="paint3_linear_1264_272804" x1="49" y1="34" x2="59" y2="49" gradientUnits="userSpaceOnUse">
<stop stop-color="#308F5F"/>
<stop offset="1" stop-color="#007DF2"/>
</linearGradient>
<linearGradient id="paint4_linear_1264_272804" x1="145" y1="63" x2="155" y2="78" gradientUnits="userSpaceOnUse">
<stop stop-color="#308F5F"/>
<stop offset="1" stop-color="#007DF2"/>
</linearGradient>
<linearGradient id="paint5_linear_1264_272804" x1="77" y1="92" x2="87" y2="107" gradientUnits="userSpaceOnUse">
<stop stop-color="#308F5F"/>
<stop offset="1" stop-color="#007DF2"/>
</linearGradient>
</defs>
</svg>
