<svg width="24" height="24" viewBox="0 0 24 24" fill="none" xmlns="http://www.w3.org/2000/svg">
<path d="M12 1.5C11.225 1.5 10.5054 1.74652 10.001 2.25098C9.7597 2.49225 9.58544 2.78811 9.46094 3.11035C9.23545 3.0425 9.0079 2.97222 8.78223 2.97656C8.1738 2.98826 7.61611 3.24237 7.18555 3.62988C6.58902 4.16675 6.24612 5.004 6.28906 5.89355C5.44062 5.95175 4.67216 6.3568 4.22363 7.01465C3.74841 7.71165 3.67386 8.66938 4.0625 9.55371C3.71174 9.74322 3.41365 10.0072 3.18555 10.3057C2.73014 10.9015 2.5 11.6297 2.5 12.3525C2.5 13.2932 2.90437 14.2338 3.68457 14.8652C4.29897 15.3625 5.17761 15.5446 6.14355 15.498C6.28781 16.2461 6.57254 16.9432 7.11035 17.4512C7.82822 18.1292 8.84375 18.5 10 18.5V19.25C10 19.6161 9.87763 20.271 9.5957 20.7354C9.31378 21.1997 8.97773 21.5 8.25 21.5C8.05292 21.5028 7.86486 21.583 7.72649 21.7234C7.58811 21.8637 7.51053 22.0529 7.51053 22.25C7.51053 22.4471 7.58811 22.6363 7.72649 22.7766C7.86486 22.917 8.05292 22.9972 8.25 23H15.75C15.9471 22.9972 16.1351 22.917 16.2735 22.7766C16.4119 22.6363 16.4895 22.4471 16.4895 22.25C16.4895 22.0529 16.4119 21.8637 16.2735 21.7234C16.1351 21.583 15.9471 21.5028 15.75 21.5C15.0223 21.5 14.6862 21.1997 14.4043 20.7354C14.1224 20.271 14 19.6161 14 19.25V18.5C15.1562 18.5 16.1718 18.1292 16.8896 17.4512C17.4275 16.9432 17.7122 16.2461 17.8564 15.498C18.8224 15.5446 19.701 15.3625 20.3154 14.8652C21.0956 14.2338 21.5 13.2932 21.5 12.3525C21.5 11.6297 21.2699 10.9015 20.8145 10.3057C20.5864 10.0072 20.2883 9.74322 19.9375 9.55371C20.3261 8.66938 20.2516 7.71165 19.7764 7.01465C19.3278 6.3568 18.5594 5.95175 17.7109 5.89355C17.7539 5.004 17.411 4.16675 16.8145 3.62988C16.3839 3.24237 15.8262 2.98826 15.2178 2.97656C14.9921 2.97222 14.7645 3.0425 14.5391 3.11035C14.4146 2.78811 14.2403 2.49225 13.999 2.25098C13.4946 1.74652 12.775 1.5 12 1.5ZM12 3C12.475 3 12.7554 3.12848 12.9385 3.31152C13.1215 3.49457 13.25 3.775 13.25 4.25C13.2501 4.3983 13.2941 4.54326 13.3765 4.66655C13.4589 4.78985 13.576 4.88594 13.713 4.94269C13.8501 4.99944 14.0008 5.0143 14.1463 4.98539C14.2917 4.95648 14.4254 4.8851 14.5303 4.78027C14.7801 4.53049 14.9844 4.47264 15.1885 4.47656C15.3925 4.48049 15.6161 4.57013 15.8105 4.74512C16.1994 5.0951 16.4338 5.70573 16.0791 6.41504C16.0119 6.54985 15.9868 6.70179 16.0071 6.85107C16.0274 7.00034 16.0923 7.14003 16.1931 7.25195C16.294 7.36386 16.4262 7.44282 16.5725 7.47853C16.7189 7.51424 16.8726 7.50504 17.0137 7.45215C17.7155 7.18898 18.2581 7.45253 18.5361 7.86035C18.8142 8.26817 18.8927 8.79676 18.2197 9.46973C18.1149 9.57463 18.0435 9.70825 18.0146 9.85371C17.9857 9.99917 18.0006 10.1499 18.0573 10.287C18.1141 10.424 18.2102 10.5411 18.3334 10.6235C18.4567 10.7059 18.6017 10.7499 18.75 10.75C19.1259 10.75 19.391 10.9131 19.623 11.2168C19.8551 11.5205 20 11.9684 20 12.3525C20 12.8623 19.7794 13.3705 19.3721 13.7002C18.9648 14.0298 18.3598 14.228 17.4131 14.0176C17.3034 13.9932 17.1896 13.9937 17.0802 14.0191C16.9707 14.0446 16.8684 14.0943 16.7807 14.1646C16.6931 14.2349 16.6224 14.324 16.5738 14.4254C16.5252 14.5267 16.5 14.6376 16.5 14.75C16.5 15.4464 16.2675 15.9768 15.8604 16.3613C15.4532 16.7458 14.8438 17 14 17V16.25C14.0014 16.1506 13.983 16.0519 13.946 15.9597C13.9089 15.8675 13.8539 15.7836 13.7841 15.7128C13.7143 15.642 13.6312 15.5858 13.5395 15.5474C13.4478 15.5091 13.3494 15.4893 13.25 15.4893C13.1506 15.4893 13.0522 15.5091 12.9605 15.5474C12.8688 15.5858 12.7857 15.642 12.7159 15.7128C12.6461 15.7836 12.5911 15.8675 12.554 15.9597C12.517 16.0519 12.4986 16.1506 12.5 16.25V19.25C12.5 19.88 12.6462 20.7185 13.1162 21.5H10.8838C11.3538 20.7185 11.5 19.88 11.5 19.25V16.25C11.5014 16.1496 11.4827 16.05 11.4449 15.957C11.4071 15.8639 11.3511 15.7795 11.28 15.7085C11.209 15.6376 11.1245 15.5816 11.0314 15.544C10.9383 15.5063 10.8387 15.4877 10.7383 15.4893C10.5395 15.4924 10.3502 15.5742 10.2117 15.7169C10.0733 15.8595 9.99715 16.0513 10 16.25V17C9.15625 17 8.54678 16.7458 8.13965 16.3613C7.73251 15.9768 7.5 15.4464 7.5 14.75C7.50004 14.6376 7.47483 14.5267 7.42624 14.4254C7.37765 14.324 7.30691 14.2349 7.21926 14.1646C7.1316 14.0943 7.02927 14.0446 6.91982 14.0191C6.81037 13.9937 6.6966 13.9932 6.58691 14.0176C5.64019 14.228 5.03523 14.0298 4.62793 13.7002C4.22063 13.3705 4 12.8623 4 12.3525C4 11.9684 4.14486 11.5205 4.37695 11.2168C4.60905 10.9131 4.8741 10.75 5.25 10.75C5.3983 10.7499 5.54326 10.7059 5.66655 10.6235C5.78985 10.5411 5.88594 10.424 5.94269 10.287C5.99944 10.1499 6.0143 9.99917 5.98539 9.85371C5.95648 9.70825 5.8851 9.57463 5.78027 9.46973C5.1073 8.79676 5.18581 8.26817 5.46387 7.86035C5.74193 7.45253 6.28454 7.18898 6.98633 7.45215C7.12739 7.50504 7.28111 7.51424 7.42747 7.47853C7.57383 7.44282 7.70605 7.36386 7.8069 7.25195C7.90775 7.14003 7.97256 7.00034 7.99289 6.85107C8.01323 6.70179 7.98814 6.54985 7.9209 6.41504C7.56624 5.70573 7.80058 5.0951 8.18945 4.74512C8.38389 4.57013 8.60745 4.48049 8.81152 4.47656C9.01559 4.47264 9.21994 4.53049 9.46973 4.78027C9.57463 4.8851 9.70825 4.95648 9.85371 4.98539C9.99917 5.0143 10.1499 4.99944 10.287 4.94269C10.424 4.88594 10.5411 4.78985 10.6235 4.66655C10.7059 4.54326 10.7499 4.3983 10.75 4.25C10.75 3.775 10.8785 3.49457 11.0615 3.31152C11.2446 3.12848 11.525 3 12 3Z"/>
</svg>
