<svg width="24" height="24" viewBox="0 0 24 24" fill="none" xmlns="http://www.w3.org/2000/svg">
<path d="M6 4C3.8621 4 2 5.50219 2 7.5C2 9.49781 3.8621 11 6 11C8.1379 11 10 9.49781 10 7.5C10 5.50219 8.1379 4 6 4ZM6 5.5C7.45196 5.5 8.5 6.46024 8.5 7.5C8.5 8.53976 7.45196 9.5 6 9.5C4.54804 9.5 3.5 8.53976 3.5 7.5C3.5 6.46024 4.54804 5.5 6 5.5ZM17.4268 6.24023C16.5924 6.25441 15.7899 6.55382 15.1719 7.17188C13.7592 8.58457 14.0136 10.9629 15.5254 12.4746C17.0371 13.9863 19.4155 14.2408 20.8281 12.8281C22.2408 11.4154 21.9864 9.03709 20.4746 7.52539C19.6243 6.67506 18.4996 6.22201 17.4268 6.24023ZM17.7139 7.74805C18.2891 7.79999 18.9007 8.0726 19.4141 8.58594C20.4408 9.61261 20.5028 11.0323 19.7676 11.7676C19.0324 12.5028 17.6126 12.4407 16.5859 11.4141C15.5592 10.3874 15.4972 8.96765 16.2324 8.23242C16.6 7.86481 17.1386 7.6961 17.7139 7.74805ZM8.06543 11.9111C6.6931 11.9245 5.42162 12.5992 4.85547 13.8506C4.03198 15.6708 5.10882 17.8072 7.05664 18.6885C7.82537 19.0363 8.65093 19.1495 9.41992 19.0518C10.0893 20.2438 11.4604 21 13 21C15.1379 21 17 19.4979 17 17.5C17 15.5021 15.1379 14 13 14C12.6374 14 12.2866 14.0471 11.9502 14.127C11.5204 13.3626 10.8213 12.7082 9.94238 12.3105C9.33369 12.0352 8.68922 11.905 8.06543 11.9111ZM7.87402 13.415C8.32783 13.3749 8.82814 13.4533 9.32422 13.6777C10.6471 14.2762 11.2059 15.583 10.7773 16.5303C10.3488 17.4776 8.99865 17.9198 7.67578 17.3213C6.35291 16.7228 5.79309 15.4161 6.22168 14.4688C6.48955 13.8767 7.11768 13.4819 7.87402 13.415ZM13 15.5C14.4521 15.5 15.5 16.4599 15.5 17.5C15.5 18.5401 14.4521 19.5 13 19.5C12.0824 19.5 11.3171 19.0942 10.8867 18.5508C11.4253 18.2246 11.8695 17.7563 12.1445 17.1484C12.3781 16.6322 12.454 16.0908 12.4053 15.5596C12.5953 15.522 12.7939 15.5 13 15.5Z"/>
</svg>
