<svg width="24" height="24" viewBox="0 0 24 24" fill="none" xmlns="http://www.w3.org/2000/svg">
<path d="M9.27148 3.99999C9.10555 3.99531 8.94275 4.04579 8.80859 4.14355L3.30859 8.14355C3.21299 8.21315 3.1352 8.30437 3.08157 8.40977C3.02794 8.51516 2.99999 8.63174 3 8.74999V19.25C3.00001 19.3884 3.0383 19.524 3.11062 19.642C3.18295 19.76 3.2865 19.8556 3.40982 19.9184C3.53313 19.9812 3.67141 20.0086 3.80935 19.9977C3.94729 19.9867 4.07952 19.9379 4.19141 19.8564L9.25 16.1777L14.3086 19.8564C14.4368 19.9498 14.5914 20.0001 14.75 20.0001C14.9086 20.0001 15.0632 19.9498 15.1914 19.8564L20.6914 15.8564C20.787 15.7868 20.8648 15.6956 20.9184 15.5902C20.9721 15.4848 21 15.3682 21 15.25V4.74999C21 4.61162 20.9617 4.47595 20.8894 4.35798C20.817 4.24002 20.7135 4.14436 20.5902 4.08159C20.4669 4.01882 20.3286 3.99138 20.1906 4.00232C20.0527 4.01325 19.9205 4.06213 19.8086 4.14355L14.75 7.82226L9.69141 4.14355C9.56912 4.05444 9.42273 4.00439 9.27148 3.99999ZM9.25 5.67773L14.3086 9.35644C14.4368 9.44979 14.5914 9.50007 14.75 9.50007C14.9086 9.50007 15.0632 9.44979 15.1914 9.35644L19.5 6.22265V14.8682L14.75 18.3223L9.69141 14.6435C9.56316 14.5502 9.40862 14.4999 9.25 14.4999C9.09138 14.4999 8.93684 14.5502 8.80859 14.6435L4.5 17.7773V9.13183L9.25 5.67773ZM8.74316 8.98925C8.54509 8.99393 8.35692 9.07678 8.21973 9.21972L7.75 9.68945L7.28027 9.21972C7.21036 9.14773 7.12672 9.09049 7.03429 9.05141C6.94187 9.01233 6.84254 8.99219 6.74219 8.99218C6.59293 8.99222 6.44707 9.03679 6.32328 9.12018C6.19949 9.20358 6.1034 9.32201 6.0473 9.46033C5.99119 9.59864 5.97763 9.75055 6.00835 9.89662C6.03907 10.0427 6.11267 10.1763 6.21973 10.2803L6.68945 10.75L6.21973 11.2197C6.14775 11.2888 6.09028 11.3716 6.0507 11.4632C6.01111 11.5548 5.9902 11.6534 5.98918 11.7532C5.98817 11.8529 6.00707 11.9519 6.04479 12.0443C6.08251 12.1367 6.13828 12.2206 6.20883 12.2912C6.27939 12.3617 6.36332 12.4175 6.4557 12.4552C6.54808 12.4929 6.64706 12.5118 6.74684 12.5108C6.84662 12.5098 6.9452 12.4889 7.03679 12.4493C7.12839 12.4097 7.21116 12.3522 7.28027 12.2803L7.75 11.8105L8.21973 12.2803C8.28884 12.3522 8.37161 12.4097 8.46321 12.4493C8.5548 12.4889 8.65338 12.5098 8.75316 12.5108C8.85294 12.5118 8.95192 12.4929 9.0443 12.4552C9.13668 12.4175 9.22061 12.3617 9.29117 12.2912C9.36172 12.2206 9.41749 12.1367 9.45521 12.0443C9.49293 11.9519 9.51183 11.8529 9.51082 11.7532C9.50981 11.6534 9.48889 11.5548 9.4493 11.4632C9.40972 11.3716 9.35225 11.2888 9.28027 11.2197L8.81055 10.75L9.28027 10.2803C9.38934 10.1756 9.46423 10.0404 9.49512 9.89242C9.52602 9.74444 9.51148 9.59057 9.45341 9.451C9.39534 9.31143 9.29646 9.19265 9.16972 9.11026C9.04297 9.02786 8.89429 8.98568 8.74316 8.98925ZM17.75 9.49999C17.5511 9.49999 17.3603 9.57901 17.2197 9.71966C17.079 9.86032 17 10.0511 17 10.25C17 10.4489 17.079 10.6397 17.2197 10.7803C17.3603 10.921 17.5511 11 17.75 11C17.9489 11 18.1397 10.921 18.2803 10.7803C18.421 10.6397 18.5 10.4489 18.5 10.25C18.5 10.0511 18.421 9.86032 18.2803 9.71966C18.1397 9.57901 17.9489 9.49999 17.75 9.49999ZM11.25 10.25C11.0511 10.25 10.8603 10.329 10.7197 10.4697C10.579 10.6103 10.5 10.8011 10.5 11C10.5 11.1989 10.579 11.3897 10.7197 11.5303C10.8603 11.671 11.0511 11.75 11.25 11.75C11.4489 11.75 11.6397 11.671 11.7803 11.5303C11.921 11.3897 12 11.1989 12 11C12 10.8011 11.921 10.6103 11.7803 10.4697C11.6397 10.329 11.4489 10.25 11.25 10.25ZM13.25 11.5C13.0511 11.5 12.8603 11.579 12.7197 11.7197C12.579 11.8603 12.5 12.0511 12.5 12.25C12.5 12.4489 12.579 12.6397 12.7197 12.7803C12.8603 12.921 13.0511 13 13.25 13C13.4489 13 13.6397 12.921 13.7803 12.7803C13.921 12.6397 14 12.4489 14 12.25C14 12.0511 13.921 11.8603 13.7803 11.7197C13.6397 11.579 13.4489 11.5 13.25 11.5ZM16.25 11.5C16.0511 11.5 15.8603 11.579 15.7197 11.7197C15.579 11.8603 15.5 12.0511 15.5 12.25C15.5 12.4489 15.579 12.6397 15.7197 12.7803C15.8603 12.921 16.0511 13 16.25 13C16.4489 13 16.6397 12.921 16.7803 12.7803C16.921 12.6397 17 12.4489 17 12.25C17 12.0511 16.921 11.8603 16.7803 11.7197C16.6397 11.579 16.4489 11.5 16.25 11.5ZM14.75 13.5C14.5511 13.5 14.3603 13.579 14.2197 13.7197C14.079 13.8603 14 14.0511 14 14.25C14 14.4489 14.079 14.6397 14.2197 14.7803C14.3603 14.921 14.5511 15 14.75 15C14.9489 15 15.1397 14.921 15.2803 14.7803C15.421 14.6397 15.5 14.4489 15.5 14.25C15.5 14.0511 15.421 13.8603 15.2803 13.7197C15.1397 13.579 14.9489 13.5 14.75 13.5Z" />
</svg>
