<svg width="200" height="128" viewBox="0 0 200 128" fill="none" xmlns="http://www.w3.org/2000/svg">
<path fill-rule="evenodd" clip-rule="evenodd" d="M97.4918 4.02646C121.525 3.26552 142.827 18.9916 150.776 41.6853C159.348 66.1563 155.264 94.4163 134.675 110.177C112.543 127.12 80.7455 129.407 59.0605 111.895C39.7505 96.3004 45.3398 68.1406 53.6699 44.7598C61.0697 23.99 75.4542 4.72419 97.4918 4.02646Z" fill="#F0F4FF"/>
<path fill-rule="evenodd" clip-rule="evenodd" d="M97.4918 4.02646C121.525 3.26552 142.827 18.9916 150.776 41.6853C159.348 66.1563 155.264 94.4163 134.675 110.177C112.543 127.12 80.7455 129.407 59.0605 111.895C39.7505 96.3004 45.3398 68.1406 53.6699 44.7598C61.0697 23.99 75.4542 4.72419 97.4918 4.02646Z" fill="url(#paint0_linear_1264_272815)" fill-opacity="0.2"/>
<mask id="mask0_1264_272815" style="mask-type:alpha" maskUnits="userSpaceOnUse" x="46" y="4" width="109" height="120">
<path fill-rule="evenodd" clip-rule="evenodd" d="M97.4918 4.02646C121.525 3.26552 142.827 18.9916 150.776 41.6853C159.348 66.1563 155.264 94.4163 134.675 110.177C112.543 127.12 80.7455 129.407 59.0605 111.895C39.7505 96.3004 45.3398 68.1406 53.6699 44.7598C61.0697 23.99 75.4542 4.72419 97.4918 4.02646Z" fill="#F0F4FF"/>
<path fill-rule="evenodd" clip-rule="evenodd" d="M97.4918 4.02646C121.525 3.26552 142.827 18.9916 150.776 41.6853C159.348 66.1563 155.264 94.4163 134.675 110.177C112.543 127.12 80.7455 129.407 59.0605 111.895C39.7505 96.3004 45.3398 68.1406 53.6699 44.7598C61.0697 23.99 75.4542 4.72419 97.4918 4.02646Z" fill="url(#paint1_linear_1264_272815)" fill-opacity="0.2"/>
</mask>
<g mask="url(#mask0_1264_272815)">
<path opacity="0.25" d="M98.4989 37.125C89.5484 37.125 82.2489 44.4244 82.2489 53.375C82.2489 57.3794 84.6236 61.8333 87.3165 66.2607C90.0094 70.6881 93.1487 74.9014 95.0897 77.4035C96.7856 79.5887 100.212 79.5887 101.908 77.4035C103.849 74.9014 126.807 137.927 129.5 133.5C132.193 129.073 158 100.63 158 96.6261C158 92.0011 112.8 44.566 109.681 41.602C106.765 38.8299 102.825 37.125 98.4989 37.125ZM98.4989 49.3125C97.4215 49.3125 96.3882 49.7405 95.6263 50.5024C94.8644 51.2642 94.4364 52.2976 94.4364 53.375C94.4364 54.4524 94.8644 55.4858 95.6263 56.2476C96.3882 57.0095 97.4215 57.4375 98.4989 57.4375C99.5764 57.4375 100.61 57.0095 101.372 56.2476C102.133 55.4858 102.561 54.4524 102.561 53.375C102.561 52.2976 102.133 51.2642 101.372 50.5024C100.61 49.7405 99.5764 49.3125 98.4989 49.3125ZM81.876 70.9792C80.0046 70.9792 78.3021 72.0843 77.5437 73.7933L74.5365 80.5641C73.8825 82.0361 74.0134 83.7209 74.8909 85.071C75.7698 86.4224 115.89 125.863 117.5 125.863L136 117.5C137.61 117.5 121.227 86.4224 122.104 85.071C122.983 83.7209 123.115 82.0375 122.461 80.5641L119.454 73.7933C118.694 72.0843 116.995 70.9792 115.122 70.9792H92.5C91.6374 72.2859 108.914 73.6387 107.904 75.0417H115.122C115.389 75.0417 115.632 75.1986 115.741 75.4437L118.748 82.2145C118.878 82.507 118.774 82.7448 118.698 82.8599C118.622 82.975 118.451 73.5 118.132 73.5H78.8662C78.5466 73.5 78.372 82.9723 78.2975 82.8572C78.223 82.7421 78.1186 82.507 78.2473 82.2145L81.2571 75.4437C81.3654 75.1999 81.6092 75.0417 81.876 75.0417H108C106.988 73.6387 93.3612 72.2859 92.5 70.9792H81.876Z" fill="url(#paint2_linear_1264_272815)"/>
</g>
<path d="M52.0001 82.449C52.0065 82.449 52.0129 82.449 52.0193 82.449C54.7692 82.449 57.0006 85.7794 57.0185 89.8979C57.0365 85.7889 59.2576 82.4644 61.9988 82.449C61.9988 82.449 61.9988 82.4491 61.9988 82.449C59.2576 82.4337 57.0365 79.1091 57.0185 75C57.0006 79.1186 54.7692 82.449 52.0193 82.449C52.0129 82.449 52.0065 82.449 52.0001 82.449C52.0001 82.449 52.0001 82.4491 52.0001 82.449Z" fill="url(#paint3_linear_1264_272815)"/>
<path d="M116 104.449C116.006 104.449 116.013 104.449 116.019 104.449C118.769 104.449 121.001 107.779 121.019 111.898C121.036 107.789 123.258 104.464 125.999 104.449C125.999 104.449 125.999 104.449 125.999 104.449C123.258 104.434 121.036 101.109 121.019 97C121.001 101.119 118.769 104.449 116.019 104.449C116.013 104.449 116.006 104.449 116 104.449C116 104.449 116 104.449 116 104.449Z" fill="url(#paint4_linear_1264_272815)"/>
<path d="M122 24.449C122.006 24.449 122.013 24.449 122.019 24.449C124.769 24.449 127.001 27.7794 127.019 31.8979C127.036 27.7889 129.258 24.4644 131.999 24.449C131.999 24.449 131.999 24.4491 131.999 24.449C129.258 24.4337 127.036 21.1091 127.019 17C127.001 21.1186 124.769 24.449 122.019 24.449C122.013 24.449 122.006 24.449 122 24.449C122 24.449 122 24.4491 122 24.449Z" fill="url(#paint5_linear_1264_272815)"/>
<path d="M98.4989 37.125C89.5484 37.125 82.2489 44.4244 82.2489 53.375C82.2489 57.3794 84.6236 61.8333 87.3165 66.2607C90.0094 70.6881 93.1487 74.9014 95.0897 77.4035C96.7856 79.5887 100.212 79.5887 101.908 77.4035C103.849 74.9014 106.988 70.6881 109.681 66.2607C112.374 61.8333 114.749 57.3794 114.749 53.375C114.749 44.4244 107.45 37.125 98.4989 37.125ZM98.4989 49.3125C97.4215 49.3125 96.3882 49.7405 95.6263 50.5024C94.8644 51.2642 94.4364 52.2976 94.4364 53.375C94.4364 54.4524 94.8644 55.4858 95.6263 56.2476C96.3882 57.0095 97.4215 57.4375 98.4989 57.4375C99.5764 57.4375 100.61 57.0095 101.372 56.2476C102.133 55.4858 102.561 54.4524 102.561 53.375C102.561 52.2976 102.133 51.2642 101.372 50.5024C100.61 49.7405 99.5764 49.3125 98.4989 49.3125ZM81.876 70.9792C80.0046 70.9792 78.3021 72.0843 77.5437 73.7933L74.5365 80.5641C73.8825 82.0361 74.0134 83.7209 74.8909 85.071C75.7698 86.4224 77.2561 87.2292 78.8662 87.2292H118.129C119.739 87.2292 121.227 86.4224 122.104 85.071C122.983 83.7209 123.115 82.0375 122.461 80.5641L119.454 73.7933C118.694 72.0843 116.995 70.9792 115.122 70.9792H92.5C91.6374 72.2859 108.914 73.6387 107.904 75.0417H115.122C115.389 75.0417 115.632 75.1986 115.741 75.4437L118.748 82.2145C118.878 82.507 118.774 82.7448 118.698 82.8599C118.622 82.975 118.451 73.5 118.132 73.5H78.8662C78.5466 73.5 78.372 82.9723 78.2975 82.8572C78.223 82.7421 78.1186 82.507 78.2473 82.2145L81.2571 75.4437C81.3654 75.1999 81.6092 75.0417 81.876 75.0417H108C106.988 73.6387 93.3612 72.2859 92.5 70.9792H81.876Z" fill="#F0F4FF"/>
<path d="M98.4989 37.125C89.5484 37.125 82.2489 44.4244 82.2489 53.375C82.2489 57.3794 84.6236 61.8333 87.3165 66.2607C90.0094 70.6881 93.1487 74.9014 95.0897 77.4035C96.7856 79.5887 100.212 79.5887 101.908 77.4035C103.849 74.9014 106.988 70.6881 109.681 66.2607C112.374 61.8333 114.749 57.3794 114.749 53.375C114.749 44.4244 107.45 37.125 98.4989 37.125ZM98.4989 41.1875C105.254 41.1875 110.686 46.62 110.686 53.375C110.686 55.4739 108.767 59.9447 106.209 64.1501C103.651 68.3556 100.583 72.4836 98.6973 74.9147C98.5624 75.0885 98.4355 75.0885 98.3006 74.9147C96.4147 72.4836 93.3471 68.3556 90.7892 64.1501C88.2313 59.9447 86.3114 55.4739 86.3114 53.375C86.3114 46.62 91.7439 41.1875 98.4989 41.1875ZM98.4989 49.3125C97.4215 49.3125 96.3882 49.7405 95.6263 50.5024C94.8644 51.2642 94.4364 52.2976 94.4364 53.375C94.4364 54.4524 94.8644 55.4858 95.6263 56.2476C96.3882 57.0095 97.4215 57.4375 98.4989 57.4375C99.5764 57.4375 100.61 57.0095 101.372 56.2476C102.133 55.4858 102.561 54.4524 102.561 53.375C102.561 52.2976 102.133 51.2642 101.372 50.5024C100.61 49.7405 99.5764 49.3125 98.4989 49.3125ZM81.876 70.9792C80.0046 70.9792 78.3021 72.0843 77.5437 73.7933L74.5365 80.5641C73.8825 82.0361 74.0134 83.7209 74.8909 85.071C75.7698 86.4224 77.2561 87.2292 78.8662 87.2292H118.129C119.739 87.2292 121.227 86.4224 122.104 85.071C122.983 83.7209 123.115 82.0375 122.461 80.5641L119.454 73.7933C118.694 72.0843 116.995 70.9792 115.122 70.9792H110.713C109.85 72.2859 108.914 73.6387 107.904 75.0417H115.122C115.389 75.0417 115.632 75.1986 115.741 75.4437L118.748 82.2145C118.878 82.507 118.774 82.7448 118.698 82.8599C118.622 82.975 118.451 83.1667 118.132 83.1667H78.8662C78.5466 83.1667 78.372 82.9723 78.2975 82.8572C78.223 82.7421 78.1186 82.507 78.2473 82.2145L81.2571 75.4437C81.3654 75.1999 81.6092 75.0417 81.876 75.0417H89.0912C88.0796 73.6387 87.1462 72.2859 86.285 70.9792H81.876Z" fill="#0067C8"/>
<defs>
<linearGradient id="paint0_linear_1264_272815" x1="126.563" y1="104" x2="75.2176" y2="4.48068" gradientUnits="userSpaceOnUse">
<stop stop-color="#007DF2"/>
<stop offset="1" stop-color="#53EA9F"/>
</linearGradient>
<linearGradient id="paint1_linear_1264_272815" x1="126.563" y1="104" x2="75.2176" y2="4.48068" gradientUnits="userSpaceOnUse">
<stop stop-color="#007DF2"/>
<stop offset="1" stop-color="#53EA9F"/>
</linearGradient>
<linearGradient id="paint2_linear_1264_272815" x1="73.7095" y1="37.3213" x2="139.826" y2="93.4212" gradientUnits="userSpaceOnUse">
<stop stop-color="#308F5F"/>
<stop offset="1" stop-color="#007DF2"/>
</linearGradient>
<linearGradient id="paint3_linear_1264_272815" x1="51.9998" y1="75" x2="61.9998" y2="90" gradientUnits="userSpaceOnUse">
<stop stop-color="#308F5F"/>
<stop offset="1" stop-color="#007DF2"/>
</linearGradient>
<linearGradient id="paint4_linear_1264_272815" x1="116" y1="97" x2="126" y2="112" gradientUnits="userSpaceOnUse">
<stop stop-color="#308F5F"/>
<stop offset="1" stop-color="#007DF2"/>
</linearGradient>
<linearGradient id="paint5_linear_1264_272815" x1="122" y1="17" x2="132" y2="32" gradientUnits="userSpaceOnUse">
<stop stop-color="#308F5F"/>
<stop offset="1" stop-color="#007DF2"/>
</linearGradient>
</defs>
</svg>
