<svg width="24" height="24" viewBox="0 0 24 24" fill="none" xmlns="http://www.w3.org/2000/svg">
<path d="M5.96193 1.50099C5.81117 1.50857 5.6662 1.56147 5.54598 1.65277C5.42576 1.74406 5.33588 1.86951 5.28811 2.01271L4.34475 4.84474L1.51271 5.7881C1.36313 5.83773 1.23297 5.93322 1.14073 6.06101C1.04849 6.1888 0.99884 6.3424 0.99884 6.50001C0.99884 6.65762 1.04849 6.81122 1.14073 6.93901C1.23297 7.06681 1.36313 7.16229 1.51271 7.21193L4.34377 8.15626L5.28811 10.9873C5.33774 11.1369 5.43323 11.2671 5.56102 11.3593C5.68881 11.4515 5.84241 11.5012 6.00002 11.5012C6.15763 11.5012 6.31123 11.4515 6.43902 11.3593C6.56681 11.2671 6.6623 11.1369 6.71193 10.9873L7.65529 8.15528L10.4873 7.21193C10.6369 7.16229 10.7671 7.06681 10.8593 6.93901C10.9516 6.81122 11.0012 6.65762 11.0012 6.50001C11.0012 6.3424 10.9516 6.1888 10.8593 6.06101C10.7671 5.93322 10.6369 5.83773 10.4873 5.7881L7.65529 4.84474L6.71193 2.01271C6.66004 1.85716 6.55861 1.7229 6.42315 1.63048C6.2877 1.53806 6.12569 1.49258 5.96193 1.50099ZM6.00002 4.62306L6.35061 5.67482C6.38742 5.78535 6.44948 5.88579 6.53186 5.96817C6.61424 6.05055 6.71468 6.11261 6.82521 6.14943L7.87697 6.50001L6.82521 6.8506C6.71468 6.88741 6.61424 6.94947 6.53186 7.03185C6.44948 7.11423 6.38742 7.21467 6.35061 7.32521L6.00002 8.37696L5.64943 7.32521C5.61262 7.21467 5.55056 7.11423 5.46818 7.03185C5.3858 6.94947 5.28536 6.88741 5.17482 6.8506L4.12307 6.50001L5.17482 6.14943C5.28536 6.11261 5.3858 6.05055 5.46818 5.96817C5.55056 5.88579 5.61262 5.78535 5.64943 5.67482L6.00002 4.62306ZM15.7197 6.00099C15.5663 6.00721 15.4185 6.06036 15.2963 6.15327C15.174 6.24618 15.0832 6.37436 15.0362 6.52052L13.5733 11.0733L9.02053 12.5361C8.86951 12.5849 8.73782 12.6802 8.64442 12.8085C8.55101 12.9367 8.50068 13.0913 8.50068 13.25C8.50068 13.4087 8.55101 13.5633 8.64442 13.6916C8.73782 13.8198 8.86951 13.9152 9.02053 13.9639L13.5733 15.4268L15.0362 19.9795C15.0849 20.1305 15.1802 20.2622 15.3085 20.3556C15.4367 20.449 15.5913 20.4993 15.75 20.4993C15.9087 20.4993 16.0633 20.449 16.1916 20.3556C16.3198 20.2622 16.4152 20.1305 16.4639 19.9795L17.9268 15.4268L22.4795 13.9639C22.6305 13.9152 22.7622 13.8198 22.8556 13.6916C22.949 13.5633 22.9994 13.4087 22.9994 13.25C22.9994 13.0913 22.949 12.9367 22.8556 12.8085C22.7622 12.6802 22.6305 12.5849 22.4795 12.5361L17.9268 11.0733L16.4639 6.52052C16.4136 6.36452 16.3137 6.22926 16.1793 6.13544C16.0449 6.04162 15.8835 5.99439 15.7197 6.00099ZM15.75 9.20021L16.6172 11.8984C16.6537 12.0118 16.7166 12.1149 16.8009 12.1992C16.8851 12.2834 16.9882 12.3463 17.1016 12.3828L19.7998 13.25L17.1016 14.1172C16.9882 14.1537 16.8851 14.2166 16.8009 14.3009C16.7166 14.3851 16.6537 14.4882 16.6172 14.6016L15.75 17.2998L14.8828 14.6016C14.8464 14.4882 14.7834 14.3851 14.6992 14.3009C14.6149 14.2166 14.5119 14.1537 14.3985 14.1172L11.7002 13.25L14.3985 12.3828C14.5119 12.3463 14.6149 12.2834 14.6992 12.1992C14.7834 12.1149 14.8464 12.0118 14.8828 11.8984L15.75 9.20021ZM5.21193 14.001C5.06117 14.0086 4.9162 14.0615 4.79598 14.1528C4.67576 14.2441 4.58588 14.3695 4.53811 14.5127L3.78127 16.7822L1.51271 17.5381C1.36313 17.5877 1.23297 17.6832 1.14073 17.811C1.04849 17.9388 0.99884 18.0924 0.99884 18.25C0.99884 18.4076 1.04849 18.5612 1.14073 18.689C1.23297 18.8168 1.36313 18.9123 1.51271 18.9619L3.78127 19.7178L4.53811 21.9873C4.58774 22.1369 4.68323 22.2671 4.81102 22.3593C4.93881 22.4515 5.09241 22.5012 5.25002 22.5012C5.40763 22.5012 5.56123 22.4515 5.68902 22.3593C5.81681 22.2671 5.9123 22.1369 5.96193 21.9873L6.71779 19.7178L8.98732 18.9619C9.13691 18.9123 9.26707 18.8168 9.35931 18.689C9.45155 18.5612 9.5012 18.4076 9.5012 18.25C9.5012 18.0924 9.45155 17.9388 9.35931 17.811C9.26707 17.6832 9.13691 17.5877 8.98732 17.5381L6.71877 16.7813L5.96193 14.5127C5.91004 14.3572 5.80861 14.2229 5.67315 14.1305C5.5377 14.0381 5.37569 13.9926 5.21193 14.001ZM5.25002 17.1221L5.41311 17.6123C5.44992 17.7229 5.51198 17.8233 5.59436 17.9057C5.67674 17.9881 5.77718 18.0501 5.88771 18.0869L6.37697 18.25L5.88771 18.4131C5.77718 18.4499 5.67674 18.512 5.59436 18.5944C5.51198 18.6767 5.44992 18.7772 5.41311 18.8877L5.25002 19.3779L5.08596 18.8877C5.04914 18.7772 4.98708 18.6767 4.9047 18.5944C4.82232 18.512 4.72188 18.4499 4.61135 18.4131L4.12209 18.25L4.61135 18.0869C4.72188 18.0501 4.82232 17.9881 4.9047 17.9057C4.98708 17.8233 5.04914 17.7229 5.08596 17.6123L5.25002 17.1221Z" fill="#3A4445"/>
</svg>
