<svg width="24" height="24" viewBox="0 0 24 24" fill="none" xmlns="http://www.w3.org/2000/svg">
<path d="M22 17.7393C21.9971 17.5441 21.9183 17.3577 21.7803 17.2197L19.2803 14.7197C19.2112 14.6477 19.1284 14.5903 19.0368 14.5507C18.9452 14.5111 18.8466 14.4902 18.7468 14.4892C18.6471 14.4882 18.5481 14.5071 18.4557 14.5448C18.3633 14.5825 18.2794 14.6383 18.2088 14.7088C18.1383 14.7794 18.0825 14.8633 18.0448 14.9557C18.0071 15.0481 17.9882 15.1471 17.9892 15.2468C17.9902 15.3466 18.0111 15.4452 18.0507 15.5368C18.0903 15.6284 18.1477 15.7112 18.2197 15.7803L19.4395 17H12.75C12.0509 17 11.5 16.4491 11.5 15.75V8.74999C11.5014 8.65061 11.483 8.55194 11.446 8.45971C11.4089 8.36749 11.3539 8.28355 11.2841 8.21277C11.2143 8.14199 11.1312 8.08579 11.0395 8.04743C10.9478 8.00907 10.8494 7.98931 10.75 7.98931C10.6506 7.98931 10.5522 8.00907 10.4605 8.04743C10.3688 8.08579 10.2857 8.14199 10.2159 8.21277C10.1461 8.28355 10.0911 8.36749 10.054 8.45971C10.017 8.55194 9.9986 8.65061 10 8.74999L10 15.75C10 17.2599 11.2401 18.5 12.75 18.5H19.4395L18.2197 19.7197C18.1477 19.7888 18.0903 19.8716 18.0507 19.9632C18.0111 20.0548 17.9902 20.1534 17.9892 20.2532C17.9882 20.3529 18.0071 20.4519 18.0448 20.5443C18.0825 20.6367 18.1383 20.7206 18.2088 20.7912C18.2794 20.8617 18.3633 20.9175 18.4557 20.9552C18.5481 20.9929 18.6471 21.0118 18.7468 21.0108C18.8466 21.0098 18.9452 20.9889 19.0368 20.9493C19.1284 20.9097 19.2112 20.8522 19.2803 20.7803L21.7803 18.2803C21.8512 18.2094 21.9072 18.1249 21.9449 18.032C21.9827 17.9391 22.0014 17.8395 22 17.7393ZM21.5 6.23925C21.4971 6.04408 21.4183 5.85771 21.2803 5.71972L18.7803 3.21972C18.7112 3.14774 18.6284 3.09028 18.5368 3.05069C18.4452 3.0111 18.3466 2.99019 18.2468 2.98917C18.1471 2.98816 18.0481 3.00706 17.9557 3.04478C17.8633 3.0825 17.7794 3.13827 17.7088 3.20883C17.6383 3.27939 17.5825 3.36331 17.5448 3.4557C17.5071 3.54808 17.4882 3.64706 17.4892 3.74684C17.4902 3.84662 17.5111 3.94519 17.5507 4.03679C17.5903 4.12838 17.6477 4.21116 17.7197 4.28027L18.9395 5.49999L3.25 5.49999C3.15062 5.49859 3.05194 5.51695 2.95972 5.55401C2.86749 5.59107 2.78355 5.64609 2.71277 5.71587C2.642 5.78566 2.58579 5.86881 2.54743 5.9605C2.50907 6.0522 2.48932 6.1506 2.48932 6.24999C2.48932 6.34939 2.50907 6.44779 2.54743 6.53948C2.58579 6.63118 2.642 6.71433 2.71277 6.78411C2.78355 6.8539 2.86749 6.90892 2.95972 6.94598C3.05194 6.98304 3.15062 7.0014 3.25 6.99999L18.9395 6.99999L17.7197 8.21972C17.6477 8.28883 17.5903 8.37161 17.5507 8.4632C17.5111 8.5548 17.4902 8.65337 17.4892 8.75315C17.4882 8.85293 17.5071 8.95191 17.5448 9.04429C17.5825 9.13667 17.6383 9.2206 17.7088 9.29116C17.7794 9.36172 17.8633 9.41749 17.9557 9.45521C18.0481 9.49292 18.1471 9.51183 18.2468 9.51081C18.3466 9.5098 18.4452 9.48889 18.5368 9.4493C18.6284 9.40971 18.7112 9.35225 18.7803 9.28027L21.2803 6.78027C21.3512 6.70936 21.4072 6.62495 21.4449 6.53202C21.4827 6.43909 21.5014 6.33954 21.5 6.23925Z" />
</svg>
