<svg width="200" height="128" viewBox="0 0 200 128" fill="none" xmlns="http://www.w3.org/2000/svg">
<path fill-rule="evenodd" clip-rule="evenodd" d="M85.9569 4.23106C113.868 1.90406 141.807 17.2993 150.836 43.8116C160.221 71.3709 149.404 102.782 124.843 118.413C103.674 131.886 77.7228 118.784 58.6422 102.487C44.2734 90.2154 42.5134 70.6266 47.5745 52.4208C53.6554 30.5465 63.3316 6.1174 85.9569 4.23106Z" fill="#F0F4FF"/>
<path fill-rule="evenodd" clip-rule="evenodd" d="M85.9569 4.23106C113.868 1.90406 141.807 17.2993 150.836 43.8116C160.221 71.3709 149.404 102.782 124.843 118.413C103.674 131.886 77.7228 118.784 58.6422 102.487C44.2734 90.2154 42.5134 70.6266 47.5745 52.4208C53.6554 30.5465 63.3316 6.1174 85.9569 4.23106Z" fill="url(#paint0_linear_1264_272837)" fill-opacity="0.2"/>
<mask id="mask0_1264_272837" style="mask-type:alpha" maskUnits="userSpaceOnUse" x="45" y="4" width="110" height="120">
<path fill-rule="evenodd" clip-rule="evenodd" d="M85.9569 4.23106C113.868 1.90406 141.807 17.2993 150.836 43.8116C160.221 71.3709 149.404 102.782 124.843 118.413C103.674 131.886 77.7228 118.784 58.6422 102.487C44.2734 90.2154 42.5134 70.6266 47.5745 52.4208C53.6554 30.5465 63.3316 6.1174 85.9569 4.23106Z" fill="#F0F4FF"/>
<path fill-rule="evenodd" clip-rule="evenodd" d="M85.9569 4.23106C113.868 1.90406 141.807 17.2993 150.836 43.8116C160.221 71.3709 149.404 102.782 124.843 118.413C103.674 131.886 77.7228 118.784 58.6422 102.487C44.2734 90.2154 42.5134 70.6266 47.5745 52.4208C53.6554 30.5465 63.3316 6.1174 85.9569 4.23106Z" fill="url(#paint1_linear_1264_272837)" fill-opacity="0.2"/>
</mask>
<g mask="url(#mask0_1264_272837)">
<path opacity="0.25" d="M82.5728 37.0625C79.9797 37.0625 77.8333 39.2089 77.8333 41.8021V49.9271C77.8333 51.248 78.3902 52.453 79.2794 53.3174C80.1359 54.15 86.9999 61 86.9999 61L89.4999 62L85.9583 82.4271C85.9583 83.7019 86.477 84.8688 87.3126 85.7258C88.1767 86.6119 129 127 129 127L155.187 125.552V127.583C155.187 130.176 157.334 132.323 159.927 132.323H170.76C173.354 132.323 175.5 130.176 175.5 127.583L121.167 81.0729C121.167 78.4797 119.02 76.3333 116.427 76.3333L169.219 126.229C166.626 126.229 164.479 128.376 164.479 130.969V133H154.323C153.923 133 153.646 132.722 153.646 132.323L172.5 130.091L164.479 115.396L157.687 108.448C157.687 111.041 159.834 113.187 162.427 113.187H173.26C175.854 113.187 178 111.041 178 108.448L149.5 85.7258C149.5 85.7258 120.725 57.1453 120 56.3114C119.127 55.3073 117.844 54.6667 116.427 54.6667H105.594C103 54.6667 100.854 56.8131 100.854 59.4062V61.4375H90.0208L162.448 113.187L173.937 129.354C176.531 129.354 175 111.718 175 109.125L117 58.5C117 58.5 97.7124 39.5619 96.9999 38.7314C96.1267 37.7134 94.8342 37.0625 93.4062 37.0625H82.5728ZM82.5728 41.125H93.4062C93.8057 41.125 94.0833 41.4025 94.0833 41.8021V49.9271C94.0833 50.3266 93.8057 50.6042 93.4062 50.6042H88.3228C88.1047 50.5683 87.8822 50.5683 87.6642 50.6042H82.5728C82.1733 50.6042 81.8958 50.3266 81.8958 49.9271V41.8021C81.8958 41.4025 82.1733 41.125 82.5728 41.125ZM105.594 58.7292L117 58.5C117 58.5 117.104 59.0067 117.104 59.4062L173.937 108.448C173.937 108.847 173.66 109.125 173.26 109.125H162.427C162.027 109.125 161.75 108.847 161.75 108.448L168.542 113.698C168.577 113.48 104.952 63.3615 104.917 63.1434V59.4062C104.917 59.0067 105.194 58.7292 105.594 58.7292ZM154.323 125.677H165.156C165.556 125.677 165.833 125.955 165.833 126.354L171.437 127.583C171.437 127.983 171.16 128.26 170.76 128.26H159.927C159.527 128.26 159.25 127.983 159.25 127.583V123.854C159.286 123.636 153.682 130.309 153.646 130.091V126.354C153.646 125.955 153.923 125.677 154.323 125.677Z" fill="url(#paint2_linear_1264_272837)"/>
</g>
<path d="M149.999 67.4489C149.992 67.4489 149.986 67.449 149.98 67.449C147.23 67.449 144.998 64.1186 144.98 60C144.962 64.1091 142.741 67.4336 140 67.4489C140 67.4489 140 67.4489 140 67.4489C142.741 67.4642 144.962 70.7889 144.98 74.8979C144.998 70.7794 147.23 67.449 149.98 67.449C149.986 67.449 149.992 67.4489 149.999 67.4489C149.999 67.4489 149.999 67.4489 149.999 67.4489Z" fill="url(#paint3_linear_1264_272837)"/>
<path d="M75.9987 24.4489C75.9923 24.4489 75.9859 24.449 75.9795 24.449C73.2296 24.449 70.9982 21.1186 70.9803 17C70.9623 21.1091 68.7412 24.4336 66 24.4489C66 24.4489 66 24.4489 66 24.4489C68.7412 24.4642 70.9623 27.7889 70.9803 31.8979C70.9982 27.7794 73.2296 24.449 75.9795 24.449C75.9859 24.449 75.9923 24.4489 75.9987 24.4489C75.9987 24.4489 75.9987 24.4489 75.9987 24.4489Z" fill="url(#paint4_linear_1264_272837)"/>
<path d="M69.9987 104.449C69.9923 104.449 69.9859 104.449 69.9795 104.449C67.2296 104.449 64.9982 101.119 64.9803 97C64.9623 101.109 62.7412 104.434 60 104.449C60 104.449 60 104.449 60 104.449C62.7412 104.464 64.9623 107.789 64.9803 111.898C64.9982 107.779 67.2296 104.449 69.9795 104.449C69.9859 104.449 69.9923 104.449 69.9987 104.449C69.9987 104.449 69.9987 104.449 69.9987 104.449Z" fill="url(#paint5_linear_1264_272837)"/>
<path d="M82.5728 41.125H93.4062C93.8057 41.125 94.0833 41.4025 94.0833 41.8021V49.9271C94.0833 50.3266 93.8057 50.6042 93.4062 50.6042H88.3228C88.1047 50.5683 87.8822 50.5683 87.6642 50.6042H82.5728C82.1733 50.6042 81.8958 50.3266 81.8958 49.9271V41.8021C81.8958 41.4025 82.1733 41.125 82.5728 41.125ZM105.594 58.7292H116.427C116.827 58.7292 117.104 59.0067 117.104 59.4062V67.5312C117.104 67.9308 116.827 68.2083 116.427 68.2083H105.594C105.194 68.2083 104.917 67.9308 104.917 67.5312V63.802C104.952 63.5839 104.952 63.3615 104.917 63.1434V59.4062C104.917 59.0067 105.194 58.7292 105.594 58.7292ZM105.594 80.3958H116.427C116.827 80.3958 117.104 80.6734 117.104 81.0729V89.1979C117.104 89.5975 116.827 89.875 116.427 89.875H105.594C105.194 89.875 104.917 89.5975 104.917 89.1979V85.4687C104.952 85.2506 104.952 85.0282 104.917 84.8101V81.0729C104.917 80.6734 105.194 80.3958 105.594 80.3958Z" fill="#F0F4FF"/>
<path d="M82.5728 37.0625C79.9797 37.0625 77.8333 39.2089 77.8333 41.8021V49.9271C77.8333 52.5203 79.9797 54.6667 82.5728 54.6667H85.9583V82.4271C85.9583 85.0202 88.1047 87.1667 90.6978 87.1667H100.854V89.1979C100.854 91.7911 103 93.9375 105.594 93.9375H116.427C119.02 93.9375 121.167 91.7911 121.167 89.1979V81.0729C121.167 78.4797 119.02 76.3333 116.427 76.3333H105.594C103 76.3333 100.854 78.4797 100.854 81.0729V83.1042H90.6978C90.2983 83.1042 90.0208 82.8266 90.0208 82.4271V65.5H100.854V67.5312C100.854 70.1244 103 72.2708 105.594 72.2708H116.427C119.02 72.2708 121.167 70.1244 121.167 67.5312V59.4062C121.167 56.8131 119.02 54.6667 116.427 54.6667H105.594C103 54.6667 100.854 56.8131 100.854 59.4062V61.4375H90.0208V54.6667H93.4062C95.9993 54.6667 98.1458 52.5203 98.1458 49.9271V41.8021C98.1458 39.2089 95.9993 37.0625 93.4062 37.0625H82.5728ZM82.5728 41.125H93.4062C93.8057 41.125 94.0833 41.4025 94.0833 41.8021V49.9271C94.0833 50.3266 93.8057 50.6042 93.4062 50.6042H88.3228C88.1047 50.5683 87.8822 50.5683 87.6642 50.6042H82.5728C82.1733 50.6042 81.8958 50.3266 81.8958 49.9271V41.8021C81.8958 41.4025 82.1733 41.125 82.5728 41.125ZM105.594 58.7292H116.427C116.827 58.7292 117.104 59.0067 117.104 59.4062V67.5312C117.104 67.9308 116.827 68.2083 116.427 68.2083H105.594C105.194 68.2083 104.917 67.9308 104.917 67.5312V63.802C104.952 63.5839 104.952 63.3615 104.917 63.1434V59.4062C104.917 59.0067 105.194 58.7292 105.594 58.7292ZM105.594 80.3958H116.427C116.827 80.3958 117.104 80.6734 117.104 81.0729V89.1979C117.104 89.5975 116.827 89.875 116.427 89.875H105.594C105.194 89.875 104.917 89.5975 104.917 89.1979V85.4687C104.952 85.2506 104.952 85.0282 104.917 84.8101V81.0729C104.917 80.6734 105.194 80.3958 105.594 80.3958Z" fill="#0067C8"/>
<defs>
<linearGradient id="paint0_linear_1264_272837" x1="125.711" y1="104" x2="74.4203" y2="4.40397" gradientUnits="userSpaceOnUse">
<stop stop-color="#007DF2"/>
<stop offset="1" stop-color="#53EA9F"/>
</linearGradient>
<linearGradient id="paint1_linear_1264_272837" x1="125.711" y1="104" x2="74.4203" y2="4.40397" gradientUnits="userSpaceOnUse">
<stop stop-color="#007DF2"/>
<stop offset="1" stop-color="#53EA9F"/>
</linearGradient>
<linearGradient id="paint2_linear_1264_272837" x1="77.7721" y1="37.0909" x2="87.3704" y2="45.368" gradientUnits="userSpaceOnUse">
<stop stop-color="#308F5F"/>
<stop offset="1" stop-color="#007DF2"/>
</linearGradient>
<linearGradient id="paint3_linear_1264_272837" x1="140" y1="60" x2="150" y2="75" gradientUnits="userSpaceOnUse">
<stop stop-color="#308F5F"/>
<stop offset="1" stop-color="#007DF2"/>
</linearGradient>
<linearGradient id="paint4_linear_1264_272837" x1="66" y1="17" x2="76" y2="32" gradientUnits="userSpaceOnUse">
<stop stop-color="#308F5F"/>
<stop offset="1" stop-color="#007DF2"/>
</linearGradient>
<linearGradient id="paint5_linear_1264_272837" x1="60" y1="97" x2="70" y2="112" gradientUnits="userSpaceOnUse">
<stop stop-color="#308F5F"/>
<stop offset="1" stop-color="#007DF2"/>
</linearGradient>
</defs>
</svg>
