<?xml version="1.0" encoding="utf-8"?>
<!-- Generator: Adobe Illustrator 25.2.3, SVG Export Plug-In . SVG Version: 6.00 Build 0)  -->
<svg version="1.1" id="Layer_1" xmlns="http://www.w3.org/2000/svg" xmlns:xlink="http://www.w3.org/1999/xlink" x="0px" y="0px"
	 width="48px" height="48px" viewBox="0 0 48 48" enable-background="new 0 0 48 48" xml:space="preserve" id='spinner'>
<g>
	<circle fill="none" cx="24" cy="24" r="20"/>
	<path d="M24,12c-0.8,0-1.5-0.7-1.5-1.5v-5C22.5,4.7,23.2,4,24,4s1.5,0.7,1.5,1.5v5C25.5,11.3,24.8,12,24,12z"/>
	<path opacity="0.1" d="M24,44c-0.8,0-1.5-0.7-1.5-1.5v-5c0-0.8,0.7-1.5,1.5-1.5s1.5,0.7,1.5,1.5v5C25.5,43.3,24.8,44,24,44z"/>
	<path opacity="0.55" d="M10.5,25.5h-5C4.7,25.5,4,24.8,4,24s0.7-1.5,1.5-1.5h5c0.8,0,1.5,0.7,1.5,1.5S11.3,25.5,10.5,25.5z"/>
	<path opacity="0.85" d="M17.3,13.8c-0.5,0-1-0.3-1.3-0.8l-2.5-4.3C13,8,13.3,7.1,14,6.7c0.7-0.4,1.6-0.2,2,0.5l2.5,4.3
		c0.4,0.7,0.2,1.6-0.5,2C17.8,13.7,17.5,13.8,17.3,13.8z"/>
	<path opacity="5.000000e-02" d="M33.3,41.5c-0.5,0-1-0.3-1.3-0.8l-2.5-4.3c-0.4-0.7-0.2-1.6,0.5-2c0.7-0.4,1.6-0.2,2,0.5l2.5,4.3
		c0.4,0.7,0.2,1.6-0.5,2C33.8,41.5,33.5,41.5,33.3,41.5z"/>
	<path opacity="0.4" d="M8,34.8c-0.5,0-1-0.3-1.3-0.8c-0.4-0.7-0.2-1.6,0.5-2l4.3-2.5c0.7-0.4,1.6-0.2,2,0.5c0.4,0.7,0.2,1.6-0.5,2
		l-4.3,2.5C8.5,34.7,8.2,34.8,8,34.8z"/>
	<path opacity="0.7" d="M12.3,18.8c-0.3,0-0.5-0.1-0.7-0.2L7.2,16c-0.7-0.4-1-1.3-0.5-2s1.3-1,2-0.5l4.3,2.5c0.7,0.4,1,1.3,0.5,2
		C13.3,18.5,12.8,18.8,12.3,18.8z"/>
	<path opacity="0.25" d="M14.7,41.5c-0.3,0-0.5-0.1-0.7-0.2c-0.7-0.4-1-1.3-0.5-2l2.5-4.3c0.4-0.7,1.3-1,2-0.5c0.7,0.4,1,1.3,0.5,2
		L16,40.8C15.8,41.3,15.3,41.5,14.7,41.5z"/>
</g>
</svg>
