<svg width="24" height="24" viewBox="0 0 24 24" fill="none" xmlns="http://www.w3.org/2000/svg">
<path d="M8.25 2C7.01625 2 6 3.01625 6 4.25V19.75C6 20.9838 7.01625 22 8.25 22H15.75C16.9838 22 18 20.9838 18 19.75V4.25C18 3.01625 16.9838 2 15.75 2H8.25ZM8.25 3.5H15.75C16.1732 3.5 16.5 3.82675 16.5 4.25V19.75C16.5 20.1733 16.1732 20.5 15.75 20.5H8.25C7.82675 20.5 7.5 20.1733 7.5 19.75V4.25C7.5 3.82675 7.82675 3.5 8.25 3.5ZM12 5C11.8011 5 11.6103 5.07902 11.4697 5.21967C11.329 5.36032 11.25 5.55109 11.25 5.75C11.25 5.94891 11.329 6.13968 11.4697 6.28033C11.6103 6.42098 11.8011 6.5 12 6.5C12.1989 6.5 12.3897 6.42098 12.5303 6.28033C12.671 6.13968 12.75 5.94891 12.75 5.75C12.75 5.55109 12.671 5.36032 12.5303 5.21967C12.3897 5.07902 12.1989 5 12 5ZM10.75 17.5C10.6506 17.4986 10.5519 17.517 10.4597 17.554C10.3675 17.5911 10.2836 17.6461 10.2128 17.7159C10.142 17.7857 10.0858 17.8688 10.0474 17.9605C10.0091 18.0522 9.98932 18.1506 9.98932 18.25C9.98932 18.3494 10.0091 18.4478 10.0474 18.5395C10.0858 18.6312 10.142 18.7143 10.2128 18.7841C10.2836 18.8539 10.3675 18.9089 10.4597 18.946C10.5519 18.983 10.6506 19.0014 10.75 19H13.25C13.3494 19.0014 13.4481 18.983 13.5403 18.946C13.6325 18.9089 13.7164 18.8539 13.7872 18.7841C13.858 18.7143 13.9142 18.6312 13.9526 18.5395C13.9909 18.4478 14.0107 18.3494 14.0107 18.25C14.0107 18.1506 13.9909 18.0522 13.9526 17.9605C13.9142 17.8688 13.858 17.7857 13.7872 17.7159C13.7164 17.6461 13.6325 17.5911 13.5403 17.554C13.4481 17.517 13.3494 17.4986 13.25 17.5H10.75Z" fill="#3A4445"/>
</svg>
