<svg width="24" height="24" viewBox="0 0 24 24" fill="none" xmlns="http://www.w3.org/2000/svg">
<path d="M12 2.52637C11.2228 2.52637 10.4455 2.90537 10.0254 3.66406L2.28516 17.6475C1.46885 19.1224 2.57405 21 4.25977 21H19.7412C21.4269 21 22.5321 19.1224 21.7158 17.6475L13.9746 3.66406C13.5545 2.90537 12.7772 2.52637 12 2.52637ZM12 3.97461C12.2543 3.97461 12.5083 4.11282 12.6621 4.39062L20.4033 18.374C20.7 18.9101 20.3525 19.5 19.7412 19.5H4.25977C3.64849 19.5 3.30097 18.9101 3.59766 18.374L11.3379 4.39062C11.4917 4.11282 11.7457 3.97461 12 3.97461ZM11.9883 7.98926C11.7895 7.99236 11.6002 8.07423 11.4617 8.21686C11.3233 8.3595 11.2472 8.55125 11.25 8.75V13.75C11.2486 13.8494 11.267 13.9481 11.304 14.0403C11.3411 14.1325 11.3961 14.2164 11.4659 14.2872C11.5357 14.358 11.6188 14.4142 11.7105 14.4526C11.8022 14.4909 11.9006 14.5107 12 14.5107C12.0994 14.5107 12.1978 14.4909 12.2895 14.4526C12.3812 14.4142 12.4643 14.358 12.5341 14.2872C12.6039 14.2164 12.6589 14.1325 12.696 14.0403C12.733 13.9481 12.7514 13.8494 12.75 13.75V8.75C12.7514 8.64962 12.7327 8.54997 12.6949 8.45695C12.6572 8.36394 12.6011 8.27946 12.53 8.20852C12.459 8.13758 12.3745 8.08161 12.2814 8.04395C12.1883 8.00629 12.0887 7.98769 11.9883 7.98926ZM12 16C11.7348 16 11.4804 16.1054 11.2929 16.2929C11.1054 16.4804 11 16.7348 11 17C11 17.2652 11.1054 17.5196 11.2929 17.7071C11.4804 17.8946 11.7348 18 12 18C12.2652 18 12.5196 17.8946 12.7071 17.7071C12.8946 17.5196 13 17.2652 13 17C13 16.7348 12.8946 16.4804 12.7071 16.2929C12.5196 16.1054 12.2652 16 12 16Z"/>
</svg>
