<svg width="137" height="16" viewBox="0 0 137 16" fill="none" xmlns="http://www.w3.org/2000/svg">
<g clip-path="url(#clip0)">
<path d="M30.2222 11.1276C26.93 9.02058 23.177 7.57202 19.1605 6.97942V3.09465C19.1605 2.04115 18.963 1.18519 18.5021 0.72428C18.1728 0.263375 17.5144 0 16.7243 0H14.4856V1.38272H16.3292C17.251 1.38272 17.5802 2.04115 17.5802 3.16049V6.78189C16.7901 6.71605 15.9342 6.65021 15.144 6.65021C14.4856 6.65021 13.893 6.65021 13.2346 6.71605V0L11.5885 0.460905V6.84774C7.37449 7.37449 3.42387 8.88889 0 11.1276C3.55556 9.34979 7.44033 8.16461 11.5885 7.7037V12.9054C11.5885 13.9588 11.786 14.8148 12.2469 15.2757C12.642 15.7366 13.2346 16 14.0247 16H16.3292V14.6173H14.4856C13.5638 14.6173 13.2346 13.9588 13.2346 12.8395V7.57202C13.893 7.50617 14.4856 7.50617 15.144 7.50617C15.5806 7.50617 16 7.5233 16.411 7.54008C16.8059 7.55621 17.1931 7.57202 17.5802 7.57202V16L19.2263 15.5391V7.76955C23.1111 8.23045 26.8642 9.41564 30.2222 11.1276Z" fill="black"/>
<path d="M53.8601 9.94236C53.8601 8.69133 54.1893 7.96705 55.2428 7.96705L55.9012 7.9012V6.3868H54.7819C53.9259 6.3868 53.2675 6.71602 52.8066 7.17692C52.2798 7.76952 52.0823 8.69133 52.0823 9.87651V13.8271H53.8601V9.94236Z" fill="black"/>
<path d="M59.9835 7.96705C58.93 7.96705 58.6008 8.69133 58.6008 9.94236V13.8271H56.823V9.87651C56.823 8.69133 57.0206 7.76952 57.5473 7.17692C58.0082 6.71602 58.6667 6.3868 59.5226 6.3868H60.642V7.9012L59.9835 7.96705Z" fill="black"/>
<path d="M88.6255 7.96705C87.572 7.96705 87.2428 8.69133 87.2428 9.94236V13.8271H85.465V9.87651C85.465 8.69133 85.6625 7.76952 86.1893 7.17692C86.6502 6.71602 87.3086 6.3868 88.1646 6.3868H89.284V7.9012L88.6255 7.96705Z" fill="black"/>
<path fill-rule="evenodd" clip-rule="evenodd" d="M47.0124 14.0247C48.5268 14.0247 49.5144 13.5638 50.3045 12.4444L48.856 11.5884C48.3951 12.1152 47.8683 12.3127 47.0782 12.3127C46.0247 12.3127 45.2346 11.7201 45.0371 10.6666H50.8313V10.2716C50.8313 8.03289 49.3169 6.3868 47.0124 6.3868C44.7078 6.3868 43.2593 8.23042 43.2593 10.2057C43.2593 12.3127 44.7078 14.0247 47.0124 14.0247ZM47.0124 7.96705C48 7.96705 48.7243 8.4938 48.9877 9.34976H45.1029C45.4321 8.42795 46.0905 7.96705 47.0124 7.96705Z" fill="black"/>
<path fill-rule="evenodd" clip-rule="evenodd" d="M67.0288 13.1028C66.3704 13.6954 65.712 14.0247 64.7901 14.0247C62.9465 14.0247 61.3663 12.4444 61.3663 10.2057C61.3663 7.96705 62.8807 6.3868 64.7901 6.3868C65.6461 6.3868 66.4362 6.71602 67.0288 7.37445V6.58433H68.8066V13.8271H67.0288V13.1028ZM63.2099 10.2057C63.2099 11.4568 64 12.3786 65.1194 12.3786C66.2387 12.3786 67.0947 11.5226 67.0947 10.2057C67.0947 8.9547 66.2387 8.09873 65.1194 8.09873C63.9342 8.09873 63.2099 9.08639 63.2099 10.2057Z" fill="black"/>
<path fill-rule="evenodd" clip-rule="evenodd" d="M80.3292 14.0247C82.5021 14.0247 84.1481 12.3127 84.1481 10.2057C84.1481 8.09873 82.4362 6.45264 80.3292 6.3868C78.3539 6.3868 76.5761 8.03289 76.5761 10.2057C76.5761 12.3786 78.2222 14.0247 80.3292 14.0247ZM80.3292 12.3127C79.2099 12.3127 78.4198 11.4568 78.4198 10.2057C78.4198 9.02054 79.2099 8.16458 80.3292 8.09873C81.5144 8.09873 82.3045 8.9547 82.3045 10.2057C82.3045 11.5226 81.4486 12.3127 80.3292 12.3127Z" fill="black"/>
<path fill-rule="evenodd" clip-rule="evenodd" d="M108.313 13.1028C107.654 13.6954 106.996 14.0247 106.074 14.0247C104.23 14.0247 102.65 12.4444 102.65 10.2057C102.65 7.96705 104.165 6.3868 106.074 6.3868C106.93 6.3868 107.72 6.71602 108.313 7.37445V6.58433H110.091V13.8271H108.313V13.1028ZM104.428 10.2057C104.428 11.4568 105.218 12.3786 106.337 12.3786C107.457 12.3786 108.313 11.5226 108.313 10.2057C108.313 8.9547 107.457 8.09873 106.337 8.09873C105.218 8.09873 104.428 9.08639 104.428 10.2057Z" fill="black"/>
<path d="M119.243 5.5309C119.901 5.5309 120.428 5.00415 120.428 4.34571C120.428 3.68727 119.901 3.16053 119.243 3.16053C118.584 3.16053 118.058 3.68727 118.058 4.27987C118.058 4.9383 118.584 5.5309 119.243 5.5309Z" fill="black"/>
<path d="M120.165 6.65024H118.387V13.893H120.165V6.65024Z" fill="black"/>
<path d="M45.1029 1.90948H35.0288V3.68726H39.1111V13.8272H40.9547V3.68726H45.1029V1.90948Z" fill="black"/>
<path fill-rule="evenodd" clip-rule="evenodd" d="M125.169 14.0247C127.342 14.0247 128.988 12.3127 128.988 10.2057C128.988 8.09873 127.276 6.45264 125.169 6.3868C123.193 6.3868 121.416 8.03289 121.416 10.2057C121.416 12.3786 123.062 14.0247 125.169 14.0247ZM125.169 12.3127C124.049 12.3127 123.259 11.4568 123.259 10.2057C123.259 9.02054 124.049 8.16458 125.169 8.09873C126.354 8.09873 127.144 8.9547 127.144 10.2057C127.144 11.5226 126.288 12.3127 125.169 12.3127Z" fill="black"/>
<path d="M117.07 8.16464V6.58439H115.029V3.16053L113.251 3.68727V6.65024H111.342V8.23048H113.251V11.9177C113.251 13.1029 113.449 14.0247 113.975 14.6173C114.436 15.0782 115.095 15.4074 115.951 15.4074H117.07V13.8272H116.412C115.358 13.8272 115.029 13.1029 115.029 11.8519V8.16464H117.07Z" fill="black"/>
<path d="M75.8519 2.17287V3.68728H75.1934C74.0082 3.68728 73.8107 4.27987 73.8107 5.66258V6.58439H75.8519V8.16464H73.8107V15.2099L72.0329 15.7367V8.29633H70.1235V6.71608H72.0329V5.66258C72.0329 4.41155 72.2305 3.55559 72.7572 2.963C73.1523 2.43625 73.8765 2.17287 74.7325 2.17287H75.8519Z" fill="black"/>
<path d="M96.9876 13.8272H95.2099V10.3375C95.2099 8.95476 94.9465 8.0988 93.9588 8.0988C93.037 8.0988 92.3786 8.82308 92.3786 10.3375V13.8272H90.6008V6.45271H92.3786V7.44036C92.9712 6.78193 93.7613 6.45271 94.6173 6.45271C95.5391 6.45271 96.2634 6.84777 96.7243 7.76958C97.3827 6.91361 98.0412 6.45271 99.1605 6.45271C99.9506 6.45271 100.675 6.78193 101.07 7.30867C101.531 7.90127 101.597 8.69139 101.597 9.67904V13.8272H99.8189V9.87658C99.8189 8.69139 99.4239 8.0988 98.5679 8.0988C97.6461 8.0988 96.9876 8.82308 96.9876 10.2716V13.8272Z" fill="black"/>
<path d="M133.926 6.45271C133.136 6.45271 132.543 6.78193 131.819 7.37452V6.58439H130.041V13.8272H131.819V10.7984C131.819 10.7068 131.818 10.6163 131.817 10.5268C131.81 9.90863 131.803 9.34073 132.148 8.82308C132.477 8.36217 132.872 8.0988 133.399 8.0988C134.519 8.0988 134.65 8.95477 134.65 10.4033V13.8272H136.428V8.95477C136.428 7.37452 135.243 6.45271 133.926 6.45271Z" fill="black"/>
</g>
<defs>
<clipPath id="clip0">
<rect width="136.428" height="16" fill="white"/>
</clipPath>
</defs>
</svg>